M48
; DRILL file {KiCad (6.99.0-1912-g359c99991b)} date Tue Aug 16 22:17:47 2022
; FORMAT={-:-/ absolute / metric / decimal}
; #@! TF.CreationDate,2022-08-16T22:17:47+07:00
; #@! TF.GenerationSoftware,Kicad,Pcbnew,(6.99.0-1912-g359c99991b)
; #@! TF.FileFunction,MixedPlating,1,2
FMAT,2
METRIC
; #@! TA.AperFunction,Plated,PTH,ViaDrill
T1C0.250
; #@! TA.AperFunction,Plated,PTH,ComponentDrill
T2C0.350
; #@! TA.AperFunction,Plated,PTH,ComponentDrill
T3C1.000
; #@! TA.AperFunction,Plated,PTH,ComponentDrill
T4C3.000
; #@! TA.AperFunction,NonPlated,NPTH,ComponentDrill
T5C1.750
; #@! TA.AperFunction,NonPlated,NPTH,ComponentDrill
T6C3.048
; #@! TA.AperFunction,NonPlated,NPTH,ComponentDrill
T7C3.988
%
G90
G05
T1
X0.6Y-5.5
X0.6Y-7.5
X3.0Y-43.6
X3.0Y-45.6
X3.0Y-51.9
X3.0Y-81.7
X3.0Y-83.7
X4.0Y-16.1
X4.2Y-70.2
X4.2Y-72.2
X5.3Y-81.7
X5.3Y-83.7
X5.4Y-24.5
X5.4Y-26.5
X7.1Y-19.2
X9.0Y-51.2
X9.0Y-53.2
X12.2Y-77.4
X12.5Y-62.6
X12.5Y-63.9
X16.1Y-2.9
X16.1Y-4.9
X18.5Y-20.0
X18.5Y-41.0
X18.5Y-43.0
X18.5Y-79.1
X18.5Y-81.1
X19.7Y-5.5
X19.7Y-7.5
X19.7Y-13.9
X19.8Y-68.4
X19.8Y-69.7
X20.9Y-22.0
X20.9Y-24.0
X20.9Y-79.1
X20.9Y-81.1
X22.5Y-34.9
X24.5Y-48.6
X24.5Y-50.6
X25.7Y-70.2
X25.7Y-72.2
X26.111Y-15.85
X26.8Y-81.7
X26.8Y-83.7
X27.5Y-29.6
X28.0Y-60.1
X28.0Y-62.1
X28.2Y-30.4
X28.6Y-49.951
X29.1Y-81.7
X29.1Y-83.7
X29.2Y-24.5
X29.2Y-26.5
X29.5Y-18.9
X30.9Y-34.9
X32.1Y-12.6
X32.1Y-14.8
X33.9Y-43.6
X33.9Y-45.6
X34.094Y-49.949
X34.7Y-11.7
X35.2Y-2.9
X35.2Y-4.9
X35.8Y-14.822
X37.3Y-73.0
X38.7Y-5.5
X38.7Y-7.5
X39.3Y-62.8
X40.8Y-71.6
X41.2Y-67.7
X41.2Y-69.7
X42.4Y-70.7
X42.4Y-79.1
X42.4Y-81.1
X43.0Y-13.0
X43.4Y-56.8
X43.4Y-68.2
X43.5Y-62.6
X43.5Y-64.6
X44.7Y-22.0
X44.7Y-24.0
X44.7Y-79.1
X44.7Y-81.1
X47.6Y-71.6
X48.2Y-24.5
X48.2Y-26.5
X49.5Y-41.0
X49.5Y-43.0
X50.6Y-81.7
X50.6Y-83.7
X52.9Y-81.7
X52.9Y-83.7
X53.0Y-43.6
X53.0Y-45.6
X54.2Y-2.9
X54.2Y-4.9
X57.7Y-5.5
X57.7Y-7.5
X59.0Y-60.1
X59.0Y-62.1
X60.3Y-62.9
X61.1Y-62.0
X62.4Y-75.4
X62.5Y-62.6
X62.5Y-64.6
X63.8Y-22.0
X63.8Y-24.0
X64.5Y-71.0
X65.6Y-72.0
X66.2Y-79.1
X66.2Y-81.1
X67.3Y-24.5
X67.3Y-26.5
X68.5Y-41.0
X68.5Y-43.0
X68.5Y-79.1
X68.5Y-81.1
X71.0Y-76.8
X71.7Y-77.4
X72.0Y-43.6
X72.0Y-45.6
X73.3Y-2.9
X73.3Y-4.9
X76.8Y-5.5
X76.8Y-7.5
X78.0Y-60.1
X78.0Y-62.1
X81.6Y-62.6
X81.6Y-64.6
X82.3Y-67.5
X82.8Y-22.0
X82.8Y-24.0
X84.2Y-56.6
X85.2Y-84.9
X86.3Y-24.5
X86.3Y-26.5
X87.6Y-41.0
X87.6Y-43.0
X87.8Y-85.3
X88.7Y-69.9
X88.9Y-74.4
X91.1Y-43.6
X91.1Y-45.6
X92.3Y-2.9
X92.3Y-4.9
X92.9Y-91.5
X93.275Y-80.94
X94.9Y-89.4
X95.9Y-5.5
X95.9Y-7.5
X97.1Y-60.1
X97.1Y-62.1
X97.5Y-83.146
X98.0Y-82.146
X100.5Y-71.8
X100.6Y-62.6
X100.6Y-64.6
X100.6Y-73.3
X100.8Y-70.0
X100.8Y-72.6
X101.4Y-70.7
X101.9Y-22.0
X101.9Y-24.0
X101.952Y-84.17
X102.4Y-89.4
X102.9Y-87.5
X105.4Y-24.5
X105.4Y-26.5
X105.8Y-91.8
X106.4Y-84.4
X106.6Y-41.0
X106.6Y-43.0
X106.6Y-70.1
X108.5Y-92.9
X109.2Y-75.8
X109.3Y-72.9
X109.3Y-91.3
X109.5Y-92.3
X110.1Y-43.6
X110.1Y-45.6
X110.4Y-80.046
X111.0Y-83.146
X111.4Y-2.9
X111.4Y-4.9
X111.4Y-84.846
X114.9Y-5.5
X114.9Y-7.5
X115.686Y-83.147
X116.1Y-60.1
X116.1Y-62.1
X119.6Y-84.6
X119.7Y-62.6
X119.7Y-64.6
X120.1Y-78.7
X120.9Y-22.0
X120.9Y-24.0
X122.0Y-81.7
X122.0Y-83.7
X124.4Y-24.5
X124.4Y-26.5
X125.4Y-76.6
X125.7Y-41.0
X125.7Y-43.0
X127.3Y-75.8
X129.1Y-92.9
X129.2Y-43.6
X129.2Y-45.6
X130.4Y-2.9
X130.4Y-4.9
X134.0Y-5.5
X134.0Y-7.5
X134.0Y-82.1
X134.0Y-83.7
X135.2Y-60.1
X135.2Y-62.1
X137.3Y-90.7
X137.6Y-79.1
X137.6Y-80.7
X138.7Y-62.6
X138.7Y-64.6
X140.0Y-22.0
X140.0Y-24.0
X141.1Y-75.9
X143.5Y-24.5
X143.5Y-26.5
X144.7Y-41.0
X144.7Y-43.0
X148.2Y-43.6
X148.2Y-45.6
X149.5Y-2.9
X149.5Y-4.9
X149.5Y-79.1
X149.5Y-81.1
X153.0Y-5.4
X153.0Y-7.4
X154.2Y-60.1
X154.2Y-62.1
X157.8Y-62.6
X157.8Y-64.6
X159.0Y-22.0
X159.0Y-24.0
X160.5Y-75.0
X162.5Y-24.5
X162.5Y-26.5
X163.8Y-41.0
X163.8Y-43.0
X167.3Y-43.6
X167.3Y-45.6
X168.5Y-2.9
X168.5Y-4.9
X172.0Y-5.5
X172.0Y-7.5
X173.3Y-60.1
X173.3Y-62.1
X175.0Y-74.2
X176.8Y-62.6
X176.8Y-64.6
X178.1Y-22.0
X178.1Y-24.0
X181.6Y-24.5
X181.6Y-26.5
X182.8Y-41.0
X182.8Y-43.0
X186.3Y-43.5
X186.3Y-45.5
X187.6Y-2.9
X187.6Y-4.9
X190.2Y-69.0
X191.1Y-5.5
X191.1Y-7.5
X192.3Y-60.1
X192.3Y-62.1
X193.5Y-81.7
X193.5Y-83.7
X195.9Y-62.6
X195.9Y-64.6
X197.1Y-22.0
X197.1Y-24.0
X197.7Y-73.4
X200.6Y-24.5
X200.6Y-26.5
X201.9Y-41.0
X201.9Y-43.0
X205.4Y-43.6
X205.4Y-45.6
X206.6Y-2.9
X206.6Y-4.9
X209.0Y-79.1
X209.0Y-81.1
X210.1Y-5.5
X210.1Y-7.5
X210.4Y-89.9
X210.9Y-90.7
X211.4Y-60.1
X211.4Y-62.1
X214.9Y-62.6
X214.9Y-64.6
X214.9Y-81.7
X214.9Y-83.7
X215.6Y-72.6
X216.2Y-22.0
X216.2Y-24.0
X217.2Y-81.7
X217.2Y-83.7
X219.7Y-24.5
X219.7Y-26.5
X220.9Y-41.0
X220.9Y-43.0
X224.4Y-43.6
X224.4Y-45.6
X225.7Y-2.9
X225.7Y-4.9
X229.2Y-5.5
X229.2Y-7.5
X229.478Y-11.858
X230.4Y-60.1
X230.4Y-62.1
X230.5Y-79.1
X230.5Y-81.1
X232.8Y-79.1
X232.8Y-81.1
X235.2Y-22.0
X235.2Y-24.0
X236.1Y-34.9
X237.5Y-71.3
X237.929Y-49.95
X238.0Y-69.5
X238.0Y-70.3
X238.7Y-24.5
X238.7Y-26.5
X238.7Y-81.7
X238.7Y-83.7
X239.9Y-74.9
X240.0Y-41.0
X240.0Y-43.0
X241.1Y-81.7
X241.1Y-83.7
X242.4Y-70.2
X242.4Y-72.2
X243.5Y-43.6
X243.5Y-45.6
X244.7Y-2.9
X244.7Y-4.9
X249.5Y-13.1
X249.5Y-15.1
X250.6Y-62.6
X250.6Y-63.9
X254.3Y-22.0
X254.3Y-24.0
X254.3Y-79.1
X254.3Y-81.1
X255.4Y-44.0
X255.4Y-45.6
X256.6Y-79.1
X256.6Y-81.1
X257.8Y-5.4
X257.8Y-6.7
X257.9Y-68.4
X257.9Y-69.7
X258.8Y-58.0
X258.9Y-39.7
X259.0Y-41.0
X259.0Y-42.6
X260.2Y-77.5
X262.4Y-58.0
X262.5Y-81.7
X262.5Y-83.7
X263.8Y-32.1
X263.8Y-34.1
X264.9Y-34.0
X264.9Y-36.0
X264.9Y-81.7
X264.9Y-83.7
X265.1Y-11.3
X265.1Y-12.6
X266.2Y-60.1
X266.2Y-62.1
X266.7Y-67.7
X268.6Y-13.1
X268.6Y-15.1
X268.6Y-70.2
X268.6Y-72.2
X270.9Y-41.0
X270.9Y-43.0
X273.3Y-2.9
X273.3Y-4.9
X278.1Y-79.1
X278.1Y-81.1
X279.3Y-29.6
X279.3Y-31.6
X280.4Y-79.1
X280.4Y-81.1
X280.5Y-31.5
X280.5Y-33.5
X284.1Y-10.5
X284.1Y-12.5
X284.1Y-67.7
X284.1Y-69.7
T2
X102.975Y-81.09
X102.975Y-82.365
X102.975Y-83.64
X104.25Y-81.09
X104.25Y-82.365
X104.25Y-83.64
X105.525Y-81.09
X105.525Y-82.365
X105.525Y-83.64
T3
X112.725Y-88.7
X115.265Y-88.7
X117.805Y-88.7
X120.345Y-88.7
X122.885Y-88.7
T4
X5.19Y-6.46
X7.571Y-44.56
X7.571Y-82.66
X8.841Y-71.23
X9.952Y-25.51
X9.952Y-82.66
X11.54Y-3.92
X13.604Y-52.18
X13.921Y-42.02
X13.921Y-80.12
X15.191Y-68.69
X16.302Y-22.97
X16.302Y-80.12
X17.096Y-63.61
X19.954Y-49.64
X23.446Y-61.07
X24.24Y-6.46
X30.272Y-71.23
X30.59Y-3.92
X31.384Y-82.66
X33.765Y-25.51
X33.765Y-82.66
X36.622Y-68.69
X37.734Y-80.12
X38.527Y-44.56
X40.115Y-22.97
X40.115Y-80.12
X43.29Y-6.46
X44.877Y-42.02
X48.052Y-63.61
X49.64Y-3.92
X52.815Y-25.51
X54.402Y-61.07
X55.196Y-82.66
X57.578Y-44.56
X57.578Y-82.66
X59.165Y-22.97
X61.546Y-80.12
X62.34Y-6.46
X63.927Y-42.02
X63.927Y-80.12
X67.102Y-63.61
X68.69Y-3.92
X71.865Y-25.51
X73.453Y-61.07
X76.627Y-44.56
X78.215Y-22.97
X81.39Y-6.46
X82.977Y-42.02
X86.152Y-63.61
X87.74Y-3.92
X90.915Y-25.51
X92.502Y-61.07
X95.677Y-44.56
X97.265Y-22.97
X100.44Y-6.46
X102.027Y-42.02
X105.203Y-63.61
X106.79Y-3.92
X109.965Y-25.51
X111.552Y-61.07
X114.727Y-44.56
X116.315Y-22.97
X119.49Y-6.46
X121.078Y-42.02
X124.252Y-63.61
X125.84Y-3.92
X126.634Y-82.66
X129.015Y-25.51
X130.602Y-61.07
X132.984Y-80.12
X133.778Y-44.56
X135.365Y-22.97
X138.54Y-6.46
X138.54Y-82.66
X140.127Y-42.02
X143.302Y-63.61
X144.89Y-3.92
X144.89Y-80.12
X148.065Y-25.51
X149.653Y-61.07
X152.827Y-44.56
X154.415Y-22.97
X157.59Y-6.46
X159.177Y-42.02
X162.352Y-63.61
X163.94Y-3.92
X167.115Y-25.51
X168.702Y-61.07
X171.877Y-44.56
X173.465Y-22.97
X176.64Y-6.46
X178.227Y-42.02
X181.403Y-63.61
X182.99Y-3.92
X186.165Y-25.51
X187.752Y-61.07
X190.927Y-44.56
X192.515Y-22.97
X195.69Y-6.46
X197.278Y-42.02
X198.071Y-82.66
X200.452Y-63.61
X202.04Y-3.92
X204.421Y-80.12
X205.215Y-25.51
X206.802Y-61.07
X209.977Y-44.56
X211.565Y-22.97
X214.74Y-6.46
X216.327Y-42.02
X219.502Y-63.61
X219.502Y-82.66
X221.09Y-3.92
X221.884Y-82.66
X224.265Y-25.51
X225.852Y-61.07
X225.852Y-80.12
X228.234Y-80.12
X229.028Y-44.56
X230.615Y-22.97
X233.79Y-6.46
X235.377Y-42.02
X240.14Y-3.92
X243.315Y-25.51
X243.315Y-82.66
X245.696Y-82.66
X246.966Y-71.23
X248.077Y-44.56
X249.665Y-22.97
X249.665Y-80.12
X252.046Y-80.12
X253.316Y-68.69
X254.11Y-14.08
X254.427Y-42.02
X255.221Y-63.61
X259.984Y-44.56
X260.46Y-11.54
X261.571Y-61.07
X262.365Y-6.46
X266.334Y-42.02
X267.127Y-82.66
X268.397Y-33.13
X268.715Y-3.92
X269.509Y-35.035
X269.509Y-82.66
X273.16Y-14.08
X273.16Y-71.23
X273.477Y-80.12
X274.748Y-30.59
X275.859Y-32.495
X275.859Y-80.12
X279.51Y-11.54
X279.51Y-68.69
T5
X3.92Y-9.0
X6.301Y-47.1
X6.301Y-66.15
X6.301Y-85.2
X8.682Y-28.05
X8.682Y-85.2
X11.064Y-47.1
X14.08Y-9.0
X15.826Y-66.15
X16.461Y-47.1
X16.461Y-66.15
X16.461Y-85.2
X18.842Y-28.05
X18.842Y-85.2
X21.224Y-47.1
X22.97Y-9.0
X25.986Y-66.15
X27.732Y-66.15
X30.114Y-85.2
X32.495Y-28.05
X32.495Y-85.2
X33.13Y-9.0
X37.258Y-47.1
X37.892Y-66.15
X40.274Y-85.2
X42.02Y-9.0
X42.655Y-28.05
X42.655Y-85.2
X46.782Y-66.15
X47.417Y-47.1
X51.545Y-28.05
X52.18Y-9.0
X53.926Y-85.2
X56.307Y-47.1
X56.307Y-85.2
X56.942Y-66.15
X61.07Y-9.0
X61.705Y-28.05
X64.086Y-85.2
X65.832Y-66.15
X66.468Y-47.1
X66.468Y-85.2
X70.595Y-28.05
X71.23Y-9.0
X75.358Y-47.1
X75.992Y-66.15
X80.12Y-9.0
X80.755Y-28.05
X84.882Y-66.15
X85.517Y-47.1
X89.645Y-28.05
X90.28Y-9.0
X94.407Y-47.1
X95.042Y-66.15
X99.17Y-9.0
X99.805Y-28.05
X103.932Y-66.15
X104.567Y-47.1
X108.695Y-28.05
X109.33Y-9.0
X113.457Y-47.1
X114.093Y-66.15
X118.22Y-9.0
X118.855Y-28.05
X122.982Y-66.15
X123.617Y-47.1
X125.364Y-85.2
X127.745Y-28.05
X128.38Y-9.0
X132.507Y-47.1
X133.142Y-66.15
X135.524Y-85.2
X137.27Y-9.0
X137.27Y-85.2
X137.905Y-28.05
X142.032Y-66.15
X142.667Y-47.1
X146.795Y-28.05
X147.43Y-9.0
X147.43Y-85.2
X151.558Y-47.1
X152.192Y-66.15
X156.32Y-9.0
X156.955Y-28.05
X161.082Y-66.15
X161.718Y-47.1
X165.845Y-28.05
X166.48Y-9.0
X170.607Y-47.1
X171.242Y-66.15
X175.37Y-9.0
X176.005Y-28.05
X180.132Y-66.15
X180.767Y-47.1
X184.895Y-28.05
X185.53Y-9.0
X189.657Y-47.1
X190.292Y-66.15
X194.42Y-9.0
X195.055Y-28.05
X196.801Y-85.2
X199.183Y-66.15
X199.817Y-47.1
X203.945Y-28.05
X204.58Y-9.0
X206.961Y-85.2
X208.707Y-47.1
X209.343Y-66.15
X213.47Y-9.0
X214.105Y-28.05
X218.232Y-66.15
X218.232Y-85.2
X218.867Y-47.1
X220.614Y-85.2
X222.995Y-28.05
X223.63Y-9.0
X227.757Y-47.1
X228.392Y-66.15
X228.392Y-85.2
X230.774Y-85.2
X232.52Y-9.0
X233.155Y-28.05
X237.917Y-47.1
X242.045Y-28.05
X242.045Y-85.2
X242.68Y-9.0
X244.426Y-66.15
X244.426Y-85.2
X246.807Y-47.1
X251.57Y-9.0
X252.205Y-28.05
X252.205Y-85.2
X253.951Y-66.15
X254.586Y-66.15
X254.586Y-85.2
X256.967Y-47.1
X258.714Y-47.1
X261.095Y-9.0
X261.73Y-9.0
X264.111Y-66.15
X265.858Y-28.05
X265.858Y-85.2
X268.239Y-37.575
X268.239Y-85.2
X268.874Y-47.1
X270.62Y-9.0
X270.62Y-66.15
X271.255Y-9.0
X276.017Y-28.05
X276.017Y-85.2
X278.399Y-37.575
X278.399Y-85.2
X280.78Y-9.0
X280.78Y-66.15
T6
X9.0Y-59.165
X32.812Y-59.165
X80.438Y-92.185
X85.2Y-92.185
X180.45Y-92.185
X199.5Y-92.185
X247.125Y-59.165
X251.887Y-54.085
X254.269Y-2.015
X270.938Y-59.165
X275.7Y-54.085
X278.081Y-2.015
X280.304Y-25.669
X280.304Y-49.481
T7
X9.0Y-9.0
X9.0Y-74.405
X11.381Y-47.1
X11.381Y-66.15
X11.381Y-85.2
X13.762Y-28.05
X13.762Y-85.2
X16.144Y-47.1
X20.906Y-66.15
X28.05Y-9.0
X32.812Y-66.15
X32.812Y-74.405
X35.194Y-85.2
X37.575Y-28.05
X37.575Y-85.2
X42.337Y-47.1
X47.1Y-9.0
X51.862Y-66.15
X56.625Y-28.05
X59.006Y-85.2
X61.387Y-47.1
X61.387Y-85.2
X66.15Y-9.0
X70.912Y-66.15
X75.675Y-28.05
X80.438Y-47.1
X80.438Y-76.945
X85.2Y-9.0
X85.2Y-76.945
X89.962Y-66.15
X94.725Y-28.05
X99.487Y-47.1
X104.25Y-9.0
X109.012Y-66.15
X113.775Y-28.05
X118.537Y-47.1
X123.3Y-9.0
X128.062Y-66.15
X130.444Y-85.2
X132.825Y-28.05
X137.588Y-47.1
X142.35Y-9.0
X142.35Y-85.2
X147.112Y-66.15
X151.875Y-28.05
X156.637Y-47.1
X161.4Y-9.0
X166.162Y-66.15
X170.925Y-28.05
X175.688Y-47.1
X180.45Y-9.0
X180.45Y-76.945
X185.213Y-66.15
X189.975Y-28.05
X194.737Y-47.1
X199.5Y-9.0
X199.5Y-76.945
X201.881Y-85.2
X204.262Y-66.15
X209.025Y-28.05
X213.787Y-47.1
X218.55Y-9.0
X223.312Y-66.15
X223.312Y-85.2
X225.694Y-85.2
X228.075Y-28.05
X232.837Y-47.1
X237.6Y-9.0
X247.125Y-28.05
X247.125Y-74.405
X247.125Y-85.2
X249.506Y-66.15
X249.506Y-85.2
X251.887Y-38.845
X251.887Y-47.1
X254.269Y-17.255
X256.65Y-9.0
X259.031Y-66.15
X263.794Y-47.1
X265.064Y-25.669
X265.064Y-49.481
X266.175Y-9.0
X270.938Y-28.05
X270.938Y-74.405
X270.938Y-85.2
X273.319Y-37.575
X273.319Y-85.2
X275.7Y-9.0
X275.7Y-38.845
X275.7Y-66.15
X278.081Y-17.255
T0
M30
