<?xml version="1.0" encoding="utf-8"?>
<!-- Generator: Adobe Illustrator 25.0.0, SVG Export Plug-In . SVG Version: 6.00 Build 0)  -->
<svg version="1.1" id="Layer_1" xmlns="http://www.w3.org/2000/svg" xmlns:xlink="http://www.w3.org/1999/xlink" x="0px" y="0px"
	 viewBox="0 0 181.42 42.52" style="enable-background:new 0 0 181.42 42.52;" xml:space="preserve">
<style type="text/css">
	.st0{fill-rule:evenodd;clip-rule:evenodd;}
	.st1{fill:none;stroke:#000000;stroke-width:0.1894;stroke-miterlimit:10;}
</style>
<g>
	<path d="M103.46,14.92c-1.96-1.03-1.13-2.97-1.89-4.61c-1.65,1.41-3.22,2.76-4.76,4.09c-1.93-1.97-2.13-4.9-0.72-8.14
		c1.29,0.34,1.1,1.25,0.97,2.23c-0.11,0.9-0.02,1.82-0.02,3.09c2.42-1.29,3.25-3.61,4.9-5.16c1.23,0.21,1.55,1.1,1.66,2.06
		c0.2,1.73,0.34,3.48,0.42,5.22C104.03,14.08,103.67,14.47,103.46,14.92z"/>
	<path d="M17.62,15.57c-1.48-0.85-1.09-2.54-1.95-3.68c-3.07,0.39-2,3.34-3.09,5.09c-1.44-0.27-1.07-1.42-0.86-2.17
		C12.39,12.28,13.2,9.79,14,7.3c0.16-0.5,0.5-0.94,0.88-1.64c0.53,0.44,1.08,0.68,1.28,1.09C17.54,9.52,17.63,12.52,17.62,15.57z"/>
	<path d="M39.26,15.87c1.15-0.11,1.92-0.16,2.67-0.27c0.92-0.13,1.86-0.52,1.88-1.51c0.02-0.67-0.54-1.39-0.93-2.02
		c-0.2-0.31-0.63-0.47-0.94-0.72c-1.27-1-1.66-1.99-1.22-3.05c0.52-1.25,2.47-2.48,3.64-2.31c0.78,0.12,1.04,0.49,1.3,2.05
		c-1.21,0.23-2.8-0.04-3.25,1.85c1.28,0.96,2.66,1.92,3,3.71c0.26,1.36-0.38,2.65-1.74,3.32C42.1,17.69,40.47,17.42,39.26,15.87z"/>
	<path d="M25.45,12.47c-0.13,1.36-0.24,2.58-0.39,4.2c-1.95-1.81-0.92-3.76-1.2-5.43c-0.3-1.79-0.21-3.64-0.29-5.47
		c3.13-0.39,4.41,0.05,4.99,1.72C29.09,9.04,27.87,11.04,25.45,12.47z M25.73,9.94c0.71-0.84,1.5-1.3,1.01-2.45
		C25.28,7.64,25.02,8.34,25.73,9.94z"/>
	<path d="M73.2,6.16c2.43,2.41,3.27,6.34,1.75,8.91c-0.38-1.22-0.7-2.23-1.02-3.26c-0.78,0-1.47,0-2.23,0
		c-0.39,1.11-0.74,2.13-1.1,3.16c-1.05-0.07-1-0.73-0.97-1.37C69.71,11.04,70.93,8.46,73.2,6.16z"/>
	<path d="M81.89,7.07c1.31-0.23,2.32-0.57,3.31-0.53c1.87,0.07,2.73,1.75,1.82,3.4c-0.52,0.94-1.16,1.83-1.75,2.75
		c1.45,1.15,3.35-0.98,4.52,1.11c-0.33,0.26-0.6,0.62-0.91,0.68c-1.32,0.22-2.66,0.44-4,0.48c-0.63,0.02-1.55-0.22-1.81-0.66
		c-0.27-0.44,0.02-1.32,0.25-1.93c0.23-0.57,0.73-1.03,1.07-1.56c0.46-0.71,0.89-1.44,1.27-2.04C84.77,7.09,82.86,9.1,81.89,7.07z"
		/>
	<path d="M60.36,5.91c2.02,0.8,1.25,2.16,1.1,3.31c-0.14,1.16-0.39,2.31-0.64,3.76c1.62,0,3.01,0,5,0c-0.8,0.77-1.11,1.3-1.52,1.41
		c-1.14,0.29-2.32,0.52-3.49,0.56c-1.36,0.05-2.11-0.83-1.88-2.11C59.34,10.61,59.85,8.38,60.36,5.91z"/>
	<path d="M3.87,12.59c1.26,0,2.22,0,3.28,0c-0.11,1.13-0.86,1.26-1.54,1.35c-0.85,0.12-1.72,0.2-2.57,0.14
		c-0.21-0.01-0.55-0.62-0.53-0.94c0.16-2.92,0.38-5.83,0.59-8.83c1.43,0.1,1.79,0.86,1.71,1.8c-0.12,1.43-0.38,2.84-0.59,4.26
		C4.12,11.05,4.01,11.72,3.87,12.59z"/>
	<path d="M112.59,6.35c2.28,2.27-0.7,4.17,0.35,6.3c1.42-0.15,2.94-0.3,4.4-0.45c0.41,1.04-0.04,1.51-0.7,1.65
		c-1.24,0.27-2.51,0.5-3.77,0.56c-1.38,0.07-1.87-0.45-1.89-1.84C110.97,10.47,111.68,8.55,112.59,6.35z"/>
	<path d="M127,6.01c0.91,0.03,1.23,0.63,1.17,1.42c-0.2,2.68-0.45,5.36-0.7,8.04c-0.01,0.12-0.2,0.23-0.55,0.62
		c-0.33-0.54-0.87-1.01-0.85-1.46c0.12-2.77,0.37-5.53,0.59-8.29C126.66,6.22,126.86,6.13,127,6.01z"/>
	<path d="M35.46,15.03c-0.25-0.41-0.72-0.84-0.71-1.24c0.07-2.22,0.26-4.44,0.41-6.66c0.01-0.16,0.01-0.36,0.1-0.46
		c0.3-0.31,0.64-0.58,0.97-0.87c0.25,0.36,0.74,0.73,0.72,1.08c-0.1,1.66-0.34,3.32-0.51,4.98c-0.1,0.99-0.17,1.99-0.25,2.99
		C35.96,14.9,35.71,14.96,35.46,15.03z"/>
</g>
<g>
	<path d="M9.2,30.45c0.56,1.21,0.99,1.94,1.6,2.59c0.65,0.7,1.48,1.3,2.38,1.7c0.4,0.19,0.66,0.27,1.26,0.43
		c-0.43,0.55-0.61,0.83-0.87,1.44c-2.51-0.99-4.11-2.51-5.24-4.94c-0.42,1.2-0.98,2.08-1.87,2.93c-0.91,0.86-1.81,1.39-3.3,1.98
		c-0.27-0.61-0.49-0.96-0.85-1.34c1.74-0.56,2.77-1.2,3.64-2.22c0.64-0.75,1-1.51,1.25-2.56H4.68c-0.59,0-1.12,0.03-1.64,0.08v-1.43
		c0.46,0.05,0.98,0.08,1.63,0.08H7.4c0.08-0.86,0.08-0.86,0.09-2.27H4.26c-0.68,0-1.21,0.03-1.68,0.08v-1.48
		c0.43,0.06,1.03,0.09,1.68,0.09h8.2c0.64,0,1.22-0.03,1.69-0.09v1.48c-0.49-0.05-1.01-0.08-1.68-0.08H8.96
		c-0.03,1.38-0.03,1.6-0.09,2.27h3.17c0.64,0,1.17-0.03,1.66-0.08v1.43c-0.53-0.05-1.04-0.08-1.65-0.08H9.2z"/>
	<path d="M22.44,33.07c-0.69,0-1.1,0.03-1.5,0.08v-1.46c0.4,0.05,0.74,0.08,1.37,0.08h6.6c0.61,0,1.14-0.03,1.53-0.08v1.46
		c-0.4-0.05-0.87-0.08-1.52-0.08h-2.6v1.91h3.59c0.68,0,1.26-0.03,1.6-0.08v1.44c-0.44-0.05-0.95-0.08-1.6-0.08h-8.42
		c-0.66,0-1.17,0.03-1.61,0.08v-1.44c0.29,0.04,1.05,0.08,1.61,0.08h3.39v-1.91H22.44z M24.87,25.58c0-0.35-0.01-0.55-0.08-0.85h1.6
		c-0.05,0.23-0.08,0.51-0.08,0.85v0.44h3.59c0.6,0,0.98-0.01,1.43-0.06c-0.04,0.29-0.05,0.53-0.05,0.98v0.71
		c0,0.38,0.01,0.66,0.06,0.98h-1.43v-1.34h-2.5v1.98c0,0.25,0.09,0.3,0.51,0.31c0.09,0,0.25,0,0.47,0.01c0.04,0,0.05,0,0.06,0
		c0.44,0,0.96-0.04,1.08-0.09c0.17-0.06,0.22-0.23,0.22-0.7c0.47,0.21,0.78,0.31,1.33,0.4c-0.08,0.78-0.19,1.1-0.48,1.31
		c-0.35,0.25-0.87,0.31-2.44,0.31c-1.74,0-2.09-0.17-2.09-1.03v-2.51h-1.13c-0.06,1.09-0.34,1.83-0.9,2.47
		c-0.44,0.49-1.04,0.9-1.82,1.24c-0.38,0.16-0.7,0.27-1.43,0.49c-0.21-0.44-0.47-0.85-0.83-1.22c1.3-0.26,1.96-0.52,2.6-0.99
		c0.7-0.52,0.91-0.92,1.01-1.99h-2.08v1.73h-1.44c0.05-0.35,0.06-0.66,0.06-1.05v-1.03c0-0.43-0.01-0.68-0.05-0.98
		c0.46,0.05,0.82,0.06,1.43,0.06h3.38V25.58z"/>
	<path d="M42.43,32.67c-0.74,1.68-1.57,2.44-2.64,2.44c-1.48,0-2.55-1.51-2.55-3.6c0-1.43,0.51-2.77,1.43-3.78
		c1.09-1.2,2.63-1.82,4.47-1.82c3.12,0,5.15,1.9,5.15,4.82c0,2.25-1.17,4.04-3.16,4.85c-0.62,0.26-1.13,0.39-2.04,0.55
		c-0.22-0.69-0.38-0.98-0.79-1.52c1.2-0.16,1.98-0.36,2.59-0.72c1.13-0.62,1.81-1.86,1.81-3.25c0-1.25-0.56-2.26-1.6-2.89
		c-0.4-0.23-0.74-0.34-1.31-0.39C43.54,29.41,43.08,31.2,42.43,32.67z M40.52,28.02c-1.09,0.78-1.77,2.12-1.77,3.51
		c0,1.07,0.46,1.91,1.03,1.91c0.43,0,0.87-0.55,1.34-1.66c0.49-1.17,0.92-2.92,1.08-4.39C41.52,27.46,41.05,27.64,40.52,28.02z"/>
	<path d="M60.14,30.78c-0.08,1.34-0.18,2.18-0.38,3.12c-0.26,1.18-0.58,1.92-1.26,2.89c-0.34-0.42-0.7-0.75-1.1-1.03
		c0.17-0.22,0.22-0.29,0.36-0.51c-0.08,0-0.12,0-0.14,0h-1.68v1.2h-1.29c0.05-0.38,0.08-0.81,0.08-1.33V32.5c0-0.4,0-0.46,0.01-0.87
		c-0.3,0.56-0.39,0.72-0.66,1.05c-0.09-0.51-0.31-1.12-0.53-1.52c0.66-0.75,1.12-1.6,1.5-2.73c0.22-0.65,0.32-1.14,0.42-1.95h-0.36
		c-0.47,0-0.74,0.01-1.1,0.06v-1.4c0.39,0.07,0.7,0.08,1.26,0.08h1.98c0.56,0,0.86-0.01,1.25-0.08v1.39
		c-0.35-0.04-0.64-0.05-1.12-0.05H56.8c-0.13,0.99-0.34,1.85-0.69,2.77h1.23c0.4,0,0.53-0.01,0.78-0.04
		c-0.03,0.34-0.03,0.51-0.03,0.96v4.12c0,0.23,0,0.23,0,0.34c0.6-1.37,0.81-3.17,0.81-7.15c0-0.49-0.03-0.96-0.06-1.34
		c0.47,0.05,0.79,0.06,1.35,0.06h1.4v-0.3c0-0.57-0.03-0.88-0.08-1.22h1.46c-0.06,0.31-0.08,0.62-0.08,1.23v0.29h1.25
		c0.68,0,0.98-0.01,1.23-0.06L66,26.79c-0.06,0.12-0.09,0.17-0.16,0.35c-0.27,0.7-0.65,1.5-0.99,2.08
		c-0.52-0.23-0.88-0.36-1.24-0.46c0.42-0.61,0.55-0.85,0.71-1.29h-1.44v2.08h0.79c0.57,0,0.82-0.01,1.08-0.06l0.7,0.66
		c-0.13,0.23-0.22,0.46-0.34,0.75c-0.51,1.27-0.92,2.08-1.55,2.91c0.82,0.68,1.64,1.13,2.64,1.5c-0.35,0.52-0.51,0.83-0.73,1.46
		c-1.14-0.6-1.88-1.09-2.81-1.92c-0.91,0.91-1.51,1.39-2.5,1.95c-0.22-0.48-0.46-0.82-0.82-1.21c0.98-0.48,1.59-0.92,2.43-1.72
		c-0.69-0.9-1.04-1.66-1.46-3.09H60.14z M55.94,34.02h0.95V30.5h-0.95V34.02z M61.59,29.56v-2.08H60.2v0.92
		c0,0.4-0.01,0.62-0.01,1.16H61.59z M61.58,30.78c0.35,1,0.6,1.5,1.07,2.11c0.55-0.74,0.77-1.16,1.1-2.11H61.58z"/>
	<path d="M73.87,32.41c-0.26,1.81-0.75,3.04-1.74,4.37c-0.35-0.49-0.74-0.9-1.18-1.21c0.55-0.6,0.95-1.33,1.23-2.25
		c0.29-0.96,0.48-2.59,0.48-4.2v-2.55c0-0.88-0.01-1.04-0.08-1.62h1.6c-0.06,0.55-0.09,1-0.09,1.57v1.33h3.34V26.3
		c0-0.7-0.03-1.05-0.08-1.51h1.64c-0.07,0.44-0.08,0.78-0.08,1.51v1.55h2.17c0.66,0,1.17-0.03,1.57-0.09v1.53
		c-0.43-0.06-0.92-0.09-1.57-0.09h-6.99v0.18c0,0.46-0.03,0.86-0.08,1.68h4.38c0.58,0,0.94-0.01,1.34-0.05
		c-0.05,0.39-0.06,0.78-0.06,1.3v2.85c0,0.73,0.01,1.14,0.08,1.64h-1.69c0.05-0.47,0.08-0.87,0.08-1.65v-2.73H73.87z"/>
</g>
</svg>
