<?xml version="1.0" encoding="UTF-8"?>
<svg width="700pt" height="700pt" version="1.1" viewBox="0 0 700 700" xmlns="http://www.w3.org/2000/svg" xmlns:xlink="http://www.w3.org/1999/xlink">
 <defs>
  <symbol id="u" overflow="visible">
   <path d="m5.2188-0.3125c-0.27344 0.13672-0.55469 0.24219-0.84375 0.3125-0.29297 0.070312-0.59375 0.10938-0.90625 0.10938-0.94922 0-1.6992-0.25781-2.25-0.78125-0.55469-0.53125-0.82812-1.25-0.82812-2.1562s0.27344-1.625 0.82812-2.1562c0.55078-0.53125 1.3008-0.79688 2.25-0.79688 0.3125 0 0.61328 0.039062 0.90625 0.10938 0.28906 0.074219 0.57031 0.17969 0.84375 0.3125v1.1875c-0.27344-0.1875-0.54297-0.32031-0.8125-0.40625-0.26172-0.09375-0.53906-0.14062-0.82812-0.14062-0.52344 0-0.93359 0.16797-1.2344 0.5-0.29297 0.33594-0.4375 0.79688-0.4375 1.3906 0 0.58594 0.14453 1.043 0.4375 1.375 0.30078 0.33594 0.71094 0.5 1.2344 0.5 0.28906 0 0.56641-0.039063 0.82812-0.125 0.26953-0.082031 0.53906-0.21875 0.8125-0.40625z"/>
  </symbol>
  <symbol id="d" overflow="visible">
   <path d="m3.8125-3.0938c-0.11719-0.0625-0.23438-0.10156-0.35938-0.125-0.11719-0.03125-0.23047-0.046875-0.34375-0.046875-0.35547 0-0.625 0.11719-0.8125 0.34375-0.1875 0.21875-0.28125 0.54297-0.28125 0.96875v1.9531h-1.3594v-4.25h1.3594v0.6875c0.17578-0.26953 0.375-0.46875 0.59375-0.59375 0.22656-0.13281 0.50391-0.20312 0.82812-0.20312 0.039062 0 0.085938 0.007813 0.14062 0.015625 0.050781 0 0.12891 0.007812 0.23438 0.015625z"/>
  </symbol>
  <symbol id="b" overflow="visible">
   <path d="m4.9062-2.1406v0.39062h-3.1875c0.03125 0.32422 0.14453 0.5625 0.34375 0.71875 0.19531 0.15625 0.47266 0.23438 0.82812 0.23438 0.28906 0 0.58203-0.039063 0.875-0.125 0.30078-0.082031 0.61328-0.21094 0.9375-0.39062v1.0469c-0.32422 0.125-0.64844 0.21875-0.96875 0.28125-0.32422 0.0625-0.64844 0.09375-0.96875 0.09375-0.77344 0-1.3711-0.19141-1.7969-0.57812-0.42969-0.39453-0.64062-0.94531-0.64062-1.6562 0-0.69531 0.20703-1.2422 0.625-1.6406 0.42578-0.39453 1.0039-0.59375 1.7344-0.59375 0.67578 0 1.2109 0.20312 1.6094 0.60938 0.40625 0.39844 0.60938 0.93359 0.60938 1.6094zm-1.4062-0.45312c0-0.25781-0.078125-0.46875-0.23438-0.625-0.14844-0.15625-0.33984-0.23438-0.57812-0.23438-0.26172 0-0.47656 0.074219-0.64062 0.21875-0.16797 0.14844-0.27344 0.35938-0.3125 0.64062z"/>
  </symbol>
  <symbol id="a" overflow="visible">
   <path d="m2.5625-1.9219c-0.28125 0-0.49609 0.054687-0.64062 0.15625-0.14844 0.09375-0.21875 0.23438-0.21875 0.42188 0 0.16797 0.054687 0.30469 0.17188 0.40625 0.11328 0.09375 0.27344 0.14062 0.48438 0.14062 0.25781 0 0.47266-0.085937 0.64062-0.26562 0.17578-0.1875 0.26562-0.42188 0.26562-0.70312v-0.15625zm2.0781-0.5v2.4219h-1.375v-0.625c-0.17969 0.25-0.38281 0.4375-0.60938 0.5625-0.23047 0.11328-0.51172 0.17188-0.84375 0.17188-0.4375 0-0.79688-0.125-1.0781-0.375-0.27344-0.25781-0.40625-0.59766-0.40625-1.0156 0-0.5 0.17188-0.86328 0.51562-1.0938 0.34375-0.22656 0.88281-0.34375 1.625-0.34375h0.79688v-0.10938c0-0.21875-0.085937-0.375-0.25-0.46875-0.16797-0.10156-0.43359-0.15625-0.79688-0.15625-0.29297 0-0.5625 0.03125-0.8125 0.09375-0.25 0.054687-0.48438 0.13672-0.70312 0.25v-1.0312c0.28906-0.070313 0.58203-0.125 0.875-0.15625 0.30078-0.039063 0.59766-0.0625 0.89062-0.0625 0.75781 0 1.3125 0.15234 1.6562 0.45312 0.34375 0.30469 0.51562 0.79688 0.51562 1.4844z"/>
  </symbol>
  <symbol id="c" overflow="visible">
   <path d="m2.1406-5.4688v1.2188h1.4062v0.96875h-1.4062v1.7969c0 0.19922 0.035156 0.33594 0.10938 0.40625 0.082031 0.074219 0.23828 0.10938 0.46875 0.10938h0.70312v0.96875h-1.1719c-0.53125 0-0.91406-0.10938-1.1406-0.32812-0.21875-0.22656-0.32812-0.61328-0.32812-1.1562v-1.7969h-0.67188v-0.96875h0.67188v-1.2188z"/>
  </symbol>
  <symbol id="j" overflow="visible">
   <path d="m3.5469-3.625v-2.2812h1.375v5.9062h-1.375v-0.60938c-0.1875 0.25-0.39844 0.43359-0.625 0.54688-0.21875 0.11328-0.48047 0.17188-0.78125 0.17188-0.52344 0-0.95312-0.20703-1.2969-0.625-0.33594-0.41406-0.5-0.95312-0.5-1.6094s0.16406-1.1914 0.5-1.6094c0.34375-0.41406 0.77344-0.625 1.2969-0.625 0.30078 0 0.5625 0.0625 0.78125 0.1875 0.22656 0.11719 0.4375 0.29688 0.625 0.54688zm-0.89062 2.75c0.28906 0 0.50781-0.10156 0.65625-0.3125 0.15625-0.21875 0.23438-0.53125 0.23438-0.9375s-0.078125-0.71094-0.23438-0.92188c-0.14844-0.21875-0.36719-0.32812-0.65625-0.32812-0.29297 0-0.51562 0.10938-0.67188 0.32812-0.14844 0.21094-0.21875 0.51562-0.21875 0.92188s0.070313 0.71875 0.21875 0.9375c0.15625 0.21094 0.37891 0.3125 0.67188 0.3125z"/>
  </symbol>
  <symbol id="i" overflow="visible">
   <path d="m2.9219-0.875c0.28906 0 0.50781-0.10156 0.65625-0.3125 0.15625-0.21875 0.23438-0.53125 0.23438-0.9375s-0.078125-0.71094-0.23438-0.92188c-0.14844-0.21875-0.36719-0.32812-0.65625-0.32812-0.29297 0-0.51562 0.10938-0.67188 0.32812-0.15625 0.21094-0.23438 0.51562-0.23438 0.92188s0.078125 0.71875 0.23438 0.9375c0.15625 0.21094 0.37891 0.3125 0.67188 0.3125zm-0.90625-2.75c0.1875-0.25 0.39453-0.42969 0.625-0.54688 0.22656-0.125 0.48828-0.1875 0.78125-0.1875 0.51953 0 0.94531 0.21094 1.2812 0.625 0.34375 0.41797 0.51562 0.95312 0.51562 1.6094s-0.17188 1.1953-0.51562 1.6094c-0.33594 0.41797-0.76172 0.625-1.2812 0.625-0.29297 0-0.55469-0.058594-0.78125-0.17188-0.23047-0.125-0.4375-0.30469-0.625-0.54688v0.60938h-1.3594v-5.9062h1.3594z"/>
  </symbol>
  <symbol id="h" overflow="visible">
   <path d="m0.09375-4.25h1.3594l1.1406 2.875 0.98438-2.875h1.3594l-1.7969 4.6562c-0.17969 0.46875-0.38672 0.79688-0.625 0.98438-0.24219 0.1875-0.55859 0.28125-0.95312 0.28125h-0.78125v-0.89062h0.42188c0.22656 0 0.39453-0.039062 0.5-0.10938 0.10156-0.074219 0.1875-0.20312 0.25-0.39062l0.03125-0.125z"/>
  </symbol>
  <symbol id="g" overflow="visible">
   <path d="m4.1562-1.0312h-2.2812l-0.35938 1.0312h-1.4844l2.1094-5.6719h1.75l2.0938 5.6719h-1.4688zm-1.9219-1.0469h1.5469l-0.76562-2.2656z"/>
  </symbol>
  <symbol id="t" overflow="visible">
   <path d="m0.125-4.25h1.3594l1.0469 2.9375 1.0625-2.9375h1.3594l-1.6719 4.25h-1.4844z"/>
  </symbol>
  <symbol id="f" overflow="visible">
   <path d="m4.9375-2.5938v2.5938h-1.375v-1.9844c0-0.36328-0.011719-0.61328-0.03125-0.75-0.011719-0.14453-0.039062-0.25-0.078125-0.3125-0.054687-0.09375-0.125-0.16016-0.21875-0.20312-0.09375-0.050781-0.19922-0.078125-0.3125-0.078125-0.28125 0-0.50781 0.10938-0.67188 0.32812-0.15625 0.21875-0.23438 0.52344-0.23438 0.90625v2.0938h-1.3594v-4.25h1.3594v0.625c0.20703-0.25 0.42578-0.42969 0.65625-0.54688 0.22656-0.125 0.48438-0.1875 0.76562-0.1875 0.48828 0 0.85938 0.15234 1.1094 0.45312 0.25781 0.30469 0.39062 0.74219 0.39062 1.3125z"/>
  </symbol>
  <symbol id="s" overflow="visible">
   <path d="m0.03125-5.6719h1.4844l1.5 4.1875 1.5-4.1875h1.4688l-2.0938 5.6719h-1.75z"/>
  </symbol>
  <symbol id="r" overflow="visible">
   <path d="m3.4531-5.9062v0.89062h-0.75c-0.19922 0-0.33594 0.039063-0.40625 0.10938-0.074219 0.0625-0.10938 0.18359-0.10938 0.35938v0.29688h1.1562v0.96875h-1.1562v3.2812h-1.3594v-3.2812h-0.6875v-0.96875h0.6875v-0.29688c0-0.46875 0.125-0.8125 0.375-1.0312 0.25781-0.21875 0.66016-0.32812 1.2031-0.32812z"/>
  </symbol>
  <symbol id="e" overflow="visible">
   <path d="m2.6719-3.3906c-0.30469 0-0.53125 0.10938-0.6875 0.32812s-0.23438 0.53125-0.23438 0.9375 0.078125 0.71875 0.23438 0.9375 0.38281 0.32812 0.6875 0.32812c0.30078 0 0.53125-0.10938 0.6875-0.32812s0.23438-0.53125 0.23438-0.9375-0.078125-0.71875-0.23438-0.9375-0.38672-0.32812-0.6875-0.32812zm0-0.96875c0.73828 0 1.3125 0.19922 1.7188 0.59375 0.41406 0.39844 0.625 0.94531 0.625 1.6406 0 0.69922-0.21094 1.2461-0.625 1.6406-0.40625 0.39844-0.98047 0.59375-1.7188 0.59375-0.73047 0-1.3047-0.19531-1.7188-0.59375-0.41797-0.39453-0.625-0.94141-0.625-1.6406 0-0.69531 0.20703-1.2422 0.625-1.6406 0.41406-0.39453 0.98828-0.59375 1.7188-0.59375z"/>
  </symbol>
  <symbol id="q" overflow="visible">
   <path d="m4.5938-3.5469c0.17578-0.25781 0.37891-0.45703 0.60938-0.59375 0.23828-0.14453 0.5-0.21875 0.78125-0.21875 0.48828 0 0.86328 0.15234 1.125 0.45312 0.25781 0.30469 0.39062 0.74219 0.39062 1.3125v2.5938h-1.375v-2.2188-0.09375-0.15625c0-0.30078-0.046875-0.51953-0.14062-0.65625-0.085937-0.13281-0.22656-0.20312-0.42188-0.20312-0.25 0-0.44922 0.10938-0.59375 0.32812-0.13672 0.21094-0.21094 0.51172-0.21875 0.90625v2.0938h-1.3594v-2.2188c0-0.46875-0.042969-0.76953-0.125-0.90625-0.085937-0.13281-0.23047-0.20312-0.4375-0.20312-0.26172 0-0.46484 0.10938-0.60938 0.32812-0.13672 0.21094-0.20312 0.51172-0.20312 0.90625v2.0938h-1.375v-4.25h1.375v0.625c0.16406-0.25 0.35938-0.42969 0.57812-0.54688 0.21875-0.125 0.45703-0.1875 0.71875-0.1875 0.28906 0 0.54688 0.074219 0.76562 0.21875 0.22656 0.13672 0.39844 0.33594 0.51562 0.59375z"/>
  </symbol>
  <symbol id="p" overflow="visible">
   <path d="m4.9375-2.5938v2.5938h-1.375v-1.9688c0-0.375-0.011719-0.62891-0.03125-0.76562-0.011719-0.14453-0.039062-0.25-0.078125-0.3125-0.054687-0.09375-0.125-0.16016-0.21875-0.20312-0.09375-0.050781-0.19922-0.078125-0.3125-0.078125-0.28125 0-0.50781 0.10938-0.67188 0.32812-0.15625 0.21875-0.23438 0.52344-0.23438 0.90625v2.0938h-1.3594v-5.9062h1.3594v2.2812c0.20703-0.25 0.42578-0.42969 0.65625-0.54688 0.22656-0.125 0.48438-0.1875 0.76562-0.1875 0.48828 0 0.85938 0.15234 1.1094 0.45312 0.25781 0.30469 0.39062 0.74219 0.39062 1.3125z"/>
  </symbol>
  <symbol id="o" overflow="visible">
   <path d="m0.71875-5.6719h1.625l2.0625 3.8906v-3.8906h1.3906v5.6719h-1.625l-2.0781-3.8906v3.8906h-1.375z"/>
  </symbol>
  <symbol id="n" overflow="visible">
   <path d="m0.60938-1.6562v-2.5938h1.3594v0.42188 0.875 0.6875c0 0.34375 0.003906 0.59375 0.015625 0.75 0.019531 0.14844 0.050781 0.25 0.09375 0.3125 0.0625 0.09375 0.13281 0.16797 0.21875 0.21875 0.09375 0.042969 0.19531 0.0625 0.3125 0.0625 0.28906 0 0.51562-0.10938 0.67188-0.32812 0.16406-0.21875 0.25-0.51953 0.25-0.90625v-2.0938h1.3594v4.25h-1.3594v-0.60938c-0.21094 0.24219-0.42969 0.42188-0.65625 0.54688-0.23047 0.11328-0.48438 0.17188-0.76562 0.17188-0.49219 0-0.86719-0.14844-1.125-0.45312-0.25-0.30078-0.375-0.73828-0.375-1.3125z"/>
  </symbol>
  <symbol id="m" overflow="visible">
   <path d="m0.71875-5.6719h2.4219c0.71875 0 1.2695 0.16406 1.6562 0.48438 0.39453 0.3125 0.59375 0.76562 0.59375 1.3594 0 0.60547-0.19922 1.0703-0.59375 1.3906-0.38672 0.3125-0.9375 0.46875-1.6562 0.46875h-0.96875v1.9688h-1.4531zm1.4531 1.0625v1.5781h0.8125c0.28125 0 0.5-0.066406 0.65625-0.20312 0.15625-0.13281 0.23438-0.33203 0.23438-0.59375 0-0.25-0.078125-0.44141-0.23438-0.57812-0.15625-0.13281-0.375-0.20312-0.65625-0.20312z"/>
  </symbol>
  <symbol id="l" overflow="visible">
   <path d="m0.65625-4.25h1.3594v4.1719c0 0.57031-0.14062 1.0039-0.42188 1.2969-0.27344 0.30078-0.66406 0.45312-1.1719 0.45312h-0.6875v-0.89062h0.25c0.25 0 0.42188-0.058594 0.51562-0.17188 0.10156-0.11719 0.15625-0.34375 0.15625-0.6875zm0-1.6562h1.3594v1.1094h-1.3594z"/>
  </symbol>
  <symbol id="k" overflow="visible">
   <path d="m4.0938-4.125v1.1094c-0.1875-0.125-0.375-0.21875-0.5625-0.28125s-0.38281-0.09375-0.57812-0.09375c-0.375 0-0.67188 0.11719-0.89062 0.34375-0.21094 0.21875-0.3125 0.52734-0.3125 0.92188 0 0.39844 0.10156 0.71094 0.3125 0.9375 0.21875 0.21875 0.51562 0.32812 0.89062 0.32812 0.21875 0 0.42188-0.03125 0.60938-0.09375s0.36328-0.15625 0.53125-0.28125v1.1094c-0.21875 0.085938-0.4375 0.14062-0.65625 0.17188-0.21875 0.039062-0.4375 0.0625-0.65625 0.0625-0.76172 0-1.3594-0.19531-1.7969-0.59375-0.4375-0.39453-0.65625-0.94141-0.65625-1.6406 0-0.69531 0.21875-1.2422 0.65625-1.6406 0.4375-0.39453 1.0352-0.59375 1.7969-0.59375 0.22656 0 0.44531 0.023437 0.65625 0.0625 0.21875 0.042969 0.4375 0.10156 0.65625 0.17188z"/>
  </symbol>
 </defs>
 <g>
  <path d="m458.39 478.23c-23.824-23.82-36.945-55.496-36.945-89.188s13.121-65.363 36.945-89.188l8.1992-8.2031v-39.613l-217.71 0.13281v-217.95h-55.996v491.68h55.996v-217.73l135.44-0.082031c-12.352 24.844-18.879 52.398-18.879 80.953 0 48.648 18.945 94.387 53.344 128.79l8.0703 8.0664h79.195z"/>
  <use x="70" y="583.332031" xlink:href="#u"/>
  <use x="75.707031" y="583.332031" xlink:href="#d"/>
  <use x="79.542969" y="583.332031" xlink:href="#b"/>
  <use x="84.820312" y="583.332031" xlink:href="#a"/>
  <use x="90.066406" y="583.332031" xlink:href="#c"/>
  <use x="93.785156" y="583.332031" xlink:href="#b"/>
  <use x="99.058594" y="583.332031" xlink:href="#j"/>
  <use x="107.335937" y="583.332031" xlink:href="#i"/>
  <use x="112.902344" y="583.332031" xlink:href="#h"/>
  <use x="120.679687" y="583.332031" xlink:href="#g"/>
  <use x="126.699219" y="583.332031" xlink:href="#t"/>
  <use x="131.769531" y="583.332031" xlink:href="#a"/>
  <use x="137.019531" y="583.332031" xlink:href="#f"/>
  <use x="142.554688" y="583.332031" xlink:href="#a"/>
  <use x="150.511719" y="583.332031" xlink:href="#s"/>
  <use x="156.53125" y="583.332031" xlink:href="#a"/>
  <use x="161.78125" y="583.332031" xlink:href="#f"/>
  <use x="167.316406" y="583.332031" xlink:href="#a"/>
  <use x="70" y="591.109375" xlink:href="#r"/>
  <use x="73.382812" y="591.109375" xlink:href="#d"/>
  <use x="77.21875" y="591.109375" xlink:href="#e"/>
  <use x="82.5625" y="591.109375" xlink:href="#q"/>
  <use x="93.375" y="591.109375" xlink:href="#c"/>
  <use x="97.09375" y="591.109375" xlink:href="#p"/>
  <use x="102.628906" y="591.109375" xlink:href="#b"/>
  <use x="110.613281" y="591.109375" xlink:href="#o"/>
  <use x="117.121094" y="591.109375" xlink:href="#e"/>
  <use x="122.464844" y="591.109375" xlink:href="#n"/>
  <use x="128.003906" y="591.109375" xlink:href="#f"/>
  <use x="136.246094" y="591.109375" xlink:href="#m"/>
  <use x="141.949219" y="591.109375" xlink:href="#d"/>
  <use x="145.785156" y="591.109375" xlink:href="#e"/>
  <use x="151.128906" y="591.109375" xlink:href="#l"/>
  <use x="153.792969" y="591.109375" xlink:href="#b"/>
  <use x="159.070312" y="591.109375" xlink:href="#k"/>
  <use x="163.679688" y="591.109375" xlink:href="#c"/>
 </g>
</svg>
