M48
; DRILL file {KiCad (6.99.0-1912-g359c99991b)} date Mon Jul 11 13:53:52 2022
; FORMAT={-:-/ absolute / metric / decimal}
; #@! TF.CreationDate,2022-07-11T13:53:52+07:00
; #@! TF.GenerationSoftware,Kicad,Pcbnew,(6.99.0-1912-g359c99991b)
; #@! TF.FileFunction,MixedPlating,1,2
FMAT,2
METRIC
; #@! TA.AperFunction,Plated,PTH,ViaDrill
T1C0.250
; #@! TA.AperFunction,Plated,PTH,ComponentDrill
T2C0.600
; #@! TA.AperFunction,Plated,PTH,ComponentDrill
T3C1.000
; #@! TA.AperFunction,Plated,PTH,ComponentDrill
T4C3.000
; #@! TA.AperFunction,NonPlated,NPTH,ComponentDrill
T5C0.650
; #@! TA.AperFunction,NonPlated,NPTH,ComponentDrill
T6C1.500
; #@! TA.AperFunction,NonPlated,NPTH,ComponentDrill
T7C1.750
; #@! TA.AperFunction,NonPlated,NPTH,ComponentDrill
T8C3.988
%
G90
G05
T1
X6.0Y-61.6
X6.75Y-62.4
X7.62Y-34.036
X7.62Y-36.068
X7.75Y-61.0
X7.779Y-28.067
X10.573Y-74.5
X10.7Y-51.054
X11.684Y-28.067
X12.0Y-65.2
X12.605Y-66.04
X13.875Y-53.086
X14.1Y-60.1
X14.129Y-24.511
X14.256Y-55.753
X14.563Y-57.889
X14.637Y-53.467
X14.764Y-17.78
X15.5Y-47.75
X16.796Y-17.526
X17.0Y-63.881
X17.431Y-42.545
X17.929Y-58.401
X17.939Y-24.511
X17.939Y-62.103
X17.939Y-65.151
X17.939Y-84.328
X18.676Y-43.383
X18.98Y-44.171
X19.463Y-44.831
X19.59Y-18.415
X19.844Y-45.466
X20.32Y-29.972
X20.352Y-27.94
X20.479Y-58.547
X20.479Y-69.088
X20.479Y-84.328
X20.606Y-46.482
X20.75Y-49.25
X20.86Y-68.072
X21.368Y-58.547
X21.368Y-65.151
X21.876Y-57.531
X22.384Y-49.784
X22.765Y-57.404
X22.987Y-31.496
X22.987Y-33.528
X23.124Y-53.895
X23.131Y-54.879
X23.146Y-16.764
X23.241Y-74.549
X23.241Y-75.438
X23.4Y-27.94
X23.622Y-29.972
X24.797Y-61.849
X24.797Y-62.611
X25.432Y-9.906
X25.432Y-52.451
X25.559Y-63.246
X26.315Y-53.384
X26.448Y-63.881
X26.575Y-48.006
X27.591Y-66.802
X27.718Y-69.088
X27.867Y-54.383
X27.972Y-43.18
X28.099Y-76.835
X28.353Y-55.118
X28.353Y-71.628
X28.829Y-61.468
X29.242Y-3.556
X30.004Y-23.114
X30.004Y-68.072
X30.258Y-4.064
X30.258Y-84.582
X30.385Y-18.669
X30.563Y-55.778
X30.639Y-65.405
X30.766Y-3.556
X30.766Y-76.835
X31.147Y-69.342
X31.528Y-82.296
X31.782Y-17.018
X32.036Y-3.556
X32.555Y-89.922
X32.925Y-22.352
X33.409Y-6.726
X33.814Y-62.865
X33.814Y-81.915
X33.814Y-83.185
X34.322Y-4.572
X34.576Y-58.674
X34.881Y-55.778
X35.084Y-9.906
X35.084Y-12.065
X35.846Y-13.081
X35.941Y-5.461
X35.941Y-7.493
X35.941Y-24.511
X35.941Y-26.543
X35.941Y-34.036
X35.941Y-36.068
X35.941Y-43.561
X35.941Y-45.593
X35.941Y-62.611
X35.941Y-64.643
X35.941Y-72.136
X35.941Y-74.168
X36.481Y-15.875
X39.91Y-91.567
X42.291Y-21.59
X45.466Y-81.661
X45.466Y-83.693
X46.228Y-17.272
X46.228Y-18.415
X46.514Y-56.134
X51.308Y-2.921
X51.308Y-4.953
X51.308Y-21.971
X51.308Y-24.003
X51.308Y-31.496
X51.308Y-33.528
X51.308Y-41.021
X51.308Y-43.053
X51.308Y-60.071
X51.308Y-62.103
X51.308Y-69.596
X51.308Y-71.628
X51.975Y-19.304
X53.535Y-34.924
X54.991Y-5.461
X54.991Y-7.493
X54.991Y-24.511
X54.991Y-26.543
X54.991Y-43.561
X54.991Y-45.593
X54.991Y-62.611
X54.991Y-64.643
X56.261Y-89.281
X56.261Y-91.313
X60.833Y-79.121
X60.833Y-81.153
X66.421Y-57.277
X70.358Y-2.921
X70.358Y-4.953
X70.358Y-21.971
X70.358Y-24.003
X70.358Y-41.021
X70.358Y-43.053
X70.358Y-60.071
X70.358Y-62.103
X71.628Y-86.741
X71.628Y-88.773
X74.041Y-5.461
X74.041Y-7.493
X74.041Y-24.511
X74.041Y-26.543
X74.041Y-43.561
X74.041Y-45.593
X74.041Y-62.611
X74.041Y-64.643
X75.311Y-89.281
X75.311Y-91.313
X82.423Y-77.851
X83.566Y-81.661
X83.566Y-82.931
X85.471Y-19.431
X89.408Y-2.921
X89.408Y-4.953
X89.408Y-21.971
X89.408Y-24.003
X89.408Y-41.021
X89.408Y-43.053
X89.408Y-60.071
X89.408Y-62.103
X90.678Y-87.503
X90.678Y-88.773
X93.091Y-5.461
X93.091Y-7.493
X93.091Y-24.511
X93.091Y-26.543
X93.091Y-34.036
X93.091Y-36.068
X93.091Y-43.561
X93.091Y-45.593
X93.091Y-62.611
X93.091Y-64.643
X93.091Y-72.136
X93.091Y-74.168
X97.155Y-91.567
X98.933Y-79.121
X98.933Y-81.153
X100.584Y-81.788
X104.648Y-18.415
X108.458Y-2.921
X108.458Y-4.953
X108.458Y-21.971
X108.458Y-24.003
X108.458Y-31.496
X108.458Y-33.528
X108.458Y-41.021
X108.458Y-43.053
X108.458Y-60.071
X108.458Y-62.103
X108.458Y-69.596
X108.458Y-71.628
T3
X3.444Y-61.02
X3.444Y-63.56
X3.444Y-66.1
X3.444Y-68.64
X3.444Y-71.18
X3.444Y-73.72
X3.444Y-76.26
X3.444Y-78.8
X13.487Y-6.762
X13.487Y-21.262
X15.987Y-21.262
X18.487Y-6.762
X18.487Y-21.262
X24.543Y-78.751
X24.543Y-81.291
X27.083Y-78.751
X27.083Y-81.291
X29.623Y-78.751
X29.623Y-81.291
T4
X12.177Y-35.035
X18.527Y-32.495
X40.465Y-6.46
X40.465Y-25.51
X40.465Y-35.035
X40.465Y-44.56
X40.465Y-63.61
X40.465Y-73.135
X46.814Y-3.92
X46.814Y-22.97
X46.814Y-32.495
X46.814Y-42.02
X46.814Y-61.07
X46.814Y-70.595
X49.989Y-82.66
X56.339Y-80.12
X59.514Y-6.46
X59.514Y-25.51
X59.514Y-44.56
X59.514Y-63.61
X60.784Y-90.28
X65.864Y-3.92
X65.864Y-22.97
X65.864Y-42.02
X65.864Y-61.07
X67.135Y-87.74
X78.564Y-6.46
X78.564Y-25.51
X78.564Y-44.56
X78.564Y-63.61
X79.834Y-90.28
X84.914Y-3.92
X84.914Y-22.97
X84.914Y-42.02
X84.914Y-61.07
X86.184Y-87.74
X88.09Y-82.66
X94.439Y-80.12
X97.614Y-6.46
X97.614Y-25.51
X97.614Y-35.035
X97.614Y-44.56
X97.614Y-63.61
X97.614Y-73.135
X103.965Y-3.92
X103.965Y-22.97
X103.965Y-32.495
X103.965Y-42.02
X103.965Y-61.07
X103.965Y-70.595
T5
X27.368Y-0.387
X33.148Y-0.387
T7
X10.907Y-37.575
X21.067Y-37.575
X39.194Y-9.0
X39.194Y-28.05
X39.194Y-37.575
X39.194Y-47.1
X39.194Y-66.15
X39.194Y-75.675
X48.719Y-85.2
X49.354Y-9.0
X49.354Y-28.05
X49.354Y-37.575
X49.354Y-47.1
X49.354Y-66.15
X49.354Y-75.675
X58.244Y-9.0
X58.244Y-28.05
X58.244Y-47.1
X58.244Y-66.15
X58.244Y-85.2
X58.88Y-85.2
X68.404Y-9.0
X68.404Y-28.05
X68.404Y-47.1
X68.404Y-66.15
X68.404Y-85.2
X77.294Y-9.0
X77.294Y-28.05
X77.294Y-47.1
X77.294Y-66.15
X77.294Y-85.2
X86.819Y-85.2
X87.454Y-9.0
X87.454Y-28.05
X87.454Y-47.1
X87.454Y-66.15
X87.454Y-85.2
X96.344Y-9.0
X96.344Y-28.05
X96.344Y-37.575
X96.344Y-47.1
X96.344Y-66.15
X96.344Y-75.675
X96.98Y-85.2
X106.504Y-9.0
X106.504Y-28.05
X106.504Y-37.575
X106.504Y-47.1
X106.504Y-66.15
X106.504Y-75.675
T8
X15.987Y-37.575
X44.274Y-9.0
X44.274Y-28.05
X44.274Y-37.575
X44.274Y-47.1
X44.274Y-66.15
X44.274Y-75.675
X53.799Y-85.2
X63.325Y-9.0
X63.325Y-28.05
X63.325Y-47.1
X63.325Y-66.15
X63.325Y-85.2
X82.374Y-9.0
X82.374Y-28.05
X82.374Y-47.1
X82.374Y-66.15
X82.374Y-85.2
X91.899Y-85.2
X101.424Y-9.0
X101.424Y-28.05
X101.424Y-37.575
X101.424Y-47.1
X101.424Y-66.15
X101.424Y-75.675
T2
X25.938Y3.563G85X25.938Y2.963
G05
X25.938Y-0.367G85X25.938Y-1.467
G05
X34.578Y3.563G85X34.578Y2.963
G05
X34.578Y-0.367G85X34.578Y-1.467
G05
T6
X10.387Y-14.412G85X10.387Y-13.112
G05
X21.587Y-14.412G85X21.587Y-13.112
G05
T0
M30
