%FSLAX45Y45*%
G04 Gerber Fmt 4.5, Leading zero omitted, Abs format (unit mm)*
G04 Created by KiCad (PCBNEW (6.99.0-1912-g359c99991b)) date 2022-06-29 21:43:38*
%MOMM*%
%LPD*%
G01*
G04 APERTURE LIST*
%TA.AperFunction,Profile*%
%ADD10C,0.100000*%
%TD*%
%ADD11C,0.200000*%
%ADD12C,0.025000*%
%ADD13C,0.060000*%
%ADD14C,0.100000*%
%ADD15C,0.065000*%
%ADD16C,0.150000*%
%ADD17C,0.175000*%
%ADD18C,0.300000*%
%ADD19C,0.398780*%
G04 APERTURE END LIST*
D10*
X3533800Y388900D02*
G75*
G03*
X3457600Y469900I-78600J2400D01*
G01*
X3533800Y69000D02*
G75*
G03*
X3607600Y-2400I72600J1200D01*
G01*
X10847279Y-9420000D02*
X200000Y-9420000D01*
X11047279Y-200000D02*
X11047279Y-9220000D01*
X3607600Y-2400D02*
X10847279Y0D01*
X0Y-9220000D02*
G75*
G03*
X200000Y-9420000I199999J-1D01*
G01*
X200000Y0D02*
X2447082Y0D01*
X2447082Y-2D02*
G75*
G03*
X2518482Y73800I-1202J72602D01*
G01*
X3533800Y69000D02*
X3533800Y388900D01*
X2518482Y73800D02*
X2518482Y393700D01*
X10847279Y-9419999D02*
G75*
G03*
X11047279Y-9220000I1J199999D01*
G01*
X2599482Y469898D02*
G75*
G03*
X2518482Y393700I-2402J-78598D01*
G01*
X200000Y0D02*
G75*
G03*
X0Y-200000I0J-200000D01*
G01*
X3457600Y469900D02*
X2599482Y469900D01*
X0Y-9220000D02*
X0Y-200000D01*
X11047280Y-200000D02*
G75*
G03*
X10847279Y0I-200000J0D01*
G01*
D11*
D12*
X727300Y-7429700D02*
X752300Y-7454700D01*
X752300Y-7429700D02*
X727300Y-7454700D01*
X765400Y-2794200D02*
X790400Y-2819200D01*
X790400Y-2794200D02*
X765400Y-2819200D01*
X803500Y-6096200D02*
X828500Y-6121200D01*
X828500Y-6096200D02*
X803500Y-6121200D01*
X1044800Y-6312100D02*
X1069800Y-6337100D01*
X1069800Y-6312100D02*
X1044800Y-6337100D01*
X1044800Y-7557200D02*
X1069800Y-7582200D01*
X1069800Y-7557200D02*
X1044800Y-7582200D01*
X1057500Y-5092900D02*
X1082500Y-5117900D01*
X1082500Y-5092900D02*
X1057500Y-5117900D01*
X1057500Y-6235900D02*
X1082500Y-6260900D01*
X1082500Y-6235900D02*
X1057500Y-6260900D01*
X1171800Y-2794200D02*
X1196800Y-2819200D01*
X1196800Y-2794200D02*
X1171800Y-2819200D01*
X1184500Y-6439100D02*
X1209500Y-6464100D01*
X1209500Y-6439100D02*
X1184500Y-6464100D01*
X1248000Y-6591500D02*
X1273000Y-6616500D01*
X1273000Y-6591500D02*
X1248000Y-6616500D01*
X1362300Y-5804100D02*
X1387300Y-5829100D01*
X1387300Y-5804100D02*
X1362300Y-5829100D01*
X1375000Y-5296100D02*
X1400000Y-5321100D01*
X1400000Y-5296100D02*
X1375000Y-5321100D01*
X1400400Y-2438600D02*
X1425400Y-2463600D01*
X1425400Y-2438600D02*
X1400400Y-2463600D01*
X1413100Y-5562800D02*
X1438100Y-5587800D01*
X1438100Y-5562800D02*
X1413100Y-5587800D01*
X1425800Y-6007300D02*
X1450800Y-6032300D01*
X1450800Y-6007300D02*
X1425800Y-6032300D01*
X1451200Y-5334200D02*
X1476200Y-5359200D01*
X1476200Y-5334200D02*
X1451200Y-5359200D01*
X1463900Y-1765500D02*
X1488900Y-1790500D01*
X1488900Y-1765500D02*
X1463900Y-1790500D01*
X1527400Y-5994600D02*
X1552400Y-6019600D01*
X1552400Y-5994600D02*
X1527400Y-6019600D01*
X1565500Y-6375600D02*
X1590500Y-6400600D01*
X1590500Y-6375600D02*
X1565500Y-6400600D01*
X1633506Y-6268256D02*
X1658506Y-6293256D01*
X1658506Y-6268256D02*
X1633506Y-6293256D01*
X1667100Y-1740100D02*
X1692100Y-1765100D01*
X1692100Y-1740100D02*
X1667100Y-1765100D01*
X1730600Y-4242000D02*
X1755600Y-4267000D01*
X1755600Y-4242000D02*
X1730600Y-4267000D01*
X1781400Y-2438600D02*
X1806400Y-2463600D01*
X1806400Y-2438600D02*
X1781400Y-2463600D01*
X1781400Y-6197800D02*
X1806400Y-6222800D01*
X1806400Y-6197800D02*
X1781400Y-6222800D01*
X1781400Y-6502600D02*
X1806400Y-6527600D01*
X1806400Y-6502600D02*
X1781400Y-6527600D01*
X1781400Y-8420300D02*
X1806400Y-8445300D01*
X1806400Y-8420300D02*
X1781400Y-8445300D01*
X1855060Y-4325820D02*
X1880060Y-4350820D01*
X1880060Y-4325820D02*
X1855060Y-4350820D01*
X1885540Y-4404560D02*
X1910540Y-4429560D01*
X1910540Y-4404560D02*
X1885540Y-4429560D01*
X1933800Y-4470600D02*
X1958800Y-4495600D01*
X1958800Y-4470600D02*
X1933800Y-4495600D01*
X1946500Y-1829000D02*
X1971500Y-1854000D01*
X1971500Y-1829000D02*
X1946500Y-1854000D01*
X1971900Y-4534100D02*
X1996900Y-4559100D01*
X1996900Y-4534100D02*
X1971900Y-4559100D01*
X2022700Y-2781500D02*
X2047700Y-2806500D01*
X2047700Y-2781500D02*
X2022700Y-2806500D01*
X2035400Y-5842200D02*
X2060400Y-5867200D01*
X2060400Y-5842200D02*
X2035400Y-5867200D01*
X2035400Y-6896300D02*
X2060400Y-6921300D01*
X2060400Y-6896300D02*
X2035400Y-6921300D01*
X2035400Y-8420300D02*
X2060400Y-8445300D01*
X2060400Y-8420300D02*
X2035400Y-8445300D01*
X2048100Y-4635700D02*
X2073100Y-4660700D01*
X2073100Y-4635700D02*
X2048100Y-4660700D01*
X2073500Y-6794700D02*
X2098500Y-6819700D01*
X2098500Y-6794700D02*
X2073500Y-6819700D01*
X2124300Y-5842200D02*
X2149300Y-5867200D01*
X2149300Y-5842200D02*
X2124300Y-5867200D01*
X2124300Y-6502600D02*
X2149300Y-6527600D01*
X2149300Y-6502600D02*
X2124300Y-6527600D01*
X2170317Y-3503560D02*
X2195317Y-3528560D01*
X2195317Y-3503560D02*
X2170317Y-3528560D01*
X2175100Y-5740600D02*
X2200100Y-5765600D01*
X2200100Y-5740600D02*
X2175100Y-5765600D01*
X2225900Y-4965900D02*
X2250900Y-4990900D01*
X2250900Y-4965900D02*
X2225900Y-4990900D01*
X2264000Y-5727900D02*
X2289000Y-5752900D01*
X2289000Y-5727900D02*
X2264000Y-5752900D01*
X2276700Y-7391600D02*
X2301700Y-7416600D01*
X2301700Y-7391600D02*
X2276700Y-7416600D01*
X2289400Y-7302700D02*
X2314400Y-7327700D01*
X2314400Y-7302700D02*
X2289400Y-7327700D01*
X2299890Y-5377044D02*
X2324890Y-5402044D01*
X2324890Y-5377044D02*
X2299890Y-5402044D01*
X2300552Y-5475410D02*
X2325552Y-5500410D01*
X2325552Y-5475410D02*
X2300552Y-5500410D01*
X2302100Y-1663900D02*
X2327100Y-1688900D01*
X2327100Y-1663900D02*
X2302100Y-1688900D01*
X2327500Y-2781500D02*
X2352500Y-2806500D01*
X2352500Y-2781500D02*
X2327500Y-2806500D01*
X2416400Y-3213300D02*
X2441400Y-3238300D01*
X2441400Y-3213300D02*
X2416400Y-3238300D01*
X2467200Y-6172400D02*
X2492200Y-6197400D01*
X2492200Y-6172400D02*
X2467200Y-6197400D01*
X2467200Y-6248600D02*
X2492200Y-6273600D01*
X2492200Y-6248600D02*
X2467200Y-6273600D01*
X2530700Y-978100D02*
X2555700Y-1003100D01*
X2555700Y-978100D02*
X2530700Y-1003100D01*
X2530700Y-5232600D02*
X2555700Y-5257600D01*
X2555700Y-5232600D02*
X2530700Y-5257600D01*
X2543400Y-6312100D02*
X2568400Y-6337100D01*
X2568400Y-6312100D02*
X2543400Y-6337100D01*
X2618998Y-5325915D02*
X2643998Y-5350915D01*
X2643998Y-5325915D02*
X2618998Y-5350915D01*
X2632300Y-6375600D02*
X2657300Y-6400600D01*
X2657300Y-6375600D02*
X2632300Y-6400600D01*
X2645000Y-4788100D02*
X2670000Y-4813100D01*
X2670000Y-4788100D02*
X2645000Y-4813100D01*
X2746600Y-6667700D02*
X2771600Y-6692700D01*
X2771600Y-6667700D02*
X2746600Y-6692700D01*
X2759300Y-6896300D02*
X2784300Y-6921300D01*
X2784300Y-6896300D02*
X2759300Y-6921300D01*
X2772000Y-5428543D02*
X2797000Y-5453543D01*
X2797000Y-5428543D02*
X2772000Y-5453543D01*
X2772000Y-6134300D02*
X2797000Y-6159300D01*
X2797000Y-6134300D02*
X2772000Y-6159300D01*
X2784700Y-4305500D02*
X2809700Y-4330500D01*
X2809700Y-4305500D02*
X2784700Y-4330500D01*
X2797400Y-7671000D02*
X2822400Y-7696000D01*
X2822400Y-7671000D02*
X2797400Y-7696000D01*
X2822800Y-5499300D02*
X2847800Y-5524300D01*
X2847800Y-5499300D02*
X2822800Y-5524300D01*
X2822800Y-7150300D02*
X2847800Y-7175300D01*
X2847800Y-7150300D02*
X2822800Y-7175300D01*
X2911700Y-343100D02*
X2936700Y-368100D01*
X2936700Y-343100D02*
X2911700Y-368100D01*
X2987900Y-2298900D02*
X3012900Y-2323900D01*
X3012900Y-2298900D02*
X2987900Y-2323900D01*
X2987900Y-6794700D02*
X3012900Y-6819700D01*
X3012900Y-6794700D02*
X2987900Y-6819700D01*
X3013300Y-393900D02*
X3038300Y-418900D01*
X3038300Y-393900D02*
X3013300Y-418900D01*
X3013300Y-8445700D02*
X3038300Y-8470700D01*
X3038300Y-8445700D02*
X3013300Y-8470700D01*
X3026000Y-1854400D02*
X3051000Y-1879400D01*
X3051000Y-1854400D02*
X3026000Y-1879400D01*
X3043780Y-5565340D02*
X3068780Y-5590340D01*
X3068780Y-5565340D02*
X3043780Y-5590340D01*
X3051400Y-6528000D02*
X3076400Y-6553000D01*
X3076400Y-6528000D02*
X3051400Y-6553000D01*
X3064100Y-343100D02*
X3089100Y-368100D01*
X3089100Y-343100D02*
X3064100Y-368100D01*
X3064100Y-7671000D02*
X3089100Y-7696000D01*
X3089100Y-7671000D02*
X3064100Y-7696000D01*
X3102200Y-6921700D02*
X3127200Y-6946700D01*
X3127200Y-6921700D02*
X3102200Y-6946700D01*
X3140300Y-8217100D02*
X3165300Y-8242100D01*
X3165300Y-8217100D02*
X3140300Y-8242100D01*
X3165700Y-1689300D02*
X3190700Y-1714300D01*
X3190700Y-1689300D02*
X3165700Y-1714300D01*
X3191100Y-343100D02*
X3216100Y-368100D01*
X3216100Y-343100D02*
X3191100Y-368100D01*
X3280000Y-2222700D02*
X3305000Y-2247700D01*
X3305000Y-2222700D02*
X3280000Y-2247700D01*
X3328414Y-660054D02*
X3353414Y-685054D01*
X3353414Y-660054D02*
X3328414Y-685054D01*
X3356200Y-9144200D02*
X3381200Y-9169200D01*
X3381200Y-9144200D02*
X3356200Y-9169200D01*
X3368900Y-6274000D02*
X3393900Y-6299000D01*
X3393900Y-6274000D02*
X3368900Y-6299000D01*
X3368900Y-8179000D02*
X3393900Y-8204000D01*
X3393900Y-8179000D02*
X3368900Y-8204000D01*
X3368900Y-8306000D02*
X3393900Y-8331000D01*
X3393900Y-8306000D02*
X3368900Y-8331000D01*
X3419700Y-444700D02*
X3444700Y-469700D01*
X3444700Y-444700D02*
X3419700Y-469700D01*
X3445100Y-5854900D02*
X3470100Y-5879900D01*
X3470100Y-5854900D02*
X3445100Y-5879900D01*
X3475580Y-5565340D02*
X3500580Y-5590340D01*
X3500580Y-5565340D02*
X3475580Y-5590340D01*
X3495900Y-978100D02*
X3520900Y-1003100D01*
X3520900Y-978100D02*
X3495900Y-1003100D01*
X3495900Y-1194000D02*
X3520900Y-1219000D01*
X3520900Y-1194000D02*
X3495900Y-1219000D01*
X3572100Y-1295600D02*
X3597100Y-1320600D01*
X3597100Y-1295600D02*
X3572100Y-1320600D01*
X3635600Y-1575000D02*
X3660600Y-1600000D01*
X3660600Y-1575000D02*
X3635600Y-1600000D01*
X3978500Y-9144200D02*
X4003500Y-9169200D01*
X4003500Y-9144200D02*
X3978500Y-9169200D01*
X4169000Y-2121100D02*
X4194000Y-2146100D01*
X4194000Y-2121100D02*
X4169000Y-2146100D01*
X4181700Y-7886900D02*
X4206700Y-7911900D01*
X4206700Y-7886900D02*
X4181700Y-7911900D01*
X4638900Y-5600900D02*
X4663900Y-5625900D01*
X4663900Y-5600900D02*
X4638900Y-5625900D01*
X4931000Y-1714700D02*
X4956000Y-1739700D01*
X4956000Y-1714700D02*
X4931000Y-1739700D01*
X4931000Y-1829000D02*
X4956000Y-1854000D01*
X4956000Y-1829000D02*
X4931000Y-1854000D01*
X4997040Y-640280D02*
X5022040Y-665280D01*
X5022040Y-640280D02*
X4997040Y-665280D01*
X4999243Y-4445878D02*
X5024243Y-4470878D01*
X5024243Y-4445878D02*
X4999243Y-4470878D01*
X4999580Y-2517340D02*
X5024580Y-2542340D01*
X5024580Y-2517340D02*
X4999580Y-2542340D01*
X4999580Y-3017720D02*
X5024580Y-3042720D01*
X5024580Y-3017720D02*
X4999580Y-3042720D01*
X4999580Y-3454600D02*
X5024580Y-3479600D01*
X5024580Y-3454600D02*
X4999580Y-3479600D01*
X4999580Y-3932120D02*
X5024580Y-3957120D01*
X5024580Y-3932120D02*
X4999580Y-3957120D01*
X4999580Y-5799020D02*
X5024580Y-5824020D01*
X5024580Y-5799020D02*
X4999580Y-5824020D01*
X4999580Y-6337500D02*
X5024580Y-6362500D01*
X5024580Y-6337500D02*
X4999580Y-6362500D01*
X4999580Y-6802320D02*
X5024580Y-6827320D01*
X5024580Y-6802320D02*
X4999580Y-6827320D01*
X5000577Y-2023341D02*
X5025577Y-2048341D01*
X5025577Y-2023341D02*
X5000577Y-2048341D01*
X5185000Y-1917900D02*
X5210000Y-1942900D01*
X5210000Y-1917900D02*
X5185000Y-1942900D01*
X5324700Y-7353500D02*
X5349700Y-7378500D01*
X5349700Y-7353500D02*
X5324700Y-7378500D01*
X5341015Y-3479874D02*
X5366015Y-3504874D01*
X5366015Y-3479874D02*
X5341015Y-3504874D01*
X5794600Y-8763200D02*
X5819600Y-8788200D01*
X5819600Y-8763200D02*
X5794600Y-8788200D01*
X6902040Y-2555440D02*
X6927040Y-2580440D01*
X6927040Y-2555440D02*
X6902040Y-2580440D01*
X6902040Y-3822900D02*
X6927040Y-3847900D01*
X6927040Y-3822900D02*
X6902040Y-3847900D01*
X6904580Y-637740D02*
X6929580Y-662740D01*
X6929580Y-637740D02*
X6904580Y-662740D01*
X6904580Y-4447740D02*
X6929580Y-4472740D01*
X6929580Y-4447740D02*
X6904580Y-4472740D01*
X6904580Y-5793940D02*
X6929580Y-5818940D01*
X6929580Y-5793940D02*
X6904580Y-5818940D01*
X6904580Y-6367980D02*
X6929580Y-6392980D01*
X6929580Y-6367980D02*
X6904580Y-6392980D01*
X6907120Y-1968700D02*
X6932120Y-1993700D01*
X6932120Y-1968700D02*
X6907120Y-1993700D01*
X7458300Y-8394900D02*
X7483300Y-8419900D01*
X7483300Y-8394900D02*
X7458300Y-8419900D01*
X7940900Y-7759900D02*
X7965900Y-7784900D01*
X7965900Y-7759900D02*
X7940900Y-7784900D01*
X8385400Y-7544000D02*
X8410400Y-7569000D01*
X8410400Y-7544000D02*
X8385400Y-7569000D01*
X8808557Y-4456384D02*
X8833557Y-4481384D01*
X8833557Y-4456384D02*
X8808557Y-4481384D01*
X8808561Y-6361379D02*
X8833561Y-6386379D01*
X8833561Y-6361379D02*
X8808561Y-6386379D01*
X8809069Y-3874716D02*
X8834069Y-3899716D01*
X8834069Y-3874716D02*
X8809069Y-3899716D01*
X8809319Y-5742112D02*
X8834319Y-5767112D01*
X8834319Y-5742112D02*
X8809319Y-5767112D01*
X8810090Y-2551376D02*
X8835090Y-2576376D01*
X8835090Y-2551376D02*
X8810090Y-2576376D01*
X8810259Y-1950067D02*
X8835259Y-1975067D01*
X8835259Y-1950067D02*
X8810259Y-1975067D01*
X8810340Y-626704D02*
X8835340Y-651704D01*
X8835340Y-626704D02*
X8810340Y-651704D01*
X8829900Y-9131500D02*
X8854900Y-9156500D01*
X8854900Y-9131500D02*
X8829900Y-9156500D01*
X10138000Y-9144200D02*
X10163000Y-9169200D01*
X10163000Y-9144200D02*
X10138000Y-9169200D01*
X10713552Y-627069D02*
X10738552Y-652069D01*
X10738552Y-627069D02*
X10713552Y-652069D01*
X10713561Y-4463490D02*
X10738561Y-4488490D01*
X10738561Y-4463490D02*
X10713561Y-4488490D01*
X10713565Y-6348675D02*
X10738565Y-6373675D01*
X10738565Y-6348675D02*
X10713565Y-6373675D01*
X10713569Y-6811965D02*
X10738569Y-6836965D01*
X10738569Y-6811965D02*
X10713569Y-6836965D01*
X10714073Y-2558002D02*
X10739073Y-2583002D01*
X10739073Y-2558002D02*
X10714073Y-2583002D01*
X10714073Y-3947577D02*
X10739073Y-3972577D01*
X10739073Y-3947577D02*
X10714073Y-3972577D01*
X10714243Y-5740600D02*
X10739243Y-5765600D01*
X10739243Y-5740600D02*
X10714243Y-5765600D01*
X10714578Y-2996872D02*
X10739578Y-3021872D01*
X10739578Y-2996872D02*
X10714578Y-3021872D01*
X10714580Y-1940760D02*
X10739580Y-1965760D01*
X10739580Y-1940760D02*
X10714580Y-1965760D01*
X10714582Y-3498286D02*
X10739582Y-3523286D01*
X10739582Y-3498286D02*
X10714582Y-3523286D01*
X10734900Y-8293300D02*
X10759900Y-8318300D01*
X10759900Y-8293300D02*
X10734900Y-8318300D01*
D13*
X2623800Y326300D02*
G75*
G03*
X2623800Y326300I-30000J0D01*
G01*
D11*
X2563800Y356300D02*
X2563800Y296300D01*
X2563800Y296300D02*
G75*
G03*
X2623800Y296300I30000J0D01*
G01*
X2623800Y296300D02*
X2623800Y356300D01*
X2623800Y356300D02*
G75*
G03*
X2563800Y356300I-30000J0D01*
G01*
D13*
X2623800Y-91700D02*
G75*
G03*
X2623800Y-91700I-30000J0D01*
G01*
D11*
X2563800Y-36700D02*
X2563800Y-146700D01*
X2563800Y-146700D02*
G75*
G03*
X2623800Y-146700I30000J0D01*
G01*
X2623800Y-146700D02*
X2623800Y-36700D01*
X2623800Y-36700D02*
G75*
G03*
X2563800Y-36700I-30000J0D01*
G01*
D13*
X3487800Y326300D02*
G75*
G03*
X3487800Y326300I-30000J0D01*
G01*
D11*
X3427800Y356300D02*
X3427800Y296300D01*
X3427800Y296300D02*
G75*
G03*
X3487800Y296300I30000J0D01*
G01*
X3487800Y296300D02*
X3487800Y356300D01*
X3487800Y356300D02*
G75*
G03*
X3427800Y356300I-30000J0D01*
G01*
D13*
X3487800Y-91700D02*
G75*
G03*
X3487800Y-91700I-30000J0D01*
G01*
D11*
X3427800Y-36700D02*
X3427800Y-146700D01*
X3427800Y-146700D02*
G75*
G03*
X3487800Y-146700I30000J0D01*
G01*
X3487800Y-146700D02*
X3487800Y-36700D01*
X3487800Y-36700D02*
G75*
G03*
X3427800Y-36700I-30000J0D01*
G01*
D14*
X344400Y-6249200D02*
X344400Y-6349200D01*
X294400Y-6299200D02*
X394400Y-6299200D01*
X344400Y-6503200D02*
X344400Y-6603200D01*
X294400Y-6553200D02*
X394400Y-6553200D01*
X344400Y-6757200D02*
X344400Y-6857200D01*
X294400Y-6807200D02*
X394400Y-6807200D01*
X344400Y-7011200D02*
X344400Y-7111200D01*
X294400Y-7061200D02*
X394400Y-7061200D01*
X344400Y-7265200D02*
X344400Y-7365200D01*
X294400Y-7315200D02*
X394400Y-7315200D01*
X344400Y-7519200D02*
X344400Y-7619200D01*
X294400Y-7569200D02*
X394400Y-7569200D01*
X344400Y-7773200D02*
X344400Y-7873200D01*
X294400Y-7823200D02*
X394400Y-7823200D01*
X344400Y-8027200D02*
X344400Y-8127200D01*
X294400Y-8077200D02*
X394400Y-8077200D01*
X1348700Y-626250D02*
X1348700Y-726250D01*
X1298700Y-676250D02*
X1398700Y-676250D01*
X1348700Y-2076250D02*
X1348700Y-2176250D01*
X1298700Y-2126250D02*
X1398700Y-2126250D01*
X1598700Y-2076250D02*
X1598700Y-2176250D01*
X1548700Y-2126250D02*
X1648700Y-2126250D01*
X1848700Y-626250D02*
X1848700Y-726250D01*
X1798700Y-676250D02*
X1898700Y-676250D01*
X1848700Y-2076250D02*
X1848700Y-2176250D01*
X1798700Y-2126250D02*
X1898700Y-2126250D01*
X2454300Y-7825150D02*
X2454300Y-7925150D01*
X2404300Y-7875150D02*
X2504300Y-7875150D01*
X2454300Y-8079150D02*
X2454300Y-8179150D01*
X2404300Y-8129150D02*
X2504300Y-8129150D01*
X2708300Y-7825150D02*
X2708300Y-7925150D01*
X2658300Y-7875150D02*
X2758300Y-7875150D01*
X2708300Y-8079150D02*
X2708300Y-8179150D01*
X2658300Y-8129150D02*
X2758300Y-8129150D01*
X2962300Y-7825150D02*
X2962300Y-7925150D01*
X2912300Y-7875150D02*
X3012300Y-7875150D01*
X2962300Y-8079150D02*
X2962300Y-8179150D01*
X2912300Y-8129150D02*
X3012300Y-8129150D01*
D15*
X2759781Y-61681D02*
X2759781Y-15719D01*
X2713819Y-15719D01*
X2713819Y-61681D01*
X2759781Y-61681D01*
X3337781Y-61681D02*
X3337781Y-15719D01*
X3291819Y-15719D01*
X3291819Y-61681D01*
X3337781Y-61681D01*
D16*
X1038700Y-1451250D02*
X1113700Y-1376250D01*
X1038700Y-1301250D01*
X963700Y-1376250D01*
X1038700Y-1451250D01*
D11*
X1113700Y-1441250D02*
X1113700Y-1311250D01*
X1113700Y-1311250D02*
G75*
G03*
X963700Y-1311250I-75000J0D01*
G01*
X963700Y-1311250D02*
X963700Y-1441250D01*
X963700Y-1441250D02*
G75*
G03*
X1113700Y-1441250I75000J0D01*
G01*
D16*
X2158700Y-1451250D02*
X2233700Y-1376250D01*
X2158700Y-1301250D01*
X2083700Y-1376250D01*
X2158700Y-1451250D01*
D11*
X2233700Y-1441250D02*
X2233700Y-1311250D01*
X2233700Y-1311250D02*
G75*
G03*
X2083700Y-1311250I-75000J0D01*
G01*
X2083700Y-1311250D02*
X2083700Y-1441250D01*
X2083700Y-1441250D02*
G75*
G03*
X2233700Y-1441250I75000J0D01*
G01*
D17*
X1003200Y-3670000D02*
X1178200Y-3845000D01*
X1178200Y-3670000D02*
X1003200Y-3845000D01*
X1178200Y-3757500D02*
G75*
G03*
X1178200Y-3757500I-87500J0D01*
G01*
X2019200Y-3670000D02*
X2194200Y-3845000D01*
X2194200Y-3670000D02*
X2019200Y-3845000D01*
X2194200Y-3757500D02*
G75*
G03*
X2194200Y-3757500I-87500J0D01*
G01*
X3831950Y-812500D02*
X4006950Y-987500D01*
X4006950Y-812500D02*
X3831950Y-987500D01*
X4006950Y-900000D02*
G75*
G03*
X4006950Y-900000I-87500J0D01*
G01*
X3831950Y-2717500D02*
X4006950Y-2892500D01*
X4006950Y-2717500D02*
X3831950Y-2892500D01*
X4006950Y-2805000D02*
G75*
G03*
X4006950Y-2805000I-87500J0D01*
G01*
X3831950Y-3670000D02*
X4006950Y-3845000D01*
X4006950Y-3670000D02*
X3831950Y-3845000D01*
X4006950Y-3757500D02*
G75*
G03*
X4006950Y-3757500I-87500J0D01*
G01*
X3831950Y-4622500D02*
X4006950Y-4797500D01*
X4006950Y-4622500D02*
X3831950Y-4797500D01*
X4006950Y-4710000D02*
G75*
G03*
X4006950Y-4710000I-87500J0D01*
G01*
X3831950Y-6527500D02*
X4006950Y-6702500D01*
X4006950Y-6527500D02*
X3831950Y-6702500D01*
X4006950Y-6615000D02*
G75*
G03*
X4006950Y-6615000I-87500J0D01*
G01*
X3831950Y-7480000D02*
X4006950Y-7655000D01*
X4006950Y-7480000D02*
X3831950Y-7655000D01*
X4006950Y-7567500D02*
G75*
G03*
X4006950Y-7567500I-87500J0D01*
G01*
X4784450Y-8432500D02*
X4959450Y-8607500D01*
X4959450Y-8432500D02*
X4784450Y-8607500D01*
X4959450Y-8520000D02*
G75*
G03*
X4959450Y-8520000I-87500J0D01*
G01*
X4847950Y-812500D02*
X5022950Y-987500D01*
X5022950Y-812500D02*
X4847950Y-987500D01*
X5022950Y-900000D02*
G75*
G03*
X5022950Y-900000I-87500J0D01*
G01*
X4847950Y-2717500D02*
X5022950Y-2892500D01*
X5022950Y-2717500D02*
X4847950Y-2892500D01*
X5022950Y-2805000D02*
G75*
G03*
X5022950Y-2805000I-87500J0D01*
G01*
X4847950Y-3670000D02*
X5022950Y-3845000D01*
X5022950Y-3670000D02*
X4847950Y-3845000D01*
X5022950Y-3757500D02*
G75*
G03*
X5022950Y-3757500I-87500J0D01*
G01*
X4847950Y-4622500D02*
X5022950Y-4797500D01*
X5022950Y-4622500D02*
X4847950Y-4797500D01*
X5022950Y-4710000D02*
G75*
G03*
X5022950Y-4710000I-87500J0D01*
G01*
X4847950Y-6527500D02*
X5022950Y-6702500D01*
X5022950Y-6527500D02*
X4847950Y-6702500D01*
X5022950Y-6615000D02*
G75*
G03*
X5022950Y-6615000I-87500J0D01*
G01*
X4847950Y-7480000D02*
X5022950Y-7655000D01*
X5022950Y-7480000D02*
X4847950Y-7655000D01*
X5022950Y-7567500D02*
G75*
G03*
X5022950Y-7567500I-87500J0D01*
G01*
X5736950Y-812500D02*
X5911950Y-987500D01*
X5911950Y-812500D02*
X5736950Y-987500D01*
X5911950Y-900000D02*
G75*
G03*
X5911950Y-900000I-87500J0D01*
G01*
X5736950Y-2717500D02*
X5911950Y-2892500D01*
X5911950Y-2717500D02*
X5736950Y-2892500D01*
X5911950Y-2805000D02*
G75*
G03*
X5911950Y-2805000I-87500J0D01*
G01*
X5736950Y-4622500D02*
X5911950Y-4797500D01*
X5911950Y-4622500D02*
X5736950Y-4797500D01*
X5911950Y-4710000D02*
G75*
G03*
X5911950Y-4710000I-87500J0D01*
G01*
X5736950Y-6527500D02*
X5911950Y-6702500D01*
X5911950Y-6527500D02*
X5736950Y-6702500D01*
X5911950Y-6615000D02*
G75*
G03*
X5911950Y-6615000I-87500J0D01*
G01*
X5736950Y-8432500D02*
X5911950Y-8607500D01*
X5911950Y-8432500D02*
X5736950Y-8607500D01*
X5911950Y-8520000D02*
G75*
G03*
X5911950Y-8520000I-87500J0D01*
G01*
X5800450Y-8432500D02*
X5975450Y-8607500D01*
X5975450Y-8432500D02*
X5800450Y-8607500D01*
X5975450Y-8520000D02*
G75*
G03*
X5975450Y-8520000I-87500J0D01*
G01*
X6752950Y-812500D02*
X6927950Y-987500D01*
X6927950Y-812500D02*
X6752950Y-987500D01*
X6927950Y-900000D02*
G75*
G03*
X6927950Y-900000I-87500J0D01*
G01*
X6752950Y-2717500D02*
X6927950Y-2892500D01*
X6927950Y-2717500D02*
X6752950Y-2892500D01*
X6927950Y-2805000D02*
G75*
G03*
X6927950Y-2805000I-87500J0D01*
G01*
X6752950Y-4622500D02*
X6927950Y-4797500D01*
X6927950Y-4622500D02*
X6752950Y-4797500D01*
X6927950Y-4710000D02*
G75*
G03*
X6927950Y-4710000I-87500J0D01*
G01*
X6752950Y-6527500D02*
X6927950Y-6702500D01*
X6927950Y-6527500D02*
X6752950Y-6702500D01*
X6927950Y-6615000D02*
G75*
G03*
X6927950Y-6615000I-87500J0D01*
G01*
X6752950Y-8432500D02*
X6927950Y-8607500D01*
X6927950Y-8432500D02*
X6752950Y-8607500D01*
X6927950Y-8520000D02*
G75*
G03*
X6927950Y-8520000I-87500J0D01*
G01*
X7641950Y-812500D02*
X7816950Y-987500D01*
X7816950Y-812500D02*
X7641950Y-987500D01*
X7816950Y-900000D02*
G75*
G03*
X7816950Y-900000I-87500J0D01*
G01*
X7641950Y-2717500D02*
X7816950Y-2892500D01*
X7816950Y-2717500D02*
X7641950Y-2892500D01*
X7816950Y-2805000D02*
G75*
G03*
X7816950Y-2805000I-87500J0D01*
G01*
X7641950Y-4622500D02*
X7816950Y-4797500D01*
X7816950Y-4622500D02*
X7641950Y-4797500D01*
X7816950Y-4710000D02*
G75*
G03*
X7816950Y-4710000I-87500J0D01*
G01*
X7641950Y-6527500D02*
X7816950Y-6702500D01*
X7816950Y-6527500D02*
X7641950Y-6702500D01*
X7816950Y-6615000D02*
G75*
G03*
X7816950Y-6615000I-87500J0D01*
G01*
X7641950Y-8432500D02*
X7816950Y-8607500D01*
X7816950Y-8432500D02*
X7641950Y-8607500D01*
X7816950Y-8520000D02*
G75*
G03*
X7816950Y-8520000I-87500J0D01*
G01*
X8594450Y-8432500D02*
X8769450Y-8607500D01*
X8769450Y-8432500D02*
X8594450Y-8607500D01*
X8769450Y-8520000D02*
G75*
G03*
X8769450Y-8520000I-87500J0D01*
G01*
X8657950Y-812500D02*
X8832950Y-987500D01*
X8832950Y-812500D02*
X8657950Y-987500D01*
X8832950Y-900000D02*
G75*
G03*
X8832950Y-900000I-87500J0D01*
G01*
X8657950Y-2717500D02*
X8832950Y-2892500D01*
X8832950Y-2717500D02*
X8657950Y-2892500D01*
X8832950Y-2805000D02*
G75*
G03*
X8832950Y-2805000I-87500J0D01*
G01*
X8657950Y-4622500D02*
X8832950Y-4797500D01*
X8832950Y-4622500D02*
X8657950Y-4797500D01*
X8832950Y-4710000D02*
G75*
G03*
X8832950Y-4710000I-87500J0D01*
G01*
X8657950Y-6527500D02*
X8832950Y-6702500D01*
X8832950Y-6527500D02*
X8657950Y-6702500D01*
X8832950Y-6615000D02*
G75*
G03*
X8832950Y-6615000I-87500J0D01*
G01*
X8657950Y-8432500D02*
X8832950Y-8607500D01*
X8832950Y-8432500D02*
X8657950Y-8607500D01*
X8832950Y-8520000D02*
G75*
G03*
X8832950Y-8520000I-87500J0D01*
G01*
X9546950Y-812500D02*
X9721950Y-987500D01*
X9721950Y-812500D02*
X9546950Y-987500D01*
X9721950Y-900000D02*
G75*
G03*
X9721950Y-900000I-87500J0D01*
G01*
X9546950Y-2717500D02*
X9721950Y-2892500D01*
X9721950Y-2717500D02*
X9546950Y-2892500D01*
X9721950Y-2805000D02*
G75*
G03*
X9721950Y-2805000I-87500J0D01*
G01*
X9546950Y-3670000D02*
X9721950Y-3845000D01*
X9721950Y-3670000D02*
X9546950Y-3845000D01*
X9721950Y-3757500D02*
G75*
G03*
X9721950Y-3757500I-87500J0D01*
G01*
X9546950Y-4622500D02*
X9721950Y-4797500D01*
X9721950Y-4622500D02*
X9546950Y-4797500D01*
X9721950Y-4710000D02*
G75*
G03*
X9721950Y-4710000I-87500J0D01*
G01*
X9546950Y-6527500D02*
X9721950Y-6702500D01*
X9721950Y-6527500D02*
X9546950Y-6702500D01*
X9721950Y-6615000D02*
G75*
G03*
X9721950Y-6615000I-87500J0D01*
G01*
X9546950Y-7480000D02*
X9721950Y-7655000D01*
X9721950Y-7480000D02*
X9546950Y-7655000D01*
X9721950Y-7567500D02*
G75*
G03*
X9721950Y-7567500I-87500J0D01*
G01*
X9610450Y-8432500D02*
X9785450Y-8607500D01*
X9785450Y-8432500D02*
X9610450Y-8607500D01*
X9785450Y-8520000D02*
G75*
G03*
X9785450Y-8520000I-87500J0D01*
G01*
X10562950Y-812500D02*
X10737950Y-987500D01*
X10737950Y-812500D02*
X10562950Y-987500D01*
X10737950Y-900000D02*
G75*
G03*
X10737950Y-900000I-87500J0D01*
G01*
X10562950Y-2717500D02*
X10737950Y-2892500D01*
X10737950Y-2717500D02*
X10562950Y-2892500D01*
X10737950Y-2805000D02*
G75*
G03*
X10737950Y-2805000I-87500J0D01*
G01*
X10562950Y-3670000D02*
X10737950Y-3845000D01*
X10737950Y-3670000D02*
X10562950Y-3845000D01*
X10737950Y-3757500D02*
G75*
G03*
X10737950Y-3757500I-87500J0D01*
G01*
X10562950Y-4622500D02*
X10737950Y-4797500D01*
X10737950Y-4622500D02*
X10562950Y-4797500D01*
X10737950Y-4710000D02*
G75*
G03*
X10737950Y-4710000I-87500J0D01*
G01*
X10562950Y-6527500D02*
X10737950Y-6702500D01*
X10737950Y-6527500D02*
X10562950Y-6702500D01*
X10737950Y-6615000D02*
G75*
G03*
X10737950Y-6615000I-87500J0D01*
G01*
X10562950Y-7480000D02*
X10737950Y-7655000D01*
X10737950Y-7480000D02*
X10562950Y-7655000D01*
X10737950Y-7567500D02*
G75*
G03*
X10737950Y-7567500I-87500J0D01*
G01*
D18*
X1067700Y-3353500D02*
X1367700Y-3653500D01*
X1367700Y-3353500D02*
X1067700Y-3653500D01*
X1217700Y-3353500D02*
X1217700Y-3653500D01*
X1067700Y-3503500D02*
X1367700Y-3503500D01*
X1702700Y-3099500D02*
X2002700Y-3399500D01*
X2002700Y-3099500D02*
X1702700Y-3399500D01*
X1852700Y-3099500D02*
X1852700Y-3399500D01*
X1702700Y-3249500D02*
X2002700Y-3249500D01*
X3896450Y-496000D02*
X4196450Y-796000D01*
X4196450Y-496000D02*
X3896450Y-796000D01*
X4046450Y-496000D02*
X4046450Y-796000D01*
X3896450Y-646000D02*
X4196450Y-646000D01*
X3896450Y-2401000D02*
X4196450Y-2701000D01*
X4196450Y-2401000D02*
X3896450Y-2701000D01*
X4046450Y-2401000D02*
X4046450Y-2701000D01*
X3896450Y-2551000D02*
X4196450Y-2551000D01*
X3896450Y-3353500D02*
X4196450Y-3653500D01*
X4196450Y-3353500D02*
X3896450Y-3653500D01*
X4046450Y-3353500D02*
X4046450Y-3653500D01*
X3896450Y-3503500D02*
X4196450Y-3503500D01*
X3896450Y-4306000D02*
X4196450Y-4606000D01*
X4196450Y-4306000D02*
X3896450Y-4606000D01*
X4046450Y-4306000D02*
X4046450Y-4606000D01*
X3896450Y-4456000D02*
X4196450Y-4456000D01*
X3896450Y-6211000D02*
X4196450Y-6511000D01*
X4196450Y-6211000D02*
X3896450Y-6511000D01*
X4046450Y-6211000D02*
X4046450Y-6511000D01*
X3896450Y-6361000D02*
X4196450Y-6361000D01*
X3896450Y-7163500D02*
X4196450Y-7463500D01*
X4196450Y-7163500D02*
X3896450Y-7463500D01*
X4046450Y-7163500D02*
X4046450Y-7463500D01*
X3896450Y-7313500D02*
X4196450Y-7313500D01*
X4531450Y-242000D02*
X4831450Y-542000D01*
X4831450Y-242000D02*
X4531450Y-542000D01*
X4681450Y-242000D02*
X4681450Y-542000D01*
X4531450Y-392000D02*
X4831450Y-392000D01*
X4531450Y-2147000D02*
X4831450Y-2447000D01*
X4831450Y-2147000D02*
X4531450Y-2447000D01*
X4681450Y-2147000D02*
X4681450Y-2447000D01*
X4531450Y-2297000D02*
X4831450Y-2297000D01*
X4531450Y-3099500D02*
X4831450Y-3399500D01*
X4831450Y-3099500D02*
X4531450Y-3399500D01*
X4681450Y-3099500D02*
X4681450Y-3399500D01*
X4531450Y-3249500D02*
X4831450Y-3249500D01*
X4531450Y-4052000D02*
X4831450Y-4352000D01*
X4831450Y-4052000D02*
X4531450Y-4352000D01*
X4681450Y-4052000D02*
X4681450Y-4352000D01*
X4531450Y-4202000D02*
X4831450Y-4202000D01*
X4531450Y-5957000D02*
X4831450Y-6257000D01*
X4831450Y-5957000D02*
X4531450Y-6257000D01*
X4681450Y-5957000D02*
X4681450Y-6257000D01*
X4531450Y-6107000D02*
X4831450Y-6107000D01*
X4531450Y-6909500D02*
X4831450Y-7209500D01*
X4831450Y-6909500D02*
X4531450Y-7209500D01*
X4681450Y-6909500D02*
X4681450Y-7209500D01*
X4531450Y-7059500D02*
X4831450Y-7059500D01*
X4848950Y-8116000D02*
X5148950Y-8416000D01*
X5148950Y-8116000D02*
X4848950Y-8416000D01*
X4998950Y-8116000D02*
X4998950Y-8416000D01*
X4848950Y-8266000D02*
X5148950Y-8266000D01*
X5483950Y-7862000D02*
X5783950Y-8162000D01*
X5783950Y-7862000D02*
X5483950Y-8162000D01*
X5633950Y-7862000D02*
X5633950Y-8162000D01*
X5483950Y-8012000D02*
X5783950Y-8012000D01*
X5801450Y-496000D02*
X6101450Y-796000D01*
X6101450Y-496000D02*
X5801450Y-796000D01*
X5951450Y-496000D02*
X5951450Y-796000D01*
X5801450Y-646000D02*
X6101450Y-646000D01*
X5801450Y-2401000D02*
X6101450Y-2701000D01*
X6101450Y-2401000D02*
X5801450Y-2701000D01*
X5951450Y-2401000D02*
X5951450Y-2701000D01*
X5801450Y-2551000D02*
X6101450Y-2551000D01*
X5801450Y-4306000D02*
X6101450Y-4606000D01*
X6101450Y-4306000D02*
X5801450Y-4606000D01*
X5951450Y-4306000D02*
X5951450Y-4606000D01*
X5801450Y-4456000D02*
X6101450Y-4456000D01*
X5801450Y-6211000D02*
X6101450Y-6511000D01*
X6101450Y-6211000D02*
X5801450Y-6511000D01*
X5951450Y-6211000D02*
X5951450Y-6511000D01*
X5801450Y-6361000D02*
X6101450Y-6361000D01*
X5928450Y-8878000D02*
X6228450Y-9178000D01*
X6228450Y-8878000D02*
X5928450Y-9178000D01*
X6078450Y-8878000D02*
X6078450Y-9178000D01*
X5928450Y-9028000D02*
X6228450Y-9028000D01*
X6436450Y-242000D02*
X6736450Y-542000D01*
X6736450Y-242000D02*
X6436450Y-542000D01*
X6586450Y-242000D02*
X6586450Y-542000D01*
X6436450Y-392000D02*
X6736450Y-392000D01*
X6436450Y-2147000D02*
X6736450Y-2447000D01*
X6736450Y-2147000D02*
X6436450Y-2447000D01*
X6586450Y-2147000D02*
X6586450Y-2447000D01*
X6436450Y-2297000D02*
X6736450Y-2297000D01*
X6436450Y-4052000D02*
X6736450Y-4352000D01*
X6736450Y-4052000D02*
X6436450Y-4352000D01*
X6586450Y-4052000D02*
X6586450Y-4352000D01*
X6436450Y-4202000D02*
X6736450Y-4202000D01*
X6436450Y-5957000D02*
X6736450Y-6257000D01*
X6736450Y-5957000D02*
X6436450Y-6257000D01*
X6586450Y-5957000D02*
X6586450Y-6257000D01*
X6436450Y-6107000D02*
X6736450Y-6107000D01*
X6563450Y-8624000D02*
X6863450Y-8924000D01*
X6863450Y-8624000D02*
X6563450Y-8924000D01*
X6713450Y-8624000D02*
X6713450Y-8924000D01*
X6563450Y-8774000D02*
X6863450Y-8774000D01*
X7706450Y-496000D02*
X8006450Y-796000D01*
X8006450Y-496000D02*
X7706450Y-796000D01*
X7856450Y-496000D02*
X7856450Y-796000D01*
X7706450Y-646000D02*
X8006450Y-646000D01*
X7706450Y-2401000D02*
X8006450Y-2701000D01*
X8006450Y-2401000D02*
X7706450Y-2701000D01*
X7856450Y-2401000D02*
X7856450Y-2701000D01*
X7706450Y-2551000D02*
X8006450Y-2551000D01*
X7706450Y-4306000D02*
X8006450Y-4606000D01*
X8006450Y-4306000D02*
X7706450Y-4606000D01*
X7856450Y-4306000D02*
X7856450Y-4606000D01*
X7706450Y-4456000D02*
X8006450Y-4456000D01*
X7706450Y-6211000D02*
X8006450Y-6511000D01*
X8006450Y-6211000D02*
X7706450Y-6511000D01*
X7856450Y-6211000D02*
X7856450Y-6511000D01*
X7706450Y-6361000D02*
X8006450Y-6361000D01*
X7833450Y-8878000D02*
X8133450Y-9178000D01*
X8133450Y-8878000D02*
X7833450Y-9178000D01*
X7983450Y-8878000D02*
X7983450Y-9178000D01*
X7833450Y-9028000D02*
X8133450Y-9028000D01*
X8341450Y-242000D02*
X8641450Y-542000D01*
X8641450Y-242000D02*
X8341450Y-542000D01*
X8491450Y-242000D02*
X8491450Y-542000D01*
X8341450Y-392000D02*
X8641450Y-392000D01*
X8341450Y-2147000D02*
X8641450Y-2447000D01*
X8641450Y-2147000D02*
X8341450Y-2447000D01*
X8491450Y-2147000D02*
X8491450Y-2447000D01*
X8341450Y-2297000D02*
X8641450Y-2297000D01*
X8341450Y-4052000D02*
X8641450Y-4352000D01*
X8641450Y-4052000D02*
X8341450Y-4352000D01*
X8491450Y-4052000D02*
X8491450Y-4352000D01*
X8341450Y-4202000D02*
X8641450Y-4202000D01*
X8341450Y-5957000D02*
X8641450Y-6257000D01*
X8641450Y-5957000D02*
X8341450Y-6257000D01*
X8491450Y-5957000D02*
X8491450Y-6257000D01*
X8341450Y-6107000D02*
X8641450Y-6107000D01*
X8468450Y-8624000D02*
X8768450Y-8924000D01*
X8768450Y-8624000D02*
X8468450Y-8924000D01*
X8618450Y-8624000D02*
X8618450Y-8924000D01*
X8468450Y-8774000D02*
X8768450Y-8774000D01*
X8658950Y-8116000D02*
X8958950Y-8416000D01*
X8958950Y-8116000D02*
X8658950Y-8416000D01*
X8808950Y-8116000D02*
X8808950Y-8416000D01*
X8658950Y-8266000D02*
X8958950Y-8266000D01*
X9293950Y-7862000D02*
X9593950Y-8162000D01*
X9593950Y-7862000D02*
X9293950Y-8162000D01*
X9443950Y-7862000D02*
X9443950Y-8162000D01*
X9293950Y-8012000D02*
X9593950Y-8012000D01*
X9611450Y-496000D02*
X9911450Y-796000D01*
X9911450Y-496000D02*
X9611450Y-796000D01*
X9761450Y-496000D02*
X9761450Y-796000D01*
X9611450Y-646000D02*
X9911450Y-646000D01*
X9611450Y-2401000D02*
X9911450Y-2701000D01*
X9911450Y-2401000D02*
X9611450Y-2701000D01*
X9761450Y-2401000D02*
X9761450Y-2701000D01*
X9611450Y-2551000D02*
X9911450Y-2551000D01*
X9611450Y-3353500D02*
X9911450Y-3653500D01*
X9911450Y-3353500D02*
X9611450Y-3653500D01*
X9761450Y-3353500D02*
X9761450Y-3653500D01*
X9611450Y-3503500D02*
X9911450Y-3503500D01*
X9611450Y-4306000D02*
X9911450Y-4606000D01*
X9911450Y-4306000D02*
X9611450Y-4606000D01*
X9761450Y-4306000D02*
X9761450Y-4606000D01*
X9611450Y-4456000D02*
X9911450Y-4456000D01*
X9611450Y-6211000D02*
X9911450Y-6511000D01*
X9911450Y-6211000D02*
X9611450Y-6511000D01*
X9761450Y-6211000D02*
X9761450Y-6511000D01*
X9611450Y-6361000D02*
X9911450Y-6361000D01*
X9611450Y-7163500D02*
X9911450Y-7463500D01*
X9911450Y-7163500D02*
X9611450Y-7463500D01*
X9761450Y-7163500D02*
X9761450Y-7463500D01*
X9611450Y-7313500D02*
X9911450Y-7313500D01*
X10246450Y-242000D02*
X10546450Y-542000D01*
X10546450Y-242000D02*
X10246450Y-542000D01*
X10396450Y-242000D02*
X10396450Y-542000D01*
X10246450Y-392000D02*
X10546450Y-392000D01*
X10246450Y-2147000D02*
X10546450Y-2447000D01*
X10546450Y-2147000D02*
X10246450Y-2447000D01*
X10396450Y-2147000D02*
X10396450Y-2447000D01*
X10246450Y-2297000D02*
X10546450Y-2297000D01*
X10246450Y-3099500D02*
X10546450Y-3399500D01*
X10546450Y-3099500D02*
X10246450Y-3399500D01*
X10396450Y-3099500D02*
X10396450Y-3399500D01*
X10246450Y-3249500D02*
X10546450Y-3249500D01*
X10246450Y-4052000D02*
X10546450Y-4352000D01*
X10546450Y-4052000D02*
X10246450Y-4352000D01*
X10396450Y-4052000D02*
X10396450Y-4352000D01*
X10246450Y-4202000D02*
X10546450Y-4202000D01*
X10246450Y-5957000D02*
X10546450Y-6257000D01*
X10546450Y-5957000D02*
X10246450Y-6257000D01*
X10396450Y-5957000D02*
X10396450Y-6257000D01*
X10246450Y-6107000D02*
X10546450Y-6107000D01*
X10246450Y-6909500D02*
X10546450Y-7209500D01*
X10546450Y-6909500D02*
X10246450Y-7209500D01*
X10396450Y-6909500D02*
X10396450Y-7209500D01*
X10246450Y-7059500D02*
X10546450Y-7059500D01*
D19*
X1399310Y-3558110D02*
X1798090Y-3956890D01*
X1798090Y-3558110D02*
X1399310Y-3956890D01*
X1739691Y-3898491D02*
X1739691Y-3616509D01*
X1457709Y-3616509D01*
X1457709Y-3898491D01*
X1739691Y-3898491D01*
X4228060Y-700610D02*
X4626840Y-1099390D01*
X4626840Y-700610D02*
X4228060Y-1099390D01*
X4568441Y-1040991D02*
X4568441Y-759009D01*
X4286459Y-759009D01*
X4286459Y-1040991D01*
X4568441Y-1040991D01*
X4228060Y-2605610D02*
X4626840Y-3004390D01*
X4626840Y-2605610D02*
X4228060Y-3004390D01*
X4568441Y-2945991D02*
X4568441Y-2664009D01*
X4286459Y-2664009D01*
X4286459Y-2945991D01*
X4568441Y-2945991D01*
X4228060Y-3558110D02*
X4626840Y-3956890D01*
X4626840Y-3558110D02*
X4228060Y-3956890D01*
X4568441Y-3898491D02*
X4568441Y-3616509D01*
X4286459Y-3616509D01*
X4286459Y-3898491D01*
X4568441Y-3898491D01*
X4228060Y-4510610D02*
X4626840Y-4909390D01*
X4626840Y-4510610D02*
X4228060Y-4909390D01*
X4568441Y-4850991D02*
X4568441Y-4569009D01*
X4286459Y-4569009D01*
X4286459Y-4850991D01*
X4568441Y-4850991D01*
X4228060Y-6415610D02*
X4626840Y-6814390D01*
X4626840Y-6415610D02*
X4228060Y-6814390D01*
X4568441Y-6755991D02*
X4568441Y-6474009D01*
X4286459Y-6474009D01*
X4286459Y-6755991D01*
X4568441Y-6755991D01*
X4228060Y-7368110D02*
X4626840Y-7766890D01*
X4626840Y-7368110D02*
X4228060Y-7766890D01*
X4568441Y-7708491D02*
X4568441Y-7426509D01*
X4286459Y-7426509D01*
X4286459Y-7708491D01*
X4568441Y-7708491D01*
X5180560Y-8320610D02*
X5579340Y-8719390D01*
X5579340Y-8320610D02*
X5180560Y-8719390D01*
X5520941Y-8660991D02*
X5520941Y-8379009D01*
X5238959Y-8379009D01*
X5238959Y-8660991D01*
X5520941Y-8660991D01*
X6133060Y-700610D02*
X6531840Y-1099390D01*
X6531840Y-700610D02*
X6133060Y-1099390D01*
X6473441Y-1040991D02*
X6473441Y-759009D01*
X6191459Y-759009D01*
X6191459Y-1040991D01*
X6473441Y-1040991D01*
X6133060Y-2605610D02*
X6531840Y-3004390D01*
X6531840Y-2605610D02*
X6133060Y-3004390D01*
X6473441Y-2945991D02*
X6473441Y-2664009D01*
X6191459Y-2664009D01*
X6191459Y-2945991D01*
X6473441Y-2945991D01*
X6133060Y-4510610D02*
X6531840Y-4909390D01*
X6531840Y-4510610D02*
X6133060Y-4909390D01*
X6473441Y-4850991D02*
X6473441Y-4569009D01*
X6191459Y-4569009D01*
X6191459Y-4850991D01*
X6473441Y-4850991D01*
X6133060Y-6415610D02*
X6531840Y-6814390D01*
X6531840Y-6415610D02*
X6133060Y-6814390D01*
X6473441Y-6755991D02*
X6473441Y-6474009D01*
X6191459Y-6474009D01*
X6191459Y-6755991D01*
X6473441Y-6755991D01*
X6133060Y-8320610D02*
X6531840Y-8719390D01*
X6531840Y-8320610D02*
X6133060Y-8719390D01*
X6473441Y-8660991D02*
X6473441Y-8379009D01*
X6191459Y-8379009D01*
X6191459Y-8660991D01*
X6473441Y-8660991D01*
X8038060Y-700610D02*
X8436840Y-1099390D01*
X8436840Y-700610D02*
X8038060Y-1099390D01*
X8378441Y-1040991D02*
X8378441Y-759009D01*
X8096459Y-759009D01*
X8096459Y-1040991D01*
X8378441Y-1040991D01*
X8038060Y-2605610D02*
X8436840Y-3004390D01*
X8436840Y-2605610D02*
X8038060Y-3004390D01*
X8378441Y-2945991D02*
X8378441Y-2664009D01*
X8096459Y-2664009D01*
X8096459Y-2945991D01*
X8378441Y-2945991D01*
X8038060Y-4510610D02*
X8436840Y-4909390D01*
X8436840Y-4510610D02*
X8038060Y-4909390D01*
X8378441Y-4850991D02*
X8378441Y-4569009D01*
X8096459Y-4569009D01*
X8096459Y-4850991D01*
X8378441Y-4850991D01*
X8038060Y-6415610D02*
X8436840Y-6814390D01*
X8436840Y-6415610D02*
X8038060Y-6814390D01*
X8378441Y-6755991D02*
X8378441Y-6474009D01*
X8096459Y-6474009D01*
X8096459Y-6755991D01*
X8378441Y-6755991D01*
X8038060Y-8320610D02*
X8436840Y-8719390D01*
X8436840Y-8320610D02*
X8038060Y-8719390D01*
X8378441Y-8660991D02*
X8378441Y-8379009D01*
X8096459Y-8379009D01*
X8096459Y-8660991D01*
X8378441Y-8660991D01*
X8990560Y-8320610D02*
X9389340Y-8719390D01*
X9389340Y-8320610D02*
X8990560Y-8719390D01*
X9330941Y-8660991D02*
X9330941Y-8379009D01*
X9048959Y-8379009D01*
X9048959Y-8660991D01*
X9330941Y-8660991D01*
X9943060Y-700610D02*
X10341840Y-1099390D01*
X10341840Y-700610D02*
X9943060Y-1099390D01*
X10283441Y-1040991D02*
X10283441Y-759009D01*
X10001459Y-759009D01*
X10001459Y-1040991D01*
X10283441Y-1040991D01*
X9943060Y-2605610D02*
X10341840Y-3004390D01*
X10341840Y-2605610D02*
X9943060Y-3004390D01*
X10283441Y-2945991D02*
X10283441Y-2664009D01*
X10001459Y-2664009D01*
X10001459Y-2945991D01*
X10283441Y-2945991D01*
X9943060Y-3558110D02*
X10341840Y-3956890D01*
X10341840Y-3558110D02*
X9943060Y-3956890D01*
X10283441Y-3898491D02*
X10283441Y-3616509D01*
X10001459Y-3616509D01*
X10001459Y-3898491D01*
X10283441Y-3898491D01*
X9943060Y-4510610D02*
X10341840Y-4909390D01*
X10341840Y-4510610D02*
X9943060Y-4909390D01*
X10283441Y-4850991D02*
X10283441Y-4569009D01*
X10001459Y-4569009D01*
X10001459Y-4850991D01*
X10283441Y-4850991D01*
X9943060Y-6415610D02*
X10341840Y-6814390D01*
X10341840Y-6415610D02*
X9943060Y-6814390D01*
X10283441Y-6755991D02*
X10283441Y-6474009D01*
X10001459Y-6474009D01*
X10001459Y-6755991D01*
X10283441Y-6755991D01*
X9943060Y-7368110D02*
X10341840Y-7766890D01*
X10341840Y-7368110D02*
X9943060Y-7766890D01*
X10283441Y-7708491D02*
X10283441Y-7426509D01*
X10001459Y-7426509D01*
X10001459Y-7708491D01*
X10283441Y-7708491D01*
D11*
X242619Y-9718476D02*
X242619Y-9518476D01*
X242619Y-9518476D02*
X290238Y-9518476D01*
X290238Y-9518476D02*
X318810Y-9528000D01*
X318810Y-9528000D02*
X337857Y-9547048D01*
X337857Y-9547048D02*
X347381Y-9566095D01*
X347381Y-9566095D02*
X356905Y-9604190D01*
X356905Y-9604190D02*
X356905Y-9632762D01*
X356905Y-9632762D02*
X347381Y-9670857D01*
X347381Y-9670857D02*
X337857Y-9689905D01*
X337857Y-9689905D02*
X318810Y-9708952D01*
X318810Y-9708952D02*
X290238Y-9718476D01*
X290238Y-9718476D02*
X242619Y-9718476D01*
X442619Y-9718476D02*
X442619Y-9585143D01*
X442619Y-9623238D02*
X452143Y-9604190D01*
X452143Y-9604190D02*
X461667Y-9594667D01*
X461667Y-9594667D02*
X480714Y-9585143D01*
X480714Y-9585143D02*
X499762Y-9585143D01*
X566429Y-9718476D02*
X566429Y-9585143D01*
X566429Y-9518476D02*
X556905Y-9528000D01*
X556905Y-9528000D02*
X566429Y-9537524D01*
X566429Y-9537524D02*
X575952Y-9528000D01*
X575952Y-9528000D02*
X566429Y-9518476D01*
X566429Y-9518476D02*
X566429Y-9537524D01*
X690238Y-9718476D02*
X671190Y-9708952D01*
X671190Y-9708952D02*
X661667Y-9689905D01*
X661667Y-9689905D02*
X661667Y-9518476D01*
X795000Y-9718476D02*
X775952Y-9708952D01*
X775952Y-9708952D02*
X766428Y-9689905D01*
X766428Y-9689905D02*
X766428Y-9518476D01*
X991190Y-9718476D02*
X991190Y-9518476D01*
X991190Y-9518476D02*
X1057857Y-9661333D01*
X1057857Y-9661333D02*
X1124524Y-9518476D01*
X1124524Y-9518476D02*
X1124524Y-9718476D01*
X1305476Y-9718476D02*
X1305476Y-9613714D01*
X1305476Y-9613714D02*
X1295952Y-9594667D01*
X1295952Y-9594667D02*
X1276905Y-9585143D01*
X1276905Y-9585143D02*
X1238809Y-9585143D01*
X1238809Y-9585143D02*
X1219762Y-9594667D01*
X1305476Y-9708952D02*
X1286429Y-9718476D01*
X1286429Y-9718476D02*
X1238809Y-9718476D01*
X1238809Y-9718476D02*
X1219762Y-9708952D01*
X1219762Y-9708952D02*
X1210238Y-9689905D01*
X1210238Y-9689905D02*
X1210238Y-9670857D01*
X1210238Y-9670857D02*
X1219762Y-9651810D01*
X1219762Y-9651810D02*
X1238809Y-9642286D01*
X1238809Y-9642286D02*
X1286429Y-9642286D01*
X1286429Y-9642286D02*
X1305476Y-9632762D01*
X1400714Y-9585143D02*
X1400714Y-9785143D01*
X1400714Y-9594667D02*
X1419762Y-9585143D01*
X1419762Y-9585143D02*
X1457857Y-9585143D01*
X1457857Y-9585143D02*
X1476905Y-9594667D01*
X1476905Y-9594667D02*
X1486428Y-9604190D01*
X1486428Y-9604190D02*
X1495952Y-9623238D01*
X1495952Y-9623238D02*
X1495952Y-9680381D01*
X1495952Y-9680381D02*
X1486428Y-9699429D01*
X1486428Y-9699429D02*
X1476905Y-9708952D01*
X1476905Y-9708952D02*
X1457857Y-9718476D01*
X1457857Y-9718476D02*
X1419762Y-9718476D01*
X1419762Y-9718476D02*
X1400714Y-9708952D01*
X1581667Y-9699429D02*
X1591190Y-9708952D01*
X1591190Y-9708952D02*
X1581667Y-9718476D01*
X1581667Y-9718476D02*
X1572143Y-9708952D01*
X1572143Y-9708952D02*
X1581667Y-9699429D01*
X1581667Y-9699429D02*
X1581667Y-9718476D01*
X1581667Y-9594667D02*
X1591190Y-9604190D01*
X1591190Y-9604190D02*
X1581667Y-9613714D01*
X1581667Y-9613714D02*
X1572143Y-9604190D01*
X1572143Y-9604190D02*
X1581667Y-9594667D01*
X1581667Y-9594667D02*
X1581667Y-9613714D01*
D12*
X-30000Y-10052500D02*
X-5000Y-10077500D01*
X-5000Y-10052500D02*
X-30000Y-10077500D01*
D11*
X280714Y-9938476D02*
X299762Y-9938476D01*
X299762Y-9938476D02*
X318810Y-9948000D01*
X318810Y-9948000D02*
X328333Y-9957524D01*
X328333Y-9957524D02*
X337857Y-9976571D01*
X337857Y-9976571D02*
X347381Y-10014667D01*
X347381Y-10014667D02*
X347381Y-10062286D01*
X347381Y-10062286D02*
X337857Y-10100381D01*
X337857Y-10100381D02*
X328333Y-10119429D01*
X328333Y-10119429D02*
X318810Y-10128952D01*
X318810Y-10128952D02*
X299762Y-10138476D01*
X299762Y-10138476D02*
X280714Y-10138476D01*
X280714Y-10138476D02*
X261667Y-10128952D01*
X261667Y-10128952D02*
X252143Y-10119429D01*
X252143Y-10119429D02*
X242619Y-10100381D01*
X242619Y-10100381D02*
X233095Y-10062286D01*
X233095Y-10062286D02*
X233095Y-10014667D01*
X233095Y-10014667D02*
X242619Y-9976571D01*
X242619Y-9976571D02*
X252143Y-9957524D01*
X252143Y-9957524D02*
X261667Y-9948000D01*
X261667Y-9948000D02*
X280714Y-9938476D01*
X433095Y-10119429D02*
X442619Y-10128952D01*
X442619Y-10128952D02*
X433095Y-10138476D01*
X433095Y-10138476D02*
X423571Y-10128952D01*
X423571Y-10128952D02*
X433095Y-10119429D01*
X433095Y-10119429D02*
X433095Y-10138476D01*
X518809Y-9957524D02*
X528333Y-9948000D01*
X528333Y-9948000D02*
X547381Y-9938476D01*
X547381Y-9938476D02*
X595000Y-9938476D01*
X595000Y-9938476D02*
X614048Y-9948000D01*
X614048Y-9948000D02*
X623571Y-9957524D01*
X623571Y-9957524D02*
X633095Y-9976571D01*
X633095Y-9976571D02*
X633095Y-9995619D01*
X633095Y-9995619D02*
X623571Y-10024190D01*
X623571Y-10024190D02*
X509286Y-10138476D01*
X509286Y-10138476D02*
X633095Y-10138476D01*
X814048Y-9938476D02*
X718809Y-9938476D01*
X718809Y-9938476D02*
X709286Y-10033714D01*
X709286Y-10033714D02*
X718809Y-10024190D01*
X718809Y-10024190D02*
X737857Y-10014667D01*
X737857Y-10014667D02*
X785476Y-10014667D01*
X785476Y-10014667D02*
X804524Y-10024190D01*
X804524Y-10024190D02*
X814048Y-10033714D01*
X814048Y-10033714D02*
X823571Y-10052762D01*
X823571Y-10052762D02*
X823571Y-10100381D01*
X823571Y-10100381D02*
X814048Y-10119429D01*
X814048Y-10119429D02*
X804524Y-10128952D01*
X804524Y-10128952D02*
X785476Y-10138476D01*
X785476Y-10138476D02*
X737857Y-10138476D01*
X737857Y-10138476D02*
X718809Y-10128952D01*
X718809Y-10128952D02*
X709286Y-10119429D01*
X947381Y-9938476D02*
X966429Y-9938476D01*
X966429Y-9938476D02*
X985476Y-9948000D01*
X985476Y-9948000D02*
X995000Y-9957524D01*
X995000Y-9957524D02*
X1004524Y-9976571D01*
X1004524Y-9976571D02*
X1014048Y-10014667D01*
X1014048Y-10014667D02*
X1014048Y-10062286D01*
X1014048Y-10062286D02*
X1004524Y-10100381D01*
X1004524Y-10100381D02*
X995000Y-10119429D01*
X995000Y-10119429D02*
X985476Y-10128952D01*
X985476Y-10128952D02*
X966429Y-10138476D01*
X966429Y-10138476D02*
X947381Y-10138476D01*
X947381Y-10138476D02*
X928333Y-10128952D01*
X928333Y-10128952D02*
X918809Y-10119429D01*
X918809Y-10119429D02*
X909286Y-10100381D01*
X909286Y-10100381D02*
X899762Y-10062286D01*
X899762Y-10062286D02*
X899762Y-10014667D01*
X899762Y-10014667D02*
X909286Y-9976571D01*
X909286Y-9976571D02*
X918809Y-9957524D01*
X918809Y-9957524D02*
X928333Y-9948000D01*
X928333Y-9948000D02*
X947381Y-9938476D01*
X1099762Y-10138476D02*
X1099762Y-10005143D01*
X1099762Y-10024190D02*
X1109286Y-10014667D01*
X1109286Y-10014667D02*
X1128333Y-10005143D01*
X1128333Y-10005143D02*
X1156905Y-10005143D01*
X1156905Y-10005143D02*
X1175952Y-10014667D01*
X1175952Y-10014667D02*
X1185476Y-10033714D01*
X1185476Y-10033714D02*
X1185476Y-10138476D01*
X1185476Y-10033714D02*
X1195000Y-10014667D01*
X1195000Y-10014667D02*
X1214048Y-10005143D01*
X1214048Y-10005143D02*
X1242619Y-10005143D01*
X1242619Y-10005143D02*
X1261667Y-10014667D01*
X1261667Y-10014667D02*
X1271191Y-10033714D01*
X1271191Y-10033714D02*
X1271191Y-10138476D01*
X1366429Y-10138476D02*
X1366429Y-10005143D01*
X1366429Y-10024190D02*
X1375952Y-10014667D01*
X1375952Y-10014667D02*
X1395000Y-10005143D01*
X1395000Y-10005143D02*
X1423571Y-10005143D01*
X1423571Y-10005143D02*
X1442619Y-10014667D01*
X1442619Y-10014667D02*
X1452143Y-10033714D01*
X1452143Y-10033714D02*
X1452143Y-10138476D01*
X1452143Y-10033714D02*
X1461667Y-10014667D01*
X1461667Y-10014667D02*
X1480714Y-10005143D01*
X1480714Y-10005143D02*
X1509286Y-10005143D01*
X1509286Y-10005143D02*
X1528333Y-10014667D01*
X1528333Y-10014667D02*
X1537857Y-10033714D01*
X1537857Y-10033714D02*
X1537857Y-10138476D01*
X1895952Y-9928952D02*
X1724524Y-10186095D01*
X2120714Y-9938476D02*
X2139762Y-9938476D01*
X2139762Y-9938476D02*
X2158810Y-9948000D01*
X2158810Y-9948000D02*
X2168333Y-9957524D01*
X2168333Y-9957524D02*
X2177857Y-9976571D01*
X2177857Y-9976571D02*
X2187381Y-10014667D01*
X2187381Y-10014667D02*
X2187381Y-10062286D01*
X2187381Y-10062286D02*
X2177857Y-10100381D01*
X2177857Y-10100381D02*
X2168333Y-10119429D01*
X2168333Y-10119429D02*
X2158810Y-10128952D01*
X2158810Y-10128952D02*
X2139762Y-10138476D01*
X2139762Y-10138476D02*
X2120714Y-10138476D01*
X2120714Y-10138476D02*
X2101667Y-10128952D01*
X2101667Y-10128952D02*
X2092143Y-10119429D01*
X2092143Y-10119429D02*
X2082619Y-10100381D01*
X2082619Y-10100381D02*
X2073095Y-10062286D01*
X2073095Y-10062286D02*
X2073095Y-10014667D01*
X2073095Y-10014667D02*
X2082619Y-9976571D01*
X2082619Y-9976571D02*
X2092143Y-9957524D01*
X2092143Y-9957524D02*
X2101667Y-9948000D01*
X2101667Y-9948000D02*
X2120714Y-9938476D01*
X2273095Y-10119429D02*
X2282619Y-10128952D01*
X2282619Y-10128952D02*
X2273095Y-10138476D01*
X2273095Y-10138476D02*
X2263572Y-10128952D01*
X2263572Y-10128952D02*
X2273095Y-10119429D01*
X2273095Y-10119429D02*
X2273095Y-10138476D01*
X2406429Y-9938476D02*
X2425476Y-9938476D01*
X2425476Y-9938476D02*
X2444524Y-9948000D01*
X2444524Y-9948000D02*
X2454048Y-9957524D01*
X2454048Y-9957524D02*
X2463572Y-9976571D01*
X2463572Y-9976571D02*
X2473095Y-10014667D01*
X2473095Y-10014667D02*
X2473095Y-10062286D01*
X2473095Y-10062286D02*
X2463572Y-10100381D01*
X2463572Y-10100381D02*
X2454048Y-10119429D01*
X2454048Y-10119429D02*
X2444524Y-10128952D01*
X2444524Y-10128952D02*
X2425476Y-10138476D01*
X2425476Y-10138476D02*
X2406429Y-10138476D01*
X2406429Y-10138476D02*
X2387381Y-10128952D01*
X2387381Y-10128952D02*
X2377857Y-10119429D01*
X2377857Y-10119429D02*
X2368333Y-10100381D01*
X2368333Y-10100381D02*
X2358810Y-10062286D01*
X2358810Y-10062286D02*
X2358810Y-10014667D01*
X2358810Y-10014667D02*
X2368333Y-9976571D01*
X2368333Y-9976571D02*
X2377857Y-9957524D01*
X2377857Y-9957524D02*
X2387381Y-9948000D01*
X2387381Y-9948000D02*
X2406429Y-9938476D01*
X2596905Y-9938476D02*
X2615953Y-9938476D01*
X2615953Y-9938476D02*
X2635000Y-9948000D01*
X2635000Y-9948000D02*
X2644524Y-9957524D01*
X2644524Y-9957524D02*
X2654048Y-9976571D01*
X2654048Y-9976571D02*
X2663572Y-10014667D01*
X2663572Y-10014667D02*
X2663572Y-10062286D01*
X2663572Y-10062286D02*
X2654048Y-10100381D01*
X2654048Y-10100381D02*
X2644524Y-10119429D01*
X2644524Y-10119429D02*
X2635000Y-10128952D01*
X2635000Y-10128952D02*
X2615953Y-10138476D01*
X2615953Y-10138476D02*
X2596905Y-10138476D01*
X2596905Y-10138476D02*
X2577857Y-10128952D01*
X2577857Y-10128952D02*
X2568333Y-10119429D01*
X2568333Y-10119429D02*
X2558810Y-10100381D01*
X2558810Y-10100381D02*
X2549286Y-10062286D01*
X2549286Y-10062286D02*
X2549286Y-10014667D01*
X2549286Y-10014667D02*
X2558810Y-9976571D01*
X2558810Y-9976571D02*
X2568333Y-9957524D01*
X2568333Y-9957524D02*
X2577857Y-9948000D01*
X2577857Y-9948000D02*
X2596905Y-9938476D01*
X2758810Y-10138476D02*
X2796905Y-10138476D01*
X2796905Y-10138476D02*
X2815952Y-10128952D01*
X2815952Y-10128952D02*
X2825476Y-10119429D01*
X2825476Y-10119429D02*
X2844524Y-10090857D01*
X2844524Y-10090857D02*
X2854048Y-10052762D01*
X2854048Y-10052762D02*
X2854048Y-9976571D01*
X2854048Y-9976571D02*
X2844524Y-9957524D01*
X2844524Y-9957524D02*
X2835000Y-9948000D01*
X2835000Y-9948000D02*
X2815952Y-9938476D01*
X2815952Y-9938476D02*
X2777857Y-9938476D01*
X2777857Y-9938476D02*
X2758810Y-9948000D01*
X2758810Y-9948000D02*
X2749286Y-9957524D01*
X2749286Y-9957524D02*
X2739762Y-9976571D01*
X2739762Y-9976571D02*
X2739762Y-10024190D01*
X2739762Y-10024190D02*
X2749286Y-10043238D01*
X2749286Y-10043238D02*
X2758810Y-10052762D01*
X2758810Y-10052762D02*
X2777857Y-10062286D01*
X2777857Y-10062286D02*
X2815952Y-10062286D01*
X2815952Y-10062286D02*
X2835000Y-10052762D01*
X2835000Y-10052762D02*
X2844524Y-10043238D01*
X2844524Y-10043238D02*
X2854048Y-10024190D01*
X2968333Y-10024190D02*
X2949286Y-10014667D01*
X2949286Y-10014667D02*
X2939762Y-10005143D01*
X2939762Y-10005143D02*
X2930238Y-9986095D01*
X2930238Y-9986095D02*
X2930238Y-9976571D01*
X2930238Y-9976571D02*
X2939762Y-9957524D01*
X2939762Y-9957524D02*
X2949286Y-9948000D01*
X2949286Y-9948000D02*
X2968333Y-9938476D01*
X2968333Y-9938476D02*
X3006429Y-9938476D01*
X3006429Y-9938476D02*
X3025476Y-9948000D01*
X3025476Y-9948000D02*
X3035000Y-9957524D01*
X3035000Y-9957524D02*
X3044524Y-9976571D01*
X3044524Y-9976571D02*
X3044524Y-9986095D01*
X3044524Y-9986095D02*
X3035000Y-10005143D01*
X3035000Y-10005143D02*
X3025476Y-10014667D01*
X3025476Y-10014667D02*
X3006429Y-10024190D01*
X3006429Y-10024190D02*
X2968333Y-10024190D01*
X2968333Y-10024190D02*
X2949286Y-10033714D01*
X2949286Y-10033714D02*
X2939762Y-10043238D01*
X2939762Y-10043238D02*
X2930238Y-10062286D01*
X2930238Y-10062286D02*
X2930238Y-10100381D01*
X2930238Y-10100381D02*
X2939762Y-10119429D01*
X2939762Y-10119429D02*
X2949286Y-10128952D01*
X2949286Y-10128952D02*
X2968333Y-10138476D01*
X2968333Y-10138476D02*
X3006429Y-10138476D01*
X3006429Y-10138476D02*
X3025476Y-10128952D01*
X3025476Y-10128952D02*
X3035000Y-10119429D01*
X3035000Y-10119429D02*
X3044524Y-10100381D01*
X3044524Y-10100381D02*
X3044524Y-10062286D01*
X3044524Y-10062286D02*
X3035000Y-10043238D01*
X3035000Y-10043238D02*
X3025476Y-10033714D01*
X3025476Y-10033714D02*
X3006429Y-10024190D01*
X3120714Y-9938476D02*
X3120714Y-9976571D01*
X3196905Y-9938476D02*
X3196905Y-9976571D01*
X3459762Y-10214667D02*
X3450238Y-10205143D01*
X3450238Y-10205143D02*
X3431191Y-10176571D01*
X3431191Y-10176571D02*
X3421667Y-10157524D01*
X3421667Y-10157524D02*
X3412143Y-10128952D01*
X3412143Y-10128952D02*
X3402619Y-10081333D01*
X3402619Y-10081333D02*
X3402619Y-10043238D01*
X3402619Y-10043238D02*
X3412143Y-9995619D01*
X3412143Y-9995619D02*
X3421667Y-9967048D01*
X3421667Y-9967048D02*
X3431191Y-9948000D01*
X3431191Y-9948000D02*
X3450238Y-9919429D01*
X3450238Y-9919429D02*
X3459762Y-9909905D01*
X3640714Y-10138476D02*
X3526429Y-10138476D01*
X3583571Y-10138476D02*
X3583571Y-9938476D01*
X3583571Y-9938476D02*
X3564524Y-9967048D01*
X3564524Y-9967048D02*
X3545476Y-9986095D01*
X3545476Y-9986095D02*
X3526429Y-9995619D01*
X3812143Y-10005143D02*
X3812143Y-10138476D01*
X3764524Y-9928952D02*
X3716905Y-10071810D01*
X3716905Y-10071810D02*
X3840714Y-10071810D01*
X3897857Y-9938476D02*
X4021667Y-9938476D01*
X4021667Y-9938476D02*
X3955000Y-10014667D01*
X3955000Y-10014667D02*
X3983572Y-10014667D01*
X3983572Y-10014667D02*
X4002619Y-10024190D01*
X4002619Y-10024190D02*
X4012143Y-10033714D01*
X4012143Y-10033714D02*
X4021667Y-10052762D01*
X4021667Y-10052762D02*
X4021667Y-10100381D01*
X4021667Y-10100381D02*
X4012143Y-10119429D01*
X4012143Y-10119429D02*
X4002619Y-10128952D01*
X4002619Y-10128952D02*
X3983572Y-10138476D01*
X3983572Y-10138476D02*
X3926429Y-10138476D01*
X3926429Y-10138476D02*
X3907381Y-10128952D01*
X3907381Y-10128952D02*
X3897857Y-10119429D01*
X4227381Y-10138476D02*
X4227381Y-9938476D01*
X4313095Y-10138476D02*
X4313095Y-10033714D01*
X4313095Y-10033714D02*
X4303572Y-10014667D01*
X4303572Y-10014667D02*
X4284524Y-10005143D01*
X4284524Y-10005143D02*
X4255953Y-10005143D01*
X4255953Y-10005143D02*
X4236905Y-10014667D01*
X4236905Y-10014667D02*
X4227381Y-10024190D01*
X4436905Y-10138476D02*
X4417857Y-10128952D01*
X4417857Y-10128952D02*
X4408334Y-10119429D01*
X4408334Y-10119429D02*
X4398810Y-10100381D01*
X4398810Y-10100381D02*
X4398810Y-10043238D01*
X4398810Y-10043238D02*
X4408334Y-10024190D01*
X4408334Y-10024190D02*
X4417857Y-10014667D01*
X4417857Y-10014667D02*
X4436905Y-10005143D01*
X4436905Y-10005143D02*
X4465476Y-10005143D01*
X4465476Y-10005143D02*
X4484524Y-10014667D01*
X4484524Y-10014667D02*
X4494048Y-10024190D01*
X4494048Y-10024190D02*
X4503572Y-10043238D01*
X4503572Y-10043238D02*
X4503572Y-10100381D01*
X4503572Y-10100381D02*
X4494048Y-10119429D01*
X4494048Y-10119429D02*
X4484524Y-10128952D01*
X4484524Y-10128952D02*
X4465476Y-10138476D01*
X4465476Y-10138476D02*
X4436905Y-10138476D01*
X4617857Y-10138476D02*
X4598810Y-10128952D01*
X4598810Y-10128952D02*
X4589286Y-10109905D01*
X4589286Y-10109905D02*
X4589286Y-9938476D01*
X4770238Y-10128952D02*
X4751191Y-10138476D01*
X4751191Y-10138476D02*
X4713095Y-10138476D01*
X4713095Y-10138476D02*
X4694048Y-10128952D01*
X4694048Y-10128952D02*
X4684524Y-10109905D01*
X4684524Y-10109905D02*
X4684524Y-10033714D01*
X4684524Y-10033714D02*
X4694048Y-10014667D01*
X4694048Y-10014667D02*
X4713095Y-10005143D01*
X4713095Y-10005143D02*
X4751191Y-10005143D01*
X4751191Y-10005143D02*
X4770238Y-10014667D01*
X4770238Y-10014667D02*
X4779762Y-10033714D01*
X4779762Y-10033714D02*
X4779762Y-10052762D01*
X4779762Y-10052762D02*
X4684524Y-10071810D01*
X4855953Y-10128952D02*
X4875000Y-10138476D01*
X4875000Y-10138476D02*
X4913095Y-10138476D01*
X4913095Y-10138476D02*
X4932143Y-10128952D01*
X4932143Y-10128952D02*
X4941667Y-10109905D01*
X4941667Y-10109905D02*
X4941667Y-10100381D01*
X4941667Y-10100381D02*
X4932143Y-10081333D01*
X4932143Y-10081333D02*
X4913095Y-10071810D01*
X4913095Y-10071810D02*
X4884524Y-10071810D01*
X4884524Y-10071810D02*
X4865476Y-10062286D01*
X4865476Y-10062286D02*
X4855953Y-10043238D01*
X4855953Y-10043238D02*
X4855953Y-10033714D01*
X4855953Y-10033714D02*
X4865476Y-10014667D01*
X4865476Y-10014667D02*
X4884524Y-10005143D01*
X4884524Y-10005143D02*
X4913095Y-10005143D01*
X4913095Y-10005143D02*
X4932143Y-10014667D01*
X5008334Y-10214667D02*
X5017857Y-10205143D01*
X5017857Y-10205143D02*
X5036905Y-10176571D01*
X5036905Y-10176571D02*
X5046429Y-10157524D01*
X5046429Y-10157524D02*
X5055953Y-10128952D01*
X5055953Y-10128952D02*
X5065476Y-10081333D01*
X5065476Y-10081333D02*
X5065476Y-10043238D01*
X5065476Y-10043238D02*
X5055953Y-9995619D01*
X5055953Y-9995619D02*
X5046429Y-9967048D01*
X5046429Y-9967048D02*
X5036905Y-9948000D01*
X5036905Y-9948000D02*
X5017857Y-9919429D01*
X5017857Y-9919429D02*
X5008334Y-9909905D01*
D13*
X-5000Y-10329000D02*
G75*
G03*
X-5000Y-10329000I-30000J0D01*
G01*
D11*
X280714Y-10202476D02*
X299762Y-10202476D01*
X299762Y-10202476D02*
X318810Y-10212000D01*
X318810Y-10212000D02*
X328333Y-10221524D01*
X328333Y-10221524D02*
X337857Y-10240571D01*
X337857Y-10240571D02*
X347381Y-10278667D01*
X347381Y-10278667D02*
X347381Y-10326286D01*
X347381Y-10326286D02*
X337857Y-10364381D01*
X337857Y-10364381D02*
X328333Y-10383429D01*
X328333Y-10383429D02*
X318810Y-10392952D01*
X318810Y-10392952D02*
X299762Y-10402476D01*
X299762Y-10402476D02*
X280714Y-10402476D01*
X280714Y-10402476D02*
X261667Y-10392952D01*
X261667Y-10392952D02*
X252143Y-10383429D01*
X252143Y-10383429D02*
X242619Y-10364381D01*
X242619Y-10364381D02*
X233095Y-10326286D01*
X233095Y-10326286D02*
X233095Y-10278667D01*
X233095Y-10278667D02*
X242619Y-10240571D01*
X242619Y-10240571D02*
X252143Y-10221524D01*
X252143Y-10221524D02*
X261667Y-10212000D01*
X261667Y-10212000D02*
X280714Y-10202476D01*
X433095Y-10383429D02*
X442619Y-10392952D01*
X442619Y-10392952D02*
X433095Y-10402476D01*
X433095Y-10402476D02*
X423571Y-10392952D01*
X423571Y-10392952D02*
X433095Y-10383429D01*
X433095Y-10383429D02*
X433095Y-10402476D01*
X614048Y-10202476D02*
X575952Y-10202476D01*
X575952Y-10202476D02*
X556905Y-10212000D01*
X556905Y-10212000D02*
X547381Y-10221524D01*
X547381Y-10221524D02*
X528333Y-10250095D01*
X528333Y-10250095D02*
X518809Y-10288190D01*
X518809Y-10288190D02*
X518809Y-10364381D01*
X518809Y-10364381D02*
X528333Y-10383429D01*
X528333Y-10383429D02*
X537857Y-10392952D01*
X537857Y-10392952D02*
X556905Y-10402476D01*
X556905Y-10402476D02*
X595000Y-10402476D01*
X595000Y-10402476D02*
X614048Y-10392952D01*
X614048Y-10392952D02*
X623571Y-10383429D01*
X623571Y-10383429D02*
X633095Y-10364381D01*
X633095Y-10364381D02*
X633095Y-10316762D01*
X633095Y-10316762D02*
X623571Y-10297714D01*
X623571Y-10297714D02*
X614048Y-10288190D01*
X614048Y-10288190D02*
X595000Y-10278667D01*
X595000Y-10278667D02*
X556905Y-10278667D01*
X556905Y-10278667D02*
X537857Y-10288190D01*
X537857Y-10288190D02*
X528333Y-10297714D01*
X528333Y-10297714D02*
X518809Y-10316762D01*
X756905Y-10202476D02*
X775952Y-10202476D01*
X775952Y-10202476D02*
X795000Y-10212000D01*
X795000Y-10212000D02*
X804524Y-10221524D01*
X804524Y-10221524D02*
X814048Y-10240571D01*
X814048Y-10240571D02*
X823571Y-10278667D01*
X823571Y-10278667D02*
X823571Y-10326286D01*
X823571Y-10326286D02*
X814048Y-10364381D01*
X814048Y-10364381D02*
X804524Y-10383429D01*
X804524Y-10383429D02*
X795000Y-10392952D01*
X795000Y-10392952D02*
X775952Y-10402476D01*
X775952Y-10402476D02*
X756905Y-10402476D01*
X756905Y-10402476D02*
X737857Y-10392952D01*
X737857Y-10392952D02*
X728333Y-10383429D01*
X728333Y-10383429D02*
X718809Y-10364381D01*
X718809Y-10364381D02*
X709286Y-10326286D01*
X709286Y-10326286D02*
X709286Y-10278667D01*
X709286Y-10278667D02*
X718809Y-10240571D01*
X718809Y-10240571D02*
X728333Y-10221524D01*
X728333Y-10221524D02*
X737857Y-10212000D01*
X737857Y-10212000D02*
X756905Y-10202476D01*
X947381Y-10202476D02*
X966429Y-10202476D01*
X966429Y-10202476D02*
X985476Y-10212000D01*
X985476Y-10212000D02*
X995000Y-10221524D01*
X995000Y-10221524D02*
X1004524Y-10240571D01*
X1004524Y-10240571D02*
X1014048Y-10278667D01*
X1014048Y-10278667D02*
X1014048Y-10326286D01*
X1014048Y-10326286D02*
X1004524Y-10364381D01*
X1004524Y-10364381D02*
X995000Y-10383429D01*
X995000Y-10383429D02*
X985476Y-10392952D01*
X985476Y-10392952D02*
X966429Y-10402476D01*
X966429Y-10402476D02*
X947381Y-10402476D01*
X947381Y-10402476D02*
X928333Y-10392952D01*
X928333Y-10392952D02*
X918809Y-10383429D01*
X918809Y-10383429D02*
X909286Y-10364381D01*
X909286Y-10364381D02*
X899762Y-10326286D01*
X899762Y-10326286D02*
X899762Y-10278667D01*
X899762Y-10278667D02*
X909286Y-10240571D01*
X909286Y-10240571D02*
X918809Y-10221524D01*
X918809Y-10221524D02*
X928333Y-10212000D01*
X928333Y-10212000D02*
X947381Y-10202476D01*
X1099762Y-10402476D02*
X1099762Y-10269143D01*
X1099762Y-10288190D02*
X1109286Y-10278667D01*
X1109286Y-10278667D02*
X1128333Y-10269143D01*
X1128333Y-10269143D02*
X1156905Y-10269143D01*
X1156905Y-10269143D02*
X1175952Y-10278667D01*
X1175952Y-10278667D02*
X1185476Y-10297714D01*
X1185476Y-10297714D02*
X1185476Y-10402476D01*
X1185476Y-10297714D02*
X1195000Y-10278667D01*
X1195000Y-10278667D02*
X1214048Y-10269143D01*
X1214048Y-10269143D02*
X1242619Y-10269143D01*
X1242619Y-10269143D02*
X1261667Y-10278667D01*
X1261667Y-10278667D02*
X1271191Y-10297714D01*
X1271191Y-10297714D02*
X1271191Y-10402476D01*
X1366429Y-10402476D02*
X1366429Y-10269143D01*
X1366429Y-10288190D02*
X1375952Y-10278667D01*
X1375952Y-10278667D02*
X1395000Y-10269143D01*
X1395000Y-10269143D02*
X1423571Y-10269143D01*
X1423571Y-10269143D02*
X1442619Y-10278667D01*
X1442619Y-10278667D02*
X1452143Y-10297714D01*
X1452143Y-10297714D02*
X1452143Y-10402476D01*
X1452143Y-10297714D02*
X1461667Y-10278667D01*
X1461667Y-10278667D02*
X1480714Y-10269143D01*
X1480714Y-10269143D02*
X1509286Y-10269143D01*
X1509286Y-10269143D02*
X1528333Y-10278667D01*
X1528333Y-10278667D02*
X1537857Y-10297714D01*
X1537857Y-10297714D02*
X1537857Y-10402476D01*
X1895952Y-10192952D02*
X1724524Y-10450095D01*
X2120714Y-10202476D02*
X2139762Y-10202476D01*
X2139762Y-10202476D02*
X2158810Y-10212000D01*
X2158810Y-10212000D02*
X2168333Y-10221524D01*
X2168333Y-10221524D02*
X2177857Y-10240571D01*
X2177857Y-10240571D02*
X2187381Y-10278667D01*
X2187381Y-10278667D02*
X2187381Y-10326286D01*
X2187381Y-10326286D02*
X2177857Y-10364381D01*
X2177857Y-10364381D02*
X2168333Y-10383429D01*
X2168333Y-10383429D02*
X2158810Y-10392952D01*
X2158810Y-10392952D02*
X2139762Y-10402476D01*
X2139762Y-10402476D02*
X2120714Y-10402476D01*
X2120714Y-10402476D02*
X2101667Y-10392952D01*
X2101667Y-10392952D02*
X2092143Y-10383429D01*
X2092143Y-10383429D02*
X2082619Y-10364381D01*
X2082619Y-10364381D02*
X2073095Y-10326286D01*
X2073095Y-10326286D02*
X2073095Y-10278667D01*
X2073095Y-10278667D02*
X2082619Y-10240571D01*
X2082619Y-10240571D02*
X2092143Y-10221524D01*
X2092143Y-10221524D02*
X2101667Y-10212000D01*
X2101667Y-10212000D02*
X2120714Y-10202476D01*
X2273095Y-10383429D02*
X2282619Y-10392952D01*
X2282619Y-10392952D02*
X2273095Y-10402476D01*
X2273095Y-10402476D02*
X2263572Y-10392952D01*
X2263572Y-10392952D02*
X2273095Y-10383429D01*
X2273095Y-10383429D02*
X2273095Y-10402476D01*
X2406429Y-10202476D02*
X2425476Y-10202476D01*
X2425476Y-10202476D02*
X2444524Y-10212000D01*
X2444524Y-10212000D02*
X2454048Y-10221524D01*
X2454048Y-10221524D02*
X2463572Y-10240571D01*
X2463572Y-10240571D02*
X2473095Y-10278667D01*
X2473095Y-10278667D02*
X2473095Y-10326286D01*
X2473095Y-10326286D02*
X2463572Y-10364381D01*
X2463572Y-10364381D02*
X2454048Y-10383429D01*
X2454048Y-10383429D02*
X2444524Y-10392952D01*
X2444524Y-10392952D02*
X2425476Y-10402476D01*
X2425476Y-10402476D02*
X2406429Y-10402476D01*
X2406429Y-10402476D02*
X2387381Y-10392952D01*
X2387381Y-10392952D02*
X2377857Y-10383429D01*
X2377857Y-10383429D02*
X2368333Y-10364381D01*
X2368333Y-10364381D02*
X2358810Y-10326286D01*
X2358810Y-10326286D02*
X2358810Y-10278667D01*
X2358810Y-10278667D02*
X2368333Y-10240571D01*
X2368333Y-10240571D02*
X2377857Y-10221524D01*
X2377857Y-10221524D02*
X2387381Y-10212000D01*
X2387381Y-10212000D02*
X2406429Y-10202476D01*
X2549286Y-10221524D02*
X2558810Y-10212000D01*
X2558810Y-10212000D02*
X2577857Y-10202476D01*
X2577857Y-10202476D02*
X2625476Y-10202476D01*
X2625476Y-10202476D02*
X2644524Y-10212000D01*
X2644524Y-10212000D02*
X2654048Y-10221524D01*
X2654048Y-10221524D02*
X2663572Y-10240571D01*
X2663572Y-10240571D02*
X2663572Y-10259619D01*
X2663572Y-10259619D02*
X2654048Y-10288190D01*
X2654048Y-10288190D02*
X2539762Y-10402476D01*
X2539762Y-10402476D02*
X2663572Y-10402476D01*
X2730238Y-10202476D02*
X2854048Y-10202476D01*
X2854048Y-10202476D02*
X2787381Y-10278667D01*
X2787381Y-10278667D02*
X2815952Y-10278667D01*
X2815952Y-10278667D02*
X2835000Y-10288190D01*
X2835000Y-10288190D02*
X2844524Y-10297714D01*
X2844524Y-10297714D02*
X2854048Y-10316762D01*
X2854048Y-10316762D02*
X2854048Y-10364381D01*
X2854048Y-10364381D02*
X2844524Y-10383429D01*
X2844524Y-10383429D02*
X2835000Y-10392952D01*
X2835000Y-10392952D02*
X2815952Y-10402476D01*
X2815952Y-10402476D02*
X2758810Y-10402476D01*
X2758810Y-10402476D02*
X2739762Y-10392952D01*
X2739762Y-10392952D02*
X2730238Y-10383429D01*
X3025476Y-10202476D02*
X2987381Y-10202476D01*
X2987381Y-10202476D02*
X2968333Y-10212000D01*
X2968333Y-10212000D02*
X2958810Y-10221524D01*
X2958810Y-10221524D02*
X2939762Y-10250095D01*
X2939762Y-10250095D02*
X2930238Y-10288190D01*
X2930238Y-10288190D02*
X2930238Y-10364381D01*
X2930238Y-10364381D02*
X2939762Y-10383429D01*
X2939762Y-10383429D02*
X2949286Y-10392952D01*
X2949286Y-10392952D02*
X2968333Y-10402476D01*
X2968333Y-10402476D02*
X3006429Y-10402476D01*
X3006429Y-10402476D02*
X3025476Y-10392952D01*
X3025476Y-10392952D02*
X3035000Y-10383429D01*
X3035000Y-10383429D02*
X3044524Y-10364381D01*
X3044524Y-10364381D02*
X3044524Y-10316762D01*
X3044524Y-10316762D02*
X3035000Y-10297714D01*
X3035000Y-10297714D02*
X3025476Y-10288190D01*
X3025476Y-10288190D02*
X3006429Y-10278667D01*
X3006429Y-10278667D02*
X2968333Y-10278667D01*
X2968333Y-10278667D02*
X2949286Y-10288190D01*
X2949286Y-10288190D02*
X2939762Y-10297714D01*
X2939762Y-10297714D02*
X2930238Y-10316762D01*
X3120714Y-10202476D02*
X3120714Y-10240571D01*
X3196905Y-10202476D02*
X3196905Y-10240571D01*
X3459762Y-10478667D02*
X3450238Y-10469143D01*
X3450238Y-10469143D02*
X3431191Y-10440571D01*
X3431191Y-10440571D02*
X3421667Y-10421524D01*
X3421667Y-10421524D02*
X3412143Y-10392952D01*
X3412143Y-10392952D02*
X3402619Y-10345333D01*
X3402619Y-10345333D02*
X3402619Y-10307238D01*
X3402619Y-10307238D02*
X3412143Y-10259619D01*
X3412143Y-10259619D02*
X3421667Y-10231048D01*
X3421667Y-10231048D02*
X3431191Y-10212000D01*
X3431191Y-10212000D02*
X3450238Y-10183429D01*
X3450238Y-10183429D02*
X3459762Y-10173905D01*
X3574048Y-10202476D02*
X3593095Y-10202476D01*
X3593095Y-10202476D02*
X3612143Y-10212000D01*
X3612143Y-10212000D02*
X3621667Y-10221524D01*
X3621667Y-10221524D02*
X3631191Y-10240571D01*
X3631191Y-10240571D02*
X3640714Y-10278667D01*
X3640714Y-10278667D02*
X3640714Y-10326286D01*
X3640714Y-10326286D02*
X3631191Y-10364381D01*
X3631191Y-10364381D02*
X3621667Y-10383429D01*
X3621667Y-10383429D02*
X3612143Y-10392952D01*
X3612143Y-10392952D02*
X3593095Y-10402476D01*
X3593095Y-10402476D02*
X3574048Y-10402476D01*
X3574048Y-10402476D02*
X3555000Y-10392952D01*
X3555000Y-10392952D02*
X3545476Y-10383429D01*
X3545476Y-10383429D02*
X3535952Y-10364381D01*
X3535952Y-10364381D02*
X3526429Y-10326286D01*
X3526429Y-10326286D02*
X3526429Y-10278667D01*
X3526429Y-10278667D02*
X3535952Y-10240571D01*
X3535952Y-10240571D02*
X3545476Y-10221524D01*
X3545476Y-10221524D02*
X3555000Y-10212000D01*
X3555000Y-10212000D02*
X3574048Y-10202476D01*
X3846429Y-10402476D02*
X3846429Y-10202476D01*
X3932143Y-10402476D02*
X3932143Y-10297714D01*
X3932143Y-10297714D02*
X3922619Y-10278667D01*
X3922619Y-10278667D02*
X3903572Y-10269143D01*
X3903572Y-10269143D02*
X3875000Y-10269143D01*
X3875000Y-10269143D02*
X3855952Y-10278667D01*
X3855952Y-10278667D02*
X3846429Y-10288190D01*
X4055952Y-10402476D02*
X4036905Y-10392952D01*
X4036905Y-10392952D02*
X4027381Y-10383429D01*
X4027381Y-10383429D02*
X4017857Y-10364381D01*
X4017857Y-10364381D02*
X4017857Y-10307238D01*
X4017857Y-10307238D02*
X4027381Y-10288190D01*
X4027381Y-10288190D02*
X4036905Y-10278667D01*
X4036905Y-10278667D02*
X4055952Y-10269143D01*
X4055952Y-10269143D02*
X4084524Y-10269143D01*
X4084524Y-10269143D02*
X4103572Y-10278667D01*
X4103572Y-10278667D02*
X4113095Y-10288190D01*
X4113095Y-10288190D02*
X4122619Y-10307238D01*
X4122619Y-10307238D02*
X4122619Y-10364381D01*
X4122619Y-10364381D02*
X4113095Y-10383429D01*
X4113095Y-10383429D02*
X4103572Y-10392952D01*
X4103572Y-10392952D02*
X4084524Y-10402476D01*
X4084524Y-10402476D02*
X4055952Y-10402476D01*
X4236905Y-10402476D02*
X4217857Y-10392952D01*
X4217857Y-10392952D02*
X4208334Y-10373905D01*
X4208334Y-10373905D02*
X4208334Y-10202476D01*
X4389286Y-10392952D02*
X4370238Y-10402476D01*
X4370238Y-10402476D02*
X4332143Y-10402476D01*
X4332143Y-10402476D02*
X4313095Y-10392952D01*
X4313095Y-10392952D02*
X4303572Y-10373905D01*
X4303572Y-10373905D02*
X4303572Y-10297714D01*
X4303572Y-10297714D02*
X4313095Y-10278667D01*
X4313095Y-10278667D02*
X4332143Y-10269143D01*
X4332143Y-10269143D02*
X4370238Y-10269143D01*
X4370238Y-10269143D02*
X4389286Y-10278667D01*
X4389286Y-10278667D02*
X4398810Y-10297714D01*
X4398810Y-10297714D02*
X4398810Y-10316762D01*
X4398810Y-10316762D02*
X4303572Y-10335810D01*
X4475000Y-10392952D02*
X4494048Y-10402476D01*
X4494048Y-10402476D02*
X4532143Y-10402476D01*
X4532143Y-10402476D02*
X4551191Y-10392952D01*
X4551191Y-10392952D02*
X4560715Y-10373905D01*
X4560715Y-10373905D02*
X4560715Y-10364381D01*
X4560715Y-10364381D02*
X4551191Y-10345333D01*
X4551191Y-10345333D02*
X4532143Y-10335810D01*
X4532143Y-10335810D02*
X4503572Y-10335810D01*
X4503572Y-10335810D02*
X4484524Y-10326286D01*
X4484524Y-10326286D02*
X4475000Y-10307238D01*
X4475000Y-10307238D02*
X4475000Y-10297714D01*
X4475000Y-10297714D02*
X4484524Y-10278667D01*
X4484524Y-10278667D02*
X4503572Y-10269143D01*
X4503572Y-10269143D02*
X4532143Y-10269143D01*
X4532143Y-10269143D02*
X4551191Y-10278667D01*
X4766429Y-10326286D02*
X4918810Y-10326286D01*
X4842619Y-10402476D02*
X4842619Y-10250095D01*
X5219762Y-10269143D02*
X5219762Y-10402476D01*
X5172143Y-10192952D02*
X5124524Y-10335810D01*
X5124524Y-10335810D02*
X5248334Y-10335810D01*
X5435000Y-10392952D02*
X5454048Y-10402476D01*
X5454048Y-10402476D02*
X5492143Y-10402476D01*
X5492143Y-10402476D02*
X5511191Y-10392952D01*
X5511191Y-10392952D02*
X5520715Y-10373905D01*
X5520715Y-10373905D02*
X5520715Y-10364381D01*
X5520715Y-10364381D02*
X5511191Y-10345333D01*
X5511191Y-10345333D02*
X5492143Y-10335810D01*
X5492143Y-10335810D02*
X5463572Y-10335810D01*
X5463572Y-10335810D02*
X5444524Y-10326286D01*
X5444524Y-10326286D02*
X5435000Y-10307238D01*
X5435000Y-10307238D02*
X5435000Y-10297714D01*
X5435000Y-10297714D02*
X5444524Y-10278667D01*
X5444524Y-10278667D02*
X5463572Y-10269143D01*
X5463572Y-10269143D02*
X5492143Y-10269143D01*
X5492143Y-10269143D02*
X5511191Y-10278667D01*
X5635000Y-10402476D02*
X5615953Y-10392952D01*
X5615953Y-10392952D02*
X5606429Y-10373905D01*
X5606429Y-10373905D02*
X5606429Y-10202476D01*
X5739762Y-10402476D02*
X5720714Y-10392952D01*
X5720714Y-10392952D02*
X5711191Y-10383429D01*
X5711191Y-10383429D02*
X5701667Y-10364381D01*
X5701667Y-10364381D02*
X5701667Y-10307238D01*
X5701667Y-10307238D02*
X5711191Y-10288190D01*
X5711191Y-10288190D02*
X5720714Y-10278667D01*
X5720714Y-10278667D02*
X5739762Y-10269143D01*
X5739762Y-10269143D02*
X5768334Y-10269143D01*
X5768334Y-10269143D02*
X5787381Y-10278667D01*
X5787381Y-10278667D02*
X5796905Y-10288190D01*
X5796905Y-10288190D02*
X5806429Y-10307238D01*
X5806429Y-10307238D02*
X5806429Y-10364381D01*
X5806429Y-10364381D02*
X5796905Y-10383429D01*
X5796905Y-10383429D02*
X5787381Y-10392952D01*
X5787381Y-10392952D02*
X5768334Y-10402476D01*
X5768334Y-10402476D02*
X5739762Y-10402476D01*
X5863572Y-10269143D02*
X5939762Y-10269143D01*
X5892143Y-10202476D02*
X5892143Y-10373905D01*
X5892143Y-10373905D02*
X5901667Y-10392952D01*
X5901667Y-10392952D02*
X5920714Y-10402476D01*
X5920714Y-10402476D02*
X5939762Y-10402476D01*
X5996905Y-10392952D02*
X6015953Y-10402476D01*
X6015953Y-10402476D02*
X6054048Y-10402476D01*
X6054048Y-10402476D02*
X6073095Y-10392952D01*
X6073095Y-10392952D02*
X6082619Y-10373905D01*
X6082619Y-10373905D02*
X6082619Y-10364381D01*
X6082619Y-10364381D02*
X6073095Y-10345333D01*
X6073095Y-10345333D02*
X6054048Y-10335810D01*
X6054048Y-10335810D02*
X6025476Y-10335810D01*
X6025476Y-10335810D02*
X6006429Y-10326286D01*
X6006429Y-10326286D02*
X5996905Y-10307238D01*
X5996905Y-10307238D02*
X5996905Y-10297714D01*
X5996905Y-10297714D02*
X6006429Y-10278667D01*
X6006429Y-10278667D02*
X6025476Y-10269143D01*
X6025476Y-10269143D02*
X6054048Y-10269143D01*
X6054048Y-10269143D02*
X6073095Y-10278667D01*
X6149286Y-10478667D02*
X6158810Y-10469143D01*
X6158810Y-10469143D02*
X6177857Y-10440571D01*
X6177857Y-10440571D02*
X6187381Y-10421524D01*
X6187381Y-10421524D02*
X6196905Y-10392952D01*
X6196905Y-10392952D02*
X6206429Y-10345333D01*
X6206429Y-10345333D02*
X6206429Y-10307238D01*
X6206429Y-10307238D02*
X6196905Y-10259619D01*
X6196905Y-10259619D02*
X6187381Y-10231048D01*
X6187381Y-10231048D02*
X6177857Y-10212000D01*
X6177857Y-10212000D02*
X6158810Y-10183429D01*
X6158810Y-10183429D02*
X6149286Y-10173905D01*
D14*
X-55000Y-10543000D02*
X-55000Y-10643000D01*
X-105000Y-10593000D02*
X-5000Y-10593000D01*
D11*
X347381Y-10666476D02*
X233095Y-10666476D01*
X290238Y-10666476D02*
X290238Y-10466476D01*
X290238Y-10466476D02*
X271190Y-10495048D01*
X271190Y-10495048D02*
X252143Y-10514095D01*
X252143Y-10514095D02*
X233095Y-10523619D01*
X433095Y-10647429D02*
X442619Y-10656952D01*
X442619Y-10656952D02*
X433095Y-10666476D01*
X433095Y-10666476D02*
X423571Y-10656952D01*
X423571Y-10656952D02*
X433095Y-10647429D01*
X433095Y-10647429D02*
X433095Y-10666476D01*
X566429Y-10466476D02*
X585476Y-10466476D01*
X585476Y-10466476D02*
X604524Y-10476000D01*
X604524Y-10476000D02*
X614048Y-10485524D01*
X614048Y-10485524D02*
X623571Y-10504571D01*
X623571Y-10504571D02*
X633095Y-10542667D01*
X633095Y-10542667D02*
X633095Y-10590286D01*
X633095Y-10590286D02*
X623571Y-10628381D01*
X623571Y-10628381D02*
X614048Y-10647429D01*
X614048Y-10647429D02*
X604524Y-10656952D01*
X604524Y-10656952D02*
X585476Y-10666476D01*
X585476Y-10666476D02*
X566429Y-10666476D01*
X566429Y-10666476D02*
X547381Y-10656952D01*
X547381Y-10656952D02*
X537857Y-10647429D01*
X537857Y-10647429D02*
X528333Y-10628381D01*
X528333Y-10628381D02*
X518809Y-10590286D01*
X518809Y-10590286D02*
X518809Y-10542667D01*
X518809Y-10542667D02*
X528333Y-10504571D01*
X528333Y-10504571D02*
X537857Y-10485524D01*
X537857Y-10485524D02*
X547381Y-10476000D01*
X547381Y-10476000D02*
X566429Y-10466476D01*
X756905Y-10466476D02*
X775952Y-10466476D01*
X775952Y-10466476D02*
X795000Y-10476000D01*
X795000Y-10476000D02*
X804524Y-10485524D01*
X804524Y-10485524D02*
X814048Y-10504571D01*
X814048Y-10504571D02*
X823571Y-10542667D01*
X823571Y-10542667D02*
X823571Y-10590286D01*
X823571Y-10590286D02*
X814048Y-10628381D01*
X814048Y-10628381D02*
X804524Y-10647429D01*
X804524Y-10647429D02*
X795000Y-10656952D01*
X795000Y-10656952D02*
X775952Y-10666476D01*
X775952Y-10666476D02*
X756905Y-10666476D01*
X756905Y-10666476D02*
X737857Y-10656952D01*
X737857Y-10656952D02*
X728333Y-10647429D01*
X728333Y-10647429D02*
X718809Y-10628381D01*
X718809Y-10628381D02*
X709286Y-10590286D01*
X709286Y-10590286D02*
X709286Y-10542667D01*
X709286Y-10542667D02*
X718809Y-10504571D01*
X718809Y-10504571D02*
X728333Y-10485524D01*
X728333Y-10485524D02*
X737857Y-10476000D01*
X737857Y-10476000D02*
X756905Y-10466476D01*
X947381Y-10466476D02*
X966429Y-10466476D01*
X966429Y-10466476D02*
X985476Y-10476000D01*
X985476Y-10476000D02*
X995000Y-10485524D01*
X995000Y-10485524D02*
X1004524Y-10504571D01*
X1004524Y-10504571D02*
X1014048Y-10542667D01*
X1014048Y-10542667D02*
X1014048Y-10590286D01*
X1014048Y-10590286D02*
X1004524Y-10628381D01*
X1004524Y-10628381D02*
X995000Y-10647429D01*
X995000Y-10647429D02*
X985476Y-10656952D01*
X985476Y-10656952D02*
X966429Y-10666476D01*
X966429Y-10666476D02*
X947381Y-10666476D01*
X947381Y-10666476D02*
X928333Y-10656952D01*
X928333Y-10656952D02*
X918809Y-10647429D01*
X918809Y-10647429D02*
X909286Y-10628381D01*
X909286Y-10628381D02*
X899762Y-10590286D01*
X899762Y-10590286D02*
X899762Y-10542667D01*
X899762Y-10542667D02*
X909286Y-10504571D01*
X909286Y-10504571D02*
X918809Y-10485524D01*
X918809Y-10485524D02*
X928333Y-10476000D01*
X928333Y-10476000D02*
X947381Y-10466476D01*
X1099762Y-10666476D02*
X1099762Y-10533143D01*
X1099762Y-10552190D02*
X1109286Y-10542667D01*
X1109286Y-10542667D02*
X1128333Y-10533143D01*
X1128333Y-10533143D02*
X1156905Y-10533143D01*
X1156905Y-10533143D02*
X1175952Y-10542667D01*
X1175952Y-10542667D02*
X1185476Y-10561714D01*
X1185476Y-10561714D02*
X1185476Y-10666476D01*
X1185476Y-10561714D02*
X1195000Y-10542667D01*
X1195000Y-10542667D02*
X1214048Y-10533143D01*
X1214048Y-10533143D02*
X1242619Y-10533143D01*
X1242619Y-10533143D02*
X1261667Y-10542667D01*
X1261667Y-10542667D02*
X1271191Y-10561714D01*
X1271191Y-10561714D02*
X1271191Y-10666476D01*
X1366429Y-10666476D02*
X1366429Y-10533143D01*
X1366429Y-10552190D02*
X1375952Y-10542667D01*
X1375952Y-10542667D02*
X1395000Y-10533143D01*
X1395000Y-10533143D02*
X1423571Y-10533143D01*
X1423571Y-10533143D02*
X1442619Y-10542667D01*
X1442619Y-10542667D02*
X1452143Y-10561714D01*
X1452143Y-10561714D02*
X1452143Y-10666476D01*
X1452143Y-10561714D02*
X1461667Y-10542667D01*
X1461667Y-10542667D02*
X1480714Y-10533143D01*
X1480714Y-10533143D02*
X1509286Y-10533143D01*
X1509286Y-10533143D02*
X1528333Y-10542667D01*
X1528333Y-10542667D02*
X1537857Y-10561714D01*
X1537857Y-10561714D02*
X1537857Y-10666476D01*
X1895952Y-10456952D02*
X1724524Y-10714095D01*
X2120714Y-10466476D02*
X2139762Y-10466476D01*
X2139762Y-10466476D02*
X2158810Y-10476000D01*
X2158810Y-10476000D02*
X2168333Y-10485524D01*
X2168333Y-10485524D02*
X2177857Y-10504571D01*
X2177857Y-10504571D02*
X2187381Y-10542667D01*
X2187381Y-10542667D02*
X2187381Y-10590286D01*
X2187381Y-10590286D02*
X2177857Y-10628381D01*
X2177857Y-10628381D02*
X2168333Y-10647429D01*
X2168333Y-10647429D02*
X2158810Y-10656952D01*
X2158810Y-10656952D02*
X2139762Y-10666476D01*
X2139762Y-10666476D02*
X2120714Y-10666476D01*
X2120714Y-10666476D02*
X2101667Y-10656952D01*
X2101667Y-10656952D02*
X2092143Y-10647429D01*
X2092143Y-10647429D02*
X2082619Y-10628381D01*
X2082619Y-10628381D02*
X2073095Y-10590286D01*
X2073095Y-10590286D02*
X2073095Y-10542667D01*
X2073095Y-10542667D02*
X2082619Y-10504571D01*
X2082619Y-10504571D02*
X2092143Y-10485524D01*
X2092143Y-10485524D02*
X2101667Y-10476000D01*
X2101667Y-10476000D02*
X2120714Y-10466476D01*
X2273095Y-10647429D02*
X2282619Y-10656952D01*
X2282619Y-10656952D02*
X2273095Y-10666476D01*
X2273095Y-10666476D02*
X2263572Y-10656952D01*
X2263572Y-10656952D02*
X2273095Y-10647429D01*
X2273095Y-10647429D02*
X2273095Y-10666476D01*
X2406429Y-10466476D02*
X2425476Y-10466476D01*
X2425476Y-10466476D02*
X2444524Y-10476000D01*
X2444524Y-10476000D02*
X2454048Y-10485524D01*
X2454048Y-10485524D02*
X2463572Y-10504571D01*
X2463572Y-10504571D02*
X2473095Y-10542667D01*
X2473095Y-10542667D02*
X2473095Y-10590286D01*
X2473095Y-10590286D02*
X2463572Y-10628381D01*
X2463572Y-10628381D02*
X2454048Y-10647429D01*
X2454048Y-10647429D02*
X2444524Y-10656952D01*
X2444524Y-10656952D02*
X2425476Y-10666476D01*
X2425476Y-10666476D02*
X2406429Y-10666476D01*
X2406429Y-10666476D02*
X2387381Y-10656952D01*
X2387381Y-10656952D02*
X2377857Y-10647429D01*
X2377857Y-10647429D02*
X2368333Y-10628381D01*
X2368333Y-10628381D02*
X2358810Y-10590286D01*
X2358810Y-10590286D02*
X2358810Y-10542667D01*
X2358810Y-10542667D02*
X2368333Y-10504571D01*
X2368333Y-10504571D02*
X2377857Y-10485524D01*
X2377857Y-10485524D02*
X2387381Y-10476000D01*
X2387381Y-10476000D02*
X2406429Y-10466476D01*
X2539762Y-10466476D02*
X2663572Y-10466476D01*
X2663572Y-10466476D02*
X2596905Y-10542667D01*
X2596905Y-10542667D02*
X2625476Y-10542667D01*
X2625476Y-10542667D02*
X2644524Y-10552190D01*
X2644524Y-10552190D02*
X2654048Y-10561714D01*
X2654048Y-10561714D02*
X2663572Y-10580762D01*
X2663572Y-10580762D02*
X2663572Y-10628381D01*
X2663572Y-10628381D02*
X2654048Y-10647429D01*
X2654048Y-10647429D02*
X2644524Y-10656952D01*
X2644524Y-10656952D02*
X2625476Y-10666476D01*
X2625476Y-10666476D02*
X2568333Y-10666476D01*
X2568333Y-10666476D02*
X2549286Y-10656952D01*
X2549286Y-10656952D02*
X2539762Y-10647429D01*
X2758810Y-10666476D02*
X2796905Y-10666476D01*
X2796905Y-10666476D02*
X2815952Y-10656952D01*
X2815952Y-10656952D02*
X2825476Y-10647429D01*
X2825476Y-10647429D02*
X2844524Y-10618857D01*
X2844524Y-10618857D02*
X2854048Y-10580762D01*
X2854048Y-10580762D02*
X2854048Y-10504571D01*
X2854048Y-10504571D02*
X2844524Y-10485524D01*
X2844524Y-10485524D02*
X2835000Y-10476000D01*
X2835000Y-10476000D02*
X2815952Y-10466476D01*
X2815952Y-10466476D02*
X2777857Y-10466476D01*
X2777857Y-10466476D02*
X2758810Y-10476000D01*
X2758810Y-10476000D02*
X2749286Y-10485524D01*
X2749286Y-10485524D02*
X2739762Y-10504571D01*
X2739762Y-10504571D02*
X2739762Y-10552190D01*
X2739762Y-10552190D02*
X2749286Y-10571238D01*
X2749286Y-10571238D02*
X2758810Y-10580762D01*
X2758810Y-10580762D02*
X2777857Y-10590286D01*
X2777857Y-10590286D02*
X2815952Y-10590286D01*
X2815952Y-10590286D02*
X2835000Y-10580762D01*
X2835000Y-10580762D02*
X2844524Y-10571238D01*
X2844524Y-10571238D02*
X2854048Y-10552190D01*
X3025476Y-10533143D02*
X3025476Y-10666476D01*
X2977857Y-10456952D02*
X2930238Y-10599810D01*
X2930238Y-10599810D02*
X3054048Y-10599810D01*
X3120714Y-10466476D02*
X3120714Y-10504571D01*
X3196905Y-10466476D02*
X3196905Y-10504571D01*
X3459762Y-10742667D02*
X3450238Y-10733143D01*
X3450238Y-10733143D02*
X3431191Y-10704571D01*
X3431191Y-10704571D02*
X3421667Y-10685524D01*
X3421667Y-10685524D02*
X3412143Y-10656952D01*
X3412143Y-10656952D02*
X3402619Y-10609333D01*
X3402619Y-10609333D02*
X3402619Y-10571238D01*
X3402619Y-10571238D02*
X3412143Y-10523619D01*
X3412143Y-10523619D02*
X3421667Y-10495048D01*
X3421667Y-10495048D02*
X3431191Y-10476000D01*
X3431191Y-10476000D02*
X3450238Y-10447429D01*
X3450238Y-10447429D02*
X3459762Y-10437905D01*
X3640714Y-10666476D02*
X3526429Y-10666476D01*
X3583571Y-10666476D02*
X3583571Y-10466476D01*
X3583571Y-10466476D02*
X3564524Y-10495048D01*
X3564524Y-10495048D02*
X3545476Y-10514095D01*
X3545476Y-10514095D02*
X3526429Y-10523619D01*
X3735952Y-10666476D02*
X3774048Y-10666476D01*
X3774048Y-10666476D02*
X3793095Y-10656952D01*
X3793095Y-10656952D02*
X3802619Y-10647429D01*
X3802619Y-10647429D02*
X3821667Y-10618857D01*
X3821667Y-10618857D02*
X3831191Y-10580762D01*
X3831191Y-10580762D02*
X3831191Y-10504571D01*
X3831191Y-10504571D02*
X3821667Y-10485524D01*
X3821667Y-10485524D02*
X3812143Y-10476000D01*
X3812143Y-10476000D02*
X3793095Y-10466476D01*
X3793095Y-10466476D02*
X3755000Y-10466476D01*
X3755000Y-10466476D02*
X3735952Y-10476000D01*
X3735952Y-10476000D02*
X3726429Y-10485524D01*
X3726429Y-10485524D02*
X3716905Y-10504571D01*
X3716905Y-10504571D02*
X3716905Y-10552190D01*
X3716905Y-10552190D02*
X3726429Y-10571238D01*
X3726429Y-10571238D02*
X3735952Y-10580762D01*
X3735952Y-10580762D02*
X3755000Y-10590286D01*
X3755000Y-10590286D02*
X3793095Y-10590286D01*
X3793095Y-10590286D02*
X3812143Y-10580762D01*
X3812143Y-10580762D02*
X3821667Y-10571238D01*
X3821667Y-10571238D02*
X3831191Y-10552190D01*
X4036905Y-10666476D02*
X4036905Y-10466476D01*
X4122619Y-10666476D02*
X4122619Y-10561714D01*
X4122619Y-10561714D02*
X4113095Y-10542667D01*
X4113095Y-10542667D02*
X4094048Y-10533143D01*
X4094048Y-10533143D02*
X4065476Y-10533143D01*
X4065476Y-10533143D02*
X4046429Y-10542667D01*
X4046429Y-10542667D02*
X4036905Y-10552190D01*
X4246429Y-10666476D02*
X4227381Y-10656952D01*
X4227381Y-10656952D02*
X4217857Y-10647429D01*
X4217857Y-10647429D02*
X4208334Y-10628381D01*
X4208334Y-10628381D02*
X4208334Y-10571238D01*
X4208334Y-10571238D02*
X4217857Y-10552190D01*
X4217857Y-10552190D02*
X4227381Y-10542667D01*
X4227381Y-10542667D02*
X4246429Y-10533143D01*
X4246429Y-10533143D02*
X4275000Y-10533143D01*
X4275000Y-10533143D02*
X4294048Y-10542667D01*
X4294048Y-10542667D02*
X4303572Y-10552190D01*
X4303572Y-10552190D02*
X4313095Y-10571238D01*
X4313095Y-10571238D02*
X4313095Y-10628381D01*
X4313095Y-10628381D02*
X4303572Y-10647429D01*
X4303572Y-10647429D02*
X4294048Y-10656952D01*
X4294048Y-10656952D02*
X4275000Y-10666476D01*
X4275000Y-10666476D02*
X4246429Y-10666476D01*
X4427381Y-10666476D02*
X4408334Y-10656952D01*
X4408334Y-10656952D02*
X4398810Y-10637905D01*
X4398810Y-10637905D02*
X4398810Y-10466476D01*
X4579762Y-10656952D02*
X4560715Y-10666476D01*
X4560715Y-10666476D02*
X4522619Y-10666476D01*
X4522619Y-10666476D02*
X4503572Y-10656952D01*
X4503572Y-10656952D02*
X4494048Y-10637905D01*
X4494048Y-10637905D02*
X4494048Y-10561714D01*
X4494048Y-10561714D02*
X4503572Y-10542667D01*
X4503572Y-10542667D02*
X4522619Y-10533143D01*
X4522619Y-10533143D02*
X4560715Y-10533143D01*
X4560715Y-10533143D02*
X4579762Y-10542667D01*
X4579762Y-10542667D02*
X4589286Y-10561714D01*
X4589286Y-10561714D02*
X4589286Y-10580762D01*
X4589286Y-10580762D02*
X4494048Y-10599810D01*
X4665476Y-10656952D02*
X4684524Y-10666476D01*
X4684524Y-10666476D02*
X4722619Y-10666476D01*
X4722619Y-10666476D02*
X4741667Y-10656952D01*
X4741667Y-10656952D02*
X4751191Y-10637905D01*
X4751191Y-10637905D02*
X4751191Y-10628381D01*
X4751191Y-10628381D02*
X4741667Y-10609333D01*
X4741667Y-10609333D02*
X4722619Y-10599810D01*
X4722619Y-10599810D02*
X4694048Y-10599810D01*
X4694048Y-10599810D02*
X4675000Y-10590286D01*
X4675000Y-10590286D02*
X4665476Y-10571238D01*
X4665476Y-10571238D02*
X4665476Y-10561714D01*
X4665476Y-10561714D02*
X4675000Y-10542667D01*
X4675000Y-10542667D02*
X4694048Y-10533143D01*
X4694048Y-10533143D02*
X4722619Y-10533143D01*
X4722619Y-10533143D02*
X4741667Y-10542667D01*
X4817857Y-10742667D02*
X4827381Y-10733143D01*
X4827381Y-10733143D02*
X4846429Y-10704571D01*
X4846429Y-10704571D02*
X4855953Y-10685524D01*
X4855953Y-10685524D02*
X4865476Y-10656952D01*
X4865476Y-10656952D02*
X4875000Y-10609333D01*
X4875000Y-10609333D02*
X4875000Y-10571238D01*
X4875000Y-10571238D02*
X4865476Y-10523619D01*
X4865476Y-10523619D02*
X4855953Y-10495048D01*
X4855953Y-10495048D02*
X4846429Y-10476000D01*
X4846429Y-10476000D02*
X4827381Y-10447429D01*
X4827381Y-10447429D02*
X4817857Y-10437905D01*
D15*
X-14519Y-10879981D02*
X-14519Y-10834019D01*
X-60481Y-10834019D01*
X-60481Y-10879981D01*
X-14519Y-10879981D01*
D11*
X280714Y-10730476D02*
X299762Y-10730476D01*
X299762Y-10730476D02*
X318810Y-10740000D01*
X318810Y-10740000D02*
X328333Y-10749524D01*
X328333Y-10749524D02*
X337857Y-10768571D01*
X337857Y-10768571D02*
X347381Y-10806667D01*
X347381Y-10806667D02*
X347381Y-10854286D01*
X347381Y-10854286D02*
X337857Y-10892381D01*
X337857Y-10892381D02*
X328333Y-10911429D01*
X328333Y-10911429D02*
X318810Y-10920952D01*
X318810Y-10920952D02*
X299762Y-10930476D01*
X299762Y-10930476D02*
X280714Y-10930476D01*
X280714Y-10930476D02*
X261667Y-10920952D01*
X261667Y-10920952D02*
X252143Y-10911429D01*
X252143Y-10911429D02*
X242619Y-10892381D01*
X242619Y-10892381D02*
X233095Y-10854286D01*
X233095Y-10854286D02*
X233095Y-10806667D01*
X233095Y-10806667D02*
X242619Y-10768571D01*
X242619Y-10768571D02*
X252143Y-10749524D01*
X252143Y-10749524D02*
X261667Y-10740000D01*
X261667Y-10740000D02*
X280714Y-10730476D01*
X433095Y-10911429D02*
X442619Y-10920952D01*
X442619Y-10920952D02*
X433095Y-10930476D01*
X433095Y-10930476D02*
X423571Y-10920952D01*
X423571Y-10920952D02*
X433095Y-10911429D01*
X433095Y-10911429D02*
X433095Y-10930476D01*
X614048Y-10730476D02*
X575952Y-10730476D01*
X575952Y-10730476D02*
X556905Y-10740000D01*
X556905Y-10740000D02*
X547381Y-10749524D01*
X547381Y-10749524D02*
X528333Y-10778095D01*
X528333Y-10778095D02*
X518809Y-10816190D01*
X518809Y-10816190D02*
X518809Y-10892381D01*
X518809Y-10892381D02*
X528333Y-10911429D01*
X528333Y-10911429D02*
X537857Y-10920952D01*
X537857Y-10920952D02*
X556905Y-10930476D01*
X556905Y-10930476D02*
X595000Y-10930476D01*
X595000Y-10930476D02*
X614048Y-10920952D01*
X614048Y-10920952D02*
X623571Y-10911429D01*
X623571Y-10911429D02*
X633095Y-10892381D01*
X633095Y-10892381D02*
X633095Y-10844762D01*
X633095Y-10844762D02*
X623571Y-10825714D01*
X623571Y-10825714D02*
X614048Y-10816190D01*
X614048Y-10816190D02*
X595000Y-10806667D01*
X595000Y-10806667D02*
X556905Y-10806667D01*
X556905Y-10806667D02*
X537857Y-10816190D01*
X537857Y-10816190D02*
X528333Y-10825714D01*
X528333Y-10825714D02*
X518809Y-10844762D01*
X814048Y-10730476D02*
X718809Y-10730476D01*
X718809Y-10730476D02*
X709286Y-10825714D01*
X709286Y-10825714D02*
X718809Y-10816190D01*
X718809Y-10816190D02*
X737857Y-10806667D01*
X737857Y-10806667D02*
X785476Y-10806667D01*
X785476Y-10806667D02*
X804524Y-10816190D01*
X804524Y-10816190D02*
X814048Y-10825714D01*
X814048Y-10825714D02*
X823571Y-10844762D01*
X823571Y-10844762D02*
X823571Y-10892381D01*
X823571Y-10892381D02*
X814048Y-10911429D01*
X814048Y-10911429D02*
X804524Y-10920952D01*
X804524Y-10920952D02*
X785476Y-10930476D01*
X785476Y-10930476D02*
X737857Y-10930476D01*
X737857Y-10930476D02*
X718809Y-10920952D01*
X718809Y-10920952D02*
X709286Y-10911429D01*
X947381Y-10730476D02*
X966429Y-10730476D01*
X966429Y-10730476D02*
X985476Y-10740000D01*
X985476Y-10740000D02*
X995000Y-10749524D01*
X995000Y-10749524D02*
X1004524Y-10768571D01*
X1004524Y-10768571D02*
X1014048Y-10806667D01*
X1014048Y-10806667D02*
X1014048Y-10854286D01*
X1014048Y-10854286D02*
X1004524Y-10892381D01*
X1004524Y-10892381D02*
X995000Y-10911429D01*
X995000Y-10911429D02*
X985476Y-10920952D01*
X985476Y-10920952D02*
X966429Y-10930476D01*
X966429Y-10930476D02*
X947381Y-10930476D01*
X947381Y-10930476D02*
X928333Y-10920952D01*
X928333Y-10920952D02*
X918809Y-10911429D01*
X918809Y-10911429D02*
X909286Y-10892381D01*
X909286Y-10892381D02*
X899762Y-10854286D01*
X899762Y-10854286D02*
X899762Y-10806667D01*
X899762Y-10806667D02*
X909286Y-10768571D01*
X909286Y-10768571D02*
X918809Y-10749524D01*
X918809Y-10749524D02*
X928333Y-10740000D01*
X928333Y-10740000D02*
X947381Y-10730476D01*
X1099762Y-10930476D02*
X1099762Y-10797143D01*
X1099762Y-10816190D02*
X1109286Y-10806667D01*
X1109286Y-10806667D02*
X1128333Y-10797143D01*
X1128333Y-10797143D02*
X1156905Y-10797143D01*
X1156905Y-10797143D02*
X1175952Y-10806667D01*
X1175952Y-10806667D02*
X1185476Y-10825714D01*
X1185476Y-10825714D02*
X1185476Y-10930476D01*
X1185476Y-10825714D02*
X1195000Y-10806667D01*
X1195000Y-10806667D02*
X1214048Y-10797143D01*
X1214048Y-10797143D02*
X1242619Y-10797143D01*
X1242619Y-10797143D02*
X1261667Y-10806667D01*
X1261667Y-10806667D02*
X1271191Y-10825714D01*
X1271191Y-10825714D02*
X1271191Y-10930476D01*
X1366429Y-10930476D02*
X1366429Y-10797143D01*
X1366429Y-10816190D02*
X1375952Y-10806667D01*
X1375952Y-10806667D02*
X1395000Y-10797143D01*
X1395000Y-10797143D02*
X1423571Y-10797143D01*
X1423571Y-10797143D02*
X1442619Y-10806667D01*
X1442619Y-10806667D02*
X1452143Y-10825714D01*
X1452143Y-10825714D02*
X1452143Y-10930476D01*
X1452143Y-10825714D02*
X1461667Y-10806667D01*
X1461667Y-10806667D02*
X1480714Y-10797143D01*
X1480714Y-10797143D02*
X1509286Y-10797143D01*
X1509286Y-10797143D02*
X1528333Y-10806667D01*
X1528333Y-10806667D02*
X1537857Y-10825714D01*
X1537857Y-10825714D02*
X1537857Y-10930476D01*
X1895952Y-10720952D02*
X1724524Y-10978095D01*
X2120714Y-10730476D02*
X2139762Y-10730476D01*
X2139762Y-10730476D02*
X2158810Y-10740000D01*
X2158810Y-10740000D02*
X2168333Y-10749524D01*
X2168333Y-10749524D02*
X2177857Y-10768571D01*
X2177857Y-10768571D02*
X2187381Y-10806667D01*
X2187381Y-10806667D02*
X2187381Y-10854286D01*
X2187381Y-10854286D02*
X2177857Y-10892381D01*
X2177857Y-10892381D02*
X2168333Y-10911429D01*
X2168333Y-10911429D02*
X2158810Y-10920952D01*
X2158810Y-10920952D02*
X2139762Y-10930476D01*
X2139762Y-10930476D02*
X2120714Y-10930476D01*
X2120714Y-10930476D02*
X2101667Y-10920952D01*
X2101667Y-10920952D02*
X2092143Y-10911429D01*
X2092143Y-10911429D02*
X2082619Y-10892381D01*
X2082619Y-10892381D02*
X2073095Y-10854286D01*
X2073095Y-10854286D02*
X2073095Y-10806667D01*
X2073095Y-10806667D02*
X2082619Y-10768571D01*
X2082619Y-10768571D02*
X2092143Y-10749524D01*
X2092143Y-10749524D02*
X2101667Y-10740000D01*
X2101667Y-10740000D02*
X2120714Y-10730476D01*
X2273095Y-10911429D02*
X2282619Y-10920952D01*
X2282619Y-10920952D02*
X2273095Y-10930476D01*
X2273095Y-10930476D02*
X2263572Y-10920952D01*
X2263572Y-10920952D02*
X2273095Y-10911429D01*
X2273095Y-10911429D02*
X2273095Y-10930476D01*
X2406429Y-10730476D02*
X2425476Y-10730476D01*
X2425476Y-10730476D02*
X2444524Y-10740000D01*
X2444524Y-10740000D02*
X2454048Y-10749524D01*
X2454048Y-10749524D02*
X2463572Y-10768571D01*
X2463572Y-10768571D02*
X2473095Y-10806667D01*
X2473095Y-10806667D02*
X2473095Y-10854286D01*
X2473095Y-10854286D02*
X2463572Y-10892381D01*
X2463572Y-10892381D02*
X2454048Y-10911429D01*
X2454048Y-10911429D02*
X2444524Y-10920952D01*
X2444524Y-10920952D02*
X2425476Y-10930476D01*
X2425476Y-10930476D02*
X2406429Y-10930476D01*
X2406429Y-10930476D02*
X2387381Y-10920952D01*
X2387381Y-10920952D02*
X2377857Y-10911429D01*
X2377857Y-10911429D02*
X2368333Y-10892381D01*
X2368333Y-10892381D02*
X2358810Y-10854286D01*
X2358810Y-10854286D02*
X2358810Y-10806667D01*
X2358810Y-10806667D02*
X2368333Y-10768571D01*
X2368333Y-10768571D02*
X2377857Y-10749524D01*
X2377857Y-10749524D02*
X2387381Y-10740000D01*
X2387381Y-10740000D02*
X2406429Y-10730476D01*
X2549286Y-10749524D02*
X2558810Y-10740000D01*
X2558810Y-10740000D02*
X2577857Y-10730476D01*
X2577857Y-10730476D02*
X2625476Y-10730476D01*
X2625476Y-10730476D02*
X2644524Y-10740000D01*
X2644524Y-10740000D02*
X2654048Y-10749524D01*
X2654048Y-10749524D02*
X2663572Y-10768571D01*
X2663572Y-10768571D02*
X2663572Y-10787619D01*
X2663572Y-10787619D02*
X2654048Y-10816190D01*
X2654048Y-10816190D02*
X2539762Y-10930476D01*
X2539762Y-10930476D02*
X2663572Y-10930476D01*
X2844524Y-10730476D02*
X2749286Y-10730476D01*
X2749286Y-10730476D02*
X2739762Y-10825714D01*
X2739762Y-10825714D02*
X2749286Y-10816190D01*
X2749286Y-10816190D02*
X2768333Y-10806667D01*
X2768333Y-10806667D02*
X2815952Y-10806667D01*
X2815952Y-10806667D02*
X2835000Y-10816190D01*
X2835000Y-10816190D02*
X2844524Y-10825714D01*
X2844524Y-10825714D02*
X2854048Y-10844762D01*
X2854048Y-10844762D02*
X2854048Y-10892381D01*
X2854048Y-10892381D02*
X2844524Y-10911429D01*
X2844524Y-10911429D02*
X2835000Y-10920952D01*
X2835000Y-10920952D02*
X2815952Y-10930476D01*
X2815952Y-10930476D02*
X2768333Y-10930476D01*
X2768333Y-10930476D02*
X2749286Y-10920952D01*
X2749286Y-10920952D02*
X2739762Y-10911429D01*
X3025476Y-10730476D02*
X2987381Y-10730476D01*
X2987381Y-10730476D02*
X2968333Y-10740000D01*
X2968333Y-10740000D02*
X2958810Y-10749524D01*
X2958810Y-10749524D02*
X2939762Y-10778095D01*
X2939762Y-10778095D02*
X2930238Y-10816190D01*
X2930238Y-10816190D02*
X2930238Y-10892381D01*
X2930238Y-10892381D02*
X2939762Y-10911429D01*
X2939762Y-10911429D02*
X2949286Y-10920952D01*
X2949286Y-10920952D02*
X2968333Y-10930476D01*
X2968333Y-10930476D02*
X3006429Y-10930476D01*
X3006429Y-10930476D02*
X3025476Y-10920952D01*
X3025476Y-10920952D02*
X3035000Y-10911429D01*
X3035000Y-10911429D02*
X3044524Y-10892381D01*
X3044524Y-10892381D02*
X3044524Y-10844762D01*
X3044524Y-10844762D02*
X3035000Y-10825714D01*
X3035000Y-10825714D02*
X3025476Y-10816190D01*
X3025476Y-10816190D02*
X3006429Y-10806667D01*
X3006429Y-10806667D02*
X2968333Y-10806667D01*
X2968333Y-10806667D02*
X2949286Y-10816190D01*
X2949286Y-10816190D02*
X2939762Y-10825714D01*
X2939762Y-10825714D02*
X2930238Y-10844762D01*
X3120714Y-10730476D02*
X3120714Y-10768571D01*
X3196905Y-10730476D02*
X3196905Y-10768571D01*
X3459762Y-11006667D02*
X3450238Y-10997143D01*
X3450238Y-10997143D02*
X3431191Y-10968571D01*
X3431191Y-10968571D02*
X3421667Y-10949524D01*
X3421667Y-10949524D02*
X3412143Y-10920952D01*
X3412143Y-10920952D02*
X3402619Y-10873333D01*
X3402619Y-10873333D02*
X3402619Y-10835238D01*
X3402619Y-10835238D02*
X3412143Y-10787619D01*
X3412143Y-10787619D02*
X3421667Y-10759048D01*
X3421667Y-10759048D02*
X3431191Y-10740000D01*
X3431191Y-10740000D02*
X3450238Y-10711429D01*
X3450238Y-10711429D02*
X3459762Y-10701905D01*
X3526429Y-10749524D02*
X3535952Y-10740000D01*
X3535952Y-10740000D02*
X3555000Y-10730476D01*
X3555000Y-10730476D02*
X3602619Y-10730476D01*
X3602619Y-10730476D02*
X3621667Y-10740000D01*
X3621667Y-10740000D02*
X3631191Y-10749524D01*
X3631191Y-10749524D02*
X3640714Y-10768571D01*
X3640714Y-10768571D02*
X3640714Y-10787619D01*
X3640714Y-10787619D02*
X3631191Y-10816190D01*
X3631191Y-10816190D02*
X3516905Y-10930476D01*
X3516905Y-10930476D02*
X3640714Y-10930476D01*
X3846429Y-10930476D02*
X3846429Y-10730476D01*
X3932143Y-10930476D02*
X3932143Y-10825714D01*
X3932143Y-10825714D02*
X3922619Y-10806667D01*
X3922619Y-10806667D02*
X3903572Y-10797143D01*
X3903572Y-10797143D02*
X3875000Y-10797143D01*
X3875000Y-10797143D02*
X3855952Y-10806667D01*
X3855952Y-10806667D02*
X3846429Y-10816190D01*
X4055952Y-10930476D02*
X4036905Y-10920952D01*
X4036905Y-10920952D02*
X4027381Y-10911429D01*
X4027381Y-10911429D02*
X4017857Y-10892381D01*
X4017857Y-10892381D02*
X4017857Y-10835238D01*
X4017857Y-10835238D02*
X4027381Y-10816190D01*
X4027381Y-10816190D02*
X4036905Y-10806667D01*
X4036905Y-10806667D02*
X4055952Y-10797143D01*
X4055952Y-10797143D02*
X4084524Y-10797143D01*
X4084524Y-10797143D02*
X4103572Y-10806667D01*
X4103572Y-10806667D02*
X4113095Y-10816190D01*
X4113095Y-10816190D02*
X4122619Y-10835238D01*
X4122619Y-10835238D02*
X4122619Y-10892381D01*
X4122619Y-10892381D02*
X4113095Y-10911429D01*
X4113095Y-10911429D02*
X4103572Y-10920952D01*
X4103572Y-10920952D02*
X4084524Y-10930476D01*
X4084524Y-10930476D02*
X4055952Y-10930476D01*
X4236905Y-10930476D02*
X4217857Y-10920952D01*
X4217857Y-10920952D02*
X4208334Y-10901905D01*
X4208334Y-10901905D02*
X4208334Y-10730476D01*
X4389286Y-10920952D02*
X4370238Y-10930476D01*
X4370238Y-10930476D02*
X4332143Y-10930476D01*
X4332143Y-10930476D02*
X4313095Y-10920952D01*
X4313095Y-10920952D02*
X4303572Y-10901905D01*
X4303572Y-10901905D02*
X4303572Y-10825714D01*
X4303572Y-10825714D02*
X4313095Y-10806667D01*
X4313095Y-10806667D02*
X4332143Y-10797143D01*
X4332143Y-10797143D02*
X4370238Y-10797143D01*
X4370238Y-10797143D02*
X4389286Y-10806667D01*
X4389286Y-10806667D02*
X4398810Y-10825714D01*
X4398810Y-10825714D02*
X4398810Y-10844762D01*
X4398810Y-10844762D02*
X4303572Y-10863810D01*
X4475000Y-10920952D02*
X4494048Y-10930476D01*
X4494048Y-10930476D02*
X4532143Y-10930476D01*
X4532143Y-10930476D02*
X4551191Y-10920952D01*
X4551191Y-10920952D02*
X4560715Y-10901905D01*
X4560715Y-10901905D02*
X4560715Y-10892381D01*
X4560715Y-10892381D02*
X4551191Y-10873333D01*
X4551191Y-10873333D02*
X4532143Y-10863810D01*
X4532143Y-10863810D02*
X4503572Y-10863810D01*
X4503572Y-10863810D02*
X4484524Y-10854286D01*
X4484524Y-10854286D02*
X4475000Y-10835238D01*
X4475000Y-10835238D02*
X4475000Y-10825714D01*
X4475000Y-10825714D02*
X4484524Y-10806667D01*
X4484524Y-10806667D02*
X4503572Y-10797143D01*
X4503572Y-10797143D02*
X4532143Y-10797143D01*
X4532143Y-10797143D02*
X4551191Y-10806667D01*
X4627381Y-11006667D02*
X4636905Y-10997143D01*
X4636905Y-10997143D02*
X4655953Y-10968571D01*
X4655953Y-10968571D02*
X4665476Y-10949524D01*
X4665476Y-10949524D02*
X4675000Y-10920952D01*
X4675000Y-10920952D02*
X4684524Y-10873333D01*
X4684524Y-10873333D02*
X4684524Y-10835238D01*
X4684524Y-10835238D02*
X4675000Y-10787619D01*
X4675000Y-10787619D02*
X4665476Y-10759048D01*
X4665476Y-10759048D02*
X4655953Y-10740000D01*
X4655953Y-10740000D02*
X4636905Y-10711429D01*
X4636905Y-10711429D02*
X4627381Y-10701905D01*
X4956905Y-11006667D02*
X4947381Y-10997143D01*
X4947381Y-10997143D02*
X4928334Y-10968571D01*
X4928334Y-10968571D02*
X4918810Y-10949524D01*
X4918810Y-10949524D02*
X4909286Y-10920952D01*
X4909286Y-10920952D02*
X4899762Y-10873333D01*
X4899762Y-10873333D02*
X4899762Y-10835238D01*
X4899762Y-10835238D02*
X4909286Y-10787619D01*
X4909286Y-10787619D02*
X4918810Y-10759048D01*
X4918810Y-10759048D02*
X4928334Y-10740000D01*
X4928334Y-10740000D02*
X4947381Y-10711429D01*
X4947381Y-10711429D02*
X4956905Y-10701905D01*
X5033095Y-10797143D02*
X5033095Y-10930476D01*
X5033095Y-10816190D02*
X5042619Y-10806667D01*
X5042619Y-10806667D02*
X5061667Y-10797143D01*
X5061667Y-10797143D02*
X5090238Y-10797143D01*
X5090238Y-10797143D02*
X5109286Y-10806667D01*
X5109286Y-10806667D02*
X5118810Y-10825714D01*
X5118810Y-10825714D02*
X5118810Y-10930476D01*
X5242619Y-10930476D02*
X5223572Y-10920952D01*
X5223572Y-10920952D02*
X5214048Y-10911429D01*
X5214048Y-10911429D02*
X5204524Y-10892381D01*
X5204524Y-10892381D02*
X5204524Y-10835238D01*
X5204524Y-10835238D02*
X5214048Y-10816190D01*
X5214048Y-10816190D02*
X5223572Y-10806667D01*
X5223572Y-10806667D02*
X5242619Y-10797143D01*
X5242619Y-10797143D02*
X5271191Y-10797143D01*
X5271191Y-10797143D02*
X5290238Y-10806667D01*
X5290238Y-10806667D02*
X5299762Y-10816190D01*
X5299762Y-10816190D02*
X5309286Y-10835238D01*
X5309286Y-10835238D02*
X5309286Y-10892381D01*
X5309286Y-10892381D02*
X5299762Y-10911429D01*
X5299762Y-10911429D02*
X5290238Y-10920952D01*
X5290238Y-10920952D02*
X5271191Y-10930476D01*
X5271191Y-10930476D02*
X5242619Y-10930476D01*
X5366429Y-10797143D02*
X5442619Y-10797143D01*
X5395000Y-10730476D02*
X5395000Y-10901905D01*
X5395000Y-10901905D02*
X5404524Y-10920952D01*
X5404524Y-10920952D02*
X5423572Y-10930476D01*
X5423572Y-10930476D02*
X5442619Y-10930476D01*
X5629286Y-10797143D02*
X5629286Y-10997143D01*
X5629286Y-10806667D02*
X5648333Y-10797143D01*
X5648333Y-10797143D02*
X5686429Y-10797143D01*
X5686429Y-10797143D02*
X5705476Y-10806667D01*
X5705476Y-10806667D02*
X5715000Y-10816190D01*
X5715000Y-10816190D02*
X5724524Y-10835238D01*
X5724524Y-10835238D02*
X5724524Y-10892381D01*
X5724524Y-10892381D02*
X5715000Y-10911429D01*
X5715000Y-10911429D02*
X5705476Y-10920952D01*
X5705476Y-10920952D02*
X5686429Y-10930476D01*
X5686429Y-10930476D02*
X5648333Y-10930476D01*
X5648333Y-10930476D02*
X5629286Y-10920952D01*
X5838810Y-10930476D02*
X5819762Y-10920952D01*
X5819762Y-10920952D02*
X5810238Y-10901905D01*
X5810238Y-10901905D02*
X5810238Y-10730476D01*
X6000714Y-10930476D02*
X6000714Y-10825714D01*
X6000714Y-10825714D02*
X5991191Y-10806667D01*
X5991191Y-10806667D02*
X5972143Y-10797143D01*
X5972143Y-10797143D02*
X5934048Y-10797143D01*
X5934048Y-10797143D02*
X5915000Y-10806667D01*
X6000714Y-10920952D02*
X5981667Y-10930476D01*
X5981667Y-10930476D02*
X5934048Y-10930476D01*
X5934048Y-10930476D02*
X5915000Y-10920952D01*
X5915000Y-10920952D02*
X5905476Y-10901905D01*
X5905476Y-10901905D02*
X5905476Y-10882857D01*
X5905476Y-10882857D02*
X5915000Y-10863810D01*
X5915000Y-10863810D02*
X5934048Y-10854286D01*
X5934048Y-10854286D02*
X5981667Y-10854286D01*
X5981667Y-10854286D02*
X6000714Y-10844762D01*
X6067381Y-10797143D02*
X6143572Y-10797143D01*
X6095953Y-10730476D02*
X6095953Y-10901905D01*
X6095953Y-10901905D02*
X6105476Y-10920952D01*
X6105476Y-10920952D02*
X6124524Y-10930476D01*
X6124524Y-10930476D02*
X6143572Y-10930476D01*
X6286429Y-10920952D02*
X6267381Y-10930476D01*
X6267381Y-10930476D02*
X6229286Y-10930476D01*
X6229286Y-10930476D02*
X6210238Y-10920952D01*
X6210238Y-10920952D02*
X6200714Y-10901905D01*
X6200714Y-10901905D02*
X6200714Y-10825714D01*
X6200714Y-10825714D02*
X6210238Y-10806667D01*
X6210238Y-10806667D02*
X6229286Y-10797143D01*
X6229286Y-10797143D02*
X6267381Y-10797143D01*
X6267381Y-10797143D02*
X6286429Y-10806667D01*
X6286429Y-10806667D02*
X6295953Y-10825714D01*
X6295953Y-10825714D02*
X6295953Y-10844762D01*
X6295953Y-10844762D02*
X6200714Y-10863810D01*
X6467381Y-10930476D02*
X6467381Y-10730476D01*
X6467381Y-10920952D02*
X6448334Y-10930476D01*
X6448334Y-10930476D02*
X6410238Y-10930476D01*
X6410238Y-10930476D02*
X6391191Y-10920952D01*
X6391191Y-10920952D02*
X6381667Y-10911429D01*
X6381667Y-10911429D02*
X6372143Y-10892381D01*
X6372143Y-10892381D02*
X6372143Y-10835238D01*
X6372143Y-10835238D02*
X6381667Y-10816190D01*
X6381667Y-10816190D02*
X6391191Y-10806667D01*
X6391191Y-10806667D02*
X6410238Y-10797143D01*
X6410238Y-10797143D02*
X6448334Y-10797143D01*
X6448334Y-10797143D02*
X6467381Y-10806667D01*
X6543572Y-11006667D02*
X6553095Y-10997143D01*
X6553095Y-10997143D02*
X6572143Y-10968571D01*
X6572143Y-10968571D02*
X6581667Y-10949524D01*
X6581667Y-10949524D02*
X6591191Y-10920952D01*
X6591191Y-10920952D02*
X6600714Y-10873333D01*
X6600714Y-10873333D02*
X6600714Y-10835238D01*
X6600714Y-10835238D02*
X6591191Y-10787619D01*
X6591191Y-10787619D02*
X6581667Y-10759048D01*
X6581667Y-10759048D02*
X6572143Y-10740000D01*
X6572143Y-10740000D02*
X6553095Y-10711429D01*
X6553095Y-10711429D02*
X6543572Y-10701905D01*
D16*
X-80000Y-11196000D02*
X-5000Y-11121000D01*
X-80000Y-11046000D01*
X-155000Y-11121000D01*
X-80000Y-11196000D01*
D11*
X347381Y-11194476D02*
X233095Y-11194476D01*
X290238Y-11194476D02*
X290238Y-10994476D01*
X290238Y-10994476D02*
X271190Y-11023048D01*
X271190Y-11023048D02*
X252143Y-11042095D01*
X252143Y-11042095D02*
X233095Y-11051619D01*
X433095Y-11175429D02*
X442619Y-11184952D01*
X442619Y-11184952D02*
X433095Y-11194476D01*
X433095Y-11194476D02*
X423571Y-11184952D01*
X423571Y-11184952D02*
X433095Y-11175429D01*
X433095Y-11175429D02*
X433095Y-11194476D01*
X623571Y-10994476D02*
X528333Y-10994476D01*
X528333Y-10994476D02*
X518809Y-11089714D01*
X518809Y-11089714D02*
X528333Y-11080190D01*
X528333Y-11080190D02*
X547381Y-11070667D01*
X547381Y-11070667D02*
X595000Y-11070667D01*
X595000Y-11070667D02*
X614048Y-11080190D01*
X614048Y-11080190D02*
X623571Y-11089714D01*
X623571Y-11089714D02*
X633095Y-11108762D01*
X633095Y-11108762D02*
X633095Y-11156381D01*
X633095Y-11156381D02*
X623571Y-11175429D01*
X623571Y-11175429D02*
X614048Y-11184952D01*
X614048Y-11184952D02*
X595000Y-11194476D01*
X595000Y-11194476D02*
X547381Y-11194476D01*
X547381Y-11194476D02*
X528333Y-11184952D01*
X528333Y-11184952D02*
X518809Y-11175429D01*
X756905Y-10994476D02*
X775952Y-10994476D01*
X775952Y-10994476D02*
X795000Y-11004000D01*
X795000Y-11004000D02*
X804524Y-11013524D01*
X804524Y-11013524D02*
X814048Y-11032571D01*
X814048Y-11032571D02*
X823571Y-11070667D01*
X823571Y-11070667D02*
X823571Y-11118286D01*
X823571Y-11118286D02*
X814048Y-11156381D01*
X814048Y-11156381D02*
X804524Y-11175429D01*
X804524Y-11175429D02*
X795000Y-11184952D01*
X795000Y-11184952D02*
X775952Y-11194476D01*
X775952Y-11194476D02*
X756905Y-11194476D01*
X756905Y-11194476D02*
X737857Y-11184952D01*
X737857Y-11184952D02*
X728333Y-11175429D01*
X728333Y-11175429D02*
X718809Y-11156381D01*
X718809Y-11156381D02*
X709286Y-11118286D01*
X709286Y-11118286D02*
X709286Y-11070667D01*
X709286Y-11070667D02*
X718809Y-11032571D01*
X718809Y-11032571D02*
X728333Y-11013524D01*
X728333Y-11013524D02*
X737857Y-11004000D01*
X737857Y-11004000D02*
X756905Y-10994476D01*
X947381Y-10994476D02*
X966429Y-10994476D01*
X966429Y-10994476D02*
X985476Y-11004000D01*
X985476Y-11004000D02*
X995000Y-11013524D01*
X995000Y-11013524D02*
X1004524Y-11032571D01*
X1004524Y-11032571D02*
X1014048Y-11070667D01*
X1014048Y-11070667D02*
X1014048Y-11118286D01*
X1014048Y-11118286D02*
X1004524Y-11156381D01*
X1004524Y-11156381D02*
X995000Y-11175429D01*
X995000Y-11175429D02*
X985476Y-11184952D01*
X985476Y-11184952D02*
X966429Y-11194476D01*
X966429Y-11194476D02*
X947381Y-11194476D01*
X947381Y-11194476D02*
X928333Y-11184952D01*
X928333Y-11184952D02*
X918809Y-11175429D01*
X918809Y-11175429D02*
X909286Y-11156381D01*
X909286Y-11156381D02*
X899762Y-11118286D01*
X899762Y-11118286D02*
X899762Y-11070667D01*
X899762Y-11070667D02*
X909286Y-11032571D01*
X909286Y-11032571D02*
X918809Y-11013524D01*
X918809Y-11013524D02*
X928333Y-11004000D01*
X928333Y-11004000D02*
X947381Y-10994476D01*
X1099762Y-11194476D02*
X1099762Y-11061143D01*
X1099762Y-11080190D02*
X1109286Y-11070667D01*
X1109286Y-11070667D02*
X1128333Y-11061143D01*
X1128333Y-11061143D02*
X1156905Y-11061143D01*
X1156905Y-11061143D02*
X1175952Y-11070667D01*
X1175952Y-11070667D02*
X1185476Y-11089714D01*
X1185476Y-11089714D02*
X1185476Y-11194476D01*
X1185476Y-11089714D02*
X1195000Y-11070667D01*
X1195000Y-11070667D02*
X1214048Y-11061143D01*
X1214048Y-11061143D02*
X1242619Y-11061143D01*
X1242619Y-11061143D02*
X1261667Y-11070667D01*
X1261667Y-11070667D02*
X1271191Y-11089714D01*
X1271191Y-11089714D02*
X1271191Y-11194476D01*
X1366429Y-11194476D02*
X1366429Y-11061143D01*
X1366429Y-11080190D02*
X1375952Y-11070667D01*
X1375952Y-11070667D02*
X1395000Y-11061143D01*
X1395000Y-11061143D02*
X1423571Y-11061143D01*
X1423571Y-11061143D02*
X1442619Y-11070667D01*
X1442619Y-11070667D02*
X1452143Y-11089714D01*
X1452143Y-11089714D02*
X1452143Y-11194476D01*
X1452143Y-11089714D02*
X1461667Y-11070667D01*
X1461667Y-11070667D02*
X1480714Y-11061143D01*
X1480714Y-11061143D02*
X1509286Y-11061143D01*
X1509286Y-11061143D02*
X1528333Y-11070667D01*
X1528333Y-11070667D02*
X1537857Y-11089714D01*
X1537857Y-11089714D02*
X1537857Y-11194476D01*
X1895952Y-10984952D02*
X1724524Y-11242095D01*
X2120714Y-10994476D02*
X2139762Y-10994476D01*
X2139762Y-10994476D02*
X2158810Y-11004000D01*
X2158810Y-11004000D02*
X2168333Y-11013524D01*
X2168333Y-11013524D02*
X2177857Y-11032571D01*
X2177857Y-11032571D02*
X2187381Y-11070667D01*
X2187381Y-11070667D02*
X2187381Y-11118286D01*
X2187381Y-11118286D02*
X2177857Y-11156381D01*
X2177857Y-11156381D02*
X2168333Y-11175429D01*
X2168333Y-11175429D02*
X2158810Y-11184952D01*
X2158810Y-11184952D02*
X2139762Y-11194476D01*
X2139762Y-11194476D02*
X2120714Y-11194476D01*
X2120714Y-11194476D02*
X2101667Y-11184952D01*
X2101667Y-11184952D02*
X2092143Y-11175429D01*
X2092143Y-11175429D02*
X2082619Y-11156381D01*
X2082619Y-11156381D02*
X2073095Y-11118286D01*
X2073095Y-11118286D02*
X2073095Y-11070667D01*
X2073095Y-11070667D02*
X2082619Y-11032571D01*
X2082619Y-11032571D02*
X2092143Y-11013524D01*
X2092143Y-11013524D02*
X2101667Y-11004000D01*
X2101667Y-11004000D02*
X2120714Y-10994476D01*
X2273095Y-11175429D02*
X2282619Y-11184952D01*
X2282619Y-11184952D02*
X2273095Y-11194476D01*
X2273095Y-11194476D02*
X2263572Y-11184952D01*
X2263572Y-11184952D02*
X2273095Y-11175429D01*
X2273095Y-11175429D02*
X2273095Y-11194476D01*
X2406429Y-10994476D02*
X2425476Y-10994476D01*
X2425476Y-10994476D02*
X2444524Y-11004000D01*
X2444524Y-11004000D02*
X2454048Y-11013524D01*
X2454048Y-11013524D02*
X2463572Y-11032571D01*
X2463572Y-11032571D02*
X2473095Y-11070667D01*
X2473095Y-11070667D02*
X2473095Y-11118286D01*
X2473095Y-11118286D02*
X2463572Y-11156381D01*
X2463572Y-11156381D02*
X2454048Y-11175429D01*
X2454048Y-11175429D02*
X2444524Y-11184952D01*
X2444524Y-11184952D02*
X2425476Y-11194476D01*
X2425476Y-11194476D02*
X2406429Y-11194476D01*
X2406429Y-11194476D02*
X2387381Y-11184952D01*
X2387381Y-11184952D02*
X2377857Y-11175429D01*
X2377857Y-11175429D02*
X2368333Y-11156381D01*
X2368333Y-11156381D02*
X2358810Y-11118286D01*
X2358810Y-11118286D02*
X2358810Y-11070667D01*
X2358810Y-11070667D02*
X2368333Y-11032571D01*
X2368333Y-11032571D02*
X2377857Y-11013524D01*
X2377857Y-11013524D02*
X2387381Y-11004000D01*
X2387381Y-11004000D02*
X2406429Y-10994476D01*
X2654048Y-10994476D02*
X2558810Y-10994476D01*
X2558810Y-10994476D02*
X2549286Y-11089714D01*
X2549286Y-11089714D02*
X2558810Y-11080190D01*
X2558810Y-11080190D02*
X2577857Y-11070667D01*
X2577857Y-11070667D02*
X2625476Y-11070667D01*
X2625476Y-11070667D02*
X2644524Y-11080190D01*
X2644524Y-11080190D02*
X2654048Y-11089714D01*
X2654048Y-11089714D02*
X2663572Y-11108762D01*
X2663572Y-11108762D02*
X2663572Y-11156381D01*
X2663572Y-11156381D02*
X2654048Y-11175429D01*
X2654048Y-11175429D02*
X2644524Y-11184952D01*
X2644524Y-11184952D02*
X2625476Y-11194476D01*
X2625476Y-11194476D02*
X2577857Y-11194476D01*
X2577857Y-11194476D02*
X2558810Y-11184952D01*
X2558810Y-11184952D02*
X2549286Y-11175429D01*
X2758810Y-11194476D02*
X2796905Y-11194476D01*
X2796905Y-11194476D02*
X2815952Y-11184952D01*
X2815952Y-11184952D02*
X2825476Y-11175429D01*
X2825476Y-11175429D02*
X2844524Y-11146857D01*
X2844524Y-11146857D02*
X2854048Y-11108762D01*
X2854048Y-11108762D02*
X2854048Y-11032571D01*
X2854048Y-11032571D02*
X2844524Y-11013524D01*
X2844524Y-11013524D02*
X2835000Y-11004000D01*
X2835000Y-11004000D02*
X2815952Y-10994476D01*
X2815952Y-10994476D02*
X2777857Y-10994476D01*
X2777857Y-10994476D02*
X2758810Y-11004000D01*
X2758810Y-11004000D02*
X2749286Y-11013524D01*
X2749286Y-11013524D02*
X2739762Y-11032571D01*
X2739762Y-11032571D02*
X2739762Y-11080190D01*
X2739762Y-11080190D02*
X2749286Y-11099238D01*
X2749286Y-11099238D02*
X2758810Y-11108762D01*
X2758810Y-11108762D02*
X2777857Y-11118286D01*
X2777857Y-11118286D02*
X2815952Y-11118286D01*
X2815952Y-11118286D02*
X2835000Y-11108762D01*
X2835000Y-11108762D02*
X2844524Y-11099238D01*
X2844524Y-11099238D02*
X2854048Y-11080190D01*
X3044524Y-11194476D02*
X2930238Y-11194476D01*
X2987381Y-11194476D02*
X2987381Y-10994476D01*
X2987381Y-10994476D02*
X2968333Y-11023048D01*
X2968333Y-11023048D02*
X2949286Y-11042095D01*
X2949286Y-11042095D02*
X2930238Y-11051619D01*
X3120714Y-10994476D02*
X3120714Y-11032571D01*
X3196905Y-10994476D02*
X3196905Y-11032571D01*
X3459762Y-11270667D02*
X3450238Y-11261143D01*
X3450238Y-11261143D02*
X3431191Y-11232571D01*
X3431191Y-11232571D02*
X3421667Y-11213524D01*
X3421667Y-11213524D02*
X3412143Y-11184952D01*
X3412143Y-11184952D02*
X3402619Y-11137333D01*
X3402619Y-11137333D02*
X3402619Y-11099238D01*
X3402619Y-11099238D02*
X3412143Y-11051619D01*
X3412143Y-11051619D02*
X3421667Y-11023048D01*
X3421667Y-11023048D02*
X3431191Y-11004000D01*
X3431191Y-11004000D02*
X3450238Y-10975429D01*
X3450238Y-10975429D02*
X3459762Y-10965905D01*
X3574048Y-10994476D02*
X3593095Y-10994476D01*
X3593095Y-10994476D02*
X3612143Y-11004000D01*
X3612143Y-11004000D02*
X3621667Y-11013524D01*
X3621667Y-11013524D02*
X3631191Y-11032571D01*
X3631191Y-11032571D02*
X3640714Y-11070667D01*
X3640714Y-11070667D02*
X3640714Y-11118286D01*
X3640714Y-11118286D02*
X3631191Y-11156381D01*
X3631191Y-11156381D02*
X3621667Y-11175429D01*
X3621667Y-11175429D02*
X3612143Y-11184952D01*
X3612143Y-11184952D02*
X3593095Y-11194476D01*
X3593095Y-11194476D02*
X3574048Y-11194476D01*
X3574048Y-11194476D02*
X3555000Y-11184952D01*
X3555000Y-11184952D02*
X3545476Y-11175429D01*
X3545476Y-11175429D02*
X3535952Y-11156381D01*
X3535952Y-11156381D02*
X3526429Y-11118286D01*
X3526429Y-11118286D02*
X3526429Y-11070667D01*
X3526429Y-11070667D02*
X3535952Y-11032571D01*
X3535952Y-11032571D02*
X3545476Y-11013524D01*
X3545476Y-11013524D02*
X3555000Y-11004000D01*
X3555000Y-11004000D02*
X3574048Y-10994476D01*
X3846429Y-11194476D02*
X3846429Y-10994476D01*
X3932143Y-11194476D02*
X3932143Y-11089714D01*
X3932143Y-11089714D02*
X3922619Y-11070667D01*
X3922619Y-11070667D02*
X3903572Y-11061143D01*
X3903572Y-11061143D02*
X3875000Y-11061143D01*
X3875000Y-11061143D02*
X3855952Y-11070667D01*
X3855952Y-11070667D02*
X3846429Y-11080190D01*
X4055952Y-11194476D02*
X4036905Y-11184952D01*
X4036905Y-11184952D02*
X4027381Y-11175429D01*
X4027381Y-11175429D02*
X4017857Y-11156381D01*
X4017857Y-11156381D02*
X4017857Y-11099238D01*
X4017857Y-11099238D02*
X4027381Y-11080190D01*
X4027381Y-11080190D02*
X4036905Y-11070667D01*
X4036905Y-11070667D02*
X4055952Y-11061143D01*
X4055952Y-11061143D02*
X4084524Y-11061143D01*
X4084524Y-11061143D02*
X4103572Y-11070667D01*
X4103572Y-11070667D02*
X4113095Y-11080190D01*
X4113095Y-11080190D02*
X4122619Y-11099238D01*
X4122619Y-11099238D02*
X4122619Y-11156381D01*
X4122619Y-11156381D02*
X4113095Y-11175429D01*
X4113095Y-11175429D02*
X4103572Y-11184952D01*
X4103572Y-11184952D02*
X4084524Y-11194476D01*
X4084524Y-11194476D02*
X4055952Y-11194476D01*
X4236905Y-11194476D02*
X4217857Y-11184952D01*
X4217857Y-11184952D02*
X4208334Y-11165905D01*
X4208334Y-11165905D02*
X4208334Y-10994476D01*
X4389286Y-11184952D02*
X4370238Y-11194476D01*
X4370238Y-11194476D02*
X4332143Y-11194476D01*
X4332143Y-11194476D02*
X4313095Y-11184952D01*
X4313095Y-11184952D02*
X4303572Y-11165905D01*
X4303572Y-11165905D02*
X4303572Y-11089714D01*
X4303572Y-11089714D02*
X4313095Y-11070667D01*
X4313095Y-11070667D02*
X4332143Y-11061143D01*
X4332143Y-11061143D02*
X4370238Y-11061143D01*
X4370238Y-11061143D02*
X4389286Y-11070667D01*
X4389286Y-11070667D02*
X4398810Y-11089714D01*
X4398810Y-11089714D02*
X4398810Y-11108762D01*
X4398810Y-11108762D02*
X4303572Y-11127810D01*
X4475000Y-11184952D02*
X4494048Y-11194476D01*
X4494048Y-11194476D02*
X4532143Y-11194476D01*
X4532143Y-11194476D02*
X4551191Y-11184952D01*
X4551191Y-11184952D02*
X4560715Y-11165905D01*
X4560715Y-11165905D02*
X4560715Y-11156381D01*
X4560715Y-11156381D02*
X4551191Y-11137333D01*
X4551191Y-11137333D02*
X4532143Y-11127810D01*
X4532143Y-11127810D02*
X4503572Y-11127810D01*
X4503572Y-11127810D02*
X4484524Y-11118286D01*
X4484524Y-11118286D02*
X4475000Y-11099238D01*
X4475000Y-11099238D02*
X4475000Y-11089714D01*
X4475000Y-11089714D02*
X4484524Y-11070667D01*
X4484524Y-11070667D02*
X4503572Y-11061143D01*
X4503572Y-11061143D02*
X4532143Y-11061143D01*
X4532143Y-11061143D02*
X4551191Y-11070667D01*
X4766429Y-11118286D02*
X4918810Y-11118286D01*
X4842619Y-11194476D02*
X4842619Y-11042095D01*
X5124524Y-11013524D02*
X5134048Y-11004000D01*
X5134048Y-11004000D02*
X5153095Y-10994476D01*
X5153095Y-10994476D02*
X5200715Y-10994476D01*
X5200715Y-10994476D02*
X5219762Y-11004000D01*
X5219762Y-11004000D02*
X5229286Y-11013524D01*
X5229286Y-11013524D02*
X5238810Y-11032571D01*
X5238810Y-11032571D02*
X5238810Y-11051619D01*
X5238810Y-11051619D02*
X5229286Y-11080190D01*
X5229286Y-11080190D02*
X5115000Y-11194476D01*
X5115000Y-11194476D02*
X5238810Y-11194476D01*
X5435000Y-11184952D02*
X5454048Y-11194476D01*
X5454048Y-11194476D02*
X5492143Y-11194476D01*
X5492143Y-11194476D02*
X5511191Y-11184952D01*
X5511191Y-11184952D02*
X5520715Y-11165905D01*
X5520715Y-11165905D02*
X5520715Y-11156381D01*
X5520715Y-11156381D02*
X5511191Y-11137333D01*
X5511191Y-11137333D02*
X5492143Y-11127810D01*
X5492143Y-11127810D02*
X5463572Y-11127810D01*
X5463572Y-11127810D02*
X5444524Y-11118286D01*
X5444524Y-11118286D02*
X5435000Y-11099238D01*
X5435000Y-11099238D02*
X5435000Y-11089714D01*
X5435000Y-11089714D02*
X5444524Y-11070667D01*
X5444524Y-11070667D02*
X5463572Y-11061143D01*
X5463572Y-11061143D02*
X5492143Y-11061143D01*
X5492143Y-11061143D02*
X5511191Y-11070667D01*
X5635000Y-11194476D02*
X5615953Y-11184952D01*
X5615953Y-11184952D02*
X5606429Y-11165905D01*
X5606429Y-11165905D02*
X5606429Y-10994476D01*
X5739762Y-11194476D02*
X5720714Y-11184952D01*
X5720714Y-11184952D02*
X5711191Y-11175429D01*
X5711191Y-11175429D02*
X5701667Y-11156381D01*
X5701667Y-11156381D02*
X5701667Y-11099238D01*
X5701667Y-11099238D02*
X5711191Y-11080190D01*
X5711191Y-11080190D02*
X5720714Y-11070667D01*
X5720714Y-11070667D02*
X5739762Y-11061143D01*
X5739762Y-11061143D02*
X5768334Y-11061143D01*
X5768334Y-11061143D02*
X5787381Y-11070667D01*
X5787381Y-11070667D02*
X5796905Y-11080190D01*
X5796905Y-11080190D02*
X5806429Y-11099238D01*
X5806429Y-11099238D02*
X5806429Y-11156381D01*
X5806429Y-11156381D02*
X5796905Y-11175429D01*
X5796905Y-11175429D02*
X5787381Y-11184952D01*
X5787381Y-11184952D02*
X5768334Y-11194476D01*
X5768334Y-11194476D02*
X5739762Y-11194476D01*
X5863572Y-11061143D02*
X5939762Y-11061143D01*
X5892143Y-10994476D02*
X5892143Y-11165905D01*
X5892143Y-11165905D02*
X5901667Y-11184952D01*
X5901667Y-11184952D02*
X5920714Y-11194476D01*
X5920714Y-11194476D02*
X5939762Y-11194476D01*
X5996905Y-11184952D02*
X6015953Y-11194476D01*
X6015953Y-11194476D02*
X6054048Y-11194476D01*
X6054048Y-11194476D02*
X6073095Y-11184952D01*
X6073095Y-11184952D02*
X6082619Y-11165905D01*
X6082619Y-11165905D02*
X6082619Y-11156381D01*
X6082619Y-11156381D02*
X6073095Y-11137333D01*
X6073095Y-11137333D02*
X6054048Y-11127810D01*
X6054048Y-11127810D02*
X6025476Y-11127810D01*
X6025476Y-11127810D02*
X6006429Y-11118286D01*
X6006429Y-11118286D02*
X5996905Y-11099238D01*
X5996905Y-11099238D02*
X5996905Y-11089714D01*
X5996905Y-11089714D02*
X6006429Y-11070667D01*
X6006429Y-11070667D02*
X6025476Y-11061143D01*
X6025476Y-11061143D02*
X6054048Y-11061143D01*
X6054048Y-11061143D02*
X6073095Y-11070667D01*
X6149286Y-11270667D02*
X6158810Y-11261143D01*
X6158810Y-11261143D02*
X6177857Y-11232571D01*
X6177857Y-11232571D02*
X6187381Y-11213524D01*
X6187381Y-11213524D02*
X6196905Y-11184952D01*
X6196905Y-11184952D02*
X6206429Y-11137333D01*
X6206429Y-11137333D02*
X6206429Y-11099238D01*
X6206429Y-11099238D02*
X6196905Y-11051619D01*
X6196905Y-11051619D02*
X6187381Y-11023048D01*
X6187381Y-11023048D02*
X6177857Y-11004000D01*
X6177857Y-11004000D02*
X6158810Y-10975429D01*
X6158810Y-10975429D02*
X6149286Y-10965905D01*
X6478810Y-11270667D02*
X6469286Y-11261143D01*
X6469286Y-11261143D02*
X6450238Y-11232571D01*
X6450238Y-11232571D02*
X6440714Y-11213524D01*
X6440714Y-11213524D02*
X6431191Y-11184952D01*
X6431191Y-11184952D02*
X6421667Y-11137333D01*
X6421667Y-11137333D02*
X6421667Y-11099238D01*
X6421667Y-11099238D02*
X6431191Y-11051619D01*
X6431191Y-11051619D02*
X6440714Y-11023048D01*
X6440714Y-11023048D02*
X6450238Y-11004000D01*
X6450238Y-11004000D02*
X6469286Y-10975429D01*
X6469286Y-10975429D02*
X6478810Y-10965905D01*
X6555000Y-11061143D02*
X6555000Y-11194476D01*
X6555000Y-11080190D02*
X6564524Y-11070667D01*
X6564524Y-11070667D02*
X6583572Y-11061143D01*
X6583572Y-11061143D02*
X6612143Y-11061143D01*
X6612143Y-11061143D02*
X6631191Y-11070667D01*
X6631191Y-11070667D02*
X6640714Y-11089714D01*
X6640714Y-11089714D02*
X6640714Y-11194476D01*
X6764524Y-11194476D02*
X6745476Y-11184952D01*
X6745476Y-11184952D02*
X6735953Y-11175429D01*
X6735953Y-11175429D02*
X6726429Y-11156381D01*
X6726429Y-11156381D02*
X6726429Y-11099238D01*
X6726429Y-11099238D02*
X6735953Y-11080190D01*
X6735953Y-11080190D02*
X6745476Y-11070667D01*
X6745476Y-11070667D02*
X6764524Y-11061143D01*
X6764524Y-11061143D02*
X6793095Y-11061143D01*
X6793095Y-11061143D02*
X6812143Y-11070667D01*
X6812143Y-11070667D02*
X6821667Y-11080190D01*
X6821667Y-11080190D02*
X6831191Y-11099238D01*
X6831191Y-11099238D02*
X6831191Y-11156381D01*
X6831191Y-11156381D02*
X6821667Y-11175429D01*
X6821667Y-11175429D02*
X6812143Y-11184952D01*
X6812143Y-11184952D02*
X6793095Y-11194476D01*
X6793095Y-11194476D02*
X6764524Y-11194476D01*
X6888334Y-11061143D02*
X6964524Y-11061143D01*
X6916905Y-10994476D02*
X6916905Y-11165905D01*
X6916905Y-11165905D02*
X6926429Y-11184952D01*
X6926429Y-11184952D02*
X6945476Y-11194476D01*
X6945476Y-11194476D02*
X6964524Y-11194476D01*
X7151191Y-11061143D02*
X7151191Y-11261143D01*
X7151191Y-11070667D02*
X7170238Y-11061143D01*
X7170238Y-11061143D02*
X7208334Y-11061143D01*
X7208334Y-11061143D02*
X7227381Y-11070667D01*
X7227381Y-11070667D02*
X7236905Y-11080190D01*
X7236905Y-11080190D02*
X7246429Y-11099238D01*
X7246429Y-11099238D02*
X7246429Y-11156381D01*
X7246429Y-11156381D02*
X7236905Y-11175429D01*
X7236905Y-11175429D02*
X7227381Y-11184952D01*
X7227381Y-11184952D02*
X7208334Y-11194476D01*
X7208334Y-11194476D02*
X7170238Y-11194476D01*
X7170238Y-11194476D02*
X7151191Y-11184952D01*
X7360714Y-11194476D02*
X7341667Y-11184952D01*
X7341667Y-11184952D02*
X7332143Y-11165905D01*
X7332143Y-11165905D02*
X7332143Y-10994476D01*
X7522619Y-11194476D02*
X7522619Y-11089714D01*
X7522619Y-11089714D02*
X7513095Y-11070667D01*
X7513095Y-11070667D02*
X7494048Y-11061143D01*
X7494048Y-11061143D02*
X7455953Y-11061143D01*
X7455953Y-11061143D02*
X7436905Y-11070667D01*
X7522619Y-11184952D02*
X7503572Y-11194476D01*
X7503572Y-11194476D02*
X7455953Y-11194476D01*
X7455953Y-11194476D02*
X7436905Y-11184952D01*
X7436905Y-11184952D02*
X7427381Y-11165905D01*
X7427381Y-11165905D02*
X7427381Y-11146857D01*
X7427381Y-11146857D02*
X7436905Y-11127810D01*
X7436905Y-11127810D02*
X7455953Y-11118286D01*
X7455953Y-11118286D02*
X7503572Y-11118286D01*
X7503572Y-11118286D02*
X7522619Y-11108762D01*
X7589286Y-11061143D02*
X7665476Y-11061143D01*
X7617857Y-10994476D02*
X7617857Y-11165905D01*
X7617857Y-11165905D02*
X7627381Y-11184952D01*
X7627381Y-11184952D02*
X7646429Y-11194476D01*
X7646429Y-11194476D02*
X7665476Y-11194476D01*
X7808334Y-11184952D02*
X7789286Y-11194476D01*
X7789286Y-11194476D02*
X7751191Y-11194476D01*
X7751191Y-11194476D02*
X7732143Y-11184952D01*
X7732143Y-11184952D02*
X7722619Y-11165905D01*
X7722619Y-11165905D02*
X7722619Y-11089714D01*
X7722619Y-11089714D02*
X7732143Y-11070667D01*
X7732143Y-11070667D02*
X7751191Y-11061143D01*
X7751191Y-11061143D02*
X7789286Y-11061143D01*
X7789286Y-11061143D02*
X7808334Y-11070667D01*
X7808334Y-11070667D02*
X7817857Y-11089714D01*
X7817857Y-11089714D02*
X7817857Y-11108762D01*
X7817857Y-11108762D02*
X7722619Y-11127810D01*
X7989286Y-11194476D02*
X7989286Y-10994476D01*
X7989286Y-11184952D02*
X7970238Y-11194476D01*
X7970238Y-11194476D02*
X7932143Y-11194476D01*
X7932143Y-11194476D02*
X7913095Y-11184952D01*
X7913095Y-11184952D02*
X7903572Y-11175429D01*
X7903572Y-11175429D02*
X7894048Y-11156381D01*
X7894048Y-11156381D02*
X7894048Y-11099238D01*
X7894048Y-11099238D02*
X7903572Y-11080190D01*
X7903572Y-11080190D02*
X7913095Y-11070667D01*
X7913095Y-11070667D02*
X7932143Y-11061143D01*
X7932143Y-11061143D02*
X7970238Y-11061143D01*
X7970238Y-11061143D02*
X7989286Y-11070667D01*
X8065476Y-11270667D02*
X8075000Y-11261143D01*
X8075000Y-11261143D02*
X8094048Y-11232571D01*
X8094048Y-11232571D02*
X8103572Y-11213524D01*
X8103572Y-11213524D02*
X8113095Y-11184952D01*
X8113095Y-11184952D02*
X8122619Y-11137333D01*
X8122619Y-11137333D02*
X8122619Y-11099238D01*
X8122619Y-11099238D02*
X8113095Y-11051619D01*
X8113095Y-11051619D02*
X8103572Y-11023048D01*
X8103572Y-11023048D02*
X8094048Y-11004000D01*
X8094048Y-11004000D02*
X8075000Y-10975429D01*
X8075000Y-10975429D02*
X8065476Y-10965905D01*
D17*
X-180000Y-11303500D02*
X-5000Y-11478500D01*
X-5000Y-11303500D02*
X-180000Y-11478500D01*
X-5000Y-11391000D02*
G75*
G03*
X-5000Y-11391000I-87500J0D01*
G01*
D11*
X347381Y-11464476D02*
X233095Y-11464476D01*
X290238Y-11464476D02*
X290238Y-11264476D01*
X290238Y-11264476D02*
X271190Y-11293048D01*
X271190Y-11293048D02*
X252143Y-11312095D01*
X252143Y-11312095D02*
X233095Y-11321619D01*
X433095Y-11445428D02*
X442619Y-11454952D01*
X442619Y-11454952D02*
X433095Y-11464476D01*
X433095Y-11464476D02*
X423571Y-11454952D01*
X423571Y-11454952D02*
X433095Y-11445428D01*
X433095Y-11445428D02*
X433095Y-11464476D01*
X509286Y-11264476D02*
X642619Y-11264476D01*
X642619Y-11264476D02*
X556905Y-11464476D01*
X814048Y-11264476D02*
X718809Y-11264476D01*
X718809Y-11264476D02*
X709286Y-11359714D01*
X709286Y-11359714D02*
X718809Y-11350190D01*
X718809Y-11350190D02*
X737857Y-11340667D01*
X737857Y-11340667D02*
X785476Y-11340667D01*
X785476Y-11340667D02*
X804524Y-11350190D01*
X804524Y-11350190D02*
X814048Y-11359714D01*
X814048Y-11359714D02*
X823571Y-11378762D01*
X823571Y-11378762D02*
X823571Y-11426381D01*
X823571Y-11426381D02*
X814048Y-11445428D01*
X814048Y-11445428D02*
X804524Y-11454952D01*
X804524Y-11454952D02*
X785476Y-11464476D01*
X785476Y-11464476D02*
X737857Y-11464476D01*
X737857Y-11464476D02*
X718809Y-11454952D01*
X718809Y-11454952D02*
X709286Y-11445428D01*
X947381Y-11264476D02*
X966429Y-11264476D01*
X966429Y-11264476D02*
X985476Y-11274000D01*
X985476Y-11274000D02*
X995000Y-11283524D01*
X995000Y-11283524D02*
X1004524Y-11302571D01*
X1004524Y-11302571D02*
X1014048Y-11340667D01*
X1014048Y-11340667D02*
X1014048Y-11388286D01*
X1014048Y-11388286D02*
X1004524Y-11426381D01*
X1004524Y-11426381D02*
X995000Y-11445428D01*
X995000Y-11445428D02*
X985476Y-11454952D01*
X985476Y-11454952D02*
X966429Y-11464476D01*
X966429Y-11464476D02*
X947381Y-11464476D01*
X947381Y-11464476D02*
X928333Y-11454952D01*
X928333Y-11454952D02*
X918809Y-11445428D01*
X918809Y-11445428D02*
X909286Y-11426381D01*
X909286Y-11426381D02*
X899762Y-11388286D01*
X899762Y-11388286D02*
X899762Y-11340667D01*
X899762Y-11340667D02*
X909286Y-11302571D01*
X909286Y-11302571D02*
X918809Y-11283524D01*
X918809Y-11283524D02*
X928333Y-11274000D01*
X928333Y-11274000D02*
X947381Y-11264476D01*
X1099762Y-11464476D02*
X1099762Y-11331143D01*
X1099762Y-11350190D02*
X1109286Y-11340667D01*
X1109286Y-11340667D02*
X1128333Y-11331143D01*
X1128333Y-11331143D02*
X1156905Y-11331143D01*
X1156905Y-11331143D02*
X1175952Y-11340667D01*
X1175952Y-11340667D02*
X1185476Y-11359714D01*
X1185476Y-11359714D02*
X1185476Y-11464476D01*
X1185476Y-11359714D02*
X1195000Y-11340667D01*
X1195000Y-11340667D02*
X1214048Y-11331143D01*
X1214048Y-11331143D02*
X1242619Y-11331143D01*
X1242619Y-11331143D02*
X1261667Y-11340667D01*
X1261667Y-11340667D02*
X1271191Y-11359714D01*
X1271191Y-11359714D02*
X1271191Y-11464476D01*
X1366429Y-11464476D02*
X1366429Y-11331143D01*
X1366429Y-11350190D02*
X1375952Y-11340667D01*
X1375952Y-11340667D02*
X1395000Y-11331143D01*
X1395000Y-11331143D02*
X1423571Y-11331143D01*
X1423571Y-11331143D02*
X1442619Y-11340667D01*
X1442619Y-11340667D02*
X1452143Y-11359714D01*
X1452143Y-11359714D02*
X1452143Y-11464476D01*
X1452143Y-11359714D02*
X1461667Y-11340667D01*
X1461667Y-11340667D02*
X1480714Y-11331143D01*
X1480714Y-11331143D02*
X1509286Y-11331143D01*
X1509286Y-11331143D02*
X1528333Y-11340667D01*
X1528333Y-11340667D02*
X1537857Y-11359714D01*
X1537857Y-11359714D02*
X1537857Y-11464476D01*
X1895952Y-11254952D02*
X1724524Y-11512095D01*
X2120714Y-11264476D02*
X2139762Y-11264476D01*
X2139762Y-11264476D02*
X2158810Y-11274000D01*
X2158810Y-11274000D02*
X2168333Y-11283524D01*
X2168333Y-11283524D02*
X2177857Y-11302571D01*
X2177857Y-11302571D02*
X2187381Y-11340667D01*
X2187381Y-11340667D02*
X2187381Y-11388286D01*
X2187381Y-11388286D02*
X2177857Y-11426381D01*
X2177857Y-11426381D02*
X2168333Y-11445428D01*
X2168333Y-11445428D02*
X2158810Y-11454952D01*
X2158810Y-11454952D02*
X2139762Y-11464476D01*
X2139762Y-11464476D02*
X2120714Y-11464476D01*
X2120714Y-11464476D02*
X2101667Y-11454952D01*
X2101667Y-11454952D02*
X2092143Y-11445428D01*
X2092143Y-11445428D02*
X2082619Y-11426381D01*
X2082619Y-11426381D02*
X2073095Y-11388286D01*
X2073095Y-11388286D02*
X2073095Y-11340667D01*
X2073095Y-11340667D02*
X2082619Y-11302571D01*
X2082619Y-11302571D02*
X2092143Y-11283524D01*
X2092143Y-11283524D02*
X2101667Y-11274000D01*
X2101667Y-11274000D02*
X2120714Y-11264476D01*
X2273095Y-11445428D02*
X2282619Y-11454952D01*
X2282619Y-11454952D02*
X2273095Y-11464476D01*
X2273095Y-11464476D02*
X2263572Y-11454952D01*
X2263572Y-11454952D02*
X2273095Y-11445428D01*
X2273095Y-11445428D02*
X2273095Y-11464476D01*
X2406429Y-11264476D02*
X2425476Y-11264476D01*
X2425476Y-11264476D02*
X2444524Y-11274000D01*
X2444524Y-11274000D02*
X2454048Y-11283524D01*
X2454048Y-11283524D02*
X2463572Y-11302571D01*
X2463572Y-11302571D02*
X2473095Y-11340667D01*
X2473095Y-11340667D02*
X2473095Y-11388286D01*
X2473095Y-11388286D02*
X2463572Y-11426381D01*
X2463572Y-11426381D02*
X2454048Y-11445428D01*
X2454048Y-11445428D02*
X2444524Y-11454952D01*
X2444524Y-11454952D02*
X2425476Y-11464476D01*
X2425476Y-11464476D02*
X2406429Y-11464476D01*
X2406429Y-11464476D02*
X2387381Y-11454952D01*
X2387381Y-11454952D02*
X2377857Y-11445428D01*
X2377857Y-11445428D02*
X2368333Y-11426381D01*
X2368333Y-11426381D02*
X2358810Y-11388286D01*
X2358810Y-11388286D02*
X2358810Y-11340667D01*
X2358810Y-11340667D02*
X2368333Y-11302571D01*
X2368333Y-11302571D02*
X2377857Y-11283524D01*
X2377857Y-11283524D02*
X2387381Y-11274000D01*
X2387381Y-11274000D02*
X2406429Y-11264476D01*
X2644524Y-11264476D02*
X2606429Y-11264476D01*
X2606429Y-11264476D02*
X2587381Y-11274000D01*
X2587381Y-11274000D02*
X2577857Y-11283524D01*
X2577857Y-11283524D02*
X2558810Y-11312095D01*
X2558810Y-11312095D02*
X2549286Y-11350190D01*
X2549286Y-11350190D02*
X2549286Y-11426381D01*
X2549286Y-11426381D02*
X2558810Y-11445428D01*
X2558810Y-11445428D02*
X2568333Y-11454952D01*
X2568333Y-11454952D02*
X2587381Y-11464476D01*
X2587381Y-11464476D02*
X2625476Y-11464476D01*
X2625476Y-11464476D02*
X2644524Y-11454952D01*
X2644524Y-11454952D02*
X2654048Y-11445428D01*
X2654048Y-11445428D02*
X2663572Y-11426381D01*
X2663572Y-11426381D02*
X2663572Y-11378762D01*
X2663572Y-11378762D02*
X2654048Y-11359714D01*
X2654048Y-11359714D02*
X2644524Y-11350190D01*
X2644524Y-11350190D02*
X2625476Y-11340667D01*
X2625476Y-11340667D02*
X2587381Y-11340667D01*
X2587381Y-11340667D02*
X2568333Y-11350190D01*
X2568333Y-11350190D02*
X2558810Y-11359714D01*
X2558810Y-11359714D02*
X2549286Y-11378762D01*
X2777857Y-11350190D02*
X2758810Y-11340667D01*
X2758810Y-11340667D02*
X2749286Y-11331143D01*
X2749286Y-11331143D02*
X2739762Y-11312095D01*
X2739762Y-11312095D02*
X2739762Y-11302571D01*
X2739762Y-11302571D02*
X2749286Y-11283524D01*
X2749286Y-11283524D02*
X2758810Y-11274000D01*
X2758810Y-11274000D02*
X2777857Y-11264476D01*
X2777857Y-11264476D02*
X2815952Y-11264476D01*
X2815952Y-11264476D02*
X2835000Y-11274000D01*
X2835000Y-11274000D02*
X2844524Y-11283524D01*
X2844524Y-11283524D02*
X2854048Y-11302571D01*
X2854048Y-11302571D02*
X2854048Y-11312095D01*
X2854048Y-11312095D02*
X2844524Y-11331143D01*
X2844524Y-11331143D02*
X2835000Y-11340667D01*
X2835000Y-11340667D02*
X2815952Y-11350190D01*
X2815952Y-11350190D02*
X2777857Y-11350190D01*
X2777857Y-11350190D02*
X2758810Y-11359714D01*
X2758810Y-11359714D02*
X2749286Y-11369238D01*
X2749286Y-11369238D02*
X2739762Y-11388286D01*
X2739762Y-11388286D02*
X2739762Y-11426381D01*
X2739762Y-11426381D02*
X2749286Y-11445428D01*
X2749286Y-11445428D02*
X2758810Y-11454952D01*
X2758810Y-11454952D02*
X2777857Y-11464476D01*
X2777857Y-11464476D02*
X2815952Y-11464476D01*
X2815952Y-11464476D02*
X2835000Y-11454952D01*
X2835000Y-11454952D02*
X2844524Y-11445428D01*
X2844524Y-11445428D02*
X2854048Y-11426381D01*
X2854048Y-11426381D02*
X2854048Y-11388286D01*
X2854048Y-11388286D02*
X2844524Y-11369238D01*
X2844524Y-11369238D02*
X2835000Y-11359714D01*
X2835000Y-11359714D02*
X2815952Y-11350190D01*
X2949286Y-11464476D02*
X2987381Y-11464476D01*
X2987381Y-11464476D02*
X3006429Y-11454952D01*
X3006429Y-11454952D02*
X3015952Y-11445428D01*
X3015952Y-11445428D02*
X3035000Y-11416857D01*
X3035000Y-11416857D02*
X3044524Y-11378762D01*
X3044524Y-11378762D02*
X3044524Y-11302571D01*
X3044524Y-11302571D02*
X3035000Y-11283524D01*
X3035000Y-11283524D02*
X3025476Y-11274000D01*
X3025476Y-11274000D02*
X3006429Y-11264476D01*
X3006429Y-11264476D02*
X2968333Y-11264476D01*
X2968333Y-11264476D02*
X2949286Y-11274000D01*
X2949286Y-11274000D02*
X2939762Y-11283524D01*
X2939762Y-11283524D02*
X2930238Y-11302571D01*
X2930238Y-11302571D02*
X2930238Y-11350190D01*
X2930238Y-11350190D02*
X2939762Y-11369238D01*
X2939762Y-11369238D02*
X2949286Y-11378762D01*
X2949286Y-11378762D02*
X2968333Y-11388286D01*
X2968333Y-11388286D02*
X3006429Y-11388286D01*
X3006429Y-11388286D02*
X3025476Y-11378762D01*
X3025476Y-11378762D02*
X3035000Y-11369238D01*
X3035000Y-11369238D02*
X3044524Y-11350190D01*
X3120714Y-11264476D02*
X3120714Y-11302571D01*
X3196905Y-11264476D02*
X3196905Y-11302571D01*
X3459762Y-11540667D02*
X3450238Y-11531143D01*
X3450238Y-11531143D02*
X3431191Y-11502571D01*
X3431191Y-11502571D02*
X3421667Y-11483524D01*
X3421667Y-11483524D02*
X3412143Y-11454952D01*
X3412143Y-11454952D02*
X3402619Y-11407333D01*
X3402619Y-11407333D02*
X3402619Y-11369238D01*
X3402619Y-11369238D02*
X3412143Y-11321619D01*
X3412143Y-11321619D02*
X3421667Y-11293048D01*
X3421667Y-11293048D02*
X3431191Y-11274000D01*
X3431191Y-11274000D02*
X3450238Y-11245428D01*
X3450238Y-11245428D02*
X3459762Y-11235905D01*
X3631191Y-11264476D02*
X3535952Y-11264476D01*
X3535952Y-11264476D02*
X3526429Y-11359714D01*
X3526429Y-11359714D02*
X3535952Y-11350190D01*
X3535952Y-11350190D02*
X3555000Y-11340667D01*
X3555000Y-11340667D02*
X3602619Y-11340667D01*
X3602619Y-11340667D02*
X3621667Y-11350190D01*
X3621667Y-11350190D02*
X3631191Y-11359714D01*
X3631191Y-11359714D02*
X3640714Y-11378762D01*
X3640714Y-11378762D02*
X3640714Y-11426381D01*
X3640714Y-11426381D02*
X3631191Y-11445428D01*
X3631191Y-11445428D02*
X3621667Y-11454952D01*
X3621667Y-11454952D02*
X3602619Y-11464476D01*
X3602619Y-11464476D02*
X3555000Y-11464476D01*
X3555000Y-11464476D02*
X3535952Y-11454952D01*
X3535952Y-11454952D02*
X3526429Y-11445428D01*
X3764524Y-11264476D02*
X3783572Y-11264476D01*
X3783572Y-11264476D02*
X3802619Y-11274000D01*
X3802619Y-11274000D02*
X3812143Y-11283524D01*
X3812143Y-11283524D02*
X3821667Y-11302571D01*
X3821667Y-11302571D02*
X3831191Y-11340667D01*
X3831191Y-11340667D02*
X3831191Y-11388286D01*
X3831191Y-11388286D02*
X3821667Y-11426381D01*
X3821667Y-11426381D02*
X3812143Y-11445428D01*
X3812143Y-11445428D02*
X3802619Y-11454952D01*
X3802619Y-11454952D02*
X3783572Y-11464476D01*
X3783572Y-11464476D02*
X3764524Y-11464476D01*
X3764524Y-11464476D02*
X3745476Y-11454952D01*
X3745476Y-11454952D02*
X3735952Y-11445428D01*
X3735952Y-11445428D02*
X3726429Y-11426381D01*
X3726429Y-11426381D02*
X3716905Y-11388286D01*
X3716905Y-11388286D02*
X3716905Y-11340667D01*
X3716905Y-11340667D02*
X3726429Y-11302571D01*
X3726429Y-11302571D02*
X3735952Y-11283524D01*
X3735952Y-11283524D02*
X3745476Y-11274000D01*
X3745476Y-11274000D02*
X3764524Y-11264476D01*
X4036905Y-11464476D02*
X4036905Y-11264476D01*
X4122619Y-11464476D02*
X4122619Y-11359714D01*
X4122619Y-11359714D02*
X4113095Y-11340667D01*
X4113095Y-11340667D02*
X4094048Y-11331143D01*
X4094048Y-11331143D02*
X4065476Y-11331143D01*
X4065476Y-11331143D02*
X4046429Y-11340667D01*
X4046429Y-11340667D02*
X4036905Y-11350190D01*
X4246429Y-11464476D02*
X4227381Y-11454952D01*
X4227381Y-11454952D02*
X4217857Y-11445428D01*
X4217857Y-11445428D02*
X4208334Y-11426381D01*
X4208334Y-11426381D02*
X4208334Y-11369238D01*
X4208334Y-11369238D02*
X4217857Y-11350190D01*
X4217857Y-11350190D02*
X4227381Y-11340667D01*
X4227381Y-11340667D02*
X4246429Y-11331143D01*
X4246429Y-11331143D02*
X4275000Y-11331143D01*
X4275000Y-11331143D02*
X4294048Y-11340667D01*
X4294048Y-11340667D02*
X4303572Y-11350190D01*
X4303572Y-11350190D02*
X4313095Y-11369238D01*
X4313095Y-11369238D02*
X4313095Y-11426381D01*
X4313095Y-11426381D02*
X4303572Y-11445428D01*
X4303572Y-11445428D02*
X4294048Y-11454952D01*
X4294048Y-11454952D02*
X4275000Y-11464476D01*
X4275000Y-11464476D02*
X4246429Y-11464476D01*
X4427381Y-11464476D02*
X4408334Y-11454952D01*
X4408334Y-11454952D02*
X4398810Y-11435905D01*
X4398810Y-11435905D02*
X4398810Y-11264476D01*
X4579762Y-11454952D02*
X4560715Y-11464476D01*
X4560715Y-11464476D02*
X4522619Y-11464476D01*
X4522619Y-11464476D02*
X4503572Y-11454952D01*
X4503572Y-11454952D02*
X4494048Y-11435905D01*
X4494048Y-11435905D02*
X4494048Y-11359714D01*
X4494048Y-11359714D02*
X4503572Y-11340667D01*
X4503572Y-11340667D02*
X4522619Y-11331143D01*
X4522619Y-11331143D02*
X4560715Y-11331143D01*
X4560715Y-11331143D02*
X4579762Y-11340667D01*
X4579762Y-11340667D02*
X4589286Y-11359714D01*
X4589286Y-11359714D02*
X4589286Y-11378762D01*
X4589286Y-11378762D02*
X4494048Y-11397809D01*
X4665476Y-11454952D02*
X4684524Y-11464476D01*
X4684524Y-11464476D02*
X4722619Y-11464476D01*
X4722619Y-11464476D02*
X4741667Y-11454952D01*
X4741667Y-11454952D02*
X4751191Y-11435905D01*
X4751191Y-11435905D02*
X4751191Y-11426381D01*
X4751191Y-11426381D02*
X4741667Y-11407333D01*
X4741667Y-11407333D02*
X4722619Y-11397809D01*
X4722619Y-11397809D02*
X4694048Y-11397809D01*
X4694048Y-11397809D02*
X4675000Y-11388286D01*
X4675000Y-11388286D02*
X4665476Y-11369238D01*
X4665476Y-11369238D02*
X4665476Y-11359714D01*
X4665476Y-11359714D02*
X4675000Y-11340667D01*
X4675000Y-11340667D02*
X4694048Y-11331143D01*
X4694048Y-11331143D02*
X4722619Y-11331143D01*
X4722619Y-11331143D02*
X4741667Y-11340667D01*
X4817857Y-11540667D02*
X4827381Y-11531143D01*
X4827381Y-11531143D02*
X4846429Y-11502571D01*
X4846429Y-11502571D02*
X4855953Y-11483524D01*
X4855953Y-11483524D02*
X4865476Y-11454952D01*
X4865476Y-11454952D02*
X4875000Y-11407333D01*
X4875000Y-11407333D02*
X4875000Y-11369238D01*
X4875000Y-11369238D02*
X4865476Y-11321619D01*
X4865476Y-11321619D02*
X4855953Y-11293048D01*
X4855953Y-11293048D02*
X4846429Y-11274000D01*
X4846429Y-11274000D02*
X4827381Y-11245428D01*
X4827381Y-11245428D02*
X4817857Y-11235905D01*
X5147381Y-11540667D02*
X5137857Y-11531143D01*
X5137857Y-11531143D02*
X5118810Y-11502571D01*
X5118810Y-11502571D02*
X5109286Y-11483524D01*
X5109286Y-11483524D02*
X5099762Y-11454952D01*
X5099762Y-11454952D02*
X5090238Y-11407333D01*
X5090238Y-11407333D02*
X5090238Y-11369238D01*
X5090238Y-11369238D02*
X5099762Y-11321619D01*
X5099762Y-11321619D02*
X5109286Y-11293048D01*
X5109286Y-11293048D02*
X5118810Y-11274000D01*
X5118810Y-11274000D02*
X5137857Y-11245428D01*
X5137857Y-11245428D02*
X5147381Y-11235905D01*
X5223572Y-11331143D02*
X5223572Y-11464476D01*
X5223572Y-11350190D02*
X5233095Y-11340667D01*
X5233095Y-11340667D02*
X5252143Y-11331143D01*
X5252143Y-11331143D02*
X5280715Y-11331143D01*
X5280715Y-11331143D02*
X5299762Y-11340667D01*
X5299762Y-11340667D02*
X5309286Y-11359714D01*
X5309286Y-11359714D02*
X5309286Y-11464476D01*
X5433095Y-11464476D02*
X5414048Y-11454952D01*
X5414048Y-11454952D02*
X5404524Y-11445428D01*
X5404524Y-11445428D02*
X5395000Y-11426381D01*
X5395000Y-11426381D02*
X5395000Y-11369238D01*
X5395000Y-11369238D02*
X5404524Y-11350190D01*
X5404524Y-11350190D02*
X5414048Y-11340667D01*
X5414048Y-11340667D02*
X5433095Y-11331143D01*
X5433095Y-11331143D02*
X5461667Y-11331143D01*
X5461667Y-11331143D02*
X5480715Y-11340667D01*
X5480715Y-11340667D02*
X5490238Y-11350190D01*
X5490238Y-11350190D02*
X5499762Y-11369238D01*
X5499762Y-11369238D02*
X5499762Y-11426381D01*
X5499762Y-11426381D02*
X5490238Y-11445428D01*
X5490238Y-11445428D02*
X5480715Y-11454952D01*
X5480715Y-11454952D02*
X5461667Y-11464476D01*
X5461667Y-11464476D02*
X5433095Y-11464476D01*
X5556905Y-11331143D02*
X5633095Y-11331143D01*
X5585476Y-11264476D02*
X5585476Y-11435905D01*
X5585476Y-11435905D02*
X5595000Y-11454952D01*
X5595000Y-11454952D02*
X5614048Y-11464476D01*
X5614048Y-11464476D02*
X5633095Y-11464476D01*
X5819762Y-11331143D02*
X5819762Y-11531143D01*
X5819762Y-11340667D02*
X5838810Y-11331143D01*
X5838810Y-11331143D02*
X5876905Y-11331143D01*
X5876905Y-11331143D02*
X5895953Y-11340667D01*
X5895953Y-11340667D02*
X5905476Y-11350190D01*
X5905476Y-11350190D02*
X5915000Y-11369238D01*
X5915000Y-11369238D02*
X5915000Y-11426381D01*
X5915000Y-11426381D02*
X5905476Y-11445428D01*
X5905476Y-11445428D02*
X5895953Y-11454952D01*
X5895953Y-11454952D02*
X5876905Y-11464476D01*
X5876905Y-11464476D02*
X5838810Y-11464476D01*
X5838810Y-11464476D02*
X5819762Y-11454952D01*
X6029286Y-11464476D02*
X6010238Y-11454952D01*
X6010238Y-11454952D02*
X6000714Y-11435905D01*
X6000714Y-11435905D02*
X6000714Y-11264476D01*
X6191191Y-11464476D02*
X6191191Y-11359714D01*
X6191191Y-11359714D02*
X6181667Y-11340667D01*
X6181667Y-11340667D02*
X6162619Y-11331143D01*
X6162619Y-11331143D02*
X6124524Y-11331143D01*
X6124524Y-11331143D02*
X6105476Y-11340667D01*
X6191191Y-11454952D02*
X6172143Y-11464476D01*
X6172143Y-11464476D02*
X6124524Y-11464476D01*
X6124524Y-11464476D02*
X6105476Y-11454952D01*
X6105476Y-11454952D02*
X6095953Y-11435905D01*
X6095953Y-11435905D02*
X6095953Y-11416857D01*
X6095953Y-11416857D02*
X6105476Y-11397809D01*
X6105476Y-11397809D02*
X6124524Y-11388286D01*
X6124524Y-11388286D02*
X6172143Y-11388286D01*
X6172143Y-11388286D02*
X6191191Y-11378762D01*
X6257857Y-11331143D02*
X6334048Y-11331143D01*
X6286429Y-11264476D02*
X6286429Y-11435905D01*
X6286429Y-11435905D02*
X6295953Y-11454952D01*
X6295953Y-11454952D02*
X6315000Y-11464476D01*
X6315000Y-11464476D02*
X6334048Y-11464476D01*
X6476905Y-11454952D02*
X6457857Y-11464476D01*
X6457857Y-11464476D02*
X6419762Y-11464476D01*
X6419762Y-11464476D02*
X6400714Y-11454952D01*
X6400714Y-11454952D02*
X6391191Y-11435905D01*
X6391191Y-11435905D02*
X6391191Y-11359714D01*
X6391191Y-11359714D02*
X6400714Y-11340667D01*
X6400714Y-11340667D02*
X6419762Y-11331143D01*
X6419762Y-11331143D02*
X6457857Y-11331143D01*
X6457857Y-11331143D02*
X6476905Y-11340667D01*
X6476905Y-11340667D02*
X6486429Y-11359714D01*
X6486429Y-11359714D02*
X6486429Y-11378762D01*
X6486429Y-11378762D02*
X6391191Y-11397809D01*
X6657857Y-11464476D02*
X6657857Y-11264476D01*
X6657857Y-11454952D02*
X6638810Y-11464476D01*
X6638810Y-11464476D02*
X6600714Y-11464476D01*
X6600714Y-11464476D02*
X6581667Y-11454952D01*
X6581667Y-11454952D02*
X6572143Y-11445428D01*
X6572143Y-11445428D02*
X6562619Y-11426381D01*
X6562619Y-11426381D02*
X6562619Y-11369238D01*
X6562619Y-11369238D02*
X6572143Y-11350190D01*
X6572143Y-11350190D02*
X6581667Y-11340667D01*
X6581667Y-11340667D02*
X6600714Y-11331143D01*
X6600714Y-11331143D02*
X6638810Y-11331143D01*
X6638810Y-11331143D02*
X6657857Y-11340667D01*
X6734048Y-11540667D02*
X6743572Y-11531143D01*
X6743572Y-11531143D02*
X6762619Y-11502571D01*
X6762619Y-11502571D02*
X6772143Y-11483524D01*
X6772143Y-11483524D02*
X6781667Y-11454952D01*
X6781667Y-11454952D02*
X6791191Y-11407333D01*
X6791191Y-11407333D02*
X6791191Y-11369238D01*
X6791191Y-11369238D02*
X6781667Y-11321619D01*
X6781667Y-11321619D02*
X6772143Y-11293048D01*
X6772143Y-11293048D02*
X6762619Y-11274000D01*
X6762619Y-11274000D02*
X6743572Y-11245428D01*
X6743572Y-11245428D02*
X6734048Y-11235905D01*
X-205000Y-11586000D02*
X-5000Y-11786000D01*
X-5000Y-11586000D02*
X-205000Y-11786000D01*
X-105000Y-11586000D02*
X-105000Y-11786000D01*
X-205000Y-11686000D02*
X-5000Y-11686000D01*
X223571Y-11559476D02*
X347381Y-11559476D01*
X347381Y-11559476D02*
X280714Y-11635667D01*
X280714Y-11635667D02*
X309286Y-11635667D01*
X309286Y-11635667D02*
X328333Y-11645190D01*
X328333Y-11645190D02*
X337857Y-11654714D01*
X337857Y-11654714D02*
X347381Y-11673762D01*
X347381Y-11673762D02*
X347381Y-11721381D01*
X347381Y-11721381D02*
X337857Y-11740428D01*
X337857Y-11740428D02*
X328333Y-11749952D01*
X328333Y-11749952D02*
X309286Y-11759476D01*
X309286Y-11759476D02*
X252143Y-11759476D01*
X252143Y-11759476D02*
X233095Y-11749952D01*
X233095Y-11749952D02*
X223571Y-11740428D01*
X433095Y-11740428D02*
X442619Y-11749952D01*
X442619Y-11749952D02*
X433095Y-11759476D01*
X433095Y-11759476D02*
X423571Y-11749952D01*
X423571Y-11749952D02*
X433095Y-11740428D01*
X433095Y-11740428D02*
X433095Y-11759476D01*
X566429Y-11559476D02*
X585476Y-11559476D01*
X585476Y-11559476D02*
X604524Y-11569000D01*
X604524Y-11569000D02*
X614048Y-11578524D01*
X614048Y-11578524D02*
X623571Y-11597571D01*
X623571Y-11597571D02*
X633095Y-11635667D01*
X633095Y-11635667D02*
X633095Y-11683286D01*
X633095Y-11683286D02*
X623571Y-11721381D01*
X623571Y-11721381D02*
X614048Y-11740428D01*
X614048Y-11740428D02*
X604524Y-11749952D01*
X604524Y-11749952D02*
X585476Y-11759476D01*
X585476Y-11759476D02*
X566429Y-11759476D01*
X566429Y-11759476D02*
X547381Y-11749952D01*
X547381Y-11749952D02*
X537857Y-11740428D01*
X537857Y-11740428D02*
X528333Y-11721381D01*
X528333Y-11721381D02*
X518809Y-11683286D01*
X518809Y-11683286D02*
X518809Y-11635667D01*
X518809Y-11635667D02*
X528333Y-11597571D01*
X528333Y-11597571D02*
X537857Y-11578524D01*
X537857Y-11578524D02*
X547381Y-11569000D01*
X547381Y-11569000D02*
X566429Y-11559476D01*
X756905Y-11559476D02*
X775952Y-11559476D01*
X775952Y-11559476D02*
X795000Y-11569000D01*
X795000Y-11569000D02*
X804524Y-11578524D01*
X804524Y-11578524D02*
X814048Y-11597571D01*
X814048Y-11597571D02*
X823571Y-11635667D01*
X823571Y-11635667D02*
X823571Y-11683286D01*
X823571Y-11683286D02*
X814048Y-11721381D01*
X814048Y-11721381D02*
X804524Y-11740428D01*
X804524Y-11740428D02*
X795000Y-11749952D01*
X795000Y-11749952D02*
X775952Y-11759476D01*
X775952Y-11759476D02*
X756905Y-11759476D01*
X756905Y-11759476D02*
X737857Y-11749952D01*
X737857Y-11749952D02*
X728333Y-11740428D01*
X728333Y-11740428D02*
X718809Y-11721381D01*
X718809Y-11721381D02*
X709286Y-11683286D01*
X709286Y-11683286D02*
X709286Y-11635667D01*
X709286Y-11635667D02*
X718809Y-11597571D01*
X718809Y-11597571D02*
X728333Y-11578524D01*
X728333Y-11578524D02*
X737857Y-11569000D01*
X737857Y-11569000D02*
X756905Y-11559476D01*
X947381Y-11559476D02*
X966429Y-11559476D01*
X966429Y-11559476D02*
X985476Y-11569000D01*
X985476Y-11569000D02*
X995000Y-11578524D01*
X995000Y-11578524D02*
X1004524Y-11597571D01*
X1004524Y-11597571D02*
X1014048Y-11635667D01*
X1014048Y-11635667D02*
X1014048Y-11683286D01*
X1014048Y-11683286D02*
X1004524Y-11721381D01*
X1004524Y-11721381D02*
X995000Y-11740428D01*
X995000Y-11740428D02*
X985476Y-11749952D01*
X985476Y-11749952D02*
X966429Y-11759476D01*
X966429Y-11759476D02*
X947381Y-11759476D01*
X947381Y-11759476D02*
X928333Y-11749952D01*
X928333Y-11749952D02*
X918809Y-11740428D01*
X918809Y-11740428D02*
X909286Y-11721381D01*
X909286Y-11721381D02*
X899762Y-11683286D01*
X899762Y-11683286D02*
X899762Y-11635667D01*
X899762Y-11635667D02*
X909286Y-11597571D01*
X909286Y-11597571D02*
X918809Y-11578524D01*
X918809Y-11578524D02*
X928333Y-11569000D01*
X928333Y-11569000D02*
X947381Y-11559476D01*
X1099762Y-11759476D02*
X1099762Y-11626143D01*
X1099762Y-11645190D02*
X1109286Y-11635667D01*
X1109286Y-11635667D02*
X1128333Y-11626143D01*
X1128333Y-11626143D02*
X1156905Y-11626143D01*
X1156905Y-11626143D02*
X1175952Y-11635667D01*
X1175952Y-11635667D02*
X1185476Y-11654714D01*
X1185476Y-11654714D02*
X1185476Y-11759476D01*
X1185476Y-11654714D02*
X1195000Y-11635667D01*
X1195000Y-11635667D02*
X1214048Y-11626143D01*
X1214048Y-11626143D02*
X1242619Y-11626143D01*
X1242619Y-11626143D02*
X1261667Y-11635667D01*
X1261667Y-11635667D02*
X1271191Y-11654714D01*
X1271191Y-11654714D02*
X1271191Y-11759476D01*
X1366429Y-11759476D02*
X1366429Y-11626143D01*
X1366429Y-11645190D02*
X1375952Y-11635667D01*
X1375952Y-11635667D02*
X1395000Y-11626143D01*
X1395000Y-11626143D02*
X1423571Y-11626143D01*
X1423571Y-11626143D02*
X1442619Y-11635667D01*
X1442619Y-11635667D02*
X1452143Y-11654714D01*
X1452143Y-11654714D02*
X1452143Y-11759476D01*
X1452143Y-11654714D02*
X1461667Y-11635667D01*
X1461667Y-11635667D02*
X1480714Y-11626143D01*
X1480714Y-11626143D02*
X1509286Y-11626143D01*
X1509286Y-11626143D02*
X1528333Y-11635667D01*
X1528333Y-11635667D02*
X1537857Y-11654714D01*
X1537857Y-11654714D02*
X1537857Y-11759476D01*
X1895952Y-11549952D02*
X1724524Y-11807095D01*
X2120714Y-11559476D02*
X2139762Y-11559476D01*
X2139762Y-11559476D02*
X2158810Y-11569000D01*
X2158810Y-11569000D02*
X2168333Y-11578524D01*
X2168333Y-11578524D02*
X2177857Y-11597571D01*
X2177857Y-11597571D02*
X2187381Y-11635667D01*
X2187381Y-11635667D02*
X2187381Y-11683286D01*
X2187381Y-11683286D02*
X2177857Y-11721381D01*
X2177857Y-11721381D02*
X2168333Y-11740428D01*
X2168333Y-11740428D02*
X2158810Y-11749952D01*
X2158810Y-11749952D02*
X2139762Y-11759476D01*
X2139762Y-11759476D02*
X2120714Y-11759476D01*
X2120714Y-11759476D02*
X2101667Y-11749952D01*
X2101667Y-11749952D02*
X2092143Y-11740428D01*
X2092143Y-11740428D02*
X2082619Y-11721381D01*
X2082619Y-11721381D02*
X2073095Y-11683286D01*
X2073095Y-11683286D02*
X2073095Y-11635667D01*
X2073095Y-11635667D02*
X2082619Y-11597571D01*
X2082619Y-11597571D02*
X2092143Y-11578524D01*
X2092143Y-11578524D02*
X2101667Y-11569000D01*
X2101667Y-11569000D02*
X2120714Y-11559476D01*
X2273095Y-11740428D02*
X2282619Y-11749952D01*
X2282619Y-11749952D02*
X2273095Y-11759476D01*
X2273095Y-11759476D02*
X2263572Y-11749952D01*
X2263572Y-11749952D02*
X2273095Y-11740428D01*
X2273095Y-11740428D02*
X2273095Y-11759476D01*
X2473095Y-11759476D02*
X2358810Y-11759476D01*
X2415952Y-11759476D02*
X2415952Y-11559476D01*
X2415952Y-11559476D02*
X2396905Y-11588048D01*
X2396905Y-11588048D02*
X2377857Y-11607095D01*
X2377857Y-11607095D02*
X2358810Y-11616619D01*
X2663572Y-11759476D02*
X2549286Y-11759476D01*
X2606429Y-11759476D02*
X2606429Y-11559476D01*
X2606429Y-11559476D02*
X2587381Y-11588048D01*
X2587381Y-11588048D02*
X2568333Y-11607095D01*
X2568333Y-11607095D02*
X2549286Y-11616619D01*
X2777857Y-11645190D02*
X2758810Y-11635667D01*
X2758810Y-11635667D02*
X2749286Y-11626143D01*
X2749286Y-11626143D02*
X2739762Y-11607095D01*
X2739762Y-11607095D02*
X2739762Y-11597571D01*
X2739762Y-11597571D02*
X2749286Y-11578524D01*
X2749286Y-11578524D02*
X2758810Y-11569000D01*
X2758810Y-11569000D02*
X2777857Y-11559476D01*
X2777857Y-11559476D02*
X2815952Y-11559476D01*
X2815952Y-11559476D02*
X2835000Y-11569000D01*
X2835000Y-11569000D02*
X2844524Y-11578524D01*
X2844524Y-11578524D02*
X2854048Y-11597571D01*
X2854048Y-11597571D02*
X2854048Y-11607095D01*
X2854048Y-11607095D02*
X2844524Y-11626143D01*
X2844524Y-11626143D02*
X2835000Y-11635667D01*
X2835000Y-11635667D02*
X2815952Y-11645190D01*
X2815952Y-11645190D02*
X2777857Y-11645190D01*
X2777857Y-11645190D02*
X2758810Y-11654714D01*
X2758810Y-11654714D02*
X2749286Y-11664238D01*
X2749286Y-11664238D02*
X2739762Y-11683286D01*
X2739762Y-11683286D02*
X2739762Y-11721381D01*
X2739762Y-11721381D02*
X2749286Y-11740428D01*
X2749286Y-11740428D02*
X2758810Y-11749952D01*
X2758810Y-11749952D02*
X2777857Y-11759476D01*
X2777857Y-11759476D02*
X2815952Y-11759476D01*
X2815952Y-11759476D02*
X2835000Y-11749952D01*
X2835000Y-11749952D02*
X2844524Y-11740428D01*
X2844524Y-11740428D02*
X2854048Y-11721381D01*
X2854048Y-11721381D02*
X2854048Y-11683286D01*
X2854048Y-11683286D02*
X2844524Y-11664238D01*
X2844524Y-11664238D02*
X2835000Y-11654714D01*
X2835000Y-11654714D02*
X2815952Y-11645190D01*
X3044524Y-11759476D02*
X2930238Y-11759476D01*
X2987381Y-11759476D02*
X2987381Y-11559476D01*
X2987381Y-11559476D02*
X2968333Y-11588048D01*
X2968333Y-11588048D02*
X2949286Y-11607095D01*
X2949286Y-11607095D02*
X2930238Y-11616619D01*
X3120714Y-11559476D02*
X3120714Y-11597571D01*
X3196905Y-11559476D02*
X3196905Y-11597571D01*
X3459762Y-11835667D02*
X3450238Y-11826143D01*
X3450238Y-11826143D02*
X3431191Y-11797571D01*
X3431191Y-11797571D02*
X3421667Y-11778524D01*
X3421667Y-11778524D02*
X3412143Y-11749952D01*
X3412143Y-11749952D02*
X3402619Y-11702333D01*
X3402619Y-11702333D02*
X3402619Y-11664238D01*
X3402619Y-11664238D02*
X3412143Y-11616619D01*
X3412143Y-11616619D02*
X3421667Y-11588048D01*
X3421667Y-11588048D02*
X3431191Y-11569000D01*
X3431191Y-11569000D02*
X3450238Y-11540428D01*
X3450238Y-11540428D02*
X3459762Y-11530905D01*
X3631191Y-11559476D02*
X3535952Y-11559476D01*
X3535952Y-11559476D02*
X3526429Y-11654714D01*
X3526429Y-11654714D02*
X3535952Y-11645190D01*
X3535952Y-11645190D02*
X3555000Y-11635667D01*
X3555000Y-11635667D02*
X3602619Y-11635667D01*
X3602619Y-11635667D02*
X3621667Y-11645190D01*
X3621667Y-11645190D02*
X3631191Y-11654714D01*
X3631191Y-11654714D02*
X3640714Y-11673762D01*
X3640714Y-11673762D02*
X3640714Y-11721381D01*
X3640714Y-11721381D02*
X3631191Y-11740428D01*
X3631191Y-11740428D02*
X3621667Y-11749952D01*
X3621667Y-11749952D02*
X3602619Y-11759476D01*
X3602619Y-11759476D02*
X3555000Y-11759476D01*
X3555000Y-11759476D02*
X3535952Y-11749952D01*
X3535952Y-11749952D02*
X3526429Y-11740428D01*
X3764524Y-11559476D02*
X3783572Y-11559476D01*
X3783572Y-11559476D02*
X3802619Y-11569000D01*
X3802619Y-11569000D02*
X3812143Y-11578524D01*
X3812143Y-11578524D02*
X3821667Y-11597571D01*
X3821667Y-11597571D02*
X3831191Y-11635667D01*
X3831191Y-11635667D02*
X3831191Y-11683286D01*
X3831191Y-11683286D02*
X3821667Y-11721381D01*
X3821667Y-11721381D02*
X3812143Y-11740428D01*
X3812143Y-11740428D02*
X3802619Y-11749952D01*
X3802619Y-11749952D02*
X3783572Y-11759476D01*
X3783572Y-11759476D02*
X3764524Y-11759476D01*
X3764524Y-11759476D02*
X3745476Y-11749952D01*
X3745476Y-11749952D02*
X3735952Y-11740428D01*
X3735952Y-11740428D02*
X3726429Y-11721381D01*
X3726429Y-11721381D02*
X3716905Y-11683286D01*
X3716905Y-11683286D02*
X3716905Y-11635667D01*
X3716905Y-11635667D02*
X3726429Y-11597571D01*
X3726429Y-11597571D02*
X3735952Y-11578524D01*
X3735952Y-11578524D02*
X3745476Y-11569000D01*
X3745476Y-11569000D02*
X3764524Y-11559476D01*
X4036905Y-11759476D02*
X4036905Y-11559476D01*
X4122619Y-11759476D02*
X4122619Y-11654714D01*
X4122619Y-11654714D02*
X4113095Y-11635667D01*
X4113095Y-11635667D02*
X4094048Y-11626143D01*
X4094048Y-11626143D02*
X4065476Y-11626143D01*
X4065476Y-11626143D02*
X4046429Y-11635667D01*
X4046429Y-11635667D02*
X4036905Y-11645190D01*
X4246429Y-11759476D02*
X4227381Y-11749952D01*
X4227381Y-11749952D02*
X4217857Y-11740428D01*
X4217857Y-11740428D02*
X4208334Y-11721381D01*
X4208334Y-11721381D02*
X4208334Y-11664238D01*
X4208334Y-11664238D02*
X4217857Y-11645190D01*
X4217857Y-11645190D02*
X4227381Y-11635667D01*
X4227381Y-11635667D02*
X4246429Y-11626143D01*
X4246429Y-11626143D02*
X4275000Y-11626143D01*
X4275000Y-11626143D02*
X4294048Y-11635667D01*
X4294048Y-11635667D02*
X4303572Y-11645190D01*
X4303572Y-11645190D02*
X4313095Y-11664238D01*
X4313095Y-11664238D02*
X4313095Y-11721381D01*
X4313095Y-11721381D02*
X4303572Y-11740428D01*
X4303572Y-11740428D02*
X4294048Y-11749952D01*
X4294048Y-11749952D02*
X4275000Y-11759476D01*
X4275000Y-11759476D02*
X4246429Y-11759476D01*
X4427381Y-11759476D02*
X4408334Y-11749952D01*
X4408334Y-11749952D02*
X4398810Y-11730905D01*
X4398810Y-11730905D02*
X4398810Y-11559476D01*
X4579762Y-11749952D02*
X4560715Y-11759476D01*
X4560715Y-11759476D02*
X4522619Y-11759476D01*
X4522619Y-11759476D02*
X4503572Y-11749952D01*
X4503572Y-11749952D02*
X4494048Y-11730905D01*
X4494048Y-11730905D02*
X4494048Y-11654714D01*
X4494048Y-11654714D02*
X4503572Y-11635667D01*
X4503572Y-11635667D02*
X4522619Y-11626143D01*
X4522619Y-11626143D02*
X4560715Y-11626143D01*
X4560715Y-11626143D02*
X4579762Y-11635667D01*
X4579762Y-11635667D02*
X4589286Y-11654714D01*
X4589286Y-11654714D02*
X4589286Y-11673762D01*
X4589286Y-11673762D02*
X4494048Y-11692809D01*
X4665476Y-11749952D02*
X4684524Y-11759476D01*
X4684524Y-11759476D02*
X4722619Y-11759476D01*
X4722619Y-11759476D02*
X4741667Y-11749952D01*
X4741667Y-11749952D02*
X4751191Y-11730905D01*
X4751191Y-11730905D02*
X4751191Y-11721381D01*
X4751191Y-11721381D02*
X4741667Y-11702333D01*
X4741667Y-11702333D02*
X4722619Y-11692809D01*
X4722619Y-11692809D02*
X4694048Y-11692809D01*
X4694048Y-11692809D02*
X4675000Y-11683286D01*
X4675000Y-11683286D02*
X4665476Y-11664238D01*
X4665476Y-11664238D02*
X4665476Y-11654714D01*
X4665476Y-11654714D02*
X4675000Y-11635667D01*
X4675000Y-11635667D02*
X4694048Y-11626143D01*
X4694048Y-11626143D02*
X4722619Y-11626143D01*
X4722619Y-11626143D02*
X4741667Y-11635667D01*
X4817857Y-11835667D02*
X4827381Y-11826143D01*
X4827381Y-11826143D02*
X4846429Y-11797571D01*
X4846429Y-11797571D02*
X4855953Y-11778524D01*
X4855953Y-11778524D02*
X4865476Y-11749952D01*
X4865476Y-11749952D02*
X4875000Y-11702333D01*
X4875000Y-11702333D02*
X4875000Y-11664238D01*
X4875000Y-11664238D02*
X4865476Y-11616619D01*
X4865476Y-11616619D02*
X4855953Y-11588048D01*
X4855953Y-11588048D02*
X4846429Y-11569000D01*
X4846429Y-11569000D02*
X4827381Y-11540428D01*
X4827381Y-11540428D02*
X4817857Y-11530905D01*
X5147381Y-11835667D02*
X5137857Y-11826143D01*
X5137857Y-11826143D02*
X5118810Y-11797571D01*
X5118810Y-11797571D02*
X5109286Y-11778524D01*
X5109286Y-11778524D02*
X5099762Y-11749952D01*
X5099762Y-11749952D02*
X5090238Y-11702333D01*
X5090238Y-11702333D02*
X5090238Y-11664238D01*
X5090238Y-11664238D02*
X5099762Y-11616619D01*
X5099762Y-11616619D02*
X5109286Y-11588048D01*
X5109286Y-11588048D02*
X5118810Y-11569000D01*
X5118810Y-11569000D02*
X5137857Y-11540428D01*
X5137857Y-11540428D02*
X5147381Y-11530905D01*
X5223572Y-11626143D02*
X5223572Y-11759476D01*
X5223572Y-11645190D02*
X5233095Y-11635667D01*
X5233095Y-11635667D02*
X5252143Y-11626143D01*
X5252143Y-11626143D02*
X5280715Y-11626143D01*
X5280715Y-11626143D02*
X5299762Y-11635667D01*
X5299762Y-11635667D02*
X5309286Y-11654714D01*
X5309286Y-11654714D02*
X5309286Y-11759476D01*
X5433095Y-11759476D02*
X5414048Y-11749952D01*
X5414048Y-11749952D02*
X5404524Y-11740428D01*
X5404524Y-11740428D02*
X5395000Y-11721381D01*
X5395000Y-11721381D02*
X5395000Y-11664238D01*
X5395000Y-11664238D02*
X5404524Y-11645190D01*
X5404524Y-11645190D02*
X5414048Y-11635667D01*
X5414048Y-11635667D02*
X5433095Y-11626143D01*
X5433095Y-11626143D02*
X5461667Y-11626143D01*
X5461667Y-11626143D02*
X5480715Y-11635667D01*
X5480715Y-11635667D02*
X5490238Y-11645190D01*
X5490238Y-11645190D02*
X5499762Y-11664238D01*
X5499762Y-11664238D02*
X5499762Y-11721381D01*
X5499762Y-11721381D02*
X5490238Y-11740428D01*
X5490238Y-11740428D02*
X5480715Y-11749952D01*
X5480715Y-11749952D02*
X5461667Y-11759476D01*
X5461667Y-11759476D02*
X5433095Y-11759476D01*
X5556905Y-11626143D02*
X5633095Y-11626143D01*
X5585476Y-11559476D02*
X5585476Y-11730905D01*
X5585476Y-11730905D02*
X5595000Y-11749952D01*
X5595000Y-11749952D02*
X5614048Y-11759476D01*
X5614048Y-11759476D02*
X5633095Y-11759476D01*
X5819762Y-11626143D02*
X5819762Y-11826143D01*
X5819762Y-11635667D02*
X5838810Y-11626143D01*
X5838810Y-11626143D02*
X5876905Y-11626143D01*
X5876905Y-11626143D02*
X5895953Y-11635667D01*
X5895953Y-11635667D02*
X5905476Y-11645190D01*
X5905476Y-11645190D02*
X5915000Y-11664238D01*
X5915000Y-11664238D02*
X5915000Y-11721381D01*
X5915000Y-11721381D02*
X5905476Y-11740428D01*
X5905476Y-11740428D02*
X5895953Y-11749952D01*
X5895953Y-11749952D02*
X5876905Y-11759476D01*
X5876905Y-11759476D02*
X5838810Y-11759476D01*
X5838810Y-11759476D02*
X5819762Y-11749952D01*
X6029286Y-11759476D02*
X6010238Y-11749952D01*
X6010238Y-11749952D02*
X6000714Y-11730905D01*
X6000714Y-11730905D02*
X6000714Y-11559476D01*
X6191191Y-11759476D02*
X6191191Y-11654714D01*
X6191191Y-11654714D02*
X6181667Y-11635667D01*
X6181667Y-11635667D02*
X6162619Y-11626143D01*
X6162619Y-11626143D02*
X6124524Y-11626143D01*
X6124524Y-11626143D02*
X6105476Y-11635667D01*
X6191191Y-11749952D02*
X6172143Y-11759476D01*
X6172143Y-11759476D02*
X6124524Y-11759476D01*
X6124524Y-11759476D02*
X6105476Y-11749952D01*
X6105476Y-11749952D02*
X6095953Y-11730905D01*
X6095953Y-11730905D02*
X6095953Y-11711857D01*
X6095953Y-11711857D02*
X6105476Y-11692809D01*
X6105476Y-11692809D02*
X6124524Y-11683286D01*
X6124524Y-11683286D02*
X6172143Y-11683286D01*
X6172143Y-11683286D02*
X6191191Y-11673762D01*
X6257857Y-11626143D02*
X6334048Y-11626143D01*
X6286429Y-11559476D02*
X6286429Y-11730905D01*
X6286429Y-11730905D02*
X6295953Y-11749952D01*
X6295953Y-11749952D02*
X6315000Y-11759476D01*
X6315000Y-11759476D02*
X6334048Y-11759476D01*
X6476905Y-11749952D02*
X6457857Y-11759476D01*
X6457857Y-11759476D02*
X6419762Y-11759476D01*
X6419762Y-11759476D02*
X6400714Y-11749952D01*
X6400714Y-11749952D02*
X6391191Y-11730905D01*
X6391191Y-11730905D02*
X6391191Y-11654714D01*
X6391191Y-11654714D02*
X6400714Y-11635667D01*
X6400714Y-11635667D02*
X6419762Y-11626143D01*
X6419762Y-11626143D02*
X6457857Y-11626143D01*
X6457857Y-11626143D02*
X6476905Y-11635667D01*
X6476905Y-11635667D02*
X6486429Y-11654714D01*
X6486429Y-11654714D02*
X6486429Y-11673762D01*
X6486429Y-11673762D02*
X6391191Y-11692809D01*
X6657857Y-11759476D02*
X6657857Y-11559476D01*
X6657857Y-11749952D02*
X6638810Y-11759476D01*
X6638810Y-11759476D02*
X6600714Y-11759476D01*
X6600714Y-11759476D02*
X6581667Y-11749952D01*
X6581667Y-11749952D02*
X6572143Y-11740428D01*
X6572143Y-11740428D02*
X6562619Y-11721381D01*
X6562619Y-11721381D02*
X6562619Y-11664238D01*
X6562619Y-11664238D02*
X6572143Y-11645190D01*
X6572143Y-11645190D02*
X6581667Y-11635667D01*
X6581667Y-11635667D02*
X6600714Y-11626143D01*
X6600714Y-11626143D02*
X6638810Y-11626143D01*
X6638810Y-11626143D02*
X6657857Y-11635667D01*
X6734048Y-11835667D02*
X6743572Y-11826143D01*
X6743572Y-11826143D02*
X6762619Y-11797571D01*
X6762619Y-11797571D02*
X6772143Y-11778524D01*
X6772143Y-11778524D02*
X6781667Y-11749952D01*
X6781667Y-11749952D02*
X6791191Y-11702333D01*
X6791191Y-11702333D02*
X6791191Y-11664238D01*
X6791191Y-11664238D02*
X6781667Y-11616619D01*
X6781667Y-11616619D02*
X6772143Y-11588048D01*
X6772143Y-11588048D02*
X6762619Y-11569000D01*
X6762619Y-11569000D02*
X6743572Y-11540428D01*
X6743572Y-11540428D02*
X6734048Y-11530905D01*
X-205000Y-11906000D02*
X-5000Y-12106000D01*
X-5000Y-11906000D02*
X-205000Y-12106000D01*
X-34289Y-12076711D02*
X-34289Y-11935289D01*
X-175711Y-11935289D01*
X-175711Y-12076711D01*
X-34289Y-12076711D01*
X223571Y-11879476D02*
X347381Y-11879476D01*
X347381Y-11879476D02*
X280714Y-11955667D01*
X280714Y-11955667D02*
X309286Y-11955667D01*
X309286Y-11955667D02*
X328333Y-11965190D01*
X328333Y-11965190D02*
X337857Y-11974714D01*
X337857Y-11974714D02*
X347381Y-11993762D01*
X347381Y-11993762D02*
X347381Y-12041381D01*
X347381Y-12041381D02*
X337857Y-12060428D01*
X337857Y-12060428D02*
X328333Y-12069952D01*
X328333Y-12069952D02*
X309286Y-12079476D01*
X309286Y-12079476D02*
X252143Y-12079476D01*
X252143Y-12079476D02*
X233095Y-12069952D01*
X233095Y-12069952D02*
X223571Y-12060428D01*
X433095Y-12060428D02*
X442619Y-12069952D01*
X442619Y-12069952D02*
X433095Y-12079476D01*
X433095Y-12079476D02*
X423571Y-12069952D01*
X423571Y-12069952D02*
X433095Y-12060428D01*
X433095Y-12060428D02*
X433095Y-12079476D01*
X537857Y-12079476D02*
X575952Y-12079476D01*
X575952Y-12079476D02*
X595000Y-12069952D01*
X595000Y-12069952D02*
X604524Y-12060428D01*
X604524Y-12060428D02*
X623571Y-12031857D01*
X623571Y-12031857D02*
X633095Y-11993762D01*
X633095Y-11993762D02*
X633095Y-11917571D01*
X633095Y-11917571D02*
X623571Y-11898524D01*
X623571Y-11898524D02*
X614048Y-11889000D01*
X614048Y-11889000D02*
X595000Y-11879476D01*
X595000Y-11879476D02*
X556905Y-11879476D01*
X556905Y-11879476D02*
X537857Y-11889000D01*
X537857Y-11889000D02*
X528333Y-11898524D01*
X528333Y-11898524D02*
X518809Y-11917571D01*
X518809Y-11917571D02*
X518809Y-11965190D01*
X518809Y-11965190D02*
X528333Y-11984238D01*
X528333Y-11984238D02*
X537857Y-11993762D01*
X537857Y-11993762D02*
X556905Y-12003286D01*
X556905Y-12003286D02*
X595000Y-12003286D01*
X595000Y-12003286D02*
X614048Y-11993762D01*
X614048Y-11993762D02*
X623571Y-11984238D01*
X623571Y-11984238D02*
X633095Y-11965190D01*
X747381Y-11965190D02*
X728333Y-11955667D01*
X728333Y-11955667D02*
X718809Y-11946143D01*
X718809Y-11946143D02*
X709286Y-11927095D01*
X709286Y-11927095D02*
X709286Y-11917571D01*
X709286Y-11917571D02*
X718809Y-11898524D01*
X718809Y-11898524D02*
X728333Y-11889000D01*
X728333Y-11889000D02*
X747381Y-11879476D01*
X747381Y-11879476D02*
X785476Y-11879476D01*
X785476Y-11879476D02*
X804524Y-11889000D01*
X804524Y-11889000D02*
X814048Y-11898524D01*
X814048Y-11898524D02*
X823571Y-11917571D01*
X823571Y-11917571D02*
X823571Y-11927095D01*
X823571Y-11927095D02*
X814048Y-11946143D01*
X814048Y-11946143D02*
X804524Y-11955667D01*
X804524Y-11955667D02*
X785476Y-11965190D01*
X785476Y-11965190D02*
X747381Y-11965190D01*
X747381Y-11965190D02*
X728333Y-11974714D01*
X728333Y-11974714D02*
X718809Y-11984238D01*
X718809Y-11984238D02*
X709286Y-12003286D01*
X709286Y-12003286D02*
X709286Y-12041381D01*
X709286Y-12041381D02*
X718809Y-12060428D01*
X718809Y-12060428D02*
X728333Y-12069952D01*
X728333Y-12069952D02*
X747381Y-12079476D01*
X747381Y-12079476D02*
X785476Y-12079476D01*
X785476Y-12079476D02*
X804524Y-12069952D01*
X804524Y-12069952D02*
X814048Y-12060428D01*
X814048Y-12060428D02*
X823571Y-12041381D01*
X823571Y-12041381D02*
X823571Y-12003286D01*
X823571Y-12003286D02*
X814048Y-11984238D01*
X814048Y-11984238D02*
X804524Y-11974714D01*
X804524Y-11974714D02*
X785476Y-11965190D01*
X937857Y-11965190D02*
X918809Y-11955667D01*
X918809Y-11955667D02*
X909286Y-11946143D01*
X909286Y-11946143D02*
X899762Y-11927095D01*
X899762Y-11927095D02*
X899762Y-11917571D01*
X899762Y-11917571D02*
X909286Y-11898524D01*
X909286Y-11898524D02*
X918809Y-11889000D01*
X918809Y-11889000D02*
X937857Y-11879476D01*
X937857Y-11879476D02*
X975952Y-11879476D01*
X975952Y-11879476D02*
X995000Y-11889000D01*
X995000Y-11889000D02*
X1004524Y-11898524D01*
X1004524Y-11898524D02*
X1014048Y-11917571D01*
X1014048Y-11917571D02*
X1014048Y-11927095D01*
X1014048Y-11927095D02*
X1004524Y-11946143D01*
X1004524Y-11946143D02*
X995000Y-11955667D01*
X995000Y-11955667D02*
X975952Y-11965190D01*
X975952Y-11965190D02*
X937857Y-11965190D01*
X937857Y-11965190D02*
X918809Y-11974714D01*
X918809Y-11974714D02*
X909286Y-11984238D01*
X909286Y-11984238D02*
X899762Y-12003286D01*
X899762Y-12003286D02*
X899762Y-12041381D01*
X899762Y-12041381D02*
X909286Y-12060428D01*
X909286Y-12060428D02*
X918809Y-12069952D01*
X918809Y-12069952D02*
X937857Y-12079476D01*
X937857Y-12079476D02*
X975952Y-12079476D01*
X975952Y-12079476D02*
X995000Y-12069952D01*
X995000Y-12069952D02*
X1004524Y-12060428D01*
X1004524Y-12060428D02*
X1014048Y-12041381D01*
X1014048Y-12041381D02*
X1014048Y-12003286D01*
X1014048Y-12003286D02*
X1004524Y-11984238D01*
X1004524Y-11984238D02*
X995000Y-11974714D01*
X995000Y-11974714D02*
X975952Y-11965190D01*
X1099762Y-12079476D02*
X1099762Y-11946143D01*
X1099762Y-11965190D02*
X1109286Y-11955667D01*
X1109286Y-11955667D02*
X1128333Y-11946143D01*
X1128333Y-11946143D02*
X1156905Y-11946143D01*
X1156905Y-11946143D02*
X1175952Y-11955667D01*
X1175952Y-11955667D02*
X1185476Y-11974714D01*
X1185476Y-11974714D02*
X1185476Y-12079476D01*
X1185476Y-11974714D02*
X1195000Y-11955667D01*
X1195000Y-11955667D02*
X1214048Y-11946143D01*
X1214048Y-11946143D02*
X1242619Y-11946143D01*
X1242619Y-11946143D02*
X1261667Y-11955667D01*
X1261667Y-11955667D02*
X1271191Y-11974714D01*
X1271191Y-11974714D02*
X1271191Y-12079476D01*
X1366429Y-12079476D02*
X1366429Y-11946143D01*
X1366429Y-11965190D02*
X1375952Y-11955667D01*
X1375952Y-11955667D02*
X1395000Y-11946143D01*
X1395000Y-11946143D02*
X1423571Y-11946143D01*
X1423571Y-11946143D02*
X1442619Y-11955667D01*
X1442619Y-11955667D02*
X1452143Y-11974714D01*
X1452143Y-11974714D02*
X1452143Y-12079476D01*
X1452143Y-11974714D02*
X1461667Y-11955667D01*
X1461667Y-11955667D02*
X1480714Y-11946143D01*
X1480714Y-11946143D02*
X1509286Y-11946143D01*
X1509286Y-11946143D02*
X1528333Y-11955667D01*
X1528333Y-11955667D02*
X1537857Y-11974714D01*
X1537857Y-11974714D02*
X1537857Y-12079476D01*
X1895952Y-11869952D02*
X1724524Y-12127095D01*
X2120714Y-11879476D02*
X2139762Y-11879476D01*
X2139762Y-11879476D02*
X2158810Y-11889000D01*
X2158810Y-11889000D02*
X2168333Y-11898524D01*
X2168333Y-11898524D02*
X2177857Y-11917571D01*
X2177857Y-11917571D02*
X2187381Y-11955667D01*
X2187381Y-11955667D02*
X2187381Y-12003286D01*
X2187381Y-12003286D02*
X2177857Y-12041381D01*
X2177857Y-12041381D02*
X2168333Y-12060428D01*
X2168333Y-12060428D02*
X2158810Y-12069952D01*
X2158810Y-12069952D02*
X2139762Y-12079476D01*
X2139762Y-12079476D02*
X2120714Y-12079476D01*
X2120714Y-12079476D02*
X2101667Y-12069952D01*
X2101667Y-12069952D02*
X2092143Y-12060428D01*
X2092143Y-12060428D02*
X2082619Y-12041381D01*
X2082619Y-12041381D02*
X2073095Y-12003286D01*
X2073095Y-12003286D02*
X2073095Y-11955667D01*
X2073095Y-11955667D02*
X2082619Y-11917571D01*
X2082619Y-11917571D02*
X2092143Y-11898524D01*
X2092143Y-11898524D02*
X2101667Y-11889000D01*
X2101667Y-11889000D02*
X2120714Y-11879476D01*
X2273095Y-12060428D02*
X2282619Y-12069952D01*
X2282619Y-12069952D02*
X2273095Y-12079476D01*
X2273095Y-12079476D02*
X2263572Y-12069952D01*
X2263572Y-12069952D02*
X2273095Y-12060428D01*
X2273095Y-12060428D02*
X2273095Y-12079476D01*
X2473095Y-12079476D02*
X2358810Y-12079476D01*
X2415952Y-12079476D02*
X2415952Y-11879476D01*
X2415952Y-11879476D02*
X2396905Y-11908048D01*
X2396905Y-11908048D02*
X2377857Y-11927095D01*
X2377857Y-11927095D02*
X2358810Y-11936619D01*
X2654048Y-11879476D02*
X2558810Y-11879476D01*
X2558810Y-11879476D02*
X2549286Y-11974714D01*
X2549286Y-11974714D02*
X2558810Y-11965190D01*
X2558810Y-11965190D02*
X2577857Y-11955667D01*
X2577857Y-11955667D02*
X2625476Y-11955667D01*
X2625476Y-11955667D02*
X2644524Y-11965190D01*
X2644524Y-11965190D02*
X2654048Y-11974714D01*
X2654048Y-11974714D02*
X2663572Y-11993762D01*
X2663572Y-11993762D02*
X2663572Y-12041381D01*
X2663572Y-12041381D02*
X2654048Y-12060428D01*
X2654048Y-12060428D02*
X2644524Y-12069952D01*
X2644524Y-12069952D02*
X2625476Y-12079476D01*
X2625476Y-12079476D02*
X2577857Y-12079476D01*
X2577857Y-12079476D02*
X2558810Y-12069952D01*
X2558810Y-12069952D02*
X2549286Y-12060428D01*
X2730238Y-11879476D02*
X2863571Y-11879476D01*
X2863571Y-11879476D02*
X2777857Y-12079476D01*
X2977857Y-11879476D02*
X2996905Y-11879476D01*
X2996905Y-11879476D02*
X3015952Y-11889000D01*
X3015952Y-11889000D02*
X3025476Y-11898524D01*
X3025476Y-11898524D02*
X3035000Y-11917571D01*
X3035000Y-11917571D02*
X3044524Y-11955667D01*
X3044524Y-11955667D02*
X3044524Y-12003286D01*
X3044524Y-12003286D02*
X3035000Y-12041381D01*
X3035000Y-12041381D02*
X3025476Y-12060428D01*
X3025476Y-12060428D02*
X3015952Y-12069952D01*
X3015952Y-12069952D02*
X2996905Y-12079476D01*
X2996905Y-12079476D02*
X2977857Y-12079476D01*
X2977857Y-12079476D02*
X2958810Y-12069952D01*
X2958810Y-12069952D02*
X2949286Y-12060428D01*
X2949286Y-12060428D02*
X2939762Y-12041381D01*
X2939762Y-12041381D02*
X2930238Y-12003286D01*
X2930238Y-12003286D02*
X2930238Y-11955667D01*
X2930238Y-11955667D02*
X2939762Y-11917571D01*
X2939762Y-11917571D02*
X2949286Y-11898524D01*
X2949286Y-11898524D02*
X2958810Y-11889000D01*
X2958810Y-11889000D02*
X2977857Y-11879476D01*
X3120714Y-11879476D02*
X3120714Y-11917571D01*
X3196905Y-11879476D02*
X3196905Y-11917571D01*
X3459762Y-12155667D02*
X3450238Y-12146143D01*
X3450238Y-12146143D02*
X3431191Y-12117571D01*
X3431191Y-12117571D02*
X3421667Y-12098524D01*
X3421667Y-12098524D02*
X3412143Y-12069952D01*
X3412143Y-12069952D02*
X3402619Y-12022333D01*
X3402619Y-12022333D02*
X3402619Y-11984238D01*
X3402619Y-11984238D02*
X3412143Y-11936619D01*
X3412143Y-11936619D02*
X3421667Y-11908048D01*
X3421667Y-11908048D02*
X3431191Y-11889000D01*
X3431191Y-11889000D02*
X3450238Y-11860428D01*
X3450238Y-11860428D02*
X3459762Y-11850905D01*
X3526429Y-11898524D02*
X3535952Y-11889000D01*
X3535952Y-11889000D02*
X3555000Y-11879476D01*
X3555000Y-11879476D02*
X3602619Y-11879476D01*
X3602619Y-11879476D02*
X3621667Y-11889000D01*
X3621667Y-11889000D02*
X3631191Y-11898524D01*
X3631191Y-11898524D02*
X3640714Y-11917571D01*
X3640714Y-11917571D02*
X3640714Y-11936619D01*
X3640714Y-11936619D02*
X3631191Y-11965190D01*
X3631191Y-11965190D02*
X3516905Y-12079476D01*
X3516905Y-12079476D02*
X3640714Y-12079476D01*
X3821667Y-11879476D02*
X3726429Y-11879476D01*
X3726429Y-11879476D02*
X3716905Y-11974714D01*
X3716905Y-11974714D02*
X3726429Y-11965190D01*
X3726429Y-11965190D02*
X3745476Y-11955667D01*
X3745476Y-11955667D02*
X3793095Y-11955667D01*
X3793095Y-11955667D02*
X3812143Y-11965190D01*
X3812143Y-11965190D02*
X3821667Y-11974714D01*
X3821667Y-11974714D02*
X3831191Y-11993762D01*
X3831191Y-11993762D02*
X3831191Y-12041381D01*
X3831191Y-12041381D02*
X3821667Y-12060428D01*
X3821667Y-12060428D02*
X3812143Y-12069952D01*
X3812143Y-12069952D02*
X3793095Y-12079476D01*
X3793095Y-12079476D02*
X3745476Y-12079476D01*
X3745476Y-12079476D02*
X3726429Y-12069952D01*
X3726429Y-12069952D02*
X3716905Y-12060428D01*
X4036905Y-12079476D02*
X4036905Y-11879476D01*
X4122619Y-12079476D02*
X4122619Y-11974714D01*
X4122619Y-11974714D02*
X4113095Y-11955667D01*
X4113095Y-11955667D02*
X4094048Y-11946143D01*
X4094048Y-11946143D02*
X4065476Y-11946143D01*
X4065476Y-11946143D02*
X4046429Y-11955667D01*
X4046429Y-11955667D02*
X4036905Y-11965190D01*
X4246429Y-12079476D02*
X4227381Y-12069952D01*
X4227381Y-12069952D02*
X4217857Y-12060428D01*
X4217857Y-12060428D02*
X4208334Y-12041381D01*
X4208334Y-12041381D02*
X4208334Y-11984238D01*
X4208334Y-11984238D02*
X4217857Y-11965190D01*
X4217857Y-11965190D02*
X4227381Y-11955667D01*
X4227381Y-11955667D02*
X4246429Y-11946143D01*
X4246429Y-11946143D02*
X4275000Y-11946143D01*
X4275000Y-11946143D02*
X4294048Y-11955667D01*
X4294048Y-11955667D02*
X4303572Y-11965190D01*
X4303572Y-11965190D02*
X4313095Y-11984238D01*
X4313095Y-11984238D02*
X4313095Y-12041381D01*
X4313095Y-12041381D02*
X4303572Y-12060428D01*
X4303572Y-12060428D02*
X4294048Y-12069952D01*
X4294048Y-12069952D02*
X4275000Y-12079476D01*
X4275000Y-12079476D02*
X4246429Y-12079476D01*
X4427381Y-12079476D02*
X4408334Y-12069952D01*
X4408334Y-12069952D02*
X4398810Y-12050905D01*
X4398810Y-12050905D02*
X4398810Y-11879476D01*
X4579762Y-12069952D02*
X4560715Y-12079476D01*
X4560715Y-12079476D02*
X4522619Y-12079476D01*
X4522619Y-12079476D02*
X4503572Y-12069952D01*
X4503572Y-12069952D02*
X4494048Y-12050905D01*
X4494048Y-12050905D02*
X4494048Y-11974714D01*
X4494048Y-11974714D02*
X4503572Y-11955667D01*
X4503572Y-11955667D02*
X4522619Y-11946143D01*
X4522619Y-11946143D02*
X4560715Y-11946143D01*
X4560715Y-11946143D02*
X4579762Y-11955667D01*
X4579762Y-11955667D02*
X4589286Y-11974714D01*
X4589286Y-11974714D02*
X4589286Y-11993762D01*
X4589286Y-11993762D02*
X4494048Y-12012809D01*
X4665476Y-12069952D02*
X4684524Y-12079476D01*
X4684524Y-12079476D02*
X4722619Y-12079476D01*
X4722619Y-12079476D02*
X4741667Y-12069952D01*
X4741667Y-12069952D02*
X4751191Y-12050905D01*
X4751191Y-12050905D02*
X4751191Y-12041381D01*
X4751191Y-12041381D02*
X4741667Y-12022333D01*
X4741667Y-12022333D02*
X4722619Y-12012809D01*
X4722619Y-12012809D02*
X4694048Y-12012809D01*
X4694048Y-12012809D02*
X4675000Y-12003286D01*
X4675000Y-12003286D02*
X4665476Y-11984238D01*
X4665476Y-11984238D02*
X4665476Y-11974714D01*
X4665476Y-11974714D02*
X4675000Y-11955667D01*
X4675000Y-11955667D02*
X4694048Y-11946143D01*
X4694048Y-11946143D02*
X4722619Y-11946143D01*
X4722619Y-11946143D02*
X4741667Y-11955667D01*
X4817857Y-12155667D02*
X4827381Y-12146143D01*
X4827381Y-12146143D02*
X4846429Y-12117571D01*
X4846429Y-12117571D02*
X4855953Y-12098524D01*
X4855953Y-12098524D02*
X4865476Y-12069952D01*
X4865476Y-12069952D02*
X4875000Y-12022333D01*
X4875000Y-12022333D02*
X4875000Y-11984238D01*
X4875000Y-11984238D02*
X4865476Y-11936619D01*
X4865476Y-11936619D02*
X4855953Y-11908048D01*
X4855953Y-11908048D02*
X4846429Y-11889000D01*
X4846429Y-11889000D02*
X4827381Y-11860428D01*
X4827381Y-11860428D02*
X4817857Y-11850905D01*
X5147381Y-12155667D02*
X5137857Y-12146143D01*
X5137857Y-12146143D02*
X5118810Y-12117571D01*
X5118810Y-12117571D02*
X5109286Y-12098524D01*
X5109286Y-12098524D02*
X5099762Y-12069952D01*
X5099762Y-12069952D02*
X5090238Y-12022333D01*
X5090238Y-12022333D02*
X5090238Y-11984238D01*
X5090238Y-11984238D02*
X5099762Y-11936619D01*
X5099762Y-11936619D02*
X5109286Y-11908048D01*
X5109286Y-11908048D02*
X5118810Y-11889000D01*
X5118810Y-11889000D02*
X5137857Y-11860428D01*
X5137857Y-11860428D02*
X5147381Y-11850905D01*
X5223572Y-11946143D02*
X5223572Y-12079476D01*
X5223572Y-11965190D02*
X5233095Y-11955667D01*
X5233095Y-11955667D02*
X5252143Y-11946143D01*
X5252143Y-11946143D02*
X5280715Y-11946143D01*
X5280715Y-11946143D02*
X5299762Y-11955667D01*
X5299762Y-11955667D02*
X5309286Y-11974714D01*
X5309286Y-11974714D02*
X5309286Y-12079476D01*
X5433095Y-12079476D02*
X5414048Y-12069952D01*
X5414048Y-12069952D02*
X5404524Y-12060428D01*
X5404524Y-12060428D02*
X5395000Y-12041381D01*
X5395000Y-12041381D02*
X5395000Y-11984238D01*
X5395000Y-11984238D02*
X5404524Y-11965190D01*
X5404524Y-11965190D02*
X5414048Y-11955667D01*
X5414048Y-11955667D02*
X5433095Y-11946143D01*
X5433095Y-11946143D02*
X5461667Y-11946143D01*
X5461667Y-11946143D02*
X5480715Y-11955667D01*
X5480715Y-11955667D02*
X5490238Y-11965190D01*
X5490238Y-11965190D02*
X5499762Y-11984238D01*
X5499762Y-11984238D02*
X5499762Y-12041381D01*
X5499762Y-12041381D02*
X5490238Y-12060428D01*
X5490238Y-12060428D02*
X5480715Y-12069952D01*
X5480715Y-12069952D02*
X5461667Y-12079476D01*
X5461667Y-12079476D02*
X5433095Y-12079476D01*
X5556905Y-11946143D02*
X5633095Y-11946143D01*
X5585476Y-11879476D02*
X5585476Y-12050905D01*
X5585476Y-12050905D02*
X5595000Y-12069952D01*
X5595000Y-12069952D02*
X5614048Y-12079476D01*
X5614048Y-12079476D02*
X5633095Y-12079476D01*
X5819762Y-11946143D02*
X5819762Y-12146143D01*
X5819762Y-11955667D02*
X5838810Y-11946143D01*
X5838810Y-11946143D02*
X5876905Y-11946143D01*
X5876905Y-11946143D02*
X5895953Y-11955667D01*
X5895953Y-11955667D02*
X5905476Y-11965190D01*
X5905476Y-11965190D02*
X5915000Y-11984238D01*
X5915000Y-11984238D02*
X5915000Y-12041381D01*
X5915000Y-12041381D02*
X5905476Y-12060428D01*
X5905476Y-12060428D02*
X5895953Y-12069952D01*
X5895953Y-12069952D02*
X5876905Y-12079476D01*
X5876905Y-12079476D02*
X5838810Y-12079476D01*
X5838810Y-12079476D02*
X5819762Y-12069952D01*
X6029286Y-12079476D02*
X6010238Y-12069952D01*
X6010238Y-12069952D02*
X6000714Y-12050905D01*
X6000714Y-12050905D02*
X6000714Y-11879476D01*
X6191191Y-12079476D02*
X6191191Y-11974714D01*
X6191191Y-11974714D02*
X6181667Y-11955667D01*
X6181667Y-11955667D02*
X6162619Y-11946143D01*
X6162619Y-11946143D02*
X6124524Y-11946143D01*
X6124524Y-11946143D02*
X6105476Y-11955667D01*
X6191191Y-12069952D02*
X6172143Y-12079476D01*
X6172143Y-12079476D02*
X6124524Y-12079476D01*
X6124524Y-12079476D02*
X6105476Y-12069952D01*
X6105476Y-12069952D02*
X6095953Y-12050905D01*
X6095953Y-12050905D02*
X6095953Y-12031857D01*
X6095953Y-12031857D02*
X6105476Y-12012809D01*
X6105476Y-12012809D02*
X6124524Y-12003286D01*
X6124524Y-12003286D02*
X6172143Y-12003286D01*
X6172143Y-12003286D02*
X6191191Y-11993762D01*
X6257857Y-11946143D02*
X6334048Y-11946143D01*
X6286429Y-11879476D02*
X6286429Y-12050905D01*
X6286429Y-12050905D02*
X6295953Y-12069952D01*
X6295953Y-12069952D02*
X6315000Y-12079476D01*
X6315000Y-12079476D02*
X6334048Y-12079476D01*
X6476905Y-12069952D02*
X6457857Y-12079476D01*
X6457857Y-12079476D02*
X6419762Y-12079476D01*
X6419762Y-12079476D02*
X6400714Y-12069952D01*
X6400714Y-12069952D02*
X6391191Y-12050905D01*
X6391191Y-12050905D02*
X6391191Y-11974714D01*
X6391191Y-11974714D02*
X6400714Y-11955667D01*
X6400714Y-11955667D02*
X6419762Y-11946143D01*
X6419762Y-11946143D02*
X6457857Y-11946143D01*
X6457857Y-11946143D02*
X6476905Y-11955667D01*
X6476905Y-11955667D02*
X6486429Y-11974714D01*
X6486429Y-11974714D02*
X6486429Y-11993762D01*
X6486429Y-11993762D02*
X6391191Y-12012809D01*
X6657857Y-12079476D02*
X6657857Y-11879476D01*
X6657857Y-12069952D02*
X6638810Y-12079476D01*
X6638810Y-12079476D02*
X6600714Y-12079476D01*
X6600714Y-12079476D02*
X6581667Y-12069952D01*
X6581667Y-12069952D02*
X6572143Y-12060428D01*
X6572143Y-12060428D02*
X6562619Y-12041381D01*
X6562619Y-12041381D02*
X6562619Y-11984238D01*
X6562619Y-11984238D02*
X6572143Y-11965190D01*
X6572143Y-11965190D02*
X6581667Y-11955667D01*
X6581667Y-11955667D02*
X6600714Y-11946143D01*
X6600714Y-11946143D02*
X6638810Y-11946143D01*
X6638810Y-11946143D02*
X6657857Y-11955667D01*
X6734048Y-12155667D02*
X6743572Y-12146143D01*
X6743572Y-12146143D02*
X6762619Y-12117571D01*
X6762619Y-12117571D02*
X6772143Y-12098524D01*
X6772143Y-12098524D02*
X6781667Y-12069952D01*
X6781667Y-12069952D02*
X6791191Y-12022333D01*
X6791191Y-12022333D02*
X6791191Y-11984238D01*
X6791191Y-11984238D02*
X6781667Y-11936619D01*
X6781667Y-11936619D02*
X6772143Y-11908048D01*
X6772143Y-11908048D02*
X6762619Y-11889000D01*
X6762619Y-11889000D02*
X6743572Y-11860428D01*
X6743572Y-11860428D02*
X6734048Y-11850905D01*
M02*
