G04 #@! TF.GenerationSoftware,KiCad,Pcbnew,(6.99.0-1912-g359c99991b)*
G04 #@! TF.CreationDate,2022-07-11T13:53:33+07:00*
G04 #@! TF.ProjectId,lazulipad,6c617a75-6c69-4706-9164-2e6b69636164,1*
G04 #@! TF.SameCoordinates,Original*
G04 #@! TF.FileFunction,Legend,Bot*
G04 #@! TF.FilePolarity,Positive*
%FSLAX46Y46*%
G04 Gerber Fmt 4.6, Leading zero omitted, Abs format (unit mm)*
G04 Created by KiCad (PCBNEW (6.99.0-1912-g359c99991b)) date 2022-07-11 13:53:33*
%MOMM*%
%LPD*%
G01*
G04 APERTURE LIST*
G04 Aperture macros list*
%AMRoundRect*
0 Rectangle with rounded corners*
0 $1 Rounding radius*
0 $2 $3 $4 $5 $6 $7 $8 $9 X,Y pos of 4 corners*
0 Add a 4 corners polygon primitive as box body*
4,1,4,$2,$3,$4,$5,$6,$7,$8,$9,$2,$3,0*
0 Add four circle primitives for the rounded corners*
1,1,$1+$1,$2,$3*
1,1,$1+$1,$4,$5*
1,1,$1+$1,$6,$7*
1,1,$1+$1,$8,$9*
0 Add four rect primitives between the rounded corners*
20,1,$1+$1,$2,$3,$4,$5,0*
20,1,$1+$1,$4,$5,$6,$7,0*
20,1,$1+$1,$6,$7,$8,$9,0*
20,1,$1+$1,$8,$9,$2,$3,0*%
G04 Aperture macros list end*
%ADD10C,0.150000*%
%ADD11C,0.250000*%
%ADD12C,0.120000*%
%ADD13R,1.700000X1.700000*%
%ADD14O,1.700000X1.700000*%
%ADD15C,1.700000*%
%ADD16R,2.000000X3.200000*%
%ADD17R,2.000000X2.000000*%
%ADD18C,2.000000*%
%ADD19R,1.550000X0.600000*%
%ADD20RoundRect,0.250000X0.625000X-0.375000X0.625000X0.375000X-0.625000X0.375000X-0.625000X-0.375000X0*%
%ADD21R,1.700000X1.000000*%
%ADD22C,1.750000*%
%ADD23C,3.987800*%
%ADD24C,3.300000*%
%ADD25RoundRect,0.250000X1.025000X1.000000X-1.025000X1.000000X-1.025000X-1.000000X1.025000X-1.000000X0*%
%ADD26RoundRect,0.250000X0.250000X0.475000X-0.250000X0.475000X-0.250000X-0.475000X0.250000X-0.475000X0*%
%ADD27RoundRect,0.250000X-0.450000X0.262500X-0.450000X-0.262500X0.450000X-0.262500X0.450000X0.262500X0*%
%ADD28R,1.000000X0.800000*%
%ADD29R,1.200000X0.900000*%
%ADD30RoundRect,0.250000X0.450000X-0.262500X0.450000X0.262500X-0.450000X0.262500X-0.450000X-0.262500X0*%
%ADD31R,1.200000X1.400000*%
%ADD32RoundRect,0.250000X0.475000X-0.250000X0.475000X0.250000X-0.475000X0.250000X-0.475000X-0.250000X0*%
%ADD33R,0.900000X1.200000*%
%ADD34RoundRect,0.250000X-0.262500X-0.450000X0.262500X-0.450000X0.262500X0.450000X-0.262500X0.450000X0*%
%ADD35RoundRect,0.250000X0.262500X0.450000X-0.262500X0.450000X-0.262500X-0.450000X0.262500X-0.450000X0*%
%ADD36RoundRect,0.250000X-1.025000X-1.000000X1.025000X-1.000000X1.025000X1.000000X-1.025000X1.000000X0*%
%ADD37C,0.650000*%
%ADD38R,0.600000X1.450000*%
%ADD39R,0.300000X1.450000*%
%ADD40RoundRect,0.150000X0.650000X0.150000X-0.650000X0.150000X-0.650000X-0.150000X0.650000X-0.150000X0*%
%ADD41RoundRect,0.250000X-0.475000X0.250000X-0.475000X-0.250000X0.475000X-0.250000X0.475000X0.250000X0*%
%ADD42RoundRect,0.075000X-0.662500X-0.075000X0.662500X-0.075000X0.662500X0.075000X-0.662500X0.075000X0*%
%ADD43RoundRect,0.075000X-0.075000X-0.662500X0.075000X-0.662500X0.075000X0.662500X-0.075000X0.662500X0*%
%ADD44R,1.400000X1.200000*%
%ADD45R,1.400000X1.000000*%
G04 #@! TA.AperFunction,Profile*
%ADD46C,0.100000*%
G04 #@! TD*
G04 APERTURE END LIST*
D10*
X35223571Y-18081666D02*
X35223571Y-17748333D01*
X35747380Y-17748333D02*
X34747380Y-17748333D01*
X34747380Y-17748333D02*
X34747380Y-18224523D01*
X35747380Y-19129285D02*
X35747380Y-18557857D01*
X35747380Y-18843571D02*
X34747380Y-18843571D01*
X34747380Y-18843571D02*
X34890238Y-18748333D01*
X34890238Y-18748333D02*
X34985476Y-18653095D01*
X34985476Y-18653095D02*
X35033095Y-18557857D01*
X8953332Y-92588761D02*
X8810475Y-92636380D01*
X8810475Y-92636380D02*
X8572380Y-92636380D01*
X8572380Y-92636380D02*
X8477142Y-92588761D01*
X8477142Y-92588761D02*
X8429523Y-92541142D01*
X8429523Y-92541142D02*
X8381904Y-92445904D01*
X8381904Y-92445904D02*
X8381904Y-92350666D01*
X8381904Y-92350666D02*
X8429523Y-92255428D01*
X8429523Y-92255428D02*
X8477142Y-92207809D01*
X8477142Y-92207809D02*
X8572380Y-92160190D01*
X8572380Y-92160190D02*
X8762856Y-92112571D01*
X8762856Y-92112571D02*
X8858094Y-92064952D01*
X8858094Y-92064952D02*
X8905713Y-92017333D01*
X8905713Y-92017333D02*
X8953332Y-91922095D01*
X8953332Y-91922095D02*
X8953332Y-91826857D01*
X8953332Y-91826857D02*
X8905713Y-91731619D01*
X8905713Y-91731619D02*
X8858094Y-91684000D01*
X8858094Y-91684000D02*
X8762856Y-91636380D01*
X8762856Y-91636380D02*
X8524761Y-91636380D01*
X8524761Y-91636380D02*
X8381904Y-91684000D01*
X8048570Y-91636380D02*
X7810475Y-92636380D01*
X7810475Y-92636380D02*
X7619999Y-91922095D01*
X7619999Y-91922095D02*
X7429523Y-92636380D01*
X7429523Y-92636380D02*
X7191428Y-91636380D01*
X6286666Y-92636380D02*
X6858094Y-92636380D01*
X6572380Y-92636380D02*
X6572380Y-91636380D01*
X6572380Y-91636380D02*
X6667618Y-91779238D01*
X6667618Y-91779238D02*
X6762856Y-91874476D01*
X6762856Y-91874476D02*
X6858094Y-91922095D01*
X88386404Y-45717380D02*
X88386404Y-44717380D01*
X88386404Y-44717380D02*
X88053071Y-45431666D01*
X88053071Y-45431666D02*
X87719738Y-44717380D01*
X87719738Y-44717380D02*
X87719738Y-45717380D01*
X87338785Y-44717380D02*
X86672119Y-45717380D01*
X86672119Y-44717380D02*
X87338785Y-45717380D01*
X85767357Y-45717380D02*
X86338785Y-45717380D01*
X86053071Y-45717380D02*
X86053071Y-44717380D01*
X86053071Y-44717380D02*
X86148309Y-44860238D01*
X86148309Y-44860238D02*
X86243547Y-44955476D01*
X86243547Y-44955476D02*
X86338785Y-45003095D01*
X84910214Y-45050714D02*
X84910214Y-45717380D01*
X85148309Y-44669761D02*
X85386404Y-45384047D01*
X85386404Y-45384047D02*
X84767357Y-45384047D01*
X106960213Y-7617380D02*
X106960213Y-6617380D01*
X106960213Y-6617380D02*
X106626880Y-7331666D01*
X106626880Y-7331666D02*
X106293547Y-6617380D01*
X106293547Y-6617380D02*
X106293547Y-7617380D01*
X105912594Y-6617380D02*
X105245928Y-7617380D01*
X105245928Y-6617380D02*
X105912594Y-7617380D01*
X104388785Y-6617380D02*
X104864975Y-6617380D01*
X104864975Y-6617380D02*
X104912594Y-7093571D01*
X104912594Y-7093571D02*
X104864975Y-7045952D01*
X104864975Y-7045952D02*
X104769737Y-6998333D01*
X104769737Y-6998333D02*
X104531642Y-6998333D01*
X104531642Y-6998333D02*
X104436404Y-7045952D01*
X104436404Y-7045952D02*
X104388785Y-7093571D01*
X104388785Y-7093571D02*
X104341166Y-7188809D01*
X104341166Y-7188809D02*
X104341166Y-7426904D01*
X104341166Y-7426904D02*
X104388785Y-7522142D01*
X104388785Y-7522142D02*
X104436404Y-7569761D01*
X104436404Y-7569761D02*
X104531642Y-7617380D01*
X104531642Y-7617380D02*
X104769737Y-7617380D01*
X104769737Y-7617380D02*
X104864975Y-7569761D01*
X104864975Y-7569761D02*
X104912594Y-7522142D01*
X87910213Y-7617380D02*
X87910213Y-6617380D01*
X87910213Y-6617380D02*
X87576880Y-7331666D01*
X87576880Y-7331666D02*
X87243547Y-6617380D01*
X87243547Y-6617380D02*
X87243547Y-7617380D01*
X86862594Y-6617380D02*
X86195928Y-7617380D01*
X86195928Y-6617380D02*
X86862594Y-7617380D01*
X85386404Y-6950714D02*
X85386404Y-7617380D01*
X85624499Y-6569761D02*
X85862594Y-7284047D01*
X85862594Y-7284047D02*
X85243547Y-7284047D01*
X68757380Y-79049714D02*
X67757380Y-79049714D01*
X67757380Y-79049714D02*
X67757380Y-79287809D01*
X67757380Y-79287809D02*
X67805000Y-79430666D01*
X67805000Y-79430666D02*
X67900238Y-79525904D01*
X67900238Y-79525904D02*
X67995476Y-79573523D01*
X67995476Y-79573523D02*
X68185952Y-79621142D01*
X68185952Y-79621142D02*
X68328809Y-79621142D01*
X68328809Y-79621142D02*
X68519285Y-79573523D01*
X68519285Y-79573523D02*
X68614523Y-79525904D01*
X68614523Y-79525904D02*
X68709761Y-79430666D01*
X68709761Y-79430666D02*
X68757380Y-79287809D01*
X68757380Y-79287809D02*
X68757380Y-79049714D01*
X67852619Y-80002095D02*
X67805000Y-80049714D01*
X67805000Y-80049714D02*
X67757380Y-80144952D01*
X67757380Y-80144952D02*
X67757380Y-80383047D01*
X67757380Y-80383047D02*
X67805000Y-80478285D01*
X67805000Y-80478285D02*
X67852619Y-80525904D01*
X67852619Y-80525904D02*
X67947857Y-80573523D01*
X67947857Y-80573523D02*
X68043095Y-80573523D01*
X68043095Y-80573523D02*
X68185952Y-80525904D01*
X68185952Y-80525904D02*
X68757380Y-79954476D01*
X68757380Y-79954476D02*
X68757380Y-80573523D01*
X67757380Y-81192571D02*
X67757380Y-81287809D01*
X67757380Y-81287809D02*
X67805000Y-81383047D01*
X67805000Y-81383047D02*
X67852619Y-81430666D01*
X67852619Y-81430666D02*
X67947857Y-81478285D01*
X67947857Y-81478285D02*
X68138333Y-81525904D01*
X68138333Y-81525904D02*
X68376428Y-81525904D01*
X68376428Y-81525904D02*
X68566904Y-81478285D01*
X68566904Y-81478285D02*
X68662142Y-81430666D01*
X68662142Y-81430666D02*
X68709761Y-81383047D01*
X68709761Y-81383047D02*
X68757380Y-81287809D01*
X68757380Y-81287809D02*
X68757380Y-81192571D01*
X68757380Y-81192571D02*
X68709761Y-81097333D01*
X68709761Y-81097333D02*
X68662142Y-81049714D01*
X68662142Y-81049714D02*
X68566904Y-81002095D01*
X68566904Y-81002095D02*
X68376428Y-80954476D01*
X68376428Y-80954476D02*
X68138333Y-80954476D01*
X68138333Y-80954476D02*
X67947857Y-81002095D01*
X67947857Y-81002095D02*
X67852619Y-81049714D01*
X67852619Y-81049714D02*
X67805000Y-81097333D01*
X67805000Y-81097333D02*
X67757380Y-81192571D01*
X77583380Y-70159714D02*
X76583380Y-70159714D01*
X76583380Y-70159714D02*
X76583380Y-70397809D01*
X76583380Y-70397809D02*
X76631000Y-70540666D01*
X76631000Y-70540666D02*
X76726238Y-70635904D01*
X76726238Y-70635904D02*
X76821476Y-70683523D01*
X76821476Y-70683523D02*
X77011952Y-70731142D01*
X77011952Y-70731142D02*
X77154809Y-70731142D01*
X77154809Y-70731142D02*
X77345285Y-70683523D01*
X77345285Y-70683523D02*
X77440523Y-70635904D01*
X77440523Y-70635904D02*
X77535761Y-70540666D01*
X77535761Y-70540666D02*
X77583380Y-70397809D01*
X77583380Y-70397809D02*
X77583380Y-70159714D01*
X77583380Y-71683523D02*
X77583380Y-71112095D01*
X77583380Y-71397809D02*
X76583380Y-71397809D01*
X76583380Y-71397809D02*
X76726238Y-71302571D01*
X76726238Y-71302571D02*
X76821476Y-71207333D01*
X76821476Y-71207333D02*
X76869095Y-71112095D01*
X76583380Y-72016857D02*
X76583380Y-72683523D01*
X76583380Y-72683523D02*
X77583380Y-72254952D01*
X68860213Y-26667380D02*
X68860213Y-25667380D01*
X68860213Y-25667380D02*
X68526880Y-26381666D01*
X68526880Y-26381666D02*
X68193547Y-25667380D01*
X68193547Y-25667380D02*
X68193547Y-26667380D01*
X67812594Y-25667380D02*
X67145928Y-26667380D01*
X67145928Y-25667380D02*
X67812594Y-26667380D01*
X66622118Y-26095952D02*
X66717356Y-26048333D01*
X66717356Y-26048333D02*
X66764975Y-26000714D01*
X66764975Y-26000714D02*
X66812594Y-25905476D01*
X66812594Y-25905476D02*
X66812594Y-25857857D01*
X66812594Y-25857857D02*
X66764975Y-25762619D01*
X66764975Y-25762619D02*
X66717356Y-25715000D01*
X66717356Y-25715000D02*
X66622118Y-25667380D01*
X66622118Y-25667380D02*
X66431642Y-25667380D01*
X66431642Y-25667380D02*
X66336404Y-25715000D01*
X66336404Y-25715000D02*
X66288785Y-25762619D01*
X66288785Y-25762619D02*
X66241166Y-25857857D01*
X66241166Y-25857857D02*
X66241166Y-25905476D01*
X66241166Y-25905476D02*
X66288785Y-26000714D01*
X66288785Y-26000714D02*
X66336404Y-26048333D01*
X66336404Y-26048333D02*
X66431642Y-26095952D01*
X66431642Y-26095952D02*
X66622118Y-26095952D01*
X66622118Y-26095952D02*
X66717356Y-26143571D01*
X66717356Y-26143571D02*
X66764975Y-26191190D01*
X66764975Y-26191190D02*
X66812594Y-26286428D01*
X66812594Y-26286428D02*
X66812594Y-26476904D01*
X66812594Y-26476904D02*
X66764975Y-26572142D01*
X66764975Y-26572142D02*
X66717356Y-26619761D01*
X66717356Y-26619761D02*
X66622118Y-26667380D01*
X66622118Y-26667380D02*
X66431642Y-26667380D01*
X66431642Y-26667380D02*
X66336404Y-26619761D01*
X66336404Y-26619761D02*
X66288785Y-26572142D01*
X66288785Y-26572142D02*
X66241166Y-26476904D01*
X66241166Y-26476904D02*
X66241166Y-26286428D01*
X66241166Y-26286428D02*
X66288785Y-26191190D01*
X66288785Y-26191190D02*
X66336404Y-26143571D01*
X66336404Y-26143571D02*
X66431642Y-26095952D01*
X8141190Y-56038809D02*
X8617380Y-56038809D01*
X7617380Y-55705476D02*
X8141190Y-56038809D01*
X8141190Y-56038809D02*
X7617380Y-56372142D01*
X8617380Y-57229285D02*
X8617380Y-56657857D01*
X8617380Y-56943571D02*
X7617380Y-56943571D01*
X7617380Y-56943571D02*
X7760238Y-56848333D01*
X7760238Y-56848333D02*
X7855476Y-56753095D01*
X7855476Y-56753095D02*
X7903095Y-56657857D01*
X58533380Y-13485905D02*
X57533380Y-13485905D01*
X57533380Y-13485905D02*
X57533380Y-13724000D01*
X57533380Y-13724000D02*
X57581000Y-13866857D01*
X57581000Y-13866857D02*
X57676238Y-13962095D01*
X57676238Y-13962095D02*
X57771476Y-14009714D01*
X57771476Y-14009714D02*
X57961952Y-14057333D01*
X57961952Y-14057333D02*
X58104809Y-14057333D01*
X58104809Y-14057333D02*
X58295285Y-14009714D01*
X58295285Y-14009714D02*
X58390523Y-13962095D01*
X58390523Y-13962095D02*
X58485761Y-13866857D01*
X58485761Y-13866857D02*
X58533380Y-13724000D01*
X58533380Y-13724000D02*
X58533380Y-13485905D01*
X57533380Y-14390667D02*
X57533380Y-15009714D01*
X57533380Y-15009714D02*
X57914333Y-14676381D01*
X57914333Y-14676381D02*
X57914333Y-14819238D01*
X57914333Y-14819238D02*
X57961952Y-14914476D01*
X57961952Y-14914476D02*
X58009571Y-14962095D01*
X58009571Y-14962095D02*
X58104809Y-15009714D01*
X58104809Y-15009714D02*
X58342904Y-15009714D01*
X58342904Y-15009714D02*
X58438142Y-14962095D01*
X58438142Y-14962095D02*
X58485761Y-14914476D01*
X58485761Y-14914476D02*
X58533380Y-14819238D01*
X58533380Y-14819238D02*
X58533380Y-14533524D01*
X58533380Y-14533524D02*
X58485761Y-14438286D01*
X58485761Y-14438286D02*
X58438142Y-14390667D01*
X41918094Y-16909380D02*
X41918094Y-15909380D01*
X41918094Y-15909380D02*
X41679999Y-15909380D01*
X41679999Y-15909380D02*
X41537142Y-15957000D01*
X41537142Y-15957000D02*
X41441904Y-16052238D01*
X41441904Y-16052238D02*
X41394285Y-16147476D01*
X41394285Y-16147476D02*
X41346666Y-16337952D01*
X41346666Y-16337952D02*
X41346666Y-16480809D01*
X41346666Y-16480809D02*
X41394285Y-16671285D01*
X41394285Y-16671285D02*
X41441904Y-16766523D01*
X41441904Y-16766523D02*
X41537142Y-16861761D01*
X41537142Y-16861761D02*
X41679999Y-16909380D01*
X41679999Y-16909380D02*
X41918094Y-16909380D01*
X41013332Y-15909380D02*
X40346666Y-15909380D01*
X40346666Y-15909380D02*
X40775237Y-16909380D01*
X49810213Y-7617380D02*
X49810213Y-6617380D01*
X49810213Y-6617380D02*
X49476880Y-7331666D01*
X49476880Y-7331666D02*
X49143547Y-6617380D01*
X49143547Y-6617380D02*
X49143547Y-7617380D01*
X48762594Y-6617380D02*
X48095928Y-7617380D01*
X48095928Y-6617380D02*
X48762594Y-7617380D01*
X47762594Y-6712619D02*
X47714975Y-6665000D01*
X47714975Y-6665000D02*
X47619737Y-6617380D01*
X47619737Y-6617380D02*
X47381642Y-6617380D01*
X47381642Y-6617380D02*
X47286404Y-6665000D01*
X47286404Y-6665000D02*
X47238785Y-6712619D01*
X47238785Y-6712619D02*
X47191166Y-6807857D01*
X47191166Y-6807857D02*
X47191166Y-6903095D01*
X47191166Y-6903095D02*
X47238785Y-7045952D01*
X47238785Y-7045952D02*
X47810213Y-7617380D01*
X47810213Y-7617380D02*
X47191166Y-7617380D01*
X28384332Y-92588761D02*
X28241475Y-92636380D01*
X28241475Y-92636380D02*
X28003380Y-92636380D01*
X28003380Y-92636380D02*
X27908142Y-92588761D01*
X27908142Y-92588761D02*
X27860523Y-92541142D01*
X27860523Y-92541142D02*
X27812904Y-92445904D01*
X27812904Y-92445904D02*
X27812904Y-92350666D01*
X27812904Y-92350666D02*
X27860523Y-92255428D01*
X27860523Y-92255428D02*
X27908142Y-92207809D01*
X27908142Y-92207809D02*
X28003380Y-92160190D01*
X28003380Y-92160190D02*
X28193856Y-92112571D01*
X28193856Y-92112571D02*
X28289094Y-92064952D01*
X28289094Y-92064952D02*
X28336713Y-92017333D01*
X28336713Y-92017333D02*
X28384332Y-91922095D01*
X28384332Y-91922095D02*
X28384332Y-91826857D01*
X28384332Y-91826857D02*
X28336713Y-91731619D01*
X28336713Y-91731619D02*
X28289094Y-91684000D01*
X28289094Y-91684000D02*
X28193856Y-91636380D01*
X28193856Y-91636380D02*
X27955761Y-91636380D01*
X27955761Y-91636380D02*
X27812904Y-91684000D01*
X27479570Y-91636380D02*
X27241475Y-92636380D01*
X27241475Y-92636380D02*
X27050999Y-91922095D01*
X27050999Y-91922095D02*
X26860523Y-92636380D01*
X26860523Y-92636380D02*
X26622428Y-91636380D01*
X26289094Y-91731619D02*
X26241475Y-91684000D01*
X26241475Y-91684000D02*
X26146237Y-91636380D01*
X26146237Y-91636380D02*
X25908142Y-91636380D01*
X25908142Y-91636380D02*
X25812904Y-91684000D01*
X25812904Y-91684000D02*
X25765285Y-91731619D01*
X25765285Y-91731619D02*
X25717666Y-91826857D01*
X25717666Y-91826857D02*
X25717666Y-91922095D01*
X25717666Y-91922095D02*
X25765285Y-92064952D01*
X25765285Y-92064952D02*
X26336713Y-92636380D01*
X26336713Y-92636380D02*
X25717666Y-92636380D01*
X107436404Y-45717380D02*
X107436404Y-44717380D01*
X107436404Y-44717380D02*
X107103071Y-45431666D01*
X107103071Y-45431666D02*
X106769738Y-44717380D01*
X106769738Y-44717380D02*
X106769738Y-45717380D01*
X106388785Y-44717380D02*
X105722119Y-45717380D01*
X105722119Y-44717380D02*
X106388785Y-45717380D01*
X104817357Y-45717380D02*
X105388785Y-45717380D01*
X105103071Y-45717380D02*
X105103071Y-44717380D01*
X105103071Y-44717380D02*
X105198309Y-44860238D01*
X105198309Y-44860238D02*
X105293547Y-44955476D01*
X105293547Y-44955476D02*
X105388785Y-45003095D01*
X103912595Y-44717380D02*
X104388785Y-44717380D01*
X104388785Y-44717380D02*
X104436404Y-45193571D01*
X104436404Y-45193571D02*
X104388785Y-45145952D01*
X104388785Y-45145952D02*
X104293547Y-45098333D01*
X104293547Y-45098333D02*
X104055452Y-45098333D01*
X104055452Y-45098333D02*
X103960214Y-45145952D01*
X103960214Y-45145952D02*
X103912595Y-45193571D01*
X103912595Y-45193571D02*
X103864976Y-45288809D01*
X103864976Y-45288809D02*
X103864976Y-45526904D01*
X103864976Y-45526904D02*
X103912595Y-45622142D01*
X103912595Y-45622142D02*
X103960214Y-45669761D01*
X103960214Y-45669761D02*
X104055452Y-45717380D01*
X104055452Y-45717380D02*
X104293547Y-45717380D01*
X104293547Y-45717380D02*
X104388785Y-45669761D01*
X104388785Y-45669761D02*
X104436404Y-45622142D01*
X28646666Y-53452380D02*
X28979999Y-52976190D01*
X29218094Y-53452380D02*
X29218094Y-52452380D01*
X29218094Y-52452380D02*
X28837142Y-52452380D01*
X28837142Y-52452380D02*
X28741904Y-52500000D01*
X28741904Y-52500000D02*
X28694285Y-52547619D01*
X28694285Y-52547619D02*
X28646666Y-52642857D01*
X28646666Y-52642857D02*
X28646666Y-52785714D01*
X28646666Y-52785714D02*
X28694285Y-52880952D01*
X28694285Y-52880952D02*
X28741904Y-52928571D01*
X28741904Y-52928571D02*
X28837142Y-52976190D01*
X28837142Y-52976190D02*
X29218094Y-52976190D01*
X27789523Y-52785714D02*
X27789523Y-53452380D01*
X28027618Y-52404761D02*
X28265713Y-53119047D01*
X28265713Y-53119047D02*
X27646666Y-53119047D01*
X107436404Y-74292380D02*
X107436404Y-73292380D01*
X107436404Y-73292380D02*
X107103071Y-74006666D01*
X107103071Y-74006666D02*
X106769738Y-73292380D01*
X106769738Y-73292380D02*
X106769738Y-74292380D01*
X106388785Y-73292380D02*
X105722119Y-74292380D01*
X105722119Y-73292380D02*
X106388785Y-74292380D01*
X105388785Y-73387619D02*
X105341166Y-73340000D01*
X105341166Y-73340000D02*
X105245928Y-73292380D01*
X105245928Y-73292380D02*
X105007833Y-73292380D01*
X105007833Y-73292380D02*
X104912595Y-73340000D01*
X104912595Y-73340000D02*
X104864976Y-73387619D01*
X104864976Y-73387619D02*
X104817357Y-73482857D01*
X104817357Y-73482857D02*
X104817357Y-73578095D01*
X104817357Y-73578095D02*
X104864976Y-73720952D01*
X104864976Y-73720952D02*
X105436404Y-74292380D01*
X105436404Y-74292380D02*
X104817357Y-74292380D01*
X104436404Y-73387619D02*
X104388785Y-73340000D01*
X104388785Y-73340000D02*
X104293547Y-73292380D01*
X104293547Y-73292380D02*
X104055452Y-73292380D01*
X104055452Y-73292380D02*
X103960214Y-73340000D01*
X103960214Y-73340000D02*
X103912595Y-73387619D01*
X103912595Y-73387619D02*
X103864976Y-73482857D01*
X103864976Y-73482857D02*
X103864976Y-73578095D01*
X103864976Y-73578095D02*
X103912595Y-73720952D01*
X103912595Y-73720952D02*
X104484023Y-74292380D01*
X104484023Y-74292380D02*
X103864976Y-74292380D01*
X39483380Y-51109714D02*
X38483380Y-51109714D01*
X38483380Y-51109714D02*
X38483380Y-51347809D01*
X38483380Y-51347809D02*
X38531000Y-51490666D01*
X38531000Y-51490666D02*
X38626238Y-51585904D01*
X38626238Y-51585904D02*
X38721476Y-51633523D01*
X38721476Y-51633523D02*
X38911952Y-51681142D01*
X38911952Y-51681142D02*
X39054809Y-51681142D01*
X39054809Y-51681142D02*
X39245285Y-51633523D01*
X39245285Y-51633523D02*
X39340523Y-51585904D01*
X39340523Y-51585904D02*
X39435761Y-51490666D01*
X39435761Y-51490666D02*
X39483380Y-51347809D01*
X39483380Y-51347809D02*
X39483380Y-51109714D01*
X39483380Y-52633523D02*
X39483380Y-52062095D01*
X39483380Y-52347809D02*
X38483380Y-52347809D01*
X38483380Y-52347809D02*
X38626238Y-52252571D01*
X38626238Y-52252571D02*
X38721476Y-52157333D01*
X38721476Y-52157333D02*
X38769095Y-52062095D01*
X39483380Y-53585904D02*
X39483380Y-53014476D01*
X39483380Y-53300190D02*
X38483380Y-53300190D01*
X38483380Y-53300190D02*
X38626238Y-53204952D01*
X38626238Y-53204952D02*
X38721476Y-53109714D01*
X38721476Y-53109714D02*
X38769095Y-53014476D01*
X88386404Y-64767380D02*
X88386404Y-63767380D01*
X88386404Y-63767380D02*
X88053071Y-64481666D01*
X88053071Y-64481666D02*
X87719738Y-63767380D01*
X87719738Y-63767380D02*
X87719738Y-64767380D01*
X87338785Y-63767380D02*
X86672119Y-64767380D01*
X86672119Y-63767380D02*
X87338785Y-64767380D01*
X86338785Y-63862619D02*
X86291166Y-63815000D01*
X86291166Y-63815000D02*
X86195928Y-63767380D01*
X86195928Y-63767380D02*
X85957833Y-63767380D01*
X85957833Y-63767380D02*
X85862595Y-63815000D01*
X85862595Y-63815000D02*
X85814976Y-63862619D01*
X85814976Y-63862619D02*
X85767357Y-63957857D01*
X85767357Y-63957857D02*
X85767357Y-64053095D01*
X85767357Y-64053095D02*
X85814976Y-64195952D01*
X85814976Y-64195952D02*
X86386404Y-64767380D01*
X86386404Y-64767380D02*
X85767357Y-64767380D01*
X85148309Y-63767380D02*
X85053071Y-63767380D01*
X85053071Y-63767380D02*
X84957833Y-63815000D01*
X84957833Y-63815000D02*
X84910214Y-63862619D01*
X84910214Y-63862619D02*
X84862595Y-63957857D01*
X84862595Y-63957857D02*
X84814976Y-64148333D01*
X84814976Y-64148333D02*
X84814976Y-64386428D01*
X84814976Y-64386428D02*
X84862595Y-64576904D01*
X84862595Y-64576904D02*
X84910214Y-64672142D01*
X84910214Y-64672142D02*
X84957833Y-64719761D01*
X84957833Y-64719761D02*
X85053071Y-64767380D01*
X85053071Y-64767380D02*
X85148309Y-64767380D01*
X85148309Y-64767380D02*
X85243547Y-64719761D01*
X85243547Y-64719761D02*
X85291166Y-64672142D01*
X85291166Y-64672142D02*
X85338785Y-64576904D01*
X85338785Y-64576904D02*
X85386404Y-64386428D01*
X85386404Y-64386428D02*
X85386404Y-64148333D01*
X85386404Y-64148333D02*
X85338785Y-63957857D01*
X85338785Y-63957857D02*
X85291166Y-63862619D01*
X85291166Y-63862619D02*
X85243547Y-63815000D01*
X85243547Y-63815000D02*
X85148309Y-63767380D01*
X40753380Y-13485905D02*
X39753380Y-13485905D01*
X39753380Y-13485905D02*
X39753380Y-13724000D01*
X39753380Y-13724000D02*
X39801000Y-13866857D01*
X39801000Y-13866857D02*
X39896238Y-13962095D01*
X39896238Y-13962095D02*
X39991476Y-14009714D01*
X39991476Y-14009714D02*
X40181952Y-14057333D01*
X40181952Y-14057333D02*
X40324809Y-14057333D01*
X40324809Y-14057333D02*
X40515285Y-14009714D01*
X40515285Y-14009714D02*
X40610523Y-13962095D01*
X40610523Y-13962095D02*
X40705761Y-13866857D01*
X40705761Y-13866857D02*
X40753380Y-13724000D01*
X40753380Y-13724000D02*
X40753380Y-13485905D01*
X39848619Y-14438286D02*
X39801000Y-14485905D01*
X39801000Y-14485905D02*
X39753380Y-14581143D01*
X39753380Y-14581143D02*
X39753380Y-14819238D01*
X39753380Y-14819238D02*
X39801000Y-14914476D01*
X39801000Y-14914476D02*
X39848619Y-14962095D01*
X39848619Y-14962095D02*
X39943857Y-15009714D01*
X39943857Y-15009714D02*
X40039095Y-15009714D01*
X40039095Y-15009714D02*
X40181952Y-14962095D01*
X40181952Y-14962095D02*
X40753380Y-14390667D01*
X40753380Y-14390667D02*
X40753380Y-15009714D01*
X79886404Y-87317380D02*
X79886404Y-86317380D01*
X79886404Y-86317380D02*
X79553071Y-87031666D01*
X79553071Y-87031666D02*
X79219738Y-86317380D01*
X79219738Y-86317380D02*
X79219738Y-87317380D01*
X78838785Y-86317380D02*
X78172119Y-87317380D01*
X78172119Y-86317380D02*
X78838785Y-87317380D01*
X77838785Y-86412619D02*
X77791166Y-86365000D01*
X77791166Y-86365000D02*
X77695928Y-86317380D01*
X77695928Y-86317380D02*
X77457833Y-86317380D01*
X77457833Y-86317380D02*
X77362595Y-86365000D01*
X77362595Y-86365000D02*
X77314976Y-86412619D01*
X77314976Y-86412619D02*
X77267357Y-86507857D01*
X77267357Y-86507857D02*
X77267357Y-86603095D01*
X77267357Y-86603095D02*
X77314976Y-86745952D01*
X77314976Y-86745952D02*
X77886404Y-87317380D01*
X77886404Y-87317380D02*
X77267357Y-87317380D01*
X76362595Y-86317380D02*
X76838785Y-86317380D01*
X76838785Y-86317380D02*
X76886404Y-86793571D01*
X76886404Y-86793571D02*
X76838785Y-86745952D01*
X76838785Y-86745952D02*
X76743547Y-86698333D01*
X76743547Y-86698333D02*
X76505452Y-86698333D01*
X76505452Y-86698333D02*
X76410214Y-86745952D01*
X76410214Y-86745952D02*
X76362595Y-86793571D01*
X76362595Y-86793571D02*
X76314976Y-86888809D01*
X76314976Y-86888809D02*
X76314976Y-87126904D01*
X76314976Y-87126904D02*
X76362595Y-87222142D01*
X76362595Y-87222142D02*
X76410214Y-87269761D01*
X76410214Y-87269761D02*
X76505452Y-87317380D01*
X76505452Y-87317380D02*
X76743547Y-87317380D01*
X76743547Y-87317380D02*
X76838785Y-87269761D01*
X76838785Y-87269761D02*
X76886404Y-87222142D01*
X50286404Y-74292380D02*
X50286404Y-73292380D01*
X50286404Y-73292380D02*
X49953071Y-74006666D01*
X49953071Y-74006666D02*
X49619738Y-73292380D01*
X49619738Y-73292380D02*
X49619738Y-74292380D01*
X49238785Y-73292380D02*
X48572119Y-74292380D01*
X48572119Y-73292380D02*
X49238785Y-74292380D01*
X47667357Y-74292380D02*
X48238785Y-74292380D01*
X47953071Y-74292380D02*
X47953071Y-73292380D01*
X47953071Y-73292380D02*
X48048309Y-73435238D01*
X48048309Y-73435238D02*
X48143547Y-73530476D01*
X48143547Y-73530476D02*
X48238785Y-73578095D01*
X47334023Y-73292380D02*
X46667357Y-73292380D01*
X46667357Y-73292380D02*
X47095928Y-74292380D01*
X50286404Y-64767380D02*
X50286404Y-63767380D01*
X50286404Y-63767380D02*
X49953071Y-64481666D01*
X49953071Y-64481666D02*
X49619738Y-63767380D01*
X49619738Y-63767380D02*
X49619738Y-64767380D01*
X49238785Y-63767380D02*
X48572119Y-64767380D01*
X48572119Y-63767380D02*
X49238785Y-64767380D01*
X47667357Y-64767380D02*
X48238785Y-64767380D01*
X47953071Y-64767380D02*
X47953071Y-63767380D01*
X47953071Y-63767380D02*
X48048309Y-63910238D01*
X48048309Y-63910238D02*
X48143547Y-64005476D01*
X48143547Y-64005476D02*
X48238785Y-64053095D01*
X47095928Y-64195952D02*
X47191166Y-64148333D01*
X47191166Y-64148333D02*
X47238785Y-64100714D01*
X47238785Y-64100714D02*
X47286404Y-64005476D01*
X47286404Y-64005476D02*
X47286404Y-63957857D01*
X47286404Y-63957857D02*
X47238785Y-63862619D01*
X47238785Y-63862619D02*
X47191166Y-63815000D01*
X47191166Y-63815000D02*
X47095928Y-63767380D01*
X47095928Y-63767380D02*
X46905452Y-63767380D01*
X46905452Y-63767380D02*
X46810214Y-63815000D01*
X46810214Y-63815000D02*
X46762595Y-63862619D01*
X46762595Y-63862619D02*
X46714976Y-63957857D01*
X46714976Y-63957857D02*
X46714976Y-64005476D01*
X46714976Y-64005476D02*
X46762595Y-64100714D01*
X46762595Y-64100714D02*
X46810214Y-64148333D01*
X46810214Y-64148333D02*
X46905452Y-64195952D01*
X46905452Y-64195952D02*
X47095928Y-64195952D01*
X47095928Y-64195952D02*
X47191166Y-64243571D01*
X47191166Y-64243571D02*
X47238785Y-64291190D01*
X47238785Y-64291190D02*
X47286404Y-64386428D01*
X47286404Y-64386428D02*
X47286404Y-64576904D01*
X47286404Y-64576904D02*
X47238785Y-64672142D01*
X47238785Y-64672142D02*
X47191166Y-64719761D01*
X47191166Y-64719761D02*
X47095928Y-64767380D01*
X47095928Y-64767380D02*
X46905452Y-64767380D01*
X46905452Y-64767380D02*
X46810214Y-64719761D01*
X46810214Y-64719761D02*
X46762595Y-64672142D01*
X46762595Y-64672142D02*
X46714976Y-64576904D01*
X46714976Y-64576904D02*
X46714976Y-64386428D01*
X46714976Y-64386428D02*
X46762595Y-64291190D01*
X46762595Y-64291190D02*
X46810214Y-64243571D01*
X46810214Y-64243571D02*
X46905452Y-64195952D01*
X68860213Y-7617380D02*
X68860213Y-6617380D01*
X68860213Y-6617380D02*
X68526880Y-7331666D01*
X68526880Y-7331666D02*
X68193547Y-6617380D01*
X68193547Y-6617380D02*
X68193547Y-7617380D01*
X67812594Y-6617380D02*
X67145928Y-7617380D01*
X67145928Y-6617380D02*
X67812594Y-7617380D01*
X66860213Y-6617380D02*
X66241166Y-6617380D01*
X66241166Y-6617380D02*
X66574499Y-6998333D01*
X66574499Y-6998333D02*
X66431642Y-6998333D01*
X66431642Y-6998333D02*
X66336404Y-7045952D01*
X66336404Y-7045952D02*
X66288785Y-7093571D01*
X66288785Y-7093571D02*
X66241166Y-7188809D01*
X66241166Y-7188809D02*
X66241166Y-7426904D01*
X66241166Y-7426904D02*
X66288785Y-7522142D01*
X66288785Y-7522142D02*
X66336404Y-7569761D01*
X66336404Y-7569761D02*
X66431642Y-7617380D01*
X66431642Y-7617380D02*
X66717356Y-7617380D01*
X66717356Y-7617380D02*
X66812594Y-7569761D01*
X66812594Y-7569761D02*
X66860213Y-7522142D01*
X50286404Y-36192380D02*
X50286404Y-35192380D01*
X50286404Y-35192380D02*
X49953071Y-35906666D01*
X49953071Y-35906666D02*
X49619738Y-35192380D01*
X49619738Y-35192380D02*
X49619738Y-36192380D01*
X49238785Y-35192380D02*
X48572119Y-36192380D01*
X48572119Y-35192380D02*
X49238785Y-36192380D01*
X47667357Y-36192380D02*
X48238785Y-36192380D01*
X47953071Y-36192380D02*
X47953071Y-35192380D01*
X47953071Y-35192380D02*
X48048309Y-35335238D01*
X48048309Y-35335238D02*
X48143547Y-35430476D01*
X48143547Y-35430476D02*
X48238785Y-35478095D01*
X46714976Y-36192380D02*
X47286404Y-36192380D01*
X47000690Y-36192380D02*
X47000690Y-35192380D01*
X47000690Y-35192380D02*
X47095928Y-35335238D01*
X47095928Y-35335238D02*
X47191166Y-35430476D01*
X47191166Y-35430476D02*
X47286404Y-35478095D01*
X21522713Y-36192380D02*
X21522713Y-35192380D01*
X21522713Y-35192380D02*
X21189380Y-35906666D01*
X21189380Y-35906666D02*
X20856047Y-35192380D01*
X20856047Y-35192380D02*
X20856047Y-36192380D01*
X20475094Y-35192380D02*
X19808428Y-36192380D01*
X19808428Y-35192380D02*
X20475094Y-36192380D01*
X18998904Y-35192380D02*
X19189380Y-35192380D01*
X19189380Y-35192380D02*
X19284618Y-35240000D01*
X19284618Y-35240000D02*
X19332237Y-35287619D01*
X19332237Y-35287619D02*
X19427475Y-35430476D01*
X19427475Y-35430476D02*
X19475094Y-35620952D01*
X19475094Y-35620952D02*
X19475094Y-36001904D01*
X19475094Y-36001904D02*
X19427475Y-36097142D01*
X19427475Y-36097142D02*
X19379856Y-36144761D01*
X19379856Y-36144761D02*
X19284618Y-36192380D01*
X19284618Y-36192380D02*
X19094142Y-36192380D01*
X19094142Y-36192380D02*
X18998904Y-36144761D01*
X18998904Y-36144761D02*
X18951285Y-36097142D01*
X18951285Y-36097142D02*
X18903666Y-36001904D01*
X18903666Y-36001904D02*
X18903666Y-35763809D01*
X18903666Y-35763809D02*
X18951285Y-35668571D01*
X18951285Y-35668571D02*
X18998904Y-35620952D01*
X18998904Y-35620952D02*
X19094142Y-35573333D01*
X19094142Y-35573333D02*
X19284618Y-35573333D01*
X19284618Y-35573333D02*
X19379856Y-35620952D01*
X19379856Y-35620952D02*
X19427475Y-35668571D01*
X19427475Y-35668571D02*
X19475094Y-35763809D01*
X77583380Y-13485905D02*
X76583380Y-13485905D01*
X76583380Y-13485905D02*
X76583380Y-13724000D01*
X76583380Y-13724000D02*
X76631000Y-13866857D01*
X76631000Y-13866857D02*
X76726238Y-13962095D01*
X76726238Y-13962095D02*
X76821476Y-14009714D01*
X76821476Y-14009714D02*
X77011952Y-14057333D01*
X77011952Y-14057333D02*
X77154809Y-14057333D01*
X77154809Y-14057333D02*
X77345285Y-14009714D01*
X77345285Y-14009714D02*
X77440523Y-13962095D01*
X77440523Y-13962095D02*
X77535761Y-13866857D01*
X77535761Y-13866857D02*
X77583380Y-13724000D01*
X77583380Y-13724000D02*
X77583380Y-13485905D01*
X76916714Y-14914476D02*
X77583380Y-14914476D01*
X76535761Y-14676381D02*
X77250047Y-14438286D01*
X77250047Y-14438286D02*
X77250047Y-15057333D01*
X107436404Y-36192380D02*
X107436404Y-35192380D01*
X107436404Y-35192380D02*
X107103071Y-35906666D01*
X107103071Y-35906666D02*
X106769738Y-35192380D01*
X106769738Y-35192380D02*
X106769738Y-36192380D01*
X106388785Y-35192380D02*
X105722119Y-36192380D01*
X105722119Y-35192380D02*
X106388785Y-36192380D01*
X104817357Y-36192380D02*
X105388785Y-36192380D01*
X105103071Y-36192380D02*
X105103071Y-35192380D01*
X105103071Y-35192380D02*
X105198309Y-35335238D01*
X105198309Y-35335238D02*
X105293547Y-35430476D01*
X105293547Y-35430476D02*
X105388785Y-35478095D01*
X103960214Y-35192380D02*
X104150690Y-35192380D01*
X104150690Y-35192380D02*
X104245928Y-35240000D01*
X104245928Y-35240000D02*
X104293547Y-35287619D01*
X104293547Y-35287619D02*
X104388785Y-35430476D01*
X104388785Y-35430476D02*
X104436404Y-35620952D01*
X104436404Y-35620952D02*
X104436404Y-36001904D01*
X104436404Y-36001904D02*
X104388785Y-36097142D01*
X104388785Y-36097142D02*
X104341166Y-36144761D01*
X104341166Y-36144761D02*
X104245928Y-36192380D01*
X104245928Y-36192380D02*
X104055452Y-36192380D01*
X104055452Y-36192380D02*
X103960214Y-36144761D01*
X103960214Y-36144761D02*
X103912595Y-36097142D01*
X103912595Y-36097142D02*
X103864976Y-36001904D01*
X103864976Y-36001904D02*
X103864976Y-35763809D01*
X103864976Y-35763809D02*
X103912595Y-35668571D01*
X103912595Y-35668571D02*
X103960214Y-35620952D01*
X103960214Y-35620952D02*
X104055452Y-35573333D01*
X104055452Y-35573333D02*
X104245928Y-35573333D01*
X104245928Y-35573333D02*
X104341166Y-35620952D01*
X104341166Y-35620952D02*
X104388785Y-35668571D01*
X104388785Y-35668571D02*
X104436404Y-35763809D01*
X30932666Y-61963380D02*
X31265999Y-61487190D01*
X31504094Y-61963380D02*
X31504094Y-60963380D01*
X31504094Y-60963380D02*
X31123142Y-60963380D01*
X31123142Y-60963380D02*
X31027904Y-61011000D01*
X31027904Y-61011000D02*
X30980285Y-61058619D01*
X30980285Y-61058619D02*
X30932666Y-61153857D01*
X30932666Y-61153857D02*
X30932666Y-61296714D01*
X30932666Y-61296714D02*
X30980285Y-61391952D01*
X30980285Y-61391952D02*
X31027904Y-61439571D01*
X31027904Y-61439571D02*
X31123142Y-61487190D01*
X31123142Y-61487190D02*
X31504094Y-61487190D01*
X30361237Y-61391952D02*
X30456475Y-61344333D01*
X30456475Y-61344333D02*
X30504094Y-61296714D01*
X30504094Y-61296714D02*
X30551713Y-61201476D01*
X30551713Y-61201476D02*
X30551713Y-61153857D01*
X30551713Y-61153857D02*
X30504094Y-61058619D01*
X30504094Y-61058619D02*
X30456475Y-61011000D01*
X30456475Y-61011000D02*
X30361237Y-60963380D01*
X30361237Y-60963380D02*
X30170761Y-60963380D01*
X30170761Y-60963380D02*
X30075523Y-61011000D01*
X30075523Y-61011000D02*
X30027904Y-61058619D01*
X30027904Y-61058619D02*
X29980285Y-61153857D01*
X29980285Y-61153857D02*
X29980285Y-61201476D01*
X29980285Y-61201476D02*
X30027904Y-61296714D01*
X30027904Y-61296714D02*
X30075523Y-61344333D01*
X30075523Y-61344333D02*
X30170761Y-61391952D01*
X30170761Y-61391952D02*
X30361237Y-61391952D01*
X30361237Y-61391952D02*
X30456475Y-61439571D01*
X30456475Y-61439571D02*
X30504094Y-61487190D01*
X30504094Y-61487190D02*
X30551713Y-61582428D01*
X30551713Y-61582428D02*
X30551713Y-61772904D01*
X30551713Y-61772904D02*
X30504094Y-61868142D01*
X30504094Y-61868142D02*
X30456475Y-61915761D01*
X30456475Y-61915761D02*
X30361237Y-61963380D01*
X30361237Y-61963380D02*
X30170761Y-61963380D01*
X30170761Y-61963380D02*
X30075523Y-61915761D01*
X30075523Y-61915761D02*
X30027904Y-61868142D01*
X30027904Y-61868142D02*
X29980285Y-61772904D01*
X29980285Y-61772904D02*
X29980285Y-61582428D01*
X29980285Y-61582428D02*
X30027904Y-61487190D01*
X30027904Y-61487190D02*
X30075523Y-61439571D01*
X30075523Y-61439571D02*
X30170761Y-61391952D01*
X77583380Y-32535905D02*
X76583380Y-32535905D01*
X76583380Y-32535905D02*
X76583380Y-32774000D01*
X76583380Y-32774000D02*
X76631000Y-32916857D01*
X76631000Y-32916857D02*
X76726238Y-33012095D01*
X76726238Y-33012095D02*
X76821476Y-33059714D01*
X76821476Y-33059714D02*
X77011952Y-33107333D01*
X77011952Y-33107333D02*
X77154809Y-33107333D01*
X77154809Y-33107333D02*
X77345285Y-33059714D01*
X77345285Y-33059714D02*
X77440523Y-33012095D01*
X77440523Y-33012095D02*
X77535761Y-32916857D01*
X77535761Y-32916857D02*
X77583380Y-32774000D01*
X77583380Y-32774000D02*
X77583380Y-32535905D01*
X77583380Y-33583524D02*
X77583380Y-33774000D01*
X77583380Y-33774000D02*
X77535761Y-33869238D01*
X77535761Y-33869238D02*
X77488142Y-33916857D01*
X77488142Y-33916857D02*
X77345285Y-34012095D01*
X77345285Y-34012095D02*
X77154809Y-34059714D01*
X77154809Y-34059714D02*
X76773857Y-34059714D01*
X76773857Y-34059714D02*
X76678619Y-34012095D01*
X76678619Y-34012095D02*
X76631000Y-33964476D01*
X76631000Y-33964476D02*
X76583380Y-33869238D01*
X76583380Y-33869238D02*
X76583380Y-33678762D01*
X76583380Y-33678762D02*
X76631000Y-33583524D01*
X76631000Y-33583524D02*
X76678619Y-33535905D01*
X76678619Y-33535905D02*
X76773857Y-33488286D01*
X76773857Y-33488286D02*
X77011952Y-33488286D01*
X77011952Y-33488286D02*
X77107190Y-33535905D01*
X77107190Y-33535905D02*
X77154809Y-33583524D01*
X77154809Y-33583524D02*
X77202428Y-33678762D01*
X77202428Y-33678762D02*
X77202428Y-33869238D01*
X77202428Y-33869238D02*
X77154809Y-33964476D01*
X77154809Y-33964476D02*
X77107190Y-34012095D01*
X77107190Y-34012095D02*
X77011952Y-34059714D01*
X39483380Y-88701714D02*
X38483380Y-88701714D01*
X38483380Y-88701714D02*
X38483380Y-88939809D01*
X38483380Y-88939809D02*
X38531000Y-89082666D01*
X38531000Y-89082666D02*
X38626238Y-89177904D01*
X38626238Y-89177904D02*
X38721476Y-89225523D01*
X38721476Y-89225523D02*
X38911952Y-89273142D01*
X38911952Y-89273142D02*
X39054809Y-89273142D01*
X39054809Y-89273142D02*
X39245285Y-89225523D01*
X39245285Y-89225523D02*
X39340523Y-89177904D01*
X39340523Y-89177904D02*
X39435761Y-89082666D01*
X39435761Y-89082666D02*
X39483380Y-88939809D01*
X39483380Y-88939809D02*
X39483380Y-88701714D01*
X39483380Y-90225523D02*
X39483380Y-89654095D01*
X39483380Y-89939809D02*
X38483380Y-89939809D01*
X38483380Y-89939809D02*
X38626238Y-89844571D01*
X38626238Y-89844571D02*
X38721476Y-89749333D01*
X38721476Y-89749333D02*
X38769095Y-89654095D01*
X39483380Y-90701714D02*
X39483380Y-90892190D01*
X39483380Y-90892190D02*
X39435761Y-90987428D01*
X39435761Y-90987428D02*
X39388142Y-91035047D01*
X39388142Y-91035047D02*
X39245285Y-91130285D01*
X39245285Y-91130285D02*
X39054809Y-91177904D01*
X39054809Y-91177904D02*
X38673857Y-91177904D01*
X38673857Y-91177904D02*
X38578619Y-91130285D01*
X38578619Y-91130285D02*
X38531000Y-91082666D01*
X38531000Y-91082666D02*
X38483380Y-90987428D01*
X38483380Y-90987428D02*
X38483380Y-90796952D01*
X38483380Y-90796952D02*
X38531000Y-90701714D01*
X38531000Y-90701714D02*
X38578619Y-90654095D01*
X38578619Y-90654095D02*
X38673857Y-90606476D01*
X38673857Y-90606476D02*
X38911952Y-90606476D01*
X38911952Y-90606476D02*
X39007190Y-90654095D01*
X39007190Y-90654095D02*
X39054809Y-90701714D01*
X39054809Y-90701714D02*
X39102428Y-90796952D01*
X39102428Y-90796952D02*
X39102428Y-90987428D01*
X39102428Y-90987428D02*
X39054809Y-91082666D01*
X39054809Y-91082666D02*
X39007190Y-91130285D01*
X39007190Y-91130285D02*
X38911952Y-91177904D01*
X107436404Y-26667380D02*
X107436404Y-25667380D01*
X107436404Y-25667380D02*
X107103071Y-26381666D01*
X107103071Y-26381666D02*
X106769738Y-25667380D01*
X106769738Y-25667380D02*
X106769738Y-26667380D01*
X106388785Y-25667380D02*
X105722119Y-26667380D01*
X105722119Y-25667380D02*
X106388785Y-26667380D01*
X104817357Y-26667380D02*
X105388785Y-26667380D01*
X105103071Y-26667380D02*
X105103071Y-25667380D01*
X105103071Y-25667380D02*
X105198309Y-25810238D01*
X105198309Y-25810238D02*
X105293547Y-25905476D01*
X105293547Y-25905476D02*
X105388785Y-25953095D01*
X104198309Y-25667380D02*
X104103071Y-25667380D01*
X104103071Y-25667380D02*
X104007833Y-25715000D01*
X104007833Y-25715000D02*
X103960214Y-25762619D01*
X103960214Y-25762619D02*
X103912595Y-25857857D01*
X103912595Y-25857857D02*
X103864976Y-26048333D01*
X103864976Y-26048333D02*
X103864976Y-26286428D01*
X103864976Y-26286428D02*
X103912595Y-26476904D01*
X103912595Y-26476904D02*
X103960214Y-26572142D01*
X103960214Y-26572142D02*
X104007833Y-26619761D01*
X104007833Y-26619761D02*
X104103071Y-26667380D01*
X104103071Y-26667380D02*
X104198309Y-26667380D01*
X104198309Y-26667380D02*
X104293547Y-26619761D01*
X104293547Y-26619761D02*
X104341166Y-26572142D01*
X104341166Y-26572142D02*
X104388785Y-26476904D01*
X104388785Y-26476904D02*
X104436404Y-26286428D01*
X104436404Y-26286428D02*
X104436404Y-26048333D01*
X104436404Y-26048333D02*
X104388785Y-25857857D01*
X104388785Y-25857857D02*
X104341166Y-25762619D01*
X104341166Y-25762619D02*
X104293547Y-25715000D01*
X104293547Y-25715000D02*
X104198309Y-25667380D01*
X96633380Y-13485905D02*
X95633380Y-13485905D01*
X95633380Y-13485905D02*
X95633380Y-13724000D01*
X95633380Y-13724000D02*
X95681000Y-13866857D01*
X95681000Y-13866857D02*
X95776238Y-13962095D01*
X95776238Y-13962095D02*
X95871476Y-14009714D01*
X95871476Y-14009714D02*
X96061952Y-14057333D01*
X96061952Y-14057333D02*
X96204809Y-14057333D01*
X96204809Y-14057333D02*
X96395285Y-14009714D01*
X96395285Y-14009714D02*
X96490523Y-13962095D01*
X96490523Y-13962095D02*
X96585761Y-13866857D01*
X96585761Y-13866857D02*
X96633380Y-13724000D01*
X96633380Y-13724000D02*
X96633380Y-13485905D01*
X95633380Y-14962095D02*
X95633380Y-14485905D01*
X95633380Y-14485905D02*
X96109571Y-14438286D01*
X96109571Y-14438286D02*
X96061952Y-14485905D01*
X96061952Y-14485905D02*
X96014333Y-14581143D01*
X96014333Y-14581143D02*
X96014333Y-14819238D01*
X96014333Y-14819238D02*
X96061952Y-14914476D01*
X96061952Y-14914476D02*
X96109571Y-14962095D01*
X96109571Y-14962095D02*
X96204809Y-15009714D01*
X96204809Y-15009714D02*
X96442904Y-15009714D01*
X96442904Y-15009714D02*
X96538142Y-14962095D01*
X96538142Y-14962095D02*
X96585761Y-14914476D01*
X96585761Y-14914476D02*
X96633380Y-14819238D01*
X96633380Y-14819238D02*
X96633380Y-14581143D01*
X96633380Y-14581143D02*
X96585761Y-14485905D01*
X96585761Y-14485905D02*
X96538142Y-14438286D01*
X58533380Y-51109714D02*
X57533380Y-51109714D01*
X57533380Y-51109714D02*
X57533380Y-51347809D01*
X57533380Y-51347809D02*
X57581000Y-51490666D01*
X57581000Y-51490666D02*
X57676238Y-51585904D01*
X57676238Y-51585904D02*
X57771476Y-51633523D01*
X57771476Y-51633523D02*
X57961952Y-51681142D01*
X57961952Y-51681142D02*
X58104809Y-51681142D01*
X58104809Y-51681142D02*
X58295285Y-51633523D01*
X58295285Y-51633523D02*
X58390523Y-51585904D01*
X58390523Y-51585904D02*
X58485761Y-51490666D01*
X58485761Y-51490666D02*
X58533380Y-51347809D01*
X58533380Y-51347809D02*
X58533380Y-51109714D01*
X58533380Y-52633523D02*
X58533380Y-52062095D01*
X58533380Y-52347809D02*
X57533380Y-52347809D01*
X57533380Y-52347809D02*
X57676238Y-52252571D01*
X57676238Y-52252571D02*
X57771476Y-52157333D01*
X57771476Y-52157333D02*
X57819095Y-52062095D01*
X57628619Y-53014476D02*
X57581000Y-53062095D01*
X57581000Y-53062095D02*
X57533380Y-53157333D01*
X57533380Y-53157333D02*
X57533380Y-53395428D01*
X57533380Y-53395428D02*
X57581000Y-53490666D01*
X57581000Y-53490666D02*
X57628619Y-53538285D01*
X57628619Y-53538285D02*
X57723857Y-53585904D01*
X57723857Y-53585904D02*
X57819095Y-53585904D01*
X57819095Y-53585904D02*
X57961952Y-53538285D01*
X57961952Y-53538285D02*
X58533380Y-52966857D01*
X58533380Y-52966857D02*
X58533380Y-53585904D01*
X59811404Y-83817380D02*
X59811404Y-82817380D01*
X59811404Y-82817380D02*
X59478071Y-83531666D01*
X59478071Y-83531666D02*
X59144738Y-82817380D01*
X59144738Y-82817380D02*
X59144738Y-83817380D01*
X58763785Y-82817380D02*
X58097119Y-83817380D01*
X58097119Y-82817380D02*
X58763785Y-83817380D01*
X57763785Y-82912619D02*
X57716166Y-82865000D01*
X57716166Y-82865000D02*
X57620928Y-82817380D01*
X57620928Y-82817380D02*
X57382833Y-82817380D01*
X57382833Y-82817380D02*
X57287595Y-82865000D01*
X57287595Y-82865000D02*
X57239976Y-82912619D01*
X57239976Y-82912619D02*
X57192357Y-83007857D01*
X57192357Y-83007857D02*
X57192357Y-83103095D01*
X57192357Y-83103095D02*
X57239976Y-83245952D01*
X57239976Y-83245952D02*
X57811404Y-83817380D01*
X57811404Y-83817380D02*
X57192357Y-83817380D01*
X56859023Y-82817380D02*
X56239976Y-82817380D01*
X56239976Y-82817380D02*
X56573309Y-83198333D01*
X56573309Y-83198333D02*
X56430452Y-83198333D01*
X56430452Y-83198333D02*
X56335214Y-83245952D01*
X56335214Y-83245952D02*
X56287595Y-83293571D01*
X56287595Y-83293571D02*
X56239976Y-83388809D01*
X56239976Y-83388809D02*
X56239976Y-83626904D01*
X56239976Y-83626904D02*
X56287595Y-83722142D01*
X56287595Y-83722142D02*
X56335214Y-83769761D01*
X56335214Y-83769761D02*
X56430452Y-83817380D01*
X56430452Y-83817380D02*
X56716166Y-83817380D01*
X56716166Y-83817380D02*
X56811404Y-83769761D01*
X56811404Y-83769761D02*
X56859023Y-83722142D01*
X77583380Y-51109714D02*
X76583380Y-51109714D01*
X76583380Y-51109714D02*
X76583380Y-51347809D01*
X76583380Y-51347809D02*
X76631000Y-51490666D01*
X76631000Y-51490666D02*
X76726238Y-51585904D01*
X76726238Y-51585904D02*
X76821476Y-51633523D01*
X76821476Y-51633523D02*
X77011952Y-51681142D01*
X77011952Y-51681142D02*
X77154809Y-51681142D01*
X77154809Y-51681142D02*
X77345285Y-51633523D01*
X77345285Y-51633523D02*
X77440523Y-51585904D01*
X77440523Y-51585904D02*
X77535761Y-51490666D01*
X77535761Y-51490666D02*
X77583380Y-51347809D01*
X77583380Y-51347809D02*
X77583380Y-51109714D01*
X77583380Y-52633523D02*
X77583380Y-52062095D01*
X77583380Y-52347809D02*
X76583380Y-52347809D01*
X76583380Y-52347809D02*
X76726238Y-52252571D01*
X76726238Y-52252571D02*
X76821476Y-52157333D01*
X76821476Y-52157333D02*
X76869095Y-52062095D01*
X76583380Y-52966857D02*
X76583380Y-53585904D01*
X76583380Y-53585904D02*
X76964333Y-53252571D01*
X76964333Y-53252571D02*
X76964333Y-53395428D01*
X76964333Y-53395428D02*
X77011952Y-53490666D01*
X77011952Y-53490666D02*
X77059571Y-53538285D01*
X77059571Y-53538285D02*
X77154809Y-53585904D01*
X77154809Y-53585904D02*
X77392904Y-53585904D01*
X77392904Y-53585904D02*
X77488142Y-53538285D01*
X77488142Y-53538285D02*
X77535761Y-53490666D01*
X77535761Y-53490666D02*
X77583380Y-53395428D01*
X77583380Y-53395428D02*
X77583380Y-53109714D01*
X77583380Y-53109714D02*
X77535761Y-53014476D01*
X77535761Y-53014476D02*
X77488142Y-52966857D01*
X91299380Y-32059714D02*
X90299380Y-32059714D01*
X90299380Y-32059714D02*
X90299380Y-32297809D01*
X90299380Y-32297809D02*
X90347000Y-32440666D01*
X90347000Y-32440666D02*
X90442238Y-32535904D01*
X90442238Y-32535904D02*
X90537476Y-32583523D01*
X90537476Y-32583523D02*
X90727952Y-32631142D01*
X90727952Y-32631142D02*
X90870809Y-32631142D01*
X90870809Y-32631142D02*
X91061285Y-32583523D01*
X91061285Y-32583523D02*
X91156523Y-32535904D01*
X91156523Y-32535904D02*
X91251761Y-32440666D01*
X91251761Y-32440666D02*
X91299380Y-32297809D01*
X91299380Y-32297809D02*
X91299380Y-32059714D01*
X91299380Y-33583523D02*
X91299380Y-33012095D01*
X91299380Y-33297809D02*
X90299380Y-33297809D01*
X90299380Y-33297809D02*
X90442238Y-33202571D01*
X90442238Y-33202571D02*
X90537476Y-33107333D01*
X90537476Y-33107333D02*
X90585095Y-33012095D01*
X90299380Y-34202571D02*
X90299380Y-34297809D01*
X90299380Y-34297809D02*
X90347000Y-34393047D01*
X90347000Y-34393047D02*
X90394619Y-34440666D01*
X90394619Y-34440666D02*
X90489857Y-34488285D01*
X90489857Y-34488285D02*
X90680333Y-34535904D01*
X90680333Y-34535904D02*
X90918428Y-34535904D01*
X90918428Y-34535904D02*
X91108904Y-34488285D01*
X91108904Y-34488285D02*
X91204142Y-34440666D01*
X91204142Y-34440666D02*
X91251761Y-34393047D01*
X91251761Y-34393047D02*
X91299380Y-34297809D01*
X91299380Y-34297809D02*
X91299380Y-34202571D01*
X91299380Y-34202571D02*
X91251761Y-34107333D01*
X91251761Y-34107333D02*
X91204142Y-34059714D01*
X91204142Y-34059714D02*
X91108904Y-34012095D01*
X91108904Y-34012095D02*
X90918428Y-33964476D01*
X90918428Y-33964476D02*
X90680333Y-33964476D01*
X90680333Y-33964476D02*
X90489857Y-34012095D01*
X90489857Y-34012095D02*
X90394619Y-34059714D01*
X90394619Y-34059714D02*
X90347000Y-34107333D01*
X90347000Y-34107333D02*
X90299380Y-34202571D01*
X21367904Y-61351380D02*
X21367904Y-62160904D01*
X21367904Y-62160904D02*
X21320285Y-62256142D01*
X21320285Y-62256142D02*
X21272666Y-62303761D01*
X21272666Y-62303761D02*
X21177428Y-62351380D01*
X21177428Y-62351380D02*
X20986952Y-62351380D01*
X20986952Y-62351380D02*
X20891714Y-62303761D01*
X20891714Y-62303761D02*
X20844095Y-62256142D01*
X20844095Y-62256142D02*
X20796476Y-62160904D01*
X20796476Y-62160904D02*
X20796476Y-61351380D01*
X19796476Y-62351380D02*
X20367904Y-62351380D01*
X20082190Y-62351380D02*
X20082190Y-61351380D01*
X20082190Y-61351380D02*
X20177428Y-61494238D01*
X20177428Y-61494238D02*
X20272666Y-61589476D01*
X20272666Y-61589476D02*
X20367904Y-61637095D01*
X58533380Y-70159714D02*
X57533380Y-70159714D01*
X57533380Y-70159714D02*
X57533380Y-70397809D01*
X57533380Y-70397809D02*
X57581000Y-70540666D01*
X57581000Y-70540666D02*
X57676238Y-70635904D01*
X57676238Y-70635904D02*
X57771476Y-70683523D01*
X57771476Y-70683523D02*
X57961952Y-70731142D01*
X57961952Y-70731142D02*
X58104809Y-70731142D01*
X58104809Y-70731142D02*
X58295285Y-70683523D01*
X58295285Y-70683523D02*
X58390523Y-70635904D01*
X58390523Y-70635904D02*
X58485761Y-70540666D01*
X58485761Y-70540666D02*
X58533380Y-70397809D01*
X58533380Y-70397809D02*
X58533380Y-70159714D01*
X58533380Y-71683523D02*
X58533380Y-71112095D01*
X58533380Y-71397809D02*
X57533380Y-71397809D01*
X57533380Y-71397809D02*
X57676238Y-71302571D01*
X57676238Y-71302571D02*
X57771476Y-71207333D01*
X57771476Y-71207333D02*
X57819095Y-71112095D01*
X57533380Y-72540666D02*
X57533380Y-72350190D01*
X57533380Y-72350190D02*
X57581000Y-72254952D01*
X57581000Y-72254952D02*
X57628619Y-72207333D01*
X57628619Y-72207333D02*
X57771476Y-72112095D01*
X57771476Y-72112095D02*
X57961952Y-72064476D01*
X57961952Y-72064476D02*
X58342904Y-72064476D01*
X58342904Y-72064476D02*
X58438142Y-72112095D01*
X58438142Y-72112095D02*
X58485761Y-72159714D01*
X58485761Y-72159714D02*
X58533380Y-72254952D01*
X58533380Y-72254952D02*
X58533380Y-72445428D01*
X58533380Y-72445428D02*
X58485761Y-72540666D01*
X58485761Y-72540666D02*
X58438142Y-72588285D01*
X58438142Y-72588285D02*
X58342904Y-72635904D01*
X58342904Y-72635904D02*
X58104809Y-72635904D01*
X58104809Y-72635904D02*
X58009571Y-72588285D01*
X58009571Y-72588285D02*
X57961952Y-72540666D01*
X57961952Y-72540666D02*
X57914333Y-72445428D01*
X57914333Y-72445428D02*
X57914333Y-72254952D01*
X57914333Y-72254952D02*
X57961952Y-72159714D01*
X57961952Y-72159714D02*
X58009571Y-72112095D01*
X58009571Y-72112095D02*
X58104809Y-72064476D01*
X11162380Y-42060905D02*
X10162380Y-42060905D01*
X10162380Y-42060905D02*
X10162380Y-42299000D01*
X10162380Y-42299000D02*
X10210000Y-42441857D01*
X10210000Y-42441857D02*
X10305238Y-42537095D01*
X10305238Y-42537095D02*
X10400476Y-42584714D01*
X10400476Y-42584714D02*
X10590952Y-42632333D01*
X10590952Y-42632333D02*
X10733809Y-42632333D01*
X10733809Y-42632333D02*
X10924285Y-42584714D01*
X10924285Y-42584714D02*
X11019523Y-42537095D01*
X11019523Y-42537095D02*
X11114761Y-42441857D01*
X11114761Y-42441857D02*
X11162380Y-42299000D01*
X11162380Y-42299000D02*
X11162380Y-42060905D01*
X10162380Y-43489476D02*
X10162380Y-43299000D01*
X10162380Y-43299000D02*
X10210000Y-43203762D01*
X10210000Y-43203762D02*
X10257619Y-43156143D01*
X10257619Y-43156143D02*
X10400476Y-43060905D01*
X10400476Y-43060905D02*
X10590952Y-43013286D01*
X10590952Y-43013286D02*
X10971904Y-43013286D01*
X10971904Y-43013286D02*
X11067142Y-43060905D01*
X11067142Y-43060905D02*
X11114761Y-43108524D01*
X11114761Y-43108524D02*
X11162380Y-43203762D01*
X11162380Y-43203762D02*
X11162380Y-43394238D01*
X11162380Y-43394238D02*
X11114761Y-43489476D01*
X11114761Y-43489476D02*
X11067142Y-43537095D01*
X11067142Y-43537095D02*
X10971904Y-43584714D01*
X10971904Y-43584714D02*
X10733809Y-43584714D01*
X10733809Y-43584714D02*
X10638571Y-43537095D01*
X10638571Y-43537095D02*
X10590952Y-43489476D01*
X10590952Y-43489476D02*
X10543333Y-43394238D01*
X10543333Y-43394238D02*
X10543333Y-43203762D01*
X10543333Y-43203762D02*
X10590952Y-43108524D01*
X10590952Y-43108524D02*
X10638571Y-43060905D01*
X10638571Y-43060905D02*
X10733809Y-43013286D01*
X26495142Y-24757142D02*
X26542761Y-24709523D01*
X26542761Y-24709523D02*
X26590380Y-24566666D01*
X26590380Y-24566666D02*
X26590380Y-24471428D01*
X26590380Y-24471428D02*
X26542761Y-24328571D01*
X26542761Y-24328571D02*
X26447523Y-24233333D01*
X26447523Y-24233333D02*
X26352285Y-24185714D01*
X26352285Y-24185714D02*
X26161809Y-24138095D01*
X26161809Y-24138095D02*
X26018952Y-24138095D01*
X26018952Y-24138095D02*
X25828476Y-24185714D01*
X25828476Y-24185714D02*
X25733238Y-24233333D01*
X25733238Y-24233333D02*
X25638000Y-24328571D01*
X25638000Y-24328571D02*
X25590380Y-24471428D01*
X25590380Y-24471428D02*
X25590380Y-24566666D01*
X25590380Y-24566666D02*
X25638000Y-24709523D01*
X25638000Y-24709523D02*
X25685619Y-24757142D01*
X26590380Y-25709523D02*
X26590380Y-25138095D01*
X26590380Y-25423809D02*
X25590380Y-25423809D01*
X25590380Y-25423809D02*
X25733238Y-25328571D01*
X25733238Y-25328571D02*
X25828476Y-25233333D01*
X25828476Y-25233333D02*
X25876095Y-25138095D01*
X25590380Y-26614285D02*
X25590380Y-26138095D01*
X25590380Y-26138095D02*
X26066571Y-26090476D01*
X26066571Y-26090476D02*
X26018952Y-26138095D01*
X26018952Y-26138095D02*
X25971333Y-26233333D01*
X25971333Y-26233333D02*
X25971333Y-26471428D01*
X25971333Y-26471428D02*
X26018952Y-26566666D01*
X26018952Y-26566666D02*
X26066571Y-26614285D01*
X26066571Y-26614285D02*
X26161809Y-26661904D01*
X26161809Y-26661904D02*
X26399904Y-26661904D01*
X26399904Y-26661904D02*
X26495142Y-26614285D01*
X26495142Y-26614285D02*
X26542761Y-26566666D01*
X26542761Y-26566666D02*
X26590380Y-26471428D01*
X26590380Y-26471428D02*
X26590380Y-26233333D01*
X26590380Y-26233333D02*
X26542761Y-26138095D01*
X26542761Y-26138095D02*
X26495142Y-26090476D01*
X69336404Y-45717380D02*
X69336404Y-44717380D01*
X69336404Y-44717380D02*
X69003071Y-45431666D01*
X69003071Y-45431666D02*
X68669738Y-44717380D01*
X68669738Y-44717380D02*
X68669738Y-45717380D01*
X68288785Y-44717380D02*
X67622119Y-45717380D01*
X67622119Y-44717380D02*
X68288785Y-45717380D01*
X66717357Y-45717380D02*
X67288785Y-45717380D01*
X67003071Y-45717380D02*
X67003071Y-44717380D01*
X67003071Y-44717380D02*
X67098309Y-44860238D01*
X67098309Y-44860238D02*
X67193547Y-44955476D01*
X67193547Y-44955476D02*
X67288785Y-45003095D01*
X66384023Y-44717380D02*
X65764976Y-44717380D01*
X65764976Y-44717380D02*
X66098309Y-45098333D01*
X66098309Y-45098333D02*
X65955452Y-45098333D01*
X65955452Y-45098333D02*
X65860214Y-45145952D01*
X65860214Y-45145952D02*
X65812595Y-45193571D01*
X65812595Y-45193571D02*
X65764976Y-45288809D01*
X65764976Y-45288809D02*
X65764976Y-45526904D01*
X65764976Y-45526904D02*
X65812595Y-45622142D01*
X65812595Y-45622142D02*
X65860214Y-45669761D01*
X65860214Y-45669761D02*
X65955452Y-45717380D01*
X65955452Y-45717380D02*
X66241166Y-45717380D01*
X66241166Y-45717380D02*
X66336404Y-45669761D01*
X66336404Y-45669761D02*
X66384023Y-45622142D01*
X96633380Y-51109714D02*
X95633380Y-51109714D01*
X95633380Y-51109714D02*
X95633380Y-51347809D01*
X95633380Y-51347809D02*
X95681000Y-51490666D01*
X95681000Y-51490666D02*
X95776238Y-51585904D01*
X95776238Y-51585904D02*
X95871476Y-51633523D01*
X95871476Y-51633523D02*
X96061952Y-51681142D01*
X96061952Y-51681142D02*
X96204809Y-51681142D01*
X96204809Y-51681142D02*
X96395285Y-51633523D01*
X96395285Y-51633523D02*
X96490523Y-51585904D01*
X96490523Y-51585904D02*
X96585761Y-51490666D01*
X96585761Y-51490666D02*
X96633380Y-51347809D01*
X96633380Y-51347809D02*
X96633380Y-51109714D01*
X96633380Y-52633523D02*
X96633380Y-52062095D01*
X96633380Y-52347809D02*
X95633380Y-52347809D01*
X95633380Y-52347809D02*
X95776238Y-52252571D01*
X95776238Y-52252571D02*
X95871476Y-52157333D01*
X95871476Y-52157333D02*
X95919095Y-52062095D01*
X95966714Y-53490666D02*
X96633380Y-53490666D01*
X95585761Y-53252571D02*
X96300047Y-53014476D01*
X96300047Y-53014476D02*
X96300047Y-53633523D01*
X28265666Y-58409142D02*
X28313285Y-58456761D01*
X28313285Y-58456761D02*
X28456142Y-58504380D01*
X28456142Y-58504380D02*
X28551380Y-58504380D01*
X28551380Y-58504380D02*
X28694237Y-58456761D01*
X28694237Y-58456761D02*
X28789475Y-58361523D01*
X28789475Y-58361523D02*
X28837094Y-58266285D01*
X28837094Y-58266285D02*
X28884713Y-58075809D01*
X28884713Y-58075809D02*
X28884713Y-57932952D01*
X28884713Y-57932952D02*
X28837094Y-57742476D01*
X28837094Y-57742476D02*
X28789475Y-57647238D01*
X28789475Y-57647238D02*
X28694237Y-57552000D01*
X28694237Y-57552000D02*
X28551380Y-57504380D01*
X28551380Y-57504380D02*
X28456142Y-57504380D01*
X28456142Y-57504380D02*
X28313285Y-57552000D01*
X28313285Y-57552000D02*
X28265666Y-57599619D01*
X27313285Y-58504380D02*
X27884713Y-58504380D01*
X27598999Y-58504380D02*
X27598999Y-57504380D01*
X27598999Y-57504380D02*
X27694237Y-57647238D01*
X27694237Y-57647238D02*
X27789475Y-57742476D01*
X27789475Y-57742476D02*
X27884713Y-57790095D01*
X50286404Y-45717380D02*
X50286404Y-44717380D01*
X50286404Y-44717380D02*
X49953071Y-45431666D01*
X49953071Y-45431666D02*
X49619738Y-44717380D01*
X49619738Y-44717380D02*
X49619738Y-45717380D01*
X49238785Y-44717380D02*
X48572119Y-45717380D01*
X48572119Y-44717380D02*
X49238785Y-45717380D01*
X47667357Y-45717380D02*
X48238785Y-45717380D01*
X47953071Y-45717380D02*
X47953071Y-44717380D01*
X47953071Y-44717380D02*
X48048309Y-44860238D01*
X48048309Y-44860238D02*
X48143547Y-44955476D01*
X48143547Y-44955476D02*
X48238785Y-45003095D01*
X47286404Y-44812619D02*
X47238785Y-44765000D01*
X47238785Y-44765000D02*
X47143547Y-44717380D01*
X47143547Y-44717380D02*
X46905452Y-44717380D01*
X46905452Y-44717380D02*
X46810214Y-44765000D01*
X46810214Y-44765000D02*
X46762595Y-44812619D01*
X46762595Y-44812619D02*
X46714976Y-44907857D01*
X46714976Y-44907857D02*
X46714976Y-45003095D01*
X46714976Y-45003095D02*
X46762595Y-45145952D01*
X46762595Y-45145952D02*
X47334023Y-45717380D01*
X47334023Y-45717380D02*
X46714976Y-45717380D01*
X106539380Y-88701714D02*
X105539380Y-88701714D01*
X105539380Y-88701714D02*
X105539380Y-88939809D01*
X105539380Y-88939809D02*
X105587000Y-89082666D01*
X105587000Y-89082666D02*
X105682238Y-89177904D01*
X105682238Y-89177904D02*
X105777476Y-89225523D01*
X105777476Y-89225523D02*
X105967952Y-89273142D01*
X105967952Y-89273142D02*
X106110809Y-89273142D01*
X106110809Y-89273142D02*
X106301285Y-89225523D01*
X106301285Y-89225523D02*
X106396523Y-89177904D01*
X106396523Y-89177904D02*
X106491761Y-89082666D01*
X106491761Y-89082666D02*
X106539380Y-88939809D01*
X106539380Y-88939809D02*
X106539380Y-88701714D01*
X105634619Y-89654095D02*
X105587000Y-89701714D01*
X105587000Y-89701714D02*
X105539380Y-89796952D01*
X105539380Y-89796952D02*
X105539380Y-90035047D01*
X105539380Y-90035047D02*
X105587000Y-90130285D01*
X105587000Y-90130285D02*
X105634619Y-90177904D01*
X105634619Y-90177904D02*
X105729857Y-90225523D01*
X105729857Y-90225523D02*
X105825095Y-90225523D01*
X105825095Y-90225523D02*
X105967952Y-90177904D01*
X105967952Y-90177904D02*
X106539380Y-89606476D01*
X106539380Y-89606476D02*
X106539380Y-90225523D01*
X105634619Y-90606476D02*
X105587000Y-90654095D01*
X105587000Y-90654095D02*
X105539380Y-90749333D01*
X105539380Y-90749333D02*
X105539380Y-90987428D01*
X105539380Y-90987428D02*
X105587000Y-91082666D01*
X105587000Y-91082666D02*
X105634619Y-91130285D01*
X105634619Y-91130285D02*
X105729857Y-91177904D01*
X105729857Y-91177904D02*
X105825095Y-91177904D01*
X105825095Y-91177904D02*
X105967952Y-91130285D01*
X105967952Y-91130285D02*
X106539380Y-90558857D01*
X106539380Y-90558857D02*
X106539380Y-91177904D01*
X58533380Y-32535905D02*
X57533380Y-32535905D01*
X57533380Y-32535905D02*
X57533380Y-32774000D01*
X57533380Y-32774000D02*
X57581000Y-32916857D01*
X57581000Y-32916857D02*
X57676238Y-33012095D01*
X57676238Y-33012095D02*
X57771476Y-33059714D01*
X57771476Y-33059714D02*
X57961952Y-33107333D01*
X57961952Y-33107333D02*
X58104809Y-33107333D01*
X58104809Y-33107333D02*
X58295285Y-33059714D01*
X58295285Y-33059714D02*
X58390523Y-33012095D01*
X58390523Y-33012095D02*
X58485761Y-32916857D01*
X58485761Y-32916857D02*
X58533380Y-32774000D01*
X58533380Y-32774000D02*
X58533380Y-32535905D01*
X57961952Y-33678762D02*
X57914333Y-33583524D01*
X57914333Y-33583524D02*
X57866714Y-33535905D01*
X57866714Y-33535905D02*
X57771476Y-33488286D01*
X57771476Y-33488286D02*
X57723857Y-33488286D01*
X57723857Y-33488286D02*
X57628619Y-33535905D01*
X57628619Y-33535905D02*
X57581000Y-33583524D01*
X57581000Y-33583524D02*
X57533380Y-33678762D01*
X57533380Y-33678762D02*
X57533380Y-33869238D01*
X57533380Y-33869238D02*
X57581000Y-33964476D01*
X57581000Y-33964476D02*
X57628619Y-34012095D01*
X57628619Y-34012095D02*
X57723857Y-34059714D01*
X57723857Y-34059714D02*
X57771476Y-34059714D01*
X57771476Y-34059714D02*
X57866714Y-34012095D01*
X57866714Y-34012095D02*
X57914333Y-33964476D01*
X57914333Y-33964476D02*
X57961952Y-33869238D01*
X57961952Y-33869238D02*
X57961952Y-33678762D01*
X57961952Y-33678762D02*
X58009571Y-33583524D01*
X58009571Y-33583524D02*
X58057190Y-33535905D01*
X58057190Y-33535905D02*
X58152428Y-33488286D01*
X58152428Y-33488286D02*
X58342904Y-33488286D01*
X58342904Y-33488286D02*
X58438142Y-33535905D01*
X58438142Y-33535905D02*
X58485761Y-33583524D01*
X58485761Y-33583524D02*
X58533380Y-33678762D01*
X58533380Y-33678762D02*
X58533380Y-33869238D01*
X58533380Y-33869238D02*
X58485761Y-33964476D01*
X58485761Y-33964476D02*
X58438142Y-34012095D01*
X58438142Y-34012095D02*
X58342904Y-34059714D01*
X58342904Y-34059714D02*
X58152428Y-34059714D01*
X58152428Y-34059714D02*
X58057190Y-34012095D01*
X58057190Y-34012095D02*
X58009571Y-33964476D01*
X58009571Y-33964476D02*
X57961952Y-33869238D01*
X60836404Y-87317380D02*
X60836404Y-86317380D01*
X60836404Y-86317380D02*
X60503071Y-87031666D01*
X60503071Y-87031666D02*
X60169738Y-86317380D01*
X60169738Y-86317380D02*
X60169738Y-87317380D01*
X59788785Y-86317380D02*
X59122119Y-87317380D01*
X59122119Y-86317380D02*
X59788785Y-87317380D01*
X58788785Y-86412619D02*
X58741166Y-86365000D01*
X58741166Y-86365000D02*
X58645928Y-86317380D01*
X58645928Y-86317380D02*
X58407833Y-86317380D01*
X58407833Y-86317380D02*
X58312595Y-86365000D01*
X58312595Y-86365000D02*
X58264976Y-86412619D01*
X58264976Y-86412619D02*
X58217357Y-86507857D01*
X58217357Y-86507857D02*
X58217357Y-86603095D01*
X58217357Y-86603095D02*
X58264976Y-86745952D01*
X58264976Y-86745952D02*
X58836404Y-87317380D01*
X58836404Y-87317380D02*
X58217357Y-87317380D01*
X57360214Y-86650714D02*
X57360214Y-87317380D01*
X57598309Y-86269761D02*
X57836404Y-86984047D01*
X57836404Y-86984047D02*
X57217357Y-86984047D01*
X91299380Y-70159714D02*
X90299380Y-70159714D01*
X90299380Y-70159714D02*
X90299380Y-70397809D01*
X90299380Y-70397809D02*
X90347000Y-70540666D01*
X90347000Y-70540666D02*
X90442238Y-70635904D01*
X90442238Y-70635904D02*
X90537476Y-70683523D01*
X90537476Y-70683523D02*
X90727952Y-70731142D01*
X90727952Y-70731142D02*
X90870809Y-70731142D01*
X90870809Y-70731142D02*
X91061285Y-70683523D01*
X91061285Y-70683523D02*
X91156523Y-70635904D01*
X91156523Y-70635904D02*
X91251761Y-70540666D01*
X91251761Y-70540666D02*
X91299380Y-70397809D01*
X91299380Y-70397809D02*
X91299380Y-70159714D01*
X91299380Y-71683523D02*
X91299380Y-71112095D01*
X91299380Y-71397809D02*
X90299380Y-71397809D01*
X90299380Y-71397809D02*
X90442238Y-71302571D01*
X90442238Y-71302571D02*
X90537476Y-71207333D01*
X90537476Y-71207333D02*
X90585095Y-71112095D01*
X90727952Y-72254952D02*
X90680333Y-72159714D01*
X90680333Y-72159714D02*
X90632714Y-72112095D01*
X90632714Y-72112095D02*
X90537476Y-72064476D01*
X90537476Y-72064476D02*
X90489857Y-72064476D01*
X90489857Y-72064476D02*
X90394619Y-72112095D01*
X90394619Y-72112095D02*
X90347000Y-72159714D01*
X90347000Y-72159714D02*
X90299380Y-72254952D01*
X90299380Y-72254952D02*
X90299380Y-72445428D01*
X90299380Y-72445428D02*
X90347000Y-72540666D01*
X90347000Y-72540666D02*
X90394619Y-72588285D01*
X90394619Y-72588285D02*
X90489857Y-72635904D01*
X90489857Y-72635904D02*
X90537476Y-72635904D01*
X90537476Y-72635904D02*
X90632714Y-72588285D01*
X90632714Y-72588285D02*
X90680333Y-72540666D01*
X90680333Y-72540666D02*
X90727952Y-72445428D01*
X90727952Y-72445428D02*
X90727952Y-72254952D01*
X90727952Y-72254952D02*
X90775571Y-72159714D01*
X90775571Y-72159714D02*
X90823190Y-72112095D01*
X90823190Y-72112095D02*
X90918428Y-72064476D01*
X90918428Y-72064476D02*
X91108904Y-72064476D01*
X91108904Y-72064476D02*
X91204142Y-72112095D01*
X91204142Y-72112095D02*
X91251761Y-72159714D01*
X91251761Y-72159714D02*
X91299380Y-72254952D01*
X91299380Y-72254952D02*
X91299380Y-72445428D01*
X91299380Y-72445428D02*
X91251761Y-72540666D01*
X91251761Y-72540666D02*
X91204142Y-72588285D01*
X91204142Y-72588285D02*
X91108904Y-72635904D01*
X91108904Y-72635904D02*
X90918428Y-72635904D01*
X90918428Y-72635904D02*
X90823190Y-72588285D01*
X90823190Y-72588285D02*
X90775571Y-72540666D01*
X90775571Y-72540666D02*
X90727952Y-72445428D01*
X49810213Y-26667380D02*
X49810213Y-25667380D01*
X49810213Y-25667380D02*
X49476880Y-26381666D01*
X49476880Y-26381666D02*
X49143547Y-25667380D01*
X49143547Y-25667380D02*
X49143547Y-26667380D01*
X48762594Y-25667380D02*
X48095928Y-26667380D01*
X48095928Y-25667380D02*
X48762594Y-26667380D01*
X47810213Y-25667380D02*
X47143547Y-25667380D01*
X47143547Y-25667380D02*
X47572118Y-26667380D01*
X97911404Y-83817380D02*
X97911404Y-82817380D01*
X97911404Y-82817380D02*
X97578071Y-83531666D01*
X97578071Y-83531666D02*
X97244738Y-82817380D01*
X97244738Y-82817380D02*
X97244738Y-83817380D01*
X96863785Y-82817380D02*
X96197119Y-83817380D01*
X96197119Y-82817380D02*
X96863785Y-83817380D01*
X95863785Y-82912619D02*
X95816166Y-82865000D01*
X95816166Y-82865000D02*
X95720928Y-82817380D01*
X95720928Y-82817380D02*
X95482833Y-82817380D01*
X95482833Y-82817380D02*
X95387595Y-82865000D01*
X95387595Y-82865000D02*
X95339976Y-82912619D01*
X95339976Y-82912619D02*
X95292357Y-83007857D01*
X95292357Y-83007857D02*
X95292357Y-83103095D01*
X95292357Y-83103095D02*
X95339976Y-83245952D01*
X95339976Y-83245952D02*
X95911404Y-83817380D01*
X95911404Y-83817380D02*
X95292357Y-83817380D01*
X94435214Y-82817380D02*
X94625690Y-82817380D01*
X94625690Y-82817380D02*
X94720928Y-82865000D01*
X94720928Y-82865000D02*
X94768547Y-82912619D01*
X94768547Y-82912619D02*
X94863785Y-83055476D01*
X94863785Y-83055476D02*
X94911404Y-83245952D01*
X94911404Y-83245952D02*
X94911404Y-83626904D01*
X94911404Y-83626904D02*
X94863785Y-83722142D01*
X94863785Y-83722142D02*
X94816166Y-83769761D01*
X94816166Y-83769761D02*
X94720928Y-83817380D01*
X94720928Y-83817380D02*
X94530452Y-83817380D01*
X94530452Y-83817380D02*
X94435214Y-83769761D01*
X94435214Y-83769761D02*
X94387595Y-83722142D01*
X94387595Y-83722142D02*
X94339976Y-83626904D01*
X94339976Y-83626904D02*
X94339976Y-83388809D01*
X94339976Y-83388809D02*
X94387595Y-83293571D01*
X94387595Y-83293571D02*
X94435214Y-83245952D01*
X94435214Y-83245952D02*
X94530452Y-83198333D01*
X94530452Y-83198333D02*
X94720928Y-83198333D01*
X94720928Y-83198333D02*
X94816166Y-83245952D01*
X94816166Y-83245952D02*
X94863785Y-83293571D01*
X94863785Y-83293571D02*
X94911404Y-83388809D01*
X18875142Y-75557142D02*
X18922761Y-75509523D01*
X18922761Y-75509523D02*
X18970380Y-75366666D01*
X18970380Y-75366666D02*
X18970380Y-75271428D01*
X18970380Y-75271428D02*
X18922761Y-75128571D01*
X18922761Y-75128571D02*
X18827523Y-75033333D01*
X18827523Y-75033333D02*
X18732285Y-74985714D01*
X18732285Y-74985714D02*
X18541809Y-74938095D01*
X18541809Y-74938095D02*
X18398952Y-74938095D01*
X18398952Y-74938095D02*
X18208476Y-74985714D01*
X18208476Y-74985714D02*
X18113238Y-75033333D01*
X18113238Y-75033333D02*
X18018000Y-75128571D01*
X18018000Y-75128571D02*
X17970380Y-75271428D01*
X17970380Y-75271428D02*
X17970380Y-75366666D01*
X17970380Y-75366666D02*
X18018000Y-75509523D01*
X18018000Y-75509523D02*
X18065619Y-75557142D01*
X18970380Y-76509523D02*
X18970380Y-75938095D01*
X18970380Y-76223809D02*
X17970380Y-76223809D01*
X17970380Y-76223809D02*
X18113238Y-76128571D01*
X18113238Y-76128571D02*
X18208476Y-76033333D01*
X18208476Y-76033333D02*
X18256095Y-75938095D01*
X17970380Y-76842857D02*
X17970380Y-77461904D01*
X17970380Y-77461904D02*
X18351333Y-77128571D01*
X18351333Y-77128571D02*
X18351333Y-77271428D01*
X18351333Y-77271428D02*
X18398952Y-77366666D01*
X18398952Y-77366666D02*
X18446571Y-77414285D01*
X18446571Y-77414285D02*
X18541809Y-77461904D01*
X18541809Y-77461904D02*
X18779904Y-77461904D01*
X18779904Y-77461904D02*
X18875142Y-77414285D01*
X18875142Y-77414285D02*
X18922761Y-77366666D01*
X18922761Y-77366666D02*
X18970380Y-77271428D01*
X18970380Y-77271428D02*
X18970380Y-76985714D01*
X18970380Y-76985714D02*
X18922761Y-76890476D01*
X18922761Y-76890476D02*
X18875142Y-76842857D01*
X69336404Y-64767380D02*
X69336404Y-63767380D01*
X69336404Y-63767380D02*
X69003071Y-64481666D01*
X69003071Y-64481666D02*
X68669738Y-63767380D01*
X68669738Y-63767380D02*
X68669738Y-64767380D01*
X68288785Y-63767380D02*
X67622119Y-64767380D01*
X67622119Y-63767380D02*
X68288785Y-64767380D01*
X66717357Y-64767380D02*
X67288785Y-64767380D01*
X67003071Y-64767380D02*
X67003071Y-63767380D01*
X67003071Y-63767380D02*
X67098309Y-63910238D01*
X67098309Y-63910238D02*
X67193547Y-64005476D01*
X67193547Y-64005476D02*
X67288785Y-64053095D01*
X66241166Y-64767380D02*
X66050690Y-64767380D01*
X66050690Y-64767380D02*
X65955452Y-64719761D01*
X65955452Y-64719761D02*
X65907833Y-64672142D01*
X65907833Y-64672142D02*
X65812595Y-64529285D01*
X65812595Y-64529285D02*
X65764976Y-64338809D01*
X65764976Y-64338809D02*
X65764976Y-63957857D01*
X65764976Y-63957857D02*
X65812595Y-63862619D01*
X65812595Y-63862619D02*
X65860214Y-63815000D01*
X65860214Y-63815000D02*
X65955452Y-63767380D01*
X65955452Y-63767380D02*
X66145928Y-63767380D01*
X66145928Y-63767380D02*
X66241166Y-63815000D01*
X66241166Y-63815000D02*
X66288785Y-63862619D01*
X66288785Y-63862619D02*
X66336404Y-63957857D01*
X66336404Y-63957857D02*
X66336404Y-64195952D01*
X66336404Y-64195952D02*
X66288785Y-64291190D01*
X66288785Y-64291190D02*
X66241166Y-64338809D01*
X66241166Y-64338809D02*
X66145928Y-64386428D01*
X66145928Y-64386428D02*
X65955452Y-64386428D01*
X65955452Y-64386428D02*
X65860214Y-64338809D01*
X65860214Y-64338809D02*
X65812595Y-64291190D01*
X65812595Y-64291190D02*
X65764976Y-64195952D01*
X73583380Y-79049714D02*
X72583380Y-79049714D01*
X72583380Y-79049714D02*
X72583380Y-79287809D01*
X72583380Y-79287809D02*
X72631000Y-79430666D01*
X72631000Y-79430666D02*
X72726238Y-79525904D01*
X72726238Y-79525904D02*
X72821476Y-79573523D01*
X72821476Y-79573523D02*
X73011952Y-79621142D01*
X73011952Y-79621142D02*
X73154809Y-79621142D01*
X73154809Y-79621142D02*
X73345285Y-79573523D01*
X73345285Y-79573523D02*
X73440523Y-79525904D01*
X73440523Y-79525904D02*
X73535761Y-79430666D01*
X73535761Y-79430666D02*
X73583380Y-79287809D01*
X73583380Y-79287809D02*
X73583380Y-79049714D01*
X72678619Y-80002095D02*
X72631000Y-80049714D01*
X72631000Y-80049714D02*
X72583380Y-80144952D01*
X72583380Y-80144952D02*
X72583380Y-80383047D01*
X72583380Y-80383047D02*
X72631000Y-80478285D01*
X72631000Y-80478285D02*
X72678619Y-80525904D01*
X72678619Y-80525904D02*
X72773857Y-80573523D01*
X72773857Y-80573523D02*
X72869095Y-80573523D01*
X72869095Y-80573523D02*
X73011952Y-80525904D01*
X73011952Y-80525904D02*
X73583380Y-79954476D01*
X73583380Y-79954476D02*
X73583380Y-80573523D01*
X73583380Y-81525904D02*
X73583380Y-80954476D01*
X73583380Y-81240190D02*
X72583380Y-81240190D01*
X72583380Y-81240190D02*
X72726238Y-81144952D01*
X72726238Y-81144952D02*
X72821476Y-81049714D01*
X72821476Y-81049714D02*
X72869095Y-80954476D01*
X10943142Y-76038333D02*
X10990761Y-75990714D01*
X10990761Y-75990714D02*
X11038380Y-75847857D01*
X11038380Y-75847857D02*
X11038380Y-75752619D01*
X11038380Y-75752619D02*
X10990761Y-75609762D01*
X10990761Y-75609762D02*
X10895523Y-75514524D01*
X10895523Y-75514524D02*
X10800285Y-75466905D01*
X10800285Y-75466905D02*
X10609809Y-75419286D01*
X10609809Y-75419286D02*
X10466952Y-75419286D01*
X10466952Y-75419286D02*
X10276476Y-75466905D01*
X10276476Y-75466905D02*
X10181238Y-75514524D01*
X10181238Y-75514524D02*
X10086000Y-75609762D01*
X10086000Y-75609762D02*
X10038380Y-75752619D01*
X10038380Y-75752619D02*
X10038380Y-75847857D01*
X10038380Y-75847857D02*
X10086000Y-75990714D01*
X10086000Y-75990714D02*
X10133619Y-76038333D01*
X10038380Y-76943095D02*
X10038380Y-76466905D01*
X10038380Y-76466905D02*
X10514571Y-76419286D01*
X10514571Y-76419286D02*
X10466952Y-76466905D01*
X10466952Y-76466905D02*
X10419333Y-76562143D01*
X10419333Y-76562143D02*
X10419333Y-76800238D01*
X10419333Y-76800238D02*
X10466952Y-76895476D01*
X10466952Y-76895476D02*
X10514571Y-76943095D01*
X10514571Y-76943095D02*
X10609809Y-76990714D01*
X10609809Y-76990714D02*
X10847904Y-76990714D01*
X10847904Y-76990714D02*
X10943142Y-76943095D01*
X10943142Y-76943095D02*
X10990761Y-76895476D01*
X10990761Y-76895476D02*
X11038380Y-76800238D01*
X11038380Y-76800238D02*
X11038380Y-76562143D01*
X11038380Y-76562143D02*
X10990761Y-76466905D01*
X10990761Y-76466905D02*
X10943142Y-76419286D01*
X87910213Y-26667380D02*
X87910213Y-25667380D01*
X87910213Y-25667380D02*
X87576880Y-26381666D01*
X87576880Y-26381666D02*
X87243547Y-25667380D01*
X87243547Y-25667380D02*
X87243547Y-26667380D01*
X86862594Y-25667380D02*
X86195928Y-26667380D01*
X86195928Y-25667380D02*
X86862594Y-26667380D01*
X85767356Y-26667380D02*
X85576880Y-26667380D01*
X85576880Y-26667380D02*
X85481642Y-26619761D01*
X85481642Y-26619761D02*
X85434023Y-26572142D01*
X85434023Y-26572142D02*
X85338785Y-26429285D01*
X85338785Y-26429285D02*
X85291166Y-26238809D01*
X85291166Y-26238809D02*
X85291166Y-25857857D01*
X85291166Y-25857857D02*
X85338785Y-25762619D01*
X85338785Y-25762619D02*
X85386404Y-25715000D01*
X85386404Y-25715000D02*
X85481642Y-25667380D01*
X85481642Y-25667380D02*
X85672118Y-25667380D01*
X85672118Y-25667380D02*
X85767356Y-25715000D01*
X85767356Y-25715000D02*
X85814975Y-25762619D01*
X85814975Y-25762619D02*
X85862594Y-25857857D01*
X85862594Y-25857857D02*
X85862594Y-26095952D01*
X85862594Y-26095952D02*
X85814975Y-26191190D01*
X85814975Y-26191190D02*
X85767356Y-26238809D01*
X85767356Y-26238809D02*
X85672118Y-26286428D01*
X85672118Y-26286428D02*
X85481642Y-26286428D01*
X85481642Y-26286428D02*
X85386404Y-26238809D01*
X85386404Y-26238809D02*
X85338785Y-26191190D01*
X85338785Y-26191190D02*
X85291166Y-26095952D01*
X107436404Y-64767380D02*
X107436404Y-63767380D01*
X107436404Y-63767380D02*
X107103071Y-64481666D01*
X107103071Y-64481666D02*
X106769738Y-63767380D01*
X106769738Y-63767380D02*
X106769738Y-64767380D01*
X106388785Y-63767380D02*
X105722119Y-64767380D01*
X105722119Y-63767380D02*
X106388785Y-64767380D01*
X105388785Y-63862619D02*
X105341166Y-63815000D01*
X105341166Y-63815000D02*
X105245928Y-63767380D01*
X105245928Y-63767380D02*
X105007833Y-63767380D01*
X105007833Y-63767380D02*
X104912595Y-63815000D01*
X104912595Y-63815000D02*
X104864976Y-63862619D01*
X104864976Y-63862619D02*
X104817357Y-63957857D01*
X104817357Y-63957857D02*
X104817357Y-64053095D01*
X104817357Y-64053095D02*
X104864976Y-64195952D01*
X104864976Y-64195952D02*
X105436404Y-64767380D01*
X105436404Y-64767380D02*
X104817357Y-64767380D01*
X103864976Y-64767380D02*
X104436404Y-64767380D01*
X104150690Y-64767380D02*
X104150690Y-63767380D01*
X104150690Y-63767380D02*
X104245928Y-63910238D01*
X104245928Y-63910238D02*
X104341166Y-64005476D01*
X104341166Y-64005476D02*
X104436404Y-64053095D01*
X13341000Y-67731000D02*
X16441000Y-67731000D01*
X13341000Y-72731000D02*
X16441000Y-72731000D01*
D11*
X10966000Y-72136000D02*
G75*
G03*
X10966000Y-72136000I-125000J0D01*
G01*
D12*
X32650000Y-19017064D02*
X32650000Y-17812936D01*
X34470000Y-19017064D02*
X34470000Y-17812936D01*
X10370000Y-87392000D02*
X10370000Y-89392000D01*
X9320000Y-90692000D02*
X8870000Y-91142000D01*
X9320000Y-86092000D02*
X8870000Y-85642000D01*
X8870000Y-91142000D02*
X6370000Y-91142000D01*
X8870000Y-85642000D02*
X6370000Y-85642000D01*
X5920000Y-90692000D02*
X6370000Y-91142000D01*
X5920000Y-86092000D02*
X6370000Y-85642000D01*
X4870000Y-87392000D02*
X4870000Y-89392000D01*
D10*
X87239324Y-43429780D02*
X87239324Y-43899780D01*
X87239324Y-40349780D02*
X87239324Y-40579780D01*
X86739324Y-44399780D02*
X82174500Y-44399780D01*
X85689324Y-40349780D02*
X87239324Y-40349780D01*
X78289324Y-40349780D02*
X84189324Y-40349780D01*
X76289324Y-45999780D02*
X76289324Y-46239780D01*
X76289324Y-43149780D02*
X76289324Y-42349780D01*
X86739324Y-44399780D02*
G75*
G03*
X87239324Y-43899780I-1J500001D01*
G01*
X82174500Y-44399781D02*
G75*
G03*
X79880179Y-46239780I-866J-2349331D01*
G01*
X78289324Y-40349780D02*
G75*
G03*
X76289324Y-42349780I5J-2000005D01*
G01*
X106289324Y-5329780D02*
X106289324Y-5799780D01*
X106289324Y-2249780D02*
X106289324Y-2479780D01*
X105789324Y-6299780D02*
X101224500Y-6299780D01*
X104739324Y-2249780D02*
X106289324Y-2249780D01*
X97339324Y-2249780D02*
X103239324Y-2249780D01*
X95339324Y-7899780D02*
X95339324Y-8139780D01*
X95339324Y-5049780D02*
X95339324Y-4249780D01*
X105789324Y-6299780D02*
G75*
G03*
X106289324Y-5799780I-1J500001D01*
G01*
X101224500Y-6299781D02*
G75*
G03*
X98930179Y-8139780I-866J-2349331D01*
G01*
X97339324Y-2249780D02*
G75*
G03*
X95339324Y-4249780I5J-2000005D01*
G01*
D12*
X10961252Y-60552000D02*
X10438748Y-60552000D01*
X10961252Y-59082000D02*
X10438748Y-59082000D01*
D10*
X87239324Y-5329780D02*
X87239324Y-5799780D01*
X87239324Y-2249780D02*
X87239324Y-2479780D01*
X86739324Y-6299780D02*
X82174500Y-6299780D01*
X85689324Y-2249780D02*
X87239324Y-2249780D01*
X78289324Y-2249780D02*
X84189324Y-2249780D01*
X76289324Y-7899780D02*
X76289324Y-8139780D01*
X76289324Y-5049780D02*
X76289324Y-4249780D01*
X86739324Y-6299780D02*
G75*
G03*
X87239324Y-5799780I-1J500001D01*
G01*
X82174500Y-6299781D02*
G75*
G03*
X79880179Y-8139780I-866J-2349331D01*
G01*
X78289324Y-2249780D02*
G75*
G03*
X76289324Y-4249780I5J-2000005D01*
G01*
D12*
X12832000Y-25172936D02*
X12832000Y-25627064D01*
X11362000Y-25172936D02*
X11362000Y-25627064D01*
D10*
X26910000Y-13663000D02*
X28010000Y-13663000D01*
X28010000Y-14263000D02*
X28010000Y-13663000D01*
X28010000Y-16563000D02*
X26910000Y-16563000D01*
X28010000Y-16563000D02*
X28010000Y-15963000D01*
D12*
X71390000Y-78014000D02*
X71390000Y-81914000D01*
X69390000Y-78014000D02*
X71390000Y-78014000D01*
X69390000Y-78014000D02*
X69390000Y-81914000D01*
X74216000Y-73624000D02*
X74216000Y-69724000D01*
X76216000Y-73624000D02*
X74216000Y-73624000D01*
X76216000Y-73624000D02*
X76216000Y-69724000D01*
D10*
X68189324Y-24379780D02*
X68189324Y-24849780D01*
X68189324Y-21299780D02*
X68189324Y-21529780D01*
X67689324Y-25349780D02*
X63124500Y-25349780D01*
X66639324Y-21299780D02*
X68189324Y-21299780D01*
X59239324Y-21299780D02*
X65139324Y-21299780D01*
X57239324Y-26949780D02*
X57239324Y-27189780D01*
X57239324Y-24099780D02*
X57239324Y-23299780D01*
X67689324Y-25349780D02*
G75*
G03*
X68189324Y-24849780I-1J500001D01*
G01*
X63124500Y-25349781D02*
G75*
G03*
X60830179Y-27189780I-866J-2349331D01*
G01*
X59239324Y-21299780D02*
G75*
G03*
X57239324Y-23299780I5J-2000005D01*
G01*
D12*
X26299844Y-10153180D02*
X26299844Y-9699052D01*
X27769844Y-10153180D02*
X27769844Y-9699052D01*
X12350000Y-54515000D02*
X12350000Y-58515000D01*
X9050000Y-54515000D02*
X12350000Y-54515000D01*
X55166000Y-16474000D02*
X55166000Y-12574000D01*
X57166000Y-16474000D02*
X55166000Y-16474000D01*
X57166000Y-16474000D02*
X57166000Y-12574000D01*
X24697000Y-46108252D02*
X24697000Y-45585748D01*
X26167000Y-46108252D02*
X26167000Y-45585748D01*
X20579000Y-25172936D02*
X20579000Y-25627064D01*
X19109000Y-25172936D02*
X19109000Y-25627064D01*
X43430000Y-19542000D02*
X39530000Y-19542000D01*
X43430000Y-17542000D02*
X43430000Y-19542000D01*
X43430000Y-17542000D02*
X39530000Y-17542000D01*
D10*
X49139324Y-5329780D02*
X49139324Y-5799780D01*
X49139324Y-2249780D02*
X49139324Y-2479780D01*
X48639324Y-6299780D02*
X44074500Y-6299780D01*
X47589324Y-2249780D02*
X49139324Y-2249780D01*
X40189324Y-2249780D02*
X46089324Y-2249780D01*
X38189324Y-7899780D02*
X38189324Y-8139780D01*
X38189324Y-5049780D02*
X38189324Y-4249780D01*
X48639324Y-6299780D02*
G75*
G03*
X49139324Y-5799780I-1J500001D01*
G01*
X44074500Y-6299781D02*
G75*
G03*
X41780179Y-8139780I-866J-2349331D01*
G01*
X40189324Y-2249780D02*
G75*
G03*
X38189324Y-4249780I5J-2000005D01*
G01*
D12*
X22411000Y-46074064D02*
X22411000Y-45619936D01*
X23881000Y-46074064D02*
X23881000Y-45619936D01*
X34144719Y-9672116D02*
X34144719Y-10126244D01*
X32674719Y-9672116D02*
X32674719Y-10126244D01*
X30539000Y-10641064D02*
X30539000Y-10186936D01*
X32009000Y-10641064D02*
X32009000Y-10186936D01*
X6663000Y-25661252D02*
X6663000Y-25138748D01*
X8133000Y-25661252D02*
X8133000Y-25138748D01*
X24301000Y-89519000D02*
X24301000Y-87519000D01*
X25351000Y-86219000D02*
X25801000Y-85769000D01*
X25351000Y-90819000D02*
X25801000Y-91269000D01*
X25801000Y-85769000D02*
X28301000Y-85769000D01*
X25801000Y-91269000D02*
X28301000Y-91269000D01*
X28751000Y-86219000D02*
X28301000Y-85769000D01*
X28751000Y-90819000D02*
X28301000Y-91269000D01*
X29801000Y-89519000D02*
X29801000Y-87519000D01*
D10*
X106289324Y-43429780D02*
X106289324Y-43899780D01*
X106289324Y-40349780D02*
X106289324Y-40579780D01*
X105789324Y-44399780D02*
X101224500Y-44399780D01*
X104739324Y-40349780D02*
X106289324Y-40349780D01*
X97339324Y-40349780D02*
X103239324Y-40349780D01*
X95339324Y-45999780D02*
X95339324Y-46239780D01*
X95339324Y-43149780D02*
X95339324Y-42349780D01*
X105789324Y-44399780D02*
G75*
G03*
X106289324Y-43899780I-1J500001D01*
G01*
X101224500Y-44399781D02*
G75*
G03*
X98930179Y-46239780I-866J-2349331D01*
G01*
X97339324Y-40349780D02*
G75*
G03*
X95339324Y-42349780I5J-2000005D01*
G01*
D12*
X28252936Y-50700000D02*
X28707064Y-50700000D01*
X28252936Y-52170000D02*
X28707064Y-52170000D01*
D10*
X106289324Y-72004780D02*
X106289324Y-72474780D01*
X106289324Y-68924780D02*
X106289324Y-69154780D01*
X105789324Y-72974780D02*
X101224500Y-72974780D01*
X104739324Y-68924780D02*
X106289324Y-68924780D01*
X97339324Y-68924780D02*
X103239324Y-68924780D01*
X95339324Y-74574780D02*
X95339324Y-74814780D01*
X95339324Y-71724780D02*
X95339324Y-70924780D01*
X105789324Y-72974780D02*
G75*
G03*
X106289324Y-72474780I-1J500001D01*
G01*
X101224500Y-72974781D02*
G75*
G03*
X98930179Y-74814780I-866J-2349331D01*
G01*
X97339324Y-68924780D02*
G75*
G03*
X95339324Y-70924780I5J-2000005D01*
G01*
D12*
X36116000Y-54574000D02*
X36116000Y-50674000D01*
X38116000Y-54574000D02*
X36116000Y-54574000D01*
X38116000Y-54574000D02*
X38116000Y-50674000D01*
D10*
X87239324Y-62479780D02*
X87239324Y-62949780D01*
X87239324Y-59399780D02*
X87239324Y-59629780D01*
X86739324Y-63449780D02*
X82174500Y-63449780D01*
X85689324Y-59399780D02*
X87239324Y-59399780D01*
X78289324Y-59399780D02*
X84189324Y-59399780D01*
X76289324Y-65049780D02*
X76289324Y-65289780D01*
X76289324Y-62199780D02*
X76289324Y-61399780D01*
X86739324Y-63449780D02*
G75*
G03*
X87239324Y-62949780I-1J500001D01*
G01*
X82174500Y-63449781D02*
G75*
G03*
X79880179Y-65289780I-866J-2349331D01*
G01*
X78289324Y-59399780D02*
G75*
G03*
X76289324Y-61399780I5J-2000005D01*
G01*
D12*
X37386000Y-16474000D02*
X37386000Y-12574000D01*
X39386000Y-16474000D02*
X37386000Y-16474000D01*
X39386000Y-16474000D02*
X39386000Y-12574000D01*
X28707064Y-50011000D02*
X28252936Y-50011000D01*
X28707064Y-48541000D02*
X28252936Y-48541000D01*
X21395000Y-25627064D02*
X21395000Y-25172936D01*
X22865000Y-25627064D02*
X22865000Y-25172936D01*
D10*
X77509676Y-88870220D02*
X77509676Y-88400220D01*
X77509676Y-91950220D02*
X77509676Y-91720220D01*
X78009676Y-87900220D02*
X82574500Y-87900220D01*
X79059676Y-91950220D02*
X77509676Y-91950220D01*
X86459676Y-91950220D02*
X80559676Y-91950220D01*
X88459676Y-86300220D02*
X88459676Y-86060220D01*
X88459676Y-89150220D02*
X88459676Y-89950220D01*
X78009676Y-87900220D02*
G75*
G03*
X77509676Y-88400220I1J-500001D01*
G01*
X82574500Y-87900219D02*
G75*
G03*
X84868821Y-86060220I866J2349331D01*
G01*
X86459676Y-91950220D02*
G75*
G03*
X88459676Y-89950220I-5J2000005D01*
G01*
X49139324Y-72004780D02*
X49139324Y-72474780D01*
X49139324Y-68924780D02*
X49139324Y-69154780D01*
X48639324Y-72974780D02*
X44074500Y-72974780D01*
X47589324Y-68924780D02*
X49139324Y-68924780D01*
X40189324Y-68924780D02*
X46089324Y-68924780D01*
X38189324Y-74574780D02*
X38189324Y-74814780D01*
X38189324Y-71724780D02*
X38189324Y-70924780D01*
X48639324Y-72974780D02*
G75*
G03*
X49139324Y-72474780I-1J500001D01*
G01*
X44074500Y-72974781D02*
G75*
G03*
X41780179Y-74814780I-866J-2349331D01*
G01*
X40189324Y-68924780D02*
G75*
G03*
X38189324Y-70924780I5J-2000005D01*
G01*
X49139324Y-62479780D02*
X49139324Y-62949780D01*
X49139324Y-59399780D02*
X49139324Y-59629780D01*
X48639324Y-63449780D02*
X44074500Y-63449780D01*
X47589324Y-59399780D02*
X49139324Y-59399780D01*
X40189324Y-59399780D02*
X46089324Y-59399780D01*
X38189324Y-65049780D02*
X38189324Y-65289780D01*
X38189324Y-62199780D02*
X38189324Y-61399780D01*
X48639324Y-63449780D02*
G75*
G03*
X49139324Y-62949780I-1J500001D01*
G01*
X44074500Y-63449781D02*
G75*
G03*
X41780179Y-65289780I-866J-2349331D01*
G01*
X40189324Y-59399780D02*
G75*
G03*
X38189324Y-61399780I5J-2000005D01*
G01*
D12*
X30538936Y-70893000D02*
X30993064Y-70893000D01*
X30538936Y-72363000D02*
X30993064Y-72363000D01*
X26983000Y-46108252D02*
X26983000Y-45585748D01*
X28453000Y-46108252D02*
X28453000Y-45585748D01*
D10*
X68189324Y-5329780D02*
X68189324Y-5799780D01*
X68189324Y-2249780D02*
X68189324Y-2479780D01*
X67689324Y-6299780D02*
X63124500Y-6299780D01*
X66639324Y-2249780D02*
X68189324Y-2249780D01*
X59239324Y-2249780D02*
X65139324Y-2249780D01*
X57239324Y-7899780D02*
X57239324Y-8139780D01*
X57239324Y-5049780D02*
X57239324Y-4249780D01*
X67689324Y-6299780D02*
G75*
G03*
X68189324Y-5799780I-1J500001D01*
G01*
X63124500Y-6299781D02*
G75*
G03*
X60830179Y-8139780I-866J-2349331D01*
G01*
X59239324Y-2249780D02*
G75*
G03*
X57239324Y-4249780I5J-2000005D01*
G01*
X49139324Y-33904780D02*
X49139324Y-34374780D01*
X49139324Y-30824780D02*
X49139324Y-31054780D01*
X48639324Y-34874780D02*
X44074500Y-34874780D01*
X47589324Y-30824780D02*
X49139324Y-30824780D01*
X40189324Y-30824780D02*
X46089324Y-30824780D01*
X38189324Y-36474780D02*
X38189324Y-36714780D01*
X38189324Y-33624780D02*
X38189324Y-32824780D01*
X48639324Y-34874780D02*
G75*
G03*
X49139324Y-34374780I-1J500001D01*
G01*
X44074500Y-34874781D02*
G75*
G03*
X41780179Y-36714780I-866J-2349331D01*
G01*
X40189324Y-30824780D02*
G75*
G03*
X38189324Y-32824780I5J-2000005D01*
G01*
X20851824Y-33904780D02*
X20851824Y-34374780D01*
X20851824Y-30824780D02*
X20851824Y-31054780D01*
X20351824Y-34874780D02*
X15787000Y-34874780D01*
X19301824Y-30824780D02*
X20851824Y-30824780D01*
X11901824Y-30824780D02*
X17801824Y-30824780D01*
X9901824Y-36474780D02*
X9901824Y-36714780D01*
X9901824Y-33624780D02*
X9901824Y-32824780D01*
X20351824Y-34874780D02*
G75*
G03*
X20851824Y-34374780I-1J500001D01*
G01*
X15787000Y-34874781D02*
G75*
G03*
X13492679Y-36714780I-866J-2349331D01*
G01*
X11901824Y-30824780D02*
G75*
G03*
X9901824Y-32824780I5J-2000005D01*
G01*
D12*
X74216000Y-16474000D02*
X74216000Y-12574000D01*
X76216000Y-16474000D02*
X74216000Y-16474000D01*
X76216000Y-16474000D02*
X76216000Y-12574000D01*
D10*
X106289324Y-33904780D02*
X106289324Y-34374780D01*
X106289324Y-30824780D02*
X106289324Y-31054780D01*
X105789324Y-34874780D02*
X101224500Y-34874780D01*
X104739324Y-30824780D02*
X106289324Y-30824780D01*
X97339324Y-30824780D02*
X103239324Y-30824780D01*
X95339324Y-36474780D02*
X95339324Y-36714780D01*
X95339324Y-33624780D02*
X95339324Y-32824780D01*
X105789324Y-34874780D02*
G75*
G03*
X106289324Y-34374780I-1J500001D01*
G01*
X101224500Y-34874781D02*
G75*
G03*
X98930179Y-36714780I-866J-2349331D01*
G01*
X97339324Y-30824780D02*
G75*
G03*
X95339324Y-32824780I5J-2000005D01*
G01*
D12*
X32094000Y-70162000D02*
X32094000Y-69902000D01*
X32094000Y-64972000D02*
X33769000Y-64972000D01*
X32094000Y-64712000D02*
X32094000Y-64972000D01*
X29369000Y-70162000D02*
X32094000Y-70162000D01*
X29369000Y-70162000D02*
X26644000Y-70162000D01*
X29369000Y-64712000D02*
X32094000Y-64712000D01*
X29369000Y-64712000D02*
X26644000Y-64712000D01*
X26644000Y-70162000D02*
X26644000Y-69902000D01*
X26644000Y-64712000D02*
X26644000Y-64972000D01*
X30993064Y-63981000D02*
X30538936Y-63981000D01*
X30993064Y-62511000D02*
X30538936Y-62511000D01*
X15372000Y-75943748D02*
X15372000Y-76466252D01*
X13902000Y-75943748D02*
X13902000Y-76466252D01*
X15626064Y-66775000D02*
X15171936Y-66775000D01*
X15626064Y-65305000D02*
X15171936Y-65305000D01*
X74216000Y-35524000D02*
X74216000Y-31624000D01*
X76216000Y-35524000D02*
X74216000Y-35524000D01*
X76216000Y-35524000D02*
X76216000Y-31624000D01*
X13374252Y-51789000D02*
X12851748Y-51789000D01*
X13374252Y-50319000D02*
X12851748Y-50319000D01*
X10961252Y-53948000D02*
X10438748Y-53948000D01*
X10961252Y-52478000D02*
X10438748Y-52478000D01*
X28507000Y-10641064D02*
X28507000Y-10186936D01*
X29977000Y-10641064D02*
X29977000Y-10186936D01*
X36116000Y-92166000D02*
X36116000Y-88266000D01*
X38116000Y-92166000D02*
X36116000Y-92166000D01*
X38116000Y-92166000D02*
X38116000Y-88266000D01*
D10*
X106289324Y-24379780D02*
X106289324Y-24849780D01*
X106289324Y-21299780D02*
X106289324Y-21529780D01*
X105789324Y-25349780D02*
X101224500Y-25349780D01*
X104739324Y-21299780D02*
X106289324Y-21299780D01*
X97339324Y-21299780D02*
X103239324Y-21299780D01*
X95339324Y-26949780D02*
X95339324Y-27189780D01*
X95339324Y-24099780D02*
X95339324Y-23299780D01*
X105789324Y-25349780D02*
G75*
G03*
X106289324Y-24849780I-1J500001D01*
G01*
X101224500Y-25349781D02*
G75*
G03*
X98930179Y-27189780I-866J-2349331D01*
G01*
X97339324Y-21299780D02*
G75*
G03*
X95339324Y-23299780I5J-2000005D01*
G01*
D12*
X93266000Y-16474000D02*
X93266000Y-12574000D01*
X95266000Y-16474000D02*
X93266000Y-16474000D01*
X95266000Y-16474000D02*
X95266000Y-12574000D01*
X14483000Y-89146748D02*
X14483000Y-89669252D01*
X13013000Y-89146748D02*
X13013000Y-89669252D01*
X36116000Y-82514000D02*
X36116000Y-78614000D01*
X38116000Y-82514000D02*
X36116000Y-82514000D01*
X38116000Y-82514000D02*
X38116000Y-78614000D01*
X55166000Y-54574000D02*
X55166000Y-50674000D01*
X57166000Y-54574000D02*
X55166000Y-54574000D01*
X57166000Y-54574000D02*
X57166000Y-50674000D01*
D10*
X58664324Y-81529780D02*
X58664324Y-81999780D01*
X58664324Y-78449780D02*
X58664324Y-78679780D01*
X58164324Y-82499780D02*
X53599500Y-82499780D01*
X57114324Y-78449780D02*
X58664324Y-78449780D01*
X49714324Y-78449780D02*
X55614324Y-78449780D01*
X47714324Y-84099780D02*
X47714324Y-84339780D01*
X47714324Y-81249780D02*
X47714324Y-80449780D01*
X58164324Y-82499780D02*
G75*
G03*
X58664324Y-81999780I-1J500001D01*
G01*
X53599500Y-82499781D02*
G75*
G03*
X51305179Y-84339780I-866J-2349331D01*
G01*
X49714324Y-78449780D02*
G75*
G03*
X47714324Y-80449780I5J-2000005D01*
G01*
D12*
X74216000Y-54574000D02*
X74216000Y-50674000D01*
X76216000Y-54574000D02*
X74216000Y-54574000D01*
X76216000Y-54574000D02*
X76216000Y-50674000D01*
X87932000Y-35524000D02*
X87932000Y-31624000D01*
X89932000Y-35524000D02*
X87932000Y-35524000D01*
X89932000Y-35524000D02*
X89932000Y-31624000D01*
X16996000Y-52524000D02*
X16996000Y-52974000D01*
X16996000Y-59294000D02*
X15706000Y-59294000D01*
X16996000Y-59744000D02*
X16996000Y-59294000D01*
X17446000Y-52524000D02*
X16996000Y-52524000D01*
X17446000Y-59744000D02*
X16996000Y-59744000D01*
X23766000Y-52524000D02*
X24216000Y-52524000D01*
X23766000Y-59744000D02*
X24216000Y-59744000D01*
X24216000Y-52524000D02*
X24216000Y-52974000D01*
X24216000Y-59744000D02*
X24216000Y-59294000D01*
X20579000Y-71908936D02*
X20579000Y-72363064D01*
X19109000Y-71908936D02*
X19109000Y-72363064D01*
X15744000Y-3540000D02*
X11844000Y-3540000D01*
X15744000Y-1540000D02*
X15744000Y-3540000D01*
X15744000Y-1540000D02*
X11844000Y-1540000D01*
X55166000Y-73624000D02*
X55166000Y-69724000D01*
X57166000Y-73624000D02*
X55166000Y-73624000D01*
X57166000Y-73624000D02*
X57166000Y-69724000D01*
X7795000Y-45049000D02*
X7795000Y-41149000D01*
X9795000Y-45049000D02*
X7795000Y-45049000D01*
X9795000Y-45049000D02*
X9795000Y-41149000D01*
X23808000Y-25661252D02*
X23808000Y-25138748D01*
X25278000Y-25661252D02*
X25278000Y-25138748D01*
D10*
X68189324Y-43429780D02*
X68189324Y-43899780D01*
X68189324Y-40349780D02*
X68189324Y-40579780D01*
X67689324Y-44399780D02*
X63124500Y-44399780D01*
X66639324Y-40349780D02*
X68189324Y-40349780D01*
X59239324Y-40349780D02*
X65139324Y-40349780D01*
X57239324Y-45999780D02*
X57239324Y-46239780D01*
X57239324Y-43149780D02*
X57239324Y-42349780D01*
X67689324Y-44399780D02*
G75*
G03*
X68189324Y-43899780I-1J500001D01*
G01*
X63124500Y-44399781D02*
G75*
G03*
X60830179Y-46239780I-866J-2349331D01*
G01*
X59239324Y-40349780D02*
G75*
G03*
X57239324Y-42349780I5J-2000005D01*
G01*
D12*
X93266000Y-54574000D02*
X93266000Y-50674000D01*
X95266000Y-54574000D02*
X93266000Y-54574000D01*
X95266000Y-54574000D02*
X95266000Y-50674000D01*
X28360252Y-60552000D02*
X27837748Y-60552000D01*
X28360252Y-59082000D02*
X27837748Y-59082000D01*
X8949000Y-25627064D02*
X8949000Y-25172936D01*
X10419000Y-25627064D02*
X10419000Y-25172936D01*
D10*
X49139324Y-43429780D02*
X49139324Y-43899780D01*
X49139324Y-40349780D02*
X49139324Y-40579780D01*
X48639324Y-44399780D02*
X44074500Y-44399780D01*
X47589324Y-40349780D02*
X49139324Y-40349780D01*
X40189324Y-40349780D02*
X46089324Y-40349780D01*
X38189324Y-45999780D02*
X38189324Y-46239780D01*
X38189324Y-43149780D02*
X38189324Y-42349780D01*
X48639324Y-44399780D02*
G75*
G03*
X49139324Y-43899780I-1J500001D01*
G01*
X44074500Y-44399781D02*
G75*
G03*
X41780179Y-46239780I-866J-2349331D01*
G01*
X40189324Y-40349780D02*
G75*
G03*
X38189324Y-42349780I5J-2000005D01*
G01*
D12*
X32698000Y-13689064D02*
X32698000Y-13234936D01*
X34168000Y-13689064D02*
X34168000Y-13234936D01*
X26802000Y-18661748D02*
X26802000Y-19184252D01*
X25332000Y-18661748D02*
X25332000Y-19184252D01*
X29088000Y-18661748D02*
X29088000Y-19184252D01*
X27618000Y-18661748D02*
X27618000Y-19184252D01*
X103172000Y-92166000D02*
X103172000Y-88266000D01*
X105172000Y-92166000D02*
X103172000Y-92166000D01*
X105172000Y-92166000D02*
X105172000Y-88266000D01*
X55166000Y-35524000D02*
X55166000Y-31624000D01*
X57166000Y-35524000D02*
X55166000Y-35524000D01*
X57166000Y-35524000D02*
X57166000Y-31624000D01*
X20125000Y-89635064D02*
X20125000Y-89180936D01*
X21595000Y-89635064D02*
X21595000Y-89180936D01*
D10*
X58459676Y-88870220D02*
X58459676Y-88400220D01*
X58459676Y-91950220D02*
X58459676Y-91720220D01*
X58959676Y-87900220D02*
X63524500Y-87900220D01*
X60009676Y-91950220D02*
X58459676Y-91950220D01*
X67409676Y-91950220D02*
X61509676Y-91950220D01*
X69409676Y-86300220D02*
X69409676Y-86060220D01*
X69409676Y-89150220D02*
X69409676Y-89950220D01*
X58959676Y-87900220D02*
G75*
G03*
X58459676Y-88400220I1J-500001D01*
G01*
X63524500Y-87900219D02*
G75*
G03*
X65818821Y-86060220I866J2349331D01*
G01*
X67409676Y-91950220D02*
G75*
G03*
X69409676Y-89950220I-5J2000005D01*
G01*
D12*
X87932000Y-73624000D02*
X87932000Y-69724000D01*
X89932000Y-73624000D02*
X87932000Y-73624000D01*
X89932000Y-73624000D02*
X89932000Y-69724000D01*
X31458000Y-8408000D02*
X29058000Y-8408000D01*
X29058000Y-5308000D02*
X32008000Y-5308000D01*
D10*
X49139324Y-24379780D02*
X49139324Y-24849780D01*
X49139324Y-21299780D02*
X49139324Y-21529780D01*
X48639324Y-25349780D02*
X44074500Y-25349780D01*
X47589324Y-21299780D02*
X49139324Y-21299780D01*
X40189324Y-21299780D02*
X46089324Y-21299780D01*
X38189324Y-26949780D02*
X38189324Y-27189780D01*
X38189324Y-24099780D02*
X38189324Y-23299780D01*
X48639324Y-25349780D02*
G75*
G03*
X49139324Y-24849780I-1J500001D01*
G01*
X44074500Y-25349781D02*
G75*
G03*
X41780179Y-27189780I-866J-2349331D01*
G01*
X40189324Y-21299780D02*
G75*
G03*
X38189324Y-23299780I5J-2000005D01*
G01*
X96764324Y-81529780D02*
X96764324Y-81999780D01*
X96764324Y-78449780D02*
X96764324Y-78679780D01*
X96264324Y-82499780D02*
X91699500Y-82499780D01*
X95214324Y-78449780D02*
X96764324Y-78449780D01*
X87814324Y-78449780D02*
X93714324Y-78449780D01*
X85814324Y-84099780D02*
X85814324Y-84339780D01*
X85814324Y-81249780D02*
X85814324Y-80449780D01*
X96264324Y-82499780D02*
G75*
G03*
X96764324Y-81999780I-1J500001D01*
G01*
X91699500Y-82499781D02*
G75*
G03*
X89405179Y-84339780I-866J-2349331D01*
G01*
X87814324Y-78449780D02*
G75*
G03*
X85814324Y-80449780I5J-2000005D01*
G01*
D12*
X16188000Y-76461252D02*
X16188000Y-75938748D01*
X17658000Y-76461252D02*
X17658000Y-75938748D01*
D10*
X68189324Y-62479780D02*
X68189324Y-62949780D01*
X68189324Y-59399780D02*
X68189324Y-59629780D01*
X67689324Y-63449780D02*
X63124500Y-63449780D01*
X66639324Y-59399780D02*
X68189324Y-59399780D01*
X59239324Y-59399780D02*
X65139324Y-59399780D01*
X57239324Y-65049780D02*
X57239324Y-65289780D01*
X57239324Y-62199780D02*
X57239324Y-61399780D01*
X67689324Y-63449780D02*
G75*
G03*
X68189324Y-62949780I-1J500001D01*
G01*
X63124500Y-63449781D02*
G75*
G03*
X60830179Y-65289780I-866J-2349331D01*
G01*
X59239324Y-59399780D02*
G75*
G03*
X57239324Y-61399780I5J-2000005D01*
G01*
D12*
X76216000Y-78014000D02*
X76216000Y-81914000D01*
X74216000Y-78014000D02*
X76216000Y-78014000D01*
X74216000Y-78014000D02*
X74216000Y-81914000D01*
X13086000Y-75943748D02*
X13086000Y-76466252D01*
X11616000Y-75943748D02*
X11616000Y-76466252D01*
D10*
X87239324Y-24379780D02*
X87239324Y-24849780D01*
X87239324Y-21299780D02*
X87239324Y-21529780D01*
X86739324Y-25349780D02*
X82174500Y-25349780D01*
X85689324Y-21299780D02*
X87239324Y-21299780D01*
X78289324Y-21299780D02*
X84189324Y-21299780D01*
X76289324Y-26949780D02*
X76289324Y-27189780D01*
X76289324Y-24099780D02*
X76289324Y-23299780D01*
X86739324Y-25349780D02*
G75*
G03*
X87239324Y-24849780I-1J500001D01*
G01*
X82174500Y-25349781D02*
G75*
G03*
X79880179Y-27189780I-866J-2349331D01*
G01*
X78289324Y-21299780D02*
G75*
G03*
X76289324Y-23299780I5J-2000005D01*
G01*
D12*
X26040000Y-49776748D02*
X26040000Y-50299252D01*
X24570000Y-49776748D02*
X24570000Y-50299252D01*
X13374252Y-62711000D02*
X12851748Y-62711000D01*
X13374252Y-61241000D02*
X12851748Y-61241000D01*
D10*
X106289324Y-62479780D02*
X106289324Y-62949780D01*
X106289324Y-59399780D02*
X106289324Y-59629780D01*
X105789324Y-63449780D02*
X101224500Y-63449780D01*
X104739324Y-59399780D02*
X106289324Y-59399780D01*
X97339324Y-59399780D02*
X103239324Y-59399780D01*
X95339324Y-65049780D02*
X95339324Y-65289780D01*
X95339324Y-62199780D02*
X95339324Y-61399780D01*
X105789324Y-63449780D02*
G75*
G03*
X106289324Y-62949780I-1J500001D01*
G01*
X101224500Y-63449781D02*
G75*
G03*
X98930179Y-65289780I-866J-2349331D01*
G01*
X97339324Y-59399780D02*
G75*
G03*
X95339324Y-61399780I5J-2000005D01*
G01*
%LPC*%
D13*
X3443999Y-78799999D03*
D14*
X3443999Y-76259999D03*
X3443999Y-73719999D03*
X3443999Y-71179999D03*
X3443999Y-68639999D03*
X3443999Y-66099999D03*
X3443999Y-63559999D03*
X3443999Y-61019999D03*
D15*
X29623000Y-78751500D03*
X29623000Y-81291500D03*
X27083000Y-78751500D03*
X27083000Y-81291500D03*
X24543000Y-78751500D03*
D13*
X24542999Y-81291499D03*
D16*
X10386999Y-13762499D03*
X21586999Y-13762499D03*
D17*
X13486999Y-21262499D03*
D18*
X18487000Y-21262500D03*
X15987000Y-21262500D03*
X18487000Y-6762500D03*
X13487000Y-6762500D03*
D19*
X12190999Y-72135999D03*
X12190999Y-70865999D03*
X12190999Y-69595999D03*
X12190999Y-68325999D03*
X17590999Y-68325999D03*
X17590999Y-69595999D03*
X17590999Y-70865999D03*
X17590999Y-72135999D03*
D20*
X33560000Y-19815000D03*
X33560000Y-17015000D03*
D21*
X10769999Y-86491999D03*
X4469999Y-86491999D03*
X10769999Y-90291999D03*
X4469999Y-90291999D03*
D22*
X87454500Y-47100000D03*
D23*
X82374500Y-47100000D03*
D22*
X77294500Y-47100000D03*
D24*
X78564500Y-44560000D03*
D25*
X75014500Y-44560000D03*
X88464500Y-42020000D03*
D24*
X84914500Y-42020000D03*
D22*
X106504500Y-9000000D03*
D23*
X101424500Y-9000000D03*
D22*
X96344500Y-9000000D03*
D24*
X97614500Y-6460000D03*
D25*
X94064500Y-6460000D03*
X107514500Y-3920000D03*
D24*
X103964500Y-3920000D03*
D26*
X11650000Y-59817000D03*
X9750000Y-59817000D03*
D22*
X87454500Y-9000000D03*
D23*
X82374500Y-9000000D03*
D22*
X77294500Y-9000000D03*
D24*
X78564500Y-6460000D03*
D25*
X75014500Y-6460000D03*
X88464500Y-3920000D03*
D24*
X84914500Y-3920000D03*
D27*
X12097000Y-24487500D03*
X12097000Y-26312500D03*
D28*
X26009999Y-16062998D03*
X26009999Y-14162999D03*
X28409999Y-15112999D03*
D29*
X70389999Y-78613999D03*
X70389999Y-81913999D03*
X75215999Y-73023999D03*
X75215999Y-69723999D03*
D22*
X68404500Y-28050000D03*
D23*
X63324500Y-28050000D03*
D22*
X58244500Y-28050000D03*
D24*
X59514500Y-25510000D03*
D25*
X55964500Y-25510000D03*
X69414500Y-22970000D03*
D24*
X65864500Y-22970000D03*
D30*
X27034844Y-10838616D03*
X27034844Y-9013616D03*
D31*
X11549999Y-55414999D03*
X11549999Y-57614999D03*
X9849999Y-57614999D03*
X9849999Y-55414999D03*
D29*
X56165999Y-15873999D03*
X56165999Y-12573999D03*
D32*
X25432000Y-46797000D03*
X25432000Y-44897000D03*
D27*
X19844000Y-24487500D03*
X19844000Y-26312500D03*
D33*
X42829999Y-18541999D03*
X39529999Y-18541999D03*
D22*
X49354500Y-9000000D03*
D23*
X44274500Y-9000000D03*
D22*
X39194500Y-9000000D03*
D24*
X40464500Y-6460000D03*
D25*
X36914500Y-6460000D03*
X50364500Y-3920000D03*
D24*
X46814500Y-3920000D03*
D30*
X23146000Y-46759500D03*
X23146000Y-44934500D03*
D27*
X33409719Y-8986680D03*
X33409719Y-10811680D03*
D30*
X31274000Y-11326500D03*
X31274000Y-9501500D03*
D32*
X7398000Y-26350000D03*
X7398000Y-24450000D03*
D21*
X23900999Y-90418999D03*
X30200999Y-90418999D03*
X23900999Y-86618999D03*
X30200999Y-86618999D03*
D22*
X106504500Y-47100000D03*
D23*
X101424500Y-47100000D03*
D22*
X96344500Y-47100000D03*
D24*
X97614500Y-44560000D03*
D25*
X94064500Y-44560000D03*
X107514500Y-42020000D03*
D24*
X103964500Y-42020000D03*
D34*
X27567500Y-51435000D03*
X29392500Y-51435000D03*
D22*
X106504500Y-75675000D03*
D23*
X101424500Y-75675000D03*
D22*
X96344500Y-75675000D03*
D24*
X97614500Y-73135000D03*
D25*
X94064500Y-73135000D03*
X107514500Y-70595000D03*
D24*
X103964500Y-70595000D03*
D29*
X37115999Y-53973999D03*
X37115999Y-50673999D03*
D22*
X87454500Y-66150000D03*
D23*
X82374500Y-66150000D03*
D22*
X77294500Y-66150000D03*
D24*
X78564500Y-63610000D03*
D25*
X75014500Y-63610000D03*
X88464500Y-61070000D03*
D24*
X84914500Y-61070000D03*
D29*
X38385999Y-15873999D03*
X38385999Y-12573999D03*
D35*
X29392500Y-49276000D03*
X27567500Y-49276000D03*
D30*
X22130000Y-26312500D03*
X22130000Y-24487500D03*
D22*
X77294500Y-85200000D03*
D23*
X82374500Y-85200000D03*
D22*
X87454500Y-85200000D03*
D24*
X86184500Y-87740000D03*
D36*
X89734500Y-87740000D03*
X76284500Y-90280000D03*
D24*
X79834500Y-90280000D03*
D22*
X49354500Y-75675000D03*
D23*
X44274500Y-75675000D03*
D22*
X39194500Y-75675000D03*
D24*
X40464500Y-73135000D03*
D25*
X36914500Y-73135000D03*
X50364500Y-70595000D03*
D24*
X46814500Y-70595000D03*
D22*
X49354500Y-66150000D03*
D23*
X44274500Y-66150000D03*
D22*
X39194500Y-66150000D03*
D24*
X40464500Y-63610000D03*
D25*
X36914500Y-63610000D03*
X50364500Y-61070000D03*
D24*
X46814500Y-61070000D03*
D34*
X29853500Y-71628000D03*
X31678500Y-71628000D03*
D37*
X27368000Y-387000D03*
X33148000Y-387000D03*
D38*
X27032999Y-1831999D03*
X27807999Y-1831999D03*
D39*
X28507999Y-1831999D03*
X29007999Y-1831999D03*
X29507999Y-1831999D03*
X30007999Y-1831999D03*
X30507999Y-1831999D03*
X31007999Y-1831999D03*
X31507999Y-1831999D03*
X32007999Y-1831999D03*
D38*
X32707999Y-1831999D03*
X33482999Y-1831999D03*
D32*
X27718000Y-46797000D03*
X27718000Y-44897000D03*
D22*
X68404500Y-9000000D03*
D23*
X63324500Y-9000000D03*
D22*
X58244500Y-9000000D03*
D24*
X59514500Y-6460000D03*
D25*
X55964500Y-6460000D03*
X69414500Y-3920000D03*
D24*
X65864500Y-3920000D03*
D22*
X49354500Y-37575000D03*
D23*
X44274500Y-37575000D03*
D22*
X39194500Y-37575000D03*
D24*
X40464500Y-35035000D03*
D25*
X36914500Y-35035000D03*
X50364500Y-32495000D03*
D24*
X46814500Y-32495000D03*
D22*
X21067000Y-37575000D03*
D23*
X15987000Y-37575000D03*
D22*
X10907000Y-37575000D03*
D24*
X12177000Y-35035000D03*
D25*
X8627000Y-35035000D03*
X22077000Y-32495000D03*
D24*
X18527000Y-32495000D03*
D29*
X75215999Y-15873999D03*
X75215999Y-12573999D03*
D22*
X106504500Y-37575000D03*
D23*
X101424500Y-37575000D03*
D22*
X96344500Y-37575000D03*
D24*
X97614500Y-35035000D03*
D25*
X94064500Y-35035000D03*
X107514500Y-32495000D03*
D24*
X103964500Y-32495000D03*
D40*
X32969000Y-65532000D03*
X32969000Y-66802000D03*
X32969000Y-68072000D03*
X32969000Y-69342000D03*
X25769000Y-69342000D03*
X25769000Y-68072000D03*
X25769000Y-66802000D03*
X25769000Y-65532000D03*
D35*
X31678500Y-63246000D03*
X29853500Y-63246000D03*
D41*
X14637000Y-75255000D03*
X14637000Y-77155000D03*
D35*
X16311500Y-66040000D03*
X14486500Y-66040000D03*
D29*
X75215999Y-34923999D03*
X75215999Y-31623999D03*
D26*
X14063000Y-51054000D03*
X12163000Y-51054000D03*
X11650000Y-53213000D03*
X9750000Y-53213000D03*
D30*
X29242000Y-11326500D03*
X29242000Y-9501500D03*
D29*
X37115999Y-91565999D03*
X37115999Y-88265999D03*
D22*
X106504500Y-28050000D03*
D23*
X101424500Y-28050000D03*
D22*
X96344500Y-28050000D03*
D24*
X97614500Y-25510000D03*
D25*
X94064500Y-25510000D03*
X107514500Y-22970000D03*
D24*
X103964500Y-22970000D03*
D29*
X94265999Y-15873999D03*
X94265999Y-12573999D03*
D41*
X13748000Y-88458000D03*
X13748000Y-90358000D03*
D29*
X37115999Y-81913999D03*
X37115999Y-78613999D03*
X56165999Y-53973999D03*
X56165999Y-50673999D03*
D22*
X58879500Y-85200000D03*
D23*
X53799500Y-85200000D03*
D22*
X48719500Y-85200000D03*
D24*
X49989500Y-82660000D03*
D25*
X46439500Y-82660000D03*
X59889500Y-80120000D03*
D24*
X56339500Y-80120000D03*
D29*
X75215999Y-53973999D03*
X75215999Y-50673999D03*
X88931999Y-34923999D03*
X88931999Y-31623999D03*
D42*
X16443500Y-58884000D03*
X16443500Y-58384000D03*
X16443500Y-57884000D03*
X16443500Y-57384000D03*
X16443500Y-56884000D03*
X16443500Y-56384000D03*
X16443500Y-55884000D03*
X16443500Y-55384000D03*
X16443500Y-54884000D03*
X16443500Y-54384000D03*
X16443500Y-53884000D03*
X16443500Y-53384000D03*
D43*
X17856000Y-51971500D03*
X18356000Y-51971500D03*
X18856000Y-51971500D03*
X19356000Y-51971500D03*
X19856000Y-51971500D03*
X20356000Y-51971500D03*
X20856000Y-51971500D03*
X21356000Y-51971500D03*
X21856000Y-51971500D03*
X22356000Y-51971500D03*
X22856000Y-51971500D03*
X23356000Y-51971500D03*
D42*
X24768500Y-53384000D03*
X24768500Y-53884000D03*
X24768500Y-54384000D03*
X24768500Y-54884000D03*
X24768500Y-55384000D03*
X24768500Y-55884000D03*
X24768500Y-56384000D03*
X24768500Y-56884000D03*
X24768500Y-57384000D03*
X24768500Y-57884000D03*
X24768500Y-58384000D03*
X24768500Y-58884000D03*
D43*
X23356000Y-60296500D03*
X22856000Y-60296500D03*
X22356000Y-60296500D03*
X21856000Y-60296500D03*
X21356000Y-60296500D03*
X20856000Y-60296500D03*
X20356000Y-60296500D03*
X19856000Y-60296500D03*
X19356000Y-60296500D03*
X18856000Y-60296500D03*
X18356000Y-60296500D03*
X17856000Y-60296500D03*
D27*
X19844000Y-71223500D03*
X19844000Y-73048500D03*
D33*
X15143999Y-2539999D03*
X11843999Y-2539999D03*
D29*
X56165999Y-73023999D03*
X56165999Y-69723999D03*
X8794999Y-44448999D03*
X8794999Y-41148999D03*
D32*
X24543000Y-26350000D03*
X24543000Y-24450000D03*
D22*
X68404500Y-47100000D03*
D23*
X63324500Y-47100000D03*
D22*
X58244500Y-47100000D03*
D24*
X59514500Y-44560000D03*
D25*
X55964500Y-44560000D03*
X69414500Y-42020000D03*
D24*
X65864500Y-42020000D03*
D29*
X94265999Y-53973999D03*
X94265999Y-50673999D03*
D26*
X29049000Y-59817000D03*
X27149000Y-59817000D03*
D30*
X9684000Y-26312500D03*
X9684000Y-24487500D03*
D22*
X49354500Y-47100000D03*
D23*
X44274500Y-47100000D03*
D22*
X39194500Y-47100000D03*
D24*
X40464500Y-44560000D03*
D25*
X36914500Y-44560000D03*
X50364500Y-42020000D03*
D24*
X46814500Y-42020000D03*
D30*
X33433000Y-14374500D03*
X33433000Y-12549500D03*
D41*
X26067000Y-17973000D03*
X26067000Y-19873000D03*
X28353000Y-17973000D03*
X28353000Y-19873000D03*
D29*
X104171999Y-91565999D03*
X104171999Y-88265999D03*
X56165999Y-34923999D03*
X56165999Y-31623999D03*
D30*
X20860000Y-90320500D03*
X20860000Y-88495500D03*
D22*
X58244500Y-85200000D03*
D23*
X63324500Y-85200000D03*
D22*
X68404500Y-85200000D03*
D24*
X67134500Y-87740000D03*
D36*
X70684500Y-87740000D03*
X57234500Y-90280000D03*
D24*
X60784500Y-90280000D03*
D29*
X88931999Y-73023999D03*
X88931999Y-69723999D03*
D44*
X31357999Y-6087999D03*
D45*
X31357999Y-7807999D03*
X29157999Y-7807999D03*
X29157999Y-5907999D03*
D22*
X49354500Y-28050000D03*
D23*
X44274500Y-28050000D03*
D22*
X39194500Y-28050000D03*
D24*
X40464500Y-25510000D03*
D25*
X36914500Y-25510000D03*
X50364500Y-22970000D03*
D24*
X46814500Y-22970000D03*
D22*
X96979500Y-85200000D03*
D23*
X91899500Y-85200000D03*
D22*
X86819500Y-85200000D03*
D24*
X88089500Y-82660000D03*
D25*
X84539500Y-82660000D03*
X97989500Y-80120000D03*
D24*
X94439500Y-80120000D03*
D32*
X16923000Y-77150000D03*
X16923000Y-75250000D03*
D22*
X68404500Y-66150000D03*
D23*
X63324500Y-66150000D03*
D22*
X58244500Y-66150000D03*
D24*
X59514500Y-63610000D03*
D25*
X55964500Y-63610000D03*
X69414500Y-61070000D03*
D24*
X65864500Y-61070000D03*
D29*
X75215999Y-78613999D03*
X75215999Y-81913999D03*
D41*
X12351000Y-75255000D03*
X12351000Y-77155000D03*
D22*
X87454500Y-28050000D03*
D23*
X82374500Y-28050000D03*
D22*
X77294500Y-28050000D03*
D24*
X78564500Y-25510000D03*
D25*
X75014500Y-25510000D03*
X88464500Y-22970000D03*
D24*
X84914500Y-22970000D03*
D41*
X25305000Y-49088000D03*
X25305000Y-50988000D03*
D26*
X14063000Y-61976000D03*
X12163000Y-61976000D03*
D22*
X106504500Y-66150000D03*
D23*
X101424500Y-66150000D03*
D22*
X96344500Y-66150000D03*
D24*
X97614500Y-63610000D03*
D25*
X94064500Y-63610000D03*
X107514500Y-61070000D03*
D24*
X103964500Y-61070000D03*
D46*
X35338000Y3889000D02*
G75*
G03*
X34576000Y4699000I-786000J24000D01*
G01*
X35338001Y690001D02*
G75*
G03*
X36076001Y-23999I725999J11999D01*
G01*
X108472786Y-94200000D02*
X2000000Y-94200000D01*
X110472786Y-2000000D02*
X110472786Y-92200000D01*
X36076001Y-23999D02*
X108472786Y0D01*
X0Y-92200000D02*
G75*
G03*
X2000000Y-94200000I1999995J-5D01*
G01*
X2000000Y0D02*
X24470816Y0D01*
X24470816Y-16D02*
G75*
G03*
X25184816Y738001I-12016J726016D01*
G01*
X35338000Y690001D02*
X35338000Y3889000D01*
X25184816Y738001D02*
X25184816Y3937000D01*
X108472786Y-94199986D02*
G75*
G03*
X110472786Y-92200000I14J1999986D01*
G01*
X25994815Y4698983D02*
G75*
G03*
X25184816Y3937000I-24015J-785983D01*
G01*
X2000000Y0D02*
G75*
G03*
X0Y-2000000I-1J-1999999D01*
G01*
X34576000Y4699000D02*
X25994816Y4699000D01*
X0Y-92200000D02*
X0Y-2000000D01*
X110472800Y-2000000D02*
G75*
G03*
X108472786Y0I-2000000J0D01*
G01*
M02*
