G04 #@! TF.GenerationSoftware,KiCad,Pcbnew,(6.99.0-1912-g359c99991b)*
G04 #@! TF.CreationDate,2022-06-29T21:44:02+07:00*
G04 #@! TF.ProjectId,lazulipad,6c617a75-6c69-4706-9164-2e6b69636164,1*
G04 #@! TF.SameCoordinates,Original*
G04 #@! TF.FileFunction,Legend,Bot*
G04 #@! TF.FilePolarity,Positive*
%FSLAX46Y46*%
G04 Gerber Fmt 4.6, Leading zero omitted, Abs format (unit mm)*
G04 Created by KiCad (PCBNEW (6.99.0-1912-g359c99991b)) date 2022-06-29 21:44:02*
%MOMM*%
%LPD*%
G01*
G04 APERTURE LIST*
G04 Aperture macros list*
%AMRoundRect*
0 Rectangle with rounded corners*
0 $1 Rounding radius*
0 $2 $3 $4 $5 $6 $7 $8 $9 X,Y pos of 4 corners*
0 Add a 4 corners polygon primitive as box body*
4,1,4,$2,$3,$4,$5,$6,$7,$8,$9,$2,$3,0*
0 Add four circle primitives for the rounded corners*
1,1,$1+$1,$2,$3*
1,1,$1+$1,$4,$5*
1,1,$1+$1,$6,$7*
1,1,$1+$1,$8,$9*
0 Add four rect primitives between the rounded corners*
20,1,$1+$1,$2,$3,$4,$5,0*
20,1,$1+$1,$4,$5,$6,$7,0*
20,1,$1+$1,$6,$7,$8,$9,0*
20,1,$1+$1,$8,$9,$2,$3,0*%
G04 Aperture macros list end*
%ADD10C,0.150000*%
%ADD11C,0.250000*%
%ADD12C,0.120000*%
%ADD13C,1.750000*%
%ADD14C,3.000000*%
%ADD15C,3.987800*%
%ADD16R,2.550000X2.500000*%
%ADD17R,1.700000X1.700000*%
%ADD18O,1.700000X1.700000*%
%ADD19C,1.700000*%
%ADD20R,2.000000X3.200000*%
%ADD21R,2.000000X2.000000*%
%ADD22C,2.000000*%
%ADD23R,1.550000X0.600000*%
%ADD24RoundRect,0.250000X0.625000X-0.375000X0.625000X0.375000X-0.625000X0.375000X-0.625000X-0.375000X0*%
%ADD25R,1.700000X1.000000*%
%ADD26RoundRect,0.250000X0.250000X0.475000X-0.250000X0.475000X-0.250000X-0.475000X0.250000X-0.475000X0*%
%ADD27RoundRect,0.250000X-0.450000X0.262500X-0.450000X-0.262500X0.450000X-0.262500X0.450000X0.262500X0*%
%ADD28R,1.000000X0.800000*%
%ADD29R,1.200000X0.900000*%
%ADD30RoundRect,0.250000X0.450000X-0.262500X0.450000X0.262500X-0.450000X0.262500X-0.450000X-0.262500X0*%
%ADD31R,1.200000X1.400000*%
%ADD32RoundRect,0.250000X0.475000X-0.250000X0.475000X0.250000X-0.475000X0.250000X-0.475000X-0.250000X0*%
%ADD33R,0.900000X1.200000*%
%ADD34RoundRect,0.250000X-0.262500X-0.450000X0.262500X-0.450000X0.262500X0.450000X-0.262500X0.450000X0*%
%ADD35RoundRect,0.250000X0.262500X0.450000X-0.262500X0.450000X-0.262500X-0.450000X0.262500X-0.450000X0*%
%ADD36C,0.650000*%
%ADD37R,0.600000X1.450000*%
%ADD38R,0.300000X1.450000*%
%ADD39RoundRect,0.150000X0.650000X0.150000X-0.650000X0.150000X-0.650000X-0.150000X0.650000X-0.150000X0*%
%ADD40RoundRect,0.250000X-0.475000X0.250000X-0.475000X-0.250000X0.475000X-0.250000X0.475000X0.250000X0*%
%ADD41RoundRect,0.075000X-0.662500X-0.075000X0.662500X-0.075000X0.662500X0.075000X-0.662500X0.075000X0*%
%ADD42RoundRect,0.075000X-0.075000X-0.662500X0.075000X-0.662500X0.075000X0.662500X-0.075000X0.662500X0*%
%ADD43R,1.400000X1.200000*%
%ADD44R,1.400000X1.000000*%
G04 #@! TA.AperFunction,Profile*
%ADD45C,0.100000*%
G04 #@! TD*
G04 APERTURE END LIST*
D10*
X35223571Y-18081666D02*
X35223571Y-17748333D01*
X35747380Y-17748333D02*
X34747380Y-17748333D01*
X34747380Y-17748333D02*
X34747380Y-18224523D01*
X35747380Y-19129285D02*
X35747380Y-18557857D01*
X35747380Y-18843571D02*
X34747380Y-18843571D01*
X34747380Y-18843571D02*
X34890238Y-18748333D01*
X34890238Y-18748333D02*
X34985476Y-18653095D01*
X34985476Y-18653095D02*
X35033095Y-18557857D01*
X9072381Y-92636380D02*
X9405714Y-92160190D01*
X9643809Y-92636380D02*
X9643809Y-91636380D01*
X9643809Y-91636380D02*
X9262857Y-91636380D01*
X9262857Y-91636380D02*
X9167619Y-91684000D01*
X9167619Y-91684000D02*
X9120000Y-91731619D01*
X9120000Y-91731619D02*
X9072381Y-91826857D01*
X9072381Y-91826857D02*
X9072381Y-91969714D01*
X9072381Y-91969714D02*
X9120000Y-92064952D01*
X9120000Y-92064952D02*
X9167619Y-92112571D01*
X9167619Y-92112571D02*
X9262857Y-92160190D01*
X9262857Y-92160190D02*
X9643809Y-92160190D01*
X8643809Y-92112571D02*
X8310476Y-92112571D01*
X8167619Y-92636380D02*
X8643809Y-92636380D01*
X8643809Y-92636380D02*
X8643809Y-91636380D01*
X8643809Y-91636380D02*
X8167619Y-91636380D01*
X7786666Y-92588761D02*
X7643809Y-92636380D01*
X7643809Y-92636380D02*
X7405714Y-92636380D01*
X7405714Y-92636380D02*
X7310476Y-92588761D01*
X7310476Y-92588761D02*
X7262857Y-92541142D01*
X7262857Y-92541142D02*
X7215238Y-92445904D01*
X7215238Y-92445904D02*
X7215238Y-92350666D01*
X7215238Y-92350666D02*
X7262857Y-92255428D01*
X7262857Y-92255428D02*
X7310476Y-92207809D01*
X7310476Y-92207809D02*
X7405714Y-92160190D01*
X7405714Y-92160190D02*
X7596190Y-92112571D01*
X7596190Y-92112571D02*
X7691428Y-92064952D01*
X7691428Y-92064952D02*
X7739047Y-92017333D01*
X7739047Y-92017333D02*
X7786666Y-91922095D01*
X7786666Y-91922095D02*
X7786666Y-91826857D01*
X7786666Y-91826857D02*
X7739047Y-91731619D01*
X7739047Y-91731619D02*
X7691428Y-91684000D01*
X7691428Y-91684000D02*
X7596190Y-91636380D01*
X7596190Y-91636380D02*
X7358095Y-91636380D01*
X7358095Y-91636380D02*
X7215238Y-91684000D01*
X6786666Y-92112571D02*
X6453333Y-92112571D01*
X6310476Y-92636380D02*
X6786666Y-92636380D01*
X6786666Y-92636380D02*
X6786666Y-91636380D01*
X6786666Y-91636380D02*
X6310476Y-91636380D01*
X6024761Y-91636380D02*
X5453333Y-91636380D01*
X5739047Y-92636380D02*
X5739047Y-91636380D01*
X24647376Y-17905380D02*
X24980709Y-17429190D01*
X25218804Y-17905380D02*
X25218804Y-16905380D01*
X25218804Y-16905380D02*
X24837852Y-16905380D01*
X24837852Y-16905380D02*
X24742614Y-16953000D01*
X24742614Y-16953000D02*
X24694995Y-17000619D01*
X24694995Y-17000619D02*
X24647376Y-17095857D01*
X24647376Y-17095857D02*
X24647376Y-17238714D01*
X24647376Y-17238714D02*
X24694995Y-17333952D01*
X24694995Y-17333952D02*
X24742614Y-17381571D01*
X24742614Y-17381571D02*
X24837852Y-17429190D01*
X24837852Y-17429190D02*
X25218804Y-17429190D01*
X23694995Y-16953000D02*
X23790233Y-16905380D01*
X23790233Y-16905380D02*
X23933090Y-16905380D01*
X23933090Y-16905380D02*
X24075947Y-16953000D01*
X24075947Y-16953000D02*
X24171185Y-17048238D01*
X24171185Y-17048238D02*
X24218804Y-17143476D01*
X24218804Y-17143476D02*
X24266423Y-17333952D01*
X24266423Y-17333952D02*
X24266423Y-17476809D01*
X24266423Y-17476809D02*
X24218804Y-17667285D01*
X24218804Y-17667285D02*
X24171185Y-17762523D01*
X24171185Y-17762523D02*
X24075947Y-17857761D01*
X24075947Y-17857761D02*
X23933090Y-17905380D01*
X23933090Y-17905380D02*
X23837852Y-17905380D01*
X23837852Y-17905380D02*
X23694995Y-17857761D01*
X23694995Y-17857761D02*
X23647376Y-17810142D01*
X23647376Y-17810142D02*
X23647376Y-17476809D01*
X23647376Y-17476809D02*
X23837852Y-17476809D01*
X22694995Y-17905380D02*
X23266423Y-17905380D01*
X22980709Y-17905380D02*
X22980709Y-16905380D01*
X22980709Y-16905380D02*
X23075947Y-17048238D01*
X23075947Y-17048238D02*
X23171185Y-17143476D01*
X23171185Y-17143476D02*
X23266423Y-17191095D01*
X68757380Y-79049714D02*
X67757380Y-79049714D01*
X67757380Y-79049714D02*
X67757380Y-79287809D01*
X67757380Y-79287809D02*
X67805000Y-79430666D01*
X67805000Y-79430666D02*
X67900238Y-79525904D01*
X67900238Y-79525904D02*
X67995476Y-79573523D01*
X67995476Y-79573523D02*
X68185952Y-79621142D01*
X68185952Y-79621142D02*
X68328809Y-79621142D01*
X68328809Y-79621142D02*
X68519285Y-79573523D01*
X68519285Y-79573523D02*
X68614523Y-79525904D01*
X68614523Y-79525904D02*
X68709761Y-79430666D01*
X68709761Y-79430666D02*
X68757380Y-79287809D01*
X68757380Y-79287809D02*
X68757380Y-79049714D01*
X67852619Y-80002095D02*
X67805000Y-80049714D01*
X67805000Y-80049714D02*
X67757380Y-80144952D01*
X67757380Y-80144952D02*
X67757380Y-80383047D01*
X67757380Y-80383047D02*
X67805000Y-80478285D01*
X67805000Y-80478285D02*
X67852619Y-80525904D01*
X67852619Y-80525904D02*
X67947857Y-80573523D01*
X67947857Y-80573523D02*
X68043095Y-80573523D01*
X68043095Y-80573523D02*
X68185952Y-80525904D01*
X68185952Y-80525904D02*
X68757380Y-79954476D01*
X68757380Y-79954476D02*
X68757380Y-80573523D01*
X67757380Y-81192571D02*
X67757380Y-81287809D01*
X67757380Y-81287809D02*
X67805000Y-81383047D01*
X67805000Y-81383047D02*
X67852619Y-81430666D01*
X67852619Y-81430666D02*
X67947857Y-81478285D01*
X67947857Y-81478285D02*
X68138333Y-81525904D01*
X68138333Y-81525904D02*
X68376428Y-81525904D01*
X68376428Y-81525904D02*
X68566904Y-81478285D01*
X68566904Y-81478285D02*
X68662142Y-81430666D01*
X68662142Y-81430666D02*
X68709761Y-81383047D01*
X68709761Y-81383047D02*
X68757380Y-81287809D01*
X68757380Y-81287809D02*
X68757380Y-81192571D01*
X68757380Y-81192571D02*
X68709761Y-81097333D01*
X68709761Y-81097333D02*
X68662142Y-81049714D01*
X68662142Y-81049714D02*
X68566904Y-81002095D01*
X68566904Y-81002095D02*
X68376428Y-80954476D01*
X68376428Y-80954476D02*
X68138333Y-80954476D01*
X68138333Y-80954476D02*
X67947857Y-81002095D01*
X67947857Y-81002095D02*
X67852619Y-81049714D01*
X67852619Y-81049714D02*
X67805000Y-81097333D01*
X67805000Y-81097333D02*
X67757380Y-81192571D01*
X77583380Y-70159714D02*
X76583380Y-70159714D01*
X76583380Y-70159714D02*
X76583380Y-70397809D01*
X76583380Y-70397809D02*
X76631000Y-70540666D01*
X76631000Y-70540666D02*
X76726238Y-70635904D01*
X76726238Y-70635904D02*
X76821476Y-70683523D01*
X76821476Y-70683523D02*
X77011952Y-70731142D01*
X77011952Y-70731142D02*
X77154809Y-70731142D01*
X77154809Y-70731142D02*
X77345285Y-70683523D01*
X77345285Y-70683523D02*
X77440523Y-70635904D01*
X77440523Y-70635904D02*
X77535761Y-70540666D01*
X77535761Y-70540666D02*
X77583380Y-70397809D01*
X77583380Y-70397809D02*
X77583380Y-70159714D01*
X77583380Y-71683523D02*
X77583380Y-71112095D01*
X77583380Y-71397809D02*
X76583380Y-71397809D01*
X76583380Y-71397809D02*
X76726238Y-71302571D01*
X76726238Y-71302571D02*
X76821476Y-71207333D01*
X76821476Y-71207333D02*
X76869095Y-71112095D01*
X76583380Y-72016857D02*
X76583380Y-72683523D01*
X76583380Y-72683523D02*
X77583380Y-72254952D01*
X8141190Y-56038809D02*
X8617380Y-56038809D01*
X7617380Y-55705476D02*
X8141190Y-56038809D01*
X8141190Y-56038809D02*
X7617380Y-56372142D01*
X8617380Y-57229285D02*
X8617380Y-56657857D01*
X8617380Y-56943571D02*
X7617380Y-56943571D01*
X7617380Y-56943571D02*
X7760238Y-56848333D01*
X7760238Y-56848333D02*
X7855476Y-56753095D01*
X7855476Y-56753095D02*
X7903095Y-56657857D01*
X58533380Y-13485905D02*
X57533380Y-13485905D01*
X57533380Y-13485905D02*
X57533380Y-13724000D01*
X57533380Y-13724000D02*
X57581000Y-13866857D01*
X57581000Y-13866857D02*
X57676238Y-13962095D01*
X57676238Y-13962095D02*
X57771476Y-14009714D01*
X57771476Y-14009714D02*
X57961952Y-14057333D01*
X57961952Y-14057333D02*
X58104809Y-14057333D01*
X58104809Y-14057333D02*
X58295285Y-14009714D01*
X58295285Y-14009714D02*
X58390523Y-13962095D01*
X58390523Y-13962095D02*
X58485761Y-13866857D01*
X58485761Y-13866857D02*
X58533380Y-13724000D01*
X58533380Y-13724000D02*
X58533380Y-13485905D01*
X57533380Y-14390667D02*
X57533380Y-15009714D01*
X57533380Y-15009714D02*
X57914333Y-14676381D01*
X57914333Y-14676381D02*
X57914333Y-14819238D01*
X57914333Y-14819238D02*
X57961952Y-14914476D01*
X57961952Y-14914476D02*
X58009571Y-14962095D01*
X58009571Y-14962095D02*
X58104809Y-15009714D01*
X58104809Y-15009714D02*
X58342904Y-15009714D01*
X58342904Y-15009714D02*
X58438142Y-14962095D01*
X58438142Y-14962095D02*
X58485761Y-14914476D01*
X58485761Y-14914476D02*
X58533380Y-14819238D01*
X58533380Y-14819238D02*
X58533380Y-14533524D01*
X58533380Y-14533524D02*
X58485761Y-14438286D01*
X58485761Y-14438286D02*
X58438142Y-14390667D01*
X41918094Y-16909380D02*
X41918094Y-15909380D01*
X41918094Y-15909380D02*
X41679999Y-15909380D01*
X41679999Y-15909380D02*
X41537142Y-15957000D01*
X41537142Y-15957000D02*
X41441904Y-16052238D01*
X41441904Y-16052238D02*
X41394285Y-16147476D01*
X41394285Y-16147476D02*
X41346666Y-16337952D01*
X41346666Y-16337952D02*
X41346666Y-16480809D01*
X41346666Y-16480809D02*
X41394285Y-16671285D01*
X41394285Y-16671285D02*
X41441904Y-16766523D01*
X41441904Y-16766523D02*
X41537142Y-16861761D01*
X41537142Y-16861761D02*
X41679999Y-16909380D01*
X41679999Y-16909380D02*
X41918094Y-16909380D01*
X41013332Y-15909380D02*
X40346666Y-15909380D01*
X40346666Y-15909380D02*
X40775237Y-16909380D01*
X28884333Y-92112571D02*
X28741476Y-92160190D01*
X28741476Y-92160190D02*
X28693857Y-92207809D01*
X28693857Y-92207809D02*
X28646238Y-92303047D01*
X28646238Y-92303047D02*
X28646238Y-92445904D01*
X28646238Y-92445904D02*
X28693857Y-92541142D01*
X28693857Y-92541142D02*
X28741476Y-92588761D01*
X28741476Y-92588761D02*
X28836714Y-92636380D01*
X28836714Y-92636380D02*
X29217666Y-92636380D01*
X29217666Y-92636380D02*
X29217666Y-91636380D01*
X29217666Y-91636380D02*
X28884333Y-91636380D01*
X28884333Y-91636380D02*
X28789095Y-91684000D01*
X28789095Y-91684000D02*
X28741476Y-91731619D01*
X28741476Y-91731619D02*
X28693857Y-91826857D01*
X28693857Y-91826857D02*
X28693857Y-91922095D01*
X28693857Y-91922095D02*
X28741476Y-92017333D01*
X28741476Y-92017333D02*
X28789095Y-92064952D01*
X28789095Y-92064952D02*
X28884333Y-92112571D01*
X28884333Y-92112571D02*
X29217666Y-92112571D01*
X28027190Y-91636380D02*
X27836714Y-91636380D01*
X27836714Y-91636380D02*
X27741476Y-91684000D01*
X27741476Y-91684000D02*
X27646238Y-91779238D01*
X27646238Y-91779238D02*
X27598619Y-91969714D01*
X27598619Y-91969714D02*
X27598619Y-92303047D01*
X27598619Y-92303047D02*
X27646238Y-92493523D01*
X27646238Y-92493523D02*
X27741476Y-92588761D01*
X27741476Y-92588761D02*
X27836714Y-92636380D01*
X27836714Y-92636380D02*
X28027190Y-92636380D01*
X28027190Y-92636380D02*
X28122428Y-92588761D01*
X28122428Y-92588761D02*
X28217666Y-92493523D01*
X28217666Y-92493523D02*
X28265285Y-92303047D01*
X28265285Y-92303047D02*
X28265285Y-91969714D01*
X28265285Y-91969714D02*
X28217666Y-91779238D01*
X28217666Y-91779238D02*
X28122428Y-91684000D01*
X28122428Y-91684000D02*
X28027190Y-91636380D01*
X26979571Y-91636380D02*
X26789095Y-91636380D01*
X26789095Y-91636380D02*
X26693857Y-91684000D01*
X26693857Y-91684000D02*
X26598619Y-91779238D01*
X26598619Y-91779238D02*
X26551000Y-91969714D01*
X26551000Y-91969714D02*
X26551000Y-92303047D01*
X26551000Y-92303047D02*
X26598619Y-92493523D01*
X26598619Y-92493523D02*
X26693857Y-92588761D01*
X26693857Y-92588761D02*
X26789095Y-92636380D01*
X26789095Y-92636380D02*
X26979571Y-92636380D01*
X26979571Y-92636380D02*
X27074809Y-92588761D01*
X27074809Y-92588761D02*
X27170047Y-92493523D01*
X27170047Y-92493523D02*
X27217666Y-92303047D01*
X27217666Y-92303047D02*
X27217666Y-91969714D01*
X27217666Y-91969714D02*
X27170047Y-91779238D01*
X27170047Y-91779238D02*
X27074809Y-91684000D01*
X27074809Y-91684000D02*
X26979571Y-91636380D01*
X26265285Y-91636380D02*
X25693857Y-91636380D01*
X25979571Y-92636380D02*
X25979571Y-91636380D01*
X25170047Y-91636380D02*
X25074809Y-91636380D01*
X25074809Y-91636380D02*
X24979571Y-91684000D01*
X24979571Y-91684000D02*
X24931952Y-91731619D01*
X24931952Y-91731619D02*
X24884333Y-91826857D01*
X24884333Y-91826857D02*
X24836714Y-92017333D01*
X24836714Y-92017333D02*
X24836714Y-92255428D01*
X24836714Y-92255428D02*
X24884333Y-92445904D01*
X24884333Y-92445904D02*
X24931952Y-92541142D01*
X24931952Y-92541142D02*
X24979571Y-92588761D01*
X24979571Y-92588761D02*
X25074809Y-92636380D01*
X25074809Y-92636380D02*
X25170047Y-92636380D01*
X25170047Y-92636380D02*
X25265285Y-92588761D01*
X25265285Y-92588761D02*
X25312904Y-92541142D01*
X25312904Y-92541142D02*
X25360523Y-92445904D01*
X25360523Y-92445904D02*
X25408142Y-92255428D01*
X25408142Y-92255428D02*
X25408142Y-92017333D01*
X25408142Y-92017333D02*
X25360523Y-91826857D01*
X25360523Y-91826857D02*
X25312904Y-91731619D01*
X25312904Y-91731619D02*
X25265285Y-91684000D01*
X25265285Y-91684000D02*
X25170047Y-91636380D01*
X28646666Y-53452380D02*
X28979999Y-52976190D01*
X29218094Y-53452380D02*
X29218094Y-52452380D01*
X29218094Y-52452380D02*
X28837142Y-52452380D01*
X28837142Y-52452380D02*
X28741904Y-52500000D01*
X28741904Y-52500000D02*
X28694285Y-52547619D01*
X28694285Y-52547619D02*
X28646666Y-52642857D01*
X28646666Y-52642857D02*
X28646666Y-52785714D01*
X28646666Y-52785714D02*
X28694285Y-52880952D01*
X28694285Y-52880952D02*
X28741904Y-52928571D01*
X28741904Y-52928571D02*
X28837142Y-52976190D01*
X28837142Y-52976190D02*
X29218094Y-52976190D01*
X27789523Y-52785714D02*
X27789523Y-53452380D01*
X28027618Y-52404761D02*
X28265713Y-53119047D01*
X28265713Y-53119047D02*
X27646666Y-53119047D01*
X39483380Y-51109714D02*
X38483380Y-51109714D01*
X38483380Y-51109714D02*
X38483380Y-51347809D01*
X38483380Y-51347809D02*
X38531000Y-51490666D01*
X38531000Y-51490666D02*
X38626238Y-51585904D01*
X38626238Y-51585904D02*
X38721476Y-51633523D01*
X38721476Y-51633523D02*
X38911952Y-51681142D01*
X38911952Y-51681142D02*
X39054809Y-51681142D01*
X39054809Y-51681142D02*
X39245285Y-51633523D01*
X39245285Y-51633523D02*
X39340523Y-51585904D01*
X39340523Y-51585904D02*
X39435761Y-51490666D01*
X39435761Y-51490666D02*
X39483380Y-51347809D01*
X39483380Y-51347809D02*
X39483380Y-51109714D01*
X39483380Y-52633523D02*
X39483380Y-52062095D01*
X39483380Y-52347809D02*
X38483380Y-52347809D01*
X38483380Y-52347809D02*
X38626238Y-52252571D01*
X38626238Y-52252571D02*
X38721476Y-52157333D01*
X38721476Y-52157333D02*
X38769095Y-52062095D01*
X39483380Y-53585904D02*
X39483380Y-53014476D01*
X39483380Y-53300190D02*
X38483380Y-53300190D01*
X38483380Y-53300190D02*
X38626238Y-53204952D01*
X38626238Y-53204952D02*
X38721476Y-53109714D01*
X38721476Y-53109714D02*
X38769095Y-53014476D01*
X40753380Y-13485905D02*
X39753380Y-13485905D01*
X39753380Y-13485905D02*
X39753380Y-13724000D01*
X39753380Y-13724000D02*
X39801000Y-13866857D01*
X39801000Y-13866857D02*
X39896238Y-13962095D01*
X39896238Y-13962095D02*
X39991476Y-14009714D01*
X39991476Y-14009714D02*
X40181952Y-14057333D01*
X40181952Y-14057333D02*
X40324809Y-14057333D01*
X40324809Y-14057333D02*
X40515285Y-14009714D01*
X40515285Y-14009714D02*
X40610523Y-13962095D01*
X40610523Y-13962095D02*
X40705761Y-13866857D01*
X40705761Y-13866857D02*
X40753380Y-13724000D01*
X40753380Y-13724000D02*
X40753380Y-13485905D01*
X39848619Y-14438286D02*
X39801000Y-14485905D01*
X39801000Y-14485905D02*
X39753380Y-14581143D01*
X39753380Y-14581143D02*
X39753380Y-14819238D01*
X39753380Y-14819238D02*
X39801000Y-14914476D01*
X39801000Y-14914476D02*
X39848619Y-14962095D01*
X39848619Y-14962095D02*
X39943857Y-15009714D01*
X39943857Y-15009714D02*
X40039095Y-15009714D01*
X40039095Y-15009714D02*
X40181952Y-14962095D01*
X40181952Y-14962095D02*
X40753380Y-14390667D01*
X40753380Y-14390667D02*
X40753380Y-15009714D01*
X77583380Y-13485905D02*
X76583380Y-13485905D01*
X76583380Y-13485905D02*
X76583380Y-13724000D01*
X76583380Y-13724000D02*
X76631000Y-13866857D01*
X76631000Y-13866857D02*
X76726238Y-13962095D01*
X76726238Y-13962095D02*
X76821476Y-14009714D01*
X76821476Y-14009714D02*
X77011952Y-14057333D01*
X77011952Y-14057333D02*
X77154809Y-14057333D01*
X77154809Y-14057333D02*
X77345285Y-14009714D01*
X77345285Y-14009714D02*
X77440523Y-13962095D01*
X77440523Y-13962095D02*
X77535761Y-13866857D01*
X77535761Y-13866857D02*
X77583380Y-13724000D01*
X77583380Y-13724000D02*
X77583380Y-13485905D01*
X76916714Y-14914476D02*
X77583380Y-14914476D01*
X76535761Y-14676381D02*
X77250047Y-14438286D01*
X77250047Y-14438286D02*
X77250047Y-15057333D01*
X30932666Y-61963380D02*
X31265999Y-61487190D01*
X31504094Y-61963380D02*
X31504094Y-60963380D01*
X31504094Y-60963380D02*
X31123142Y-60963380D01*
X31123142Y-60963380D02*
X31027904Y-61011000D01*
X31027904Y-61011000D02*
X30980285Y-61058619D01*
X30980285Y-61058619D02*
X30932666Y-61153857D01*
X30932666Y-61153857D02*
X30932666Y-61296714D01*
X30932666Y-61296714D02*
X30980285Y-61391952D01*
X30980285Y-61391952D02*
X31027904Y-61439571D01*
X31027904Y-61439571D02*
X31123142Y-61487190D01*
X31123142Y-61487190D02*
X31504094Y-61487190D01*
X30361237Y-61391952D02*
X30456475Y-61344333D01*
X30456475Y-61344333D02*
X30504094Y-61296714D01*
X30504094Y-61296714D02*
X30551713Y-61201476D01*
X30551713Y-61201476D02*
X30551713Y-61153857D01*
X30551713Y-61153857D02*
X30504094Y-61058619D01*
X30504094Y-61058619D02*
X30456475Y-61011000D01*
X30456475Y-61011000D02*
X30361237Y-60963380D01*
X30361237Y-60963380D02*
X30170761Y-60963380D01*
X30170761Y-60963380D02*
X30075523Y-61011000D01*
X30075523Y-61011000D02*
X30027904Y-61058619D01*
X30027904Y-61058619D02*
X29980285Y-61153857D01*
X29980285Y-61153857D02*
X29980285Y-61201476D01*
X29980285Y-61201476D02*
X30027904Y-61296714D01*
X30027904Y-61296714D02*
X30075523Y-61344333D01*
X30075523Y-61344333D02*
X30170761Y-61391952D01*
X30170761Y-61391952D02*
X30361237Y-61391952D01*
X30361237Y-61391952D02*
X30456475Y-61439571D01*
X30456475Y-61439571D02*
X30504094Y-61487190D01*
X30504094Y-61487190D02*
X30551713Y-61582428D01*
X30551713Y-61582428D02*
X30551713Y-61772904D01*
X30551713Y-61772904D02*
X30504094Y-61868142D01*
X30504094Y-61868142D02*
X30456475Y-61915761D01*
X30456475Y-61915761D02*
X30361237Y-61963380D01*
X30361237Y-61963380D02*
X30170761Y-61963380D01*
X30170761Y-61963380D02*
X30075523Y-61915761D01*
X30075523Y-61915761D02*
X30027904Y-61868142D01*
X30027904Y-61868142D02*
X29980285Y-61772904D01*
X29980285Y-61772904D02*
X29980285Y-61582428D01*
X29980285Y-61582428D02*
X30027904Y-61487190D01*
X30027904Y-61487190D02*
X30075523Y-61439571D01*
X30075523Y-61439571D02*
X30170761Y-61391952D01*
X77583380Y-32535905D02*
X76583380Y-32535905D01*
X76583380Y-32535905D02*
X76583380Y-32774000D01*
X76583380Y-32774000D02*
X76631000Y-32916857D01*
X76631000Y-32916857D02*
X76726238Y-33012095D01*
X76726238Y-33012095D02*
X76821476Y-33059714D01*
X76821476Y-33059714D02*
X77011952Y-33107333D01*
X77011952Y-33107333D02*
X77154809Y-33107333D01*
X77154809Y-33107333D02*
X77345285Y-33059714D01*
X77345285Y-33059714D02*
X77440523Y-33012095D01*
X77440523Y-33012095D02*
X77535761Y-32916857D01*
X77535761Y-32916857D02*
X77583380Y-32774000D01*
X77583380Y-32774000D02*
X77583380Y-32535905D01*
X77583380Y-33583524D02*
X77583380Y-33774000D01*
X77583380Y-33774000D02*
X77535761Y-33869238D01*
X77535761Y-33869238D02*
X77488142Y-33916857D01*
X77488142Y-33916857D02*
X77345285Y-34012095D01*
X77345285Y-34012095D02*
X77154809Y-34059714D01*
X77154809Y-34059714D02*
X76773857Y-34059714D01*
X76773857Y-34059714D02*
X76678619Y-34012095D01*
X76678619Y-34012095D02*
X76631000Y-33964476D01*
X76631000Y-33964476D02*
X76583380Y-33869238D01*
X76583380Y-33869238D02*
X76583380Y-33678762D01*
X76583380Y-33678762D02*
X76631000Y-33583524D01*
X76631000Y-33583524D02*
X76678619Y-33535905D01*
X76678619Y-33535905D02*
X76773857Y-33488286D01*
X76773857Y-33488286D02*
X77011952Y-33488286D01*
X77011952Y-33488286D02*
X77107190Y-33535905D01*
X77107190Y-33535905D02*
X77154809Y-33583524D01*
X77154809Y-33583524D02*
X77202428Y-33678762D01*
X77202428Y-33678762D02*
X77202428Y-33869238D01*
X77202428Y-33869238D02*
X77154809Y-33964476D01*
X77154809Y-33964476D02*
X77107190Y-34012095D01*
X77107190Y-34012095D02*
X77011952Y-34059714D01*
X39483380Y-88701714D02*
X38483380Y-88701714D01*
X38483380Y-88701714D02*
X38483380Y-88939809D01*
X38483380Y-88939809D02*
X38531000Y-89082666D01*
X38531000Y-89082666D02*
X38626238Y-89177904D01*
X38626238Y-89177904D02*
X38721476Y-89225523D01*
X38721476Y-89225523D02*
X38911952Y-89273142D01*
X38911952Y-89273142D02*
X39054809Y-89273142D01*
X39054809Y-89273142D02*
X39245285Y-89225523D01*
X39245285Y-89225523D02*
X39340523Y-89177904D01*
X39340523Y-89177904D02*
X39435761Y-89082666D01*
X39435761Y-89082666D02*
X39483380Y-88939809D01*
X39483380Y-88939809D02*
X39483380Y-88701714D01*
X39483380Y-90225523D02*
X39483380Y-89654095D01*
X39483380Y-89939809D02*
X38483380Y-89939809D01*
X38483380Y-89939809D02*
X38626238Y-89844571D01*
X38626238Y-89844571D02*
X38721476Y-89749333D01*
X38721476Y-89749333D02*
X38769095Y-89654095D01*
X39483380Y-90701714D02*
X39483380Y-90892190D01*
X39483380Y-90892190D02*
X39435761Y-90987428D01*
X39435761Y-90987428D02*
X39388142Y-91035047D01*
X39388142Y-91035047D02*
X39245285Y-91130285D01*
X39245285Y-91130285D02*
X39054809Y-91177904D01*
X39054809Y-91177904D02*
X38673857Y-91177904D01*
X38673857Y-91177904D02*
X38578619Y-91130285D01*
X38578619Y-91130285D02*
X38531000Y-91082666D01*
X38531000Y-91082666D02*
X38483380Y-90987428D01*
X38483380Y-90987428D02*
X38483380Y-90796952D01*
X38483380Y-90796952D02*
X38531000Y-90701714D01*
X38531000Y-90701714D02*
X38578619Y-90654095D01*
X38578619Y-90654095D02*
X38673857Y-90606476D01*
X38673857Y-90606476D02*
X38911952Y-90606476D01*
X38911952Y-90606476D02*
X39007190Y-90654095D01*
X39007190Y-90654095D02*
X39054809Y-90701714D01*
X39054809Y-90701714D02*
X39102428Y-90796952D01*
X39102428Y-90796952D02*
X39102428Y-90987428D01*
X39102428Y-90987428D02*
X39054809Y-91082666D01*
X39054809Y-91082666D02*
X39007190Y-91130285D01*
X39007190Y-91130285D02*
X38911952Y-91177904D01*
X96633380Y-13485905D02*
X95633380Y-13485905D01*
X95633380Y-13485905D02*
X95633380Y-13724000D01*
X95633380Y-13724000D02*
X95681000Y-13866857D01*
X95681000Y-13866857D02*
X95776238Y-13962095D01*
X95776238Y-13962095D02*
X95871476Y-14009714D01*
X95871476Y-14009714D02*
X96061952Y-14057333D01*
X96061952Y-14057333D02*
X96204809Y-14057333D01*
X96204809Y-14057333D02*
X96395285Y-14009714D01*
X96395285Y-14009714D02*
X96490523Y-13962095D01*
X96490523Y-13962095D02*
X96585761Y-13866857D01*
X96585761Y-13866857D02*
X96633380Y-13724000D01*
X96633380Y-13724000D02*
X96633380Y-13485905D01*
X95633380Y-14962095D02*
X95633380Y-14485905D01*
X95633380Y-14485905D02*
X96109571Y-14438286D01*
X96109571Y-14438286D02*
X96061952Y-14485905D01*
X96061952Y-14485905D02*
X96014333Y-14581143D01*
X96014333Y-14581143D02*
X96014333Y-14819238D01*
X96014333Y-14819238D02*
X96061952Y-14914476D01*
X96061952Y-14914476D02*
X96109571Y-14962095D01*
X96109571Y-14962095D02*
X96204809Y-15009714D01*
X96204809Y-15009714D02*
X96442904Y-15009714D01*
X96442904Y-15009714D02*
X96538142Y-14962095D01*
X96538142Y-14962095D02*
X96585761Y-14914476D01*
X96585761Y-14914476D02*
X96633380Y-14819238D01*
X96633380Y-14819238D02*
X96633380Y-14581143D01*
X96633380Y-14581143D02*
X96585761Y-14485905D01*
X96585761Y-14485905D02*
X96538142Y-14438286D01*
X58533380Y-51109714D02*
X57533380Y-51109714D01*
X57533380Y-51109714D02*
X57533380Y-51347809D01*
X57533380Y-51347809D02*
X57581000Y-51490666D01*
X57581000Y-51490666D02*
X57676238Y-51585904D01*
X57676238Y-51585904D02*
X57771476Y-51633523D01*
X57771476Y-51633523D02*
X57961952Y-51681142D01*
X57961952Y-51681142D02*
X58104809Y-51681142D01*
X58104809Y-51681142D02*
X58295285Y-51633523D01*
X58295285Y-51633523D02*
X58390523Y-51585904D01*
X58390523Y-51585904D02*
X58485761Y-51490666D01*
X58485761Y-51490666D02*
X58533380Y-51347809D01*
X58533380Y-51347809D02*
X58533380Y-51109714D01*
X58533380Y-52633523D02*
X58533380Y-52062095D01*
X58533380Y-52347809D02*
X57533380Y-52347809D01*
X57533380Y-52347809D02*
X57676238Y-52252571D01*
X57676238Y-52252571D02*
X57771476Y-52157333D01*
X57771476Y-52157333D02*
X57819095Y-52062095D01*
X57628619Y-53014476D02*
X57581000Y-53062095D01*
X57581000Y-53062095D02*
X57533380Y-53157333D01*
X57533380Y-53157333D02*
X57533380Y-53395428D01*
X57533380Y-53395428D02*
X57581000Y-53490666D01*
X57581000Y-53490666D02*
X57628619Y-53538285D01*
X57628619Y-53538285D02*
X57723857Y-53585904D01*
X57723857Y-53585904D02*
X57819095Y-53585904D01*
X57819095Y-53585904D02*
X57961952Y-53538285D01*
X57961952Y-53538285D02*
X58533380Y-52966857D01*
X58533380Y-52966857D02*
X58533380Y-53585904D01*
X77583380Y-51109714D02*
X76583380Y-51109714D01*
X76583380Y-51109714D02*
X76583380Y-51347809D01*
X76583380Y-51347809D02*
X76631000Y-51490666D01*
X76631000Y-51490666D02*
X76726238Y-51585904D01*
X76726238Y-51585904D02*
X76821476Y-51633523D01*
X76821476Y-51633523D02*
X77011952Y-51681142D01*
X77011952Y-51681142D02*
X77154809Y-51681142D01*
X77154809Y-51681142D02*
X77345285Y-51633523D01*
X77345285Y-51633523D02*
X77440523Y-51585904D01*
X77440523Y-51585904D02*
X77535761Y-51490666D01*
X77535761Y-51490666D02*
X77583380Y-51347809D01*
X77583380Y-51347809D02*
X77583380Y-51109714D01*
X77583380Y-52633523D02*
X77583380Y-52062095D01*
X77583380Y-52347809D02*
X76583380Y-52347809D01*
X76583380Y-52347809D02*
X76726238Y-52252571D01*
X76726238Y-52252571D02*
X76821476Y-52157333D01*
X76821476Y-52157333D02*
X76869095Y-52062095D01*
X76583380Y-52966857D02*
X76583380Y-53585904D01*
X76583380Y-53585904D02*
X76964333Y-53252571D01*
X76964333Y-53252571D02*
X76964333Y-53395428D01*
X76964333Y-53395428D02*
X77011952Y-53490666D01*
X77011952Y-53490666D02*
X77059571Y-53538285D01*
X77059571Y-53538285D02*
X77154809Y-53585904D01*
X77154809Y-53585904D02*
X77392904Y-53585904D01*
X77392904Y-53585904D02*
X77488142Y-53538285D01*
X77488142Y-53538285D02*
X77535761Y-53490666D01*
X77535761Y-53490666D02*
X77583380Y-53395428D01*
X77583380Y-53395428D02*
X77583380Y-53109714D01*
X77583380Y-53109714D02*
X77535761Y-53014476D01*
X77535761Y-53014476D02*
X77488142Y-52966857D01*
X91299380Y-32059714D02*
X90299380Y-32059714D01*
X90299380Y-32059714D02*
X90299380Y-32297809D01*
X90299380Y-32297809D02*
X90347000Y-32440666D01*
X90347000Y-32440666D02*
X90442238Y-32535904D01*
X90442238Y-32535904D02*
X90537476Y-32583523D01*
X90537476Y-32583523D02*
X90727952Y-32631142D01*
X90727952Y-32631142D02*
X90870809Y-32631142D01*
X90870809Y-32631142D02*
X91061285Y-32583523D01*
X91061285Y-32583523D02*
X91156523Y-32535904D01*
X91156523Y-32535904D02*
X91251761Y-32440666D01*
X91251761Y-32440666D02*
X91299380Y-32297809D01*
X91299380Y-32297809D02*
X91299380Y-32059714D01*
X91299380Y-33583523D02*
X91299380Y-33012095D01*
X91299380Y-33297809D02*
X90299380Y-33297809D01*
X90299380Y-33297809D02*
X90442238Y-33202571D01*
X90442238Y-33202571D02*
X90537476Y-33107333D01*
X90537476Y-33107333D02*
X90585095Y-33012095D01*
X90299380Y-34202571D02*
X90299380Y-34297809D01*
X90299380Y-34297809D02*
X90347000Y-34393047D01*
X90347000Y-34393047D02*
X90394619Y-34440666D01*
X90394619Y-34440666D02*
X90489857Y-34488285D01*
X90489857Y-34488285D02*
X90680333Y-34535904D01*
X90680333Y-34535904D02*
X90918428Y-34535904D01*
X90918428Y-34535904D02*
X91108904Y-34488285D01*
X91108904Y-34488285D02*
X91204142Y-34440666D01*
X91204142Y-34440666D02*
X91251761Y-34393047D01*
X91251761Y-34393047D02*
X91299380Y-34297809D01*
X91299380Y-34297809D02*
X91299380Y-34202571D01*
X91299380Y-34202571D02*
X91251761Y-34107333D01*
X91251761Y-34107333D02*
X91204142Y-34059714D01*
X91204142Y-34059714D02*
X91108904Y-34012095D01*
X91108904Y-34012095D02*
X90918428Y-33964476D01*
X90918428Y-33964476D02*
X90680333Y-33964476D01*
X90680333Y-33964476D02*
X90489857Y-34012095D01*
X90489857Y-34012095D02*
X90394619Y-34059714D01*
X90394619Y-34059714D02*
X90347000Y-34107333D01*
X90347000Y-34107333D02*
X90299380Y-34202571D01*
X21367904Y-61351380D02*
X21367904Y-62160904D01*
X21367904Y-62160904D02*
X21320285Y-62256142D01*
X21320285Y-62256142D02*
X21272666Y-62303761D01*
X21272666Y-62303761D02*
X21177428Y-62351380D01*
X21177428Y-62351380D02*
X20986952Y-62351380D01*
X20986952Y-62351380D02*
X20891714Y-62303761D01*
X20891714Y-62303761D02*
X20844095Y-62256142D01*
X20844095Y-62256142D02*
X20796476Y-62160904D01*
X20796476Y-62160904D02*
X20796476Y-61351380D01*
X19796476Y-62351380D02*
X20367904Y-62351380D01*
X20082190Y-62351380D02*
X20082190Y-61351380D01*
X20082190Y-61351380D02*
X20177428Y-61494238D01*
X20177428Y-61494238D02*
X20272666Y-61589476D01*
X20272666Y-61589476D02*
X20367904Y-61637095D01*
X58533380Y-70159714D02*
X57533380Y-70159714D01*
X57533380Y-70159714D02*
X57533380Y-70397809D01*
X57533380Y-70397809D02*
X57581000Y-70540666D01*
X57581000Y-70540666D02*
X57676238Y-70635904D01*
X57676238Y-70635904D02*
X57771476Y-70683523D01*
X57771476Y-70683523D02*
X57961952Y-70731142D01*
X57961952Y-70731142D02*
X58104809Y-70731142D01*
X58104809Y-70731142D02*
X58295285Y-70683523D01*
X58295285Y-70683523D02*
X58390523Y-70635904D01*
X58390523Y-70635904D02*
X58485761Y-70540666D01*
X58485761Y-70540666D02*
X58533380Y-70397809D01*
X58533380Y-70397809D02*
X58533380Y-70159714D01*
X58533380Y-71683523D02*
X58533380Y-71112095D01*
X58533380Y-71397809D02*
X57533380Y-71397809D01*
X57533380Y-71397809D02*
X57676238Y-71302571D01*
X57676238Y-71302571D02*
X57771476Y-71207333D01*
X57771476Y-71207333D02*
X57819095Y-71112095D01*
X57533380Y-72540666D02*
X57533380Y-72350190D01*
X57533380Y-72350190D02*
X57581000Y-72254952D01*
X57581000Y-72254952D02*
X57628619Y-72207333D01*
X57628619Y-72207333D02*
X57771476Y-72112095D01*
X57771476Y-72112095D02*
X57961952Y-72064476D01*
X57961952Y-72064476D02*
X58342904Y-72064476D01*
X58342904Y-72064476D02*
X58438142Y-72112095D01*
X58438142Y-72112095D02*
X58485761Y-72159714D01*
X58485761Y-72159714D02*
X58533380Y-72254952D01*
X58533380Y-72254952D02*
X58533380Y-72445428D01*
X58533380Y-72445428D02*
X58485761Y-72540666D01*
X58485761Y-72540666D02*
X58438142Y-72588285D01*
X58438142Y-72588285D02*
X58342904Y-72635904D01*
X58342904Y-72635904D02*
X58104809Y-72635904D01*
X58104809Y-72635904D02*
X58009571Y-72588285D01*
X58009571Y-72588285D02*
X57961952Y-72540666D01*
X57961952Y-72540666D02*
X57914333Y-72445428D01*
X57914333Y-72445428D02*
X57914333Y-72254952D01*
X57914333Y-72254952D02*
X57961952Y-72159714D01*
X57961952Y-72159714D02*
X58009571Y-72112095D01*
X58009571Y-72112095D02*
X58104809Y-72064476D01*
X11162380Y-42060905D02*
X10162380Y-42060905D01*
X10162380Y-42060905D02*
X10162380Y-42299000D01*
X10162380Y-42299000D02*
X10210000Y-42441857D01*
X10210000Y-42441857D02*
X10305238Y-42537095D01*
X10305238Y-42537095D02*
X10400476Y-42584714D01*
X10400476Y-42584714D02*
X10590952Y-42632333D01*
X10590952Y-42632333D02*
X10733809Y-42632333D01*
X10733809Y-42632333D02*
X10924285Y-42584714D01*
X10924285Y-42584714D02*
X11019523Y-42537095D01*
X11019523Y-42537095D02*
X11114761Y-42441857D01*
X11114761Y-42441857D02*
X11162380Y-42299000D01*
X11162380Y-42299000D02*
X11162380Y-42060905D01*
X10162380Y-43489476D02*
X10162380Y-43299000D01*
X10162380Y-43299000D02*
X10210000Y-43203762D01*
X10210000Y-43203762D02*
X10257619Y-43156143D01*
X10257619Y-43156143D02*
X10400476Y-43060905D01*
X10400476Y-43060905D02*
X10590952Y-43013286D01*
X10590952Y-43013286D02*
X10971904Y-43013286D01*
X10971904Y-43013286D02*
X11067142Y-43060905D01*
X11067142Y-43060905D02*
X11114761Y-43108524D01*
X11114761Y-43108524D02*
X11162380Y-43203762D01*
X11162380Y-43203762D02*
X11162380Y-43394238D01*
X11162380Y-43394238D02*
X11114761Y-43489476D01*
X11114761Y-43489476D02*
X11067142Y-43537095D01*
X11067142Y-43537095D02*
X10971904Y-43584714D01*
X10971904Y-43584714D02*
X10733809Y-43584714D01*
X10733809Y-43584714D02*
X10638571Y-43537095D01*
X10638571Y-43537095D02*
X10590952Y-43489476D01*
X10590952Y-43489476D02*
X10543333Y-43394238D01*
X10543333Y-43394238D02*
X10543333Y-43203762D01*
X10543333Y-43203762D02*
X10590952Y-43108524D01*
X10590952Y-43108524D02*
X10638571Y-43060905D01*
X10638571Y-43060905D02*
X10733809Y-43013286D01*
X26495142Y-24757142D02*
X26542761Y-24709523D01*
X26542761Y-24709523D02*
X26590380Y-24566666D01*
X26590380Y-24566666D02*
X26590380Y-24471428D01*
X26590380Y-24471428D02*
X26542761Y-24328571D01*
X26542761Y-24328571D02*
X26447523Y-24233333D01*
X26447523Y-24233333D02*
X26352285Y-24185714D01*
X26352285Y-24185714D02*
X26161809Y-24138095D01*
X26161809Y-24138095D02*
X26018952Y-24138095D01*
X26018952Y-24138095D02*
X25828476Y-24185714D01*
X25828476Y-24185714D02*
X25733238Y-24233333D01*
X25733238Y-24233333D02*
X25638000Y-24328571D01*
X25638000Y-24328571D02*
X25590380Y-24471428D01*
X25590380Y-24471428D02*
X25590380Y-24566666D01*
X25590380Y-24566666D02*
X25638000Y-24709523D01*
X25638000Y-24709523D02*
X25685619Y-24757142D01*
X26590380Y-25709523D02*
X26590380Y-25138095D01*
X26590380Y-25423809D02*
X25590380Y-25423809D01*
X25590380Y-25423809D02*
X25733238Y-25328571D01*
X25733238Y-25328571D02*
X25828476Y-25233333D01*
X25828476Y-25233333D02*
X25876095Y-25138095D01*
X25590380Y-26614285D02*
X25590380Y-26138095D01*
X25590380Y-26138095D02*
X26066571Y-26090476D01*
X26066571Y-26090476D02*
X26018952Y-26138095D01*
X26018952Y-26138095D02*
X25971333Y-26233333D01*
X25971333Y-26233333D02*
X25971333Y-26471428D01*
X25971333Y-26471428D02*
X26018952Y-26566666D01*
X26018952Y-26566666D02*
X26066571Y-26614285D01*
X26066571Y-26614285D02*
X26161809Y-26661904D01*
X26161809Y-26661904D02*
X26399904Y-26661904D01*
X26399904Y-26661904D02*
X26495142Y-26614285D01*
X26495142Y-26614285D02*
X26542761Y-26566666D01*
X26542761Y-26566666D02*
X26590380Y-26471428D01*
X26590380Y-26471428D02*
X26590380Y-26233333D01*
X26590380Y-26233333D02*
X26542761Y-26138095D01*
X26542761Y-26138095D02*
X26495142Y-26090476D01*
X96633380Y-51109714D02*
X95633380Y-51109714D01*
X95633380Y-51109714D02*
X95633380Y-51347809D01*
X95633380Y-51347809D02*
X95681000Y-51490666D01*
X95681000Y-51490666D02*
X95776238Y-51585904D01*
X95776238Y-51585904D02*
X95871476Y-51633523D01*
X95871476Y-51633523D02*
X96061952Y-51681142D01*
X96061952Y-51681142D02*
X96204809Y-51681142D01*
X96204809Y-51681142D02*
X96395285Y-51633523D01*
X96395285Y-51633523D02*
X96490523Y-51585904D01*
X96490523Y-51585904D02*
X96585761Y-51490666D01*
X96585761Y-51490666D02*
X96633380Y-51347809D01*
X96633380Y-51347809D02*
X96633380Y-51109714D01*
X96633380Y-52633523D02*
X96633380Y-52062095D01*
X96633380Y-52347809D02*
X95633380Y-52347809D01*
X95633380Y-52347809D02*
X95776238Y-52252571D01*
X95776238Y-52252571D02*
X95871476Y-52157333D01*
X95871476Y-52157333D02*
X95919095Y-52062095D01*
X95966714Y-53490666D02*
X96633380Y-53490666D01*
X95585761Y-53252571D02*
X96300047Y-53014476D01*
X96300047Y-53014476D02*
X96300047Y-53633523D01*
X28265666Y-58155142D02*
X28313285Y-58202761D01*
X28313285Y-58202761D02*
X28456142Y-58250380D01*
X28456142Y-58250380D02*
X28551380Y-58250380D01*
X28551380Y-58250380D02*
X28694237Y-58202761D01*
X28694237Y-58202761D02*
X28789475Y-58107523D01*
X28789475Y-58107523D02*
X28837094Y-58012285D01*
X28837094Y-58012285D02*
X28884713Y-57821809D01*
X28884713Y-57821809D02*
X28884713Y-57678952D01*
X28884713Y-57678952D02*
X28837094Y-57488476D01*
X28837094Y-57488476D02*
X28789475Y-57393238D01*
X28789475Y-57393238D02*
X28694237Y-57298000D01*
X28694237Y-57298000D02*
X28551380Y-57250380D01*
X28551380Y-57250380D02*
X28456142Y-57250380D01*
X28456142Y-57250380D02*
X28313285Y-57298000D01*
X28313285Y-57298000D02*
X28265666Y-57345619D01*
X27313285Y-58250380D02*
X27884713Y-58250380D01*
X27598999Y-58250380D02*
X27598999Y-57250380D01*
X27598999Y-57250380D02*
X27694237Y-57393238D01*
X27694237Y-57393238D02*
X27789475Y-57488476D01*
X27789475Y-57488476D02*
X27884713Y-57536095D01*
X106539380Y-88701714D02*
X105539380Y-88701714D01*
X105539380Y-88701714D02*
X105539380Y-88939809D01*
X105539380Y-88939809D02*
X105587000Y-89082666D01*
X105587000Y-89082666D02*
X105682238Y-89177904D01*
X105682238Y-89177904D02*
X105777476Y-89225523D01*
X105777476Y-89225523D02*
X105967952Y-89273142D01*
X105967952Y-89273142D02*
X106110809Y-89273142D01*
X106110809Y-89273142D02*
X106301285Y-89225523D01*
X106301285Y-89225523D02*
X106396523Y-89177904D01*
X106396523Y-89177904D02*
X106491761Y-89082666D01*
X106491761Y-89082666D02*
X106539380Y-88939809D01*
X106539380Y-88939809D02*
X106539380Y-88701714D01*
X105634619Y-89654095D02*
X105587000Y-89701714D01*
X105587000Y-89701714D02*
X105539380Y-89796952D01*
X105539380Y-89796952D02*
X105539380Y-90035047D01*
X105539380Y-90035047D02*
X105587000Y-90130285D01*
X105587000Y-90130285D02*
X105634619Y-90177904D01*
X105634619Y-90177904D02*
X105729857Y-90225523D01*
X105729857Y-90225523D02*
X105825095Y-90225523D01*
X105825095Y-90225523D02*
X105967952Y-90177904D01*
X105967952Y-90177904D02*
X106539380Y-89606476D01*
X106539380Y-89606476D02*
X106539380Y-90225523D01*
X105634619Y-90606476D02*
X105587000Y-90654095D01*
X105587000Y-90654095D02*
X105539380Y-90749333D01*
X105539380Y-90749333D02*
X105539380Y-90987428D01*
X105539380Y-90987428D02*
X105587000Y-91082666D01*
X105587000Y-91082666D02*
X105634619Y-91130285D01*
X105634619Y-91130285D02*
X105729857Y-91177904D01*
X105729857Y-91177904D02*
X105825095Y-91177904D01*
X105825095Y-91177904D02*
X105967952Y-91130285D01*
X105967952Y-91130285D02*
X106539380Y-90558857D01*
X106539380Y-90558857D02*
X106539380Y-91177904D01*
X58533380Y-32535905D02*
X57533380Y-32535905D01*
X57533380Y-32535905D02*
X57533380Y-32774000D01*
X57533380Y-32774000D02*
X57581000Y-32916857D01*
X57581000Y-32916857D02*
X57676238Y-33012095D01*
X57676238Y-33012095D02*
X57771476Y-33059714D01*
X57771476Y-33059714D02*
X57961952Y-33107333D01*
X57961952Y-33107333D02*
X58104809Y-33107333D01*
X58104809Y-33107333D02*
X58295285Y-33059714D01*
X58295285Y-33059714D02*
X58390523Y-33012095D01*
X58390523Y-33012095D02*
X58485761Y-32916857D01*
X58485761Y-32916857D02*
X58533380Y-32774000D01*
X58533380Y-32774000D02*
X58533380Y-32535905D01*
X57961952Y-33678762D02*
X57914333Y-33583524D01*
X57914333Y-33583524D02*
X57866714Y-33535905D01*
X57866714Y-33535905D02*
X57771476Y-33488286D01*
X57771476Y-33488286D02*
X57723857Y-33488286D01*
X57723857Y-33488286D02*
X57628619Y-33535905D01*
X57628619Y-33535905D02*
X57581000Y-33583524D01*
X57581000Y-33583524D02*
X57533380Y-33678762D01*
X57533380Y-33678762D02*
X57533380Y-33869238D01*
X57533380Y-33869238D02*
X57581000Y-33964476D01*
X57581000Y-33964476D02*
X57628619Y-34012095D01*
X57628619Y-34012095D02*
X57723857Y-34059714D01*
X57723857Y-34059714D02*
X57771476Y-34059714D01*
X57771476Y-34059714D02*
X57866714Y-34012095D01*
X57866714Y-34012095D02*
X57914333Y-33964476D01*
X57914333Y-33964476D02*
X57961952Y-33869238D01*
X57961952Y-33869238D02*
X57961952Y-33678762D01*
X57961952Y-33678762D02*
X58009571Y-33583524D01*
X58009571Y-33583524D02*
X58057190Y-33535905D01*
X58057190Y-33535905D02*
X58152428Y-33488286D01*
X58152428Y-33488286D02*
X58342904Y-33488286D01*
X58342904Y-33488286D02*
X58438142Y-33535905D01*
X58438142Y-33535905D02*
X58485761Y-33583524D01*
X58485761Y-33583524D02*
X58533380Y-33678762D01*
X58533380Y-33678762D02*
X58533380Y-33869238D01*
X58533380Y-33869238D02*
X58485761Y-33964476D01*
X58485761Y-33964476D02*
X58438142Y-34012095D01*
X58438142Y-34012095D02*
X58342904Y-34059714D01*
X58342904Y-34059714D02*
X58152428Y-34059714D01*
X58152428Y-34059714D02*
X58057190Y-34012095D01*
X58057190Y-34012095D02*
X58009571Y-33964476D01*
X58009571Y-33964476D02*
X57961952Y-33869238D01*
X91299380Y-70159714D02*
X90299380Y-70159714D01*
X90299380Y-70159714D02*
X90299380Y-70397809D01*
X90299380Y-70397809D02*
X90347000Y-70540666D01*
X90347000Y-70540666D02*
X90442238Y-70635904D01*
X90442238Y-70635904D02*
X90537476Y-70683523D01*
X90537476Y-70683523D02*
X90727952Y-70731142D01*
X90727952Y-70731142D02*
X90870809Y-70731142D01*
X90870809Y-70731142D02*
X91061285Y-70683523D01*
X91061285Y-70683523D02*
X91156523Y-70635904D01*
X91156523Y-70635904D02*
X91251761Y-70540666D01*
X91251761Y-70540666D02*
X91299380Y-70397809D01*
X91299380Y-70397809D02*
X91299380Y-70159714D01*
X91299380Y-71683523D02*
X91299380Y-71112095D01*
X91299380Y-71397809D02*
X90299380Y-71397809D01*
X90299380Y-71397809D02*
X90442238Y-71302571D01*
X90442238Y-71302571D02*
X90537476Y-71207333D01*
X90537476Y-71207333D02*
X90585095Y-71112095D01*
X90727952Y-72254952D02*
X90680333Y-72159714D01*
X90680333Y-72159714D02*
X90632714Y-72112095D01*
X90632714Y-72112095D02*
X90537476Y-72064476D01*
X90537476Y-72064476D02*
X90489857Y-72064476D01*
X90489857Y-72064476D02*
X90394619Y-72112095D01*
X90394619Y-72112095D02*
X90347000Y-72159714D01*
X90347000Y-72159714D02*
X90299380Y-72254952D01*
X90299380Y-72254952D02*
X90299380Y-72445428D01*
X90299380Y-72445428D02*
X90347000Y-72540666D01*
X90347000Y-72540666D02*
X90394619Y-72588285D01*
X90394619Y-72588285D02*
X90489857Y-72635904D01*
X90489857Y-72635904D02*
X90537476Y-72635904D01*
X90537476Y-72635904D02*
X90632714Y-72588285D01*
X90632714Y-72588285D02*
X90680333Y-72540666D01*
X90680333Y-72540666D02*
X90727952Y-72445428D01*
X90727952Y-72445428D02*
X90727952Y-72254952D01*
X90727952Y-72254952D02*
X90775571Y-72159714D01*
X90775571Y-72159714D02*
X90823190Y-72112095D01*
X90823190Y-72112095D02*
X90918428Y-72064476D01*
X90918428Y-72064476D02*
X91108904Y-72064476D01*
X91108904Y-72064476D02*
X91204142Y-72112095D01*
X91204142Y-72112095D02*
X91251761Y-72159714D01*
X91251761Y-72159714D02*
X91299380Y-72254952D01*
X91299380Y-72254952D02*
X91299380Y-72445428D01*
X91299380Y-72445428D02*
X91251761Y-72540666D01*
X91251761Y-72540666D02*
X91204142Y-72588285D01*
X91204142Y-72588285D02*
X91108904Y-72635904D01*
X91108904Y-72635904D02*
X90918428Y-72635904D01*
X90918428Y-72635904D02*
X90823190Y-72588285D01*
X90823190Y-72588285D02*
X90775571Y-72540666D01*
X90775571Y-72540666D02*
X90727952Y-72445428D01*
X18875142Y-75557142D02*
X18922761Y-75509523D01*
X18922761Y-75509523D02*
X18970380Y-75366666D01*
X18970380Y-75366666D02*
X18970380Y-75271428D01*
X18970380Y-75271428D02*
X18922761Y-75128571D01*
X18922761Y-75128571D02*
X18827523Y-75033333D01*
X18827523Y-75033333D02*
X18732285Y-74985714D01*
X18732285Y-74985714D02*
X18541809Y-74938095D01*
X18541809Y-74938095D02*
X18398952Y-74938095D01*
X18398952Y-74938095D02*
X18208476Y-74985714D01*
X18208476Y-74985714D02*
X18113238Y-75033333D01*
X18113238Y-75033333D02*
X18018000Y-75128571D01*
X18018000Y-75128571D02*
X17970380Y-75271428D01*
X17970380Y-75271428D02*
X17970380Y-75366666D01*
X17970380Y-75366666D02*
X18018000Y-75509523D01*
X18018000Y-75509523D02*
X18065619Y-75557142D01*
X18970380Y-76509523D02*
X18970380Y-75938095D01*
X18970380Y-76223809D02*
X17970380Y-76223809D01*
X17970380Y-76223809D02*
X18113238Y-76128571D01*
X18113238Y-76128571D02*
X18208476Y-76033333D01*
X18208476Y-76033333D02*
X18256095Y-75938095D01*
X17970380Y-76842857D02*
X17970380Y-77461904D01*
X17970380Y-77461904D02*
X18351333Y-77128571D01*
X18351333Y-77128571D02*
X18351333Y-77271428D01*
X18351333Y-77271428D02*
X18398952Y-77366666D01*
X18398952Y-77366666D02*
X18446571Y-77414285D01*
X18446571Y-77414285D02*
X18541809Y-77461904D01*
X18541809Y-77461904D02*
X18779904Y-77461904D01*
X18779904Y-77461904D02*
X18875142Y-77414285D01*
X18875142Y-77414285D02*
X18922761Y-77366666D01*
X18922761Y-77366666D02*
X18970380Y-77271428D01*
X18970380Y-77271428D02*
X18970380Y-76985714D01*
X18970380Y-76985714D02*
X18922761Y-76890476D01*
X18922761Y-76890476D02*
X18875142Y-76842857D01*
X73583380Y-79049714D02*
X72583380Y-79049714D01*
X72583380Y-79049714D02*
X72583380Y-79287809D01*
X72583380Y-79287809D02*
X72631000Y-79430666D01*
X72631000Y-79430666D02*
X72726238Y-79525904D01*
X72726238Y-79525904D02*
X72821476Y-79573523D01*
X72821476Y-79573523D02*
X73011952Y-79621142D01*
X73011952Y-79621142D02*
X73154809Y-79621142D01*
X73154809Y-79621142D02*
X73345285Y-79573523D01*
X73345285Y-79573523D02*
X73440523Y-79525904D01*
X73440523Y-79525904D02*
X73535761Y-79430666D01*
X73535761Y-79430666D02*
X73583380Y-79287809D01*
X73583380Y-79287809D02*
X73583380Y-79049714D01*
X72678619Y-80002095D02*
X72631000Y-80049714D01*
X72631000Y-80049714D02*
X72583380Y-80144952D01*
X72583380Y-80144952D02*
X72583380Y-80383047D01*
X72583380Y-80383047D02*
X72631000Y-80478285D01*
X72631000Y-80478285D02*
X72678619Y-80525904D01*
X72678619Y-80525904D02*
X72773857Y-80573523D01*
X72773857Y-80573523D02*
X72869095Y-80573523D01*
X72869095Y-80573523D02*
X73011952Y-80525904D01*
X73011952Y-80525904D02*
X73583380Y-79954476D01*
X73583380Y-79954476D02*
X73583380Y-80573523D01*
X73583380Y-81525904D02*
X73583380Y-80954476D01*
X73583380Y-81240190D02*
X72583380Y-81240190D01*
X72583380Y-81240190D02*
X72726238Y-81144952D01*
X72726238Y-81144952D02*
X72821476Y-81049714D01*
X72821476Y-81049714D02*
X72869095Y-80954476D01*
X10943142Y-76038333D02*
X10990761Y-75990714D01*
X10990761Y-75990714D02*
X11038380Y-75847857D01*
X11038380Y-75847857D02*
X11038380Y-75752619D01*
X11038380Y-75752619D02*
X10990761Y-75609762D01*
X10990761Y-75609762D02*
X10895523Y-75514524D01*
X10895523Y-75514524D02*
X10800285Y-75466905D01*
X10800285Y-75466905D02*
X10609809Y-75419286D01*
X10609809Y-75419286D02*
X10466952Y-75419286D01*
X10466952Y-75419286D02*
X10276476Y-75466905D01*
X10276476Y-75466905D02*
X10181238Y-75514524D01*
X10181238Y-75514524D02*
X10086000Y-75609762D01*
X10086000Y-75609762D02*
X10038380Y-75752619D01*
X10038380Y-75752619D02*
X10038380Y-75847857D01*
X10038380Y-75847857D02*
X10086000Y-75990714D01*
X10086000Y-75990714D02*
X10133619Y-76038333D01*
X10038380Y-76943095D02*
X10038380Y-76466905D01*
X10038380Y-76466905D02*
X10514571Y-76419286D01*
X10514571Y-76419286D02*
X10466952Y-76466905D01*
X10466952Y-76466905D02*
X10419333Y-76562143D01*
X10419333Y-76562143D02*
X10419333Y-76800238D01*
X10419333Y-76800238D02*
X10466952Y-76895476D01*
X10466952Y-76895476D02*
X10514571Y-76943095D01*
X10514571Y-76943095D02*
X10609809Y-76990714D01*
X10609809Y-76990714D02*
X10847904Y-76990714D01*
X10847904Y-76990714D02*
X10943142Y-76943095D01*
X10943142Y-76943095D02*
X10990761Y-76895476D01*
X10990761Y-76895476D02*
X11038380Y-76800238D01*
X11038380Y-76800238D02*
X11038380Y-76562143D01*
X11038380Y-76562143D02*
X10990761Y-76466905D01*
X10990761Y-76466905D02*
X10943142Y-76419286D01*
X13341000Y-67731000D02*
X16441000Y-67731000D01*
X13341000Y-72731000D02*
X16441000Y-72731000D01*
D11*
X10966000Y-72136000D02*
G75*
G03*
X10966000Y-72136000I-125000J0D01*
G01*
D12*
X32650000Y-19017064D02*
X32650000Y-17812936D01*
X34470000Y-19017064D02*
X34470000Y-17812936D01*
X10370000Y-87392000D02*
X10370000Y-89392000D01*
X9320000Y-90692000D02*
X8870000Y-91142000D01*
X9320000Y-86092000D02*
X8870000Y-85642000D01*
X8870000Y-91142000D02*
X6370000Y-91142000D01*
X8870000Y-85642000D02*
X6370000Y-85642000D01*
X5920000Y-90692000D02*
X6370000Y-91142000D01*
X5920000Y-86092000D02*
X6370000Y-85642000D01*
X4870000Y-87392000D02*
X4870000Y-89392000D01*
X10961252Y-60552000D02*
X10438748Y-60552000D01*
X10961252Y-59082000D02*
X10438748Y-59082000D01*
X12832000Y-25172936D02*
X12832000Y-25627064D01*
X11362000Y-25172936D02*
X11362000Y-25627064D01*
D10*
X26910000Y-13663000D02*
X28010000Y-13663000D01*
X28010000Y-14263000D02*
X28010000Y-13663000D01*
X28010000Y-16563000D02*
X26910000Y-16563000D01*
X28010000Y-16563000D02*
X28010000Y-15963000D01*
D12*
X71390000Y-78014000D02*
X71390000Y-81914000D01*
X69390000Y-78014000D02*
X71390000Y-78014000D01*
X69390000Y-78014000D02*
X69390000Y-81914000D01*
X74216000Y-73624000D02*
X74216000Y-69724000D01*
X76216000Y-73624000D02*
X74216000Y-73624000D01*
X76216000Y-73624000D02*
X76216000Y-69724000D01*
X26299844Y-10153180D02*
X26299844Y-9699052D01*
X27769844Y-10153180D02*
X27769844Y-9699052D01*
X12350000Y-54515000D02*
X12350000Y-58515000D01*
X9050000Y-54515000D02*
X12350000Y-54515000D01*
X55166000Y-16474000D02*
X55166000Y-12574000D01*
X57166000Y-16474000D02*
X55166000Y-16474000D01*
X57166000Y-16474000D02*
X57166000Y-12574000D01*
X24697000Y-46108252D02*
X24697000Y-45585748D01*
X26167000Y-46108252D02*
X26167000Y-45585748D01*
X20579000Y-25172936D02*
X20579000Y-25627064D01*
X19109000Y-25172936D02*
X19109000Y-25627064D01*
X43430000Y-19542000D02*
X39530000Y-19542000D01*
X43430000Y-17542000D02*
X43430000Y-19542000D01*
X43430000Y-17542000D02*
X39530000Y-17542000D01*
X22411000Y-46074064D02*
X22411000Y-45619936D01*
X23881000Y-46074064D02*
X23881000Y-45619936D01*
X34144719Y-9672116D02*
X34144719Y-10126244D01*
X32674719Y-9672116D02*
X32674719Y-10126244D01*
X30539000Y-10641064D02*
X30539000Y-10186936D01*
X32009000Y-10641064D02*
X32009000Y-10186936D01*
X6663000Y-25661252D02*
X6663000Y-25138748D01*
X8133000Y-25661252D02*
X8133000Y-25138748D01*
X24301000Y-89519000D02*
X24301000Y-87519000D01*
X25351000Y-86219000D02*
X25801000Y-85769000D01*
X25351000Y-90819000D02*
X25801000Y-91269000D01*
X25801000Y-85769000D02*
X28301000Y-85769000D01*
X25801000Y-91269000D02*
X28301000Y-91269000D01*
X28751000Y-86219000D02*
X28301000Y-85769000D01*
X28751000Y-90819000D02*
X28301000Y-91269000D01*
X29801000Y-89519000D02*
X29801000Y-87519000D01*
X28252936Y-50700000D02*
X28707064Y-50700000D01*
X28252936Y-52170000D02*
X28707064Y-52170000D01*
X36116000Y-54574000D02*
X36116000Y-50674000D01*
X38116000Y-54574000D02*
X36116000Y-54574000D01*
X38116000Y-54574000D02*
X38116000Y-50674000D01*
X37386000Y-16474000D02*
X37386000Y-12574000D01*
X39386000Y-16474000D02*
X37386000Y-16474000D01*
X39386000Y-16474000D02*
X39386000Y-12574000D01*
X28707064Y-50011000D02*
X28252936Y-50011000D01*
X28707064Y-48541000D02*
X28252936Y-48541000D01*
X21395000Y-25627064D02*
X21395000Y-25172936D01*
X22865000Y-25627064D02*
X22865000Y-25172936D01*
X30538936Y-70893000D02*
X30993064Y-70893000D01*
X30538936Y-72363000D02*
X30993064Y-72363000D01*
X26983000Y-46108252D02*
X26983000Y-45585748D01*
X28453000Y-46108252D02*
X28453000Y-45585748D01*
X74216000Y-16474000D02*
X74216000Y-12574000D01*
X76216000Y-16474000D02*
X74216000Y-16474000D01*
X76216000Y-16474000D02*
X76216000Y-12574000D01*
X32094000Y-70162000D02*
X32094000Y-69902000D01*
X32094000Y-64972000D02*
X33769000Y-64972000D01*
X32094000Y-64712000D02*
X32094000Y-64972000D01*
X29369000Y-70162000D02*
X32094000Y-70162000D01*
X29369000Y-70162000D02*
X26644000Y-70162000D01*
X29369000Y-64712000D02*
X32094000Y-64712000D01*
X29369000Y-64712000D02*
X26644000Y-64712000D01*
X26644000Y-70162000D02*
X26644000Y-69902000D01*
X26644000Y-64712000D02*
X26644000Y-64972000D01*
X30993064Y-63981000D02*
X30538936Y-63981000D01*
X30993064Y-62511000D02*
X30538936Y-62511000D01*
X15372000Y-75943748D02*
X15372000Y-76466252D01*
X13902000Y-75943748D02*
X13902000Y-76466252D01*
X15626064Y-66775000D02*
X15171936Y-66775000D01*
X15626064Y-65305000D02*
X15171936Y-65305000D01*
X74216000Y-35524000D02*
X74216000Y-31624000D01*
X76216000Y-35524000D02*
X74216000Y-35524000D01*
X76216000Y-35524000D02*
X76216000Y-31624000D01*
X13374252Y-51789000D02*
X12851748Y-51789000D01*
X13374252Y-50319000D02*
X12851748Y-50319000D01*
X10961252Y-53948000D02*
X10438748Y-53948000D01*
X10961252Y-52478000D02*
X10438748Y-52478000D01*
X28507000Y-10641064D02*
X28507000Y-10186936D01*
X29977000Y-10641064D02*
X29977000Y-10186936D01*
X36116000Y-92166000D02*
X36116000Y-88266000D01*
X38116000Y-92166000D02*
X36116000Y-92166000D01*
X38116000Y-92166000D02*
X38116000Y-88266000D01*
X93266000Y-16474000D02*
X93266000Y-12574000D01*
X95266000Y-16474000D02*
X93266000Y-16474000D01*
X95266000Y-16474000D02*
X95266000Y-12574000D01*
X14483000Y-89146748D02*
X14483000Y-89669252D01*
X13013000Y-89146748D02*
X13013000Y-89669252D01*
X36116000Y-82514000D02*
X36116000Y-78614000D01*
X38116000Y-82514000D02*
X36116000Y-82514000D01*
X38116000Y-82514000D02*
X38116000Y-78614000D01*
X55166000Y-54574000D02*
X55166000Y-50674000D01*
X57166000Y-54574000D02*
X55166000Y-54574000D01*
X57166000Y-54574000D02*
X57166000Y-50674000D01*
X74216000Y-54574000D02*
X74216000Y-50674000D01*
X76216000Y-54574000D02*
X74216000Y-54574000D01*
X76216000Y-54574000D02*
X76216000Y-50674000D01*
X87932000Y-35524000D02*
X87932000Y-31624000D01*
X89932000Y-35524000D02*
X87932000Y-35524000D01*
X89932000Y-35524000D02*
X89932000Y-31624000D01*
X16996000Y-52524000D02*
X16996000Y-52974000D01*
X16996000Y-59294000D02*
X15706000Y-59294000D01*
X16996000Y-59744000D02*
X16996000Y-59294000D01*
X17446000Y-52524000D02*
X16996000Y-52524000D01*
X17446000Y-59744000D02*
X16996000Y-59744000D01*
X23766000Y-52524000D02*
X24216000Y-52524000D01*
X23766000Y-59744000D02*
X24216000Y-59744000D01*
X24216000Y-52524000D02*
X24216000Y-52974000D01*
X24216000Y-59744000D02*
X24216000Y-59294000D01*
X20579000Y-71908936D02*
X20579000Y-72363064D01*
X19109000Y-71908936D02*
X19109000Y-72363064D01*
X15744000Y-3540000D02*
X11844000Y-3540000D01*
X15744000Y-1540000D02*
X15744000Y-3540000D01*
X15744000Y-1540000D02*
X11844000Y-1540000D01*
X55166000Y-73624000D02*
X55166000Y-69724000D01*
X57166000Y-73624000D02*
X55166000Y-73624000D01*
X57166000Y-73624000D02*
X57166000Y-69724000D01*
X7795000Y-45049000D02*
X7795000Y-41149000D01*
X9795000Y-45049000D02*
X7795000Y-45049000D01*
X9795000Y-45049000D02*
X9795000Y-41149000D01*
X23808000Y-25661252D02*
X23808000Y-25138748D01*
X25278000Y-25661252D02*
X25278000Y-25138748D01*
X93266000Y-54574000D02*
X93266000Y-50674000D01*
X95266000Y-54574000D02*
X93266000Y-54574000D01*
X95266000Y-54574000D02*
X95266000Y-50674000D01*
X28360252Y-60298000D02*
X27837748Y-60298000D01*
X28360252Y-58828000D02*
X27837748Y-58828000D01*
X8949000Y-25627064D02*
X8949000Y-25172936D01*
X10419000Y-25627064D02*
X10419000Y-25172936D01*
X32698000Y-13689064D02*
X32698000Y-13234936D01*
X34168000Y-13689064D02*
X34168000Y-13234936D01*
X26802000Y-18661748D02*
X26802000Y-19184252D01*
X25332000Y-18661748D02*
X25332000Y-19184252D01*
X29088000Y-18661748D02*
X29088000Y-19184252D01*
X27618000Y-18661748D02*
X27618000Y-19184252D01*
X103172000Y-92166000D02*
X103172000Y-88266000D01*
X105172000Y-92166000D02*
X103172000Y-92166000D01*
X105172000Y-92166000D02*
X105172000Y-88266000D01*
X55166000Y-35524000D02*
X55166000Y-31624000D01*
X57166000Y-35524000D02*
X55166000Y-35524000D01*
X57166000Y-35524000D02*
X57166000Y-31624000D01*
X20125000Y-89635064D02*
X20125000Y-89180936D01*
X21595000Y-89635064D02*
X21595000Y-89180936D01*
X87932000Y-73624000D02*
X87932000Y-69724000D01*
X89932000Y-73624000D02*
X87932000Y-73624000D01*
X89932000Y-73624000D02*
X89932000Y-69724000D01*
X31458000Y-8408000D02*
X29058000Y-8408000D01*
X29058000Y-5308000D02*
X32008000Y-5308000D01*
X16188000Y-76461252D02*
X16188000Y-75938748D01*
X17658000Y-76461252D02*
X17658000Y-75938748D01*
X76216000Y-78014000D02*
X76216000Y-81914000D01*
X74216000Y-78014000D02*
X76216000Y-78014000D01*
X74216000Y-78014000D02*
X74216000Y-81914000D01*
X13086000Y-75943748D02*
X13086000Y-76466252D01*
X11616000Y-75943748D02*
X11616000Y-76466252D01*
X26040000Y-49776748D02*
X26040000Y-50299252D01*
X24570000Y-49776748D02*
X24570000Y-50299252D01*
X13374252Y-62711000D02*
X12851748Y-62711000D01*
X13374252Y-61241000D02*
X12851748Y-61241000D01*
%LPC*%
D13*
X77294500Y-47100000D03*
D14*
X78564500Y-44560000D03*
D15*
X82374500Y-47100000D03*
D14*
X84914500Y-42020000D03*
D13*
X87454500Y-47100000D03*
D16*
X75289499Y-44559999D03*
X88216499Y-42019999D03*
D13*
X96344500Y-9000000D03*
D14*
X97614500Y-6460000D03*
D15*
X101424500Y-9000000D03*
D14*
X103964500Y-3920000D03*
D13*
X106504500Y-9000000D03*
D16*
X94339499Y-6459999D03*
X107266499Y-3919999D03*
D13*
X77294500Y-9000000D03*
D14*
X78564500Y-6460000D03*
D15*
X82374500Y-9000000D03*
D14*
X84914500Y-3920000D03*
D13*
X87454500Y-9000000D03*
D16*
X75289499Y-6459999D03*
X88216499Y-3919999D03*
D13*
X58244500Y-28050000D03*
D14*
X59514500Y-25510000D03*
D15*
X63324500Y-28050000D03*
D14*
X65864500Y-22970000D03*
D13*
X68404500Y-28050000D03*
D16*
X56239499Y-25509999D03*
X69166499Y-22969999D03*
D13*
X39194500Y-9000000D03*
D14*
X40464500Y-6460000D03*
D15*
X44274500Y-9000000D03*
D14*
X46814500Y-3920000D03*
D13*
X49354500Y-9000000D03*
D16*
X37189499Y-6459999D03*
X50116499Y-3919999D03*
D13*
X96344500Y-47100000D03*
D14*
X97614500Y-44560000D03*
D15*
X101424500Y-47100000D03*
D14*
X103964500Y-42020000D03*
D13*
X106504500Y-47100000D03*
D16*
X94339499Y-44559999D03*
X107266499Y-42019999D03*
D13*
X96344500Y-75675000D03*
D14*
X97614500Y-73135000D03*
D15*
X101424500Y-75675000D03*
D14*
X103964500Y-70595000D03*
D13*
X106504500Y-75675000D03*
D16*
X94339499Y-73134999D03*
X107266499Y-70594999D03*
D13*
X77294500Y-66150000D03*
D14*
X78564500Y-63610000D03*
D15*
X82374500Y-66150000D03*
D14*
X84914500Y-61070000D03*
D13*
X87454500Y-66150000D03*
D16*
X75289499Y-63609999D03*
X88216499Y-61069999D03*
D13*
X87454500Y-85200000D03*
D14*
X86184500Y-87740000D03*
D15*
X82374500Y-85200000D03*
D14*
X79834500Y-90280000D03*
D13*
X77294500Y-85200000D03*
D16*
X89459499Y-87739999D03*
X76532499Y-90279999D03*
D13*
X39194500Y-75675000D03*
D14*
X40464500Y-73135000D03*
D15*
X44274500Y-75675000D03*
D14*
X46814500Y-70595000D03*
D13*
X49354500Y-75675000D03*
D16*
X37189499Y-73134999D03*
X50116499Y-70594999D03*
D17*
X3443999Y-80771999D03*
D18*
X3443999Y-78231999D03*
X3443999Y-75691999D03*
X3443999Y-73151999D03*
X3443999Y-70611999D03*
X3443999Y-68071999D03*
X3443999Y-65531999D03*
X3443999Y-62991999D03*
D13*
X39194500Y-66150000D03*
D14*
X40464500Y-63610000D03*
D15*
X44274500Y-66150000D03*
D14*
X46814500Y-61070000D03*
D13*
X49354500Y-66150000D03*
D16*
X37189499Y-63609999D03*
X50116499Y-61069999D03*
D13*
X58244500Y-9000000D03*
D14*
X59514500Y-6460000D03*
D15*
X63324500Y-9000000D03*
D14*
X65864500Y-3920000D03*
D13*
X68404500Y-9000000D03*
D16*
X56239499Y-6459999D03*
X69166499Y-3919999D03*
D13*
X39194500Y-37575000D03*
D14*
X40464500Y-35035000D03*
D15*
X44274500Y-37575000D03*
D14*
X46814500Y-32495000D03*
D13*
X49354500Y-37575000D03*
D16*
X37189499Y-35034999D03*
X50116499Y-32494999D03*
D13*
X10907000Y-37575000D03*
D14*
X12177000Y-35035000D03*
D15*
X15987000Y-37575000D03*
D14*
X18527000Y-32495000D03*
D13*
X21067000Y-37575000D03*
D16*
X8901999Y-35034999D03*
X21828999Y-32494999D03*
D13*
X96344500Y-37575000D03*
D14*
X97614500Y-35035000D03*
D15*
X101424500Y-37575000D03*
D14*
X103964500Y-32495000D03*
D13*
X106504500Y-37575000D03*
D16*
X94339499Y-35034999D03*
X107266499Y-32494999D03*
D13*
X96344500Y-28050000D03*
D14*
X97614500Y-25510000D03*
D15*
X101424500Y-28050000D03*
D14*
X103964500Y-22970000D03*
D13*
X106504500Y-28050000D03*
D16*
X94339499Y-25509999D03*
X107266499Y-22969999D03*
D13*
X48719500Y-85200000D03*
D14*
X49989500Y-82660000D03*
D15*
X53799500Y-85200000D03*
D14*
X56339500Y-80120000D03*
D13*
X58879500Y-85200000D03*
D16*
X46714499Y-82659999D03*
X59641499Y-80119999D03*
D13*
X58244500Y-47100000D03*
D14*
X59514500Y-44560000D03*
D15*
X63324500Y-47100000D03*
D14*
X65864500Y-42020000D03*
D13*
X68404500Y-47100000D03*
D16*
X56239499Y-44559999D03*
X69166499Y-42019999D03*
D13*
X39194500Y-47100000D03*
D14*
X40464500Y-44560000D03*
D15*
X44274500Y-47100000D03*
D14*
X46814500Y-42020000D03*
D13*
X49354500Y-47100000D03*
D16*
X37189499Y-44559999D03*
X50116499Y-42019999D03*
D13*
X68404500Y-85200000D03*
D14*
X67134500Y-87740000D03*
D15*
X63324500Y-85200000D03*
D14*
X60784500Y-90280000D03*
D13*
X58244500Y-85200000D03*
D16*
X70409499Y-87739999D03*
X57482499Y-90279999D03*
D19*
X29623000Y-78751500D03*
X29623000Y-81291500D03*
X27083000Y-78751500D03*
X27083000Y-81291500D03*
X24543000Y-78751500D03*
D17*
X24542999Y-81291499D03*
D13*
X39194500Y-28050000D03*
D14*
X40464500Y-25510000D03*
D15*
X44274500Y-28050000D03*
D14*
X46814500Y-22970000D03*
D13*
X49354500Y-28050000D03*
D16*
X37189499Y-25509999D03*
X50116499Y-22969999D03*
D13*
X86819500Y-85200000D03*
D14*
X88089500Y-82660000D03*
D15*
X91899500Y-85200000D03*
D14*
X94439500Y-80120000D03*
D13*
X96979500Y-85200000D03*
D16*
X84814499Y-82659999D03*
X97741499Y-80119999D03*
D13*
X58244500Y-66150000D03*
D14*
X59514500Y-63610000D03*
D15*
X63324500Y-66150000D03*
D14*
X65864500Y-61070000D03*
D13*
X68404500Y-66150000D03*
D16*
X56239499Y-63609999D03*
X69166499Y-61069999D03*
D20*
X10386999Y-13762499D03*
X21586999Y-13762499D03*
D21*
X13486999Y-21262499D03*
D22*
X18487000Y-21262500D03*
X15987000Y-21262500D03*
X18487000Y-6762500D03*
X13487000Y-6762500D03*
D13*
X77294500Y-28050000D03*
D14*
X78564500Y-25510000D03*
D15*
X82374500Y-28050000D03*
D14*
X84914500Y-22970000D03*
D13*
X87454500Y-28050000D03*
D16*
X75289499Y-25509999D03*
X88216499Y-22969999D03*
D13*
X96344500Y-66150000D03*
D14*
X97614500Y-63610000D03*
D15*
X101424500Y-66150000D03*
D14*
X103964500Y-61070000D03*
D13*
X106504500Y-66150000D03*
D16*
X94339499Y-63609999D03*
X107266499Y-61069999D03*
D23*
X12190999Y-72135999D03*
X12190999Y-70865999D03*
X12190999Y-69595999D03*
X12190999Y-68325999D03*
X17590999Y-68325999D03*
X17590999Y-69595999D03*
X17590999Y-70865999D03*
X17590999Y-72135999D03*
D24*
X33560000Y-19815000D03*
X33560000Y-17015000D03*
D25*
X10769999Y-86491999D03*
X4469999Y-86491999D03*
X10769999Y-90291999D03*
X4469999Y-90291999D03*
D26*
X11650000Y-59817000D03*
X9750000Y-59817000D03*
D27*
X12097000Y-24487500D03*
X12097000Y-26312500D03*
D28*
X26009999Y-16062998D03*
X26009999Y-14162999D03*
X28409999Y-15112999D03*
D29*
X70389999Y-78613999D03*
X70389999Y-81913999D03*
X75215999Y-73023999D03*
X75215999Y-69723999D03*
D30*
X27034844Y-10838616D03*
X27034844Y-9013616D03*
D31*
X11549999Y-55414999D03*
X11549999Y-57614999D03*
X9849999Y-57614999D03*
X9849999Y-55414999D03*
D29*
X56165999Y-15873999D03*
X56165999Y-12573999D03*
D32*
X25432000Y-46797000D03*
X25432000Y-44897000D03*
D27*
X19844000Y-24487500D03*
X19844000Y-26312500D03*
D33*
X42829999Y-18541999D03*
X39529999Y-18541999D03*
D30*
X23146000Y-46759500D03*
X23146000Y-44934500D03*
D27*
X33409719Y-8986680D03*
X33409719Y-10811680D03*
D30*
X31274000Y-11326500D03*
X31274000Y-9501500D03*
D32*
X7398000Y-26350000D03*
X7398000Y-24450000D03*
D25*
X23900999Y-90418999D03*
X30200999Y-90418999D03*
X23900999Y-86618999D03*
X30200999Y-86618999D03*
D34*
X27567500Y-51435000D03*
X29392500Y-51435000D03*
D29*
X37115999Y-53973999D03*
X37115999Y-50673999D03*
X38385999Y-15873999D03*
X38385999Y-12573999D03*
D35*
X29392500Y-49276000D03*
X27567500Y-49276000D03*
D30*
X22130000Y-26312500D03*
X22130000Y-24487500D03*
D34*
X29853500Y-71628000D03*
X31678500Y-71628000D03*
D36*
X27368000Y-387000D03*
X33148000Y-387000D03*
D37*
X27032999Y-1831999D03*
X27807999Y-1831999D03*
D38*
X28507999Y-1831999D03*
X29007999Y-1831999D03*
X29507999Y-1831999D03*
X30007999Y-1831999D03*
X30507999Y-1831999D03*
X31007999Y-1831999D03*
X31507999Y-1831999D03*
X32007999Y-1831999D03*
D37*
X32707999Y-1831999D03*
X33482999Y-1831999D03*
D32*
X27718000Y-46797000D03*
X27718000Y-44897000D03*
D29*
X75215999Y-15873999D03*
X75215999Y-12573999D03*
D39*
X32969000Y-65532000D03*
X32969000Y-66802000D03*
X32969000Y-68072000D03*
X32969000Y-69342000D03*
X25769000Y-69342000D03*
X25769000Y-68072000D03*
X25769000Y-66802000D03*
X25769000Y-65532000D03*
D35*
X31678500Y-63246000D03*
X29853500Y-63246000D03*
D40*
X14637000Y-75255000D03*
X14637000Y-77155000D03*
D35*
X16311500Y-66040000D03*
X14486500Y-66040000D03*
D29*
X75215999Y-34923999D03*
X75215999Y-31623999D03*
D26*
X14063000Y-51054000D03*
X12163000Y-51054000D03*
X11650000Y-53213000D03*
X9750000Y-53213000D03*
D30*
X29242000Y-11326500D03*
X29242000Y-9501500D03*
D29*
X37115999Y-91565999D03*
X37115999Y-88265999D03*
X94265999Y-15873999D03*
X94265999Y-12573999D03*
D40*
X13748000Y-88458000D03*
X13748000Y-90358000D03*
D29*
X37115999Y-81913999D03*
X37115999Y-78613999D03*
X56165999Y-53973999D03*
X56165999Y-50673999D03*
X75215999Y-53973999D03*
X75215999Y-50673999D03*
X88931999Y-34923999D03*
X88931999Y-31623999D03*
D41*
X16443500Y-58884000D03*
X16443500Y-58384000D03*
X16443500Y-57884000D03*
X16443500Y-57384000D03*
X16443500Y-56884000D03*
X16443500Y-56384000D03*
X16443500Y-55884000D03*
X16443500Y-55384000D03*
X16443500Y-54884000D03*
X16443500Y-54384000D03*
X16443500Y-53884000D03*
X16443500Y-53384000D03*
D42*
X17856000Y-51971500D03*
X18356000Y-51971500D03*
X18856000Y-51971500D03*
X19356000Y-51971500D03*
X19856000Y-51971500D03*
X20356000Y-51971500D03*
X20856000Y-51971500D03*
X21356000Y-51971500D03*
X21856000Y-51971500D03*
X22356000Y-51971500D03*
X22856000Y-51971500D03*
X23356000Y-51971500D03*
D41*
X24768500Y-53384000D03*
X24768500Y-53884000D03*
X24768500Y-54384000D03*
X24768500Y-54884000D03*
X24768500Y-55384000D03*
X24768500Y-55884000D03*
X24768500Y-56384000D03*
X24768500Y-56884000D03*
X24768500Y-57384000D03*
X24768500Y-57884000D03*
X24768500Y-58384000D03*
X24768500Y-58884000D03*
D42*
X23356000Y-60296500D03*
X22856000Y-60296500D03*
X22356000Y-60296500D03*
X21856000Y-60296500D03*
X21356000Y-60296500D03*
X20856000Y-60296500D03*
X20356000Y-60296500D03*
X19856000Y-60296500D03*
X19356000Y-60296500D03*
X18856000Y-60296500D03*
X18356000Y-60296500D03*
X17856000Y-60296500D03*
D27*
X19844000Y-71223500D03*
X19844000Y-73048500D03*
D33*
X15143999Y-2539999D03*
X11843999Y-2539999D03*
D29*
X56165999Y-73023999D03*
X56165999Y-69723999D03*
X8794999Y-44448999D03*
X8794999Y-41148999D03*
D32*
X24543000Y-26350000D03*
X24543000Y-24450000D03*
D29*
X94265999Y-53973999D03*
X94265999Y-50673999D03*
D26*
X29049000Y-59563000D03*
X27149000Y-59563000D03*
D30*
X9684000Y-26312500D03*
X9684000Y-24487500D03*
X33433000Y-14374500D03*
X33433000Y-12549500D03*
D40*
X26067000Y-17973000D03*
X26067000Y-19873000D03*
X28353000Y-17973000D03*
X28353000Y-19873000D03*
D29*
X104171999Y-91565999D03*
X104171999Y-88265999D03*
X56165999Y-34923999D03*
X56165999Y-31623999D03*
D30*
X20860000Y-90320500D03*
X20860000Y-88495500D03*
D29*
X88931999Y-73023999D03*
X88931999Y-69723999D03*
D43*
X31357999Y-6087999D03*
D44*
X31357999Y-7807999D03*
X29157999Y-7807999D03*
X29157999Y-5907999D03*
D32*
X16923000Y-77150000D03*
X16923000Y-75250000D03*
D29*
X75215999Y-78613999D03*
X75215999Y-81913999D03*
D40*
X12351000Y-75255000D03*
X12351000Y-77155000D03*
X25305000Y-49088000D03*
X25305000Y-50988000D03*
D26*
X14063000Y-61976000D03*
X12163000Y-61976000D03*
D45*
X35338000Y3889000D02*
G75*
G03*
X34576000Y4699000I-786000J24000D01*
G01*
X35338001Y690001D02*
G75*
G03*
X36076001Y-23999I725999J11999D01*
G01*
X108472786Y-94200000D02*
X2000000Y-94200000D01*
X110472786Y-2000000D02*
X110472786Y-92200000D01*
X36076001Y-23999D02*
X108472786Y0D01*
X0Y-92200000D02*
G75*
G03*
X2000000Y-94200000I1999995J-5D01*
G01*
X2000000Y0D02*
X24470816Y0D01*
X24470816Y-16D02*
G75*
G03*
X25184816Y738001I-12016J726016D01*
G01*
X35338000Y690001D02*
X35338000Y3889000D01*
X25184816Y738001D02*
X25184816Y3937000D01*
X108472786Y-94199986D02*
G75*
G03*
X110472786Y-92200000I14J1999986D01*
G01*
X25994815Y4698983D02*
G75*
G03*
X25184816Y3937000I-24015J-785983D01*
G01*
X2000000Y0D02*
G75*
G03*
X0Y-2000000I-1J-1999999D01*
G01*
X34576000Y4699000D02*
X25994816Y4699000D01*
X0Y-92200000D02*
X0Y-2000000D01*
X110472800Y-2000000D02*
G75*
G03*
X108472786Y0I-2000000J0D01*
G01*
M02*
