%FSLAX45Y45*%
G04 Gerber Fmt 4.5, Leading zero omitted, Abs format (unit mm)*
G04 Created by KiCad (PCBNEW (6.99.0-1912-g359c99991b)) date 2022-07-11 13:53:52*
%MOMM*%
%LPD*%
G01*
G04 APERTURE LIST*
%TA.AperFunction,Profile*%
%ADD10C,0.100000*%
%TD*%
%ADD11C,0.200000*%
%ADD12C,0.025000*%
%ADD13C,0.060000*%
%ADD14C,0.100000*%
%ADD15C,0.300000*%
%ADD16C,0.065000*%
%ADD17C,0.150000*%
%ADD18C,0.175000*%
%ADD19C,0.398780*%
G04 APERTURE END LIST*
D10*
X3533800Y388900D02*
G75*
G03*
X3457600Y469900I-78600J2400D01*
G01*
X3533800Y69000D02*
G75*
G03*
X3607600Y-2400I72600J1200D01*
G01*
X10847279Y-9420000D02*
X200000Y-9420000D01*
X11047279Y-200000D02*
X11047279Y-9220000D01*
X3607600Y-2400D02*
X10847279Y0D01*
X0Y-9220000D02*
G75*
G03*
X200000Y-9420000I199999J-1D01*
G01*
X200000Y0D02*
X2447082Y0D01*
X2447082Y-2D02*
G75*
G03*
X2518482Y73800I-1202J72602D01*
G01*
X3533800Y69000D02*
X3533800Y388900D01*
X2518482Y73800D02*
X2518482Y393700D01*
X10847279Y-9419999D02*
G75*
G03*
X11047279Y-9220000I1J199999D01*
G01*
X2599482Y469898D02*
G75*
G03*
X2518482Y393700I-2402J-78598D01*
G01*
X200000Y0D02*
G75*
G03*
X0Y-200000I0J-200000D01*
G01*
X3457600Y469900D02*
X2599482Y469900D01*
X0Y-9220000D02*
X0Y-200000D01*
X11047280Y-200000D02*
G75*
G03*
X10847279Y0I-200000J0D01*
G01*
D11*
D12*
X587500Y-6147500D02*
X612500Y-6172500D01*
X612500Y-6147500D02*
X587500Y-6172500D01*
X662500Y-6227500D02*
X687500Y-6252500D01*
X687500Y-6227500D02*
X662500Y-6252500D01*
X749500Y-3391100D02*
X774500Y-3416100D01*
X774500Y-3391100D02*
X749500Y-3416100D01*
X749500Y-3594300D02*
X774500Y-3619300D01*
X774500Y-3594300D02*
X749500Y-3619300D01*
X762500Y-6087500D02*
X787500Y-6112500D01*
X787500Y-6087500D02*
X762500Y-6112500D01*
X765400Y-2794200D02*
X790400Y-2819200D01*
X790400Y-2794200D02*
X765400Y-2819200D01*
X1044800Y-7437500D02*
X1069800Y-7462500D01*
X1069800Y-7437500D02*
X1044800Y-7462500D01*
X1057500Y-5092900D02*
X1082500Y-5117900D01*
X1082500Y-5092900D02*
X1057500Y-5117900D01*
X1155900Y-2794200D02*
X1180900Y-2819200D01*
X1180900Y-2794200D02*
X1155900Y-2819200D01*
X1187500Y-6507500D02*
X1212500Y-6532500D01*
X1212500Y-6507500D02*
X1187500Y-6532500D01*
X1248000Y-6591500D02*
X1273000Y-6616500D01*
X1273000Y-6591500D02*
X1248000Y-6616500D01*
X1375000Y-5296100D02*
X1400000Y-5321100D01*
X1400000Y-5296100D02*
X1375000Y-5321100D01*
X1397500Y-5997500D02*
X1422500Y-6022500D01*
X1422500Y-5997500D02*
X1397500Y-6022500D01*
X1400400Y-2438600D02*
X1425400Y-2463600D01*
X1425400Y-2438600D02*
X1400400Y-2463600D01*
X1413100Y-5562800D02*
X1438100Y-5587800D01*
X1438100Y-5562800D02*
X1413100Y-5587800D01*
X1443783Y-5776413D02*
X1468783Y-5801413D01*
X1468783Y-5776413D02*
X1443783Y-5801413D01*
X1451200Y-5334200D02*
X1476200Y-5359200D01*
X1476200Y-5334200D02*
X1451200Y-5359200D01*
X1463900Y-1765500D02*
X1488900Y-1790500D01*
X1488900Y-1765500D02*
X1463900Y-1790500D01*
X1537500Y-4762500D02*
X1562500Y-4787500D01*
X1562500Y-4762500D02*
X1537500Y-4787500D01*
X1667100Y-1740100D02*
X1692100Y-1765100D01*
X1692100Y-1740100D02*
X1667100Y-1765100D01*
X1687500Y-6375600D02*
X1712500Y-6400600D01*
X1712500Y-6375600D02*
X1687500Y-6400600D01*
X1730600Y-4242000D02*
X1755600Y-4267000D01*
X1755600Y-4242000D02*
X1730600Y-4267000D01*
X1780417Y-5827563D02*
X1805417Y-5852563D01*
X1805417Y-5827563D02*
X1780417Y-5852563D01*
X1781400Y-2438600D02*
X1806400Y-2463600D01*
X1806400Y-2438600D02*
X1781400Y-2463600D01*
X1781400Y-6197800D02*
X1806400Y-6222800D01*
X1806400Y-6197800D02*
X1781400Y-6222800D01*
X1781400Y-6502600D02*
X1806400Y-6527600D01*
X1806400Y-6502600D02*
X1781400Y-6527600D01*
X1781400Y-8420300D02*
X1806400Y-8445300D01*
X1806400Y-8420300D02*
X1781400Y-8445300D01*
X1855060Y-4325820D02*
X1880060Y-4350820D01*
X1880060Y-4325820D02*
X1855060Y-4350820D01*
X1885540Y-4404560D02*
X1910540Y-4429560D01*
X1910540Y-4404560D02*
X1885540Y-4429560D01*
X1933800Y-4470600D02*
X1958800Y-4495600D01*
X1958800Y-4470600D02*
X1933800Y-4495600D01*
X1946500Y-1829000D02*
X1971500Y-1854000D01*
X1971500Y-1829000D02*
X1946500Y-1854000D01*
X1971900Y-4534100D02*
X1996900Y-4559100D01*
X1996900Y-4534100D02*
X1971900Y-4559100D01*
X2019500Y-2984700D02*
X2044500Y-3009700D01*
X2044500Y-2984700D02*
X2019500Y-3009700D01*
X2022700Y-2781500D02*
X2047700Y-2806500D01*
X2047700Y-2781500D02*
X2022700Y-2806500D01*
X2035400Y-5842200D02*
X2060400Y-5867200D01*
X2060400Y-5842200D02*
X2035400Y-5867200D01*
X2035400Y-6896300D02*
X2060400Y-6921300D01*
X2060400Y-6896300D02*
X2035400Y-6921300D01*
X2035400Y-8420300D02*
X2060400Y-8445300D01*
X2060400Y-8420300D02*
X2035400Y-8445300D01*
X2048100Y-4635700D02*
X2073100Y-4660700D01*
X2073100Y-4635700D02*
X2048100Y-4660700D01*
X2062500Y-4912500D02*
X2087500Y-4937500D01*
X2087500Y-4912500D02*
X2062500Y-4937500D01*
X2073500Y-6794700D02*
X2098500Y-6819700D01*
X2098500Y-6794700D02*
X2073500Y-6819700D01*
X2124300Y-5842200D02*
X2149300Y-5867200D01*
X2149300Y-5842200D02*
X2124300Y-5867200D01*
X2124300Y-6502600D02*
X2149300Y-6527600D01*
X2149300Y-6502600D02*
X2124300Y-6527600D01*
X2175100Y-5740600D02*
X2200100Y-5765600D01*
X2200100Y-5740600D02*
X2175100Y-5765600D01*
X2225900Y-4965900D02*
X2250900Y-4990900D01*
X2250900Y-4965900D02*
X2225900Y-4990900D01*
X2264000Y-5727900D02*
X2289000Y-5752900D01*
X2289000Y-5727900D02*
X2264000Y-5752900D01*
X2286200Y-3137100D02*
X2311200Y-3162100D01*
X2311200Y-3137100D02*
X2286200Y-3162100D01*
X2286200Y-3340300D02*
X2311200Y-3365300D01*
X2311200Y-3340300D02*
X2286200Y-3365300D01*
X2299890Y-5377044D02*
X2324890Y-5402044D01*
X2324890Y-5377044D02*
X2299890Y-5402044D01*
X2300552Y-5475410D02*
X2325552Y-5500410D01*
X2325552Y-5475410D02*
X2300552Y-5500410D01*
X2302100Y-1663900D02*
X2327100Y-1688900D01*
X2327100Y-1663900D02*
X2302100Y-1688900D01*
X2311600Y-7442400D02*
X2336600Y-7467400D01*
X2336600Y-7442400D02*
X2311600Y-7467400D01*
X2311600Y-7531300D02*
X2336600Y-7556300D01*
X2336600Y-7531300D02*
X2311600Y-7556300D01*
X2327500Y-2781500D02*
X2352500Y-2806500D01*
X2352500Y-2781500D02*
X2327500Y-2806500D01*
X2349700Y-2984700D02*
X2374700Y-3009700D01*
X2374700Y-2984700D02*
X2349700Y-3009700D01*
X2467200Y-6172400D02*
X2492200Y-6197400D01*
X2492200Y-6172400D02*
X2467200Y-6197400D01*
X2467200Y-6248600D02*
X2492200Y-6273600D01*
X2492200Y-6248600D02*
X2467200Y-6273600D01*
X2530700Y-978100D02*
X2555700Y-1003100D01*
X2555700Y-978100D02*
X2530700Y-1003100D01*
X2530700Y-5232600D02*
X2555700Y-5257600D01*
X2555700Y-5232600D02*
X2530700Y-5257600D01*
X2543400Y-6312100D02*
X2568400Y-6337100D01*
X2568400Y-6312100D02*
X2543400Y-6337100D01*
X2618998Y-5325915D02*
X2643998Y-5350915D01*
X2643998Y-5325915D02*
X2618998Y-5350915D01*
X2632300Y-6375600D02*
X2657300Y-6400600D01*
X2657300Y-6375600D02*
X2632300Y-6400600D01*
X2645000Y-4788100D02*
X2670000Y-4813100D01*
X2670000Y-4788100D02*
X2645000Y-4813100D01*
X2746600Y-6667700D02*
X2771600Y-6692700D01*
X2771600Y-6667700D02*
X2746600Y-6692700D01*
X2759300Y-6896300D02*
X2784300Y-6921300D01*
X2784300Y-6896300D02*
X2759300Y-6921300D01*
X2774217Y-5425771D02*
X2799217Y-5450771D01*
X2799217Y-5425771D02*
X2774217Y-5450771D01*
X2784700Y-4305500D02*
X2809700Y-4330500D01*
X2809700Y-4305500D02*
X2784700Y-4330500D01*
X2797400Y-7671000D02*
X2822400Y-7696000D01*
X2822400Y-7671000D02*
X2797400Y-7696000D01*
X2822800Y-5499300D02*
X2847800Y-5524300D01*
X2847800Y-5499300D02*
X2822800Y-5524300D01*
X2822800Y-7150300D02*
X2847800Y-7175300D01*
X2847800Y-7150300D02*
X2822800Y-7175300D01*
X2870400Y-6134300D02*
X2895400Y-6159300D01*
X2895400Y-6134300D02*
X2870400Y-6159300D01*
X2911700Y-343100D02*
X2936700Y-368100D01*
X2936700Y-343100D02*
X2911700Y-368100D01*
X2987900Y-2298900D02*
X3012900Y-2323900D01*
X3012900Y-2298900D02*
X2987900Y-2323900D01*
X2987900Y-6794700D02*
X3012900Y-6819700D01*
X3012900Y-6794700D02*
X2987900Y-6819700D01*
X3013300Y-393900D02*
X3038300Y-418900D01*
X3038300Y-393900D02*
X3013300Y-418900D01*
X3013300Y-8445700D02*
X3038300Y-8470700D01*
X3038300Y-8445700D02*
X3013300Y-8470700D01*
X3026000Y-1854400D02*
X3051000Y-1879400D01*
X3051000Y-1854400D02*
X3026000Y-1879400D01*
X3043780Y-5565340D02*
X3068780Y-5590340D01*
X3068780Y-5565340D02*
X3043780Y-5590340D01*
X3051400Y-6528000D02*
X3076400Y-6553000D01*
X3076400Y-6528000D02*
X3051400Y-6553000D01*
X3064100Y-343100D02*
X3089100Y-368100D01*
X3089100Y-343100D02*
X3064100Y-368100D01*
X3064100Y-7671000D02*
X3089100Y-7696000D01*
X3089100Y-7671000D02*
X3064100Y-7696000D01*
X3102200Y-6921700D02*
X3127200Y-6946700D01*
X3127200Y-6921700D02*
X3102200Y-6946700D01*
X3140300Y-8217100D02*
X3165300Y-8242100D01*
X3165300Y-8217100D02*
X3140300Y-8242100D01*
X3165700Y-1689300D02*
X3190700Y-1714300D01*
X3190700Y-1689300D02*
X3165700Y-1714300D01*
X3191100Y-343100D02*
X3216100Y-368100D01*
X3216100Y-343100D02*
X3191100Y-368100D01*
X3243010Y-8979707D02*
X3268010Y-9004707D01*
X3268010Y-8979707D02*
X3243010Y-9004707D01*
X3280000Y-2222700D02*
X3305000Y-2247700D01*
X3305000Y-2222700D02*
X3280000Y-2247700D01*
X3328414Y-660054D02*
X3353414Y-685054D01*
X3353414Y-660054D02*
X3328414Y-685054D01*
X3368900Y-6274000D02*
X3393900Y-6299000D01*
X3393900Y-6274000D02*
X3368900Y-6299000D01*
X3368900Y-8179000D02*
X3393900Y-8204000D01*
X3393900Y-8179000D02*
X3368900Y-8204000D01*
X3368900Y-8306000D02*
X3393900Y-8331000D01*
X3393900Y-8306000D02*
X3368900Y-8331000D01*
X3419700Y-444700D02*
X3444700Y-469700D01*
X3444700Y-444700D02*
X3419700Y-469700D01*
X3445100Y-5854900D02*
X3470100Y-5879900D01*
X3470100Y-5854900D02*
X3445100Y-5879900D01*
X3475580Y-5565340D02*
X3500580Y-5590340D01*
X3500580Y-5565340D02*
X3475580Y-5590340D01*
X3495900Y-978100D02*
X3520900Y-1003100D01*
X3520900Y-978100D02*
X3495900Y-1003100D01*
X3495900Y-1194000D02*
X3520900Y-1219000D01*
X3520900Y-1194000D02*
X3495900Y-1219000D01*
X3572100Y-1295600D02*
X3597100Y-1320600D01*
X3597100Y-1295600D02*
X3572100Y-1320600D01*
X3581600Y-533600D02*
X3606600Y-558600D01*
X3606600Y-533600D02*
X3581600Y-558600D01*
X3581600Y-736800D02*
X3606600Y-761800D01*
X3606600Y-736800D02*
X3581600Y-761800D01*
X3581600Y-2438600D02*
X3606600Y-2463600D01*
X3606600Y-2438600D02*
X3581600Y-2463600D01*
X3581600Y-2641800D02*
X3606600Y-2666800D01*
X3606600Y-2641800D02*
X3581600Y-2666800D01*
X3581600Y-3391100D02*
X3606600Y-3416100D01*
X3606600Y-3391100D02*
X3581600Y-3416100D01*
X3581600Y-3594300D02*
X3606600Y-3619300D01*
X3606600Y-3594300D02*
X3581600Y-3619300D01*
X3581600Y-4343600D02*
X3606600Y-4368600D01*
X3606600Y-4343600D02*
X3581600Y-4368600D01*
X3581600Y-4546800D02*
X3606600Y-4571800D01*
X3606600Y-4546800D02*
X3581600Y-4571800D01*
X3581600Y-6248600D02*
X3606600Y-6273600D01*
X3606600Y-6248600D02*
X3581600Y-6273600D01*
X3581600Y-6451800D02*
X3606600Y-6476800D01*
X3606600Y-6451800D02*
X3581600Y-6476800D01*
X3581600Y-7201100D02*
X3606600Y-7226100D01*
X3606600Y-7201100D02*
X3581600Y-7226100D01*
X3581600Y-7404300D02*
X3606600Y-7429300D01*
X3606600Y-7404300D02*
X3581600Y-7429300D01*
X3635600Y-1575000D02*
X3660600Y-1600000D01*
X3660600Y-1575000D02*
X3635600Y-1600000D01*
X3978500Y-9144200D02*
X4003500Y-9169200D01*
X4003500Y-9144200D02*
X3978500Y-9169200D01*
X4216600Y-2146500D02*
X4241600Y-2171500D01*
X4241600Y-2146500D02*
X4216600Y-2171500D01*
X4534100Y-8153600D02*
X4559100Y-8178600D01*
X4559100Y-8153600D02*
X4534100Y-8178600D01*
X4534100Y-8356800D02*
X4559100Y-8381800D01*
X4559100Y-8356800D02*
X4534100Y-8381800D01*
X4610300Y-1714700D02*
X4635300Y-1739700D01*
X4635300Y-1714700D02*
X4610300Y-1739700D01*
X4610300Y-1829000D02*
X4635300Y-1854000D01*
X4635300Y-1829000D02*
X4610300Y-1854000D01*
X4638900Y-5600900D02*
X4663900Y-5625900D01*
X4663900Y-5600900D02*
X4638900Y-5625900D01*
X5118300Y-279600D02*
X5143300Y-304600D01*
X5143300Y-279600D02*
X5118300Y-304600D01*
X5118300Y-482800D02*
X5143300Y-507800D01*
X5143300Y-482800D02*
X5118300Y-507800D01*
X5118300Y-2184600D02*
X5143300Y-2209600D01*
X5143300Y-2184600D02*
X5118300Y-2209600D01*
X5118300Y-2387800D02*
X5143300Y-2412800D01*
X5143300Y-2387800D02*
X5118300Y-2412800D01*
X5118300Y-3137100D02*
X5143300Y-3162100D01*
X5143300Y-3137100D02*
X5118300Y-3162100D01*
X5118300Y-3340300D02*
X5143300Y-3365300D01*
X5143300Y-3340300D02*
X5118300Y-3365300D01*
X5118300Y-4089600D02*
X5143300Y-4114600D01*
X5143300Y-4089600D02*
X5118300Y-4114600D01*
X5118300Y-4292800D02*
X5143300Y-4317800D01*
X5143300Y-4292800D02*
X5118300Y-4317800D01*
X5118300Y-5994600D02*
X5143300Y-6019600D01*
X5143300Y-5994600D02*
X5118300Y-6019600D01*
X5118300Y-6197800D02*
X5143300Y-6222800D01*
X5143300Y-6197800D02*
X5118300Y-6222800D01*
X5118300Y-6947100D02*
X5143300Y-6972100D01*
X5143300Y-6947100D02*
X5118300Y-6972100D01*
X5118300Y-7150300D02*
X5143300Y-7175300D01*
X5143300Y-7150300D02*
X5118300Y-7175300D01*
X5185000Y-1917900D02*
X5210000Y-1942900D01*
X5210000Y-1917900D02*
X5185000Y-1942900D01*
X5341015Y-3479874D02*
X5366015Y-3504874D01*
X5366015Y-3479874D02*
X5341015Y-3504874D01*
X5486600Y-533600D02*
X5511600Y-558600D01*
X5511600Y-533600D02*
X5486600Y-558600D01*
X5486600Y-736800D02*
X5511600Y-761800D01*
X5511600Y-736800D02*
X5486600Y-761800D01*
X5486600Y-2438600D02*
X5511600Y-2463600D01*
X5511600Y-2438600D02*
X5486600Y-2463600D01*
X5486600Y-2641800D02*
X5511600Y-2666800D01*
X5511600Y-2641800D02*
X5486600Y-2666800D01*
X5486600Y-4343600D02*
X5511600Y-4368600D01*
X5511600Y-4343600D02*
X5486600Y-4368600D01*
X5486600Y-4546800D02*
X5511600Y-4571800D01*
X5511600Y-4546800D02*
X5486600Y-4571800D01*
X5486600Y-6248600D02*
X5511600Y-6273600D01*
X5511600Y-6248600D02*
X5486600Y-6273600D01*
X5486600Y-6451800D02*
X5511600Y-6476800D01*
X5511600Y-6451800D02*
X5486600Y-6476800D01*
X5613600Y-8915600D02*
X5638600Y-8940600D01*
X5638600Y-8915600D02*
X5613600Y-8940600D01*
X5613600Y-9118800D02*
X5638600Y-9143800D01*
X5638600Y-9118800D02*
X5613600Y-9143800D01*
X6070800Y-7899600D02*
X6095800Y-7924600D01*
X6095800Y-7899600D02*
X6070800Y-7924600D01*
X6070800Y-8102800D02*
X6095800Y-8127800D01*
X6095800Y-8102800D02*
X6070800Y-8127800D01*
X6629600Y-5715200D02*
X6654600Y-5740200D01*
X6654600Y-5715200D02*
X6629600Y-5740200D01*
X7023300Y-279600D02*
X7048300Y-304600D01*
X7048300Y-279600D02*
X7023300Y-304600D01*
X7023300Y-482800D02*
X7048300Y-507800D01*
X7048300Y-482800D02*
X7023300Y-507800D01*
X7023300Y-2184600D02*
X7048300Y-2209600D01*
X7048300Y-2184600D02*
X7023300Y-2209600D01*
X7023300Y-2387800D02*
X7048300Y-2412800D01*
X7048300Y-2387800D02*
X7023300Y-2412800D01*
X7023300Y-4089600D02*
X7048300Y-4114600D01*
X7048300Y-4089600D02*
X7023300Y-4114600D01*
X7023300Y-4292800D02*
X7048300Y-4317800D01*
X7048300Y-4292800D02*
X7023300Y-4317800D01*
X7023300Y-5994600D02*
X7048300Y-6019600D01*
X7048300Y-5994600D02*
X7023300Y-6019600D01*
X7023300Y-6197800D02*
X7048300Y-6222800D01*
X7048300Y-6197800D02*
X7023300Y-6222800D01*
X7150300Y-8661600D02*
X7175300Y-8686600D01*
X7175300Y-8661600D02*
X7150300Y-8686600D01*
X7150300Y-8864800D02*
X7175300Y-8889800D01*
X7175300Y-8864800D02*
X7150300Y-8889800D01*
X7391600Y-533600D02*
X7416600Y-558600D01*
X7416600Y-533600D02*
X7391600Y-558600D01*
X7391600Y-736800D02*
X7416600Y-761800D01*
X7416600Y-736800D02*
X7391600Y-761800D01*
X7391600Y-2438600D02*
X7416600Y-2463600D01*
X7416600Y-2438600D02*
X7391600Y-2463600D01*
X7391600Y-2641800D02*
X7416600Y-2666800D01*
X7416600Y-2641800D02*
X7391600Y-2666800D01*
X7391600Y-4343600D02*
X7416600Y-4368600D01*
X7416600Y-4343600D02*
X7391600Y-4368600D01*
X7391600Y-4546800D02*
X7416600Y-4571800D01*
X7416600Y-4546800D02*
X7391600Y-4571800D01*
X7391600Y-6248600D02*
X7416600Y-6273600D01*
X7416600Y-6248600D02*
X7391600Y-6273600D01*
X7391600Y-6451800D02*
X7416600Y-6476800D01*
X7416600Y-6451800D02*
X7391600Y-6476800D01*
X7518600Y-8915600D02*
X7543600Y-8940600D01*
X7543600Y-8915600D02*
X7518600Y-8940600D01*
X7518600Y-9118800D02*
X7543600Y-9143800D01*
X7543600Y-9118800D02*
X7518600Y-9143800D01*
X8229800Y-7772600D02*
X8254800Y-7797600D01*
X8254800Y-7772600D02*
X8229800Y-7797600D01*
X8344100Y-8153600D02*
X8369100Y-8178600D01*
X8369100Y-8153600D02*
X8344100Y-8178600D01*
X8344100Y-8280600D02*
X8369100Y-8305600D01*
X8369100Y-8280600D02*
X8344100Y-8305600D01*
X8534600Y-1930600D02*
X8559600Y-1955600D01*
X8559600Y-1930600D02*
X8534600Y-1955600D01*
X8928300Y-279600D02*
X8953300Y-304600D01*
X8953300Y-279600D02*
X8928300Y-304600D01*
X8928300Y-482800D02*
X8953300Y-507800D01*
X8953300Y-482800D02*
X8928300Y-507800D01*
X8928300Y-2184600D02*
X8953300Y-2209600D01*
X8953300Y-2184600D02*
X8928300Y-2209600D01*
X8928300Y-2387800D02*
X8953300Y-2412800D01*
X8953300Y-2387800D02*
X8928300Y-2412800D01*
X8928300Y-4089600D02*
X8953300Y-4114600D01*
X8953300Y-4089600D02*
X8928300Y-4114600D01*
X8928300Y-4292800D02*
X8953300Y-4317800D01*
X8953300Y-4292800D02*
X8928300Y-4317800D01*
X8928300Y-5994600D02*
X8953300Y-6019600D01*
X8953300Y-5994600D02*
X8928300Y-6019600D01*
X8928300Y-6197800D02*
X8953300Y-6222800D01*
X8953300Y-6197800D02*
X8928300Y-6222800D01*
X9055300Y-8737800D02*
X9080300Y-8762800D01*
X9080300Y-8737800D02*
X9055300Y-8762800D01*
X9055300Y-8864800D02*
X9080300Y-8889800D01*
X9080300Y-8864800D02*
X9055300Y-8889800D01*
X9296600Y-533600D02*
X9321600Y-558600D01*
X9321600Y-533600D02*
X9296600Y-558600D01*
X9296600Y-736800D02*
X9321600Y-761800D01*
X9321600Y-736800D02*
X9296600Y-761800D01*
X9296600Y-2438600D02*
X9321600Y-2463600D01*
X9321600Y-2438600D02*
X9296600Y-2463600D01*
X9296600Y-2641800D02*
X9321600Y-2666800D01*
X9321600Y-2641800D02*
X9296600Y-2666800D01*
X9296600Y-3391100D02*
X9321600Y-3416100D01*
X9321600Y-3391100D02*
X9296600Y-3416100D01*
X9296600Y-3594300D02*
X9321600Y-3619300D01*
X9321600Y-3594300D02*
X9296600Y-3619300D01*
X9296600Y-4343600D02*
X9321600Y-4368600D01*
X9321600Y-4343600D02*
X9296600Y-4368600D01*
X9296600Y-4546800D02*
X9321600Y-4571800D01*
X9321600Y-4546800D02*
X9296600Y-4571800D01*
X9296600Y-6248600D02*
X9321600Y-6273600D01*
X9321600Y-6248600D02*
X9296600Y-6273600D01*
X9296600Y-6451800D02*
X9321600Y-6476800D01*
X9321600Y-6451800D02*
X9296600Y-6476800D01*
X9296600Y-7201100D02*
X9321600Y-7226100D01*
X9321600Y-7201100D02*
X9296600Y-7226100D01*
X9296600Y-7404300D02*
X9321600Y-7429300D01*
X9321600Y-7404300D02*
X9296600Y-7429300D01*
X9703000Y-9144200D02*
X9728000Y-9169200D01*
X9728000Y-9144200D02*
X9703000Y-9169200D01*
X9880800Y-7899600D02*
X9905800Y-7924600D01*
X9905800Y-7899600D02*
X9880800Y-7924600D01*
X9880800Y-8102800D02*
X9905800Y-8127800D01*
X9905800Y-8102800D02*
X9880800Y-8127800D01*
X10045900Y-8166300D02*
X10070900Y-8191300D01*
X10070900Y-8166300D02*
X10045900Y-8191300D01*
X10452300Y-1829000D02*
X10477300Y-1854000D01*
X10477300Y-1829000D02*
X10452300Y-1854000D01*
X10833300Y-279600D02*
X10858300Y-304600D01*
X10858300Y-279600D02*
X10833300Y-304600D01*
X10833300Y-482800D02*
X10858300Y-507800D01*
X10858300Y-482800D02*
X10833300Y-507800D01*
X10833300Y-2184600D02*
X10858300Y-2209600D01*
X10858300Y-2184600D02*
X10833300Y-2209600D01*
X10833300Y-2387800D02*
X10858300Y-2412800D01*
X10858300Y-2387800D02*
X10833300Y-2412800D01*
X10833300Y-3137100D02*
X10858300Y-3162100D01*
X10858300Y-3137100D02*
X10833300Y-3162100D01*
X10833300Y-3340300D02*
X10858300Y-3365300D01*
X10858300Y-3340300D02*
X10833300Y-3365300D01*
X10833300Y-4089600D02*
X10858300Y-4114600D01*
X10858300Y-4089600D02*
X10833300Y-4114600D01*
X10833300Y-4292800D02*
X10858300Y-4317800D01*
X10858300Y-4292800D02*
X10833300Y-4317800D01*
X10833300Y-5994600D02*
X10858300Y-6019600D01*
X10858300Y-5994600D02*
X10833300Y-6019600D01*
X10833300Y-6197800D02*
X10858300Y-6222800D01*
X10858300Y-6197800D02*
X10833300Y-6222800D01*
X10833300Y-6947100D02*
X10858300Y-6972100D01*
X10858300Y-6947100D02*
X10833300Y-6972100D01*
X10833300Y-7150300D02*
X10858300Y-7175300D01*
X10858300Y-7150300D02*
X10833300Y-7175300D01*
D13*
X2623800Y326300D02*
G75*
G03*
X2623800Y326300I-30000J0D01*
G01*
D11*
X2563800Y356300D02*
X2563800Y296300D01*
X2563800Y296300D02*
G75*
G03*
X2623800Y296300I30000J0D01*
G01*
X2623800Y296300D02*
X2623800Y356300D01*
X2623800Y356300D02*
G75*
G03*
X2563800Y356300I-30000J0D01*
G01*
D13*
X2623800Y-91700D02*
G75*
G03*
X2623800Y-91700I-30000J0D01*
G01*
D11*
X2563800Y-36700D02*
X2563800Y-146700D01*
X2563800Y-146700D02*
G75*
G03*
X2623800Y-146700I30000J0D01*
G01*
X2623800Y-146700D02*
X2623800Y-36700D01*
X2623800Y-36700D02*
G75*
G03*
X2563800Y-36700I-30000J0D01*
G01*
D13*
X3487800Y326300D02*
G75*
G03*
X3487800Y326300I-30000J0D01*
G01*
D11*
X3427800Y356300D02*
X3427800Y296300D01*
X3427800Y296300D02*
G75*
G03*
X3487800Y296300I30000J0D01*
G01*
X3487800Y296300D02*
X3487800Y356300D01*
X3487800Y356300D02*
G75*
G03*
X3427800Y356300I-30000J0D01*
G01*
D13*
X3487800Y-91700D02*
G75*
G03*
X3487800Y-91700I-30000J0D01*
G01*
D11*
X3427800Y-36700D02*
X3427800Y-146700D01*
X3427800Y-146700D02*
G75*
G03*
X3487800Y-146700I30000J0D01*
G01*
X3487800Y-146700D02*
X3487800Y-36700D01*
X3487800Y-36700D02*
G75*
G03*
X3427800Y-36700I-30000J0D01*
G01*
D14*
X344400Y-6052000D02*
X344400Y-6152000D01*
X294400Y-6102000D02*
X394400Y-6102000D01*
X344400Y-6306000D02*
X344400Y-6406000D01*
X294400Y-6356000D02*
X394400Y-6356000D01*
X344400Y-6560000D02*
X344400Y-6660000D01*
X294400Y-6610000D02*
X394400Y-6610000D01*
X344400Y-6814000D02*
X344400Y-6914000D01*
X294400Y-6864000D02*
X394400Y-6864000D01*
X344400Y-7068000D02*
X344400Y-7168000D01*
X294400Y-7118000D02*
X394400Y-7118000D01*
X344400Y-7322000D02*
X344400Y-7422000D01*
X294400Y-7372000D02*
X394400Y-7372000D01*
X344400Y-7576000D02*
X344400Y-7676000D01*
X294400Y-7626000D02*
X394400Y-7626000D01*
X344400Y-7830000D02*
X344400Y-7930000D01*
X294400Y-7880000D02*
X394400Y-7880000D01*
X1348700Y-626250D02*
X1348700Y-726250D01*
X1298700Y-676250D02*
X1398700Y-676250D01*
X1348700Y-2076250D02*
X1348700Y-2176250D01*
X1298700Y-2126250D02*
X1398700Y-2126250D01*
X1598700Y-2076250D02*
X1598700Y-2176250D01*
X1548700Y-2126250D02*
X1648700Y-2126250D01*
X1848700Y-626250D02*
X1848700Y-726250D01*
X1798700Y-676250D02*
X1898700Y-676250D01*
X1848700Y-2076250D02*
X1848700Y-2176250D01*
X1798700Y-2126250D02*
X1898700Y-2126250D01*
X2454300Y-7825150D02*
X2454300Y-7925150D01*
X2404300Y-7875150D02*
X2504300Y-7875150D01*
X2454300Y-8079150D02*
X2454300Y-8179150D01*
X2404300Y-8129150D02*
X2504300Y-8129150D01*
X2708300Y-7825150D02*
X2708300Y-7925150D01*
X2658300Y-7875150D02*
X2758300Y-7875150D01*
X2708300Y-8079150D02*
X2708300Y-8179150D01*
X2658300Y-8129150D02*
X2758300Y-8129150D01*
X2962300Y-7825150D02*
X2962300Y-7925150D01*
X2912300Y-7875150D02*
X3012300Y-7875150D01*
X2962300Y-8079150D02*
X2962300Y-8179150D01*
X2912300Y-8129150D02*
X3012300Y-8129150D01*
D15*
X1323767Y-3609567D02*
X1323767Y-3397433D01*
X1111633Y-3397433D01*
X1111633Y-3609567D01*
X1323767Y-3609567D01*
X1958767Y-3355567D02*
X1958767Y-3143433D01*
X1746633Y-3143433D01*
X1746633Y-3355567D01*
X1958767Y-3355567D01*
X4152517Y-752067D02*
X4152517Y-539933D01*
X3940383Y-539933D01*
X3940383Y-752067D01*
X4152517Y-752067D01*
X4152517Y-2657067D02*
X4152517Y-2444933D01*
X3940383Y-2444933D01*
X3940383Y-2657067D01*
X4152517Y-2657067D01*
X4152517Y-3609567D02*
X4152517Y-3397433D01*
X3940383Y-3397433D01*
X3940383Y-3609567D01*
X4152517Y-3609567D01*
X4152517Y-4562067D02*
X4152517Y-4349933D01*
X3940383Y-4349933D01*
X3940383Y-4562067D01*
X4152517Y-4562067D01*
X4152517Y-6467067D02*
X4152517Y-6254933D01*
X3940383Y-6254933D01*
X3940383Y-6467067D01*
X4152517Y-6467067D01*
X4152517Y-7419567D02*
X4152517Y-7207433D01*
X3940383Y-7207433D01*
X3940383Y-7419567D01*
X4152517Y-7419567D01*
X4787517Y-498067D02*
X4787517Y-285933D01*
X4575383Y-285933D01*
X4575383Y-498067D01*
X4787517Y-498067D01*
X4787517Y-2403067D02*
X4787517Y-2190933D01*
X4575383Y-2190933D01*
X4575383Y-2403067D01*
X4787517Y-2403067D01*
X4787517Y-3355567D02*
X4787517Y-3143433D01*
X4575383Y-3143433D01*
X4575383Y-3355567D01*
X4787517Y-3355567D01*
X4787517Y-4308067D02*
X4787517Y-4095933D01*
X4575383Y-4095933D01*
X4575383Y-4308067D01*
X4787517Y-4308067D01*
X4787517Y-6213067D02*
X4787517Y-6000933D01*
X4575383Y-6000933D01*
X4575383Y-6213067D01*
X4787517Y-6213067D01*
X4787517Y-7165567D02*
X4787517Y-6953433D01*
X4575383Y-6953433D01*
X4575383Y-7165567D01*
X4787517Y-7165567D01*
X5105017Y-8372067D02*
X5105017Y-8159933D01*
X4892883Y-8159933D01*
X4892883Y-8372067D01*
X5105017Y-8372067D01*
X5740017Y-8118067D02*
X5740017Y-7905933D01*
X5527883Y-7905933D01*
X5527883Y-8118067D01*
X5740017Y-8118067D01*
X6057517Y-752067D02*
X6057517Y-539933D01*
X5845383Y-539933D01*
X5845383Y-752067D01*
X6057517Y-752067D01*
X6057517Y-2657067D02*
X6057517Y-2444933D01*
X5845383Y-2444933D01*
X5845383Y-2657067D01*
X6057517Y-2657067D01*
X6057517Y-4562067D02*
X6057517Y-4349933D01*
X5845383Y-4349933D01*
X5845383Y-4562067D01*
X6057517Y-4562067D01*
X6057517Y-6467067D02*
X6057517Y-6254933D01*
X5845383Y-6254933D01*
X5845383Y-6467067D01*
X6057517Y-6467067D01*
X6184517Y-9134067D02*
X6184517Y-8921933D01*
X5972383Y-8921933D01*
X5972383Y-9134067D01*
X6184517Y-9134067D01*
X6692517Y-498067D02*
X6692517Y-285933D01*
X6480383Y-285933D01*
X6480383Y-498067D01*
X6692517Y-498067D01*
X6692517Y-2403067D02*
X6692517Y-2190933D01*
X6480383Y-2190933D01*
X6480383Y-2403067D01*
X6692517Y-2403067D01*
X6692517Y-4308067D02*
X6692517Y-4095933D01*
X6480383Y-4095933D01*
X6480383Y-4308067D01*
X6692517Y-4308067D01*
X6692517Y-6213067D02*
X6692517Y-6000933D01*
X6480383Y-6000933D01*
X6480383Y-6213067D01*
X6692517Y-6213067D01*
X6819517Y-8880067D02*
X6819517Y-8667933D01*
X6607383Y-8667933D01*
X6607383Y-8880067D01*
X6819517Y-8880067D01*
X7962517Y-752067D02*
X7962517Y-539933D01*
X7750383Y-539933D01*
X7750383Y-752067D01*
X7962517Y-752067D01*
X7962517Y-2657067D02*
X7962517Y-2444933D01*
X7750383Y-2444933D01*
X7750383Y-2657067D01*
X7962517Y-2657067D01*
X7962517Y-4562067D02*
X7962517Y-4349933D01*
X7750383Y-4349933D01*
X7750383Y-4562067D01*
X7962517Y-4562067D01*
X7962517Y-6467067D02*
X7962517Y-6254933D01*
X7750383Y-6254933D01*
X7750383Y-6467067D01*
X7962517Y-6467067D01*
X8089517Y-9134067D02*
X8089517Y-8921933D01*
X7877383Y-8921933D01*
X7877383Y-9134067D01*
X8089517Y-9134067D01*
X8597517Y-498067D02*
X8597517Y-285933D01*
X8385383Y-285933D01*
X8385383Y-498067D01*
X8597517Y-498067D01*
X8597517Y-2403067D02*
X8597517Y-2190933D01*
X8385383Y-2190933D01*
X8385383Y-2403067D01*
X8597517Y-2403067D01*
X8597517Y-4308067D02*
X8597517Y-4095933D01*
X8385383Y-4095933D01*
X8385383Y-4308067D01*
X8597517Y-4308067D01*
X8597517Y-6213067D02*
X8597517Y-6000933D01*
X8385383Y-6000933D01*
X8385383Y-6213067D01*
X8597517Y-6213067D01*
X8724517Y-8880067D02*
X8724517Y-8667933D01*
X8512383Y-8667933D01*
X8512383Y-8880067D01*
X8724517Y-8880067D01*
X8915017Y-8372067D02*
X8915017Y-8159933D01*
X8702883Y-8159933D01*
X8702883Y-8372067D01*
X8915017Y-8372067D01*
X9550017Y-8118067D02*
X9550017Y-7905933D01*
X9337883Y-7905933D01*
X9337883Y-8118067D01*
X9550017Y-8118067D01*
X9867517Y-752067D02*
X9867517Y-539933D01*
X9655383Y-539933D01*
X9655383Y-752067D01*
X9867517Y-752067D01*
X9867517Y-2657067D02*
X9867517Y-2444933D01*
X9655383Y-2444933D01*
X9655383Y-2657067D01*
X9867517Y-2657067D01*
X9867517Y-3609567D02*
X9867517Y-3397433D01*
X9655383Y-3397433D01*
X9655383Y-3609567D01*
X9867517Y-3609567D01*
X9867517Y-4562067D02*
X9867517Y-4349933D01*
X9655383Y-4349933D01*
X9655383Y-4562067D01*
X9867517Y-4562067D01*
X9867517Y-6467067D02*
X9867517Y-6254933D01*
X9655383Y-6254933D01*
X9655383Y-6467067D01*
X9867517Y-6467067D01*
X9867517Y-7419567D02*
X9867517Y-7207433D01*
X9655383Y-7207433D01*
X9655383Y-7419567D01*
X9867517Y-7419567D01*
X10502517Y-498067D02*
X10502517Y-285933D01*
X10290383Y-285933D01*
X10290383Y-498067D01*
X10502517Y-498067D01*
X10502517Y-2403067D02*
X10502517Y-2190933D01*
X10290383Y-2190933D01*
X10290383Y-2403067D01*
X10502517Y-2403067D01*
X10502517Y-3355567D02*
X10502517Y-3143433D01*
X10290383Y-3143433D01*
X10290383Y-3355567D01*
X10502517Y-3355567D01*
X10502517Y-4308067D02*
X10502517Y-4095933D01*
X10290383Y-4095933D01*
X10290383Y-4308067D01*
X10502517Y-4308067D01*
X10502517Y-6213067D02*
X10502517Y-6000933D01*
X10290383Y-6000933D01*
X10290383Y-6213067D01*
X10502517Y-6213067D01*
X10502517Y-7165567D02*
X10502517Y-6953433D01*
X10290383Y-6953433D01*
X10290383Y-7165567D01*
X10502517Y-7165567D01*
D16*
X2736800Y-71200D02*
X2769300Y-38700D01*
X2736800Y-6200D01*
X2704300Y-38700D01*
X2736800Y-71200D01*
X3314800Y-71200D02*
X3347300Y-38700D01*
X3314800Y-6200D01*
X3282300Y-38700D01*
X3314800Y-71200D01*
D17*
X963700Y-1301250D02*
X1113700Y-1451250D01*
X1113700Y-1301250D02*
X963700Y-1451250D01*
X1113700Y-1376250D02*
G75*
G03*
X1113700Y-1376250I-75000J0D01*
G01*
D11*
X1113700Y-1441250D02*
X1113700Y-1311250D01*
X1113700Y-1311250D02*
G75*
G03*
X963700Y-1311250I-75000J0D01*
G01*
X963700Y-1311250D02*
X963700Y-1441250D01*
X963700Y-1441250D02*
G75*
G03*
X1113700Y-1441250I75000J0D01*
G01*
D17*
X2083700Y-1301250D02*
X2233700Y-1451250D01*
X2233700Y-1301250D02*
X2083700Y-1451250D01*
X2233700Y-1376250D02*
G75*
G03*
X2233700Y-1376250I-75000J0D01*
G01*
D11*
X2233700Y-1441250D02*
X2233700Y-1311250D01*
X2233700Y-1311250D02*
G75*
G03*
X2083700Y-1311250I-75000J0D01*
G01*
X2083700Y-1311250D02*
X2083700Y-1441250D01*
X2083700Y-1441250D02*
G75*
G03*
X2233700Y-1441250I75000J0D01*
G01*
D18*
X1003200Y-3670000D02*
X1178200Y-3845000D01*
X1178200Y-3670000D02*
X1003200Y-3845000D01*
X1090700Y-3670000D02*
X1090700Y-3845000D01*
X1003200Y-3757500D02*
X1178200Y-3757500D01*
X2019200Y-3670000D02*
X2194200Y-3845000D01*
X2194200Y-3670000D02*
X2019200Y-3845000D01*
X2106700Y-3670000D02*
X2106700Y-3845000D01*
X2019200Y-3757500D02*
X2194200Y-3757500D01*
X3831950Y-812500D02*
X4006950Y-987500D01*
X4006950Y-812500D02*
X3831950Y-987500D01*
X3919450Y-812500D02*
X3919450Y-987500D01*
X3831950Y-900000D02*
X4006950Y-900000D01*
X3831950Y-2717500D02*
X4006950Y-2892500D01*
X4006950Y-2717500D02*
X3831950Y-2892500D01*
X3919450Y-2717500D02*
X3919450Y-2892500D01*
X3831950Y-2805000D02*
X4006950Y-2805000D01*
X3831950Y-3670000D02*
X4006950Y-3845000D01*
X4006950Y-3670000D02*
X3831950Y-3845000D01*
X3919450Y-3670000D02*
X3919450Y-3845000D01*
X3831950Y-3757500D02*
X4006950Y-3757500D01*
X3831950Y-4622500D02*
X4006950Y-4797500D01*
X4006950Y-4622500D02*
X3831950Y-4797500D01*
X3919450Y-4622500D02*
X3919450Y-4797500D01*
X3831950Y-4710000D02*
X4006950Y-4710000D01*
X3831950Y-6527500D02*
X4006950Y-6702500D01*
X4006950Y-6527500D02*
X3831950Y-6702500D01*
X3919450Y-6527500D02*
X3919450Y-6702500D01*
X3831950Y-6615000D02*
X4006950Y-6615000D01*
X3831950Y-7480000D02*
X4006950Y-7655000D01*
X4006950Y-7480000D02*
X3831950Y-7655000D01*
X3919450Y-7480000D02*
X3919450Y-7655000D01*
X3831950Y-7567500D02*
X4006950Y-7567500D01*
X4784450Y-8432500D02*
X4959450Y-8607500D01*
X4959450Y-8432500D02*
X4784450Y-8607500D01*
X4871950Y-8432500D02*
X4871950Y-8607500D01*
X4784450Y-8520000D02*
X4959450Y-8520000D01*
X4847950Y-812500D02*
X5022950Y-987500D01*
X5022950Y-812500D02*
X4847950Y-987500D01*
X4935450Y-812500D02*
X4935450Y-987500D01*
X4847950Y-900000D02*
X5022950Y-900000D01*
X4847950Y-2717500D02*
X5022950Y-2892500D01*
X5022950Y-2717500D02*
X4847950Y-2892500D01*
X4935450Y-2717500D02*
X4935450Y-2892500D01*
X4847950Y-2805000D02*
X5022950Y-2805000D01*
X4847950Y-3670000D02*
X5022950Y-3845000D01*
X5022950Y-3670000D02*
X4847950Y-3845000D01*
X4935450Y-3670000D02*
X4935450Y-3845000D01*
X4847950Y-3757500D02*
X5022950Y-3757500D01*
X4847950Y-4622500D02*
X5022950Y-4797500D01*
X5022950Y-4622500D02*
X4847950Y-4797500D01*
X4935450Y-4622500D02*
X4935450Y-4797500D01*
X4847950Y-4710000D02*
X5022950Y-4710000D01*
X4847950Y-6527500D02*
X5022950Y-6702500D01*
X5022950Y-6527500D02*
X4847950Y-6702500D01*
X4935450Y-6527500D02*
X4935450Y-6702500D01*
X4847950Y-6615000D02*
X5022950Y-6615000D01*
X4847950Y-7480000D02*
X5022950Y-7655000D01*
X5022950Y-7480000D02*
X4847950Y-7655000D01*
X4935450Y-7480000D02*
X4935450Y-7655000D01*
X4847950Y-7567500D02*
X5022950Y-7567500D01*
X5736950Y-812500D02*
X5911950Y-987500D01*
X5911950Y-812500D02*
X5736950Y-987500D01*
X5824450Y-812500D02*
X5824450Y-987500D01*
X5736950Y-900000D02*
X5911950Y-900000D01*
X5736950Y-2717500D02*
X5911950Y-2892500D01*
X5911950Y-2717500D02*
X5736950Y-2892500D01*
X5824450Y-2717500D02*
X5824450Y-2892500D01*
X5736950Y-2805000D02*
X5911950Y-2805000D01*
X5736950Y-4622500D02*
X5911950Y-4797500D01*
X5911950Y-4622500D02*
X5736950Y-4797500D01*
X5824450Y-4622500D02*
X5824450Y-4797500D01*
X5736950Y-4710000D02*
X5911950Y-4710000D01*
X5736950Y-6527500D02*
X5911950Y-6702500D01*
X5911950Y-6527500D02*
X5736950Y-6702500D01*
X5824450Y-6527500D02*
X5824450Y-6702500D01*
X5736950Y-6615000D02*
X5911950Y-6615000D01*
X5736950Y-8432500D02*
X5911950Y-8607500D01*
X5911950Y-8432500D02*
X5736950Y-8607500D01*
X5824450Y-8432500D02*
X5824450Y-8607500D01*
X5736950Y-8520000D02*
X5911950Y-8520000D01*
X5800450Y-8432500D02*
X5975450Y-8607500D01*
X5975450Y-8432500D02*
X5800450Y-8607500D01*
X5887950Y-8432500D02*
X5887950Y-8607500D01*
X5800450Y-8520000D02*
X5975450Y-8520000D01*
X6752950Y-812500D02*
X6927950Y-987500D01*
X6927950Y-812500D02*
X6752950Y-987500D01*
X6840450Y-812500D02*
X6840450Y-987500D01*
X6752950Y-900000D02*
X6927950Y-900000D01*
X6752950Y-2717500D02*
X6927950Y-2892500D01*
X6927950Y-2717500D02*
X6752950Y-2892500D01*
X6840450Y-2717500D02*
X6840450Y-2892500D01*
X6752950Y-2805000D02*
X6927950Y-2805000D01*
X6752950Y-4622500D02*
X6927950Y-4797500D01*
X6927950Y-4622500D02*
X6752950Y-4797500D01*
X6840450Y-4622500D02*
X6840450Y-4797500D01*
X6752950Y-4710000D02*
X6927950Y-4710000D01*
X6752950Y-6527500D02*
X6927950Y-6702500D01*
X6927950Y-6527500D02*
X6752950Y-6702500D01*
X6840450Y-6527500D02*
X6840450Y-6702500D01*
X6752950Y-6615000D02*
X6927950Y-6615000D01*
X6752950Y-8432500D02*
X6927950Y-8607500D01*
X6927950Y-8432500D02*
X6752950Y-8607500D01*
X6840450Y-8432500D02*
X6840450Y-8607500D01*
X6752950Y-8520000D02*
X6927950Y-8520000D01*
X7641950Y-812500D02*
X7816950Y-987500D01*
X7816950Y-812500D02*
X7641950Y-987500D01*
X7729450Y-812500D02*
X7729450Y-987500D01*
X7641950Y-900000D02*
X7816950Y-900000D01*
X7641950Y-2717500D02*
X7816950Y-2892500D01*
X7816950Y-2717500D02*
X7641950Y-2892500D01*
X7729450Y-2717500D02*
X7729450Y-2892500D01*
X7641950Y-2805000D02*
X7816950Y-2805000D01*
X7641950Y-4622500D02*
X7816950Y-4797500D01*
X7816950Y-4622500D02*
X7641950Y-4797500D01*
X7729450Y-4622500D02*
X7729450Y-4797500D01*
X7641950Y-4710000D02*
X7816950Y-4710000D01*
X7641950Y-6527500D02*
X7816950Y-6702500D01*
X7816950Y-6527500D02*
X7641950Y-6702500D01*
X7729450Y-6527500D02*
X7729450Y-6702500D01*
X7641950Y-6615000D02*
X7816950Y-6615000D01*
X7641950Y-8432500D02*
X7816950Y-8607500D01*
X7816950Y-8432500D02*
X7641950Y-8607500D01*
X7729450Y-8432500D02*
X7729450Y-8607500D01*
X7641950Y-8520000D02*
X7816950Y-8520000D01*
X8594450Y-8432500D02*
X8769450Y-8607500D01*
X8769450Y-8432500D02*
X8594450Y-8607500D01*
X8681950Y-8432500D02*
X8681950Y-8607500D01*
X8594450Y-8520000D02*
X8769450Y-8520000D01*
X8657950Y-812500D02*
X8832950Y-987500D01*
X8832950Y-812500D02*
X8657950Y-987500D01*
X8745450Y-812500D02*
X8745450Y-987500D01*
X8657950Y-900000D02*
X8832950Y-900000D01*
X8657950Y-2717500D02*
X8832950Y-2892500D01*
X8832950Y-2717500D02*
X8657950Y-2892500D01*
X8745450Y-2717500D02*
X8745450Y-2892500D01*
X8657950Y-2805000D02*
X8832950Y-2805000D01*
X8657950Y-4622500D02*
X8832950Y-4797500D01*
X8832950Y-4622500D02*
X8657950Y-4797500D01*
X8745450Y-4622500D02*
X8745450Y-4797500D01*
X8657950Y-4710000D02*
X8832950Y-4710000D01*
X8657950Y-6527500D02*
X8832950Y-6702500D01*
X8832950Y-6527500D02*
X8657950Y-6702500D01*
X8745450Y-6527500D02*
X8745450Y-6702500D01*
X8657950Y-6615000D02*
X8832950Y-6615000D01*
X8657950Y-8432500D02*
X8832950Y-8607500D01*
X8832950Y-8432500D02*
X8657950Y-8607500D01*
X8745450Y-8432500D02*
X8745450Y-8607500D01*
X8657950Y-8520000D02*
X8832950Y-8520000D01*
X9546950Y-812500D02*
X9721950Y-987500D01*
X9721950Y-812500D02*
X9546950Y-987500D01*
X9634450Y-812500D02*
X9634450Y-987500D01*
X9546950Y-900000D02*
X9721950Y-900000D01*
X9546950Y-2717500D02*
X9721950Y-2892500D01*
X9721950Y-2717500D02*
X9546950Y-2892500D01*
X9634450Y-2717500D02*
X9634450Y-2892500D01*
X9546950Y-2805000D02*
X9721950Y-2805000D01*
X9546950Y-3670000D02*
X9721950Y-3845000D01*
X9721950Y-3670000D02*
X9546950Y-3845000D01*
X9634450Y-3670000D02*
X9634450Y-3845000D01*
X9546950Y-3757500D02*
X9721950Y-3757500D01*
X9546950Y-4622500D02*
X9721950Y-4797500D01*
X9721950Y-4622500D02*
X9546950Y-4797500D01*
X9634450Y-4622500D02*
X9634450Y-4797500D01*
X9546950Y-4710000D02*
X9721950Y-4710000D01*
X9546950Y-6527500D02*
X9721950Y-6702500D01*
X9721950Y-6527500D02*
X9546950Y-6702500D01*
X9634450Y-6527500D02*
X9634450Y-6702500D01*
X9546950Y-6615000D02*
X9721950Y-6615000D01*
X9546950Y-7480000D02*
X9721950Y-7655000D01*
X9721950Y-7480000D02*
X9546950Y-7655000D01*
X9634450Y-7480000D02*
X9634450Y-7655000D01*
X9546950Y-7567500D02*
X9721950Y-7567500D01*
X9610450Y-8432500D02*
X9785450Y-8607500D01*
X9785450Y-8432500D02*
X9610450Y-8607500D01*
X9697950Y-8432500D02*
X9697950Y-8607500D01*
X9610450Y-8520000D02*
X9785450Y-8520000D01*
X10562950Y-812500D02*
X10737950Y-987500D01*
X10737950Y-812500D02*
X10562950Y-987500D01*
X10650450Y-812500D02*
X10650450Y-987500D01*
X10562950Y-900000D02*
X10737950Y-900000D01*
X10562950Y-2717500D02*
X10737950Y-2892500D01*
X10737950Y-2717500D02*
X10562950Y-2892500D01*
X10650450Y-2717500D02*
X10650450Y-2892500D01*
X10562950Y-2805000D02*
X10737950Y-2805000D01*
X10562950Y-3670000D02*
X10737950Y-3845000D01*
X10737950Y-3670000D02*
X10562950Y-3845000D01*
X10650450Y-3670000D02*
X10650450Y-3845000D01*
X10562950Y-3757500D02*
X10737950Y-3757500D01*
X10562950Y-4622500D02*
X10737950Y-4797500D01*
X10737950Y-4622500D02*
X10562950Y-4797500D01*
X10650450Y-4622500D02*
X10650450Y-4797500D01*
X10562950Y-4710000D02*
X10737950Y-4710000D01*
X10562950Y-6527500D02*
X10737950Y-6702500D01*
X10737950Y-6527500D02*
X10562950Y-6702500D01*
X10650450Y-6527500D02*
X10650450Y-6702500D01*
X10562950Y-6615000D02*
X10737950Y-6615000D01*
X10562950Y-7480000D02*
X10737950Y-7655000D01*
X10737950Y-7480000D02*
X10562950Y-7655000D01*
X10650450Y-7480000D02*
X10650450Y-7655000D01*
X10562950Y-7567500D02*
X10737950Y-7567500D01*
D19*
X1399310Y-3558110D02*
X1798090Y-3956890D01*
X1798090Y-3558110D02*
X1399310Y-3956890D01*
X1739691Y-3898491D02*
X1739691Y-3616509D01*
X1457709Y-3616509D01*
X1457709Y-3898491D01*
X1739691Y-3898491D01*
X4228060Y-700610D02*
X4626840Y-1099390D01*
X4626840Y-700610D02*
X4228060Y-1099390D01*
X4568441Y-1040991D02*
X4568441Y-759009D01*
X4286459Y-759009D01*
X4286459Y-1040991D01*
X4568441Y-1040991D01*
X4228060Y-2605610D02*
X4626840Y-3004390D01*
X4626840Y-2605610D02*
X4228060Y-3004390D01*
X4568441Y-2945991D02*
X4568441Y-2664009D01*
X4286459Y-2664009D01*
X4286459Y-2945991D01*
X4568441Y-2945991D01*
X4228060Y-3558110D02*
X4626840Y-3956890D01*
X4626840Y-3558110D02*
X4228060Y-3956890D01*
X4568441Y-3898491D02*
X4568441Y-3616509D01*
X4286459Y-3616509D01*
X4286459Y-3898491D01*
X4568441Y-3898491D01*
X4228060Y-4510610D02*
X4626840Y-4909390D01*
X4626840Y-4510610D02*
X4228060Y-4909390D01*
X4568441Y-4850991D02*
X4568441Y-4569009D01*
X4286459Y-4569009D01*
X4286459Y-4850991D01*
X4568441Y-4850991D01*
X4228060Y-6415610D02*
X4626840Y-6814390D01*
X4626840Y-6415610D02*
X4228060Y-6814390D01*
X4568441Y-6755991D02*
X4568441Y-6474009D01*
X4286459Y-6474009D01*
X4286459Y-6755991D01*
X4568441Y-6755991D01*
X4228060Y-7368110D02*
X4626840Y-7766890D01*
X4626840Y-7368110D02*
X4228060Y-7766890D01*
X4568441Y-7708491D02*
X4568441Y-7426509D01*
X4286459Y-7426509D01*
X4286459Y-7708491D01*
X4568441Y-7708491D01*
X5180560Y-8320610D02*
X5579340Y-8719390D01*
X5579340Y-8320610D02*
X5180560Y-8719390D01*
X5520941Y-8660991D02*
X5520941Y-8379009D01*
X5238959Y-8379009D01*
X5238959Y-8660991D01*
X5520941Y-8660991D01*
X6133060Y-700610D02*
X6531840Y-1099390D01*
X6531840Y-700610D02*
X6133060Y-1099390D01*
X6473441Y-1040991D02*
X6473441Y-759009D01*
X6191459Y-759009D01*
X6191459Y-1040991D01*
X6473441Y-1040991D01*
X6133060Y-2605610D02*
X6531840Y-3004390D01*
X6531840Y-2605610D02*
X6133060Y-3004390D01*
X6473441Y-2945991D02*
X6473441Y-2664009D01*
X6191459Y-2664009D01*
X6191459Y-2945991D01*
X6473441Y-2945991D01*
X6133060Y-4510610D02*
X6531840Y-4909390D01*
X6531840Y-4510610D02*
X6133060Y-4909390D01*
X6473441Y-4850991D02*
X6473441Y-4569009D01*
X6191459Y-4569009D01*
X6191459Y-4850991D01*
X6473441Y-4850991D01*
X6133060Y-6415610D02*
X6531840Y-6814390D01*
X6531840Y-6415610D02*
X6133060Y-6814390D01*
X6473441Y-6755991D02*
X6473441Y-6474009D01*
X6191459Y-6474009D01*
X6191459Y-6755991D01*
X6473441Y-6755991D01*
X6133060Y-8320610D02*
X6531840Y-8719390D01*
X6531840Y-8320610D02*
X6133060Y-8719390D01*
X6473441Y-8660991D02*
X6473441Y-8379009D01*
X6191459Y-8379009D01*
X6191459Y-8660991D01*
X6473441Y-8660991D01*
X8038060Y-700610D02*
X8436840Y-1099390D01*
X8436840Y-700610D02*
X8038060Y-1099390D01*
X8378441Y-1040991D02*
X8378441Y-759009D01*
X8096459Y-759009D01*
X8096459Y-1040991D01*
X8378441Y-1040991D01*
X8038060Y-2605610D02*
X8436840Y-3004390D01*
X8436840Y-2605610D02*
X8038060Y-3004390D01*
X8378441Y-2945991D02*
X8378441Y-2664009D01*
X8096459Y-2664009D01*
X8096459Y-2945991D01*
X8378441Y-2945991D01*
X8038060Y-4510610D02*
X8436840Y-4909390D01*
X8436840Y-4510610D02*
X8038060Y-4909390D01*
X8378441Y-4850991D02*
X8378441Y-4569009D01*
X8096459Y-4569009D01*
X8096459Y-4850991D01*
X8378441Y-4850991D01*
X8038060Y-6415610D02*
X8436840Y-6814390D01*
X8436840Y-6415610D02*
X8038060Y-6814390D01*
X8378441Y-6755991D02*
X8378441Y-6474009D01*
X8096459Y-6474009D01*
X8096459Y-6755991D01*
X8378441Y-6755991D01*
X8038060Y-8320610D02*
X8436840Y-8719390D01*
X8436840Y-8320610D02*
X8038060Y-8719390D01*
X8378441Y-8660991D02*
X8378441Y-8379009D01*
X8096459Y-8379009D01*
X8096459Y-8660991D01*
X8378441Y-8660991D01*
X8990560Y-8320610D02*
X9389340Y-8719390D01*
X9389340Y-8320610D02*
X8990560Y-8719390D01*
X9330941Y-8660991D02*
X9330941Y-8379009D01*
X9048959Y-8379009D01*
X9048959Y-8660991D01*
X9330941Y-8660991D01*
X9943060Y-700610D02*
X10341840Y-1099390D01*
X10341840Y-700610D02*
X9943060Y-1099390D01*
X10283441Y-1040991D02*
X10283441Y-759009D01*
X10001459Y-759009D01*
X10001459Y-1040991D01*
X10283441Y-1040991D01*
X9943060Y-2605610D02*
X10341840Y-3004390D01*
X10341840Y-2605610D02*
X9943060Y-3004390D01*
X10283441Y-2945991D02*
X10283441Y-2664009D01*
X10001459Y-2664009D01*
X10001459Y-2945991D01*
X10283441Y-2945991D01*
X9943060Y-3558110D02*
X10341840Y-3956890D01*
X10341840Y-3558110D02*
X9943060Y-3956890D01*
X10283441Y-3898491D02*
X10283441Y-3616509D01*
X10001459Y-3616509D01*
X10001459Y-3898491D01*
X10283441Y-3898491D01*
X9943060Y-4510610D02*
X10341840Y-4909390D01*
X10341840Y-4510610D02*
X9943060Y-4909390D01*
X10283441Y-4850991D02*
X10283441Y-4569009D01*
X10001459Y-4569009D01*
X10001459Y-4850991D01*
X10283441Y-4850991D01*
X9943060Y-6415610D02*
X10341840Y-6814390D01*
X10341840Y-6415610D02*
X9943060Y-6814390D01*
X10283441Y-6755991D02*
X10283441Y-6474009D01*
X10001459Y-6474009D01*
X10001459Y-6755991D01*
X10283441Y-6755991D01*
X9943060Y-7368110D02*
X10341840Y-7766890D01*
X10341840Y-7368110D02*
X9943060Y-7766890D01*
X10283441Y-7708491D02*
X10283441Y-7426509D01*
X10001459Y-7426509D01*
X10001459Y-7708491D01*
X10283441Y-7708491D01*
D11*
X242619Y-9718476D02*
X242619Y-9518476D01*
X242619Y-9518476D02*
X290238Y-9518476D01*
X290238Y-9518476D02*
X318810Y-9528000D01*
X318810Y-9528000D02*
X337857Y-9547048D01*
X337857Y-9547048D02*
X347381Y-9566095D01*
X347381Y-9566095D02*
X356905Y-9604190D01*
X356905Y-9604190D02*
X356905Y-9632762D01*
X356905Y-9632762D02*
X347381Y-9670857D01*
X347381Y-9670857D02*
X337857Y-9689905D01*
X337857Y-9689905D02*
X318810Y-9708952D01*
X318810Y-9708952D02*
X290238Y-9718476D01*
X290238Y-9718476D02*
X242619Y-9718476D01*
X442619Y-9718476D02*
X442619Y-9585143D01*
X442619Y-9623238D02*
X452143Y-9604190D01*
X452143Y-9604190D02*
X461667Y-9594667D01*
X461667Y-9594667D02*
X480714Y-9585143D01*
X480714Y-9585143D02*
X499762Y-9585143D01*
X566429Y-9718476D02*
X566429Y-9585143D01*
X566429Y-9518476D02*
X556905Y-9528000D01*
X556905Y-9528000D02*
X566429Y-9537524D01*
X566429Y-9537524D02*
X575952Y-9528000D01*
X575952Y-9528000D02*
X566429Y-9518476D01*
X566429Y-9518476D02*
X566429Y-9537524D01*
X690238Y-9718476D02*
X671190Y-9708952D01*
X671190Y-9708952D02*
X661667Y-9689905D01*
X661667Y-9689905D02*
X661667Y-9518476D01*
X795000Y-9718476D02*
X775952Y-9708952D01*
X775952Y-9708952D02*
X766428Y-9689905D01*
X766428Y-9689905D02*
X766428Y-9518476D01*
X991190Y-9718476D02*
X991190Y-9518476D01*
X991190Y-9518476D02*
X1057857Y-9661333D01*
X1057857Y-9661333D02*
X1124524Y-9518476D01*
X1124524Y-9518476D02*
X1124524Y-9718476D01*
X1305476Y-9718476D02*
X1305476Y-9613714D01*
X1305476Y-9613714D02*
X1295952Y-9594667D01*
X1295952Y-9594667D02*
X1276905Y-9585143D01*
X1276905Y-9585143D02*
X1238809Y-9585143D01*
X1238809Y-9585143D02*
X1219762Y-9594667D01*
X1305476Y-9708952D02*
X1286429Y-9718476D01*
X1286429Y-9718476D02*
X1238809Y-9718476D01*
X1238809Y-9718476D02*
X1219762Y-9708952D01*
X1219762Y-9708952D02*
X1210238Y-9689905D01*
X1210238Y-9689905D02*
X1210238Y-9670857D01*
X1210238Y-9670857D02*
X1219762Y-9651810D01*
X1219762Y-9651810D02*
X1238809Y-9642286D01*
X1238809Y-9642286D02*
X1286429Y-9642286D01*
X1286429Y-9642286D02*
X1305476Y-9632762D01*
X1400714Y-9585143D02*
X1400714Y-9785143D01*
X1400714Y-9594667D02*
X1419762Y-9585143D01*
X1419762Y-9585143D02*
X1457857Y-9585143D01*
X1457857Y-9585143D02*
X1476905Y-9594667D01*
X1476905Y-9594667D02*
X1486428Y-9604190D01*
X1486428Y-9604190D02*
X1495952Y-9623238D01*
X1495952Y-9623238D02*
X1495952Y-9680381D01*
X1495952Y-9680381D02*
X1486428Y-9699429D01*
X1486428Y-9699429D02*
X1476905Y-9708952D01*
X1476905Y-9708952D02*
X1457857Y-9718476D01*
X1457857Y-9718476D02*
X1419762Y-9718476D01*
X1419762Y-9718476D02*
X1400714Y-9708952D01*
X1581667Y-9699429D02*
X1591190Y-9708952D01*
X1591190Y-9708952D02*
X1581667Y-9718476D01*
X1581667Y-9718476D02*
X1572143Y-9708952D01*
X1572143Y-9708952D02*
X1581667Y-9699429D01*
X1581667Y-9699429D02*
X1581667Y-9718476D01*
X1581667Y-9594667D02*
X1591190Y-9604190D01*
X1591190Y-9604190D02*
X1581667Y-9613714D01*
X1581667Y-9613714D02*
X1572143Y-9604190D01*
X1572143Y-9604190D02*
X1581667Y-9594667D01*
X1581667Y-9594667D02*
X1581667Y-9613714D01*
D12*
X-30000Y-10052500D02*
X-5000Y-10077500D01*
X-5000Y-10052500D02*
X-30000Y-10077500D01*
D11*
X280714Y-9938476D02*
X299762Y-9938476D01*
X299762Y-9938476D02*
X318810Y-9948000D01*
X318810Y-9948000D02*
X328333Y-9957524D01*
X328333Y-9957524D02*
X337857Y-9976571D01*
X337857Y-9976571D02*
X347381Y-10014667D01*
X347381Y-10014667D02*
X347381Y-10062286D01*
X347381Y-10062286D02*
X337857Y-10100381D01*
X337857Y-10100381D02*
X328333Y-10119429D01*
X328333Y-10119429D02*
X318810Y-10128952D01*
X318810Y-10128952D02*
X299762Y-10138476D01*
X299762Y-10138476D02*
X280714Y-10138476D01*
X280714Y-10138476D02*
X261667Y-10128952D01*
X261667Y-10128952D02*
X252143Y-10119429D01*
X252143Y-10119429D02*
X242619Y-10100381D01*
X242619Y-10100381D02*
X233095Y-10062286D01*
X233095Y-10062286D02*
X233095Y-10014667D01*
X233095Y-10014667D02*
X242619Y-9976571D01*
X242619Y-9976571D02*
X252143Y-9957524D01*
X252143Y-9957524D02*
X261667Y-9948000D01*
X261667Y-9948000D02*
X280714Y-9938476D01*
X433095Y-10119429D02*
X442619Y-10128952D01*
X442619Y-10128952D02*
X433095Y-10138476D01*
X433095Y-10138476D02*
X423571Y-10128952D01*
X423571Y-10128952D02*
X433095Y-10119429D01*
X433095Y-10119429D02*
X433095Y-10138476D01*
X518809Y-9957524D02*
X528333Y-9948000D01*
X528333Y-9948000D02*
X547381Y-9938476D01*
X547381Y-9938476D02*
X595000Y-9938476D01*
X595000Y-9938476D02*
X614048Y-9948000D01*
X614048Y-9948000D02*
X623571Y-9957524D01*
X623571Y-9957524D02*
X633095Y-9976571D01*
X633095Y-9976571D02*
X633095Y-9995619D01*
X633095Y-9995619D02*
X623571Y-10024190D01*
X623571Y-10024190D02*
X509286Y-10138476D01*
X509286Y-10138476D02*
X633095Y-10138476D01*
X814048Y-9938476D02*
X718809Y-9938476D01*
X718809Y-9938476D02*
X709286Y-10033714D01*
X709286Y-10033714D02*
X718809Y-10024190D01*
X718809Y-10024190D02*
X737857Y-10014667D01*
X737857Y-10014667D02*
X785476Y-10014667D01*
X785476Y-10014667D02*
X804524Y-10024190D01*
X804524Y-10024190D02*
X814048Y-10033714D01*
X814048Y-10033714D02*
X823571Y-10052762D01*
X823571Y-10052762D02*
X823571Y-10100381D01*
X823571Y-10100381D02*
X814048Y-10119429D01*
X814048Y-10119429D02*
X804524Y-10128952D01*
X804524Y-10128952D02*
X785476Y-10138476D01*
X785476Y-10138476D02*
X737857Y-10138476D01*
X737857Y-10138476D02*
X718809Y-10128952D01*
X718809Y-10128952D02*
X709286Y-10119429D01*
X947381Y-9938476D02*
X966429Y-9938476D01*
X966429Y-9938476D02*
X985476Y-9948000D01*
X985476Y-9948000D02*
X995000Y-9957524D01*
X995000Y-9957524D02*
X1004524Y-9976571D01*
X1004524Y-9976571D02*
X1014048Y-10014667D01*
X1014048Y-10014667D02*
X1014048Y-10062286D01*
X1014048Y-10062286D02*
X1004524Y-10100381D01*
X1004524Y-10100381D02*
X995000Y-10119429D01*
X995000Y-10119429D02*
X985476Y-10128952D01*
X985476Y-10128952D02*
X966429Y-10138476D01*
X966429Y-10138476D02*
X947381Y-10138476D01*
X947381Y-10138476D02*
X928333Y-10128952D01*
X928333Y-10128952D02*
X918809Y-10119429D01*
X918809Y-10119429D02*
X909286Y-10100381D01*
X909286Y-10100381D02*
X899762Y-10062286D01*
X899762Y-10062286D02*
X899762Y-10014667D01*
X899762Y-10014667D02*
X909286Y-9976571D01*
X909286Y-9976571D02*
X918809Y-9957524D01*
X918809Y-9957524D02*
X928333Y-9948000D01*
X928333Y-9948000D02*
X947381Y-9938476D01*
X1099762Y-10138476D02*
X1099762Y-10005143D01*
X1099762Y-10024190D02*
X1109286Y-10014667D01*
X1109286Y-10014667D02*
X1128333Y-10005143D01*
X1128333Y-10005143D02*
X1156905Y-10005143D01*
X1156905Y-10005143D02*
X1175952Y-10014667D01*
X1175952Y-10014667D02*
X1185476Y-10033714D01*
X1185476Y-10033714D02*
X1185476Y-10138476D01*
X1185476Y-10033714D02*
X1195000Y-10014667D01*
X1195000Y-10014667D02*
X1214048Y-10005143D01*
X1214048Y-10005143D02*
X1242619Y-10005143D01*
X1242619Y-10005143D02*
X1261667Y-10014667D01*
X1261667Y-10014667D02*
X1271191Y-10033714D01*
X1271191Y-10033714D02*
X1271191Y-10138476D01*
X1366429Y-10138476D02*
X1366429Y-10005143D01*
X1366429Y-10024190D02*
X1375952Y-10014667D01*
X1375952Y-10014667D02*
X1395000Y-10005143D01*
X1395000Y-10005143D02*
X1423571Y-10005143D01*
X1423571Y-10005143D02*
X1442619Y-10014667D01*
X1442619Y-10014667D02*
X1452143Y-10033714D01*
X1452143Y-10033714D02*
X1452143Y-10138476D01*
X1452143Y-10033714D02*
X1461667Y-10014667D01*
X1461667Y-10014667D02*
X1480714Y-10005143D01*
X1480714Y-10005143D02*
X1509286Y-10005143D01*
X1509286Y-10005143D02*
X1528333Y-10014667D01*
X1528333Y-10014667D02*
X1537857Y-10033714D01*
X1537857Y-10033714D02*
X1537857Y-10138476D01*
X1895952Y-9928952D02*
X1724524Y-10186095D01*
X2120714Y-9938476D02*
X2139762Y-9938476D01*
X2139762Y-9938476D02*
X2158810Y-9948000D01*
X2158810Y-9948000D02*
X2168333Y-9957524D01*
X2168333Y-9957524D02*
X2177857Y-9976571D01*
X2177857Y-9976571D02*
X2187381Y-10014667D01*
X2187381Y-10014667D02*
X2187381Y-10062286D01*
X2187381Y-10062286D02*
X2177857Y-10100381D01*
X2177857Y-10100381D02*
X2168333Y-10119429D01*
X2168333Y-10119429D02*
X2158810Y-10128952D01*
X2158810Y-10128952D02*
X2139762Y-10138476D01*
X2139762Y-10138476D02*
X2120714Y-10138476D01*
X2120714Y-10138476D02*
X2101667Y-10128952D01*
X2101667Y-10128952D02*
X2092143Y-10119429D01*
X2092143Y-10119429D02*
X2082619Y-10100381D01*
X2082619Y-10100381D02*
X2073095Y-10062286D01*
X2073095Y-10062286D02*
X2073095Y-10014667D01*
X2073095Y-10014667D02*
X2082619Y-9976571D01*
X2082619Y-9976571D02*
X2092143Y-9957524D01*
X2092143Y-9957524D02*
X2101667Y-9948000D01*
X2101667Y-9948000D02*
X2120714Y-9938476D01*
X2273095Y-10119429D02*
X2282619Y-10128952D01*
X2282619Y-10128952D02*
X2273095Y-10138476D01*
X2273095Y-10138476D02*
X2263572Y-10128952D01*
X2263572Y-10128952D02*
X2273095Y-10119429D01*
X2273095Y-10119429D02*
X2273095Y-10138476D01*
X2406429Y-9938476D02*
X2425476Y-9938476D01*
X2425476Y-9938476D02*
X2444524Y-9948000D01*
X2444524Y-9948000D02*
X2454048Y-9957524D01*
X2454048Y-9957524D02*
X2463572Y-9976571D01*
X2463572Y-9976571D02*
X2473095Y-10014667D01*
X2473095Y-10014667D02*
X2473095Y-10062286D01*
X2473095Y-10062286D02*
X2463572Y-10100381D01*
X2463572Y-10100381D02*
X2454048Y-10119429D01*
X2454048Y-10119429D02*
X2444524Y-10128952D01*
X2444524Y-10128952D02*
X2425476Y-10138476D01*
X2425476Y-10138476D02*
X2406429Y-10138476D01*
X2406429Y-10138476D02*
X2387381Y-10128952D01*
X2387381Y-10128952D02*
X2377857Y-10119429D01*
X2377857Y-10119429D02*
X2368333Y-10100381D01*
X2368333Y-10100381D02*
X2358810Y-10062286D01*
X2358810Y-10062286D02*
X2358810Y-10014667D01*
X2358810Y-10014667D02*
X2368333Y-9976571D01*
X2368333Y-9976571D02*
X2377857Y-9957524D01*
X2377857Y-9957524D02*
X2387381Y-9948000D01*
X2387381Y-9948000D02*
X2406429Y-9938476D01*
X2596905Y-9938476D02*
X2615953Y-9938476D01*
X2615953Y-9938476D02*
X2635000Y-9948000D01*
X2635000Y-9948000D02*
X2644524Y-9957524D01*
X2644524Y-9957524D02*
X2654048Y-9976571D01*
X2654048Y-9976571D02*
X2663572Y-10014667D01*
X2663572Y-10014667D02*
X2663572Y-10062286D01*
X2663572Y-10062286D02*
X2654048Y-10100381D01*
X2654048Y-10100381D02*
X2644524Y-10119429D01*
X2644524Y-10119429D02*
X2635000Y-10128952D01*
X2635000Y-10128952D02*
X2615953Y-10138476D01*
X2615953Y-10138476D02*
X2596905Y-10138476D01*
X2596905Y-10138476D02*
X2577857Y-10128952D01*
X2577857Y-10128952D02*
X2568333Y-10119429D01*
X2568333Y-10119429D02*
X2558810Y-10100381D01*
X2558810Y-10100381D02*
X2549286Y-10062286D01*
X2549286Y-10062286D02*
X2549286Y-10014667D01*
X2549286Y-10014667D02*
X2558810Y-9976571D01*
X2558810Y-9976571D02*
X2568333Y-9957524D01*
X2568333Y-9957524D02*
X2577857Y-9948000D01*
X2577857Y-9948000D02*
X2596905Y-9938476D01*
X2758810Y-10138476D02*
X2796905Y-10138476D01*
X2796905Y-10138476D02*
X2815952Y-10128952D01*
X2815952Y-10128952D02*
X2825476Y-10119429D01*
X2825476Y-10119429D02*
X2844524Y-10090857D01*
X2844524Y-10090857D02*
X2854048Y-10052762D01*
X2854048Y-10052762D02*
X2854048Y-9976571D01*
X2854048Y-9976571D02*
X2844524Y-9957524D01*
X2844524Y-9957524D02*
X2835000Y-9948000D01*
X2835000Y-9948000D02*
X2815952Y-9938476D01*
X2815952Y-9938476D02*
X2777857Y-9938476D01*
X2777857Y-9938476D02*
X2758810Y-9948000D01*
X2758810Y-9948000D02*
X2749286Y-9957524D01*
X2749286Y-9957524D02*
X2739762Y-9976571D01*
X2739762Y-9976571D02*
X2739762Y-10024190D01*
X2739762Y-10024190D02*
X2749286Y-10043238D01*
X2749286Y-10043238D02*
X2758810Y-10052762D01*
X2758810Y-10052762D02*
X2777857Y-10062286D01*
X2777857Y-10062286D02*
X2815952Y-10062286D01*
X2815952Y-10062286D02*
X2835000Y-10052762D01*
X2835000Y-10052762D02*
X2844524Y-10043238D01*
X2844524Y-10043238D02*
X2854048Y-10024190D01*
X2968333Y-10024190D02*
X2949286Y-10014667D01*
X2949286Y-10014667D02*
X2939762Y-10005143D01*
X2939762Y-10005143D02*
X2930238Y-9986095D01*
X2930238Y-9986095D02*
X2930238Y-9976571D01*
X2930238Y-9976571D02*
X2939762Y-9957524D01*
X2939762Y-9957524D02*
X2949286Y-9948000D01*
X2949286Y-9948000D02*
X2968333Y-9938476D01*
X2968333Y-9938476D02*
X3006429Y-9938476D01*
X3006429Y-9938476D02*
X3025476Y-9948000D01*
X3025476Y-9948000D02*
X3035000Y-9957524D01*
X3035000Y-9957524D02*
X3044524Y-9976571D01*
X3044524Y-9976571D02*
X3044524Y-9986095D01*
X3044524Y-9986095D02*
X3035000Y-10005143D01*
X3035000Y-10005143D02*
X3025476Y-10014667D01*
X3025476Y-10014667D02*
X3006429Y-10024190D01*
X3006429Y-10024190D02*
X2968333Y-10024190D01*
X2968333Y-10024190D02*
X2949286Y-10033714D01*
X2949286Y-10033714D02*
X2939762Y-10043238D01*
X2939762Y-10043238D02*
X2930238Y-10062286D01*
X2930238Y-10062286D02*
X2930238Y-10100381D01*
X2930238Y-10100381D02*
X2939762Y-10119429D01*
X2939762Y-10119429D02*
X2949286Y-10128952D01*
X2949286Y-10128952D02*
X2968333Y-10138476D01*
X2968333Y-10138476D02*
X3006429Y-10138476D01*
X3006429Y-10138476D02*
X3025476Y-10128952D01*
X3025476Y-10128952D02*
X3035000Y-10119429D01*
X3035000Y-10119429D02*
X3044524Y-10100381D01*
X3044524Y-10100381D02*
X3044524Y-10062286D01*
X3044524Y-10062286D02*
X3035000Y-10043238D01*
X3035000Y-10043238D02*
X3025476Y-10033714D01*
X3025476Y-10033714D02*
X3006429Y-10024190D01*
X3120714Y-9938476D02*
X3120714Y-9976571D01*
X3196905Y-9938476D02*
X3196905Y-9976571D01*
X3459762Y-10214667D02*
X3450238Y-10205143D01*
X3450238Y-10205143D02*
X3431191Y-10176571D01*
X3431191Y-10176571D02*
X3421667Y-10157524D01*
X3421667Y-10157524D02*
X3412143Y-10128952D01*
X3412143Y-10128952D02*
X3402619Y-10081333D01*
X3402619Y-10081333D02*
X3402619Y-10043238D01*
X3402619Y-10043238D02*
X3412143Y-9995619D01*
X3412143Y-9995619D02*
X3421667Y-9967048D01*
X3421667Y-9967048D02*
X3431191Y-9948000D01*
X3431191Y-9948000D02*
X3450238Y-9919429D01*
X3450238Y-9919429D02*
X3459762Y-9909905D01*
X3526429Y-9957524D02*
X3535952Y-9948000D01*
X3535952Y-9948000D02*
X3555000Y-9938476D01*
X3555000Y-9938476D02*
X3602619Y-9938476D01*
X3602619Y-9938476D02*
X3621667Y-9948000D01*
X3621667Y-9948000D02*
X3631191Y-9957524D01*
X3631191Y-9957524D02*
X3640714Y-9976571D01*
X3640714Y-9976571D02*
X3640714Y-9995619D01*
X3640714Y-9995619D02*
X3631191Y-10024190D01*
X3631191Y-10024190D02*
X3516905Y-10138476D01*
X3516905Y-10138476D02*
X3640714Y-10138476D01*
X3764524Y-9938476D02*
X3783572Y-9938476D01*
X3783572Y-9938476D02*
X3802619Y-9948000D01*
X3802619Y-9948000D02*
X3812143Y-9957524D01*
X3812143Y-9957524D02*
X3821667Y-9976571D01*
X3821667Y-9976571D02*
X3831191Y-10014667D01*
X3831191Y-10014667D02*
X3831191Y-10062286D01*
X3831191Y-10062286D02*
X3821667Y-10100381D01*
X3821667Y-10100381D02*
X3812143Y-10119429D01*
X3812143Y-10119429D02*
X3802619Y-10128952D01*
X3802619Y-10128952D02*
X3783572Y-10138476D01*
X3783572Y-10138476D02*
X3764524Y-10138476D01*
X3764524Y-10138476D02*
X3745476Y-10128952D01*
X3745476Y-10128952D02*
X3735952Y-10119429D01*
X3735952Y-10119429D02*
X3726429Y-10100381D01*
X3726429Y-10100381D02*
X3716905Y-10062286D01*
X3716905Y-10062286D02*
X3716905Y-10014667D01*
X3716905Y-10014667D02*
X3726429Y-9976571D01*
X3726429Y-9976571D02*
X3735952Y-9957524D01*
X3735952Y-9957524D02*
X3745476Y-9948000D01*
X3745476Y-9948000D02*
X3764524Y-9938476D01*
X4002619Y-9938476D02*
X3964524Y-9938476D01*
X3964524Y-9938476D02*
X3945476Y-9948000D01*
X3945476Y-9948000D02*
X3935952Y-9957524D01*
X3935952Y-9957524D02*
X3916905Y-9986095D01*
X3916905Y-9986095D02*
X3907381Y-10024190D01*
X3907381Y-10024190D02*
X3907381Y-10100381D01*
X3907381Y-10100381D02*
X3916905Y-10119429D01*
X3916905Y-10119429D02*
X3926429Y-10128952D01*
X3926429Y-10128952D02*
X3945476Y-10138476D01*
X3945476Y-10138476D02*
X3983572Y-10138476D01*
X3983572Y-10138476D02*
X4002619Y-10128952D01*
X4002619Y-10128952D02*
X4012143Y-10119429D01*
X4012143Y-10119429D02*
X4021667Y-10100381D01*
X4021667Y-10100381D02*
X4021667Y-10052762D01*
X4021667Y-10052762D02*
X4012143Y-10033714D01*
X4012143Y-10033714D02*
X4002619Y-10024190D01*
X4002619Y-10024190D02*
X3983572Y-10014667D01*
X3983572Y-10014667D02*
X3945476Y-10014667D01*
X3945476Y-10014667D02*
X3926429Y-10024190D01*
X3926429Y-10024190D02*
X3916905Y-10033714D01*
X3916905Y-10033714D02*
X3907381Y-10052762D01*
X4227381Y-10138476D02*
X4227381Y-9938476D01*
X4313095Y-10138476D02*
X4313095Y-10033714D01*
X4313095Y-10033714D02*
X4303572Y-10014667D01*
X4303572Y-10014667D02*
X4284524Y-10005143D01*
X4284524Y-10005143D02*
X4255953Y-10005143D01*
X4255953Y-10005143D02*
X4236905Y-10014667D01*
X4236905Y-10014667D02*
X4227381Y-10024190D01*
X4436905Y-10138476D02*
X4417857Y-10128952D01*
X4417857Y-10128952D02*
X4408334Y-10119429D01*
X4408334Y-10119429D02*
X4398810Y-10100381D01*
X4398810Y-10100381D02*
X4398810Y-10043238D01*
X4398810Y-10043238D02*
X4408334Y-10024190D01*
X4408334Y-10024190D02*
X4417857Y-10014667D01*
X4417857Y-10014667D02*
X4436905Y-10005143D01*
X4436905Y-10005143D02*
X4465476Y-10005143D01*
X4465476Y-10005143D02*
X4484524Y-10014667D01*
X4484524Y-10014667D02*
X4494048Y-10024190D01*
X4494048Y-10024190D02*
X4503572Y-10043238D01*
X4503572Y-10043238D02*
X4503572Y-10100381D01*
X4503572Y-10100381D02*
X4494048Y-10119429D01*
X4494048Y-10119429D02*
X4484524Y-10128952D01*
X4484524Y-10128952D02*
X4465476Y-10138476D01*
X4465476Y-10138476D02*
X4436905Y-10138476D01*
X4617857Y-10138476D02*
X4598810Y-10128952D01*
X4598810Y-10128952D02*
X4589286Y-10109905D01*
X4589286Y-10109905D02*
X4589286Y-9938476D01*
X4770238Y-10128952D02*
X4751191Y-10138476D01*
X4751191Y-10138476D02*
X4713095Y-10138476D01*
X4713095Y-10138476D02*
X4694048Y-10128952D01*
X4694048Y-10128952D02*
X4684524Y-10109905D01*
X4684524Y-10109905D02*
X4684524Y-10033714D01*
X4684524Y-10033714D02*
X4694048Y-10014667D01*
X4694048Y-10014667D02*
X4713095Y-10005143D01*
X4713095Y-10005143D02*
X4751191Y-10005143D01*
X4751191Y-10005143D02*
X4770238Y-10014667D01*
X4770238Y-10014667D02*
X4779762Y-10033714D01*
X4779762Y-10033714D02*
X4779762Y-10052762D01*
X4779762Y-10052762D02*
X4684524Y-10071810D01*
X4855953Y-10128952D02*
X4875000Y-10138476D01*
X4875000Y-10138476D02*
X4913095Y-10138476D01*
X4913095Y-10138476D02*
X4932143Y-10128952D01*
X4932143Y-10128952D02*
X4941667Y-10109905D01*
X4941667Y-10109905D02*
X4941667Y-10100381D01*
X4941667Y-10100381D02*
X4932143Y-10081333D01*
X4932143Y-10081333D02*
X4913095Y-10071810D01*
X4913095Y-10071810D02*
X4884524Y-10071810D01*
X4884524Y-10071810D02*
X4865476Y-10062286D01*
X4865476Y-10062286D02*
X4855953Y-10043238D01*
X4855953Y-10043238D02*
X4855953Y-10033714D01*
X4855953Y-10033714D02*
X4865476Y-10014667D01*
X4865476Y-10014667D02*
X4884524Y-10005143D01*
X4884524Y-10005143D02*
X4913095Y-10005143D01*
X4913095Y-10005143D02*
X4932143Y-10014667D01*
X5008334Y-10214667D02*
X5017857Y-10205143D01*
X5017857Y-10205143D02*
X5036905Y-10176571D01*
X5036905Y-10176571D02*
X5046429Y-10157524D01*
X5046429Y-10157524D02*
X5055953Y-10128952D01*
X5055953Y-10128952D02*
X5065476Y-10081333D01*
X5065476Y-10081333D02*
X5065476Y-10043238D01*
X5065476Y-10043238D02*
X5055953Y-9995619D01*
X5055953Y-9995619D02*
X5046429Y-9967048D01*
X5046429Y-9967048D02*
X5036905Y-9948000D01*
X5036905Y-9948000D02*
X5017857Y-9919429D01*
X5017857Y-9919429D02*
X5008334Y-9909905D01*
D13*
X-5000Y-10329000D02*
G75*
G03*
X-5000Y-10329000I-30000J0D01*
G01*
D11*
X280714Y-10202476D02*
X299762Y-10202476D01*
X299762Y-10202476D02*
X318810Y-10212000D01*
X318810Y-10212000D02*
X328333Y-10221524D01*
X328333Y-10221524D02*
X337857Y-10240571D01*
X337857Y-10240571D02*
X347381Y-10278667D01*
X347381Y-10278667D02*
X347381Y-10326286D01*
X347381Y-10326286D02*
X337857Y-10364381D01*
X337857Y-10364381D02*
X328333Y-10383429D01*
X328333Y-10383429D02*
X318810Y-10392952D01*
X318810Y-10392952D02*
X299762Y-10402476D01*
X299762Y-10402476D02*
X280714Y-10402476D01*
X280714Y-10402476D02*
X261667Y-10392952D01*
X261667Y-10392952D02*
X252143Y-10383429D01*
X252143Y-10383429D02*
X242619Y-10364381D01*
X242619Y-10364381D02*
X233095Y-10326286D01*
X233095Y-10326286D02*
X233095Y-10278667D01*
X233095Y-10278667D02*
X242619Y-10240571D01*
X242619Y-10240571D02*
X252143Y-10221524D01*
X252143Y-10221524D02*
X261667Y-10212000D01*
X261667Y-10212000D02*
X280714Y-10202476D01*
X433095Y-10383429D02*
X442619Y-10392952D01*
X442619Y-10392952D02*
X433095Y-10402476D01*
X433095Y-10402476D02*
X423571Y-10392952D01*
X423571Y-10392952D02*
X433095Y-10383429D01*
X433095Y-10383429D02*
X433095Y-10402476D01*
X614048Y-10202476D02*
X575952Y-10202476D01*
X575952Y-10202476D02*
X556905Y-10212000D01*
X556905Y-10212000D02*
X547381Y-10221524D01*
X547381Y-10221524D02*
X528333Y-10250095D01*
X528333Y-10250095D02*
X518809Y-10288190D01*
X518809Y-10288190D02*
X518809Y-10364381D01*
X518809Y-10364381D02*
X528333Y-10383429D01*
X528333Y-10383429D02*
X537857Y-10392952D01*
X537857Y-10392952D02*
X556905Y-10402476D01*
X556905Y-10402476D02*
X595000Y-10402476D01*
X595000Y-10402476D02*
X614048Y-10392952D01*
X614048Y-10392952D02*
X623571Y-10383429D01*
X623571Y-10383429D02*
X633095Y-10364381D01*
X633095Y-10364381D02*
X633095Y-10316762D01*
X633095Y-10316762D02*
X623571Y-10297714D01*
X623571Y-10297714D02*
X614048Y-10288190D01*
X614048Y-10288190D02*
X595000Y-10278667D01*
X595000Y-10278667D02*
X556905Y-10278667D01*
X556905Y-10278667D02*
X537857Y-10288190D01*
X537857Y-10288190D02*
X528333Y-10297714D01*
X528333Y-10297714D02*
X518809Y-10316762D01*
X756905Y-10202476D02*
X775952Y-10202476D01*
X775952Y-10202476D02*
X795000Y-10212000D01*
X795000Y-10212000D02*
X804524Y-10221524D01*
X804524Y-10221524D02*
X814048Y-10240571D01*
X814048Y-10240571D02*
X823571Y-10278667D01*
X823571Y-10278667D02*
X823571Y-10326286D01*
X823571Y-10326286D02*
X814048Y-10364381D01*
X814048Y-10364381D02*
X804524Y-10383429D01*
X804524Y-10383429D02*
X795000Y-10392952D01*
X795000Y-10392952D02*
X775952Y-10402476D01*
X775952Y-10402476D02*
X756905Y-10402476D01*
X756905Y-10402476D02*
X737857Y-10392952D01*
X737857Y-10392952D02*
X728333Y-10383429D01*
X728333Y-10383429D02*
X718809Y-10364381D01*
X718809Y-10364381D02*
X709286Y-10326286D01*
X709286Y-10326286D02*
X709286Y-10278667D01*
X709286Y-10278667D02*
X718809Y-10240571D01*
X718809Y-10240571D02*
X728333Y-10221524D01*
X728333Y-10221524D02*
X737857Y-10212000D01*
X737857Y-10212000D02*
X756905Y-10202476D01*
X947381Y-10202476D02*
X966429Y-10202476D01*
X966429Y-10202476D02*
X985476Y-10212000D01*
X985476Y-10212000D02*
X995000Y-10221524D01*
X995000Y-10221524D02*
X1004524Y-10240571D01*
X1004524Y-10240571D02*
X1014048Y-10278667D01*
X1014048Y-10278667D02*
X1014048Y-10326286D01*
X1014048Y-10326286D02*
X1004524Y-10364381D01*
X1004524Y-10364381D02*
X995000Y-10383429D01*
X995000Y-10383429D02*
X985476Y-10392952D01*
X985476Y-10392952D02*
X966429Y-10402476D01*
X966429Y-10402476D02*
X947381Y-10402476D01*
X947381Y-10402476D02*
X928333Y-10392952D01*
X928333Y-10392952D02*
X918809Y-10383429D01*
X918809Y-10383429D02*
X909286Y-10364381D01*
X909286Y-10364381D02*
X899762Y-10326286D01*
X899762Y-10326286D02*
X899762Y-10278667D01*
X899762Y-10278667D02*
X909286Y-10240571D01*
X909286Y-10240571D02*
X918809Y-10221524D01*
X918809Y-10221524D02*
X928333Y-10212000D01*
X928333Y-10212000D02*
X947381Y-10202476D01*
X1099762Y-10402476D02*
X1099762Y-10269143D01*
X1099762Y-10288190D02*
X1109286Y-10278667D01*
X1109286Y-10278667D02*
X1128333Y-10269143D01*
X1128333Y-10269143D02*
X1156905Y-10269143D01*
X1156905Y-10269143D02*
X1175952Y-10278667D01*
X1175952Y-10278667D02*
X1185476Y-10297714D01*
X1185476Y-10297714D02*
X1185476Y-10402476D01*
X1185476Y-10297714D02*
X1195000Y-10278667D01*
X1195000Y-10278667D02*
X1214048Y-10269143D01*
X1214048Y-10269143D02*
X1242619Y-10269143D01*
X1242619Y-10269143D02*
X1261667Y-10278667D01*
X1261667Y-10278667D02*
X1271191Y-10297714D01*
X1271191Y-10297714D02*
X1271191Y-10402476D01*
X1366429Y-10402476D02*
X1366429Y-10269143D01*
X1366429Y-10288190D02*
X1375952Y-10278667D01*
X1375952Y-10278667D02*
X1395000Y-10269143D01*
X1395000Y-10269143D02*
X1423571Y-10269143D01*
X1423571Y-10269143D02*
X1442619Y-10278667D01*
X1442619Y-10278667D02*
X1452143Y-10297714D01*
X1452143Y-10297714D02*
X1452143Y-10402476D01*
X1452143Y-10297714D02*
X1461667Y-10278667D01*
X1461667Y-10278667D02*
X1480714Y-10269143D01*
X1480714Y-10269143D02*
X1509286Y-10269143D01*
X1509286Y-10269143D02*
X1528333Y-10278667D01*
X1528333Y-10278667D02*
X1537857Y-10297714D01*
X1537857Y-10297714D02*
X1537857Y-10402476D01*
X1895952Y-10192952D02*
X1724524Y-10450095D01*
X2120714Y-10202476D02*
X2139762Y-10202476D01*
X2139762Y-10202476D02*
X2158810Y-10212000D01*
X2158810Y-10212000D02*
X2168333Y-10221524D01*
X2168333Y-10221524D02*
X2177857Y-10240571D01*
X2177857Y-10240571D02*
X2187381Y-10278667D01*
X2187381Y-10278667D02*
X2187381Y-10326286D01*
X2187381Y-10326286D02*
X2177857Y-10364381D01*
X2177857Y-10364381D02*
X2168333Y-10383429D01*
X2168333Y-10383429D02*
X2158810Y-10392952D01*
X2158810Y-10392952D02*
X2139762Y-10402476D01*
X2139762Y-10402476D02*
X2120714Y-10402476D01*
X2120714Y-10402476D02*
X2101667Y-10392952D01*
X2101667Y-10392952D02*
X2092143Y-10383429D01*
X2092143Y-10383429D02*
X2082619Y-10364381D01*
X2082619Y-10364381D02*
X2073095Y-10326286D01*
X2073095Y-10326286D02*
X2073095Y-10278667D01*
X2073095Y-10278667D02*
X2082619Y-10240571D01*
X2082619Y-10240571D02*
X2092143Y-10221524D01*
X2092143Y-10221524D02*
X2101667Y-10212000D01*
X2101667Y-10212000D02*
X2120714Y-10202476D01*
X2273095Y-10383429D02*
X2282619Y-10392952D01*
X2282619Y-10392952D02*
X2273095Y-10402476D01*
X2273095Y-10402476D02*
X2263572Y-10392952D01*
X2263572Y-10392952D02*
X2273095Y-10383429D01*
X2273095Y-10383429D02*
X2273095Y-10402476D01*
X2406429Y-10202476D02*
X2425476Y-10202476D01*
X2425476Y-10202476D02*
X2444524Y-10212000D01*
X2444524Y-10212000D02*
X2454048Y-10221524D01*
X2454048Y-10221524D02*
X2463572Y-10240571D01*
X2463572Y-10240571D02*
X2473095Y-10278667D01*
X2473095Y-10278667D02*
X2473095Y-10326286D01*
X2473095Y-10326286D02*
X2463572Y-10364381D01*
X2463572Y-10364381D02*
X2454048Y-10383429D01*
X2454048Y-10383429D02*
X2444524Y-10392952D01*
X2444524Y-10392952D02*
X2425476Y-10402476D01*
X2425476Y-10402476D02*
X2406429Y-10402476D01*
X2406429Y-10402476D02*
X2387381Y-10392952D01*
X2387381Y-10392952D02*
X2377857Y-10383429D01*
X2377857Y-10383429D02*
X2368333Y-10364381D01*
X2368333Y-10364381D02*
X2358810Y-10326286D01*
X2358810Y-10326286D02*
X2358810Y-10278667D01*
X2358810Y-10278667D02*
X2368333Y-10240571D01*
X2368333Y-10240571D02*
X2377857Y-10221524D01*
X2377857Y-10221524D02*
X2387381Y-10212000D01*
X2387381Y-10212000D02*
X2406429Y-10202476D01*
X2549286Y-10221524D02*
X2558810Y-10212000D01*
X2558810Y-10212000D02*
X2577857Y-10202476D01*
X2577857Y-10202476D02*
X2625476Y-10202476D01*
X2625476Y-10202476D02*
X2644524Y-10212000D01*
X2644524Y-10212000D02*
X2654048Y-10221524D01*
X2654048Y-10221524D02*
X2663572Y-10240571D01*
X2663572Y-10240571D02*
X2663572Y-10259619D01*
X2663572Y-10259619D02*
X2654048Y-10288190D01*
X2654048Y-10288190D02*
X2539762Y-10402476D01*
X2539762Y-10402476D02*
X2663572Y-10402476D01*
X2730238Y-10202476D02*
X2854048Y-10202476D01*
X2854048Y-10202476D02*
X2787381Y-10278667D01*
X2787381Y-10278667D02*
X2815952Y-10278667D01*
X2815952Y-10278667D02*
X2835000Y-10288190D01*
X2835000Y-10288190D02*
X2844524Y-10297714D01*
X2844524Y-10297714D02*
X2854048Y-10316762D01*
X2854048Y-10316762D02*
X2854048Y-10364381D01*
X2854048Y-10364381D02*
X2844524Y-10383429D01*
X2844524Y-10383429D02*
X2835000Y-10392952D01*
X2835000Y-10392952D02*
X2815952Y-10402476D01*
X2815952Y-10402476D02*
X2758810Y-10402476D01*
X2758810Y-10402476D02*
X2739762Y-10392952D01*
X2739762Y-10392952D02*
X2730238Y-10383429D01*
X3025476Y-10202476D02*
X2987381Y-10202476D01*
X2987381Y-10202476D02*
X2968333Y-10212000D01*
X2968333Y-10212000D02*
X2958810Y-10221524D01*
X2958810Y-10221524D02*
X2939762Y-10250095D01*
X2939762Y-10250095D02*
X2930238Y-10288190D01*
X2930238Y-10288190D02*
X2930238Y-10364381D01*
X2930238Y-10364381D02*
X2939762Y-10383429D01*
X2939762Y-10383429D02*
X2949286Y-10392952D01*
X2949286Y-10392952D02*
X2968333Y-10402476D01*
X2968333Y-10402476D02*
X3006429Y-10402476D01*
X3006429Y-10402476D02*
X3025476Y-10392952D01*
X3025476Y-10392952D02*
X3035000Y-10383429D01*
X3035000Y-10383429D02*
X3044524Y-10364381D01*
X3044524Y-10364381D02*
X3044524Y-10316762D01*
X3044524Y-10316762D02*
X3035000Y-10297714D01*
X3035000Y-10297714D02*
X3025476Y-10288190D01*
X3025476Y-10288190D02*
X3006429Y-10278667D01*
X3006429Y-10278667D02*
X2968333Y-10278667D01*
X2968333Y-10278667D02*
X2949286Y-10288190D01*
X2949286Y-10288190D02*
X2939762Y-10297714D01*
X2939762Y-10297714D02*
X2930238Y-10316762D01*
X3120714Y-10202476D02*
X3120714Y-10240571D01*
X3196905Y-10202476D02*
X3196905Y-10240571D01*
X3459762Y-10478667D02*
X3450238Y-10469143D01*
X3450238Y-10469143D02*
X3431191Y-10440571D01*
X3431191Y-10440571D02*
X3421667Y-10421524D01*
X3421667Y-10421524D02*
X3412143Y-10392952D01*
X3412143Y-10392952D02*
X3402619Y-10345333D01*
X3402619Y-10345333D02*
X3402619Y-10307238D01*
X3402619Y-10307238D02*
X3412143Y-10259619D01*
X3412143Y-10259619D02*
X3421667Y-10231048D01*
X3421667Y-10231048D02*
X3431191Y-10212000D01*
X3431191Y-10212000D02*
X3450238Y-10183429D01*
X3450238Y-10183429D02*
X3459762Y-10173905D01*
X3574048Y-10202476D02*
X3593095Y-10202476D01*
X3593095Y-10202476D02*
X3612143Y-10212000D01*
X3612143Y-10212000D02*
X3621667Y-10221524D01*
X3621667Y-10221524D02*
X3631191Y-10240571D01*
X3631191Y-10240571D02*
X3640714Y-10278667D01*
X3640714Y-10278667D02*
X3640714Y-10326286D01*
X3640714Y-10326286D02*
X3631191Y-10364381D01*
X3631191Y-10364381D02*
X3621667Y-10383429D01*
X3621667Y-10383429D02*
X3612143Y-10392952D01*
X3612143Y-10392952D02*
X3593095Y-10402476D01*
X3593095Y-10402476D02*
X3574048Y-10402476D01*
X3574048Y-10402476D02*
X3555000Y-10392952D01*
X3555000Y-10392952D02*
X3545476Y-10383429D01*
X3545476Y-10383429D02*
X3535952Y-10364381D01*
X3535952Y-10364381D02*
X3526429Y-10326286D01*
X3526429Y-10326286D02*
X3526429Y-10278667D01*
X3526429Y-10278667D02*
X3535952Y-10240571D01*
X3535952Y-10240571D02*
X3545476Y-10221524D01*
X3545476Y-10221524D02*
X3555000Y-10212000D01*
X3555000Y-10212000D02*
X3574048Y-10202476D01*
X3846429Y-10402476D02*
X3846429Y-10202476D01*
X3932143Y-10402476D02*
X3932143Y-10297714D01*
X3932143Y-10297714D02*
X3922619Y-10278667D01*
X3922619Y-10278667D02*
X3903572Y-10269143D01*
X3903572Y-10269143D02*
X3875000Y-10269143D01*
X3875000Y-10269143D02*
X3855952Y-10278667D01*
X3855952Y-10278667D02*
X3846429Y-10288190D01*
X4055952Y-10402476D02*
X4036905Y-10392952D01*
X4036905Y-10392952D02*
X4027381Y-10383429D01*
X4027381Y-10383429D02*
X4017857Y-10364381D01*
X4017857Y-10364381D02*
X4017857Y-10307238D01*
X4017857Y-10307238D02*
X4027381Y-10288190D01*
X4027381Y-10288190D02*
X4036905Y-10278667D01*
X4036905Y-10278667D02*
X4055952Y-10269143D01*
X4055952Y-10269143D02*
X4084524Y-10269143D01*
X4084524Y-10269143D02*
X4103572Y-10278667D01*
X4103572Y-10278667D02*
X4113095Y-10288190D01*
X4113095Y-10288190D02*
X4122619Y-10307238D01*
X4122619Y-10307238D02*
X4122619Y-10364381D01*
X4122619Y-10364381D02*
X4113095Y-10383429D01*
X4113095Y-10383429D02*
X4103572Y-10392952D01*
X4103572Y-10392952D02*
X4084524Y-10402476D01*
X4084524Y-10402476D02*
X4055952Y-10402476D01*
X4236905Y-10402476D02*
X4217857Y-10392952D01*
X4217857Y-10392952D02*
X4208334Y-10373905D01*
X4208334Y-10373905D02*
X4208334Y-10202476D01*
X4389286Y-10392952D02*
X4370238Y-10402476D01*
X4370238Y-10402476D02*
X4332143Y-10402476D01*
X4332143Y-10402476D02*
X4313095Y-10392952D01*
X4313095Y-10392952D02*
X4303572Y-10373905D01*
X4303572Y-10373905D02*
X4303572Y-10297714D01*
X4303572Y-10297714D02*
X4313095Y-10278667D01*
X4313095Y-10278667D02*
X4332143Y-10269143D01*
X4332143Y-10269143D02*
X4370238Y-10269143D01*
X4370238Y-10269143D02*
X4389286Y-10278667D01*
X4389286Y-10278667D02*
X4398810Y-10297714D01*
X4398810Y-10297714D02*
X4398810Y-10316762D01*
X4398810Y-10316762D02*
X4303572Y-10335810D01*
X4475000Y-10392952D02*
X4494048Y-10402476D01*
X4494048Y-10402476D02*
X4532143Y-10402476D01*
X4532143Y-10402476D02*
X4551191Y-10392952D01*
X4551191Y-10392952D02*
X4560715Y-10373905D01*
X4560715Y-10373905D02*
X4560715Y-10364381D01*
X4560715Y-10364381D02*
X4551191Y-10345333D01*
X4551191Y-10345333D02*
X4532143Y-10335810D01*
X4532143Y-10335810D02*
X4503572Y-10335810D01*
X4503572Y-10335810D02*
X4484524Y-10326286D01*
X4484524Y-10326286D02*
X4475000Y-10307238D01*
X4475000Y-10307238D02*
X4475000Y-10297714D01*
X4475000Y-10297714D02*
X4484524Y-10278667D01*
X4484524Y-10278667D02*
X4503572Y-10269143D01*
X4503572Y-10269143D02*
X4532143Y-10269143D01*
X4532143Y-10269143D02*
X4551191Y-10278667D01*
X4766429Y-10326286D02*
X4918810Y-10326286D01*
X4842619Y-10402476D02*
X4842619Y-10250095D01*
X5219762Y-10269143D02*
X5219762Y-10402476D01*
X5172143Y-10192952D02*
X5124524Y-10335810D01*
X5124524Y-10335810D02*
X5248334Y-10335810D01*
X5435000Y-10392952D02*
X5454048Y-10402476D01*
X5454048Y-10402476D02*
X5492143Y-10402476D01*
X5492143Y-10402476D02*
X5511191Y-10392952D01*
X5511191Y-10392952D02*
X5520715Y-10373905D01*
X5520715Y-10373905D02*
X5520715Y-10364381D01*
X5520715Y-10364381D02*
X5511191Y-10345333D01*
X5511191Y-10345333D02*
X5492143Y-10335810D01*
X5492143Y-10335810D02*
X5463572Y-10335810D01*
X5463572Y-10335810D02*
X5444524Y-10326286D01*
X5444524Y-10326286D02*
X5435000Y-10307238D01*
X5435000Y-10307238D02*
X5435000Y-10297714D01*
X5435000Y-10297714D02*
X5444524Y-10278667D01*
X5444524Y-10278667D02*
X5463572Y-10269143D01*
X5463572Y-10269143D02*
X5492143Y-10269143D01*
X5492143Y-10269143D02*
X5511191Y-10278667D01*
X5635000Y-10402476D02*
X5615953Y-10392952D01*
X5615953Y-10392952D02*
X5606429Y-10373905D01*
X5606429Y-10373905D02*
X5606429Y-10202476D01*
X5739762Y-10402476D02*
X5720714Y-10392952D01*
X5720714Y-10392952D02*
X5711191Y-10383429D01*
X5711191Y-10383429D02*
X5701667Y-10364381D01*
X5701667Y-10364381D02*
X5701667Y-10307238D01*
X5701667Y-10307238D02*
X5711191Y-10288190D01*
X5711191Y-10288190D02*
X5720714Y-10278667D01*
X5720714Y-10278667D02*
X5739762Y-10269143D01*
X5739762Y-10269143D02*
X5768334Y-10269143D01*
X5768334Y-10269143D02*
X5787381Y-10278667D01*
X5787381Y-10278667D02*
X5796905Y-10288190D01*
X5796905Y-10288190D02*
X5806429Y-10307238D01*
X5806429Y-10307238D02*
X5806429Y-10364381D01*
X5806429Y-10364381D02*
X5796905Y-10383429D01*
X5796905Y-10383429D02*
X5787381Y-10392952D01*
X5787381Y-10392952D02*
X5768334Y-10402476D01*
X5768334Y-10402476D02*
X5739762Y-10402476D01*
X5863572Y-10269143D02*
X5939762Y-10269143D01*
X5892143Y-10202476D02*
X5892143Y-10373905D01*
X5892143Y-10373905D02*
X5901667Y-10392952D01*
X5901667Y-10392952D02*
X5920714Y-10402476D01*
X5920714Y-10402476D02*
X5939762Y-10402476D01*
X5996905Y-10392952D02*
X6015953Y-10402476D01*
X6015953Y-10402476D02*
X6054048Y-10402476D01*
X6054048Y-10402476D02*
X6073095Y-10392952D01*
X6073095Y-10392952D02*
X6082619Y-10373905D01*
X6082619Y-10373905D02*
X6082619Y-10364381D01*
X6082619Y-10364381D02*
X6073095Y-10345333D01*
X6073095Y-10345333D02*
X6054048Y-10335810D01*
X6054048Y-10335810D02*
X6025476Y-10335810D01*
X6025476Y-10335810D02*
X6006429Y-10326286D01*
X6006429Y-10326286D02*
X5996905Y-10307238D01*
X5996905Y-10307238D02*
X5996905Y-10297714D01*
X5996905Y-10297714D02*
X6006429Y-10278667D01*
X6006429Y-10278667D02*
X6025476Y-10269143D01*
X6025476Y-10269143D02*
X6054048Y-10269143D01*
X6054048Y-10269143D02*
X6073095Y-10278667D01*
X6149286Y-10478667D02*
X6158810Y-10469143D01*
X6158810Y-10469143D02*
X6177857Y-10440571D01*
X6177857Y-10440571D02*
X6187381Y-10421524D01*
X6187381Y-10421524D02*
X6196905Y-10392952D01*
X6196905Y-10392952D02*
X6206429Y-10345333D01*
X6206429Y-10345333D02*
X6206429Y-10307238D01*
X6206429Y-10307238D02*
X6196905Y-10259619D01*
X6196905Y-10259619D02*
X6187381Y-10231048D01*
X6187381Y-10231048D02*
X6177857Y-10212000D01*
X6177857Y-10212000D02*
X6158810Y-10183429D01*
X6158810Y-10183429D02*
X6149286Y-10173905D01*
D14*
X-55000Y-10543000D02*
X-55000Y-10643000D01*
X-105000Y-10593000D02*
X-5000Y-10593000D01*
D11*
X347381Y-10666476D02*
X233095Y-10666476D01*
X290238Y-10666476D02*
X290238Y-10466476D01*
X290238Y-10466476D02*
X271190Y-10495048D01*
X271190Y-10495048D02*
X252143Y-10514095D01*
X252143Y-10514095D02*
X233095Y-10523619D01*
X433095Y-10647429D02*
X442619Y-10656952D01*
X442619Y-10656952D02*
X433095Y-10666476D01*
X433095Y-10666476D02*
X423571Y-10656952D01*
X423571Y-10656952D02*
X433095Y-10647429D01*
X433095Y-10647429D02*
X433095Y-10666476D01*
X566429Y-10466476D02*
X585476Y-10466476D01*
X585476Y-10466476D02*
X604524Y-10476000D01*
X604524Y-10476000D02*
X614048Y-10485524D01*
X614048Y-10485524D02*
X623571Y-10504571D01*
X623571Y-10504571D02*
X633095Y-10542667D01*
X633095Y-10542667D02*
X633095Y-10590286D01*
X633095Y-10590286D02*
X623571Y-10628381D01*
X623571Y-10628381D02*
X614048Y-10647429D01*
X614048Y-10647429D02*
X604524Y-10656952D01*
X604524Y-10656952D02*
X585476Y-10666476D01*
X585476Y-10666476D02*
X566429Y-10666476D01*
X566429Y-10666476D02*
X547381Y-10656952D01*
X547381Y-10656952D02*
X537857Y-10647429D01*
X537857Y-10647429D02*
X528333Y-10628381D01*
X528333Y-10628381D02*
X518809Y-10590286D01*
X518809Y-10590286D02*
X518809Y-10542667D01*
X518809Y-10542667D02*
X528333Y-10504571D01*
X528333Y-10504571D02*
X537857Y-10485524D01*
X537857Y-10485524D02*
X547381Y-10476000D01*
X547381Y-10476000D02*
X566429Y-10466476D01*
X756905Y-10466476D02*
X775952Y-10466476D01*
X775952Y-10466476D02*
X795000Y-10476000D01*
X795000Y-10476000D02*
X804524Y-10485524D01*
X804524Y-10485524D02*
X814048Y-10504571D01*
X814048Y-10504571D02*
X823571Y-10542667D01*
X823571Y-10542667D02*
X823571Y-10590286D01*
X823571Y-10590286D02*
X814048Y-10628381D01*
X814048Y-10628381D02*
X804524Y-10647429D01*
X804524Y-10647429D02*
X795000Y-10656952D01*
X795000Y-10656952D02*
X775952Y-10666476D01*
X775952Y-10666476D02*
X756905Y-10666476D01*
X756905Y-10666476D02*
X737857Y-10656952D01*
X737857Y-10656952D02*
X728333Y-10647429D01*
X728333Y-10647429D02*
X718809Y-10628381D01*
X718809Y-10628381D02*
X709286Y-10590286D01*
X709286Y-10590286D02*
X709286Y-10542667D01*
X709286Y-10542667D02*
X718809Y-10504571D01*
X718809Y-10504571D02*
X728333Y-10485524D01*
X728333Y-10485524D02*
X737857Y-10476000D01*
X737857Y-10476000D02*
X756905Y-10466476D01*
X947381Y-10466476D02*
X966429Y-10466476D01*
X966429Y-10466476D02*
X985476Y-10476000D01*
X985476Y-10476000D02*
X995000Y-10485524D01*
X995000Y-10485524D02*
X1004524Y-10504571D01*
X1004524Y-10504571D02*
X1014048Y-10542667D01*
X1014048Y-10542667D02*
X1014048Y-10590286D01*
X1014048Y-10590286D02*
X1004524Y-10628381D01*
X1004524Y-10628381D02*
X995000Y-10647429D01*
X995000Y-10647429D02*
X985476Y-10656952D01*
X985476Y-10656952D02*
X966429Y-10666476D01*
X966429Y-10666476D02*
X947381Y-10666476D01*
X947381Y-10666476D02*
X928333Y-10656952D01*
X928333Y-10656952D02*
X918809Y-10647429D01*
X918809Y-10647429D02*
X909286Y-10628381D01*
X909286Y-10628381D02*
X899762Y-10590286D01*
X899762Y-10590286D02*
X899762Y-10542667D01*
X899762Y-10542667D02*
X909286Y-10504571D01*
X909286Y-10504571D02*
X918809Y-10485524D01*
X918809Y-10485524D02*
X928333Y-10476000D01*
X928333Y-10476000D02*
X947381Y-10466476D01*
X1099762Y-10666476D02*
X1099762Y-10533143D01*
X1099762Y-10552190D02*
X1109286Y-10542667D01*
X1109286Y-10542667D02*
X1128333Y-10533143D01*
X1128333Y-10533143D02*
X1156905Y-10533143D01*
X1156905Y-10533143D02*
X1175952Y-10542667D01*
X1175952Y-10542667D02*
X1185476Y-10561714D01*
X1185476Y-10561714D02*
X1185476Y-10666476D01*
X1185476Y-10561714D02*
X1195000Y-10542667D01*
X1195000Y-10542667D02*
X1214048Y-10533143D01*
X1214048Y-10533143D02*
X1242619Y-10533143D01*
X1242619Y-10533143D02*
X1261667Y-10542667D01*
X1261667Y-10542667D02*
X1271191Y-10561714D01*
X1271191Y-10561714D02*
X1271191Y-10666476D01*
X1366429Y-10666476D02*
X1366429Y-10533143D01*
X1366429Y-10552190D02*
X1375952Y-10542667D01*
X1375952Y-10542667D02*
X1395000Y-10533143D01*
X1395000Y-10533143D02*
X1423571Y-10533143D01*
X1423571Y-10533143D02*
X1442619Y-10542667D01*
X1442619Y-10542667D02*
X1452143Y-10561714D01*
X1452143Y-10561714D02*
X1452143Y-10666476D01*
X1452143Y-10561714D02*
X1461667Y-10542667D01*
X1461667Y-10542667D02*
X1480714Y-10533143D01*
X1480714Y-10533143D02*
X1509286Y-10533143D01*
X1509286Y-10533143D02*
X1528333Y-10542667D01*
X1528333Y-10542667D02*
X1537857Y-10561714D01*
X1537857Y-10561714D02*
X1537857Y-10666476D01*
X1895952Y-10456952D02*
X1724524Y-10714095D01*
X2120714Y-10466476D02*
X2139762Y-10466476D01*
X2139762Y-10466476D02*
X2158810Y-10476000D01*
X2158810Y-10476000D02*
X2168333Y-10485524D01*
X2168333Y-10485524D02*
X2177857Y-10504571D01*
X2177857Y-10504571D02*
X2187381Y-10542667D01*
X2187381Y-10542667D02*
X2187381Y-10590286D01*
X2187381Y-10590286D02*
X2177857Y-10628381D01*
X2177857Y-10628381D02*
X2168333Y-10647429D01*
X2168333Y-10647429D02*
X2158810Y-10656952D01*
X2158810Y-10656952D02*
X2139762Y-10666476D01*
X2139762Y-10666476D02*
X2120714Y-10666476D01*
X2120714Y-10666476D02*
X2101667Y-10656952D01*
X2101667Y-10656952D02*
X2092143Y-10647429D01*
X2092143Y-10647429D02*
X2082619Y-10628381D01*
X2082619Y-10628381D02*
X2073095Y-10590286D01*
X2073095Y-10590286D02*
X2073095Y-10542667D01*
X2073095Y-10542667D02*
X2082619Y-10504571D01*
X2082619Y-10504571D02*
X2092143Y-10485524D01*
X2092143Y-10485524D02*
X2101667Y-10476000D01*
X2101667Y-10476000D02*
X2120714Y-10466476D01*
X2273095Y-10647429D02*
X2282619Y-10656952D01*
X2282619Y-10656952D02*
X2273095Y-10666476D01*
X2273095Y-10666476D02*
X2263572Y-10656952D01*
X2263572Y-10656952D02*
X2273095Y-10647429D01*
X2273095Y-10647429D02*
X2273095Y-10666476D01*
X2406429Y-10466476D02*
X2425476Y-10466476D01*
X2425476Y-10466476D02*
X2444524Y-10476000D01*
X2444524Y-10476000D02*
X2454048Y-10485524D01*
X2454048Y-10485524D02*
X2463572Y-10504571D01*
X2463572Y-10504571D02*
X2473095Y-10542667D01*
X2473095Y-10542667D02*
X2473095Y-10590286D01*
X2473095Y-10590286D02*
X2463572Y-10628381D01*
X2463572Y-10628381D02*
X2454048Y-10647429D01*
X2454048Y-10647429D02*
X2444524Y-10656952D01*
X2444524Y-10656952D02*
X2425476Y-10666476D01*
X2425476Y-10666476D02*
X2406429Y-10666476D01*
X2406429Y-10666476D02*
X2387381Y-10656952D01*
X2387381Y-10656952D02*
X2377857Y-10647429D01*
X2377857Y-10647429D02*
X2368333Y-10628381D01*
X2368333Y-10628381D02*
X2358810Y-10590286D01*
X2358810Y-10590286D02*
X2358810Y-10542667D01*
X2358810Y-10542667D02*
X2368333Y-10504571D01*
X2368333Y-10504571D02*
X2377857Y-10485524D01*
X2377857Y-10485524D02*
X2387381Y-10476000D01*
X2387381Y-10476000D02*
X2406429Y-10466476D01*
X2539762Y-10466476D02*
X2663572Y-10466476D01*
X2663572Y-10466476D02*
X2596905Y-10542667D01*
X2596905Y-10542667D02*
X2625476Y-10542667D01*
X2625476Y-10542667D02*
X2644524Y-10552190D01*
X2644524Y-10552190D02*
X2654048Y-10561714D01*
X2654048Y-10561714D02*
X2663572Y-10580762D01*
X2663572Y-10580762D02*
X2663572Y-10628381D01*
X2663572Y-10628381D02*
X2654048Y-10647429D01*
X2654048Y-10647429D02*
X2644524Y-10656952D01*
X2644524Y-10656952D02*
X2625476Y-10666476D01*
X2625476Y-10666476D02*
X2568333Y-10666476D01*
X2568333Y-10666476D02*
X2549286Y-10656952D01*
X2549286Y-10656952D02*
X2539762Y-10647429D01*
X2758810Y-10666476D02*
X2796905Y-10666476D01*
X2796905Y-10666476D02*
X2815952Y-10656952D01*
X2815952Y-10656952D02*
X2825476Y-10647429D01*
X2825476Y-10647429D02*
X2844524Y-10618857D01*
X2844524Y-10618857D02*
X2854048Y-10580762D01*
X2854048Y-10580762D02*
X2854048Y-10504571D01*
X2854048Y-10504571D02*
X2844524Y-10485524D01*
X2844524Y-10485524D02*
X2835000Y-10476000D01*
X2835000Y-10476000D02*
X2815952Y-10466476D01*
X2815952Y-10466476D02*
X2777857Y-10466476D01*
X2777857Y-10466476D02*
X2758810Y-10476000D01*
X2758810Y-10476000D02*
X2749286Y-10485524D01*
X2749286Y-10485524D02*
X2739762Y-10504571D01*
X2739762Y-10504571D02*
X2739762Y-10552190D01*
X2739762Y-10552190D02*
X2749286Y-10571238D01*
X2749286Y-10571238D02*
X2758810Y-10580762D01*
X2758810Y-10580762D02*
X2777857Y-10590286D01*
X2777857Y-10590286D02*
X2815952Y-10590286D01*
X2815952Y-10590286D02*
X2835000Y-10580762D01*
X2835000Y-10580762D02*
X2844524Y-10571238D01*
X2844524Y-10571238D02*
X2854048Y-10552190D01*
X3025476Y-10533143D02*
X3025476Y-10666476D01*
X2977857Y-10456952D02*
X2930238Y-10599810D01*
X2930238Y-10599810D02*
X3054048Y-10599810D01*
X3120714Y-10466476D02*
X3120714Y-10504571D01*
X3196905Y-10466476D02*
X3196905Y-10504571D01*
X3459762Y-10742667D02*
X3450238Y-10733143D01*
X3450238Y-10733143D02*
X3431191Y-10704571D01*
X3431191Y-10704571D02*
X3421667Y-10685524D01*
X3421667Y-10685524D02*
X3412143Y-10656952D01*
X3412143Y-10656952D02*
X3402619Y-10609333D01*
X3402619Y-10609333D02*
X3402619Y-10571238D01*
X3402619Y-10571238D02*
X3412143Y-10523619D01*
X3412143Y-10523619D02*
X3421667Y-10495048D01*
X3421667Y-10495048D02*
X3431191Y-10476000D01*
X3431191Y-10476000D02*
X3450238Y-10447429D01*
X3450238Y-10447429D02*
X3459762Y-10437905D01*
X3640714Y-10666476D02*
X3526429Y-10666476D01*
X3583571Y-10666476D02*
X3583571Y-10466476D01*
X3583571Y-10466476D02*
X3564524Y-10495048D01*
X3564524Y-10495048D02*
X3545476Y-10514095D01*
X3545476Y-10514095D02*
X3526429Y-10523619D01*
X3735952Y-10666476D02*
X3774048Y-10666476D01*
X3774048Y-10666476D02*
X3793095Y-10656952D01*
X3793095Y-10656952D02*
X3802619Y-10647429D01*
X3802619Y-10647429D02*
X3821667Y-10618857D01*
X3821667Y-10618857D02*
X3831191Y-10580762D01*
X3831191Y-10580762D02*
X3831191Y-10504571D01*
X3831191Y-10504571D02*
X3821667Y-10485524D01*
X3821667Y-10485524D02*
X3812143Y-10476000D01*
X3812143Y-10476000D02*
X3793095Y-10466476D01*
X3793095Y-10466476D02*
X3755000Y-10466476D01*
X3755000Y-10466476D02*
X3735952Y-10476000D01*
X3735952Y-10476000D02*
X3726429Y-10485524D01*
X3726429Y-10485524D02*
X3716905Y-10504571D01*
X3716905Y-10504571D02*
X3716905Y-10552190D01*
X3716905Y-10552190D02*
X3726429Y-10571238D01*
X3726429Y-10571238D02*
X3735952Y-10580762D01*
X3735952Y-10580762D02*
X3755000Y-10590286D01*
X3755000Y-10590286D02*
X3793095Y-10590286D01*
X3793095Y-10590286D02*
X3812143Y-10580762D01*
X3812143Y-10580762D02*
X3821667Y-10571238D01*
X3821667Y-10571238D02*
X3831191Y-10552190D01*
X4036905Y-10666476D02*
X4036905Y-10466476D01*
X4122619Y-10666476D02*
X4122619Y-10561714D01*
X4122619Y-10561714D02*
X4113095Y-10542667D01*
X4113095Y-10542667D02*
X4094048Y-10533143D01*
X4094048Y-10533143D02*
X4065476Y-10533143D01*
X4065476Y-10533143D02*
X4046429Y-10542667D01*
X4046429Y-10542667D02*
X4036905Y-10552190D01*
X4246429Y-10666476D02*
X4227381Y-10656952D01*
X4227381Y-10656952D02*
X4217857Y-10647429D01*
X4217857Y-10647429D02*
X4208334Y-10628381D01*
X4208334Y-10628381D02*
X4208334Y-10571238D01*
X4208334Y-10571238D02*
X4217857Y-10552190D01*
X4217857Y-10552190D02*
X4227381Y-10542667D01*
X4227381Y-10542667D02*
X4246429Y-10533143D01*
X4246429Y-10533143D02*
X4275000Y-10533143D01*
X4275000Y-10533143D02*
X4294048Y-10542667D01*
X4294048Y-10542667D02*
X4303572Y-10552190D01*
X4303572Y-10552190D02*
X4313095Y-10571238D01*
X4313095Y-10571238D02*
X4313095Y-10628381D01*
X4313095Y-10628381D02*
X4303572Y-10647429D01*
X4303572Y-10647429D02*
X4294048Y-10656952D01*
X4294048Y-10656952D02*
X4275000Y-10666476D01*
X4275000Y-10666476D02*
X4246429Y-10666476D01*
X4427381Y-10666476D02*
X4408334Y-10656952D01*
X4408334Y-10656952D02*
X4398810Y-10637905D01*
X4398810Y-10637905D02*
X4398810Y-10466476D01*
X4579762Y-10656952D02*
X4560715Y-10666476D01*
X4560715Y-10666476D02*
X4522619Y-10666476D01*
X4522619Y-10666476D02*
X4503572Y-10656952D01*
X4503572Y-10656952D02*
X4494048Y-10637905D01*
X4494048Y-10637905D02*
X4494048Y-10561714D01*
X4494048Y-10561714D02*
X4503572Y-10542667D01*
X4503572Y-10542667D02*
X4522619Y-10533143D01*
X4522619Y-10533143D02*
X4560715Y-10533143D01*
X4560715Y-10533143D02*
X4579762Y-10542667D01*
X4579762Y-10542667D02*
X4589286Y-10561714D01*
X4589286Y-10561714D02*
X4589286Y-10580762D01*
X4589286Y-10580762D02*
X4494048Y-10599810D01*
X4665476Y-10656952D02*
X4684524Y-10666476D01*
X4684524Y-10666476D02*
X4722619Y-10666476D01*
X4722619Y-10666476D02*
X4741667Y-10656952D01*
X4741667Y-10656952D02*
X4751191Y-10637905D01*
X4751191Y-10637905D02*
X4751191Y-10628381D01*
X4751191Y-10628381D02*
X4741667Y-10609333D01*
X4741667Y-10609333D02*
X4722619Y-10599810D01*
X4722619Y-10599810D02*
X4694048Y-10599810D01*
X4694048Y-10599810D02*
X4675000Y-10590286D01*
X4675000Y-10590286D02*
X4665476Y-10571238D01*
X4665476Y-10571238D02*
X4665476Y-10561714D01*
X4665476Y-10561714D02*
X4675000Y-10542667D01*
X4675000Y-10542667D02*
X4694048Y-10533143D01*
X4694048Y-10533143D02*
X4722619Y-10533143D01*
X4722619Y-10533143D02*
X4741667Y-10542667D01*
X4817857Y-10742667D02*
X4827381Y-10733143D01*
X4827381Y-10733143D02*
X4846429Y-10704571D01*
X4846429Y-10704571D02*
X4855953Y-10685524D01*
X4855953Y-10685524D02*
X4865476Y-10656952D01*
X4865476Y-10656952D02*
X4875000Y-10609333D01*
X4875000Y-10609333D02*
X4875000Y-10571238D01*
X4875000Y-10571238D02*
X4865476Y-10523619D01*
X4865476Y-10523619D02*
X4855953Y-10495048D01*
X4855953Y-10495048D02*
X4846429Y-10476000D01*
X4846429Y-10476000D02*
X4827381Y-10447429D01*
X4827381Y-10447429D02*
X4817857Y-10437905D01*
X-34289Y-10927711D02*
X-34289Y-10786289D01*
X-175711Y-10786289D01*
X-175711Y-10927711D01*
X-34289Y-10927711D01*
X223571Y-10730476D02*
X347381Y-10730476D01*
X347381Y-10730476D02*
X280714Y-10806667D01*
X280714Y-10806667D02*
X309286Y-10806667D01*
X309286Y-10806667D02*
X328333Y-10816190D01*
X328333Y-10816190D02*
X337857Y-10825714D01*
X337857Y-10825714D02*
X347381Y-10844762D01*
X347381Y-10844762D02*
X347381Y-10892381D01*
X347381Y-10892381D02*
X337857Y-10911429D01*
X337857Y-10911429D02*
X328333Y-10920952D01*
X328333Y-10920952D02*
X309286Y-10930476D01*
X309286Y-10930476D02*
X252143Y-10930476D01*
X252143Y-10930476D02*
X233095Y-10920952D01*
X233095Y-10920952D02*
X223571Y-10911429D01*
X433095Y-10911429D02*
X442619Y-10920952D01*
X442619Y-10920952D02*
X433095Y-10930476D01*
X433095Y-10930476D02*
X423571Y-10920952D01*
X423571Y-10920952D02*
X433095Y-10911429D01*
X433095Y-10911429D02*
X433095Y-10930476D01*
X566429Y-10730476D02*
X585476Y-10730476D01*
X585476Y-10730476D02*
X604524Y-10740000D01*
X604524Y-10740000D02*
X614048Y-10749524D01*
X614048Y-10749524D02*
X623571Y-10768571D01*
X623571Y-10768571D02*
X633095Y-10806667D01*
X633095Y-10806667D02*
X633095Y-10854286D01*
X633095Y-10854286D02*
X623571Y-10892381D01*
X623571Y-10892381D02*
X614048Y-10911429D01*
X614048Y-10911429D02*
X604524Y-10920952D01*
X604524Y-10920952D02*
X585476Y-10930476D01*
X585476Y-10930476D02*
X566429Y-10930476D01*
X566429Y-10930476D02*
X547381Y-10920952D01*
X547381Y-10920952D02*
X537857Y-10911429D01*
X537857Y-10911429D02*
X528333Y-10892381D01*
X528333Y-10892381D02*
X518809Y-10854286D01*
X518809Y-10854286D02*
X518809Y-10806667D01*
X518809Y-10806667D02*
X528333Y-10768571D01*
X528333Y-10768571D02*
X537857Y-10749524D01*
X537857Y-10749524D02*
X547381Y-10740000D01*
X547381Y-10740000D02*
X566429Y-10730476D01*
X756905Y-10730476D02*
X775952Y-10730476D01*
X775952Y-10730476D02*
X795000Y-10740000D01*
X795000Y-10740000D02*
X804524Y-10749524D01*
X804524Y-10749524D02*
X814048Y-10768571D01*
X814048Y-10768571D02*
X823571Y-10806667D01*
X823571Y-10806667D02*
X823571Y-10854286D01*
X823571Y-10854286D02*
X814048Y-10892381D01*
X814048Y-10892381D02*
X804524Y-10911429D01*
X804524Y-10911429D02*
X795000Y-10920952D01*
X795000Y-10920952D02*
X775952Y-10930476D01*
X775952Y-10930476D02*
X756905Y-10930476D01*
X756905Y-10930476D02*
X737857Y-10920952D01*
X737857Y-10920952D02*
X728333Y-10911429D01*
X728333Y-10911429D02*
X718809Y-10892381D01*
X718809Y-10892381D02*
X709286Y-10854286D01*
X709286Y-10854286D02*
X709286Y-10806667D01*
X709286Y-10806667D02*
X718809Y-10768571D01*
X718809Y-10768571D02*
X728333Y-10749524D01*
X728333Y-10749524D02*
X737857Y-10740000D01*
X737857Y-10740000D02*
X756905Y-10730476D01*
X947381Y-10730476D02*
X966429Y-10730476D01*
X966429Y-10730476D02*
X985476Y-10740000D01*
X985476Y-10740000D02*
X995000Y-10749524D01*
X995000Y-10749524D02*
X1004524Y-10768571D01*
X1004524Y-10768571D02*
X1014048Y-10806667D01*
X1014048Y-10806667D02*
X1014048Y-10854286D01*
X1014048Y-10854286D02*
X1004524Y-10892381D01*
X1004524Y-10892381D02*
X995000Y-10911429D01*
X995000Y-10911429D02*
X985476Y-10920952D01*
X985476Y-10920952D02*
X966429Y-10930476D01*
X966429Y-10930476D02*
X947381Y-10930476D01*
X947381Y-10930476D02*
X928333Y-10920952D01*
X928333Y-10920952D02*
X918809Y-10911429D01*
X918809Y-10911429D02*
X909286Y-10892381D01*
X909286Y-10892381D02*
X899762Y-10854286D01*
X899762Y-10854286D02*
X899762Y-10806667D01*
X899762Y-10806667D02*
X909286Y-10768571D01*
X909286Y-10768571D02*
X918809Y-10749524D01*
X918809Y-10749524D02*
X928333Y-10740000D01*
X928333Y-10740000D02*
X947381Y-10730476D01*
X1099762Y-10930476D02*
X1099762Y-10797143D01*
X1099762Y-10816190D02*
X1109286Y-10806667D01*
X1109286Y-10806667D02*
X1128333Y-10797143D01*
X1128333Y-10797143D02*
X1156905Y-10797143D01*
X1156905Y-10797143D02*
X1175952Y-10806667D01*
X1175952Y-10806667D02*
X1185476Y-10825714D01*
X1185476Y-10825714D02*
X1185476Y-10930476D01*
X1185476Y-10825714D02*
X1195000Y-10806667D01*
X1195000Y-10806667D02*
X1214048Y-10797143D01*
X1214048Y-10797143D02*
X1242619Y-10797143D01*
X1242619Y-10797143D02*
X1261667Y-10806667D01*
X1261667Y-10806667D02*
X1271191Y-10825714D01*
X1271191Y-10825714D02*
X1271191Y-10930476D01*
X1366429Y-10930476D02*
X1366429Y-10797143D01*
X1366429Y-10816190D02*
X1375952Y-10806667D01*
X1375952Y-10806667D02*
X1395000Y-10797143D01*
X1395000Y-10797143D02*
X1423571Y-10797143D01*
X1423571Y-10797143D02*
X1442619Y-10806667D01*
X1442619Y-10806667D02*
X1452143Y-10825714D01*
X1452143Y-10825714D02*
X1452143Y-10930476D01*
X1452143Y-10825714D02*
X1461667Y-10806667D01*
X1461667Y-10806667D02*
X1480714Y-10797143D01*
X1480714Y-10797143D02*
X1509286Y-10797143D01*
X1509286Y-10797143D02*
X1528333Y-10806667D01*
X1528333Y-10806667D02*
X1537857Y-10825714D01*
X1537857Y-10825714D02*
X1537857Y-10930476D01*
X1895952Y-10720952D02*
X1724524Y-10978095D01*
X2120714Y-10730476D02*
X2139762Y-10730476D01*
X2139762Y-10730476D02*
X2158810Y-10740000D01*
X2158810Y-10740000D02*
X2168333Y-10749524D01*
X2168333Y-10749524D02*
X2177857Y-10768571D01*
X2177857Y-10768571D02*
X2187381Y-10806667D01*
X2187381Y-10806667D02*
X2187381Y-10854286D01*
X2187381Y-10854286D02*
X2177857Y-10892381D01*
X2177857Y-10892381D02*
X2168333Y-10911429D01*
X2168333Y-10911429D02*
X2158810Y-10920952D01*
X2158810Y-10920952D02*
X2139762Y-10930476D01*
X2139762Y-10930476D02*
X2120714Y-10930476D01*
X2120714Y-10930476D02*
X2101667Y-10920952D01*
X2101667Y-10920952D02*
X2092143Y-10911429D01*
X2092143Y-10911429D02*
X2082619Y-10892381D01*
X2082619Y-10892381D02*
X2073095Y-10854286D01*
X2073095Y-10854286D02*
X2073095Y-10806667D01*
X2073095Y-10806667D02*
X2082619Y-10768571D01*
X2082619Y-10768571D02*
X2092143Y-10749524D01*
X2092143Y-10749524D02*
X2101667Y-10740000D01*
X2101667Y-10740000D02*
X2120714Y-10730476D01*
X2273095Y-10911429D02*
X2282619Y-10920952D01*
X2282619Y-10920952D02*
X2273095Y-10930476D01*
X2273095Y-10930476D02*
X2263572Y-10920952D01*
X2263572Y-10920952D02*
X2273095Y-10911429D01*
X2273095Y-10911429D02*
X2273095Y-10930476D01*
X2473095Y-10930476D02*
X2358810Y-10930476D01*
X2415952Y-10930476D02*
X2415952Y-10730476D01*
X2415952Y-10730476D02*
X2396905Y-10759048D01*
X2396905Y-10759048D02*
X2377857Y-10778095D01*
X2377857Y-10778095D02*
X2358810Y-10787619D01*
X2663572Y-10930476D02*
X2549286Y-10930476D01*
X2606429Y-10930476D02*
X2606429Y-10730476D01*
X2606429Y-10730476D02*
X2587381Y-10759048D01*
X2587381Y-10759048D02*
X2568333Y-10778095D01*
X2568333Y-10778095D02*
X2549286Y-10787619D01*
X2777857Y-10816190D02*
X2758810Y-10806667D01*
X2758810Y-10806667D02*
X2749286Y-10797143D01*
X2749286Y-10797143D02*
X2739762Y-10778095D01*
X2739762Y-10778095D02*
X2739762Y-10768571D01*
X2739762Y-10768571D02*
X2749286Y-10749524D01*
X2749286Y-10749524D02*
X2758810Y-10740000D01*
X2758810Y-10740000D02*
X2777857Y-10730476D01*
X2777857Y-10730476D02*
X2815952Y-10730476D01*
X2815952Y-10730476D02*
X2835000Y-10740000D01*
X2835000Y-10740000D02*
X2844524Y-10749524D01*
X2844524Y-10749524D02*
X2854048Y-10768571D01*
X2854048Y-10768571D02*
X2854048Y-10778095D01*
X2854048Y-10778095D02*
X2844524Y-10797143D01*
X2844524Y-10797143D02*
X2835000Y-10806667D01*
X2835000Y-10806667D02*
X2815952Y-10816190D01*
X2815952Y-10816190D02*
X2777857Y-10816190D01*
X2777857Y-10816190D02*
X2758810Y-10825714D01*
X2758810Y-10825714D02*
X2749286Y-10835238D01*
X2749286Y-10835238D02*
X2739762Y-10854286D01*
X2739762Y-10854286D02*
X2739762Y-10892381D01*
X2739762Y-10892381D02*
X2749286Y-10911429D01*
X2749286Y-10911429D02*
X2758810Y-10920952D01*
X2758810Y-10920952D02*
X2777857Y-10930476D01*
X2777857Y-10930476D02*
X2815952Y-10930476D01*
X2815952Y-10930476D02*
X2835000Y-10920952D01*
X2835000Y-10920952D02*
X2844524Y-10911429D01*
X2844524Y-10911429D02*
X2854048Y-10892381D01*
X2854048Y-10892381D02*
X2854048Y-10854286D01*
X2854048Y-10854286D02*
X2844524Y-10835238D01*
X2844524Y-10835238D02*
X2835000Y-10825714D01*
X2835000Y-10825714D02*
X2815952Y-10816190D01*
X3044524Y-10930476D02*
X2930238Y-10930476D01*
X2987381Y-10930476D02*
X2987381Y-10730476D01*
X2987381Y-10730476D02*
X2968333Y-10759048D01*
X2968333Y-10759048D02*
X2949286Y-10778095D01*
X2949286Y-10778095D02*
X2930238Y-10787619D01*
X3120714Y-10730476D02*
X3120714Y-10768571D01*
X3196905Y-10730476D02*
X3196905Y-10768571D01*
X3459762Y-11006667D02*
X3450238Y-10997143D01*
X3450238Y-10997143D02*
X3431191Y-10968571D01*
X3431191Y-10968571D02*
X3421667Y-10949524D01*
X3421667Y-10949524D02*
X3412143Y-10920952D01*
X3412143Y-10920952D02*
X3402619Y-10873333D01*
X3402619Y-10873333D02*
X3402619Y-10835238D01*
X3402619Y-10835238D02*
X3412143Y-10787619D01*
X3412143Y-10787619D02*
X3421667Y-10759048D01*
X3421667Y-10759048D02*
X3431191Y-10740000D01*
X3431191Y-10740000D02*
X3450238Y-10711429D01*
X3450238Y-10711429D02*
X3459762Y-10701905D01*
X3631191Y-10730476D02*
X3535952Y-10730476D01*
X3535952Y-10730476D02*
X3526429Y-10825714D01*
X3526429Y-10825714D02*
X3535952Y-10816190D01*
X3535952Y-10816190D02*
X3555000Y-10806667D01*
X3555000Y-10806667D02*
X3602619Y-10806667D01*
X3602619Y-10806667D02*
X3621667Y-10816190D01*
X3621667Y-10816190D02*
X3631191Y-10825714D01*
X3631191Y-10825714D02*
X3640714Y-10844762D01*
X3640714Y-10844762D02*
X3640714Y-10892381D01*
X3640714Y-10892381D02*
X3631191Y-10911429D01*
X3631191Y-10911429D02*
X3621667Y-10920952D01*
X3621667Y-10920952D02*
X3602619Y-10930476D01*
X3602619Y-10930476D02*
X3555000Y-10930476D01*
X3555000Y-10930476D02*
X3535952Y-10920952D01*
X3535952Y-10920952D02*
X3526429Y-10911429D01*
X3764524Y-10730476D02*
X3783572Y-10730476D01*
X3783572Y-10730476D02*
X3802619Y-10740000D01*
X3802619Y-10740000D02*
X3812143Y-10749524D01*
X3812143Y-10749524D02*
X3821667Y-10768571D01*
X3821667Y-10768571D02*
X3831191Y-10806667D01*
X3831191Y-10806667D02*
X3831191Y-10854286D01*
X3831191Y-10854286D02*
X3821667Y-10892381D01*
X3821667Y-10892381D02*
X3812143Y-10911429D01*
X3812143Y-10911429D02*
X3802619Y-10920952D01*
X3802619Y-10920952D02*
X3783572Y-10930476D01*
X3783572Y-10930476D02*
X3764524Y-10930476D01*
X3764524Y-10930476D02*
X3745476Y-10920952D01*
X3745476Y-10920952D02*
X3735952Y-10911429D01*
X3735952Y-10911429D02*
X3726429Y-10892381D01*
X3726429Y-10892381D02*
X3716905Y-10854286D01*
X3716905Y-10854286D02*
X3716905Y-10806667D01*
X3716905Y-10806667D02*
X3726429Y-10768571D01*
X3726429Y-10768571D02*
X3735952Y-10749524D01*
X3735952Y-10749524D02*
X3745476Y-10740000D01*
X3745476Y-10740000D02*
X3764524Y-10730476D01*
X4036905Y-10930476D02*
X4036905Y-10730476D01*
X4122619Y-10930476D02*
X4122619Y-10825714D01*
X4122619Y-10825714D02*
X4113095Y-10806667D01*
X4113095Y-10806667D02*
X4094048Y-10797143D01*
X4094048Y-10797143D02*
X4065476Y-10797143D01*
X4065476Y-10797143D02*
X4046429Y-10806667D01*
X4046429Y-10806667D02*
X4036905Y-10816190D01*
X4246429Y-10930476D02*
X4227381Y-10920952D01*
X4227381Y-10920952D02*
X4217857Y-10911429D01*
X4217857Y-10911429D02*
X4208334Y-10892381D01*
X4208334Y-10892381D02*
X4208334Y-10835238D01*
X4208334Y-10835238D02*
X4217857Y-10816190D01*
X4217857Y-10816190D02*
X4227381Y-10806667D01*
X4227381Y-10806667D02*
X4246429Y-10797143D01*
X4246429Y-10797143D02*
X4275000Y-10797143D01*
X4275000Y-10797143D02*
X4294048Y-10806667D01*
X4294048Y-10806667D02*
X4303572Y-10816190D01*
X4303572Y-10816190D02*
X4313095Y-10835238D01*
X4313095Y-10835238D02*
X4313095Y-10892381D01*
X4313095Y-10892381D02*
X4303572Y-10911429D01*
X4303572Y-10911429D02*
X4294048Y-10920952D01*
X4294048Y-10920952D02*
X4275000Y-10930476D01*
X4275000Y-10930476D02*
X4246429Y-10930476D01*
X4427381Y-10930476D02*
X4408334Y-10920952D01*
X4408334Y-10920952D02*
X4398810Y-10901905D01*
X4398810Y-10901905D02*
X4398810Y-10730476D01*
X4579762Y-10920952D02*
X4560715Y-10930476D01*
X4560715Y-10930476D02*
X4522619Y-10930476D01*
X4522619Y-10930476D02*
X4503572Y-10920952D01*
X4503572Y-10920952D02*
X4494048Y-10901905D01*
X4494048Y-10901905D02*
X4494048Y-10825714D01*
X4494048Y-10825714D02*
X4503572Y-10806667D01*
X4503572Y-10806667D02*
X4522619Y-10797143D01*
X4522619Y-10797143D02*
X4560715Y-10797143D01*
X4560715Y-10797143D02*
X4579762Y-10806667D01*
X4579762Y-10806667D02*
X4589286Y-10825714D01*
X4589286Y-10825714D02*
X4589286Y-10844762D01*
X4589286Y-10844762D02*
X4494048Y-10863810D01*
X4665476Y-10920952D02*
X4684524Y-10930476D01*
X4684524Y-10930476D02*
X4722619Y-10930476D01*
X4722619Y-10930476D02*
X4741667Y-10920952D01*
X4741667Y-10920952D02*
X4751191Y-10901905D01*
X4751191Y-10901905D02*
X4751191Y-10892381D01*
X4751191Y-10892381D02*
X4741667Y-10873333D01*
X4741667Y-10873333D02*
X4722619Y-10863810D01*
X4722619Y-10863810D02*
X4694048Y-10863810D01*
X4694048Y-10863810D02*
X4675000Y-10854286D01*
X4675000Y-10854286D02*
X4665476Y-10835238D01*
X4665476Y-10835238D02*
X4665476Y-10825714D01*
X4665476Y-10825714D02*
X4675000Y-10806667D01*
X4675000Y-10806667D02*
X4694048Y-10797143D01*
X4694048Y-10797143D02*
X4722619Y-10797143D01*
X4722619Y-10797143D02*
X4741667Y-10806667D01*
X4817857Y-11006667D02*
X4827381Y-10997143D01*
X4827381Y-10997143D02*
X4846429Y-10968571D01*
X4846429Y-10968571D02*
X4855953Y-10949524D01*
X4855953Y-10949524D02*
X4865476Y-10920952D01*
X4865476Y-10920952D02*
X4875000Y-10873333D01*
X4875000Y-10873333D02*
X4875000Y-10835238D01*
X4875000Y-10835238D02*
X4865476Y-10787619D01*
X4865476Y-10787619D02*
X4855953Y-10759048D01*
X4855953Y-10759048D02*
X4846429Y-10740000D01*
X4846429Y-10740000D02*
X4827381Y-10711429D01*
X4827381Y-10711429D02*
X4817857Y-10701905D01*
D16*
X-37500Y-11209500D02*
X-5000Y-11177000D01*
X-37500Y-11144500D01*
X-70000Y-11177000D01*
X-37500Y-11209500D01*
D11*
X280714Y-11050476D02*
X299762Y-11050476D01*
X299762Y-11050476D02*
X318810Y-11060000D01*
X318810Y-11060000D02*
X328333Y-11069524D01*
X328333Y-11069524D02*
X337857Y-11088571D01*
X337857Y-11088571D02*
X347381Y-11126667D01*
X347381Y-11126667D02*
X347381Y-11174286D01*
X347381Y-11174286D02*
X337857Y-11212381D01*
X337857Y-11212381D02*
X328333Y-11231428D01*
X328333Y-11231428D02*
X318810Y-11240952D01*
X318810Y-11240952D02*
X299762Y-11250476D01*
X299762Y-11250476D02*
X280714Y-11250476D01*
X280714Y-11250476D02*
X261667Y-11240952D01*
X261667Y-11240952D02*
X252143Y-11231428D01*
X252143Y-11231428D02*
X242619Y-11212381D01*
X242619Y-11212381D02*
X233095Y-11174286D01*
X233095Y-11174286D02*
X233095Y-11126667D01*
X233095Y-11126667D02*
X242619Y-11088571D01*
X242619Y-11088571D02*
X252143Y-11069524D01*
X252143Y-11069524D02*
X261667Y-11060000D01*
X261667Y-11060000D02*
X280714Y-11050476D01*
X433095Y-11231428D02*
X442619Y-11240952D01*
X442619Y-11240952D02*
X433095Y-11250476D01*
X433095Y-11250476D02*
X423571Y-11240952D01*
X423571Y-11240952D02*
X433095Y-11231428D01*
X433095Y-11231428D02*
X433095Y-11250476D01*
X614048Y-11050476D02*
X575952Y-11050476D01*
X575952Y-11050476D02*
X556905Y-11060000D01*
X556905Y-11060000D02*
X547381Y-11069524D01*
X547381Y-11069524D02*
X528333Y-11098095D01*
X528333Y-11098095D02*
X518809Y-11136190D01*
X518809Y-11136190D02*
X518809Y-11212381D01*
X518809Y-11212381D02*
X528333Y-11231428D01*
X528333Y-11231428D02*
X537857Y-11240952D01*
X537857Y-11240952D02*
X556905Y-11250476D01*
X556905Y-11250476D02*
X595000Y-11250476D01*
X595000Y-11250476D02*
X614048Y-11240952D01*
X614048Y-11240952D02*
X623571Y-11231428D01*
X623571Y-11231428D02*
X633095Y-11212381D01*
X633095Y-11212381D02*
X633095Y-11164762D01*
X633095Y-11164762D02*
X623571Y-11145714D01*
X623571Y-11145714D02*
X614048Y-11136190D01*
X614048Y-11136190D02*
X595000Y-11126667D01*
X595000Y-11126667D02*
X556905Y-11126667D01*
X556905Y-11126667D02*
X537857Y-11136190D01*
X537857Y-11136190D02*
X528333Y-11145714D01*
X528333Y-11145714D02*
X518809Y-11164762D01*
X814048Y-11050476D02*
X718809Y-11050476D01*
X718809Y-11050476D02*
X709286Y-11145714D01*
X709286Y-11145714D02*
X718809Y-11136190D01*
X718809Y-11136190D02*
X737857Y-11126667D01*
X737857Y-11126667D02*
X785476Y-11126667D01*
X785476Y-11126667D02*
X804524Y-11136190D01*
X804524Y-11136190D02*
X814048Y-11145714D01*
X814048Y-11145714D02*
X823571Y-11164762D01*
X823571Y-11164762D02*
X823571Y-11212381D01*
X823571Y-11212381D02*
X814048Y-11231428D01*
X814048Y-11231428D02*
X804524Y-11240952D01*
X804524Y-11240952D02*
X785476Y-11250476D01*
X785476Y-11250476D02*
X737857Y-11250476D01*
X737857Y-11250476D02*
X718809Y-11240952D01*
X718809Y-11240952D02*
X709286Y-11231428D01*
X947381Y-11050476D02*
X966429Y-11050476D01*
X966429Y-11050476D02*
X985476Y-11060000D01*
X985476Y-11060000D02*
X995000Y-11069524D01*
X995000Y-11069524D02*
X1004524Y-11088571D01*
X1004524Y-11088571D02*
X1014048Y-11126667D01*
X1014048Y-11126667D02*
X1014048Y-11174286D01*
X1014048Y-11174286D02*
X1004524Y-11212381D01*
X1004524Y-11212381D02*
X995000Y-11231428D01*
X995000Y-11231428D02*
X985476Y-11240952D01*
X985476Y-11240952D02*
X966429Y-11250476D01*
X966429Y-11250476D02*
X947381Y-11250476D01*
X947381Y-11250476D02*
X928333Y-11240952D01*
X928333Y-11240952D02*
X918809Y-11231428D01*
X918809Y-11231428D02*
X909286Y-11212381D01*
X909286Y-11212381D02*
X899762Y-11174286D01*
X899762Y-11174286D02*
X899762Y-11126667D01*
X899762Y-11126667D02*
X909286Y-11088571D01*
X909286Y-11088571D02*
X918809Y-11069524D01*
X918809Y-11069524D02*
X928333Y-11060000D01*
X928333Y-11060000D02*
X947381Y-11050476D01*
X1099762Y-11250476D02*
X1099762Y-11117143D01*
X1099762Y-11136190D02*
X1109286Y-11126667D01*
X1109286Y-11126667D02*
X1128333Y-11117143D01*
X1128333Y-11117143D02*
X1156905Y-11117143D01*
X1156905Y-11117143D02*
X1175952Y-11126667D01*
X1175952Y-11126667D02*
X1185476Y-11145714D01*
X1185476Y-11145714D02*
X1185476Y-11250476D01*
X1185476Y-11145714D02*
X1195000Y-11126667D01*
X1195000Y-11126667D02*
X1214048Y-11117143D01*
X1214048Y-11117143D02*
X1242619Y-11117143D01*
X1242619Y-11117143D02*
X1261667Y-11126667D01*
X1261667Y-11126667D02*
X1271191Y-11145714D01*
X1271191Y-11145714D02*
X1271191Y-11250476D01*
X1366429Y-11250476D02*
X1366429Y-11117143D01*
X1366429Y-11136190D02*
X1375952Y-11126667D01*
X1375952Y-11126667D02*
X1395000Y-11117143D01*
X1395000Y-11117143D02*
X1423571Y-11117143D01*
X1423571Y-11117143D02*
X1442619Y-11126667D01*
X1442619Y-11126667D02*
X1452143Y-11145714D01*
X1452143Y-11145714D02*
X1452143Y-11250476D01*
X1452143Y-11145714D02*
X1461667Y-11126667D01*
X1461667Y-11126667D02*
X1480714Y-11117143D01*
X1480714Y-11117143D02*
X1509286Y-11117143D01*
X1509286Y-11117143D02*
X1528333Y-11126667D01*
X1528333Y-11126667D02*
X1537857Y-11145714D01*
X1537857Y-11145714D02*
X1537857Y-11250476D01*
X1895952Y-11040952D02*
X1724524Y-11298095D01*
X2120714Y-11050476D02*
X2139762Y-11050476D01*
X2139762Y-11050476D02*
X2158810Y-11060000D01*
X2158810Y-11060000D02*
X2168333Y-11069524D01*
X2168333Y-11069524D02*
X2177857Y-11088571D01*
X2177857Y-11088571D02*
X2187381Y-11126667D01*
X2187381Y-11126667D02*
X2187381Y-11174286D01*
X2187381Y-11174286D02*
X2177857Y-11212381D01*
X2177857Y-11212381D02*
X2168333Y-11231428D01*
X2168333Y-11231428D02*
X2158810Y-11240952D01*
X2158810Y-11240952D02*
X2139762Y-11250476D01*
X2139762Y-11250476D02*
X2120714Y-11250476D01*
X2120714Y-11250476D02*
X2101667Y-11240952D01*
X2101667Y-11240952D02*
X2092143Y-11231428D01*
X2092143Y-11231428D02*
X2082619Y-11212381D01*
X2082619Y-11212381D02*
X2073095Y-11174286D01*
X2073095Y-11174286D02*
X2073095Y-11126667D01*
X2073095Y-11126667D02*
X2082619Y-11088571D01*
X2082619Y-11088571D02*
X2092143Y-11069524D01*
X2092143Y-11069524D02*
X2101667Y-11060000D01*
X2101667Y-11060000D02*
X2120714Y-11050476D01*
X2273095Y-11231428D02*
X2282619Y-11240952D01*
X2282619Y-11240952D02*
X2273095Y-11250476D01*
X2273095Y-11250476D02*
X2263572Y-11240952D01*
X2263572Y-11240952D02*
X2273095Y-11231428D01*
X2273095Y-11231428D02*
X2273095Y-11250476D01*
X2406429Y-11050476D02*
X2425476Y-11050476D01*
X2425476Y-11050476D02*
X2444524Y-11060000D01*
X2444524Y-11060000D02*
X2454048Y-11069524D01*
X2454048Y-11069524D02*
X2463572Y-11088571D01*
X2463572Y-11088571D02*
X2473095Y-11126667D01*
X2473095Y-11126667D02*
X2473095Y-11174286D01*
X2473095Y-11174286D02*
X2463572Y-11212381D01*
X2463572Y-11212381D02*
X2454048Y-11231428D01*
X2454048Y-11231428D02*
X2444524Y-11240952D01*
X2444524Y-11240952D02*
X2425476Y-11250476D01*
X2425476Y-11250476D02*
X2406429Y-11250476D01*
X2406429Y-11250476D02*
X2387381Y-11240952D01*
X2387381Y-11240952D02*
X2377857Y-11231428D01*
X2377857Y-11231428D02*
X2368333Y-11212381D01*
X2368333Y-11212381D02*
X2358810Y-11174286D01*
X2358810Y-11174286D02*
X2358810Y-11126667D01*
X2358810Y-11126667D02*
X2368333Y-11088571D01*
X2368333Y-11088571D02*
X2377857Y-11069524D01*
X2377857Y-11069524D02*
X2387381Y-11060000D01*
X2387381Y-11060000D02*
X2406429Y-11050476D01*
X2549286Y-11069524D02*
X2558810Y-11060000D01*
X2558810Y-11060000D02*
X2577857Y-11050476D01*
X2577857Y-11050476D02*
X2625476Y-11050476D01*
X2625476Y-11050476D02*
X2644524Y-11060000D01*
X2644524Y-11060000D02*
X2654048Y-11069524D01*
X2654048Y-11069524D02*
X2663572Y-11088571D01*
X2663572Y-11088571D02*
X2663572Y-11107619D01*
X2663572Y-11107619D02*
X2654048Y-11136190D01*
X2654048Y-11136190D02*
X2539762Y-11250476D01*
X2539762Y-11250476D02*
X2663572Y-11250476D01*
X2844524Y-11050476D02*
X2749286Y-11050476D01*
X2749286Y-11050476D02*
X2739762Y-11145714D01*
X2739762Y-11145714D02*
X2749286Y-11136190D01*
X2749286Y-11136190D02*
X2768333Y-11126667D01*
X2768333Y-11126667D02*
X2815952Y-11126667D01*
X2815952Y-11126667D02*
X2835000Y-11136190D01*
X2835000Y-11136190D02*
X2844524Y-11145714D01*
X2844524Y-11145714D02*
X2854048Y-11164762D01*
X2854048Y-11164762D02*
X2854048Y-11212381D01*
X2854048Y-11212381D02*
X2844524Y-11231428D01*
X2844524Y-11231428D02*
X2835000Y-11240952D01*
X2835000Y-11240952D02*
X2815952Y-11250476D01*
X2815952Y-11250476D02*
X2768333Y-11250476D01*
X2768333Y-11250476D02*
X2749286Y-11240952D01*
X2749286Y-11240952D02*
X2739762Y-11231428D01*
X3025476Y-11050476D02*
X2987381Y-11050476D01*
X2987381Y-11050476D02*
X2968333Y-11060000D01*
X2968333Y-11060000D02*
X2958810Y-11069524D01*
X2958810Y-11069524D02*
X2939762Y-11098095D01*
X2939762Y-11098095D02*
X2930238Y-11136190D01*
X2930238Y-11136190D02*
X2930238Y-11212381D01*
X2930238Y-11212381D02*
X2939762Y-11231428D01*
X2939762Y-11231428D02*
X2949286Y-11240952D01*
X2949286Y-11240952D02*
X2968333Y-11250476D01*
X2968333Y-11250476D02*
X3006429Y-11250476D01*
X3006429Y-11250476D02*
X3025476Y-11240952D01*
X3025476Y-11240952D02*
X3035000Y-11231428D01*
X3035000Y-11231428D02*
X3044524Y-11212381D01*
X3044524Y-11212381D02*
X3044524Y-11164762D01*
X3044524Y-11164762D02*
X3035000Y-11145714D01*
X3035000Y-11145714D02*
X3025476Y-11136190D01*
X3025476Y-11136190D02*
X3006429Y-11126667D01*
X3006429Y-11126667D02*
X2968333Y-11126667D01*
X2968333Y-11126667D02*
X2949286Y-11136190D01*
X2949286Y-11136190D02*
X2939762Y-11145714D01*
X2939762Y-11145714D02*
X2930238Y-11164762D01*
X3120714Y-11050476D02*
X3120714Y-11088571D01*
X3196905Y-11050476D02*
X3196905Y-11088571D01*
X3459762Y-11326667D02*
X3450238Y-11317143D01*
X3450238Y-11317143D02*
X3431191Y-11288571D01*
X3431191Y-11288571D02*
X3421667Y-11269524D01*
X3421667Y-11269524D02*
X3412143Y-11240952D01*
X3412143Y-11240952D02*
X3402619Y-11193333D01*
X3402619Y-11193333D02*
X3402619Y-11155238D01*
X3402619Y-11155238D02*
X3412143Y-11107619D01*
X3412143Y-11107619D02*
X3421667Y-11079048D01*
X3421667Y-11079048D02*
X3431191Y-11060000D01*
X3431191Y-11060000D02*
X3450238Y-11031429D01*
X3450238Y-11031429D02*
X3459762Y-11021905D01*
X3526429Y-11069524D02*
X3535952Y-11060000D01*
X3535952Y-11060000D02*
X3555000Y-11050476D01*
X3555000Y-11050476D02*
X3602619Y-11050476D01*
X3602619Y-11050476D02*
X3621667Y-11060000D01*
X3621667Y-11060000D02*
X3631191Y-11069524D01*
X3631191Y-11069524D02*
X3640714Y-11088571D01*
X3640714Y-11088571D02*
X3640714Y-11107619D01*
X3640714Y-11107619D02*
X3631191Y-11136190D01*
X3631191Y-11136190D02*
X3516905Y-11250476D01*
X3516905Y-11250476D02*
X3640714Y-11250476D01*
X3846429Y-11250476D02*
X3846429Y-11050476D01*
X3932143Y-11250476D02*
X3932143Y-11145714D01*
X3932143Y-11145714D02*
X3922619Y-11126667D01*
X3922619Y-11126667D02*
X3903572Y-11117143D01*
X3903572Y-11117143D02*
X3875000Y-11117143D01*
X3875000Y-11117143D02*
X3855952Y-11126667D01*
X3855952Y-11126667D02*
X3846429Y-11136190D01*
X4055952Y-11250476D02*
X4036905Y-11240952D01*
X4036905Y-11240952D02*
X4027381Y-11231428D01*
X4027381Y-11231428D02*
X4017857Y-11212381D01*
X4017857Y-11212381D02*
X4017857Y-11155238D01*
X4017857Y-11155238D02*
X4027381Y-11136190D01*
X4027381Y-11136190D02*
X4036905Y-11126667D01*
X4036905Y-11126667D02*
X4055952Y-11117143D01*
X4055952Y-11117143D02*
X4084524Y-11117143D01*
X4084524Y-11117143D02*
X4103572Y-11126667D01*
X4103572Y-11126667D02*
X4113095Y-11136190D01*
X4113095Y-11136190D02*
X4122619Y-11155238D01*
X4122619Y-11155238D02*
X4122619Y-11212381D01*
X4122619Y-11212381D02*
X4113095Y-11231428D01*
X4113095Y-11231428D02*
X4103572Y-11240952D01*
X4103572Y-11240952D02*
X4084524Y-11250476D01*
X4084524Y-11250476D02*
X4055952Y-11250476D01*
X4236905Y-11250476D02*
X4217857Y-11240952D01*
X4217857Y-11240952D02*
X4208334Y-11221905D01*
X4208334Y-11221905D02*
X4208334Y-11050476D01*
X4389286Y-11240952D02*
X4370238Y-11250476D01*
X4370238Y-11250476D02*
X4332143Y-11250476D01*
X4332143Y-11250476D02*
X4313095Y-11240952D01*
X4313095Y-11240952D02*
X4303572Y-11221905D01*
X4303572Y-11221905D02*
X4303572Y-11145714D01*
X4303572Y-11145714D02*
X4313095Y-11126667D01*
X4313095Y-11126667D02*
X4332143Y-11117143D01*
X4332143Y-11117143D02*
X4370238Y-11117143D01*
X4370238Y-11117143D02*
X4389286Y-11126667D01*
X4389286Y-11126667D02*
X4398810Y-11145714D01*
X4398810Y-11145714D02*
X4398810Y-11164762D01*
X4398810Y-11164762D02*
X4303572Y-11183810D01*
X4475000Y-11240952D02*
X4494048Y-11250476D01*
X4494048Y-11250476D02*
X4532143Y-11250476D01*
X4532143Y-11250476D02*
X4551191Y-11240952D01*
X4551191Y-11240952D02*
X4560715Y-11221905D01*
X4560715Y-11221905D02*
X4560715Y-11212381D01*
X4560715Y-11212381D02*
X4551191Y-11193333D01*
X4551191Y-11193333D02*
X4532143Y-11183810D01*
X4532143Y-11183810D02*
X4503572Y-11183810D01*
X4503572Y-11183810D02*
X4484524Y-11174286D01*
X4484524Y-11174286D02*
X4475000Y-11155238D01*
X4475000Y-11155238D02*
X4475000Y-11145714D01*
X4475000Y-11145714D02*
X4484524Y-11126667D01*
X4484524Y-11126667D02*
X4503572Y-11117143D01*
X4503572Y-11117143D02*
X4532143Y-11117143D01*
X4532143Y-11117143D02*
X4551191Y-11126667D01*
X4627381Y-11326667D02*
X4636905Y-11317143D01*
X4636905Y-11317143D02*
X4655953Y-11288571D01*
X4655953Y-11288571D02*
X4665476Y-11269524D01*
X4665476Y-11269524D02*
X4675000Y-11240952D01*
X4675000Y-11240952D02*
X4684524Y-11193333D01*
X4684524Y-11193333D02*
X4684524Y-11155238D01*
X4684524Y-11155238D02*
X4675000Y-11107619D01*
X4675000Y-11107619D02*
X4665476Y-11079048D01*
X4665476Y-11079048D02*
X4655953Y-11060000D01*
X4655953Y-11060000D02*
X4636905Y-11031429D01*
X4636905Y-11031429D02*
X4627381Y-11021905D01*
X4956905Y-11326667D02*
X4947381Y-11317143D01*
X4947381Y-11317143D02*
X4928334Y-11288571D01*
X4928334Y-11288571D02*
X4918810Y-11269524D01*
X4918810Y-11269524D02*
X4909286Y-11240952D01*
X4909286Y-11240952D02*
X4899762Y-11193333D01*
X4899762Y-11193333D02*
X4899762Y-11155238D01*
X4899762Y-11155238D02*
X4909286Y-11107619D01*
X4909286Y-11107619D02*
X4918810Y-11079048D01*
X4918810Y-11079048D02*
X4928334Y-11060000D01*
X4928334Y-11060000D02*
X4947381Y-11031429D01*
X4947381Y-11031429D02*
X4956905Y-11021905D01*
X5033095Y-11117143D02*
X5033095Y-11250476D01*
X5033095Y-11136190D02*
X5042619Y-11126667D01*
X5042619Y-11126667D02*
X5061667Y-11117143D01*
X5061667Y-11117143D02*
X5090238Y-11117143D01*
X5090238Y-11117143D02*
X5109286Y-11126667D01*
X5109286Y-11126667D02*
X5118810Y-11145714D01*
X5118810Y-11145714D02*
X5118810Y-11250476D01*
X5242619Y-11250476D02*
X5223572Y-11240952D01*
X5223572Y-11240952D02*
X5214048Y-11231428D01*
X5214048Y-11231428D02*
X5204524Y-11212381D01*
X5204524Y-11212381D02*
X5204524Y-11155238D01*
X5204524Y-11155238D02*
X5214048Y-11136190D01*
X5214048Y-11136190D02*
X5223572Y-11126667D01*
X5223572Y-11126667D02*
X5242619Y-11117143D01*
X5242619Y-11117143D02*
X5271191Y-11117143D01*
X5271191Y-11117143D02*
X5290238Y-11126667D01*
X5290238Y-11126667D02*
X5299762Y-11136190D01*
X5299762Y-11136190D02*
X5309286Y-11155238D01*
X5309286Y-11155238D02*
X5309286Y-11212381D01*
X5309286Y-11212381D02*
X5299762Y-11231428D01*
X5299762Y-11231428D02*
X5290238Y-11240952D01*
X5290238Y-11240952D02*
X5271191Y-11250476D01*
X5271191Y-11250476D02*
X5242619Y-11250476D01*
X5366429Y-11117143D02*
X5442619Y-11117143D01*
X5395000Y-11050476D02*
X5395000Y-11221905D01*
X5395000Y-11221905D02*
X5404524Y-11240952D01*
X5404524Y-11240952D02*
X5423572Y-11250476D01*
X5423572Y-11250476D02*
X5442619Y-11250476D01*
X5629286Y-11117143D02*
X5629286Y-11317143D01*
X5629286Y-11126667D02*
X5648333Y-11117143D01*
X5648333Y-11117143D02*
X5686429Y-11117143D01*
X5686429Y-11117143D02*
X5705476Y-11126667D01*
X5705476Y-11126667D02*
X5715000Y-11136190D01*
X5715000Y-11136190D02*
X5724524Y-11155238D01*
X5724524Y-11155238D02*
X5724524Y-11212381D01*
X5724524Y-11212381D02*
X5715000Y-11231428D01*
X5715000Y-11231428D02*
X5705476Y-11240952D01*
X5705476Y-11240952D02*
X5686429Y-11250476D01*
X5686429Y-11250476D02*
X5648333Y-11250476D01*
X5648333Y-11250476D02*
X5629286Y-11240952D01*
X5838810Y-11250476D02*
X5819762Y-11240952D01*
X5819762Y-11240952D02*
X5810238Y-11221905D01*
X5810238Y-11221905D02*
X5810238Y-11050476D01*
X6000714Y-11250476D02*
X6000714Y-11145714D01*
X6000714Y-11145714D02*
X5991191Y-11126667D01*
X5991191Y-11126667D02*
X5972143Y-11117143D01*
X5972143Y-11117143D02*
X5934048Y-11117143D01*
X5934048Y-11117143D02*
X5915000Y-11126667D01*
X6000714Y-11240952D02*
X5981667Y-11250476D01*
X5981667Y-11250476D02*
X5934048Y-11250476D01*
X5934048Y-11250476D02*
X5915000Y-11240952D01*
X5915000Y-11240952D02*
X5905476Y-11221905D01*
X5905476Y-11221905D02*
X5905476Y-11202857D01*
X5905476Y-11202857D02*
X5915000Y-11183810D01*
X5915000Y-11183810D02*
X5934048Y-11174286D01*
X5934048Y-11174286D02*
X5981667Y-11174286D01*
X5981667Y-11174286D02*
X6000714Y-11164762D01*
X6067381Y-11117143D02*
X6143572Y-11117143D01*
X6095953Y-11050476D02*
X6095953Y-11221905D01*
X6095953Y-11221905D02*
X6105476Y-11240952D01*
X6105476Y-11240952D02*
X6124524Y-11250476D01*
X6124524Y-11250476D02*
X6143572Y-11250476D01*
X6286429Y-11240952D02*
X6267381Y-11250476D01*
X6267381Y-11250476D02*
X6229286Y-11250476D01*
X6229286Y-11250476D02*
X6210238Y-11240952D01*
X6210238Y-11240952D02*
X6200714Y-11221905D01*
X6200714Y-11221905D02*
X6200714Y-11145714D01*
X6200714Y-11145714D02*
X6210238Y-11126667D01*
X6210238Y-11126667D02*
X6229286Y-11117143D01*
X6229286Y-11117143D02*
X6267381Y-11117143D01*
X6267381Y-11117143D02*
X6286429Y-11126667D01*
X6286429Y-11126667D02*
X6295953Y-11145714D01*
X6295953Y-11145714D02*
X6295953Y-11164762D01*
X6295953Y-11164762D02*
X6200714Y-11183810D01*
X6467381Y-11250476D02*
X6467381Y-11050476D01*
X6467381Y-11240952D02*
X6448334Y-11250476D01*
X6448334Y-11250476D02*
X6410238Y-11250476D01*
X6410238Y-11250476D02*
X6391191Y-11240952D01*
X6391191Y-11240952D02*
X6381667Y-11231428D01*
X6381667Y-11231428D02*
X6372143Y-11212381D01*
X6372143Y-11212381D02*
X6372143Y-11155238D01*
X6372143Y-11155238D02*
X6381667Y-11136190D01*
X6381667Y-11136190D02*
X6391191Y-11126667D01*
X6391191Y-11126667D02*
X6410238Y-11117143D01*
X6410238Y-11117143D02*
X6448334Y-11117143D01*
X6448334Y-11117143D02*
X6467381Y-11126667D01*
X6543572Y-11326667D02*
X6553095Y-11317143D01*
X6553095Y-11317143D02*
X6572143Y-11288571D01*
X6572143Y-11288571D02*
X6581667Y-11269524D01*
X6581667Y-11269524D02*
X6591191Y-11240952D01*
X6591191Y-11240952D02*
X6600714Y-11193333D01*
X6600714Y-11193333D02*
X6600714Y-11155238D01*
X6600714Y-11155238D02*
X6591191Y-11107619D01*
X6591191Y-11107619D02*
X6581667Y-11079048D01*
X6581667Y-11079048D02*
X6572143Y-11060000D01*
X6572143Y-11060000D02*
X6553095Y-11031429D01*
X6553095Y-11031429D02*
X6543572Y-11021905D01*
D17*
X-155000Y-11366000D02*
X-5000Y-11516000D01*
X-5000Y-11366000D02*
X-155000Y-11516000D01*
X-5000Y-11441000D02*
G75*
G03*
X-5000Y-11441000I-75000J0D01*
G01*
D11*
X347381Y-11514476D02*
X233095Y-11514476D01*
X290238Y-11514476D02*
X290238Y-11314476D01*
X290238Y-11314476D02*
X271190Y-11343048D01*
X271190Y-11343048D02*
X252143Y-11362095D01*
X252143Y-11362095D02*
X233095Y-11371619D01*
X433095Y-11495428D02*
X442619Y-11504952D01*
X442619Y-11504952D02*
X433095Y-11514476D01*
X433095Y-11514476D02*
X423571Y-11504952D01*
X423571Y-11504952D02*
X433095Y-11495428D01*
X433095Y-11495428D02*
X433095Y-11514476D01*
X623571Y-11314476D02*
X528333Y-11314476D01*
X528333Y-11314476D02*
X518809Y-11409714D01*
X518809Y-11409714D02*
X528333Y-11400190D01*
X528333Y-11400190D02*
X547381Y-11390667D01*
X547381Y-11390667D02*
X595000Y-11390667D01*
X595000Y-11390667D02*
X614048Y-11400190D01*
X614048Y-11400190D02*
X623571Y-11409714D01*
X623571Y-11409714D02*
X633095Y-11428762D01*
X633095Y-11428762D02*
X633095Y-11476381D01*
X633095Y-11476381D02*
X623571Y-11495428D01*
X623571Y-11495428D02*
X614048Y-11504952D01*
X614048Y-11504952D02*
X595000Y-11514476D01*
X595000Y-11514476D02*
X547381Y-11514476D01*
X547381Y-11514476D02*
X528333Y-11504952D01*
X528333Y-11504952D02*
X518809Y-11495428D01*
X756905Y-11314476D02*
X775952Y-11314476D01*
X775952Y-11314476D02*
X795000Y-11324000D01*
X795000Y-11324000D02*
X804524Y-11333524D01*
X804524Y-11333524D02*
X814048Y-11352571D01*
X814048Y-11352571D02*
X823571Y-11390667D01*
X823571Y-11390667D02*
X823571Y-11438286D01*
X823571Y-11438286D02*
X814048Y-11476381D01*
X814048Y-11476381D02*
X804524Y-11495428D01*
X804524Y-11495428D02*
X795000Y-11504952D01*
X795000Y-11504952D02*
X775952Y-11514476D01*
X775952Y-11514476D02*
X756905Y-11514476D01*
X756905Y-11514476D02*
X737857Y-11504952D01*
X737857Y-11504952D02*
X728333Y-11495428D01*
X728333Y-11495428D02*
X718809Y-11476381D01*
X718809Y-11476381D02*
X709286Y-11438286D01*
X709286Y-11438286D02*
X709286Y-11390667D01*
X709286Y-11390667D02*
X718809Y-11352571D01*
X718809Y-11352571D02*
X728333Y-11333524D01*
X728333Y-11333524D02*
X737857Y-11324000D01*
X737857Y-11324000D02*
X756905Y-11314476D01*
X947381Y-11314476D02*
X966429Y-11314476D01*
X966429Y-11314476D02*
X985476Y-11324000D01*
X985476Y-11324000D02*
X995000Y-11333524D01*
X995000Y-11333524D02*
X1004524Y-11352571D01*
X1004524Y-11352571D02*
X1014048Y-11390667D01*
X1014048Y-11390667D02*
X1014048Y-11438286D01*
X1014048Y-11438286D02*
X1004524Y-11476381D01*
X1004524Y-11476381D02*
X995000Y-11495428D01*
X995000Y-11495428D02*
X985476Y-11504952D01*
X985476Y-11504952D02*
X966429Y-11514476D01*
X966429Y-11514476D02*
X947381Y-11514476D01*
X947381Y-11514476D02*
X928333Y-11504952D01*
X928333Y-11504952D02*
X918809Y-11495428D01*
X918809Y-11495428D02*
X909286Y-11476381D01*
X909286Y-11476381D02*
X899762Y-11438286D01*
X899762Y-11438286D02*
X899762Y-11390667D01*
X899762Y-11390667D02*
X909286Y-11352571D01*
X909286Y-11352571D02*
X918809Y-11333524D01*
X918809Y-11333524D02*
X928333Y-11324000D01*
X928333Y-11324000D02*
X947381Y-11314476D01*
X1099762Y-11514476D02*
X1099762Y-11381143D01*
X1099762Y-11400190D02*
X1109286Y-11390667D01*
X1109286Y-11390667D02*
X1128333Y-11381143D01*
X1128333Y-11381143D02*
X1156905Y-11381143D01*
X1156905Y-11381143D02*
X1175952Y-11390667D01*
X1175952Y-11390667D02*
X1185476Y-11409714D01*
X1185476Y-11409714D02*
X1185476Y-11514476D01*
X1185476Y-11409714D02*
X1195000Y-11390667D01*
X1195000Y-11390667D02*
X1214048Y-11381143D01*
X1214048Y-11381143D02*
X1242619Y-11381143D01*
X1242619Y-11381143D02*
X1261667Y-11390667D01*
X1261667Y-11390667D02*
X1271191Y-11409714D01*
X1271191Y-11409714D02*
X1271191Y-11514476D01*
X1366429Y-11514476D02*
X1366429Y-11381143D01*
X1366429Y-11400190D02*
X1375952Y-11390667D01*
X1375952Y-11390667D02*
X1395000Y-11381143D01*
X1395000Y-11381143D02*
X1423571Y-11381143D01*
X1423571Y-11381143D02*
X1442619Y-11390667D01*
X1442619Y-11390667D02*
X1452143Y-11409714D01*
X1452143Y-11409714D02*
X1452143Y-11514476D01*
X1452143Y-11409714D02*
X1461667Y-11390667D01*
X1461667Y-11390667D02*
X1480714Y-11381143D01*
X1480714Y-11381143D02*
X1509286Y-11381143D01*
X1509286Y-11381143D02*
X1528333Y-11390667D01*
X1528333Y-11390667D02*
X1537857Y-11409714D01*
X1537857Y-11409714D02*
X1537857Y-11514476D01*
X1895952Y-11304952D02*
X1724524Y-11562095D01*
X2120714Y-11314476D02*
X2139762Y-11314476D01*
X2139762Y-11314476D02*
X2158810Y-11324000D01*
X2158810Y-11324000D02*
X2168333Y-11333524D01*
X2168333Y-11333524D02*
X2177857Y-11352571D01*
X2177857Y-11352571D02*
X2187381Y-11390667D01*
X2187381Y-11390667D02*
X2187381Y-11438286D01*
X2187381Y-11438286D02*
X2177857Y-11476381D01*
X2177857Y-11476381D02*
X2168333Y-11495428D01*
X2168333Y-11495428D02*
X2158810Y-11504952D01*
X2158810Y-11504952D02*
X2139762Y-11514476D01*
X2139762Y-11514476D02*
X2120714Y-11514476D01*
X2120714Y-11514476D02*
X2101667Y-11504952D01*
X2101667Y-11504952D02*
X2092143Y-11495428D01*
X2092143Y-11495428D02*
X2082619Y-11476381D01*
X2082619Y-11476381D02*
X2073095Y-11438286D01*
X2073095Y-11438286D02*
X2073095Y-11390667D01*
X2073095Y-11390667D02*
X2082619Y-11352571D01*
X2082619Y-11352571D02*
X2092143Y-11333524D01*
X2092143Y-11333524D02*
X2101667Y-11324000D01*
X2101667Y-11324000D02*
X2120714Y-11314476D01*
X2273095Y-11495428D02*
X2282619Y-11504952D01*
X2282619Y-11504952D02*
X2273095Y-11514476D01*
X2273095Y-11514476D02*
X2263572Y-11504952D01*
X2263572Y-11504952D02*
X2273095Y-11495428D01*
X2273095Y-11495428D02*
X2273095Y-11514476D01*
X2406429Y-11314476D02*
X2425476Y-11314476D01*
X2425476Y-11314476D02*
X2444524Y-11324000D01*
X2444524Y-11324000D02*
X2454048Y-11333524D01*
X2454048Y-11333524D02*
X2463572Y-11352571D01*
X2463572Y-11352571D02*
X2473095Y-11390667D01*
X2473095Y-11390667D02*
X2473095Y-11438286D01*
X2473095Y-11438286D02*
X2463572Y-11476381D01*
X2463572Y-11476381D02*
X2454048Y-11495428D01*
X2454048Y-11495428D02*
X2444524Y-11504952D01*
X2444524Y-11504952D02*
X2425476Y-11514476D01*
X2425476Y-11514476D02*
X2406429Y-11514476D01*
X2406429Y-11514476D02*
X2387381Y-11504952D01*
X2387381Y-11504952D02*
X2377857Y-11495428D01*
X2377857Y-11495428D02*
X2368333Y-11476381D01*
X2368333Y-11476381D02*
X2358810Y-11438286D01*
X2358810Y-11438286D02*
X2358810Y-11390667D01*
X2358810Y-11390667D02*
X2368333Y-11352571D01*
X2368333Y-11352571D02*
X2377857Y-11333524D01*
X2377857Y-11333524D02*
X2387381Y-11324000D01*
X2387381Y-11324000D02*
X2406429Y-11314476D01*
X2654048Y-11314476D02*
X2558810Y-11314476D01*
X2558810Y-11314476D02*
X2549286Y-11409714D01*
X2549286Y-11409714D02*
X2558810Y-11400190D01*
X2558810Y-11400190D02*
X2577857Y-11390667D01*
X2577857Y-11390667D02*
X2625476Y-11390667D01*
X2625476Y-11390667D02*
X2644524Y-11400190D01*
X2644524Y-11400190D02*
X2654048Y-11409714D01*
X2654048Y-11409714D02*
X2663572Y-11428762D01*
X2663572Y-11428762D02*
X2663572Y-11476381D01*
X2663572Y-11476381D02*
X2654048Y-11495428D01*
X2654048Y-11495428D02*
X2644524Y-11504952D01*
X2644524Y-11504952D02*
X2625476Y-11514476D01*
X2625476Y-11514476D02*
X2577857Y-11514476D01*
X2577857Y-11514476D02*
X2558810Y-11504952D01*
X2558810Y-11504952D02*
X2549286Y-11495428D01*
X2758810Y-11514476D02*
X2796905Y-11514476D01*
X2796905Y-11514476D02*
X2815952Y-11504952D01*
X2815952Y-11504952D02*
X2825476Y-11495428D01*
X2825476Y-11495428D02*
X2844524Y-11466857D01*
X2844524Y-11466857D02*
X2854048Y-11428762D01*
X2854048Y-11428762D02*
X2854048Y-11352571D01*
X2854048Y-11352571D02*
X2844524Y-11333524D01*
X2844524Y-11333524D02*
X2835000Y-11324000D01*
X2835000Y-11324000D02*
X2815952Y-11314476D01*
X2815952Y-11314476D02*
X2777857Y-11314476D01*
X2777857Y-11314476D02*
X2758810Y-11324000D01*
X2758810Y-11324000D02*
X2749286Y-11333524D01*
X2749286Y-11333524D02*
X2739762Y-11352571D01*
X2739762Y-11352571D02*
X2739762Y-11400190D01*
X2739762Y-11400190D02*
X2749286Y-11419238D01*
X2749286Y-11419238D02*
X2758810Y-11428762D01*
X2758810Y-11428762D02*
X2777857Y-11438286D01*
X2777857Y-11438286D02*
X2815952Y-11438286D01*
X2815952Y-11438286D02*
X2835000Y-11428762D01*
X2835000Y-11428762D02*
X2844524Y-11419238D01*
X2844524Y-11419238D02*
X2854048Y-11400190D01*
X3044524Y-11514476D02*
X2930238Y-11514476D01*
X2987381Y-11514476D02*
X2987381Y-11314476D01*
X2987381Y-11314476D02*
X2968333Y-11343048D01*
X2968333Y-11343048D02*
X2949286Y-11362095D01*
X2949286Y-11362095D02*
X2930238Y-11371619D01*
X3120714Y-11314476D02*
X3120714Y-11352571D01*
X3196905Y-11314476D02*
X3196905Y-11352571D01*
X3459762Y-11590667D02*
X3450238Y-11581143D01*
X3450238Y-11581143D02*
X3431191Y-11552571D01*
X3431191Y-11552571D02*
X3421667Y-11533524D01*
X3421667Y-11533524D02*
X3412143Y-11504952D01*
X3412143Y-11504952D02*
X3402619Y-11457333D01*
X3402619Y-11457333D02*
X3402619Y-11419238D01*
X3402619Y-11419238D02*
X3412143Y-11371619D01*
X3412143Y-11371619D02*
X3421667Y-11343048D01*
X3421667Y-11343048D02*
X3431191Y-11324000D01*
X3431191Y-11324000D02*
X3450238Y-11295428D01*
X3450238Y-11295428D02*
X3459762Y-11285905D01*
X3574048Y-11314476D02*
X3593095Y-11314476D01*
X3593095Y-11314476D02*
X3612143Y-11324000D01*
X3612143Y-11324000D02*
X3621667Y-11333524D01*
X3621667Y-11333524D02*
X3631191Y-11352571D01*
X3631191Y-11352571D02*
X3640714Y-11390667D01*
X3640714Y-11390667D02*
X3640714Y-11438286D01*
X3640714Y-11438286D02*
X3631191Y-11476381D01*
X3631191Y-11476381D02*
X3621667Y-11495428D01*
X3621667Y-11495428D02*
X3612143Y-11504952D01*
X3612143Y-11504952D02*
X3593095Y-11514476D01*
X3593095Y-11514476D02*
X3574048Y-11514476D01*
X3574048Y-11514476D02*
X3555000Y-11504952D01*
X3555000Y-11504952D02*
X3545476Y-11495428D01*
X3545476Y-11495428D02*
X3535952Y-11476381D01*
X3535952Y-11476381D02*
X3526429Y-11438286D01*
X3526429Y-11438286D02*
X3526429Y-11390667D01*
X3526429Y-11390667D02*
X3535952Y-11352571D01*
X3535952Y-11352571D02*
X3545476Y-11333524D01*
X3545476Y-11333524D02*
X3555000Y-11324000D01*
X3555000Y-11324000D02*
X3574048Y-11314476D01*
X3846429Y-11514476D02*
X3846429Y-11314476D01*
X3932143Y-11514476D02*
X3932143Y-11409714D01*
X3932143Y-11409714D02*
X3922619Y-11390667D01*
X3922619Y-11390667D02*
X3903572Y-11381143D01*
X3903572Y-11381143D02*
X3875000Y-11381143D01*
X3875000Y-11381143D02*
X3855952Y-11390667D01*
X3855952Y-11390667D02*
X3846429Y-11400190D01*
X4055952Y-11514476D02*
X4036905Y-11504952D01*
X4036905Y-11504952D02*
X4027381Y-11495428D01*
X4027381Y-11495428D02*
X4017857Y-11476381D01*
X4017857Y-11476381D02*
X4017857Y-11419238D01*
X4017857Y-11419238D02*
X4027381Y-11400190D01*
X4027381Y-11400190D02*
X4036905Y-11390667D01*
X4036905Y-11390667D02*
X4055952Y-11381143D01*
X4055952Y-11381143D02*
X4084524Y-11381143D01*
X4084524Y-11381143D02*
X4103572Y-11390667D01*
X4103572Y-11390667D02*
X4113095Y-11400190D01*
X4113095Y-11400190D02*
X4122619Y-11419238D01*
X4122619Y-11419238D02*
X4122619Y-11476381D01*
X4122619Y-11476381D02*
X4113095Y-11495428D01*
X4113095Y-11495428D02*
X4103572Y-11504952D01*
X4103572Y-11504952D02*
X4084524Y-11514476D01*
X4084524Y-11514476D02*
X4055952Y-11514476D01*
X4236905Y-11514476D02*
X4217857Y-11504952D01*
X4217857Y-11504952D02*
X4208334Y-11485905D01*
X4208334Y-11485905D02*
X4208334Y-11314476D01*
X4389286Y-11504952D02*
X4370238Y-11514476D01*
X4370238Y-11514476D02*
X4332143Y-11514476D01*
X4332143Y-11514476D02*
X4313095Y-11504952D01*
X4313095Y-11504952D02*
X4303572Y-11485905D01*
X4303572Y-11485905D02*
X4303572Y-11409714D01*
X4303572Y-11409714D02*
X4313095Y-11390667D01*
X4313095Y-11390667D02*
X4332143Y-11381143D01*
X4332143Y-11381143D02*
X4370238Y-11381143D01*
X4370238Y-11381143D02*
X4389286Y-11390667D01*
X4389286Y-11390667D02*
X4398810Y-11409714D01*
X4398810Y-11409714D02*
X4398810Y-11428762D01*
X4398810Y-11428762D02*
X4303572Y-11447809D01*
X4475000Y-11504952D02*
X4494048Y-11514476D01*
X4494048Y-11514476D02*
X4532143Y-11514476D01*
X4532143Y-11514476D02*
X4551191Y-11504952D01*
X4551191Y-11504952D02*
X4560715Y-11485905D01*
X4560715Y-11485905D02*
X4560715Y-11476381D01*
X4560715Y-11476381D02*
X4551191Y-11457333D01*
X4551191Y-11457333D02*
X4532143Y-11447809D01*
X4532143Y-11447809D02*
X4503572Y-11447809D01*
X4503572Y-11447809D02*
X4484524Y-11438286D01*
X4484524Y-11438286D02*
X4475000Y-11419238D01*
X4475000Y-11419238D02*
X4475000Y-11409714D01*
X4475000Y-11409714D02*
X4484524Y-11390667D01*
X4484524Y-11390667D02*
X4503572Y-11381143D01*
X4503572Y-11381143D02*
X4532143Y-11381143D01*
X4532143Y-11381143D02*
X4551191Y-11390667D01*
X4766429Y-11438286D02*
X4918810Y-11438286D01*
X4842619Y-11514476D02*
X4842619Y-11362095D01*
X5124524Y-11333524D02*
X5134048Y-11324000D01*
X5134048Y-11324000D02*
X5153095Y-11314476D01*
X5153095Y-11314476D02*
X5200715Y-11314476D01*
X5200715Y-11314476D02*
X5219762Y-11324000D01*
X5219762Y-11324000D02*
X5229286Y-11333524D01*
X5229286Y-11333524D02*
X5238810Y-11352571D01*
X5238810Y-11352571D02*
X5238810Y-11371619D01*
X5238810Y-11371619D02*
X5229286Y-11400190D01*
X5229286Y-11400190D02*
X5115000Y-11514476D01*
X5115000Y-11514476D02*
X5238810Y-11514476D01*
X5435000Y-11504952D02*
X5454048Y-11514476D01*
X5454048Y-11514476D02*
X5492143Y-11514476D01*
X5492143Y-11514476D02*
X5511191Y-11504952D01*
X5511191Y-11504952D02*
X5520715Y-11485905D01*
X5520715Y-11485905D02*
X5520715Y-11476381D01*
X5520715Y-11476381D02*
X5511191Y-11457333D01*
X5511191Y-11457333D02*
X5492143Y-11447809D01*
X5492143Y-11447809D02*
X5463572Y-11447809D01*
X5463572Y-11447809D02*
X5444524Y-11438286D01*
X5444524Y-11438286D02*
X5435000Y-11419238D01*
X5435000Y-11419238D02*
X5435000Y-11409714D01*
X5435000Y-11409714D02*
X5444524Y-11390667D01*
X5444524Y-11390667D02*
X5463572Y-11381143D01*
X5463572Y-11381143D02*
X5492143Y-11381143D01*
X5492143Y-11381143D02*
X5511191Y-11390667D01*
X5635000Y-11514476D02*
X5615953Y-11504952D01*
X5615953Y-11504952D02*
X5606429Y-11485905D01*
X5606429Y-11485905D02*
X5606429Y-11314476D01*
X5739762Y-11514476D02*
X5720714Y-11504952D01*
X5720714Y-11504952D02*
X5711191Y-11495428D01*
X5711191Y-11495428D02*
X5701667Y-11476381D01*
X5701667Y-11476381D02*
X5701667Y-11419238D01*
X5701667Y-11419238D02*
X5711191Y-11400190D01*
X5711191Y-11400190D02*
X5720714Y-11390667D01*
X5720714Y-11390667D02*
X5739762Y-11381143D01*
X5739762Y-11381143D02*
X5768334Y-11381143D01*
X5768334Y-11381143D02*
X5787381Y-11390667D01*
X5787381Y-11390667D02*
X5796905Y-11400190D01*
X5796905Y-11400190D02*
X5806429Y-11419238D01*
X5806429Y-11419238D02*
X5806429Y-11476381D01*
X5806429Y-11476381D02*
X5796905Y-11495428D01*
X5796905Y-11495428D02*
X5787381Y-11504952D01*
X5787381Y-11504952D02*
X5768334Y-11514476D01*
X5768334Y-11514476D02*
X5739762Y-11514476D01*
X5863572Y-11381143D02*
X5939762Y-11381143D01*
X5892143Y-11314476D02*
X5892143Y-11485905D01*
X5892143Y-11485905D02*
X5901667Y-11504952D01*
X5901667Y-11504952D02*
X5920714Y-11514476D01*
X5920714Y-11514476D02*
X5939762Y-11514476D01*
X5996905Y-11504952D02*
X6015953Y-11514476D01*
X6015953Y-11514476D02*
X6054048Y-11514476D01*
X6054048Y-11514476D02*
X6073095Y-11504952D01*
X6073095Y-11504952D02*
X6082619Y-11485905D01*
X6082619Y-11485905D02*
X6082619Y-11476381D01*
X6082619Y-11476381D02*
X6073095Y-11457333D01*
X6073095Y-11457333D02*
X6054048Y-11447809D01*
X6054048Y-11447809D02*
X6025476Y-11447809D01*
X6025476Y-11447809D02*
X6006429Y-11438286D01*
X6006429Y-11438286D02*
X5996905Y-11419238D01*
X5996905Y-11419238D02*
X5996905Y-11409714D01*
X5996905Y-11409714D02*
X6006429Y-11390667D01*
X6006429Y-11390667D02*
X6025476Y-11381143D01*
X6025476Y-11381143D02*
X6054048Y-11381143D01*
X6054048Y-11381143D02*
X6073095Y-11390667D01*
X6149286Y-11590667D02*
X6158810Y-11581143D01*
X6158810Y-11581143D02*
X6177857Y-11552571D01*
X6177857Y-11552571D02*
X6187381Y-11533524D01*
X6187381Y-11533524D02*
X6196905Y-11504952D01*
X6196905Y-11504952D02*
X6206429Y-11457333D01*
X6206429Y-11457333D02*
X6206429Y-11419238D01*
X6206429Y-11419238D02*
X6196905Y-11371619D01*
X6196905Y-11371619D02*
X6187381Y-11343048D01*
X6187381Y-11343048D02*
X6177857Y-11324000D01*
X6177857Y-11324000D02*
X6158810Y-11295428D01*
X6158810Y-11295428D02*
X6149286Y-11285905D01*
X6478810Y-11590667D02*
X6469286Y-11581143D01*
X6469286Y-11581143D02*
X6450238Y-11552571D01*
X6450238Y-11552571D02*
X6440714Y-11533524D01*
X6440714Y-11533524D02*
X6431191Y-11504952D01*
X6431191Y-11504952D02*
X6421667Y-11457333D01*
X6421667Y-11457333D02*
X6421667Y-11419238D01*
X6421667Y-11419238D02*
X6431191Y-11371619D01*
X6431191Y-11371619D02*
X6440714Y-11343048D01*
X6440714Y-11343048D02*
X6450238Y-11324000D01*
X6450238Y-11324000D02*
X6469286Y-11295428D01*
X6469286Y-11295428D02*
X6478810Y-11285905D01*
X6555000Y-11381143D02*
X6555000Y-11514476D01*
X6555000Y-11400190D02*
X6564524Y-11390667D01*
X6564524Y-11390667D02*
X6583572Y-11381143D01*
X6583572Y-11381143D02*
X6612143Y-11381143D01*
X6612143Y-11381143D02*
X6631191Y-11390667D01*
X6631191Y-11390667D02*
X6640714Y-11409714D01*
X6640714Y-11409714D02*
X6640714Y-11514476D01*
X6764524Y-11514476D02*
X6745476Y-11504952D01*
X6745476Y-11504952D02*
X6735953Y-11495428D01*
X6735953Y-11495428D02*
X6726429Y-11476381D01*
X6726429Y-11476381D02*
X6726429Y-11419238D01*
X6726429Y-11419238D02*
X6735953Y-11400190D01*
X6735953Y-11400190D02*
X6745476Y-11390667D01*
X6745476Y-11390667D02*
X6764524Y-11381143D01*
X6764524Y-11381143D02*
X6793095Y-11381143D01*
X6793095Y-11381143D02*
X6812143Y-11390667D01*
X6812143Y-11390667D02*
X6821667Y-11400190D01*
X6821667Y-11400190D02*
X6831191Y-11419238D01*
X6831191Y-11419238D02*
X6831191Y-11476381D01*
X6831191Y-11476381D02*
X6821667Y-11495428D01*
X6821667Y-11495428D02*
X6812143Y-11504952D01*
X6812143Y-11504952D02*
X6793095Y-11514476D01*
X6793095Y-11514476D02*
X6764524Y-11514476D01*
X6888334Y-11381143D02*
X6964524Y-11381143D01*
X6916905Y-11314476D02*
X6916905Y-11485905D01*
X6916905Y-11485905D02*
X6926429Y-11504952D01*
X6926429Y-11504952D02*
X6945476Y-11514476D01*
X6945476Y-11514476D02*
X6964524Y-11514476D01*
X7151191Y-11381143D02*
X7151191Y-11581143D01*
X7151191Y-11390667D02*
X7170238Y-11381143D01*
X7170238Y-11381143D02*
X7208334Y-11381143D01*
X7208334Y-11381143D02*
X7227381Y-11390667D01*
X7227381Y-11390667D02*
X7236905Y-11400190D01*
X7236905Y-11400190D02*
X7246429Y-11419238D01*
X7246429Y-11419238D02*
X7246429Y-11476381D01*
X7246429Y-11476381D02*
X7236905Y-11495428D01*
X7236905Y-11495428D02*
X7227381Y-11504952D01*
X7227381Y-11504952D02*
X7208334Y-11514476D01*
X7208334Y-11514476D02*
X7170238Y-11514476D01*
X7170238Y-11514476D02*
X7151191Y-11504952D01*
X7360714Y-11514476D02*
X7341667Y-11504952D01*
X7341667Y-11504952D02*
X7332143Y-11485905D01*
X7332143Y-11485905D02*
X7332143Y-11314476D01*
X7522619Y-11514476D02*
X7522619Y-11409714D01*
X7522619Y-11409714D02*
X7513095Y-11390667D01*
X7513095Y-11390667D02*
X7494048Y-11381143D01*
X7494048Y-11381143D02*
X7455953Y-11381143D01*
X7455953Y-11381143D02*
X7436905Y-11390667D01*
X7522619Y-11504952D02*
X7503572Y-11514476D01*
X7503572Y-11514476D02*
X7455953Y-11514476D01*
X7455953Y-11514476D02*
X7436905Y-11504952D01*
X7436905Y-11504952D02*
X7427381Y-11485905D01*
X7427381Y-11485905D02*
X7427381Y-11466857D01*
X7427381Y-11466857D02*
X7436905Y-11447809D01*
X7436905Y-11447809D02*
X7455953Y-11438286D01*
X7455953Y-11438286D02*
X7503572Y-11438286D01*
X7503572Y-11438286D02*
X7522619Y-11428762D01*
X7589286Y-11381143D02*
X7665476Y-11381143D01*
X7617857Y-11314476D02*
X7617857Y-11485905D01*
X7617857Y-11485905D02*
X7627381Y-11504952D01*
X7627381Y-11504952D02*
X7646429Y-11514476D01*
X7646429Y-11514476D02*
X7665476Y-11514476D01*
X7808334Y-11504952D02*
X7789286Y-11514476D01*
X7789286Y-11514476D02*
X7751191Y-11514476D01*
X7751191Y-11514476D02*
X7732143Y-11504952D01*
X7732143Y-11504952D02*
X7722619Y-11485905D01*
X7722619Y-11485905D02*
X7722619Y-11409714D01*
X7722619Y-11409714D02*
X7732143Y-11390667D01*
X7732143Y-11390667D02*
X7751191Y-11381143D01*
X7751191Y-11381143D02*
X7789286Y-11381143D01*
X7789286Y-11381143D02*
X7808334Y-11390667D01*
X7808334Y-11390667D02*
X7817857Y-11409714D01*
X7817857Y-11409714D02*
X7817857Y-11428762D01*
X7817857Y-11428762D02*
X7722619Y-11447809D01*
X7989286Y-11514476D02*
X7989286Y-11314476D01*
X7989286Y-11504952D02*
X7970238Y-11514476D01*
X7970238Y-11514476D02*
X7932143Y-11514476D01*
X7932143Y-11514476D02*
X7913095Y-11504952D01*
X7913095Y-11504952D02*
X7903572Y-11495428D01*
X7903572Y-11495428D02*
X7894048Y-11476381D01*
X7894048Y-11476381D02*
X7894048Y-11419238D01*
X7894048Y-11419238D02*
X7903572Y-11400190D01*
X7903572Y-11400190D02*
X7913095Y-11390667D01*
X7913095Y-11390667D02*
X7932143Y-11381143D01*
X7932143Y-11381143D02*
X7970238Y-11381143D01*
X7970238Y-11381143D02*
X7989286Y-11390667D01*
X8065476Y-11590667D02*
X8075000Y-11581143D01*
X8075000Y-11581143D02*
X8094048Y-11552571D01*
X8094048Y-11552571D02*
X8103572Y-11533524D01*
X8103572Y-11533524D02*
X8113095Y-11504952D01*
X8113095Y-11504952D02*
X8122619Y-11457333D01*
X8122619Y-11457333D02*
X8122619Y-11419238D01*
X8122619Y-11419238D02*
X8113095Y-11371619D01*
X8113095Y-11371619D02*
X8103572Y-11343048D01*
X8103572Y-11343048D02*
X8094048Y-11324000D01*
X8094048Y-11324000D02*
X8075000Y-11295428D01*
X8075000Y-11295428D02*
X8065476Y-11285905D01*
D18*
X-180000Y-11623500D02*
X-5000Y-11798500D01*
X-5000Y-11623500D02*
X-180000Y-11798500D01*
X-92500Y-11623500D02*
X-92500Y-11798500D01*
X-180000Y-11711000D02*
X-5000Y-11711000D01*
D11*
X347381Y-11784476D02*
X233095Y-11784476D01*
X290238Y-11784476D02*
X290238Y-11584476D01*
X290238Y-11584476D02*
X271190Y-11613048D01*
X271190Y-11613048D02*
X252143Y-11632095D01*
X252143Y-11632095D02*
X233095Y-11641619D01*
X433095Y-11765428D02*
X442619Y-11774952D01*
X442619Y-11774952D02*
X433095Y-11784476D01*
X433095Y-11784476D02*
X423571Y-11774952D01*
X423571Y-11774952D02*
X433095Y-11765428D01*
X433095Y-11765428D02*
X433095Y-11784476D01*
X509286Y-11584476D02*
X642619Y-11584476D01*
X642619Y-11584476D02*
X556905Y-11784476D01*
X814048Y-11584476D02*
X718809Y-11584476D01*
X718809Y-11584476D02*
X709286Y-11679714D01*
X709286Y-11679714D02*
X718809Y-11670190D01*
X718809Y-11670190D02*
X737857Y-11660667D01*
X737857Y-11660667D02*
X785476Y-11660667D01*
X785476Y-11660667D02*
X804524Y-11670190D01*
X804524Y-11670190D02*
X814048Y-11679714D01*
X814048Y-11679714D02*
X823571Y-11698762D01*
X823571Y-11698762D02*
X823571Y-11746381D01*
X823571Y-11746381D02*
X814048Y-11765428D01*
X814048Y-11765428D02*
X804524Y-11774952D01*
X804524Y-11774952D02*
X785476Y-11784476D01*
X785476Y-11784476D02*
X737857Y-11784476D01*
X737857Y-11784476D02*
X718809Y-11774952D01*
X718809Y-11774952D02*
X709286Y-11765428D01*
X947381Y-11584476D02*
X966429Y-11584476D01*
X966429Y-11584476D02*
X985476Y-11594000D01*
X985476Y-11594000D02*
X995000Y-11603524D01*
X995000Y-11603524D02*
X1004524Y-11622571D01*
X1004524Y-11622571D02*
X1014048Y-11660667D01*
X1014048Y-11660667D02*
X1014048Y-11708286D01*
X1014048Y-11708286D02*
X1004524Y-11746381D01*
X1004524Y-11746381D02*
X995000Y-11765428D01*
X995000Y-11765428D02*
X985476Y-11774952D01*
X985476Y-11774952D02*
X966429Y-11784476D01*
X966429Y-11784476D02*
X947381Y-11784476D01*
X947381Y-11784476D02*
X928333Y-11774952D01*
X928333Y-11774952D02*
X918809Y-11765428D01*
X918809Y-11765428D02*
X909286Y-11746381D01*
X909286Y-11746381D02*
X899762Y-11708286D01*
X899762Y-11708286D02*
X899762Y-11660667D01*
X899762Y-11660667D02*
X909286Y-11622571D01*
X909286Y-11622571D02*
X918809Y-11603524D01*
X918809Y-11603524D02*
X928333Y-11594000D01*
X928333Y-11594000D02*
X947381Y-11584476D01*
X1099762Y-11784476D02*
X1099762Y-11651143D01*
X1099762Y-11670190D02*
X1109286Y-11660667D01*
X1109286Y-11660667D02*
X1128333Y-11651143D01*
X1128333Y-11651143D02*
X1156905Y-11651143D01*
X1156905Y-11651143D02*
X1175952Y-11660667D01*
X1175952Y-11660667D02*
X1185476Y-11679714D01*
X1185476Y-11679714D02*
X1185476Y-11784476D01*
X1185476Y-11679714D02*
X1195000Y-11660667D01*
X1195000Y-11660667D02*
X1214048Y-11651143D01*
X1214048Y-11651143D02*
X1242619Y-11651143D01*
X1242619Y-11651143D02*
X1261667Y-11660667D01*
X1261667Y-11660667D02*
X1271191Y-11679714D01*
X1271191Y-11679714D02*
X1271191Y-11784476D01*
X1366429Y-11784476D02*
X1366429Y-11651143D01*
X1366429Y-11670190D02*
X1375952Y-11660667D01*
X1375952Y-11660667D02*
X1395000Y-11651143D01*
X1395000Y-11651143D02*
X1423571Y-11651143D01*
X1423571Y-11651143D02*
X1442619Y-11660667D01*
X1442619Y-11660667D02*
X1452143Y-11679714D01*
X1452143Y-11679714D02*
X1452143Y-11784476D01*
X1452143Y-11679714D02*
X1461667Y-11660667D01*
X1461667Y-11660667D02*
X1480714Y-11651143D01*
X1480714Y-11651143D02*
X1509286Y-11651143D01*
X1509286Y-11651143D02*
X1528333Y-11660667D01*
X1528333Y-11660667D02*
X1537857Y-11679714D01*
X1537857Y-11679714D02*
X1537857Y-11784476D01*
X1895952Y-11574952D02*
X1724524Y-11832095D01*
X2120714Y-11584476D02*
X2139762Y-11584476D01*
X2139762Y-11584476D02*
X2158810Y-11594000D01*
X2158810Y-11594000D02*
X2168333Y-11603524D01*
X2168333Y-11603524D02*
X2177857Y-11622571D01*
X2177857Y-11622571D02*
X2187381Y-11660667D01*
X2187381Y-11660667D02*
X2187381Y-11708286D01*
X2187381Y-11708286D02*
X2177857Y-11746381D01*
X2177857Y-11746381D02*
X2168333Y-11765428D01*
X2168333Y-11765428D02*
X2158810Y-11774952D01*
X2158810Y-11774952D02*
X2139762Y-11784476D01*
X2139762Y-11784476D02*
X2120714Y-11784476D01*
X2120714Y-11784476D02*
X2101667Y-11774952D01*
X2101667Y-11774952D02*
X2092143Y-11765428D01*
X2092143Y-11765428D02*
X2082619Y-11746381D01*
X2082619Y-11746381D02*
X2073095Y-11708286D01*
X2073095Y-11708286D02*
X2073095Y-11660667D01*
X2073095Y-11660667D02*
X2082619Y-11622571D01*
X2082619Y-11622571D02*
X2092143Y-11603524D01*
X2092143Y-11603524D02*
X2101667Y-11594000D01*
X2101667Y-11594000D02*
X2120714Y-11584476D01*
X2273095Y-11765428D02*
X2282619Y-11774952D01*
X2282619Y-11774952D02*
X2273095Y-11784476D01*
X2273095Y-11784476D02*
X2263572Y-11774952D01*
X2263572Y-11774952D02*
X2273095Y-11765428D01*
X2273095Y-11765428D02*
X2273095Y-11784476D01*
X2406429Y-11584476D02*
X2425476Y-11584476D01*
X2425476Y-11584476D02*
X2444524Y-11594000D01*
X2444524Y-11594000D02*
X2454048Y-11603524D01*
X2454048Y-11603524D02*
X2463572Y-11622571D01*
X2463572Y-11622571D02*
X2473095Y-11660667D01*
X2473095Y-11660667D02*
X2473095Y-11708286D01*
X2473095Y-11708286D02*
X2463572Y-11746381D01*
X2463572Y-11746381D02*
X2454048Y-11765428D01*
X2454048Y-11765428D02*
X2444524Y-11774952D01*
X2444524Y-11774952D02*
X2425476Y-11784476D01*
X2425476Y-11784476D02*
X2406429Y-11784476D01*
X2406429Y-11784476D02*
X2387381Y-11774952D01*
X2387381Y-11774952D02*
X2377857Y-11765428D01*
X2377857Y-11765428D02*
X2368333Y-11746381D01*
X2368333Y-11746381D02*
X2358810Y-11708286D01*
X2358810Y-11708286D02*
X2358810Y-11660667D01*
X2358810Y-11660667D02*
X2368333Y-11622571D01*
X2368333Y-11622571D02*
X2377857Y-11603524D01*
X2377857Y-11603524D02*
X2387381Y-11594000D01*
X2387381Y-11594000D02*
X2406429Y-11584476D01*
X2644524Y-11584476D02*
X2606429Y-11584476D01*
X2606429Y-11584476D02*
X2587381Y-11594000D01*
X2587381Y-11594000D02*
X2577857Y-11603524D01*
X2577857Y-11603524D02*
X2558810Y-11632095D01*
X2558810Y-11632095D02*
X2549286Y-11670190D01*
X2549286Y-11670190D02*
X2549286Y-11746381D01*
X2549286Y-11746381D02*
X2558810Y-11765428D01*
X2558810Y-11765428D02*
X2568333Y-11774952D01*
X2568333Y-11774952D02*
X2587381Y-11784476D01*
X2587381Y-11784476D02*
X2625476Y-11784476D01*
X2625476Y-11784476D02*
X2644524Y-11774952D01*
X2644524Y-11774952D02*
X2654048Y-11765428D01*
X2654048Y-11765428D02*
X2663572Y-11746381D01*
X2663572Y-11746381D02*
X2663572Y-11698762D01*
X2663572Y-11698762D02*
X2654048Y-11679714D01*
X2654048Y-11679714D02*
X2644524Y-11670190D01*
X2644524Y-11670190D02*
X2625476Y-11660667D01*
X2625476Y-11660667D02*
X2587381Y-11660667D01*
X2587381Y-11660667D02*
X2568333Y-11670190D01*
X2568333Y-11670190D02*
X2558810Y-11679714D01*
X2558810Y-11679714D02*
X2549286Y-11698762D01*
X2777857Y-11670190D02*
X2758810Y-11660667D01*
X2758810Y-11660667D02*
X2749286Y-11651143D01*
X2749286Y-11651143D02*
X2739762Y-11632095D01*
X2739762Y-11632095D02*
X2739762Y-11622571D01*
X2739762Y-11622571D02*
X2749286Y-11603524D01*
X2749286Y-11603524D02*
X2758810Y-11594000D01*
X2758810Y-11594000D02*
X2777857Y-11584476D01*
X2777857Y-11584476D02*
X2815952Y-11584476D01*
X2815952Y-11584476D02*
X2835000Y-11594000D01*
X2835000Y-11594000D02*
X2844524Y-11603524D01*
X2844524Y-11603524D02*
X2854048Y-11622571D01*
X2854048Y-11622571D02*
X2854048Y-11632095D01*
X2854048Y-11632095D02*
X2844524Y-11651143D01*
X2844524Y-11651143D02*
X2835000Y-11660667D01*
X2835000Y-11660667D02*
X2815952Y-11670190D01*
X2815952Y-11670190D02*
X2777857Y-11670190D01*
X2777857Y-11670190D02*
X2758810Y-11679714D01*
X2758810Y-11679714D02*
X2749286Y-11689238D01*
X2749286Y-11689238D02*
X2739762Y-11708286D01*
X2739762Y-11708286D02*
X2739762Y-11746381D01*
X2739762Y-11746381D02*
X2749286Y-11765428D01*
X2749286Y-11765428D02*
X2758810Y-11774952D01*
X2758810Y-11774952D02*
X2777857Y-11784476D01*
X2777857Y-11784476D02*
X2815952Y-11784476D01*
X2815952Y-11784476D02*
X2835000Y-11774952D01*
X2835000Y-11774952D02*
X2844524Y-11765428D01*
X2844524Y-11765428D02*
X2854048Y-11746381D01*
X2854048Y-11746381D02*
X2854048Y-11708286D01*
X2854048Y-11708286D02*
X2844524Y-11689238D01*
X2844524Y-11689238D02*
X2835000Y-11679714D01*
X2835000Y-11679714D02*
X2815952Y-11670190D01*
X2949286Y-11784476D02*
X2987381Y-11784476D01*
X2987381Y-11784476D02*
X3006429Y-11774952D01*
X3006429Y-11774952D02*
X3015952Y-11765428D01*
X3015952Y-11765428D02*
X3035000Y-11736857D01*
X3035000Y-11736857D02*
X3044524Y-11698762D01*
X3044524Y-11698762D02*
X3044524Y-11622571D01*
X3044524Y-11622571D02*
X3035000Y-11603524D01*
X3035000Y-11603524D02*
X3025476Y-11594000D01*
X3025476Y-11594000D02*
X3006429Y-11584476D01*
X3006429Y-11584476D02*
X2968333Y-11584476D01*
X2968333Y-11584476D02*
X2949286Y-11594000D01*
X2949286Y-11594000D02*
X2939762Y-11603524D01*
X2939762Y-11603524D02*
X2930238Y-11622571D01*
X2930238Y-11622571D02*
X2930238Y-11670190D01*
X2930238Y-11670190D02*
X2939762Y-11689238D01*
X2939762Y-11689238D02*
X2949286Y-11698762D01*
X2949286Y-11698762D02*
X2968333Y-11708286D01*
X2968333Y-11708286D02*
X3006429Y-11708286D01*
X3006429Y-11708286D02*
X3025476Y-11698762D01*
X3025476Y-11698762D02*
X3035000Y-11689238D01*
X3035000Y-11689238D02*
X3044524Y-11670190D01*
X3120714Y-11584476D02*
X3120714Y-11622571D01*
X3196905Y-11584476D02*
X3196905Y-11622571D01*
X3459762Y-11860667D02*
X3450238Y-11851143D01*
X3450238Y-11851143D02*
X3431191Y-11822571D01*
X3431191Y-11822571D02*
X3421667Y-11803524D01*
X3421667Y-11803524D02*
X3412143Y-11774952D01*
X3412143Y-11774952D02*
X3402619Y-11727333D01*
X3402619Y-11727333D02*
X3402619Y-11689238D01*
X3402619Y-11689238D02*
X3412143Y-11641619D01*
X3412143Y-11641619D02*
X3421667Y-11613048D01*
X3421667Y-11613048D02*
X3431191Y-11594000D01*
X3431191Y-11594000D02*
X3450238Y-11565428D01*
X3450238Y-11565428D02*
X3459762Y-11555905D01*
X3631191Y-11584476D02*
X3535952Y-11584476D01*
X3535952Y-11584476D02*
X3526429Y-11679714D01*
X3526429Y-11679714D02*
X3535952Y-11670190D01*
X3535952Y-11670190D02*
X3555000Y-11660667D01*
X3555000Y-11660667D02*
X3602619Y-11660667D01*
X3602619Y-11660667D02*
X3621667Y-11670190D01*
X3621667Y-11670190D02*
X3631191Y-11679714D01*
X3631191Y-11679714D02*
X3640714Y-11698762D01*
X3640714Y-11698762D02*
X3640714Y-11746381D01*
X3640714Y-11746381D02*
X3631191Y-11765428D01*
X3631191Y-11765428D02*
X3621667Y-11774952D01*
X3621667Y-11774952D02*
X3602619Y-11784476D01*
X3602619Y-11784476D02*
X3555000Y-11784476D01*
X3555000Y-11784476D02*
X3535952Y-11774952D01*
X3535952Y-11774952D02*
X3526429Y-11765428D01*
X3764524Y-11584476D02*
X3783572Y-11584476D01*
X3783572Y-11584476D02*
X3802619Y-11594000D01*
X3802619Y-11594000D02*
X3812143Y-11603524D01*
X3812143Y-11603524D02*
X3821667Y-11622571D01*
X3821667Y-11622571D02*
X3831191Y-11660667D01*
X3831191Y-11660667D02*
X3831191Y-11708286D01*
X3831191Y-11708286D02*
X3821667Y-11746381D01*
X3821667Y-11746381D02*
X3812143Y-11765428D01*
X3812143Y-11765428D02*
X3802619Y-11774952D01*
X3802619Y-11774952D02*
X3783572Y-11784476D01*
X3783572Y-11784476D02*
X3764524Y-11784476D01*
X3764524Y-11784476D02*
X3745476Y-11774952D01*
X3745476Y-11774952D02*
X3735952Y-11765428D01*
X3735952Y-11765428D02*
X3726429Y-11746381D01*
X3726429Y-11746381D02*
X3716905Y-11708286D01*
X3716905Y-11708286D02*
X3716905Y-11660667D01*
X3716905Y-11660667D02*
X3726429Y-11622571D01*
X3726429Y-11622571D02*
X3735952Y-11603524D01*
X3735952Y-11603524D02*
X3745476Y-11594000D01*
X3745476Y-11594000D02*
X3764524Y-11584476D01*
X4036905Y-11784476D02*
X4036905Y-11584476D01*
X4122619Y-11784476D02*
X4122619Y-11679714D01*
X4122619Y-11679714D02*
X4113095Y-11660667D01*
X4113095Y-11660667D02*
X4094048Y-11651143D01*
X4094048Y-11651143D02*
X4065476Y-11651143D01*
X4065476Y-11651143D02*
X4046429Y-11660667D01*
X4046429Y-11660667D02*
X4036905Y-11670190D01*
X4246429Y-11784476D02*
X4227381Y-11774952D01*
X4227381Y-11774952D02*
X4217857Y-11765428D01*
X4217857Y-11765428D02*
X4208334Y-11746381D01*
X4208334Y-11746381D02*
X4208334Y-11689238D01*
X4208334Y-11689238D02*
X4217857Y-11670190D01*
X4217857Y-11670190D02*
X4227381Y-11660667D01*
X4227381Y-11660667D02*
X4246429Y-11651143D01*
X4246429Y-11651143D02*
X4275000Y-11651143D01*
X4275000Y-11651143D02*
X4294048Y-11660667D01*
X4294048Y-11660667D02*
X4303572Y-11670190D01*
X4303572Y-11670190D02*
X4313095Y-11689238D01*
X4313095Y-11689238D02*
X4313095Y-11746381D01*
X4313095Y-11746381D02*
X4303572Y-11765428D01*
X4303572Y-11765428D02*
X4294048Y-11774952D01*
X4294048Y-11774952D02*
X4275000Y-11784476D01*
X4275000Y-11784476D02*
X4246429Y-11784476D01*
X4427381Y-11784476D02*
X4408334Y-11774952D01*
X4408334Y-11774952D02*
X4398810Y-11755905D01*
X4398810Y-11755905D02*
X4398810Y-11584476D01*
X4579762Y-11774952D02*
X4560715Y-11784476D01*
X4560715Y-11784476D02*
X4522619Y-11784476D01*
X4522619Y-11784476D02*
X4503572Y-11774952D01*
X4503572Y-11774952D02*
X4494048Y-11755905D01*
X4494048Y-11755905D02*
X4494048Y-11679714D01*
X4494048Y-11679714D02*
X4503572Y-11660667D01*
X4503572Y-11660667D02*
X4522619Y-11651143D01*
X4522619Y-11651143D02*
X4560715Y-11651143D01*
X4560715Y-11651143D02*
X4579762Y-11660667D01*
X4579762Y-11660667D02*
X4589286Y-11679714D01*
X4589286Y-11679714D02*
X4589286Y-11698762D01*
X4589286Y-11698762D02*
X4494048Y-11717809D01*
X4665476Y-11774952D02*
X4684524Y-11784476D01*
X4684524Y-11784476D02*
X4722619Y-11784476D01*
X4722619Y-11784476D02*
X4741667Y-11774952D01*
X4741667Y-11774952D02*
X4751191Y-11755905D01*
X4751191Y-11755905D02*
X4751191Y-11746381D01*
X4751191Y-11746381D02*
X4741667Y-11727333D01*
X4741667Y-11727333D02*
X4722619Y-11717809D01*
X4722619Y-11717809D02*
X4694048Y-11717809D01*
X4694048Y-11717809D02*
X4675000Y-11708286D01*
X4675000Y-11708286D02*
X4665476Y-11689238D01*
X4665476Y-11689238D02*
X4665476Y-11679714D01*
X4665476Y-11679714D02*
X4675000Y-11660667D01*
X4675000Y-11660667D02*
X4694048Y-11651143D01*
X4694048Y-11651143D02*
X4722619Y-11651143D01*
X4722619Y-11651143D02*
X4741667Y-11660667D01*
X4817857Y-11860667D02*
X4827381Y-11851143D01*
X4827381Y-11851143D02*
X4846429Y-11822571D01*
X4846429Y-11822571D02*
X4855953Y-11803524D01*
X4855953Y-11803524D02*
X4865476Y-11774952D01*
X4865476Y-11774952D02*
X4875000Y-11727333D01*
X4875000Y-11727333D02*
X4875000Y-11689238D01*
X4875000Y-11689238D02*
X4865476Y-11641619D01*
X4865476Y-11641619D02*
X4855953Y-11613048D01*
X4855953Y-11613048D02*
X4846429Y-11594000D01*
X4846429Y-11594000D02*
X4827381Y-11565428D01*
X4827381Y-11565428D02*
X4817857Y-11555905D01*
X5147381Y-11860667D02*
X5137857Y-11851143D01*
X5137857Y-11851143D02*
X5118810Y-11822571D01*
X5118810Y-11822571D02*
X5109286Y-11803524D01*
X5109286Y-11803524D02*
X5099762Y-11774952D01*
X5099762Y-11774952D02*
X5090238Y-11727333D01*
X5090238Y-11727333D02*
X5090238Y-11689238D01*
X5090238Y-11689238D02*
X5099762Y-11641619D01*
X5099762Y-11641619D02*
X5109286Y-11613048D01*
X5109286Y-11613048D02*
X5118810Y-11594000D01*
X5118810Y-11594000D02*
X5137857Y-11565428D01*
X5137857Y-11565428D02*
X5147381Y-11555905D01*
X5223572Y-11651143D02*
X5223572Y-11784476D01*
X5223572Y-11670190D02*
X5233095Y-11660667D01*
X5233095Y-11660667D02*
X5252143Y-11651143D01*
X5252143Y-11651143D02*
X5280715Y-11651143D01*
X5280715Y-11651143D02*
X5299762Y-11660667D01*
X5299762Y-11660667D02*
X5309286Y-11679714D01*
X5309286Y-11679714D02*
X5309286Y-11784476D01*
X5433095Y-11784476D02*
X5414048Y-11774952D01*
X5414048Y-11774952D02*
X5404524Y-11765428D01*
X5404524Y-11765428D02*
X5395000Y-11746381D01*
X5395000Y-11746381D02*
X5395000Y-11689238D01*
X5395000Y-11689238D02*
X5404524Y-11670190D01*
X5404524Y-11670190D02*
X5414048Y-11660667D01*
X5414048Y-11660667D02*
X5433095Y-11651143D01*
X5433095Y-11651143D02*
X5461667Y-11651143D01*
X5461667Y-11651143D02*
X5480715Y-11660667D01*
X5480715Y-11660667D02*
X5490238Y-11670190D01*
X5490238Y-11670190D02*
X5499762Y-11689238D01*
X5499762Y-11689238D02*
X5499762Y-11746381D01*
X5499762Y-11746381D02*
X5490238Y-11765428D01*
X5490238Y-11765428D02*
X5480715Y-11774952D01*
X5480715Y-11774952D02*
X5461667Y-11784476D01*
X5461667Y-11784476D02*
X5433095Y-11784476D01*
X5556905Y-11651143D02*
X5633095Y-11651143D01*
X5585476Y-11584476D02*
X5585476Y-11755905D01*
X5585476Y-11755905D02*
X5595000Y-11774952D01*
X5595000Y-11774952D02*
X5614048Y-11784476D01*
X5614048Y-11784476D02*
X5633095Y-11784476D01*
X5819762Y-11651143D02*
X5819762Y-11851143D01*
X5819762Y-11660667D02*
X5838810Y-11651143D01*
X5838810Y-11651143D02*
X5876905Y-11651143D01*
X5876905Y-11651143D02*
X5895953Y-11660667D01*
X5895953Y-11660667D02*
X5905476Y-11670190D01*
X5905476Y-11670190D02*
X5915000Y-11689238D01*
X5915000Y-11689238D02*
X5915000Y-11746381D01*
X5915000Y-11746381D02*
X5905476Y-11765428D01*
X5905476Y-11765428D02*
X5895953Y-11774952D01*
X5895953Y-11774952D02*
X5876905Y-11784476D01*
X5876905Y-11784476D02*
X5838810Y-11784476D01*
X5838810Y-11784476D02*
X5819762Y-11774952D01*
X6029286Y-11784476D02*
X6010238Y-11774952D01*
X6010238Y-11774952D02*
X6000714Y-11755905D01*
X6000714Y-11755905D02*
X6000714Y-11584476D01*
X6191191Y-11784476D02*
X6191191Y-11679714D01*
X6191191Y-11679714D02*
X6181667Y-11660667D01*
X6181667Y-11660667D02*
X6162619Y-11651143D01*
X6162619Y-11651143D02*
X6124524Y-11651143D01*
X6124524Y-11651143D02*
X6105476Y-11660667D01*
X6191191Y-11774952D02*
X6172143Y-11784476D01*
X6172143Y-11784476D02*
X6124524Y-11784476D01*
X6124524Y-11784476D02*
X6105476Y-11774952D01*
X6105476Y-11774952D02*
X6095953Y-11755905D01*
X6095953Y-11755905D02*
X6095953Y-11736857D01*
X6095953Y-11736857D02*
X6105476Y-11717809D01*
X6105476Y-11717809D02*
X6124524Y-11708286D01*
X6124524Y-11708286D02*
X6172143Y-11708286D01*
X6172143Y-11708286D02*
X6191191Y-11698762D01*
X6257857Y-11651143D02*
X6334048Y-11651143D01*
X6286429Y-11584476D02*
X6286429Y-11755905D01*
X6286429Y-11755905D02*
X6295953Y-11774952D01*
X6295953Y-11774952D02*
X6315000Y-11784476D01*
X6315000Y-11784476D02*
X6334048Y-11784476D01*
X6476905Y-11774952D02*
X6457857Y-11784476D01*
X6457857Y-11784476D02*
X6419762Y-11784476D01*
X6419762Y-11784476D02*
X6400714Y-11774952D01*
X6400714Y-11774952D02*
X6391191Y-11755905D01*
X6391191Y-11755905D02*
X6391191Y-11679714D01*
X6391191Y-11679714D02*
X6400714Y-11660667D01*
X6400714Y-11660667D02*
X6419762Y-11651143D01*
X6419762Y-11651143D02*
X6457857Y-11651143D01*
X6457857Y-11651143D02*
X6476905Y-11660667D01*
X6476905Y-11660667D02*
X6486429Y-11679714D01*
X6486429Y-11679714D02*
X6486429Y-11698762D01*
X6486429Y-11698762D02*
X6391191Y-11717809D01*
X6657857Y-11784476D02*
X6657857Y-11584476D01*
X6657857Y-11774952D02*
X6638810Y-11784476D01*
X6638810Y-11784476D02*
X6600714Y-11784476D01*
X6600714Y-11784476D02*
X6581667Y-11774952D01*
X6581667Y-11774952D02*
X6572143Y-11765428D01*
X6572143Y-11765428D02*
X6562619Y-11746381D01*
X6562619Y-11746381D02*
X6562619Y-11689238D01*
X6562619Y-11689238D02*
X6572143Y-11670190D01*
X6572143Y-11670190D02*
X6581667Y-11660667D01*
X6581667Y-11660667D02*
X6600714Y-11651143D01*
X6600714Y-11651143D02*
X6638810Y-11651143D01*
X6638810Y-11651143D02*
X6657857Y-11660667D01*
X6734048Y-11860667D02*
X6743572Y-11851143D01*
X6743572Y-11851143D02*
X6762619Y-11822571D01*
X6762619Y-11822571D02*
X6772143Y-11803524D01*
X6772143Y-11803524D02*
X6781667Y-11774952D01*
X6781667Y-11774952D02*
X6791191Y-11727333D01*
X6791191Y-11727333D02*
X6791191Y-11689238D01*
X6791191Y-11689238D02*
X6781667Y-11641619D01*
X6781667Y-11641619D02*
X6772143Y-11613048D01*
X6772143Y-11613048D02*
X6762619Y-11594000D01*
X6762619Y-11594000D02*
X6743572Y-11565428D01*
X6743572Y-11565428D02*
X6734048Y-11555905D01*
X-205000Y-11906000D02*
X-5000Y-12106000D01*
X-5000Y-11906000D02*
X-205000Y-12106000D01*
X-34289Y-12076711D02*
X-34289Y-11935289D01*
X-175711Y-11935289D01*
X-175711Y-12076711D01*
X-34289Y-12076711D01*
X223571Y-11879476D02*
X347381Y-11879476D01*
X347381Y-11879476D02*
X280714Y-11955667D01*
X280714Y-11955667D02*
X309286Y-11955667D01*
X309286Y-11955667D02*
X328333Y-11965190D01*
X328333Y-11965190D02*
X337857Y-11974714D01*
X337857Y-11974714D02*
X347381Y-11993762D01*
X347381Y-11993762D02*
X347381Y-12041381D01*
X347381Y-12041381D02*
X337857Y-12060428D01*
X337857Y-12060428D02*
X328333Y-12069952D01*
X328333Y-12069952D02*
X309286Y-12079476D01*
X309286Y-12079476D02*
X252143Y-12079476D01*
X252143Y-12079476D02*
X233095Y-12069952D01*
X233095Y-12069952D02*
X223571Y-12060428D01*
X433095Y-12060428D02*
X442619Y-12069952D01*
X442619Y-12069952D02*
X433095Y-12079476D01*
X433095Y-12079476D02*
X423571Y-12069952D01*
X423571Y-12069952D02*
X433095Y-12060428D01*
X433095Y-12060428D02*
X433095Y-12079476D01*
X537857Y-12079476D02*
X575952Y-12079476D01*
X575952Y-12079476D02*
X595000Y-12069952D01*
X595000Y-12069952D02*
X604524Y-12060428D01*
X604524Y-12060428D02*
X623571Y-12031857D01*
X623571Y-12031857D02*
X633095Y-11993762D01*
X633095Y-11993762D02*
X633095Y-11917571D01*
X633095Y-11917571D02*
X623571Y-11898524D01*
X623571Y-11898524D02*
X614048Y-11889000D01*
X614048Y-11889000D02*
X595000Y-11879476D01*
X595000Y-11879476D02*
X556905Y-11879476D01*
X556905Y-11879476D02*
X537857Y-11889000D01*
X537857Y-11889000D02*
X528333Y-11898524D01*
X528333Y-11898524D02*
X518809Y-11917571D01*
X518809Y-11917571D02*
X518809Y-11965190D01*
X518809Y-11965190D02*
X528333Y-11984238D01*
X528333Y-11984238D02*
X537857Y-11993762D01*
X537857Y-11993762D02*
X556905Y-12003286D01*
X556905Y-12003286D02*
X595000Y-12003286D01*
X595000Y-12003286D02*
X614048Y-11993762D01*
X614048Y-11993762D02*
X623571Y-11984238D01*
X623571Y-11984238D02*
X633095Y-11965190D01*
X747381Y-11965190D02*
X728333Y-11955667D01*
X728333Y-11955667D02*
X718809Y-11946143D01*
X718809Y-11946143D02*
X709286Y-11927095D01*
X709286Y-11927095D02*
X709286Y-11917571D01*
X709286Y-11917571D02*
X718809Y-11898524D01*
X718809Y-11898524D02*
X728333Y-11889000D01*
X728333Y-11889000D02*
X747381Y-11879476D01*
X747381Y-11879476D02*
X785476Y-11879476D01*
X785476Y-11879476D02*
X804524Y-11889000D01*
X804524Y-11889000D02*
X814048Y-11898524D01*
X814048Y-11898524D02*
X823571Y-11917571D01*
X823571Y-11917571D02*
X823571Y-11927095D01*
X823571Y-11927095D02*
X814048Y-11946143D01*
X814048Y-11946143D02*
X804524Y-11955667D01*
X804524Y-11955667D02*
X785476Y-11965190D01*
X785476Y-11965190D02*
X747381Y-11965190D01*
X747381Y-11965190D02*
X728333Y-11974714D01*
X728333Y-11974714D02*
X718809Y-11984238D01*
X718809Y-11984238D02*
X709286Y-12003286D01*
X709286Y-12003286D02*
X709286Y-12041381D01*
X709286Y-12041381D02*
X718809Y-12060428D01*
X718809Y-12060428D02*
X728333Y-12069952D01*
X728333Y-12069952D02*
X747381Y-12079476D01*
X747381Y-12079476D02*
X785476Y-12079476D01*
X785476Y-12079476D02*
X804524Y-12069952D01*
X804524Y-12069952D02*
X814048Y-12060428D01*
X814048Y-12060428D02*
X823571Y-12041381D01*
X823571Y-12041381D02*
X823571Y-12003286D01*
X823571Y-12003286D02*
X814048Y-11984238D01*
X814048Y-11984238D02*
X804524Y-11974714D01*
X804524Y-11974714D02*
X785476Y-11965190D01*
X937857Y-11965190D02*
X918809Y-11955667D01*
X918809Y-11955667D02*
X909286Y-11946143D01*
X909286Y-11946143D02*
X899762Y-11927095D01*
X899762Y-11927095D02*
X899762Y-11917571D01*
X899762Y-11917571D02*
X909286Y-11898524D01*
X909286Y-11898524D02*
X918809Y-11889000D01*
X918809Y-11889000D02*
X937857Y-11879476D01*
X937857Y-11879476D02*
X975952Y-11879476D01*
X975952Y-11879476D02*
X995000Y-11889000D01*
X995000Y-11889000D02*
X1004524Y-11898524D01*
X1004524Y-11898524D02*
X1014048Y-11917571D01*
X1014048Y-11917571D02*
X1014048Y-11927095D01*
X1014048Y-11927095D02*
X1004524Y-11946143D01*
X1004524Y-11946143D02*
X995000Y-11955667D01*
X995000Y-11955667D02*
X975952Y-11965190D01*
X975952Y-11965190D02*
X937857Y-11965190D01*
X937857Y-11965190D02*
X918809Y-11974714D01*
X918809Y-11974714D02*
X909286Y-11984238D01*
X909286Y-11984238D02*
X899762Y-12003286D01*
X899762Y-12003286D02*
X899762Y-12041381D01*
X899762Y-12041381D02*
X909286Y-12060428D01*
X909286Y-12060428D02*
X918809Y-12069952D01*
X918809Y-12069952D02*
X937857Y-12079476D01*
X937857Y-12079476D02*
X975952Y-12079476D01*
X975952Y-12079476D02*
X995000Y-12069952D01*
X995000Y-12069952D02*
X1004524Y-12060428D01*
X1004524Y-12060428D02*
X1014048Y-12041381D01*
X1014048Y-12041381D02*
X1014048Y-12003286D01*
X1014048Y-12003286D02*
X1004524Y-11984238D01*
X1004524Y-11984238D02*
X995000Y-11974714D01*
X995000Y-11974714D02*
X975952Y-11965190D01*
X1099762Y-12079476D02*
X1099762Y-11946143D01*
X1099762Y-11965190D02*
X1109286Y-11955667D01*
X1109286Y-11955667D02*
X1128333Y-11946143D01*
X1128333Y-11946143D02*
X1156905Y-11946143D01*
X1156905Y-11946143D02*
X1175952Y-11955667D01*
X1175952Y-11955667D02*
X1185476Y-11974714D01*
X1185476Y-11974714D02*
X1185476Y-12079476D01*
X1185476Y-11974714D02*
X1195000Y-11955667D01*
X1195000Y-11955667D02*
X1214048Y-11946143D01*
X1214048Y-11946143D02*
X1242619Y-11946143D01*
X1242619Y-11946143D02*
X1261667Y-11955667D01*
X1261667Y-11955667D02*
X1271191Y-11974714D01*
X1271191Y-11974714D02*
X1271191Y-12079476D01*
X1366429Y-12079476D02*
X1366429Y-11946143D01*
X1366429Y-11965190D02*
X1375952Y-11955667D01*
X1375952Y-11955667D02*
X1395000Y-11946143D01*
X1395000Y-11946143D02*
X1423571Y-11946143D01*
X1423571Y-11946143D02*
X1442619Y-11955667D01*
X1442619Y-11955667D02*
X1452143Y-11974714D01*
X1452143Y-11974714D02*
X1452143Y-12079476D01*
X1452143Y-11974714D02*
X1461667Y-11955667D01*
X1461667Y-11955667D02*
X1480714Y-11946143D01*
X1480714Y-11946143D02*
X1509286Y-11946143D01*
X1509286Y-11946143D02*
X1528333Y-11955667D01*
X1528333Y-11955667D02*
X1537857Y-11974714D01*
X1537857Y-11974714D02*
X1537857Y-12079476D01*
X1895952Y-11869952D02*
X1724524Y-12127095D01*
X2120714Y-11879476D02*
X2139762Y-11879476D01*
X2139762Y-11879476D02*
X2158810Y-11889000D01*
X2158810Y-11889000D02*
X2168333Y-11898524D01*
X2168333Y-11898524D02*
X2177857Y-11917571D01*
X2177857Y-11917571D02*
X2187381Y-11955667D01*
X2187381Y-11955667D02*
X2187381Y-12003286D01*
X2187381Y-12003286D02*
X2177857Y-12041381D01*
X2177857Y-12041381D02*
X2168333Y-12060428D01*
X2168333Y-12060428D02*
X2158810Y-12069952D01*
X2158810Y-12069952D02*
X2139762Y-12079476D01*
X2139762Y-12079476D02*
X2120714Y-12079476D01*
X2120714Y-12079476D02*
X2101667Y-12069952D01*
X2101667Y-12069952D02*
X2092143Y-12060428D01*
X2092143Y-12060428D02*
X2082619Y-12041381D01*
X2082619Y-12041381D02*
X2073095Y-12003286D01*
X2073095Y-12003286D02*
X2073095Y-11955667D01*
X2073095Y-11955667D02*
X2082619Y-11917571D01*
X2082619Y-11917571D02*
X2092143Y-11898524D01*
X2092143Y-11898524D02*
X2101667Y-11889000D01*
X2101667Y-11889000D02*
X2120714Y-11879476D01*
X2273095Y-12060428D02*
X2282619Y-12069952D01*
X2282619Y-12069952D02*
X2273095Y-12079476D01*
X2273095Y-12079476D02*
X2263572Y-12069952D01*
X2263572Y-12069952D02*
X2273095Y-12060428D01*
X2273095Y-12060428D02*
X2273095Y-12079476D01*
X2473095Y-12079476D02*
X2358810Y-12079476D01*
X2415952Y-12079476D02*
X2415952Y-11879476D01*
X2415952Y-11879476D02*
X2396905Y-11908048D01*
X2396905Y-11908048D02*
X2377857Y-11927095D01*
X2377857Y-11927095D02*
X2358810Y-11936619D01*
X2654048Y-11879476D02*
X2558810Y-11879476D01*
X2558810Y-11879476D02*
X2549286Y-11974714D01*
X2549286Y-11974714D02*
X2558810Y-11965190D01*
X2558810Y-11965190D02*
X2577857Y-11955667D01*
X2577857Y-11955667D02*
X2625476Y-11955667D01*
X2625476Y-11955667D02*
X2644524Y-11965190D01*
X2644524Y-11965190D02*
X2654048Y-11974714D01*
X2654048Y-11974714D02*
X2663572Y-11993762D01*
X2663572Y-11993762D02*
X2663572Y-12041381D01*
X2663572Y-12041381D02*
X2654048Y-12060428D01*
X2654048Y-12060428D02*
X2644524Y-12069952D01*
X2644524Y-12069952D02*
X2625476Y-12079476D01*
X2625476Y-12079476D02*
X2577857Y-12079476D01*
X2577857Y-12079476D02*
X2558810Y-12069952D01*
X2558810Y-12069952D02*
X2549286Y-12060428D01*
X2730238Y-11879476D02*
X2863571Y-11879476D01*
X2863571Y-11879476D02*
X2777857Y-12079476D01*
X2977857Y-11879476D02*
X2996905Y-11879476D01*
X2996905Y-11879476D02*
X3015952Y-11889000D01*
X3015952Y-11889000D02*
X3025476Y-11898524D01*
X3025476Y-11898524D02*
X3035000Y-11917571D01*
X3035000Y-11917571D02*
X3044524Y-11955667D01*
X3044524Y-11955667D02*
X3044524Y-12003286D01*
X3044524Y-12003286D02*
X3035000Y-12041381D01*
X3035000Y-12041381D02*
X3025476Y-12060428D01*
X3025476Y-12060428D02*
X3015952Y-12069952D01*
X3015952Y-12069952D02*
X2996905Y-12079476D01*
X2996905Y-12079476D02*
X2977857Y-12079476D01*
X2977857Y-12079476D02*
X2958810Y-12069952D01*
X2958810Y-12069952D02*
X2949286Y-12060428D01*
X2949286Y-12060428D02*
X2939762Y-12041381D01*
X2939762Y-12041381D02*
X2930238Y-12003286D01*
X2930238Y-12003286D02*
X2930238Y-11955667D01*
X2930238Y-11955667D02*
X2939762Y-11917571D01*
X2939762Y-11917571D02*
X2949286Y-11898524D01*
X2949286Y-11898524D02*
X2958810Y-11889000D01*
X2958810Y-11889000D02*
X2977857Y-11879476D01*
X3120714Y-11879476D02*
X3120714Y-11917571D01*
X3196905Y-11879476D02*
X3196905Y-11917571D01*
X3459762Y-12155667D02*
X3450238Y-12146143D01*
X3450238Y-12146143D02*
X3431191Y-12117571D01*
X3431191Y-12117571D02*
X3421667Y-12098524D01*
X3421667Y-12098524D02*
X3412143Y-12069952D01*
X3412143Y-12069952D02*
X3402619Y-12022333D01*
X3402619Y-12022333D02*
X3402619Y-11984238D01*
X3402619Y-11984238D02*
X3412143Y-11936619D01*
X3412143Y-11936619D02*
X3421667Y-11908048D01*
X3421667Y-11908048D02*
X3431191Y-11889000D01*
X3431191Y-11889000D02*
X3450238Y-11860428D01*
X3450238Y-11860428D02*
X3459762Y-11850905D01*
X3526429Y-11898524D02*
X3535952Y-11889000D01*
X3535952Y-11889000D02*
X3555000Y-11879476D01*
X3555000Y-11879476D02*
X3602619Y-11879476D01*
X3602619Y-11879476D02*
X3621667Y-11889000D01*
X3621667Y-11889000D02*
X3631191Y-11898524D01*
X3631191Y-11898524D02*
X3640714Y-11917571D01*
X3640714Y-11917571D02*
X3640714Y-11936619D01*
X3640714Y-11936619D02*
X3631191Y-11965190D01*
X3631191Y-11965190D02*
X3516905Y-12079476D01*
X3516905Y-12079476D02*
X3640714Y-12079476D01*
X3821667Y-11879476D02*
X3726429Y-11879476D01*
X3726429Y-11879476D02*
X3716905Y-11974714D01*
X3716905Y-11974714D02*
X3726429Y-11965190D01*
X3726429Y-11965190D02*
X3745476Y-11955667D01*
X3745476Y-11955667D02*
X3793095Y-11955667D01*
X3793095Y-11955667D02*
X3812143Y-11965190D01*
X3812143Y-11965190D02*
X3821667Y-11974714D01*
X3821667Y-11974714D02*
X3831191Y-11993762D01*
X3831191Y-11993762D02*
X3831191Y-12041381D01*
X3831191Y-12041381D02*
X3821667Y-12060428D01*
X3821667Y-12060428D02*
X3812143Y-12069952D01*
X3812143Y-12069952D02*
X3793095Y-12079476D01*
X3793095Y-12079476D02*
X3745476Y-12079476D01*
X3745476Y-12079476D02*
X3726429Y-12069952D01*
X3726429Y-12069952D02*
X3716905Y-12060428D01*
X4036905Y-12079476D02*
X4036905Y-11879476D01*
X4122619Y-12079476D02*
X4122619Y-11974714D01*
X4122619Y-11974714D02*
X4113095Y-11955667D01*
X4113095Y-11955667D02*
X4094048Y-11946143D01*
X4094048Y-11946143D02*
X4065476Y-11946143D01*
X4065476Y-11946143D02*
X4046429Y-11955667D01*
X4046429Y-11955667D02*
X4036905Y-11965190D01*
X4246429Y-12079476D02*
X4227381Y-12069952D01*
X4227381Y-12069952D02*
X4217857Y-12060428D01*
X4217857Y-12060428D02*
X4208334Y-12041381D01*
X4208334Y-12041381D02*
X4208334Y-11984238D01*
X4208334Y-11984238D02*
X4217857Y-11965190D01*
X4217857Y-11965190D02*
X4227381Y-11955667D01*
X4227381Y-11955667D02*
X4246429Y-11946143D01*
X4246429Y-11946143D02*
X4275000Y-11946143D01*
X4275000Y-11946143D02*
X4294048Y-11955667D01*
X4294048Y-11955667D02*
X4303572Y-11965190D01*
X4303572Y-11965190D02*
X4313095Y-11984238D01*
X4313095Y-11984238D02*
X4313095Y-12041381D01*
X4313095Y-12041381D02*
X4303572Y-12060428D01*
X4303572Y-12060428D02*
X4294048Y-12069952D01*
X4294048Y-12069952D02*
X4275000Y-12079476D01*
X4275000Y-12079476D02*
X4246429Y-12079476D01*
X4427381Y-12079476D02*
X4408334Y-12069952D01*
X4408334Y-12069952D02*
X4398810Y-12050905D01*
X4398810Y-12050905D02*
X4398810Y-11879476D01*
X4579762Y-12069952D02*
X4560715Y-12079476D01*
X4560715Y-12079476D02*
X4522619Y-12079476D01*
X4522619Y-12079476D02*
X4503572Y-12069952D01*
X4503572Y-12069952D02*
X4494048Y-12050905D01*
X4494048Y-12050905D02*
X4494048Y-11974714D01*
X4494048Y-11974714D02*
X4503572Y-11955667D01*
X4503572Y-11955667D02*
X4522619Y-11946143D01*
X4522619Y-11946143D02*
X4560715Y-11946143D01*
X4560715Y-11946143D02*
X4579762Y-11955667D01*
X4579762Y-11955667D02*
X4589286Y-11974714D01*
X4589286Y-11974714D02*
X4589286Y-11993762D01*
X4589286Y-11993762D02*
X4494048Y-12012809D01*
X4665476Y-12069952D02*
X4684524Y-12079476D01*
X4684524Y-12079476D02*
X4722619Y-12079476D01*
X4722619Y-12079476D02*
X4741667Y-12069952D01*
X4741667Y-12069952D02*
X4751191Y-12050905D01*
X4751191Y-12050905D02*
X4751191Y-12041381D01*
X4751191Y-12041381D02*
X4741667Y-12022333D01*
X4741667Y-12022333D02*
X4722619Y-12012809D01*
X4722619Y-12012809D02*
X4694048Y-12012809D01*
X4694048Y-12012809D02*
X4675000Y-12003286D01*
X4675000Y-12003286D02*
X4665476Y-11984238D01*
X4665476Y-11984238D02*
X4665476Y-11974714D01*
X4665476Y-11974714D02*
X4675000Y-11955667D01*
X4675000Y-11955667D02*
X4694048Y-11946143D01*
X4694048Y-11946143D02*
X4722619Y-11946143D01*
X4722619Y-11946143D02*
X4741667Y-11955667D01*
X4817857Y-12155667D02*
X4827381Y-12146143D01*
X4827381Y-12146143D02*
X4846429Y-12117571D01*
X4846429Y-12117571D02*
X4855953Y-12098524D01*
X4855953Y-12098524D02*
X4865476Y-12069952D01*
X4865476Y-12069952D02*
X4875000Y-12022333D01*
X4875000Y-12022333D02*
X4875000Y-11984238D01*
X4875000Y-11984238D02*
X4865476Y-11936619D01*
X4865476Y-11936619D02*
X4855953Y-11908048D01*
X4855953Y-11908048D02*
X4846429Y-11889000D01*
X4846429Y-11889000D02*
X4827381Y-11860428D01*
X4827381Y-11860428D02*
X4817857Y-11850905D01*
X5147381Y-12155667D02*
X5137857Y-12146143D01*
X5137857Y-12146143D02*
X5118810Y-12117571D01*
X5118810Y-12117571D02*
X5109286Y-12098524D01*
X5109286Y-12098524D02*
X5099762Y-12069952D01*
X5099762Y-12069952D02*
X5090238Y-12022333D01*
X5090238Y-12022333D02*
X5090238Y-11984238D01*
X5090238Y-11984238D02*
X5099762Y-11936619D01*
X5099762Y-11936619D02*
X5109286Y-11908048D01*
X5109286Y-11908048D02*
X5118810Y-11889000D01*
X5118810Y-11889000D02*
X5137857Y-11860428D01*
X5137857Y-11860428D02*
X5147381Y-11850905D01*
X5223572Y-11946143D02*
X5223572Y-12079476D01*
X5223572Y-11965190D02*
X5233095Y-11955667D01*
X5233095Y-11955667D02*
X5252143Y-11946143D01*
X5252143Y-11946143D02*
X5280715Y-11946143D01*
X5280715Y-11946143D02*
X5299762Y-11955667D01*
X5299762Y-11955667D02*
X5309286Y-11974714D01*
X5309286Y-11974714D02*
X5309286Y-12079476D01*
X5433095Y-12079476D02*
X5414048Y-12069952D01*
X5414048Y-12069952D02*
X5404524Y-12060428D01*
X5404524Y-12060428D02*
X5395000Y-12041381D01*
X5395000Y-12041381D02*
X5395000Y-11984238D01*
X5395000Y-11984238D02*
X5404524Y-11965190D01*
X5404524Y-11965190D02*
X5414048Y-11955667D01*
X5414048Y-11955667D02*
X5433095Y-11946143D01*
X5433095Y-11946143D02*
X5461667Y-11946143D01*
X5461667Y-11946143D02*
X5480715Y-11955667D01*
X5480715Y-11955667D02*
X5490238Y-11965190D01*
X5490238Y-11965190D02*
X5499762Y-11984238D01*
X5499762Y-11984238D02*
X5499762Y-12041381D01*
X5499762Y-12041381D02*
X5490238Y-12060428D01*
X5490238Y-12060428D02*
X5480715Y-12069952D01*
X5480715Y-12069952D02*
X5461667Y-12079476D01*
X5461667Y-12079476D02*
X5433095Y-12079476D01*
X5556905Y-11946143D02*
X5633095Y-11946143D01*
X5585476Y-11879476D02*
X5585476Y-12050905D01*
X5585476Y-12050905D02*
X5595000Y-12069952D01*
X5595000Y-12069952D02*
X5614048Y-12079476D01*
X5614048Y-12079476D02*
X5633095Y-12079476D01*
X5819762Y-11946143D02*
X5819762Y-12146143D01*
X5819762Y-11955667D02*
X5838810Y-11946143D01*
X5838810Y-11946143D02*
X5876905Y-11946143D01*
X5876905Y-11946143D02*
X5895953Y-11955667D01*
X5895953Y-11955667D02*
X5905476Y-11965190D01*
X5905476Y-11965190D02*
X5915000Y-11984238D01*
X5915000Y-11984238D02*
X5915000Y-12041381D01*
X5915000Y-12041381D02*
X5905476Y-12060428D01*
X5905476Y-12060428D02*
X5895953Y-12069952D01*
X5895953Y-12069952D02*
X5876905Y-12079476D01*
X5876905Y-12079476D02*
X5838810Y-12079476D01*
X5838810Y-12079476D02*
X5819762Y-12069952D01*
X6029286Y-12079476D02*
X6010238Y-12069952D01*
X6010238Y-12069952D02*
X6000714Y-12050905D01*
X6000714Y-12050905D02*
X6000714Y-11879476D01*
X6191191Y-12079476D02*
X6191191Y-11974714D01*
X6191191Y-11974714D02*
X6181667Y-11955667D01*
X6181667Y-11955667D02*
X6162619Y-11946143D01*
X6162619Y-11946143D02*
X6124524Y-11946143D01*
X6124524Y-11946143D02*
X6105476Y-11955667D01*
X6191191Y-12069952D02*
X6172143Y-12079476D01*
X6172143Y-12079476D02*
X6124524Y-12079476D01*
X6124524Y-12079476D02*
X6105476Y-12069952D01*
X6105476Y-12069952D02*
X6095953Y-12050905D01*
X6095953Y-12050905D02*
X6095953Y-12031857D01*
X6095953Y-12031857D02*
X6105476Y-12012809D01*
X6105476Y-12012809D02*
X6124524Y-12003286D01*
X6124524Y-12003286D02*
X6172143Y-12003286D01*
X6172143Y-12003286D02*
X6191191Y-11993762D01*
X6257857Y-11946143D02*
X6334048Y-11946143D01*
X6286429Y-11879476D02*
X6286429Y-12050905D01*
X6286429Y-12050905D02*
X6295953Y-12069952D01*
X6295953Y-12069952D02*
X6315000Y-12079476D01*
X6315000Y-12079476D02*
X6334048Y-12079476D01*
X6476905Y-12069952D02*
X6457857Y-12079476D01*
X6457857Y-12079476D02*
X6419762Y-12079476D01*
X6419762Y-12079476D02*
X6400714Y-12069952D01*
X6400714Y-12069952D02*
X6391191Y-12050905D01*
X6391191Y-12050905D02*
X6391191Y-11974714D01*
X6391191Y-11974714D02*
X6400714Y-11955667D01*
X6400714Y-11955667D02*
X6419762Y-11946143D01*
X6419762Y-11946143D02*
X6457857Y-11946143D01*
X6457857Y-11946143D02*
X6476905Y-11955667D01*
X6476905Y-11955667D02*
X6486429Y-11974714D01*
X6486429Y-11974714D02*
X6486429Y-11993762D01*
X6486429Y-11993762D02*
X6391191Y-12012809D01*
X6657857Y-12079476D02*
X6657857Y-11879476D01*
X6657857Y-12069952D02*
X6638810Y-12079476D01*
X6638810Y-12079476D02*
X6600714Y-12079476D01*
X6600714Y-12079476D02*
X6581667Y-12069952D01*
X6581667Y-12069952D02*
X6572143Y-12060428D01*
X6572143Y-12060428D02*
X6562619Y-12041381D01*
X6562619Y-12041381D02*
X6562619Y-11984238D01*
X6562619Y-11984238D02*
X6572143Y-11965190D01*
X6572143Y-11965190D02*
X6581667Y-11955667D01*
X6581667Y-11955667D02*
X6600714Y-11946143D01*
X6600714Y-11946143D02*
X6638810Y-11946143D01*
X6638810Y-11946143D02*
X6657857Y-11955667D01*
X6734048Y-12155667D02*
X6743572Y-12146143D01*
X6743572Y-12146143D02*
X6762619Y-12117571D01*
X6762619Y-12117571D02*
X6772143Y-12098524D01*
X6772143Y-12098524D02*
X6781667Y-12069952D01*
X6781667Y-12069952D02*
X6791191Y-12022333D01*
X6791191Y-12022333D02*
X6791191Y-11984238D01*
X6791191Y-11984238D02*
X6781667Y-11936619D01*
X6781667Y-11936619D02*
X6772143Y-11908048D01*
X6772143Y-11908048D02*
X6762619Y-11889000D01*
X6762619Y-11889000D02*
X6743572Y-11860428D01*
X6743572Y-11860428D02*
X6734048Y-11850905D01*
M02*
