G04 #@! TF.GenerationSoftware,KiCad,Pcbnew,(6.99.0-1912-g359c99991b)*
G04 #@! TF.CreationDate,2022-07-11T13:53:33+07:00*
G04 #@! TF.ProjectId,lazulipad,6c617a75-6c69-4706-9164-2e6b69636164,1*
G04 #@! TF.SameCoordinates,Original*
G04 #@! TF.FileFunction,Paste,Bot*
G04 #@! TF.FilePolarity,Positive*
%FSLAX46Y46*%
G04 Gerber Fmt 4.6, Leading zero omitted, Abs format (unit mm)*
G04 Created by KiCad (PCBNEW (6.99.0-1912-g359c99991b)) date 2022-07-11 13:53:33*
%MOMM*%
%LPD*%
G01*
G04 APERTURE LIST*
G04 Aperture macros list*
%AMRoundRect*
0 Rectangle with rounded corners*
0 $1 Rounding radius*
0 $2 $3 $4 $5 $6 $7 $8 $9 X,Y pos of 4 corners*
0 Add a 4 corners polygon primitive as box body*
4,1,4,$2,$3,$4,$5,$6,$7,$8,$9,$2,$3,0*
0 Add four circle primitives for the rounded corners*
1,1,$1+$1,$2,$3*
1,1,$1+$1,$4,$5*
1,1,$1+$1,$6,$7*
1,1,$1+$1,$8,$9*
0 Add four rect primitives between the rounded corners*
20,1,$1+$1,$2,$3,$4,$5,0*
20,1,$1+$1,$4,$5,$6,$7,0*
20,1,$1+$1,$6,$7,$8,$9,0*
20,1,$1+$1,$8,$9,$2,$3,0*%
G04 Aperture macros list end*
%ADD10R,1.550000X0.600000*%
%ADD11RoundRect,0.250000X0.625000X-0.375000X0.625000X0.375000X-0.625000X0.375000X-0.625000X-0.375000X0*%
%ADD12R,1.700000X1.000000*%
%ADD13RoundRect,0.250000X1.025000X1.000000X-1.025000X1.000000X-1.025000X-1.000000X1.025000X-1.000000X0*%
%ADD14RoundRect,0.250000X0.250000X0.475000X-0.250000X0.475000X-0.250000X-0.475000X0.250000X-0.475000X0*%
%ADD15RoundRect,0.250000X-0.450000X0.262500X-0.450000X-0.262500X0.450000X-0.262500X0.450000X0.262500X0*%
%ADD16R,1.000000X0.800000*%
%ADD17R,1.200000X0.900000*%
%ADD18RoundRect,0.250000X0.450000X-0.262500X0.450000X0.262500X-0.450000X0.262500X-0.450000X-0.262500X0*%
%ADD19R,1.200000X1.400000*%
%ADD20RoundRect,0.250000X0.475000X-0.250000X0.475000X0.250000X-0.475000X0.250000X-0.475000X-0.250000X0*%
%ADD21R,0.900000X1.200000*%
%ADD22RoundRect,0.250000X-0.262500X-0.450000X0.262500X-0.450000X0.262500X0.450000X-0.262500X0.450000X0*%
%ADD23RoundRect,0.250000X0.262500X0.450000X-0.262500X0.450000X-0.262500X-0.450000X0.262500X-0.450000X0*%
%ADD24RoundRect,0.250000X-1.025000X-1.000000X1.025000X-1.000000X1.025000X1.000000X-1.025000X1.000000X0*%
%ADD25R,0.600000X1.450000*%
%ADD26R,0.300000X1.450000*%
%ADD27RoundRect,0.150000X0.650000X0.150000X-0.650000X0.150000X-0.650000X-0.150000X0.650000X-0.150000X0*%
%ADD28RoundRect,0.250000X-0.475000X0.250000X-0.475000X-0.250000X0.475000X-0.250000X0.475000X0.250000X0*%
%ADD29RoundRect,0.075000X-0.662500X-0.075000X0.662500X-0.075000X0.662500X0.075000X-0.662500X0.075000X0*%
%ADD30RoundRect,0.075000X-0.075000X-0.662500X0.075000X-0.662500X0.075000X0.662500X-0.075000X0.662500X0*%
%ADD31R,1.400000X1.200000*%
%ADD32R,1.400000X1.000000*%
G04 #@! TA.AperFunction,Profile*
%ADD33C,0.100000*%
G04 #@! TD*
G04 APERTURE END LIST*
D10*
X12190999Y-72135999D03*
X12190999Y-70865999D03*
X12190999Y-69595999D03*
X12190999Y-68325999D03*
X17590999Y-68325999D03*
X17590999Y-69595999D03*
X17590999Y-70865999D03*
X17590999Y-72135999D03*
D11*
X33560000Y-19815000D03*
X33560000Y-17015000D03*
D12*
X10769999Y-86491999D03*
X4469999Y-86491999D03*
X10769999Y-90291999D03*
X4469999Y-90291999D03*
D13*
X75014500Y-44560000D03*
X88464500Y-42020000D03*
X94064500Y-6460000D03*
X107514500Y-3920000D03*
D14*
X11650000Y-59817000D03*
X9750000Y-59817000D03*
D13*
X75014500Y-6460000D03*
X88464500Y-3920000D03*
D15*
X12097000Y-24487500D03*
X12097000Y-26312500D03*
D16*
X26009999Y-16062998D03*
X26009999Y-14162999D03*
X28409999Y-15112999D03*
D17*
X70389999Y-78613999D03*
X70389999Y-81913999D03*
X75215999Y-73023999D03*
X75215999Y-69723999D03*
D13*
X55964500Y-25510000D03*
X69414500Y-22970000D03*
D18*
X27034844Y-10838616D03*
X27034844Y-9013616D03*
D19*
X11549999Y-55414999D03*
X11549999Y-57614999D03*
X9849999Y-57614999D03*
X9849999Y-55414999D03*
D17*
X56165999Y-15873999D03*
X56165999Y-12573999D03*
D20*
X25432000Y-46797000D03*
X25432000Y-44897000D03*
D15*
X19844000Y-24487500D03*
X19844000Y-26312500D03*
D21*
X42829999Y-18541999D03*
X39529999Y-18541999D03*
D13*
X36914500Y-6460000D03*
X50364500Y-3920000D03*
D18*
X23146000Y-46759500D03*
X23146000Y-44934500D03*
D15*
X33409719Y-8986680D03*
X33409719Y-10811680D03*
D18*
X31274000Y-11326500D03*
X31274000Y-9501500D03*
D20*
X7398000Y-26350000D03*
X7398000Y-24450000D03*
D12*
X23900999Y-90418999D03*
X30200999Y-90418999D03*
X23900999Y-86618999D03*
X30200999Y-86618999D03*
D13*
X94064500Y-44560000D03*
X107514500Y-42020000D03*
D22*
X27567500Y-51435000D03*
X29392500Y-51435000D03*
D13*
X94064500Y-73135000D03*
X107514500Y-70595000D03*
D17*
X37115999Y-53973999D03*
X37115999Y-50673999D03*
D13*
X75014500Y-63610000D03*
X88464500Y-61070000D03*
D17*
X38385999Y-15873999D03*
X38385999Y-12573999D03*
D23*
X29392500Y-49276000D03*
X27567500Y-49276000D03*
D18*
X22130000Y-26312500D03*
X22130000Y-24487500D03*
D24*
X89734500Y-87740000D03*
X76284500Y-90280000D03*
D13*
X36914500Y-73135000D03*
X50364500Y-70595000D03*
X36914500Y-63610000D03*
X50364500Y-61070000D03*
D22*
X29853500Y-71628000D03*
X31678500Y-71628000D03*
D25*
X27032999Y-1831999D03*
X27807999Y-1831999D03*
D26*
X28507999Y-1831999D03*
X29007999Y-1831999D03*
X29507999Y-1831999D03*
X30007999Y-1831999D03*
X30507999Y-1831999D03*
X31007999Y-1831999D03*
X31507999Y-1831999D03*
X32007999Y-1831999D03*
D25*
X32707999Y-1831999D03*
X33482999Y-1831999D03*
D20*
X27718000Y-46797000D03*
X27718000Y-44897000D03*
D13*
X55964500Y-6460000D03*
X69414500Y-3920000D03*
X36914500Y-35035000D03*
X50364500Y-32495000D03*
X8627000Y-35035000D03*
X22077000Y-32495000D03*
D17*
X75215999Y-15873999D03*
X75215999Y-12573999D03*
D13*
X94064500Y-35035000D03*
X107514500Y-32495000D03*
D27*
X32969000Y-65532000D03*
X32969000Y-66802000D03*
X32969000Y-68072000D03*
X32969000Y-69342000D03*
X25769000Y-69342000D03*
X25769000Y-68072000D03*
X25769000Y-66802000D03*
X25769000Y-65532000D03*
D23*
X31678500Y-63246000D03*
X29853500Y-63246000D03*
D28*
X14637000Y-75255000D03*
X14637000Y-77155000D03*
D23*
X16311500Y-66040000D03*
X14486500Y-66040000D03*
D17*
X75215999Y-34923999D03*
X75215999Y-31623999D03*
D14*
X14063000Y-51054000D03*
X12163000Y-51054000D03*
X11650000Y-53213000D03*
X9750000Y-53213000D03*
D18*
X29242000Y-11326500D03*
X29242000Y-9501500D03*
D17*
X37115999Y-91565999D03*
X37115999Y-88265999D03*
D13*
X94064500Y-25510000D03*
X107514500Y-22970000D03*
D17*
X94265999Y-15873999D03*
X94265999Y-12573999D03*
D28*
X13748000Y-88458000D03*
X13748000Y-90358000D03*
D17*
X37115999Y-81913999D03*
X37115999Y-78613999D03*
X56165999Y-53973999D03*
X56165999Y-50673999D03*
D13*
X46439500Y-82660000D03*
X59889500Y-80120000D03*
D17*
X75215999Y-53973999D03*
X75215999Y-50673999D03*
X88931999Y-34923999D03*
X88931999Y-31623999D03*
D29*
X16443500Y-58884000D03*
X16443500Y-58384000D03*
X16443500Y-57884000D03*
X16443500Y-57384000D03*
X16443500Y-56884000D03*
X16443500Y-56384000D03*
X16443500Y-55884000D03*
X16443500Y-55384000D03*
X16443500Y-54884000D03*
X16443500Y-54384000D03*
X16443500Y-53884000D03*
X16443500Y-53384000D03*
D30*
X17856000Y-51971500D03*
X18356000Y-51971500D03*
X18856000Y-51971500D03*
X19356000Y-51971500D03*
X19856000Y-51971500D03*
X20356000Y-51971500D03*
X20856000Y-51971500D03*
X21356000Y-51971500D03*
X21856000Y-51971500D03*
X22356000Y-51971500D03*
X22856000Y-51971500D03*
X23356000Y-51971500D03*
D29*
X24768500Y-53384000D03*
X24768500Y-53884000D03*
X24768500Y-54384000D03*
X24768500Y-54884000D03*
X24768500Y-55384000D03*
X24768500Y-55884000D03*
X24768500Y-56384000D03*
X24768500Y-56884000D03*
X24768500Y-57384000D03*
X24768500Y-57884000D03*
X24768500Y-58384000D03*
X24768500Y-58884000D03*
D30*
X23356000Y-60296500D03*
X22856000Y-60296500D03*
X22356000Y-60296500D03*
X21856000Y-60296500D03*
X21356000Y-60296500D03*
X20856000Y-60296500D03*
X20356000Y-60296500D03*
X19856000Y-60296500D03*
X19356000Y-60296500D03*
X18856000Y-60296500D03*
X18356000Y-60296500D03*
X17856000Y-60296500D03*
D15*
X19844000Y-71223500D03*
X19844000Y-73048500D03*
D21*
X15143999Y-2539999D03*
X11843999Y-2539999D03*
D17*
X56165999Y-73023999D03*
X56165999Y-69723999D03*
X8794999Y-44448999D03*
X8794999Y-41148999D03*
D20*
X24543000Y-26350000D03*
X24543000Y-24450000D03*
D13*
X55964500Y-44560000D03*
X69414500Y-42020000D03*
D17*
X94265999Y-53973999D03*
X94265999Y-50673999D03*
D14*
X29049000Y-59817000D03*
X27149000Y-59817000D03*
D18*
X9684000Y-26312500D03*
X9684000Y-24487500D03*
D13*
X36914500Y-44560000D03*
X50364500Y-42020000D03*
D18*
X33433000Y-14374500D03*
X33433000Y-12549500D03*
D28*
X26067000Y-17973000D03*
X26067000Y-19873000D03*
X28353000Y-17973000D03*
X28353000Y-19873000D03*
D17*
X104171999Y-91565999D03*
X104171999Y-88265999D03*
X56165999Y-34923999D03*
X56165999Y-31623999D03*
D18*
X20860000Y-90320500D03*
X20860000Y-88495500D03*
D24*
X70684500Y-87740000D03*
X57234500Y-90280000D03*
D17*
X88931999Y-73023999D03*
X88931999Y-69723999D03*
D31*
X31357999Y-6087999D03*
D32*
X31357999Y-7807999D03*
X29157999Y-7807999D03*
X29157999Y-5907999D03*
D13*
X36914500Y-25510000D03*
X50364500Y-22970000D03*
X84539500Y-82660000D03*
X97989500Y-80120000D03*
D20*
X16923000Y-77150000D03*
X16923000Y-75250000D03*
D13*
X55964500Y-63610000D03*
X69414500Y-61070000D03*
D17*
X75215999Y-78613999D03*
X75215999Y-81913999D03*
D28*
X12351000Y-75255000D03*
X12351000Y-77155000D03*
D13*
X75014500Y-25510000D03*
X88464500Y-22970000D03*
D28*
X25305000Y-49088000D03*
X25305000Y-50988000D03*
D14*
X14063000Y-61976000D03*
X12163000Y-61976000D03*
D13*
X94064500Y-63610000D03*
X107514500Y-61070000D03*
D33*
X35338000Y3889000D02*
G75*
G03*
X34576000Y4699000I-786000J24000D01*
G01*
X35338001Y690001D02*
G75*
G03*
X36076001Y-23999I725999J11999D01*
G01*
X108472786Y-94200000D02*
X2000000Y-94200000D01*
X110472786Y-2000000D02*
X110472786Y-92200000D01*
X36076001Y-23999D02*
X108472786Y0D01*
X0Y-92200000D02*
G75*
G03*
X2000000Y-94200000I1999995J-5D01*
G01*
X2000000Y0D02*
X24470816Y0D01*
X24470816Y-16D02*
G75*
G03*
X25184816Y738001I-12016J726016D01*
G01*
X35338000Y690001D02*
X35338000Y3889000D01*
X25184816Y738001D02*
X25184816Y3937000D01*
X108472786Y-94199986D02*
G75*
G03*
X110472786Y-92200000I14J1999986D01*
G01*
X25994815Y4698983D02*
G75*
G03*
X25184816Y3937000I-24015J-785983D01*
G01*
X2000000Y0D02*
G75*
G03*
X0Y-2000000I-1J-1999999D01*
G01*
X34576000Y4699000D02*
X25994816Y4699000D01*
X0Y-92200000D02*
X0Y-2000000D01*
X110472800Y-2000000D02*
G75*
G03*
X108472786Y0I-2000000J0D01*
G01*
M02*
