G04 #@! TF.GenerationSoftware,KiCad,Pcbnew,(6.99.0-1912-g359c99991b)*
G04 #@! TF.CreationDate,2022-05-28T20:20:25+07:00*
G04 #@! TF.ProjectId,toxicdog69,746f7869-6364-46f6-9736-392e6b696361,1*
G04 #@! TF.SameCoordinates,Original*
G04 #@! TF.FileFunction,Paste,Bot*
G04 #@! TF.FilePolarity,Positive*
%FSLAX46Y46*%
G04 Gerber Fmt 4.6, Leading zero omitted, Abs format (unit mm)*
G04 Created by KiCad (PCBNEW (6.99.0-1912-g359c99991b)) date 2022-05-28 20:20:25*
%MOMM*%
%LPD*%
G01*
G04 APERTURE LIST*
G04 Aperture macros list*
%AMRoundRect*
0 Rectangle with rounded corners*
0 $1 Rounding radius*
0 $2 $3 $4 $5 $6 $7 $8 $9 X,Y pos of 4 corners*
0 Add a 4 corners polygon primitive as box body*
4,1,4,$2,$3,$4,$5,$6,$7,$8,$9,$2,$3,0*
0 Add four circle primitives for the rounded corners*
1,1,$1+$1,$2,$3*
1,1,$1+$1,$4,$5*
1,1,$1+$1,$6,$7*
1,1,$1+$1,$8,$9*
0 Add four rect primitives between the rounded corners*
20,1,$1+$1,$2,$3,$4,$5,0*
20,1,$1+$1,$4,$5,$6,$7,0*
20,1,$1+$1,$6,$7,$8,$9,0*
20,1,$1+$1,$8,$9,$2,$3,0*%
G04 Aperture macros list end*
%ADD10R,0.700000X0.340000*%
%ADD11R,2.550000X2.500000*%
%ADD12R,1.200000X0.900000*%
%ADD13RoundRect,0.250000X0.475000X-0.250000X0.475000X0.250000X-0.475000X0.250000X-0.475000X-0.250000X0*%
%ADD14RoundRect,0.250000X-0.262500X-0.450000X0.262500X-0.450000X0.262500X0.450000X-0.262500X0.450000X0*%
%ADD15RoundRect,0.250000X0.250000X0.475000X-0.250000X0.475000X-0.250000X-0.475000X0.250000X-0.475000X0*%
%ADD16RoundRect,0.250000X0.292217X0.292217X-0.292217X0.292217X-0.292217X-0.292217X0.292217X-0.292217X0*%
%ADD17RoundRect,0.050000X0.387500X0.050000X-0.387500X0.050000X-0.387500X-0.050000X0.387500X-0.050000X0*%
%ADD18RoundRect,0.050000X0.050000X0.387500X-0.050000X0.387500X-0.050000X-0.387500X0.050000X-0.387500X0*%
%ADD19RoundRect,0.150000X-0.625000X0.150000X-0.625000X-0.150000X0.625000X-0.150000X0.625000X0.150000X0*%
%ADD20RoundRect,0.250000X-0.650000X0.350000X-0.650000X-0.350000X0.650000X-0.350000X0.650000X0.350000X0*%
%ADD21RoundRect,0.250000X-0.450000X0.262500X-0.450000X-0.262500X0.450000X-0.262500X0.450000X0.262500X0*%
%ADD22RoundRect,0.250000X0.262500X0.450000X-0.262500X0.450000X-0.262500X-0.450000X0.262500X-0.450000X0*%
%ADD23RoundRect,0.250000X-0.475000X0.250000X-0.475000X-0.250000X0.475000X-0.250000X0.475000X0.250000X0*%
%ADD24RoundRect,0.250000X-0.250000X-0.475000X0.250000X-0.475000X0.250000X0.475000X-0.250000X0.475000X0*%
%ADD25R,0.450000X0.600000*%
%ADD26R,1.550000X0.600000*%
%ADD27R,1.700000X1.000000*%
%ADD28RoundRect,0.250000X0.450000X-0.262500X0.450000X0.262500X-0.450000X0.262500X-0.450000X-0.262500X0*%
%ADD29RoundRect,0.150000X-0.512500X-0.150000X0.512500X-0.150000X0.512500X0.150000X-0.512500X0.150000X0*%
%ADD30RoundRect,0.150000X0.150000X-0.512500X0.150000X0.512500X-0.150000X0.512500X-0.150000X-0.512500X0*%
%ADD31RoundRect,0.250000X0.435000X0.615000X-0.435000X0.615000X-0.435000X-0.615000X0.435000X-0.615000X0*%
%ADD32RoundRect,0.125000X0.250000X0.125000X-0.250000X0.125000X-0.250000X-0.125000X0.250000X-0.125000X0*%
%ADD33R,1.200000X1.400000*%
%ADD34RoundRect,0.250000X-0.625000X0.375000X-0.625000X-0.375000X0.625000X-0.375000X0.625000X0.375000X0*%
G04 #@! TA.AperFunction,Profile*
%ADD35C,0.100000*%
G04 #@! TD*
G04 APERTURE END LIST*
D10*
X321932999Y-61221999D03*
X321932999Y-62221999D03*
X320432999Y-61221999D03*
X321932999Y-61721999D03*
X320432999Y-62221999D03*
X320432999Y-61721999D03*
X321932999Y-66555999D03*
X321932999Y-67555999D03*
X320432999Y-66555999D03*
X321932999Y-67055999D03*
X320432999Y-67555999D03*
X320432999Y-67055999D03*
D11*
X4296249Y-44559999D03*
X17223249Y-42019999D03*
X82877499Y-63609999D03*
X95804499Y-61069999D03*
X44659999Y-87739999D03*
X31732999Y-90279999D03*
X49539999Y-25509999D03*
X62466999Y-22969999D03*
X87639999Y-25509999D03*
X100566999Y-22969999D03*
X125739999Y-25509999D03*
X138666999Y-22969999D03*
X263734999Y-11539999D03*
X250807999Y-14079999D03*
X163839999Y-25509999D03*
X176766999Y-22969999D03*
X120977499Y-63609999D03*
X133904499Y-61069999D03*
X178127499Y-63609999D03*
X191054499Y-61069999D03*
X106689999Y-25509999D03*
X119616999Y-22969999D03*
X130502499Y-44559999D03*
X143429499Y-42019999D03*
X173364999Y-6459999D03*
X186291999Y-3919999D03*
X97164999Y-6459999D03*
X110091999Y-3919999D03*
X256591249Y-87739999D03*
X243664249Y-90279999D03*
X30489999Y-25509999D03*
X43416999Y-22969999D03*
X270996249Y-85041249D03*
X283923249Y-82501249D03*
X197177499Y-63609999D03*
X210104499Y-61069999D03*
X206702499Y-44559999D03*
X219629499Y-42019999D03*
X135264999Y-82659999D03*
X148191999Y-80119999D03*
X13821249Y-63609999D03*
X26748249Y-61069999D03*
X6677499Y-25509999D03*
X19604499Y-22969999D03*
X220989999Y-25509999D03*
X233916999Y-22969999D03*
X23228749Y-49639999D03*
X10301749Y-52179999D03*
X40014999Y-6459999D03*
X52941999Y-3919999D03*
X28108749Y-82659999D03*
X41035749Y-80119999D03*
X263852499Y-25509999D03*
X276779499Y-22969999D03*
X137528749Y-87739999D03*
X124601749Y-90279999D03*
X240039999Y-25509999D03*
X252966999Y-22969999D03*
X240039999Y-82659999D03*
X252966999Y-80119999D03*
X116214999Y-6459999D03*
X129141999Y-3919999D03*
X225752499Y-44559999D03*
X238679499Y-42019999D03*
X282784999Y-68689999D03*
X269857999Y-71229999D03*
X44777499Y-63609999D03*
X57704499Y-61069999D03*
X259089999Y-6459999D03*
X272016999Y-3919999D03*
X168602499Y-44559999D03*
X181529499Y-42019999D03*
X309096249Y-6459999D03*
X322023249Y-3919999D03*
X35252499Y-44559999D03*
X48179499Y-42019999D03*
X194796249Y-82659999D03*
X207723249Y-80119999D03*
X182889999Y-25509999D03*
X195816999Y-22969999D03*
X20964999Y-6459999D03*
X33891999Y-3919999D03*
X290046249Y-85041249D03*
X302973249Y-82501249D03*
X111452499Y-44559999D03*
X124379499Y-42019999D03*
X54302499Y-44559999D03*
X67229499Y-42019999D03*
X140027499Y-63609999D03*
X152954499Y-61069999D03*
X290046249Y-25509999D03*
X302973249Y-22969999D03*
X156696249Y-82659999D03*
X169623249Y-80119999D03*
X216227499Y-63609999D03*
X229154499Y-61069999D03*
X68472499Y-87739999D03*
X55545499Y-90279999D03*
X211464999Y-6459999D03*
X224391999Y-3919999D03*
X78114999Y-6459999D03*
X91041999Y-3919999D03*
X73352499Y-44559999D03*
X86279499Y-42019999D03*
X290046249Y-65991249D03*
X302973249Y-63451249D03*
X201939999Y-25509999D03*
X214866999Y-22969999D03*
X1914999Y-6459999D03*
X14841999Y-3919999D03*
X159077499Y-63609999D03*
X172004499Y-61069999D03*
X135264999Y-6459999D03*
X148191999Y-3919999D03*
X309096249Y-85041249D03*
X322023249Y-82501249D03*
X309096249Y-25509999D03*
X322023249Y-22969999D03*
X256708749Y-44559999D03*
X269635749Y-42019999D03*
X213846249Y-82659999D03*
X226773249Y-80119999D03*
X85258749Y-82659999D03*
X98185749Y-80119999D03*
X192414999Y-6459999D03*
X205341999Y-3919999D03*
X51921249Y-82659999D03*
X64848249Y-80119999D03*
X230514999Y-6459999D03*
X243441999Y-3919999D03*
X232778749Y-87739999D03*
X219851749Y-90279999D03*
X256591249Y-68689999D03*
X243664249Y-71229999D03*
X251946249Y-63609999D03*
X264873249Y-61069999D03*
X187652499Y-44559999D03*
X200579499Y-42019999D03*
X282784999Y-11539999D03*
X269857999Y-14079999D03*
X101927499Y-63609999D03*
X114854499Y-61069999D03*
X92402499Y-44559999D03*
X105329499Y-42019999D03*
X154314999Y-6459999D03*
X167241999Y-3919999D03*
X18466249Y-68689999D03*
X5539249Y-71229999D03*
X149552499Y-44559999D03*
X162479499Y-42019999D03*
X63827499Y-63609999D03*
X76754499Y-61069999D03*
X59064999Y-6459999D03*
X71991999Y-3919999D03*
X118596249Y-82659999D03*
X131523249Y-80119999D03*
X4296249Y-82659999D03*
X17223249Y-80119999D03*
X290046249Y-6459999D03*
X302973249Y-3919999D03*
X39897499Y-68689999D03*
X26970499Y-71229999D03*
X144789999Y-25509999D03*
X157716999Y-22969999D03*
X20847499Y-87739999D03*
X7920499Y-90279999D03*
X68589999Y-25509999D03*
X81516999Y-22969999D03*
D12*
X187705999Y-54227999D03*
X187705999Y-50927999D03*
D13*
X289179000Y-42352000D03*
X289179000Y-40452000D03*
D12*
X111505999Y-54227999D03*
X111505999Y-50927999D03*
X154177999Y-16127999D03*
X154177999Y-12827999D03*
X206755999Y-54227999D03*
X206755999Y-50927999D03*
D14*
X315825500Y-65405000D03*
X317650500Y-65405000D03*
D12*
X20827999Y-16127999D03*
X20827999Y-12827999D03*
X40131999Y-60325999D03*
X40131999Y-63625999D03*
X101853999Y-73277999D03*
X101853999Y-69977999D03*
X116077999Y-16127999D03*
X116077999Y-12827999D03*
X144779999Y-35177999D03*
X144779999Y-31877999D03*
X289909249Y-94709249D03*
X289909249Y-91409249D03*
D13*
X291719000Y-42352000D03*
X291719000Y-40452000D03*
D12*
X106679999Y-35177999D03*
X106679999Y-31877999D03*
D15*
X41971000Y-14732000D03*
X40071000Y-14732000D03*
D16*
X290197500Y-48389500D03*
X290197500Y-47114500D03*
X288922500Y-48389500D03*
X288922500Y-47114500D03*
D17*
X292997500Y-45152000D03*
X292997500Y-45552000D03*
X292997500Y-45952000D03*
X292997500Y-46352000D03*
X292997500Y-46752000D03*
X292997500Y-47152000D03*
X292997500Y-47552000D03*
X292997500Y-47952000D03*
X292997500Y-48352000D03*
X292997500Y-48752000D03*
X292997500Y-49152000D03*
X292997500Y-49552000D03*
X292997500Y-49952000D03*
X292997500Y-50352000D03*
D18*
X292160000Y-51189500D03*
X291760000Y-51189500D03*
X291360000Y-51189500D03*
X290960000Y-51189500D03*
X290560000Y-51189500D03*
X290160000Y-51189500D03*
X289760000Y-51189500D03*
X289360000Y-51189500D03*
X288960000Y-51189500D03*
X288560000Y-51189500D03*
X288160000Y-51189500D03*
X287760000Y-51189500D03*
X287360000Y-51189500D03*
X286960000Y-51189500D03*
D17*
X286122500Y-50352000D03*
X286122500Y-49952000D03*
X286122500Y-49552000D03*
X286122500Y-49152000D03*
X286122500Y-48752000D03*
X286122500Y-48352000D03*
X286122500Y-47952000D03*
X286122500Y-47552000D03*
X286122500Y-47152000D03*
X286122500Y-46752000D03*
X286122500Y-46352000D03*
X286122500Y-45952000D03*
X286122500Y-45552000D03*
X286122500Y-45152000D03*
D18*
X286960000Y-44314500D03*
X287360000Y-44314500D03*
X287760000Y-44314500D03*
X288160000Y-44314500D03*
X288560000Y-44314500D03*
X288960000Y-44314500D03*
X289360000Y-44314500D03*
X289760000Y-44314500D03*
X290160000Y-44314500D03*
X290560000Y-44314500D03*
X290960000Y-44314500D03*
X291360000Y-44314500D03*
X291760000Y-44314500D03*
X292160000Y-44314500D03*
D12*
X248665999Y-3175999D03*
X248665999Y-6475999D03*
D19*
X58740000Y-16000000D03*
X58740000Y-17000000D03*
X58740000Y-18000000D03*
X58740000Y-19000000D03*
D20*
X62615000Y-14700000D03*
X62615000Y-20300000D03*
D12*
X6603999Y-35177999D03*
X6603999Y-31877999D03*
X120903999Y-73277999D03*
X120903999Y-69977999D03*
D21*
X318262000Y-53824500D03*
X318262000Y-55649500D03*
D22*
X322095500Y-59055000D03*
X320270500Y-59055000D03*
D23*
X287147000Y-53533000D03*
X287147000Y-55433000D03*
D12*
X211327999Y-16127999D03*
X211327999Y-12827999D03*
X118617999Y-92327999D03*
X118617999Y-89027999D03*
D23*
X322326000Y-39690000D03*
X322326000Y-41590000D03*
D12*
X270859249Y-94709249D03*
X270859249Y-91409249D03*
X197103999Y-73277999D03*
X197103999Y-69977999D03*
X159003999Y-73277999D03*
X159003999Y-69977999D03*
D24*
X295341000Y-48006000D03*
X297241000Y-48006000D03*
D12*
X139953999Y-73277999D03*
X139953999Y-69977999D03*
X3301999Y-60325999D03*
X3301999Y-63625999D03*
D25*
X35178999Y-16602999D03*
X35178999Y-18702999D03*
D12*
X243966999Y-51306999D03*
X243966999Y-48006999D03*
X130555999Y-54227999D03*
X130555999Y-50927999D03*
X289909249Y-16127999D03*
X289909249Y-12827999D03*
X282955999Y-60325999D03*
X282955999Y-63625999D03*
D26*
X319329499Y-38734999D03*
X319329499Y-40004999D03*
X319329499Y-41274999D03*
X319329499Y-42544999D03*
X313929499Y-42544999D03*
X313929499Y-41274999D03*
X313929499Y-40004999D03*
X313929499Y-38734999D03*
D24*
X295341000Y-44323000D03*
X297241000Y-44323000D03*
D12*
X163829999Y-35177999D03*
X163829999Y-31877999D03*
D15*
X322133000Y-54737000D03*
X320233000Y-54737000D03*
D24*
X291277000Y-58166000D03*
X293177000Y-58166000D03*
D13*
X287020000Y-42352000D03*
X287020000Y-40452000D03*
D27*
X316127999Y-73654999D03*
X322427999Y-73654999D03*
X316127999Y-69854999D03*
X322427999Y-69854999D03*
D28*
X299466000Y-50315500D03*
X299466000Y-48490500D03*
D14*
X315825500Y-67564000D03*
X317650500Y-67564000D03*
D15*
X289875000Y-38227000D03*
X287975000Y-38227000D03*
D12*
X283717999Y-3175999D03*
X283717999Y-6475999D03*
X80517999Y-85977999D03*
X80517999Y-82677999D03*
X26923999Y-92327999D03*
X26923999Y-89027999D03*
D28*
X310642000Y-43076500D03*
X310642000Y-41251500D03*
D12*
X54355999Y-54227999D03*
X54355999Y-50927999D03*
X49529999Y-35177999D03*
X49529999Y-31877999D03*
X55752999Y-12317999D03*
X55752999Y-9017999D03*
X308959249Y-94709249D03*
X308959249Y-91409249D03*
D15*
X322133000Y-56896000D03*
X320233000Y-56896000D03*
D23*
X295148000Y-53533000D03*
X295148000Y-55433000D03*
D12*
X92455999Y-54227999D03*
X92455999Y-50927999D03*
X97027999Y-16127999D03*
X97027999Y-12827999D03*
D24*
X282260000Y-51562000D03*
X284160000Y-51562000D03*
D21*
X289306000Y-53570500D03*
X289306000Y-55395500D03*
D12*
X192277999Y-16127999D03*
X192277999Y-12827999D03*
X216153999Y-73277999D03*
X216153999Y-69977999D03*
D14*
X315825500Y-63246000D03*
X317650500Y-63246000D03*
D12*
X308959249Y-35177999D03*
X308959249Y-31877999D03*
X82803999Y-73277999D03*
X82803999Y-69977999D03*
D22*
X49807500Y-18745951D03*
X47982500Y-18745951D03*
D13*
X282702000Y-42352000D03*
X282702000Y-40452000D03*
D22*
X322095500Y-64389000D03*
X320270500Y-64389000D03*
D21*
X308610000Y-41251500D03*
X308610000Y-43076500D03*
D12*
X1777999Y-16127999D03*
X1777999Y-12827999D03*
D29*
X37343500Y-18603000D03*
X37343500Y-17653000D03*
X37343500Y-16703000D03*
X39618500Y-16703000D03*
X39618500Y-18603000D03*
D12*
X36702999Y-12317999D03*
X36702999Y-9017999D03*
X87629999Y-35177999D03*
X87629999Y-31877999D03*
X63753999Y-73277999D03*
X63753999Y-69977999D03*
X30479999Y-35177999D03*
X30479999Y-31877999D03*
D13*
X41783000Y-18603000D03*
X41783000Y-16703000D03*
D15*
X284160000Y-49403000D03*
X282260000Y-49403000D03*
D12*
X178053999Y-73277999D03*
X178053999Y-69977999D03*
X230377999Y-16127999D03*
X230377999Y-12827999D03*
X35305999Y-54227999D03*
X35305999Y-50927999D03*
D14*
X47982500Y-16410394D03*
X49807500Y-16410394D03*
D30*
X54741780Y-18632292D03*
X53791780Y-18632292D03*
X52841780Y-18632292D03*
X52841780Y-16357292D03*
X53791780Y-16357292D03*
X54741780Y-16357292D03*
D12*
X135127999Y-16127999D03*
X135127999Y-12827999D03*
D14*
X295378500Y-50165000D03*
X297203500Y-50165000D03*
D24*
X36388000Y-14732000D03*
X38288000Y-14732000D03*
D12*
X241553999Y-60325999D03*
X241553999Y-63625999D03*
X213867999Y-92327999D03*
X213867999Y-89027999D03*
X220979999Y-35177999D03*
X220979999Y-31877999D03*
X3047999Y-92327999D03*
X3047999Y-89027999D03*
D21*
X301625000Y-33885500D03*
X301625000Y-35710500D03*
D12*
X73405999Y-54227999D03*
X73405999Y-50927999D03*
X174497999Y-85977999D03*
X174497999Y-82677999D03*
D31*
X298411000Y-40699000D03*
X298411000Y-38549000D03*
X296711000Y-40699000D03*
X296711000Y-38549000D03*
D32*
X300261000Y-37719000D03*
X300261000Y-38989000D03*
X300261000Y-40259000D03*
X300261000Y-41529000D03*
X294861000Y-41529000D03*
X294861000Y-40259000D03*
X294861000Y-38989000D03*
X294861000Y-37719000D03*
D33*
X291376999Y-55963999D03*
X291376999Y-53763999D03*
X293076999Y-53763999D03*
X293076999Y-55963999D03*
D12*
X289909249Y-75659249D03*
X289909249Y-72359249D03*
X32257999Y-54227999D03*
X32257999Y-50927999D03*
X68579999Y-35177999D03*
X68579999Y-31877999D03*
X201929999Y-35177999D03*
X201929999Y-31877999D03*
X168655999Y-54227999D03*
X168655999Y-50927999D03*
D28*
X318262000Y-59205500D03*
X318262000Y-57380500D03*
D12*
X289909249Y-35177999D03*
X289909249Y-31877999D03*
X238759999Y-92327999D03*
X238759999Y-89027999D03*
D34*
X44196000Y-16253000D03*
X44196000Y-19053000D03*
D13*
X284861000Y-42352000D03*
X284861000Y-40452000D03*
D23*
X284988000Y-53533000D03*
X284988000Y-55433000D03*
D12*
X50799999Y-92327999D03*
X50799999Y-89027999D03*
X193547999Y-92327999D03*
X193547999Y-89027999D03*
D22*
X299489500Y-35560000D03*
X297664500Y-35560000D03*
D12*
X225805999Y-54227999D03*
X225805999Y-50927999D03*
X263905999Y-35177999D03*
X263905999Y-31877999D03*
X44703999Y-73277999D03*
X44703999Y-69977999D03*
X173227999Y-16127999D03*
X173227999Y-12827999D03*
X240029999Y-35177999D03*
X240029999Y-31877999D03*
X149605999Y-54227999D03*
X149605999Y-50927999D03*
X77977999Y-16127999D03*
X77977999Y-12827999D03*
X182879999Y-35177999D03*
X182879999Y-31877999D03*
X125729999Y-35177999D03*
X125729999Y-31877999D03*
X308959249Y-16127999D03*
X308959249Y-12827999D03*
D35*
X330994000Y-96520000D02*
X-3874000Y-96520000D01*
X332994000Y-2000000D02*
X332994000Y-94520000D01*
X-5874000Y-94520000D02*
G75*
G03*
X-3874000Y-96520000I1999999J-1D01*
G01*
X-3874000Y0D02*
X330994000Y0D01*
X330994000Y-96520000D02*
G75*
G03*
X332994000Y-94520000I0J2000000D01*
G01*
X-3874000Y0D02*
G75*
G03*
X-5874000Y-2000000I-1J-1999999D01*
G01*
X-5874000Y-94520000D02*
X-5874000Y-2000000D01*
X332994000Y-2000000D02*
G75*
G03*
X330994000Y0I-2000000J0D01*
G01*
M02*
