G04 #@! TF.GenerationSoftware,KiCad,Pcbnew,(6.99.0-1912-g359c99991b)*
G04 #@! TF.CreationDate,2022-05-28T20:20:25+07:00*
G04 #@! TF.ProjectId,toxicdog69,746f7869-6364-46f6-9736-392e6b696361,1*
G04 #@! TF.SameCoordinates,Original*
G04 #@! TF.FileFunction,Soldermask,Bot*
G04 #@! TF.FilePolarity,Negative*
%FSLAX46Y46*%
G04 Gerber Fmt 4.6, Leading zero omitted, Abs format (unit mm)*
G04 Created by KiCad (PCBNEW (6.99.0-1912-g359c99991b)) date 2022-05-28 20:20:25*
%MOMM*%
%LPD*%
G01*
G04 APERTURE LIST*
G04 Aperture macros list*
%AMRoundRect*
0 Rectangle with rounded corners*
0 $1 Rounding radius*
0 $2 $3 $4 $5 $6 $7 $8 $9 X,Y pos of 4 corners*
0 Add a 4 corners polygon primitive as box body*
4,1,4,$2,$3,$4,$5,$6,$7,$8,$9,$2,$3,0*
0 Add four circle primitives for the rounded corners*
1,1,$1+$1,$2,$3*
1,1,$1+$1,$4,$5*
1,1,$1+$1,$6,$7*
1,1,$1+$1,$8,$9*
0 Add four rect primitives between the rounded corners*
20,1,$1+$1,$2,$3,$4,$5,0*
20,1,$1+$1,$4,$5,$6,$7,0*
20,1,$1+$1,$6,$7,$8,$9,0*
20,1,$1+$1,$8,$9,$2,$3,0*%
G04 Aperture macros list end*
%ADD10R,0.700000X0.340000*%
%ADD11C,1.750000*%
%ADD12C,3.000000*%
%ADD13C,3.987800*%
%ADD14R,2.550000X2.500000*%
%ADD15C,3.048000*%
%ADD16R,1.700000X1.700000*%
%ADD17O,1.700000X1.700000*%
%ADD18C,1.700000*%
%ADD19R,1.200000X0.900000*%
%ADD20RoundRect,0.250000X0.475000X-0.250000X0.475000X0.250000X-0.475000X0.250000X-0.475000X-0.250000X0*%
%ADD21RoundRect,0.250000X-0.262500X-0.450000X0.262500X-0.450000X0.262500X0.450000X-0.262500X0.450000X0*%
%ADD22RoundRect,0.250000X0.250000X0.475000X-0.250000X0.475000X-0.250000X-0.475000X0.250000X-0.475000X0*%
%ADD23RoundRect,0.050000X0.387500X0.050000X-0.387500X0.050000X-0.387500X-0.050000X0.387500X-0.050000X0*%
%ADD24RoundRect,0.050000X0.050000X0.387500X-0.050000X0.387500X-0.050000X-0.387500X0.050000X-0.387500X0*%
%ADD25RoundRect,0.144000X1.456000X1.456000X-1.456000X1.456000X-1.456000X-1.456000X1.456000X-1.456000X0*%
%ADD26RoundRect,0.150000X-0.625000X0.150000X-0.625000X-0.150000X0.625000X-0.150000X0.625000X0.150000X0*%
%ADD27RoundRect,0.250000X-0.650000X0.350000X-0.650000X-0.350000X0.650000X-0.350000X0.650000X0.350000X0*%
%ADD28RoundRect,0.250000X-0.450000X0.262500X-0.450000X-0.262500X0.450000X-0.262500X0.450000X0.262500X0*%
%ADD29RoundRect,0.250000X0.262500X0.450000X-0.262500X0.450000X-0.262500X-0.450000X0.262500X-0.450000X0*%
%ADD30RoundRect,0.250000X-0.475000X0.250000X-0.475000X-0.250000X0.475000X-0.250000X0.475000X0.250000X0*%
%ADD31RoundRect,0.250000X-0.250000X-0.475000X0.250000X-0.475000X0.250000X0.475000X-0.250000X0.475000X0*%
%ADD32R,0.450000X0.600000*%
%ADD33R,1.550000X0.600000*%
%ADD34R,1.700000X1.000000*%
%ADD35RoundRect,0.250000X0.450000X-0.262500X0.450000X0.262500X-0.450000X0.262500X-0.450000X-0.262500X0*%
%ADD36RoundRect,0.150000X-0.512500X-0.150000X0.512500X-0.150000X0.512500X0.150000X-0.512500X0.150000X0*%
%ADD37RoundRect,0.150000X0.150000X-0.512500X0.150000X0.512500X-0.150000X0.512500X-0.150000X-0.512500X0*%
%ADD38RoundRect,0.125000X0.250000X0.125000X-0.250000X0.125000X-0.250000X-0.125000X0.250000X-0.125000X0*%
%ADD39R,3.400000X4.300000*%
%ADD40R,1.200000X1.400000*%
%ADD41RoundRect,0.250000X-0.625000X0.375000X-0.625000X-0.375000X0.625000X-0.375000X0.625000X0.375000X0*%
G04 #@! TA.AperFunction,Profile*
%ADD42C,0.100000*%
G04 #@! TD*
G04 APERTURE END LIST*
D10*
X321932999Y-61221999D03*
X321932999Y-62221999D03*
X320432999Y-61221999D03*
X321932999Y-61721999D03*
X320432999Y-62221999D03*
X320432999Y-61721999D03*
X321932999Y-66555999D03*
X321932999Y-67555999D03*
X320432999Y-66555999D03*
X321932999Y-67055999D03*
X320432999Y-67555999D03*
X320432999Y-67055999D03*
D11*
X6301250Y-47100000D03*
D12*
X7571250Y-44560000D03*
D13*
X11381250Y-47100000D03*
D12*
X13921250Y-42020000D03*
D11*
X16461250Y-47100000D03*
D14*
X4296249Y-44559999D03*
X17223249Y-42019999D03*
D11*
X84882500Y-66150000D03*
D12*
X86152500Y-63610000D03*
D13*
X89962500Y-66150000D03*
D12*
X92502500Y-61070000D03*
D11*
X95042500Y-66150000D03*
D14*
X82877499Y-63609999D03*
X95804499Y-61069999D03*
D11*
X42655000Y-85200000D03*
D12*
X41385000Y-87740000D03*
D13*
X37575000Y-85200000D03*
D12*
X35035000Y-90280000D03*
D11*
X32495000Y-85200000D03*
D14*
X44659999Y-87739999D03*
X31732999Y-90279999D03*
D11*
X51545000Y-28050000D03*
D12*
X52815000Y-25510000D03*
D13*
X56625000Y-28050000D03*
D12*
X59165000Y-22970000D03*
D11*
X61705000Y-28050000D03*
D14*
X49539999Y-25509999D03*
X62466999Y-22969999D03*
D11*
X89645000Y-28050000D03*
D12*
X90915000Y-25510000D03*
D13*
X94725000Y-28050000D03*
D12*
X97265000Y-22970000D03*
D11*
X99805000Y-28050000D03*
D14*
X87639999Y-25509999D03*
X100566999Y-22969999D03*
D11*
X127745000Y-28050000D03*
D12*
X129015000Y-25510000D03*
D13*
X132825000Y-28050000D03*
D12*
X135365000Y-22970000D03*
D11*
X137905000Y-28050000D03*
D14*
X125739999Y-25509999D03*
X138666999Y-22969999D03*
D11*
X261730000Y-9000000D03*
D12*
X260460000Y-11540000D03*
D13*
X256650000Y-9000000D03*
D12*
X254110000Y-14080000D03*
D11*
X251570000Y-9000000D03*
D14*
X263734999Y-11539999D03*
X250807999Y-14079999D03*
D11*
X165845000Y-28050000D03*
D12*
X167115000Y-25510000D03*
D13*
X170925000Y-28050000D03*
D12*
X173465000Y-22970000D03*
D11*
X176005000Y-28050000D03*
D14*
X163839999Y-25509999D03*
X176766999Y-22969999D03*
D11*
X122982500Y-66150000D03*
D12*
X124252500Y-63610000D03*
D13*
X128062500Y-66150000D03*
D12*
X130602500Y-61070000D03*
D11*
X133142500Y-66150000D03*
D14*
X120977499Y-63609999D03*
X133904499Y-61069999D03*
D11*
X180132500Y-66150000D03*
D12*
X181402500Y-63610000D03*
D13*
X185212500Y-66150000D03*
D12*
X187752500Y-61070000D03*
D11*
X190292500Y-66150000D03*
D14*
X178127499Y-63609999D03*
X191054499Y-61069999D03*
D11*
X108695000Y-28050000D03*
D12*
X109965000Y-25510000D03*
D13*
X113775000Y-28050000D03*
D12*
X116315000Y-22970000D03*
D11*
X118855000Y-28050000D03*
D14*
X106689999Y-25509999D03*
X119616999Y-22969999D03*
D11*
X132507500Y-47100000D03*
D12*
X133777500Y-44560000D03*
D13*
X137587500Y-47100000D03*
D12*
X140127500Y-42020000D03*
D11*
X142667500Y-47100000D03*
D14*
X130502499Y-44559999D03*
X143429499Y-42019999D03*
D11*
X175370000Y-9000000D03*
D12*
X176640000Y-6460000D03*
D13*
X180450000Y-9000000D03*
D12*
X182990000Y-3920000D03*
D11*
X185530000Y-9000000D03*
D14*
X173364999Y-6459999D03*
X186291999Y-3919999D03*
D11*
X99170000Y-9000000D03*
D12*
X100440000Y-6460000D03*
D13*
X104250000Y-9000000D03*
D12*
X106790000Y-3920000D03*
D11*
X109330000Y-9000000D03*
D14*
X97164999Y-6459999D03*
X110091999Y-3919999D03*
D11*
X254586250Y-85200000D03*
D12*
X253316250Y-87740000D03*
D13*
X249506250Y-85200000D03*
D12*
X246966250Y-90280000D03*
D11*
X244426250Y-85200000D03*
D14*
X256591249Y-87739999D03*
X243664249Y-90279999D03*
D11*
X32495000Y-28050000D03*
D12*
X33765000Y-25510000D03*
D13*
X37575000Y-28050000D03*
D12*
X40115000Y-22970000D03*
D11*
X42655000Y-28050000D03*
D14*
X30489999Y-25509999D03*
X43416999Y-22969999D03*
D11*
X273001250Y-87581250D03*
D12*
X274271250Y-85041250D03*
D13*
X278081250Y-87581250D03*
D12*
X280621250Y-82501250D03*
D11*
X283161250Y-87581250D03*
D14*
X270996249Y-85041249D03*
X283923249Y-82501249D03*
D11*
X199182500Y-66150000D03*
D12*
X200452500Y-63610000D03*
D13*
X204262500Y-66150000D03*
D12*
X206802500Y-61070000D03*
D11*
X209342500Y-66150000D03*
D14*
X197177499Y-63609999D03*
X210104499Y-61069999D03*
D11*
X208707500Y-47100000D03*
D12*
X209977500Y-44560000D03*
D13*
X213787500Y-47100000D03*
D12*
X216327500Y-42020000D03*
D11*
X218867500Y-47100000D03*
D14*
X206702499Y-44559999D03*
X219629499Y-42019999D03*
D13*
X85200000Y-76945000D03*
D15*
X85200000Y-92185000D03*
D11*
X137270000Y-85200000D03*
D12*
X138540000Y-82660000D03*
D13*
X142350000Y-85200000D03*
D12*
X144890000Y-80120000D03*
D11*
X147430000Y-85200000D03*
D13*
X199500000Y-76945000D03*
D15*
X199500000Y-92185000D03*
D14*
X135264999Y-82659999D03*
X148191999Y-80119999D03*
D15*
X8968250Y-59165000D03*
D13*
X8968250Y-74405000D03*
D11*
X15826250Y-66150000D03*
D12*
X17096250Y-63610000D03*
D13*
X20906250Y-66150000D03*
D12*
X23446250Y-61070000D03*
D11*
X25986250Y-66150000D03*
D15*
X32844250Y-59165000D03*
D13*
X32844250Y-74405000D03*
D14*
X13821249Y-63609999D03*
X26748249Y-61069999D03*
D11*
X8682500Y-28050000D03*
D12*
X9952500Y-25510000D03*
D13*
X13762500Y-28050000D03*
D12*
X16302500Y-22970000D03*
D11*
X18842500Y-28050000D03*
D14*
X6677499Y-25509999D03*
X19604499Y-22969999D03*
D11*
X222995000Y-28050000D03*
D12*
X224265000Y-25510000D03*
D13*
X228075000Y-28050000D03*
D12*
X230615000Y-22970000D03*
D11*
X233155000Y-28050000D03*
D14*
X220989999Y-25509999D03*
X233916999Y-22969999D03*
D11*
X21223750Y-47100000D03*
D12*
X19953750Y-49640000D03*
D13*
X16143750Y-47100000D03*
D12*
X13603750Y-52180000D03*
D11*
X11063750Y-47100000D03*
D14*
X23228749Y-49639999D03*
X10301749Y-52179999D03*
D11*
X42020000Y-9000000D03*
D12*
X43290000Y-6460000D03*
D13*
X47100000Y-9000000D03*
D12*
X49640000Y-3920000D03*
D11*
X52180000Y-9000000D03*
D14*
X40014999Y-6459999D03*
X52941999Y-3919999D03*
D11*
X30113750Y-85200000D03*
D12*
X31383750Y-82660000D03*
D13*
X35193750Y-85200000D03*
D12*
X37733750Y-80120000D03*
D11*
X40273750Y-85200000D03*
D14*
X28108749Y-82659999D03*
X41035749Y-80119999D03*
D11*
X265857500Y-28050000D03*
D12*
X267127500Y-25510000D03*
D13*
X270937500Y-28050000D03*
D12*
X273477500Y-22970000D03*
D11*
X276017500Y-28050000D03*
D14*
X263852499Y-25509999D03*
X276779499Y-22969999D03*
D15*
X180443650Y-92185000D03*
D13*
X180443650Y-76945000D03*
D11*
X135523750Y-85200000D03*
D12*
X134253750Y-87740000D03*
D13*
X130443750Y-85200000D03*
D12*
X127903750Y-90280000D03*
D11*
X125363750Y-85200000D03*
D15*
X80443850Y-92185000D03*
D13*
X80443850Y-76945000D03*
D14*
X137528749Y-87739999D03*
X124601749Y-90279999D03*
D11*
X242045000Y-28050000D03*
D12*
X243315000Y-25510000D03*
D13*
X247125000Y-28050000D03*
D12*
X249665000Y-22970000D03*
D11*
X252205000Y-28050000D03*
D14*
X240039999Y-25509999D03*
X252966999Y-22969999D03*
D11*
X242045000Y-85200000D03*
D12*
X243315000Y-82660000D03*
D13*
X247125000Y-85200000D03*
D12*
X249665000Y-80120000D03*
D11*
X252205000Y-85200000D03*
D14*
X240039999Y-82659999D03*
X252966999Y-80119999D03*
D11*
X118220000Y-9000000D03*
D12*
X119490000Y-6460000D03*
D13*
X123300000Y-9000000D03*
D12*
X125840000Y-3920000D03*
D11*
X128380000Y-9000000D03*
D14*
X116214999Y-6459999D03*
X129141999Y-3919999D03*
D11*
X227757500Y-47100000D03*
D12*
X229027500Y-44560000D03*
D13*
X232837500Y-47100000D03*
D12*
X235377500Y-42020000D03*
D11*
X237917500Y-47100000D03*
D14*
X225752499Y-44559999D03*
X238679499Y-42019999D03*
D11*
X280780000Y-66150000D03*
D12*
X279510000Y-68690000D03*
D13*
X275700000Y-66150000D03*
D12*
X273160000Y-71230000D03*
D11*
X270620000Y-66150000D03*
D14*
X282784999Y-68689999D03*
X269857999Y-71229999D03*
D11*
X46782500Y-66150000D03*
D12*
X48052500Y-63610000D03*
D13*
X51862500Y-66150000D03*
D12*
X54402500Y-61070000D03*
D11*
X56942500Y-66150000D03*
D14*
X44777499Y-63609999D03*
X57704499Y-61069999D03*
D15*
X254237000Y-2015000D03*
D13*
X254237000Y-17255000D03*
D11*
X261095000Y-9000000D03*
D12*
X262365000Y-6460000D03*
D13*
X266175000Y-9000000D03*
D12*
X268715000Y-3920000D03*
D11*
X271255000Y-9000000D03*
D15*
X278113000Y-2015000D03*
D13*
X278113000Y-17255000D03*
D14*
X259089999Y-6459999D03*
X272016999Y-3919999D03*
D11*
X170607500Y-47100000D03*
D12*
X171877500Y-44560000D03*
D13*
X175687500Y-47100000D03*
D12*
X178227500Y-42020000D03*
D11*
X180767500Y-47100000D03*
D14*
X168602499Y-44559999D03*
X181529499Y-42019999D03*
D11*
X311101250Y-9000000D03*
D12*
X312371250Y-6460000D03*
D13*
X316181250Y-9000000D03*
D12*
X318721250Y-3920000D03*
D11*
X321261250Y-9000000D03*
D14*
X309096249Y-6459999D03*
X322023249Y-3919999D03*
D11*
X37257500Y-47100000D03*
D12*
X38527500Y-44560000D03*
D13*
X42337500Y-47100000D03*
D12*
X44877500Y-42020000D03*
D11*
X47417500Y-47100000D03*
D14*
X35252499Y-44559999D03*
X48179499Y-42019999D03*
D11*
X196801250Y-85200000D03*
D12*
X198071250Y-82660000D03*
D13*
X201881250Y-85200000D03*
D12*
X204421250Y-80120000D03*
D11*
X206961250Y-85200000D03*
D14*
X194796249Y-82659999D03*
X207723249Y-80119999D03*
D11*
X184895000Y-28050000D03*
D12*
X186165000Y-25510000D03*
D13*
X189975000Y-28050000D03*
D12*
X192515000Y-22970000D03*
D11*
X195055000Y-28050000D03*
D14*
X182889999Y-25509999D03*
X195816999Y-22969999D03*
D11*
X22970000Y-9000000D03*
D12*
X24240000Y-6460000D03*
D13*
X28050000Y-9000000D03*
D12*
X30590000Y-3920000D03*
D11*
X33130000Y-9000000D03*
D14*
X20964999Y-6459999D03*
X33891999Y-3919999D03*
D11*
X292051250Y-87581250D03*
D12*
X293321250Y-85041250D03*
D13*
X297131250Y-87581250D03*
D12*
X299671250Y-82501250D03*
D11*
X302211250Y-87581250D03*
D14*
X290046249Y-85041249D03*
X302973249Y-82501249D03*
D11*
X113457500Y-47100000D03*
D12*
X114727500Y-44560000D03*
D13*
X118537500Y-47100000D03*
D12*
X121077500Y-42020000D03*
D11*
X123617500Y-47100000D03*
D14*
X111452499Y-44559999D03*
X124379499Y-42019999D03*
D11*
X56307500Y-47100000D03*
D12*
X57577500Y-44560000D03*
D13*
X61387500Y-47100000D03*
D12*
X63927500Y-42020000D03*
D11*
X66467500Y-47100000D03*
D14*
X54302499Y-44559999D03*
X67229499Y-42019999D03*
D11*
X142032500Y-66150000D03*
D12*
X143302500Y-63610000D03*
D13*
X147112500Y-66150000D03*
D12*
X149652500Y-61070000D03*
D11*
X152192500Y-66150000D03*
D14*
X140027499Y-63609999D03*
X152954499Y-61069999D03*
D11*
X292051250Y-28050000D03*
D12*
X293321250Y-25510000D03*
D13*
X297131250Y-28050000D03*
D12*
X299671250Y-22970000D03*
D11*
X302211250Y-28050000D03*
D14*
X290046249Y-25509999D03*
X302973249Y-22969999D03*
D13*
X151843250Y-76945000D03*
D15*
X151843250Y-92185000D03*
D11*
X158701250Y-85200000D03*
D12*
X159971250Y-82660000D03*
D13*
X163781250Y-85200000D03*
D12*
X166321250Y-80120000D03*
D11*
X168861250Y-85200000D03*
D13*
X175719250Y-76945000D03*
D15*
X175719250Y-92185000D03*
D14*
X156696249Y-82659999D03*
X169623249Y-80119999D03*
D11*
X218232500Y-66150000D03*
D12*
X219502500Y-63610000D03*
D13*
X223312500Y-66150000D03*
D12*
X225852500Y-61070000D03*
D11*
X228392500Y-66150000D03*
D14*
X216227499Y-63609999D03*
X229154499Y-61069999D03*
D11*
X66467500Y-85200000D03*
D12*
X65197500Y-87740000D03*
D13*
X61387500Y-85200000D03*
D12*
X58847500Y-90280000D03*
D11*
X56307500Y-85200000D03*
D14*
X68472499Y-87739999D03*
X55545499Y-90279999D03*
D11*
X213470000Y-9000000D03*
D12*
X214740000Y-6460000D03*
D13*
X218550000Y-9000000D03*
D12*
X221090000Y-3920000D03*
D11*
X223630000Y-9000000D03*
D14*
X211464999Y-6459999D03*
X224391999Y-3919999D03*
D11*
X80120000Y-9000000D03*
D12*
X81390000Y-6460000D03*
D13*
X85200000Y-9000000D03*
D12*
X87740000Y-3920000D03*
D11*
X90280000Y-9000000D03*
D14*
X78114999Y-6459999D03*
X91041999Y-3919999D03*
D11*
X75357500Y-47100000D03*
D12*
X76627500Y-44560000D03*
D13*
X80437500Y-47100000D03*
D12*
X82977500Y-42020000D03*
D11*
X85517500Y-47100000D03*
D14*
X73352499Y-44559999D03*
X86279499Y-42019999D03*
D11*
X292051250Y-68531250D03*
D12*
X293321250Y-65991250D03*
D13*
X297131250Y-68531250D03*
D12*
X299671250Y-63451250D03*
D11*
X302211250Y-68531250D03*
D14*
X290046249Y-65991249D03*
X302973249Y-63451249D03*
D11*
X203945000Y-28050000D03*
D12*
X205215000Y-25510000D03*
D13*
X209025000Y-28050000D03*
D12*
X211565000Y-22970000D03*
D11*
X214105000Y-28050000D03*
D14*
X201939999Y-25509999D03*
X214866999Y-22969999D03*
D11*
X3920000Y-9000000D03*
D12*
X5190000Y-6460000D03*
D13*
X9000000Y-9000000D03*
D12*
X11540000Y-3920000D03*
D11*
X14080000Y-9000000D03*
D14*
X1914999Y-6459999D03*
X14841999Y-3919999D03*
D11*
X161082500Y-66150000D03*
D12*
X162352500Y-63610000D03*
D13*
X166162500Y-66150000D03*
D12*
X168702500Y-61070000D03*
D11*
X171242500Y-66150000D03*
D14*
X159077499Y-63609999D03*
X172004499Y-61069999D03*
D16*
X310387999Y-70611999D03*
D17*
X310387999Y-68071999D03*
X310387999Y-65531999D03*
X310387999Y-62991999D03*
X310387999Y-60451999D03*
X310387999Y-57911999D03*
X310387999Y-55371999D03*
X310387999Y-52831999D03*
D11*
X137270000Y-9000000D03*
D12*
X138540000Y-6460000D03*
D13*
X142350000Y-9000000D03*
D12*
X144890000Y-3920000D03*
D11*
X147430000Y-9000000D03*
D14*
X135264999Y-6459999D03*
X148191999Y-3919999D03*
D11*
X311101250Y-87581250D03*
D12*
X312371250Y-85041250D03*
D13*
X316181250Y-87581250D03*
D12*
X318721250Y-82501250D03*
D11*
X321261250Y-87581250D03*
D14*
X309096249Y-85041249D03*
X322023249Y-82501249D03*
D11*
X311101250Y-28050000D03*
D12*
X312371250Y-25510000D03*
D13*
X316181250Y-28050000D03*
D12*
X318721250Y-22970000D03*
D11*
X321261250Y-28050000D03*
D14*
X309096249Y-25509999D03*
X322023249Y-22969999D03*
D18*
X323099500Y-48006000D03*
X323099500Y-45466000D03*
X325639500Y-48006000D03*
X325639500Y-45466000D03*
X328179500Y-48006000D03*
D16*
X328179499Y-45465999D03*
D15*
X251855750Y-40115000D03*
D13*
X251855750Y-55355000D03*
D11*
X258713750Y-47100000D03*
D12*
X259983750Y-44560000D03*
D13*
X263793750Y-47100000D03*
D12*
X266333750Y-42020000D03*
D11*
X268873750Y-47100000D03*
D15*
X275731750Y-40115000D03*
D13*
X275731750Y-55355000D03*
D14*
X256708749Y-44559999D03*
X269635749Y-42019999D03*
D11*
X215851250Y-85200000D03*
D12*
X217121250Y-82660000D03*
D13*
X220931250Y-85200000D03*
D12*
X223471250Y-80120000D03*
D11*
X226011250Y-85200000D03*
D14*
X213846249Y-82659999D03*
X226773249Y-80119999D03*
D13*
X80405750Y-76945000D03*
D15*
X80405750Y-92185000D03*
D11*
X87263750Y-85200000D03*
D12*
X88533750Y-82660000D03*
D13*
X92343750Y-85200000D03*
D12*
X94883750Y-80120000D03*
D11*
X97423750Y-85200000D03*
D13*
X104281750Y-76945000D03*
D15*
X104281750Y-92185000D03*
D14*
X85258749Y-82659999D03*
X98185749Y-80119999D03*
D11*
X194420000Y-9000000D03*
D12*
X195690000Y-6460000D03*
D13*
X199500000Y-9000000D03*
D12*
X202040000Y-3920000D03*
D11*
X204580000Y-9000000D03*
D14*
X192414999Y-6459999D03*
X205341999Y-3919999D03*
D11*
X53926250Y-85200000D03*
D12*
X55196250Y-82660000D03*
D13*
X59006250Y-85200000D03*
D12*
X61546250Y-80120000D03*
D11*
X64086250Y-85200000D03*
D14*
X51921249Y-82659999D03*
X64848249Y-80119999D03*
D11*
X232520000Y-9000000D03*
D12*
X233790000Y-6460000D03*
D13*
X237600000Y-9000000D03*
D12*
X240140000Y-3920000D03*
D11*
X242680000Y-9000000D03*
D14*
X230514999Y-6459999D03*
X243441999Y-3919999D03*
D11*
X230773750Y-85200000D03*
D12*
X229503750Y-87740000D03*
D13*
X225693750Y-85200000D03*
D12*
X223153750Y-90280000D03*
D11*
X220613750Y-85200000D03*
D14*
X232778749Y-87739999D03*
X219851749Y-90279999D03*
D11*
X254586250Y-66150000D03*
D12*
X253316250Y-68690000D03*
D13*
X249506250Y-66150000D03*
D12*
X246966250Y-71230000D03*
D11*
X244426250Y-66150000D03*
D14*
X256591249Y-68689999D03*
X243664249Y-71229999D03*
D15*
X247093250Y-59165000D03*
D13*
X247093250Y-74405000D03*
D11*
X253951250Y-66150000D03*
D12*
X255221250Y-63610000D03*
D13*
X259031250Y-66150000D03*
D12*
X261571250Y-61070000D03*
D11*
X264111250Y-66150000D03*
D15*
X270969250Y-59165000D03*
D13*
X270969250Y-74405000D03*
D14*
X251946249Y-63609999D03*
X264873249Y-61069999D03*
D11*
X189657500Y-47100000D03*
D12*
X190927500Y-44560000D03*
D13*
X194737500Y-47100000D03*
D12*
X197277500Y-42020000D03*
D11*
X199817500Y-47100000D03*
D14*
X187652499Y-44559999D03*
X200579499Y-42019999D03*
D11*
X280780000Y-9000000D03*
D12*
X279510000Y-11540000D03*
D13*
X275700000Y-9000000D03*
D12*
X273160000Y-14080000D03*
D11*
X270620000Y-9000000D03*
D14*
X282784999Y-11539999D03*
X269857999Y-14079999D03*
D11*
X103932500Y-66150000D03*
D12*
X105202500Y-63610000D03*
D13*
X109012500Y-66150000D03*
D12*
X111552500Y-61070000D03*
D11*
X114092500Y-66150000D03*
D14*
X101927499Y-63609999D03*
X114854499Y-61069999D03*
D11*
X94407500Y-47100000D03*
D12*
X95677500Y-44560000D03*
D13*
X99487500Y-47100000D03*
D12*
X102027500Y-42020000D03*
D11*
X104567500Y-47100000D03*
D14*
X92402499Y-44559999D03*
X105329499Y-42019999D03*
D11*
X156320000Y-9000000D03*
D12*
X157590000Y-6460000D03*
D13*
X161400000Y-9000000D03*
D12*
X163940000Y-3920000D03*
D11*
X166480000Y-9000000D03*
D14*
X154314999Y-6459999D03*
X167241999Y-3919999D03*
D11*
X16461250Y-66150000D03*
D12*
X15191250Y-68690000D03*
D13*
X11381250Y-66150000D03*
D12*
X8841250Y-71230000D03*
D11*
X6301250Y-66150000D03*
D14*
X18466249Y-68689999D03*
X5539249Y-71229999D03*
D11*
X151557500Y-47100000D03*
D12*
X152827500Y-44560000D03*
D13*
X156637500Y-47100000D03*
D12*
X159177500Y-42020000D03*
D11*
X161717500Y-47100000D03*
D14*
X149552499Y-44559999D03*
X162479499Y-42019999D03*
D11*
X65832500Y-66150000D03*
D12*
X67102500Y-63610000D03*
D13*
X70912500Y-66150000D03*
D12*
X73452500Y-61070000D03*
D11*
X75992500Y-66150000D03*
D14*
X63827499Y-63609999D03*
X76754499Y-61069999D03*
D11*
X61070000Y-9000000D03*
D12*
X62340000Y-6460000D03*
D13*
X66150000Y-9000000D03*
D12*
X68690000Y-3920000D03*
D11*
X71230000Y-9000000D03*
D14*
X59064999Y-6459999D03*
X71991999Y-3919999D03*
D11*
X120601250Y-85200000D03*
D12*
X121871250Y-82660000D03*
D13*
X125681250Y-85200000D03*
D12*
X128221250Y-80120000D03*
D11*
X130761250Y-85200000D03*
D14*
X118596249Y-82659999D03*
X131523249Y-80119999D03*
D11*
X6301250Y-85200000D03*
D12*
X7571250Y-82660000D03*
D13*
X11381250Y-85200000D03*
D12*
X13921250Y-80120000D03*
D11*
X16461250Y-85200000D03*
D14*
X4296249Y-82659999D03*
X17223249Y-80119999D03*
D11*
X292051250Y-9000000D03*
D12*
X293321250Y-6460000D03*
D13*
X297131250Y-9000000D03*
D12*
X299671250Y-3920000D03*
D11*
X302211250Y-9000000D03*
D14*
X290046249Y-6459999D03*
X302973249Y-3919999D03*
D11*
X37892500Y-66150000D03*
D12*
X36622500Y-68690000D03*
D13*
X32812500Y-66150000D03*
D12*
X30272500Y-71230000D03*
D11*
X27732500Y-66150000D03*
D14*
X39897499Y-68689999D03*
X26970499Y-71229999D03*
D11*
X146795000Y-28050000D03*
D12*
X148065000Y-25510000D03*
D13*
X151875000Y-28050000D03*
D12*
X154415000Y-22970000D03*
D11*
X156955000Y-28050000D03*
D14*
X144789999Y-25509999D03*
X157716999Y-22969999D03*
D11*
X18842500Y-85200000D03*
D12*
X17572500Y-87740000D03*
D13*
X13762500Y-85200000D03*
D12*
X11222500Y-90280000D03*
D11*
X8682500Y-85200000D03*
D14*
X20847499Y-87739999D03*
X7920499Y-90279999D03*
D11*
X70595000Y-28050000D03*
D12*
X71865000Y-25510000D03*
D13*
X75675000Y-28050000D03*
D12*
X78215000Y-22970000D03*
D11*
X80755000Y-28050000D03*
D14*
X68589999Y-25509999D03*
X81516999Y-22969999D03*
D19*
X187705999Y-54227999D03*
X187705999Y-50927999D03*
D20*
X289179000Y-42352000D03*
X289179000Y-40452000D03*
D19*
X111505999Y-54227999D03*
X111505999Y-50927999D03*
X154177999Y-16127999D03*
X154177999Y-12827999D03*
X206755999Y-54227999D03*
X206755999Y-50927999D03*
D21*
X315825500Y-65405000D03*
X317650500Y-65405000D03*
D19*
X20827999Y-16127999D03*
X20827999Y-12827999D03*
X40131999Y-60325999D03*
X40131999Y-63625999D03*
X101853999Y-73277999D03*
X101853999Y-69977999D03*
X116077999Y-16127999D03*
X116077999Y-12827999D03*
X144779999Y-35177999D03*
X144779999Y-31877999D03*
X289909249Y-94709249D03*
X289909249Y-91409249D03*
D20*
X291719000Y-42352000D03*
X291719000Y-40452000D03*
D19*
X106679999Y-35177999D03*
X106679999Y-31877999D03*
D22*
X41971000Y-14732000D03*
X40071000Y-14732000D03*
D23*
X292997500Y-45152000D03*
X292997500Y-45552000D03*
X292997500Y-45952000D03*
X292997500Y-46352000D03*
X292997500Y-46752000D03*
X292997500Y-47152000D03*
X292997500Y-47552000D03*
X292997500Y-47952000D03*
X292997500Y-48352000D03*
X292997500Y-48752000D03*
X292997500Y-49152000D03*
X292997500Y-49552000D03*
X292997500Y-49952000D03*
X292997500Y-50352000D03*
D24*
X292160000Y-51189500D03*
X291760000Y-51189500D03*
X291360000Y-51189500D03*
X290960000Y-51189500D03*
X290560000Y-51189500D03*
X290160000Y-51189500D03*
X289760000Y-51189500D03*
X289360000Y-51189500D03*
X288960000Y-51189500D03*
X288560000Y-51189500D03*
X288160000Y-51189500D03*
X287760000Y-51189500D03*
X287360000Y-51189500D03*
X286960000Y-51189500D03*
D23*
X286122500Y-50352000D03*
X286122500Y-49952000D03*
X286122500Y-49552000D03*
X286122500Y-49152000D03*
X286122500Y-48752000D03*
X286122500Y-48352000D03*
X286122500Y-47952000D03*
X286122500Y-47552000D03*
X286122500Y-47152000D03*
X286122500Y-46752000D03*
X286122500Y-46352000D03*
X286122500Y-45952000D03*
X286122500Y-45552000D03*
X286122500Y-45152000D03*
D24*
X286960000Y-44314500D03*
X287360000Y-44314500D03*
X287760000Y-44314500D03*
X288160000Y-44314500D03*
X288560000Y-44314500D03*
X288960000Y-44314500D03*
X289360000Y-44314500D03*
X289760000Y-44314500D03*
X290160000Y-44314500D03*
X290560000Y-44314500D03*
X290960000Y-44314500D03*
X291360000Y-44314500D03*
X291760000Y-44314500D03*
X292160000Y-44314500D03*
D25*
X289560000Y-47752000D03*
D19*
X248665999Y-3175999D03*
X248665999Y-6475999D03*
D26*
X58740000Y-16000000D03*
X58740000Y-17000000D03*
X58740000Y-18000000D03*
X58740000Y-19000000D03*
D27*
X62615000Y-14700000D03*
X62615000Y-20300000D03*
D19*
X6603999Y-35177999D03*
X6603999Y-31877999D03*
X120903999Y-73277999D03*
X120903999Y-69977999D03*
D28*
X318262000Y-53824500D03*
X318262000Y-55649500D03*
D29*
X322095500Y-59055000D03*
X320270500Y-59055000D03*
D30*
X287147000Y-53533000D03*
X287147000Y-55433000D03*
D19*
X211327999Y-16127999D03*
X211327999Y-12827999D03*
X118617999Y-92327999D03*
X118617999Y-89027999D03*
D30*
X322326000Y-39690000D03*
X322326000Y-41590000D03*
D19*
X270859249Y-94709249D03*
X270859249Y-91409249D03*
X197103999Y-73277999D03*
X197103999Y-69977999D03*
X159003999Y-73277999D03*
X159003999Y-69977999D03*
D31*
X295341000Y-48006000D03*
X297241000Y-48006000D03*
D19*
X139953999Y-73277999D03*
X139953999Y-69977999D03*
X3301999Y-60325999D03*
X3301999Y-63625999D03*
D32*
X35178999Y-16602999D03*
X35178999Y-18702999D03*
D19*
X243966999Y-51306999D03*
X243966999Y-48006999D03*
X130555999Y-54227999D03*
X130555999Y-50927999D03*
X289909249Y-16127999D03*
X289909249Y-12827999D03*
X282955999Y-60325999D03*
X282955999Y-63625999D03*
D33*
X319329499Y-38734999D03*
X319329499Y-40004999D03*
X319329499Y-41274999D03*
X319329499Y-42544999D03*
X313929499Y-42544999D03*
X313929499Y-41274999D03*
X313929499Y-40004999D03*
X313929499Y-38734999D03*
D31*
X295341000Y-44323000D03*
X297241000Y-44323000D03*
D19*
X163829999Y-35177999D03*
X163829999Y-31877999D03*
D22*
X322133000Y-54737000D03*
X320233000Y-54737000D03*
D31*
X291277000Y-58166000D03*
X293177000Y-58166000D03*
D20*
X287020000Y-42352000D03*
X287020000Y-40452000D03*
D34*
X316127999Y-73654999D03*
X322427999Y-73654999D03*
X316127999Y-69854999D03*
X322427999Y-69854999D03*
D35*
X299466000Y-50315500D03*
X299466000Y-48490500D03*
D21*
X315825500Y-67564000D03*
X317650500Y-67564000D03*
D22*
X289875000Y-38227000D03*
X287975000Y-38227000D03*
D19*
X283717999Y-3175999D03*
X283717999Y-6475999D03*
X80517999Y-85977999D03*
X80517999Y-82677999D03*
X26923999Y-92327999D03*
X26923999Y-89027999D03*
D35*
X310642000Y-43076500D03*
X310642000Y-41251500D03*
D19*
X54355999Y-54227999D03*
X54355999Y-50927999D03*
X49529999Y-35177999D03*
X49529999Y-31877999D03*
X55752999Y-12317999D03*
X55752999Y-9017999D03*
X308959249Y-94709249D03*
X308959249Y-91409249D03*
D22*
X322133000Y-56896000D03*
X320233000Y-56896000D03*
D30*
X295148000Y-53533000D03*
X295148000Y-55433000D03*
D19*
X92455999Y-54227999D03*
X92455999Y-50927999D03*
X97027999Y-16127999D03*
X97027999Y-12827999D03*
D31*
X282260000Y-51562000D03*
X284160000Y-51562000D03*
D28*
X289306000Y-53570500D03*
X289306000Y-55395500D03*
D19*
X192277999Y-16127999D03*
X192277999Y-12827999D03*
X216153999Y-73277999D03*
X216153999Y-69977999D03*
D21*
X315825500Y-63246000D03*
X317650500Y-63246000D03*
D19*
X308959249Y-35177999D03*
X308959249Y-31877999D03*
X82803999Y-73277999D03*
X82803999Y-69977999D03*
D29*
X49807500Y-18745951D03*
X47982500Y-18745951D03*
D20*
X282702000Y-42352000D03*
X282702000Y-40452000D03*
D29*
X322095500Y-64389000D03*
X320270500Y-64389000D03*
D28*
X308610000Y-41251500D03*
X308610000Y-43076500D03*
D19*
X1777999Y-16127999D03*
X1777999Y-12827999D03*
D36*
X37343500Y-18603000D03*
X37343500Y-17653000D03*
X37343500Y-16703000D03*
X39618500Y-16703000D03*
X39618500Y-18603000D03*
D19*
X36702999Y-12317999D03*
X36702999Y-9017999D03*
X87629999Y-35177999D03*
X87629999Y-31877999D03*
X63753999Y-73277999D03*
X63753999Y-69977999D03*
X30479999Y-35177999D03*
X30479999Y-31877999D03*
D20*
X41783000Y-18603000D03*
X41783000Y-16703000D03*
D22*
X284160000Y-49403000D03*
X282260000Y-49403000D03*
D19*
X178053999Y-73277999D03*
X178053999Y-69977999D03*
X230377999Y-16127999D03*
X230377999Y-12827999D03*
X35305999Y-54227999D03*
X35305999Y-50927999D03*
D21*
X47982500Y-16410394D03*
X49807500Y-16410394D03*
D37*
X54741780Y-18632292D03*
X53791780Y-18632292D03*
X52841780Y-18632292D03*
X52841780Y-16357292D03*
X53791780Y-16357292D03*
X54741780Y-16357292D03*
D19*
X135127999Y-16127999D03*
X135127999Y-12827999D03*
D21*
X295378500Y-50165000D03*
X297203500Y-50165000D03*
D31*
X36388000Y-14732000D03*
X38288000Y-14732000D03*
D19*
X241553999Y-60325999D03*
X241553999Y-63625999D03*
X213867999Y-92327999D03*
X213867999Y-89027999D03*
X220979999Y-35177999D03*
X220979999Y-31877999D03*
X3047999Y-92327999D03*
X3047999Y-89027999D03*
D28*
X301625000Y-33885500D03*
X301625000Y-35710500D03*
D19*
X73405999Y-54227999D03*
X73405999Y-50927999D03*
X174497999Y-85977999D03*
X174497999Y-82677999D03*
D38*
X300261000Y-37719000D03*
X300261000Y-38989000D03*
X300261000Y-40259000D03*
X300261000Y-41529000D03*
X294861000Y-41529000D03*
X294861000Y-40259000D03*
X294861000Y-38989000D03*
X294861000Y-37719000D03*
D39*
X297560999Y-39623999D03*
D40*
X291376999Y-55963999D03*
X291376999Y-53763999D03*
X293076999Y-53763999D03*
X293076999Y-55963999D03*
D19*
X289909249Y-75659249D03*
X289909249Y-72359249D03*
X32257999Y-54227999D03*
X32257999Y-50927999D03*
X68579999Y-35177999D03*
X68579999Y-31877999D03*
X201929999Y-35177999D03*
X201929999Y-31877999D03*
X168655999Y-54227999D03*
X168655999Y-50927999D03*
D35*
X318262000Y-59205500D03*
X318262000Y-57380500D03*
D19*
X289909249Y-35177999D03*
X289909249Y-31877999D03*
X238759999Y-92327999D03*
X238759999Y-89027999D03*
D41*
X44196000Y-16253000D03*
X44196000Y-19053000D03*
D20*
X284861000Y-42352000D03*
X284861000Y-40452000D03*
D30*
X284988000Y-53533000D03*
X284988000Y-55433000D03*
D19*
X50799999Y-92327999D03*
X50799999Y-89027999D03*
X193547999Y-92327999D03*
X193547999Y-89027999D03*
D29*
X299489500Y-35560000D03*
X297664500Y-35560000D03*
D19*
X225805999Y-54227999D03*
X225805999Y-50927999D03*
X263905999Y-35177999D03*
X263905999Y-31877999D03*
X44703999Y-73277999D03*
X44703999Y-69977999D03*
X173227999Y-16127999D03*
X173227999Y-12827999D03*
X240029999Y-35177999D03*
X240029999Y-31877999D03*
X149605999Y-54227999D03*
X149605999Y-50927999D03*
X77977999Y-16127999D03*
X77977999Y-12827999D03*
X182879999Y-35177999D03*
X182879999Y-31877999D03*
X125729999Y-35177999D03*
X125729999Y-31877999D03*
X308959249Y-16127999D03*
X308959249Y-12827999D03*
D42*
X330994000Y-96520000D02*
X-3874000Y-96520000D01*
X332994000Y-2000000D02*
X332994000Y-94520000D01*
X-5874000Y-94520000D02*
G75*
G03*
X-3874000Y-96520000I1999999J-1D01*
G01*
X-3874000Y0D02*
X330994000Y0D01*
X330994000Y-96520000D02*
G75*
G03*
X332994000Y-94520000I0J2000000D01*
G01*
X-3874000Y0D02*
G75*
G03*
X-5874000Y-2000000I-1J-1999999D01*
G01*
X-5874000Y-94520000D02*
X-5874000Y-2000000D01*
X332994000Y-2000000D02*
G75*
G03*
X330994000Y0I-2000000J0D01*
G01*
M02*
