M48
; DRILL file {KiCad (6.99.0-1912-g359c99991b)} date Sat May 28 20:20:28 2022
; FORMAT={-:-/ absolute / metric / decimal}
; #@! TF.CreationDate,2022-05-28T20:20:28+07:00
; #@! TF.GenerationSoftware,Kicad,Pcbnew,(6.99.0-1912-g359c99991b)
; #@! TF.FileFunction,MixedPlating,1,2
FMAT,2
METRIC
; #@! TA.AperFunction,Plated,PTH,ViaDrill
T1C0.250
; #@! TA.AperFunction,Plated,PTH,ComponentDrill
T2C0.350
; #@! TA.AperFunction,Plated,PTH,ViaDrill
T3C0.400
; #@! TA.AperFunction,Plated,PTH,ComponentDrill
T4C1.000
; #@! TA.AperFunction,NonPlated,NPTH,ComponentDrill
T5C1.750
; #@! TA.AperFunction,NonPlated,NPTH,ComponentDrill
T6C3.000
; #@! TA.AperFunction,NonPlated,NPTH,ComponentDrill
T7C3.048
; #@! TA.AperFunction,NonPlated,NPTH,ComponentDrill
T8C3.988
%
G90
G05
T1
X6.35Y-68.326
X8.636Y-93.218
X16.002Y-6.858
X17.018Y-19.558
X18.542Y-38.862
X20.32Y-81.28
X20.574Y-43.18
X20.828Y-26.67
X22.352Y-54.864
X25.146Y-57.658
X27.686Y-36.449
X32.766Y-93.472
X33.02Y-13.716
X34.925Y-22.606
X35.052Y-7.112
X37.592Y-60.96
X40.132Y-19.939
X40.513Y-13.081
X42.418Y-60.96
X42.418Y-72.39
X44.704Y-26.416
X44.704Y-34.036
X44.958Y-82.042
X46.228Y-14.732
X46.228Y-38.608
X46.609Y-18.034
X46.609Y-19.812
X49.53Y-45.466
X52.07Y-35.941
X52.832Y-35.814
X53.34Y-14.732
X54.102Y-7.112
X56.388Y-92.964
X58.928Y-56.896
X59.182Y-64.516
X63.246Y-76.2
X63.754Y-26.416
X63.754Y-34.29
X65.278Y-38.354
X68.58Y-45.466
X68.834Y-81.788
X73.406Y-7.366
X77.978Y-56.896
X80.264Y-19.05
X82.804Y-26.416
X82.804Y-34.544
X82.984Y-85.982
X85.09Y-38.354
X87.63Y-45.466
X92.456Y-7.366
X97.028Y-56.896
X97.282Y-64.77
X97.282Y-76.962
X99.314Y-19.05
X101.854Y-26.416
X104.14Y-38.354
X106.68Y-45.466
X110.236Y-89.154
X111.252Y-7.112
X116.332Y-56.896
X118.364Y-19.05
X120.904Y-26.416
X121.666Y-89.662
X122.936Y-38.354
X125.73Y-45.466
X125.73Y-53.086
X129.794Y-76.962
X130.556Y-7.366
X134.874Y-56.896
X135.128Y-64.262
X137.16Y-19.05
X139.954Y-26.416
X142.494Y-38.862
X144.272Y-90.17
X144.78Y-45.466
X144.78Y-53.34
X146.558Y-76.962
X149.606Y-7.366
X154.178Y-56.896
X156.464Y-19.05
X159.004Y-26.416
X161.544Y-39.116
X163.576Y-44.958
X163.576Y-53.467
X168.656Y-7.366
X170.942Y-76.2
X173.228Y-56.896
X173.228Y-64.516
X173.482Y-88.9
X175.514Y-19.05
X178.054Y-26.416
X180.594Y-38.608
X182.88Y-45.466
X182.88Y-55.88
X187.325Y-92.329
X187.706Y-7.62
X192.278Y-56.896
X194.31Y-94.742
X194.564Y-19.05
X197.104Y-26.67
X199.644Y-38.608
X200.914Y-56.896
X201.93Y-45.466
X206.756Y-7.366
X208.534Y-76.962
X211.328Y-56.896
X211.328Y-64.516
X213.106Y-94.742
X213.614Y-19.05
X216.154Y-26.416
X218.694Y-38.608
X219.964Y-56.896
X220.726Y-93.218
X220.98Y-45.466
X225.806Y-7.366
X227.838Y-76.708
X230.378Y-56.896
X230.378Y-64.516
X232.664Y-19.05
X232.918Y-81.28
X233.553Y-57.912
X235.204Y-26.416
X237.49Y-38.608
X240.03Y-45.466
X242.57Y-54.229
X243.84Y-60.96
X244.602Y-93.472
X244.856Y-7.366
X246.126Y-15.367
X246.38Y-20.32
X247.396Y-38.735
X247.396Y-45.847
X250.444Y-70.358
X251.46Y-19.05
X251.714Y-76.962
X254.254Y-26.416
X257.048Y-81.28
X264.16Y-53.975
X264.16Y-63.754
X264.668Y-53.213
X265.938Y-56.896
X265.938Y-72.39
X268.224Y-61.722
X268.986Y-10.922
X270.256Y-6.35
X270.637Y-53.213
X270.764Y-17.526
X270.764Y-38.1
X270.764Y-45.212
X271.272Y-7.112
X271.272Y-53.594
X275.082Y-19.05
X275.209Y-47.371
X276.86Y-48.895
X277.495Y-49.403
X278.13Y-26.416
X278.384Y-49.784
X279.019Y-50.165
X279.4Y-6.35
X279.654Y-50.546
X279.781Y-63.119
X280.162Y-43.053
X280.279Y-60.343
X280.289Y-35.687
X280.289Y-50.8
X280.416Y-33.02
X280.67Y-5.334
X281.178Y-32.512
X281.178Y-44.958
X281.94Y-32.004
X281.94Y-44.831
X282.702Y-31.496
X282.702Y-44.831
X282.702Y-78.994
X283.337Y-54.102
X283.464Y-44.831
X283.972Y-45.466
X284.48Y-44.958
X285.496Y-37.973
X285.496Y-51.181
X285.496Y-51.943
X286.131Y-36.068
X286.258Y-37.973
X286.258Y-51.943
X287.145Y-49.486
X287.147Y-48.006
X287.147Y-48.768
X287.147Y-63.119
X287.159Y-50.203
X287.909Y-50.165
X288.163Y-45.339
X288.671Y-50.165
X288.925Y-45.466
X289.306Y-18.034
X289.306Y-36.83
X289.306Y-43.307
X289.687Y-45.466
X289.687Y-50.165
X290.385Y-49.907
X290.449Y-45.466
X291.084Y-49.911
X291.211Y-45.466
X291.719Y-47.371
X291.719Y-48.133
X291.719Y-49.53
X291.846Y-35.179
X291.973Y-45.339
X291.973Y-46.736
X291.973Y-48.768
X291.973Y-50.165
X292.227Y-54.864
X292.354Y-38.227
X292.989Y-44.323
X293.497Y-38.989
X293.497Y-40.259
X293.497Y-41.529
X293.878Y-43.053
X294.132Y-45.085
X294.132Y-49.403
X294.132Y-50.546
X294.132Y-51.308
X294.386Y-45.72
X294.64Y-59.563
X295.275Y-45.72
X295.91Y-59.055
X296.037Y-45.974
X296.164Y-59.944
X298.958Y-44.069
X299.085Y-46.863
X300.355Y-58.928
X301.371Y-46.228
X301.498Y-37.719
X301.498Y-38.989
X301.498Y-40.259
X302.006Y-50.673
X302.133Y-48.768
X302.133Y-56.769
X302.133Y-57.785
X302.26Y-44.704
X302.387Y-48.133
X302.514Y-47.371
X302.895Y-45.339
X302.895Y-46.101
X303.149Y-36.322
X303.149Y-43.053
X303.149Y-58.801
X303.53Y-35.179
X304.546Y-50.673
X305.054Y-44.45
X305.308Y-50.927
X305.308Y-51.943
X305.435Y-41.021
X306.324Y-44.704
X306.959Y-49.657
X309.118Y-39.878
X309.118Y-44.704
X312.547Y-41.275
X313.182Y-45.466
X315.341Y-47.625
X316.103Y-45.72
X316.611Y-49.784
X316.611Y-56.261
X317.881Y-52.07
X318.135Y-61.214
X319.024Y-62.23
X319.024Y-64.643
X323.342Y-64.897
X323.342Y-67.31
X323.596Y-62.23
X324.231Y-75.692
X325.628Y-49.784
T2
X288.285Y-46.477
X288.285Y-47.752
X288.285Y-49.027
X289.56Y-46.477
X289.56Y-47.752
X289.56Y-49.027
X290.835Y-46.477
X290.835Y-47.752
X290.835Y-49.027
T3
X304.292Y-7.366
X304.292Y-19.05
X304.292Y-26.416
X304.292Y-59.69
X304.292Y-66.802
X304.292Y-78.74
X323.342Y-7.112
X323.342Y-19.05
X323.342Y-26.416
X323.342Y-78.74
T4
X310.388Y-52.832
X310.388Y-55.372
X310.388Y-57.912
X310.388Y-60.452
X310.388Y-62.992
X310.388Y-65.532
X310.388Y-68.072
X310.388Y-70.612
X323.099Y-45.466
X323.099Y-48.006
X325.639Y-45.466
X325.639Y-48.006
X328.179Y-45.466
X328.179Y-48.006
T5
X3.92Y-9.0
X6.301Y-47.1
X6.301Y-66.15
X6.301Y-85.2
X8.682Y-28.05
X8.682Y-85.2
X11.064Y-47.1
X14.08Y-9.0
X15.826Y-66.15
X16.461Y-47.1
X16.461Y-66.15
X16.461Y-85.2
X18.842Y-28.05
X18.842Y-85.2
X21.224Y-47.1
X22.97Y-9.0
X25.986Y-66.15
X27.732Y-66.15
X30.114Y-85.2
X32.495Y-28.05
X32.495Y-85.2
X33.13Y-9.0
X37.258Y-47.1
X37.892Y-66.15
X40.274Y-85.2
X42.02Y-9.0
X42.655Y-28.05
X42.655Y-85.2
X46.782Y-66.15
X47.417Y-47.1
X51.545Y-28.05
X52.18Y-9.0
X53.926Y-85.2
X56.307Y-47.1
X56.307Y-85.2
X56.942Y-66.15
X61.07Y-9.0
X61.705Y-28.05
X64.086Y-85.2
X65.832Y-66.15
X66.468Y-47.1
X66.468Y-85.2
X70.595Y-28.05
X71.23Y-9.0
X75.358Y-47.1
X75.992Y-66.15
X80.12Y-9.0
X80.755Y-28.05
X84.882Y-66.15
X85.517Y-47.1
X87.264Y-85.2
X89.645Y-28.05
X90.28Y-9.0
X94.407Y-47.1
X95.042Y-66.15
X97.424Y-85.2
X99.17Y-9.0
X99.805Y-28.05
X103.932Y-66.15
X104.567Y-47.1
X108.695Y-28.05
X109.33Y-9.0
X113.457Y-47.1
X114.093Y-66.15
X118.22Y-9.0
X118.855Y-28.05
X120.601Y-85.2
X122.982Y-66.15
X123.617Y-47.1
X125.364Y-85.2
X127.745Y-28.05
X128.38Y-9.0
X130.761Y-85.2
X132.507Y-47.1
X133.142Y-66.15
X135.524Y-85.2
X137.27Y-9.0
X137.27Y-85.2
X137.905Y-28.05
X142.032Y-66.15
X142.667Y-47.1
X146.795Y-28.05
X147.43Y-9.0
X147.43Y-85.2
X151.558Y-47.1
X152.192Y-66.15
X156.32Y-9.0
X156.955Y-28.05
X158.701Y-85.2
X161.082Y-66.15
X161.718Y-47.1
X165.845Y-28.05
X166.48Y-9.0
X168.861Y-85.2
X170.607Y-47.1
X171.242Y-66.15
X175.37Y-9.0
X176.005Y-28.05
X180.132Y-66.15
X180.767Y-47.1
X184.895Y-28.05
X185.53Y-9.0
X189.657Y-47.1
X190.292Y-66.15
X194.42Y-9.0
X195.055Y-28.05
X196.801Y-85.2
X199.183Y-66.15
X199.817Y-47.1
X203.945Y-28.05
X204.58Y-9.0
X206.961Y-85.2
X208.707Y-47.1
X209.343Y-66.15
X213.47Y-9.0
X214.105Y-28.05
X215.851Y-85.2
X218.232Y-66.15
X218.867Y-47.1
X220.614Y-85.2
X222.995Y-28.05
X223.63Y-9.0
X226.011Y-85.2
X227.757Y-47.1
X228.392Y-66.15
X230.774Y-85.2
X232.52Y-9.0
X233.155Y-28.05
X237.917Y-47.1
X242.045Y-28.05
X242.045Y-85.2
X242.68Y-9.0
X244.426Y-66.15
X244.426Y-85.2
X251.57Y-9.0
X252.205Y-28.05
X252.205Y-85.2
X253.951Y-66.15
X254.586Y-66.15
X254.586Y-85.2
X258.714Y-47.1
X261.095Y-9.0
X261.73Y-9.0
X264.111Y-66.15
X265.858Y-28.05
X268.874Y-47.1
X270.62Y-9.0
X270.62Y-66.15
X271.255Y-9.0
X273.001Y-87.581
X276.017Y-28.05
X280.78Y-9.0
X280.78Y-66.15
X283.161Y-87.581
X292.051Y-9.0
X292.051Y-28.05
X292.051Y-68.531
X292.051Y-87.581
X302.211Y-9.0
X302.211Y-28.05
X302.211Y-68.531
X302.211Y-87.581
X311.101Y-9.0
X311.101Y-28.05
X311.101Y-87.581
X321.261Y-9.0
X321.261Y-28.05
X321.261Y-87.581
T6
X5.19Y-6.46
X7.571Y-44.56
X7.571Y-82.66
X8.841Y-71.23
X9.952Y-25.51
X11.223Y-90.28
X11.54Y-3.92
X13.604Y-52.18
X13.921Y-42.02
X13.921Y-80.12
X15.191Y-68.69
X16.302Y-22.97
X17.096Y-63.61
X17.572Y-87.74
X19.954Y-49.64
X23.446Y-61.07
X24.24Y-6.46
X30.272Y-71.23
X30.59Y-3.92
X31.384Y-82.66
X33.765Y-25.51
X35.035Y-90.28
X36.622Y-68.69
X37.734Y-80.12
X38.527Y-44.56
X40.115Y-22.97
X41.385Y-87.74
X43.29Y-6.46
X44.877Y-42.02
X48.052Y-63.61
X49.64Y-3.92
X52.815Y-25.51
X54.402Y-61.07
X55.196Y-82.66
X57.578Y-44.56
X58.847Y-90.28
X59.165Y-22.97
X61.546Y-80.12
X62.34Y-6.46
X63.927Y-42.02
X65.197Y-87.74
X67.102Y-63.61
X68.69Y-3.92
X71.865Y-25.51
X73.453Y-61.07
X76.627Y-44.56
X78.215Y-22.97
X81.39Y-6.46
X82.977Y-42.02
X86.152Y-63.61
X87.74Y-3.92
X88.534Y-82.66
X90.915Y-25.51
X92.502Y-61.07
X94.884Y-80.12
X95.677Y-44.56
X97.265Y-22.97
X100.44Y-6.46
X102.027Y-42.02
X105.203Y-63.61
X106.79Y-3.92
X109.965Y-25.51
X111.552Y-61.07
X114.727Y-44.56
X116.315Y-22.97
X119.49Y-6.46
X121.078Y-42.02
X121.871Y-82.66
X124.252Y-63.61
X125.84Y-3.92
X127.904Y-90.28
X128.221Y-80.12
X129.015Y-25.51
X130.602Y-61.07
X133.778Y-44.56
X134.254Y-87.74
X135.365Y-22.97
X138.54Y-6.46
X138.54Y-82.66
X140.127Y-42.02
X143.302Y-63.61
X144.89Y-3.92
X144.89Y-80.12
X148.065Y-25.51
X149.653Y-61.07
X152.827Y-44.56
X154.415Y-22.97
X157.59Y-6.46
X159.177Y-42.02
X159.971Y-82.66
X162.352Y-63.61
X163.94Y-3.92
X166.321Y-80.12
X167.115Y-25.51
X168.702Y-61.07
X171.877Y-44.56
X173.465Y-22.97
X176.64Y-6.46
X178.227Y-42.02
X181.403Y-63.61
X182.99Y-3.92
X186.165Y-25.51
X187.752Y-61.07
X190.927Y-44.56
X192.515Y-22.97
X195.69Y-6.46
X197.278Y-42.02
X198.071Y-82.66
X200.452Y-63.61
X202.04Y-3.92
X204.421Y-80.12
X205.215Y-25.51
X206.802Y-61.07
X209.977Y-44.56
X211.565Y-22.97
X214.74Y-6.46
X216.327Y-42.02
X217.121Y-82.66
X219.502Y-63.61
X221.09Y-3.92
X223.154Y-90.28
X223.471Y-80.12
X224.265Y-25.51
X225.852Y-61.07
X229.028Y-44.56
X229.504Y-87.74
X230.615Y-22.97
X233.79Y-6.46
X235.377Y-42.02
X240.14Y-3.92
X243.315Y-25.51
X243.315Y-82.66
X246.966Y-71.23
X246.966Y-90.28
X249.665Y-22.97
X249.665Y-80.12
X253.316Y-68.69
X253.316Y-87.74
X254.11Y-14.08
X255.221Y-63.61
X259.984Y-44.56
X260.46Y-11.54
X261.571Y-61.07
X262.365Y-6.46
X266.334Y-42.02
X267.127Y-25.51
X268.715Y-3.92
X273.16Y-14.08
X273.16Y-71.23
X273.477Y-22.97
X274.271Y-85.041
X279.51Y-11.54
X279.51Y-68.69
X280.621Y-82.501
X293.321Y-6.46
X293.321Y-25.51
X293.321Y-65.991
X293.321Y-85.041
X299.671Y-3.92
X299.671Y-22.97
X299.671Y-63.451
X299.671Y-82.501
X312.371Y-6.46
X312.371Y-25.51
X312.371Y-85.041
X318.721Y-3.92
X318.721Y-22.97
X318.721Y-82.501
T7
X8.968Y-59.165
X32.844Y-59.165
X80.406Y-92.185
X80.444Y-92.185
X85.2Y-92.185
X104.282Y-92.185
X151.843Y-92.185
X175.719Y-92.185
X180.444Y-92.185
X199.5Y-92.185
X247.093Y-59.165
X251.856Y-40.115
X254.237Y-2.015
X270.969Y-59.165
X275.732Y-40.115
X278.113Y-2.015
T8
X8.968Y-74.405
X9.0Y-9.0
X11.381Y-47.1
X11.381Y-66.15
X11.381Y-85.2
X13.762Y-28.05
X13.762Y-85.2
X16.144Y-47.1
X20.906Y-66.15
X28.05Y-9.0
X32.812Y-66.15
X32.844Y-74.405
X35.194Y-85.2
X37.575Y-28.05
X37.575Y-85.2
X42.337Y-47.1
X47.1Y-9.0
X51.862Y-66.15
X56.625Y-28.05
X59.006Y-85.2
X61.387Y-47.1
X61.387Y-85.2
X66.15Y-9.0
X70.912Y-66.15
X75.675Y-28.05
X80.406Y-76.945
X80.438Y-47.1
X80.444Y-76.945
X85.2Y-9.0
X85.2Y-76.945
X89.962Y-66.15
X92.344Y-85.2
X94.725Y-28.05
X99.487Y-47.1
X104.25Y-9.0
X104.282Y-76.945
X109.012Y-66.15
X113.775Y-28.05
X118.537Y-47.1
X123.3Y-9.0
X125.681Y-85.2
X128.062Y-66.15
X130.444Y-85.2
X132.825Y-28.05
X137.588Y-47.1
X142.35Y-9.0
X142.35Y-85.2
X147.112Y-66.15
X151.843Y-76.945
X151.875Y-28.05
X156.637Y-47.1
X161.4Y-9.0
X163.781Y-85.2
X166.162Y-66.15
X170.925Y-28.05
X175.688Y-47.1
X175.719Y-76.945
X180.444Y-76.945
X180.45Y-9.0
X185.213Y-66.15
X189.975Y-28.05
X194.737Y-47.1
X199.5Y-9.0
X199.5Y-76.945
X201.881Y-85.2
X204.262Y-66.15
X209.025Y-28.05
X213.787Y-47.1
X218.55Y-9.0
X220.931Y-85.2
X223.312Y-66.15
X225.694Y-85.2
X228.075Y-28.05
X232.837Y-47.1
X237.6Y-9.0
X247.093Y-74.405
X247.125Y-28.05
X247.125Y-85.2
X249.506Y-66.15
X249.506Y-85.2
X251.856Y-55.355
X254.237Y-17.255
X256.65Y-9.0
X259.031Y-66.15
X263.794Y-47.1
X266.175Y-9.0
X270.938Y-28.05
X270.969Y-74.405
X275.7Y-9.0
X275.7Y-66.15
X275.732Y-55.355
X278.081Y-87.581
X278.113Y-17.255
X297.131Y-9.0
X297.131Y-28.05
X297.131Y-68.531
X297.131Y-87.581
X316.181Y-9.0
X316.181Y-28.05
X316.181Y-87.581
T0
M30
