<?xml version="1.0" encoding="UTF-8" standalone="no"?>
<svg
   xmlns:dc="http://purl.org/dc/elements/1.1/"
   xmlns:cc="http://creativecommons.org/ns#"
   xmlns:rdf="http://www.w3.org/1999/02/22-rdf-syntax-ns#"
   xmlns:svg="http://www.w3.org/2000/svg"
   xmlns="http://www.w3.org/2000/svg"
   id="svg8"
   version="1.1"
   viewBox="0 0 210 297"
   height="297mm"
   width="210mm">
  <defs
     id="defs2" />
  <metadata
     id="metadata5">
    <rdf:RDF>
      <cc:Work
         rdf:about="">
        <dc:format>image/svg+xml</dc:format>
        <dc:type
           rdf:resource="http://purl.org/dc/dcmitype/StillImage" />
        <dc:title></dc:title>
      </cc:Work>
    </rdf:RDF>
  </metadata>
  <g
     id="layer1">
    <path
       id="path4276-1-8"
       d="m 79.691554,137.72771 c 1.276699,0.0193 1.984046,1.62374 3.321427,1.2783 4.394391,-0.33883 8.842049,-0.19684 13.226168,0.24804 3.43436,0.52635 5.683261,3.41885 7.669011,5.9926 1.8059,2.14471 3.00057,5.00829 5.7313,6.17929 4.38299,2.37975 8.24489,5.84921 10.90761,10.07627 1.52004,2.9578 3.15528,5.86457 4.58162,8.86711 0.93312,3.11188 0.76683,6.47578 0.25027,9.64968 -0.76833,3.41908 -3.66035,5.70885 -5.88131,8.20688 -2.30007,2.40904 -4.79389,4.64428 -7.69679,6.3057 -1.76256,1.26294 -3.80842,2.34079 -5.12651,4.10105 -0.89121,2.66339 -0.58527,5.55882 -1.00471,8.31482 -0.32595,1.61719 -0.13282,3.53364 -1.19731,4.89434 -1.6714,1.5445 -3.97475,2.50318 -6.254007,2.52627 -1.430883,-0.0785 -2.133757,-1.68361 -1.620586,-2.91627 0.816666,-1.93255 1.479619,-3.93928 1.555518,-6.06173 0.174129,-2.06797 0.19006,-4.15493 0.273546,-6.2314 -4.249997,-0.28945 -8.542929,-0.20732 -12.778137,0.22105 -1.272527,0.002 -2.172777,0.71123 -2.954722,1.64685 -2.51262,2.42194 -5.070591,5.46881 -8.774281,5.87171 -1.431039,0.26048 -3.631179,-0.13236 -3.505886,-1.99949 -0.759842,-0.8327 -2.637669,-0.73428 -2.697451,-2.16032 0.238726,-2.08928 2.642742,-2.78698 4.354256,-3.30846 2.310029,-0.62502 4.71466,-1.16366 6.814754,-2.32557 0.524373,-1.12355 0.318439,-2.50712 0.313123,-3.71214 -2.849905,1.28072 -5.782123,2.63069 -8.881198,3.21014 -1.15205,0.2127 -3.03495,-0.37826 -2.679305,-1.86087 1.404477,-2.38091 4.441156,-2.82509 6.822883,-3.72214 1.61877,-0.57598 3.182603,-1.30921 4.644062,-2.21465 -0.131408,-4.73903 -1.029444,-9.39501 -1.597324,-14.08674 -0.563537,-4.91309 -0.52666,-9.87016 -0.912681,-14.7917 -0.505399,-0.43419 -1.743935,0.0617 -2.538453,-0.0233 -1.896074,0.18339 -3.845857,-1.3654 -4.171298,-3.22236 0,-1.15213 0.8528,-2.05654 1.382932,-3.00721 0.664711,-1.00323 1.953498,-1.73108 1.689325,-3.09481 0.114233,-2.42449 0.328583,-5.13909 2.236102,-6.89088 0.752097,-1.05113 2.241389,-1.78931 1.974016,-3.26413 -0.03429,-1.00666 0.228452,-2.31656 1.408378,-2.52258 0.319682,-0.10356 0.652395,-0.18021 0.990351,-0.17041 0.04241,-0.003 0.08414,-0.004 0.125307,-0.003 z m -0.117905,0.87129 c -0.726279,0.006 -1.619571,0.31375 -1.559604,1.21509 -0.03173,0.27088 -0.39398,1.43601 0.268359,0.87573 0.694616,-0.66497 1.886844,-0.89016 2.466027,-1.54223 -0.318439,-0.28225 -0.738252,-0.53299 -1.174782,-0.54859 z m 6.199979,1.08201 c -2.633326,0.0132 -5.42745,0.22394 -7.397337,2.14515 -1.564818,1.49165 -3.509258,2.93608 -4.147964,5.09174 -0.10719,0.71573 0.933999,0.83262 0.857257,1.58733 0.165185,0.47174 -0.137394,1.44613 -0.715305,0.79884 -0.308223,-0.26027 -0.710047,-0.36816 -0.569295,0.25914 -0.261873,1.26004 0.207677,2.80156 -0.996981,3.66225 -0.416041,0.62092 -1.261254,1.2043 -1.396576,1.91965 1.154764,-0.15707 2.492102,-0.40484 3.584599,0.0691 0.229009,1.31163 -0.883805,2.6723 -2.095608,3.09851 -0.390065,-0.0437 -0.756212,0.36188 -0.24877,0.51346 1.697027,0.71616 3.571726,-0.1352 5.322404,-0.17965 1.862626,-0.008 3.491269,-1.10846 4.595254,-2.54624 0.322311,-0.55885 1.113257,-0.21652 0.730836,0.35783 -1.042417,1.84256 -3.061611,2.9877 -5.169007,3.02348 -0.472721,-0.0112 -0.821394,0.15496 -0.65168,0.68239 0.305523,6.78551 0.431901,13.61409 1.664564,20.30891 0.657496,5.4223 1.065592,10.91007 0.778144,16.36977 -0.842412,3.28015 -4.090369,5.05893 -6.750785,6.73342 -0.660553,0.54494 -1.917506,0.84224 -2.058659,1.77881 1.000482,1.2696 2.938163,0.82851 4.272943,0.40183 2.922403,-1.18333 4.924138,-3.84258 7.185873,-5.93974 1.568291,-1.63361 3.308753,-3.35421 3.635265,-5.71315 0.697673,-2.45336 1.147677,-4.98093 1.778068,-7.44241 0.24867,-0.57539 0.913453,0.0387 0.654681,0.47686 -0.650852,3.34295 -1.160151,6.79489 -2.544768,9.92692 -0.275546,0.55039 -1.015284,1.19873 -1.075308,1.64759 4.368573,-1.0182 8.910575,-0.1978 13.324084,-0.65282 -0.146024,-4.39053 -0.768185,-8.98005 -3.052639,-12.84726 -0.265959,-0.5908 0.623247,-0.77867 0.816951,-0.22847 2.672276,4.40392 3.043423,9.75899 3.096661,14.79206 -0.151425,3.61109 -0.04092,7.37434 -1.33558,10.80414 -0.411484,0.847 -1.022043,2.49107 0.246184,2.87895 1.966926,0.22748 3.888966,-0.80287 5.428106,-1.93704 1.33512,-1.22093 1.0022,-3.27896 1.33414,-4.8962 0.4322,-3.76011 0.29459,-7.73544 1.93479,-11.23477 0.83749,-4.17713 0.25546,-8.51556 0.78741,-12.72935 0.14796,-0.50234 0.76071,-0.17757 0.61551,0.27576 -0.0134,4.09503 0.073,8.22526 -0.46838,12.29205 0.0182,0.44926 -0.46889,1.15632 -0.36043,1.44869 1.89625,-1.56985 3.96502,-2.94699 6.06357,-4.23041 3.81563,-2.72734 6.91127,-6.30342 9.93988,-9.84635 1.82542,-2.60358 1.4545,-5.98078 1.52375,-8.99057 -0.0828,-3.35396 -2.42043,-6.04156 -3.70846,-8.99536 -1.47272,-3.44411 -3.98331,-6.27799 -6.74597,-8.75326 -2.28111,-2.23854 -5.24289,-3.55113 -7.79696,-5.3993 -2.60065,-3.23761 -4.70824,-7.01983 -8.094509,-9.53544 -2.477229,-1.47051 -5.543699,-0.98886 -8.30186,-1.19956 -1.124088,-0.0215 -2.248204,-0.0409 -3.372435,-0.0451 -0.366776,-0.001 -0.739481,-0.004 -1.115658,-0.002 z m 10.590099,1.02545 c 2.292169,-0.0313 3.446076,2.50855 3.392396,4.49879 -0.07897,0.98126 0.04534,2.20907 -0.582212,3.00832 -0.834825,0.0108 -0.342186,-1.20337 -0.370776,-1.66866 0.333499,-1.74291 0.02042,-4.10409 -1.848324,-4.83519 -1.882357,-0.48431 -3.662469,0.49058 -5.189696,1.4805 -0.410669,0.35157 -0.944086,-0.1761 -0.488696,-0.55856 1.278228,-1.34567 3.26566,-1.93373 5.087308,-1.9252 z m -10.917625,7.43872 c 0.512657,-0.004 1.427024,0.044 1.011012,0.69127 -1.209931,1.12583 -3.074714,0.81377 -4.587124,0.71271 -0.743968,0.0214 -0.303623,-0.76211 0.116433,-0.89347 0.935957,-0.62849 2.203483,-0.43853 3.26969,-0.50718 0.05179,-10e-4 0.116748,-0.003 0.189989,-0.004 z m -6.326029,41.80222 c -2.485573,1.17599 -5.084607,2.09743 -7.676426,3.00202 -1.057748,0.50355 -2.349193,0.98406 -2.954351,2.03758 0.0689,1.0429 1.567405,0.82413 2.265679,0.71013 2.955008,-0.73648 5.780066,-1.98881 8.497048,-3.36356 -0.04628,-0.78483 0.10056,-1.62492 -0.13195,-2.38617 z m -1.144106,8.58874 c -2.284353,0.85023 -4.664994,1.40965 -7.005113,2.08232 -0.888763,0.47433 -2.177007,0.89764 -2.445709,1.97732 0.311738,0.87607 1.528498,1.24432 2.396543,1.12896 2.549183,-1.20304 4.913479,-2.87064 6.964436,-4.80119 0.05632,-0.0665 0.342743,-0.41657 0.08984,-0.38741 z"
       style="opacity:1;fill:#000000;fill-opacity:1;stroke:#000000;stroke-width:0.07226039;stroke-linecap:round;stroke-linejoin:miter;stroke-miterlimit:4;stroke-dasharray:none;stroke-opacity:1" />
  </g>
</svg>
